
<svg xmlns="http://www.w3.org/2000/svg" version="1.1" xmlns:xlink="http://www.w3.org/1999/xlink" preserveAspectRatio="none" x="0px" y="0px" width="500px" height="500px" viewBox="0 0 500 500">
<defs>
<g id="Mask_7_MASK_0_FILL">
<path fill="#FFFFFF" stroke="none" d="
M 420 332.05
L 420 93.05 99 93.05 99 332.05 420 332.05 Z"/>
</g>

<g id="Layer7_0_FILL">
<path fill="#000000" fill-opacity="0.9294117647058824" stroke="none" d="
M 403.1 105.2
Q 403.4 104.35 403.65 103.5 405.1 98.85 400.6 99.5 395.6 100.25 396.85 104.4 397.5 106.45 397.4 108.5 397.3 112.45 397.2 116.85 397.15 117.5 396.85 117.7 396.05 118.15 396.85 119.35 397.55 120.45 396.1 122.05
L 396.05 122.3
Q 395.2 126.35 394.6 131.35 394.35 133.5 394.15 135.6 393.8 138.45 393.2 140.5 393 141.1 392.65 141.6 391.9 142.8 391.95 144.6 391.95 144.95 391.9 144.95 390.95 146.05 390.95 148.05 390.9 149.45 390.55 150.7 390.2 151.85 389.9 153 389.5 154.3 389.15 155.55 388.8 156.7 388.45 157.85 387.15 162 385.9 166.05 385 168.85 383.8 171.55 382.25 175.15 381.1 179.25 380.5 181.35 379.65 183.35
L 379.45 183.75
Q 380.75 184.8 379.4 185.85 377.7 187.2 376.8 189.6 374 197.05 370.1 203.6 368.2 206.85 366.85 210.55 366.6 211.2 366.25 211.5 365.95 211.85 365.7 212.2 364.5 213.9 363.55 215.6 357.9 225.35 351.3 234.05 346.85 239.95 342.05 245.65 337.35 251.25 332.2 256.55 322.15 266.95 308.5 273.9 305.15 275.6 301.4 277 297.55 278.45 293.75 279.7 289.7 281 284.8 281.5 282.5 281.75 279.95 281.6 279.55 281.6 279.2 281.6 275.7 281.65 273.65 280.55 272.3 280.2 271.6 279.15 270.9 278.1 269.95 277.4 269.5 277.1 269.1 276.75 266.6 274.75 264.9 271.75 263 268.35 261.5 264.05 260.05 259.9 260.15 256.95 260.15 256.6 260.05 256.2 258.95 251.9 258.75 246.55 258.75 246.2 258.75 245.9 259.15 238.9 255.65 236.15 252.85 235.8 252.25 237.55 251.65 239.45 251 241.1 250.75 241.7 250.5 242.25 248.7 245.85 247.25 250 244.65 257.75 240.5 264 239.65 265.3 238.7 266.45 237.45 267.9 236.4 269.55 232.3 275.95 226.4 280.4 223.4 282.7 220.2 284.65 216.5 286.95 212.6 286.1 208.05 284.05 206.15 279.25 204 274.15 203.7 270.15 203.6 268.75 203.3 267.45 202.4 263.35 202.55 258.35 202.55 258 202.5 257.75 201.35 253.1 202.5 248.55 202.55 248.3 202.55 247.95 202.65 245.7 202.6 241.7 202.6 238.3 202.6 237.55 202.55 236.15 202.45 234.8 202.3 233 202.7 230.55 204.2 221.7 199.45 218.8 199.1 218.45 198.75 218.45 195.75 218.6 194.8 220.95 194.25 222.25 193.5 223.4 191.3 227 189.45 231.15 186.3 238.25 183.05 245.25 182.8 245.85 182.45 246.25 180.7 248.25 181.15 249.45 181.4 250 181.1 250.15 180.05 250.75 179.6 251.55 179.3 252.1 179.05 252.65 175.45 259.35 171.7 266 169.8 269.3 167.85 272.45 164.9 277.2 161.25 281.25 160.95 281.6 160.75 282 158.85 285.4 156.55 288.3 147.35 299.6 136.2 308.9 133.35 311.25 129.95 312.85 129.35 313.15 129.35 313.1 129.15 309.9 125.9 310.4 125.9 311.4 125.8 312.45 125.45 316.4 127.5 317.7 128 318 128.1 318.3 128.6 319.15 129.95 318.4 133.9 316.3 137.4 313.5 143.2 308.9 148.75 304.1 149.15 303.8 149.45 303.4 159.1 292.6 167.45 280.5 175.8 268.35 182.95 255 186.55 248.2 189.5 240.9 189.7 240.3 190 239.75 191.75 236.45 193.95 233.4 194.25 233.05 194.25 232.65 194.8 227.7 198.75 226.45 198.35 228.7 198.25 232.7 198.2 236.8 198.35 238.95 198.4 239.25 198.45 239.45 198.9 240.5 198.55 242.35 198 245.15 198.35 248.6 198.4 249 198.35 249.15 197.8 250.45 198.45 252.65 198.7 253.55 198.35 254.75 198.1 255.6 198.45 256.85 199.2 259.65 199.1 263.9 199.1 264.25 199.1 264.6 200.05 284.45 213.3 291.65 216.35 291.6 218.75 290.7 219.9 290.25 221.05 289.75 222.35 289.2 223.5 288.5 227.55 286.15 230.95 282.95 231.35 282.65 231.65 282.3 241.6 271.7 248.8 258.4 249.4 257.3 249.75 256.15 251.1 252.1 253.55 249.35 254.75 251.65 254.7 253.5 254.7 257.2 255.65 259.75 257.6 265.05 259.9 270.1 263.15 277.2 269.05 281.6 269.5 281.95 270 282.25 273.05 284.3 276.45 286.1 281.35 287 284.8 286.35 289.4 285.55 293.7 284.4 296.3 283.65 298 283.45 299 283.3 299.8 282.9 301.2 282.05 302.9 281.55 305.2 280.85 306.85 279.7 311.35 276.65 316.45 273.9 323.1 270.35 328.1 264.95 328.45 264.6 328.7 264.5 331.15 263.5 332.75 261.9 334.15 260.55 335.55 259.15 340.65 253.85 345.45 248.3 345.8 247.95 346.15 247.55 347.9 245.5 349.4 243.15 349.6 242.75 349.85 242.3 350.65 241 351.65 239.9 356.6 234.45 360.45 227.85 362.3 224.55 364.25 221.4 372.05 208.65 378.85 195.1 379.1 194.55 379.45 194.15 380.9 192.5 381.45 189.75 381.55 189.3 381.6 188.9 381.9 187.6 382.3 186.75 384.05 183.15 385.3 179.25 386.55 175.2 387.9 171.55 390.7 163.8 393 155.7 394.15 151.6 395.3 147.4 395.4 147 395.45 146.65 395.65 143.8 396.4 141.75 397.5 139.05 398.1 135.6 398.2 135.2 398.25 134.85 399.5 125.45 401.25 116.85 402.15 112.45 402.55 107.8 402.7 106.45 403.1 105.2 Z"/>
</g>

<g id="Mask_5_MASK_0_FILL">
<path fill="#FFFFFF" stroke="none" d="
M 39 300.05
L 39 376.05 198 376.05 198 300.05 39 300.05 Z"/>
</g>

<g id="Layer5_0_FILL">
<path fill="#000000" fill-opacity="0.5647058823529412" stroke="none" d="
M 163.35 322.15
Q 163 322.15 162.65 322.15 162.65 322.5 162.65 322.85 163 322.85 163.2 322.7 163.35 322.5 163.35 322.15 Z"/>

<path fill="#000000" fill-opacity="0.5529411764705883" stroke="none" d="
M 175 312.3
Q 175.15 312.1 175.15 311.75 174.8 311.75 174.45 311.75 174.45 312.1 174.45 312.45 174.8 312.45 175 312.3
M 187.8 307.45
Q 188 307.6 188.35 307.6 188.35 307.25 188.15 307.1 188 306.9 187.65 306.9 187.65 307.25 187.8 307.45
M 112.05 343
Q 112.05 342.65 111.85 342.45 111.7 342.3 111.35 342.3 111.35 342.65 111.5 342.8 111.7 343 112.05 343 Z"/>

<path fill="#000000" fill-opacity="0.5333333333333333" stroke="none" d="
M 176.55 310.4
Q 176.55 310.7 176.55 311.05 176.9 311.05 177.05 310.9 177.25 310.7 177.25 310.4 176.9 310.4 176.55 310.4 Z"/>

<path fill="#000000" fill-opacity="0.5215686274509804" stroke="none" d="
M 177.95 310.4
Q 178.3 310.4 178.45 310.2 178.6 310.05 178.6 309.7 178.3 309.7 177.95 309.7 177.95 310.05 177.95 310.4
M 87.75 355.45
Q 88.1 355.45 88.25 355.3 88.45 355.1 88.45 354.75 88.1 354.75 87.75 354.75 87.75 355.1 87.75 355.45
M 114.1 340.9
Q 114.1 341.25 114.1 341.6 114.45 341.6 114.65 341.4 114.8 341.25 114.8 340.9 114.45 340.9 114.1 340.9
M 101.6 345.75
Q 101.6 346.1 101.6 346.45 101.95 346.45 102.15 346.3 102.3 346.1 102.3 345.75 101.95 345.75 101.6 345.75
M 161.3 323.55
Q 161.65 323.55 161.8 323.4 162 323.2 162 322.85 161.65 322.85 161.3 322.85 161.3 323.2 161.3 323.55 Z"/>

<path fill="#000000" fill-opacity="0.5019607843137255" stroke="none" d="
M 166.85 320.1
Q 166.5 320.1 166.15 320.1 166.15 320.45 166.15 320.8 166.85 320.8 167.4 320.5 167.55 320.45 167.55 320.1 167.2 320.1 166.85 320.1
M 96.6 352.5
Q 96.75 352.35 96.75 352 96.4 352 96.05 352 96.05 352.35 96.05 352.7 96.4 352.7 96.6 352.5
M 60.7 364.5
Q 60.35 364.5 60 364.5 59.65 364.5 59.3 364.5 59.3 364.85 59.3 365.2 60 365.2 60.55 364.9 60.7 364.85 60.7 364.5 Z"/>

<path fill="#000000" fill-opacity="0.4235294117647059" stroke="none" d="
M 163.9 317.85
Q 164.05 317.65 164.05 317.3 163.7 317.3 163.35 317.3 163.35 317.65 163.35 318 163.7 318 163.9 317.85
M 96.6 348.35
Q 96.75 348.2 96.75 347.85 96.4 347.85 96.05 347.85 96.05 348.2 96.05 348.55 96.4 348.55 96.6 348.35 Z"/>

<path fill="#000000" fill-opacity="0.5098039215686274" stroke="none" d="
M 165.25 317.15
Q 165.45 316.95 165.45 316.6 165.1 316.6 164.75 316.6 164.75 316.95 164.75 317.3 165.1 317.3 165.25 317.15
M 100.95 346.45
Q 100.25 346.45 99.55 346.45 99.55 346.8 99.55 347.15 100.6 347.15 101.5 346.85 101.6 346.8 101.6 346.45 101.3 346.45 100.95 346.45 Z"/>

<path fill="#000000" fill-opacity="0.5490196078431373" stroke="none" d="
M 168.9 315.25
Q 168.55 315.25 168.2 315.25 168.2 315.6 168.2 315.95 168.55 315.95 168.75 315.75 168.9 315.6 168.9 315.25
M 105.8 349.2
Q 106.15 349.2 106.3 349.05 106.5 348.9 106.5 348.55 106.15 348.55 105.8 348.55 105.8 348.9 105.8 349.2
M 75.15 360
Q 75.25 360 75.25 359.65 74.9 359.65 74.55 359.65 73.85 359.65 73.2 359.65 73.2 360 73.2 360.3 74.2 360.3 75.15 360
M 73.2 356.85
Q 73.55 356.85 73.7 356.7 73.85 356.5 73.85 356.15 73.55 356.15 73.2 356.15 73.2 356.5 73.2 356.85 Z"/>

<path fill="#000000" fill-opacity="0.5882352941176471" stroke="none" d="
M 180.7 308.3
Q 181.05 308.3 181.25 308.1 181.4 307.95 181.4 307.6 181.05 307.6 180.7 307.6 180.7 307.95 180.7 308.3
M 90.5 354.75
Q 90.85 354.75 91.05 354.6 91.2 354.45 91.2 354.1 90.85 354.1 90.5 354.1 90.5 354.45 90.5 354.75
M 53.6 367.8
Q 53.75 367.6 53.75 367.25 53.4 367.25 53.05 367.25 53.05 367.6 53.05 367.95 53.4 367.95 53.6 367.8
M 62.75 359.65
Q 62.45 359.65 62.1 359.65 62.1 360 62.1 360.3 62.45 360.3 62.6 360.15 62.75 360 62.75 359.65 Z"/>

<path fill="#000000" fill-opacity="0.40784313725490196" stroke="none" d="
M 179.3 309
Q 178.95 309 178.6 309 178.6 309.35 178.6 309.7 178.95 309.7 179.15 309.5 179.3 309.35 179.3 309
M 138.4 333.95
Q 138.05 333.95 137.7 333.95 137.7 334.3 137.7 334.65 138.05 334.65 138.2 334.5 138.4 334.3 138.4 333.95 Z"/>

<path fill="#000000" fill-opacity="0.49411764705882355" stroke="none" d="
M 186.8 306.4
Q 186.6 306.2 186.25 306.2 186.25 306.55 186.45 306.75 186.6 306.9 186.95 306.9 186.95 306.55 186.8 306.4 Z"/>

<path fill="#000000" fill-opacity="0.5803921568627451" stroke="none" d="
M 85.65 355.45
Q 85.65 355.8 85.65 356.15 86 356.15 86.2 356 86.35 355.8 86.35 355.45 86 355.45 85.65 355.45 Z"/>

<path fill="#000000" fill-opacity="0.5607843137254902" stroke="none" d="
M 82.9 356.15
Q 82.9 356.5 82.9 356.85 83.95 356.85 84.85 356.55 84.95 356.5 84.95 356.15 84.65 356.15 84.3 356.15 83.6 356.15 82.9 356.15 Z"/>

<path fill="#000000" fill-opacity="0.5568627450980392" stroke="none" d="
M 84.3 352
Q 83.95 352 83.6 352 83.6 352.35 83.6 352.7 83.95 352.7 84.1 352.5 84.3 352.35 84.3 352
M 80.65 353.9
Q 80.8 353.75 80.8 353.4 80.45 353.4 80.1 353.4 80.1 353.75 80.1 354.1 80.45 354.1 80.65 353.9 Z"/>

<path fill="#000000" fill-opacity="0.5058823529411764" stroke="none" d="
M 89.85 350.6
Q 90.2 350.95 90.5 350.95
L 90.5 350.6
Q 90.2 350.6 89.85 350.6
M 78.05 358.25
Q 77.7 358.25 77.35 358.25 77.35 358.6 77.35 358.95 77.7 358.95 77.85 358.75 78.05 358.6 78.05 358.25
M 78.55 354.6
Q 78.75 354.45 78.75 354.1 78.4 354.1 78.05 354.1 78.05 354.45 78.05 354.75 78.4 354.75 78.55 354.6 Z"/>

<path fill="#000000" fill-opacity="0.48627450980392156" stroke="none" d="
M 94.5 353.2
Q 94.7 353.05 94.7 352.7 94.35 352.7 94 352.7 94 353.05 94 353.4 94.35 353.4 94.5 353.2
M 109.95 343
Q 109.6 343 109.25 343 109.25 343.35 109.25 343.65 109.6 343.65 109.75 343.5 109.95 343.35 109.95 343
M 75.95 358.95
Q 75.95 359.3 75.95 359.65 76.3 359.65 76.5 359.45 76.65 359.3 76.65 358.95 76.3 358.95 75.95 358.95 Z"/>

<path fill="#000000" fill-opacity="0.4196078431372549" stroke="none" d="
M 101.45 351.15
Q 101.6 350.95 101.6 350.6 101.3 350.6 100.95 350.6 100.95 350.95 100.95 351.3 101.3 351.3 101.45 351.15
M 159.9 323.55
Q 159.9 323.9 159.9 324.25 160.25 324.25 160.4 324.1 160.6 323.9 160.6 323.55 160.25 323.55 159.9 323.55
M 54.45 367.25
Q 54.8 367.25 54.95 367.1 55.15 366.9 55.15 366.55 54.8 366.55 54.45 366.55 54.45 366.9 54.45 367.25
M 72.3 360.85
Q 72.5 360.65 72.5 360.3 72.15 360.3 71.8 360.3 71.8 360.65 71.8 361 72.15 361 72.3 360.85 Z"/>

<path fill="#000000" fill-opacity="0.592156862745098" stroke="none" d="
M 103 349.9
Q 102.65 349.9 102.3 349.9 102.3 350.25 102.3 350.6 102.65 350.6 102.85 350.45 103 350.25 103 349.9 Z"/>

<path fill="#000000" fill-opacity="0.596078431372549" stroke="none" d="
M 108.55 347.85
Q 108.9 347.85 109.1 347.65 109.25 347.5 109.25 347.15 108.9 347.15 108.55 347.15 108.55 347.5 108.55 347.85
M 118.1 343.5
Q 118.25 343.35 118.25 343 117.9 343 117.6 343 117.6 343.35 117.6 343.65 117.9 343.65 118.1 343.5 Z"/>

<path fill="#000000" fill-opacity="0.4980392156862745" stroke="none" d="
M 113.25 342.8
Q 113.4 342.65 113.4 342.3 113.05 342.3 112.7 342.3 112.7 342.65 112.7 343 113.05 343 113.25 342.8 Z"/>

<path fill="#000000" fill-opacity="0.396078431372549" stroke="none" d="
M 118.25 339.5
Q 118.6 339.5 118.8 339.35 118.95 339.15 118.95 338.8 118.6 338.8 118.25 338.8 118.25 339.15 118.25 339.5 Z"/>

<path fill="#000000" fill-opacity="0.5176470588235295" stroke="none" d="
M 116.9 339.5
Q 116.9 339.85 116.9 340.2 117.25 340.2 117.4 340.05 117.6 339.85 117.6 339.5 117.25 339.5 116.9 339.5 Z"/>

<path fill="#000000" fill-opacity="0.43137254901960786" stroke="none" d="
M 107.85 343.65
Q 107.85 344 107.85 344.35 108.2 344.35 108.4 344.2 108.55 344 108.55 343.65 108.2 343.65 107.85 343.65
M 136.15 335.85
Q 136.3 335.7 136.3 335.35 135.95 335.35 135.6 335.35 135.6 335.7 135.6 336.05 135.95 336.05 136.15 335.85 Z"/>

<path fill="#000000" fill-opacity="0.47058823529411764" stroke="none" d="
M 146 326.35
Q 145.7849609375 326.35 145.6 326.35 145.465625 326.35 145.35 326.35 145.35 326.533984375 145.35 326.7 145.35 326.883984375 145.35 327.05 145.65 327.05 145.85 326.85 146 326.7 146 326.35
M 141.6 333.15
Q 141.66015625 333.1298828125 141.7 333.1 141.803125 332.9625 141.8 332.75 141.85 332.6595703125 141.85 332.55 141.5 332.55 141.15 332.55 141.15 332.9 141.15 333.25 141.43046875 333.25 141.6 333.15 Z"/>

<path fill="#000000" fill-opacity="0.5294117647058824" stroke="none" d="
M 151.55 327.7
Q 151.2 327.7 150.9 327.7 150.9 328.05 150.9 328.4 151.2 328.4 151.4 328.25 151.55 328.05 151.55 327.7 Z"/>

<path fill="#000000" fill-opacity="0.4549019607843137" stroke="none" d="
M 147.25 326.15
Q 147.4 326 147.4 325.65 147.05 325.65 146.7 325.65 146.7 326 146.7 326.35 147.05 326.35 147.25 326.15
M 155.75 325.65
Q 155.75 326 155.75 326.35 156.1 326.35 156.25 326.15 156.45 326 156.45 325.65 156.1 325.65 155.75 325.65 Z"/>

<path fill="#000000" fill-opacity="0.4745098039215686" stroke="none" d="
M 148.8 324.95
Q 148.45 324.95 148.1 324.95 148.1 325.3 148.1 325.65 148.45 325.65 148.6 325.45 148.8 325.3 148.8 324.95
M 46.8 365.85
Q 46.45 365.85 46.15 365.85 46.15 366.55 46.4 367.1 46.45 367.25 46.8 367.25 46.8 366.9 46.8 366.55 46.8 366.2 46.8 365.85 Z"/>

<path fill="#000000" fill-opacity="0.6039215686274509" stroke="none" d="
M 154.35 326.35
Q 154.35 326.7 154.35 327.05 154.7 327.05 154.85 326.85 155.05 326.7 155.05 326.35 154.7 326.35 154.35 326.35
M 132.85 333.25
Q 132.5 333.25 132.15 333.25 132.15 333.6 132.15 333.95 132.5 333.95 132.65 333.8 132.85 333.6 132.85 333.25
M 161.1 319.9
Q 161.3 319.75 161.3 319.4 160.95 319.4 160.6 319.4 160.6 319.75 160.6 320.1 160.95 320.1 161.1 319.9 Z"/>

<path fill="#000000" fill-opacity="0.5411764705882353" stroke="none" d="
M 152.1 324.1
Q 152.25 323.9 152.25 323.55 151.9 323.55 151.55 323.55 151.55 323.9 151.55 324.25 151.9 324.25 152.1 324.1
M 69.7 361.7
Q 70.05 361.7 70.25 361.55 70.4 361.35 70.4 361 70.05 361 69.7 361 69.7 361.35 69.7 361.7 Z"/>

<path fill="#000000" fill-opacity="0.44313725490196076" stroke="none" d="
M 157.8 324.95
Q 157.45 324.95 157.1 324.95 157.1 325.3 157.1 325.65 157.45 325.65 157.65 325.45 157.8 325.3 157.8 324.95 Z"/>

<path fill="#000000" fill-opacity="0.4823529411764706" stroke="none" d="
M 159.2 324.25
Q 158.85 324.25 158.5 324.25 158.5 324.6 158.5 324.95 158.85 324.95 159.05 324.75 159.2 324.6 159.2 324.25
M 52.35 364.5
Q 52.7 364.5 52.9 364.3 53.05 364.15 53.05 363.8 52.7 363.8 52.35 363.8 52.35 364.15 52.35 364.5 Z"/>

<path fill="#000000" fill-opacity="0.4392156862745098" stroke="none" d="
M 123.8 340.9
Q 123.45 340.9 123.15 340.9 123.15 341.25 123.15 341.6 123.45 341.6 123.65 341.4 123.8 341.25 123.8 340.9
M 129.2 335.2
Q 129.35 335 129.35 334.65 129 334.65 128.7 334.65 128.7 335 128.7 335.35 129 335.35 129.2 335.2 Z"/>

<path fill="#000000" fill-opacity="0.41568627450980394" stroke="none" d="
M 129.9 338.65
Q 130.05 338.45 130.05 338.1 129.7 338.1 129.35 338.1 129.35 338.45 129.35 338.8 129.7 338.8 129.9 338.65 Z"/>

<path fill="#000000" fill-opacity="0.5725490196078431" stroke="none" d="
M 141.15 328.4
Q 141.15 328.75 141.15 329.1 141.5 329.1 141.7 328.95 141.85 328.75 141.85 328.4 141.5 328.4 141.15 328.4
M 80.1 357.55
Q 79.75 357.55 79.4 357.55 79.4 357.9 79.4 358.25 79.75 358.25 79.95 358.05 80.1 357.9 80.1 357.55 Z"/>

<path fill="#000000" fill-opacity="0.4588235294117647" stroke="none" d="
M 160.6 320.1
Q 160.25 320.1 159.9 320.1 159.55 320.1 159.2 320.1 159.15 321.25 160.45 320.5 160.6 320.45 160.6 320.1
M 161.3 318.7
Q 161.3 319.05 161.3 319.4 161.65 319.4 161.8 319.2 162 319.05 162 318.7 161.65 318.7 161.3 318.7 Z"/>

<path fill="#000000" fill-opacity="0.4470588235294118" stroke="none" d="
M 51.7 367.95
Q 51.35 367.95 51 367.95 51 368.3 51 368.65 51.35 368.65 51.5 368.45 51.7 368.3 51.7 367.95
M 68.3 358.25
Q 68.65 358.25 69 358.25 69 357.9 68.85 357.7 68.65 357.55 68.3 357.55 68.3 357.9 68.3 358.25 Z"/>

<path fill="#000000" fill-opacity="0.5450980392156862" stroke="none" d="
M 55.15 362.4
Q 55.15 362.75 55.15 363.1 55.5 363.1 55.65 362.9 55.85 362.75 55.85 362.4 55.5 362.4 55.15 362.4 Z"/>

<path fill="#000000" fill-opacity="0.43529411764705883" stroke="none" d="
M 57.75 361.55
Q 57.9 361.35 57.9 361 57.55 361 57.25 361 57.25 361.35 57.25 361.7 57.55 361.7 57.75 361.55 Z"/>

<path fill="#000000" fill-opacity="0.615686274509804" stroke="none" d="
M 48.9 365.2
Q 48.55 365.2 48.2 365.2 47.5 365.2 46.8 365.2 46.8 365.55 46.8 365.85 47.85 365.85 48.8 365.55 48.9 365.55 48.9 365.2 Z"/>

<path fill="#000000" fill-opacity="0.45098039215686275" stroke="none" d="
M 50.15 364.9
Q 50.3 364.85 50.3 364.5 49.95 364.5 49.6 364.5 49.25 364.5 48.9 364.5 48.9 364.85 48.9 365.2 49.6 365.2 50.15 364.9 Z"/>

<path fill="#000000" fill-opacity="0.9647058823529412" stroke="none" d="
M 73.7 356.7
Q 73.55 356.85 73.2 356.85 72.85 356.85 72.5 356.9 70.45 357.25 69 358.25 68.65 358.25 68.3 358.25 68 358.25 67.85 358.4 66.35 360.1 62.75 359.65 62.75 360 62.6 360.15 62.45 360.3 62.1 360.3 61.75 360.3 61.4 360.45 59.85 360.9 57.9 361 57.9 361.35 57.75 361.55 57.55 361.7 57.25 361.7 56.9 361.7 56.6 361.85 56.2 362.05 55.85 362.4 55.85 362.75 55.65 362.9 55.5 363.1 55.15 363.1 54.8 363.1 54.8 363.15 54.55 364.25 53.05 363.8 53.05 364.15 52.9 364.3 52.7 364.5 52.35 364.5 52 364.5 51.7 364.5 51 364.5 50.3 364.5 50.3 364.85 50.15 364.9 49.6 365.2 48.9 365.2 48.9 365.55 48.8 365.55 47.85 365.85 46.8 365.85 46.8 366.2 46.8 366.55 46.8 366.9 46.8 367.25 47.35 369.15 50.3 368.7 50.65 368.65 51 368.65 51 368.3 51 367.95 51.35 367.95 51.7 367.95 52 367.95 52.35 367.95 52.7 367.95 53.05 367.95 53.05 367.6 53.05 367.25 53.4 367.25 53.75 367.25 54.1 367.25 54.45 367.25 54.45 366.9 54.45 366.55 54.8 366.55 55.15 366.55 56.9 365.85 58.65 365.3 58.95 365.2 59.3 365.2 59.3 364.85 59.3 364.5 59.65 364.5 60 364.5 60.35 364.5 60.7 364.5 64.85 363.1 69.05 361.8 69.35 361.7 69.7 361.7 69.7 361.35 69.7 361 70.05 361 70.4 361 70.75 361 71.1 361 71.45 361 71.8 361 71.8 360.65 71.8 360.3 72.15 360.3 72.5 360.3 72.85 360.3 73.2 360.3 73.2 360 73.2 359.65 73.85 359.65 74.55 359.65 74.9 359.65 75.25 359.65 75.6 359.65 75.95 359.65 75.95 359.3 75.95 358.95 76.3 358.95 76.65 358.95 77 358.95 77.35 358.95 77.35 358.6 77.35 358.25 77.7 358.25 78.05 358.25 78.4 358.25 78.75 358.25 79.1 358.25 79.4 358.25 79.4 357.9 79.4 357.55 79.75 357.55 80.1 357.55 82 358.05 82.5 357 82.55 356.85 82.9 356.85 82.9 356.5 82.9 356.15 83.6 356.15 84.3 356.15 84.65 356.15 84.95 356.15 85.3 356.15 85.65 356.15 85.65 355.8 85.65 355.45 86 355.45 86.35 355.45 86.7 355.45 87.05 355.45 87.4 355.45 87.75 355.45 87.75 355.1 87.75 354.75 88.1 354.75 88.45 354.75 89.15 354.75 89.85 354.75 90.2 354.75 90.5 354.75 90.5 354.45 90.5 354.1 90.85 354.1 91.2 354.1 91.95 353.4 93.3 353.4 93.65 353.4 94 353.4 94 353.05 94 352.7 94.35 352.7 94.7 352.7 95.05 352.7 95.4 352.7 95.75 352.7 96.05 352.7 96.05 352.35 96.05 352 96.4 352 96.75 352 97.9 351.05 100.25 351.25 100.6 351.3 100.95 351.3 100.95 350.95 100.95 350.6 101.3 350.6 101.6 350.6 101.95 350.6 102.3 350.6 102.3 350.25 102.3 349.9 102.65 349.9 103 349.9 103.75 349.25 105.1 349.2 105.45 349.2 105.8 349.2 105.8 348.9 105.8 348.55 106.15 348.55 106.5 348.55 107.95 349 108.2 347.9 108.2 347.85 108.55 347.85 108.55 347.5 108.55 347.15 108.9 347.15 109.25 347.15 111.6 346.75 112.9 345.2 113.85 344.15 116.2 344 116.55 344 116.95 343.8 117.25 343.65 117.6 343.65 117.6 343.35 117.6 343 117.9 343 118.25 343 120.1 342.05 122.45 341.65 122.8 341.6 123.15 341.6 123.15 341.25 123.15 340.9 123.45 340.9 123.8 340.9 126.4 340 128.75 338.95 129 338.8 129.35 338.8 129.35 338.45 129.35 338.1 129.7 338.1 130.05 338.1 132.8 337.4 135 336.2 135.25 336.05 135.6 336.05 135.6 335.7 135.6 335.35 135.95 335.35 136.3 335.35 136.65 335 137.05 334.8 137.35 334.65 137.7 334.65 137.7 334.3 137.7 333.95 138.05 333.95 138.4 333.95 138.4 333.6 138.4 333.25 139.45 333.25 140.45 333.25 140.8 333.25 141.15 333.25 141.15 332.9 141.15 332.55 141.5 332.55 141.85 332.55 141.9083984375 332.526171875 141.95 332.5 144.105859375 331.6314453125 146.15 330.95 149 330 150.9 328.4 150.9 328.05 150.9 327.7 151.2 327.7 151.55 327.7 153.45 328.2 153.95 327.15 154 327.05 154.35 327.05 154.35 326.7 154.35 326.35 154.7 326.35 155.05 326.35 155.4 326.35 155.75 326.35 155.75 326 155.75 325.65 156.1 325.65 156.45 325.65 156.75 325.65 157.1 325.65 157.1 325.3 157.1 324.95 157.45 324.95 157.8 324.95 158.15 324.95 158.5 324.95 158.5 324.6 158.5 324.25 158.85 324.25 159.2 324.25 159.55 324.25 159.9 324.25 159.9 323.9 159.9 323.55 160.25 323.55 160.6 323.55 160.95 323.55 161.3 323.55 161.3 323.2 161.3 322.85 161.65 322.85 162 322.85 162.3 322.85 162.65 322.85 162.65 322.5 162.65 322.15 163 322.15 163.35 322.15 164.4 321.5 165.5 320.9 165.8 320.8 166.15 320.8 166.15 320.45 166.15 320.1 166.5 320.1 166.85 320.1 167.2 320.1 167.55 320.1 169.18984375 319.6650390625 170.55 318.95 171.4806640625 318.1712890625 172.4 317.35 172.4 317.339453125 172.4 317.3 172.4794921875 317.278125 172.55 317.25 173.5564453125 316.4078125 174.55 315.55 179.25 311.4 186 308.05
L 189 308.05
Q 188.8216796875 307.68203125 188.35 307.6 188 307.6 187.8 307.45 187.65 307.25 187.65 306.9 187.3 306.9 186.95 306.9 186.6 306.9 186.45 306.75 186.25 306.55 186.25 306.2 185.9 306.2 185.65 306.35 183.7 307.15 181.4 307.6 181.4 307.95 181.25 308.1 181.05 308.3 180.7 308.3 180.35 308.3 180.1 308.45 179.65 308.65 179.3 309 179.3 309.35 179.15 309.5 178.95 309.7 178.6 309.7 178.6 310.05 178.45 310.2 178.3 310.4 177.95 310.4 177.6 310.4 177.25 310.4 177.25 310.7 177.05 310.9 176.9 311.05 176.55 311.05 176.2 311.05 175.9 311.2 175.5 311.4 175.15 311.75 175.15 312.1 175 312.3 174.8 312.45 174.45 312.45 174.1 312.45 173.85 312.6 171.35 313.85 168.9 315.25 168.9 315.6 168.75 315.75 168.55 315.95 168.2 315.95 167.85 315.95 167.55 315.95 166.15 315.95 165.45 316.6 165.45 316.95 165.25 317.15 165.1 317.3 164.75 317.3 164.4 317.3 164.05 317.3 164.05 317.65 163.9 317.85 163.7 318 163.35 318 163 318 162.75 318.15 162.3 318.35 162 318.7 162 319.05 161.8 319.2 161.65 319.4 161.3 319.4 161.3 319.75 161.1 319.9 160.95 320.1 160.6 320.1 160.6 320.45 160.45 320.5 159.15 321.25 159.2 320.1 158.85 320.1 158.6 320.25 155.65 322.05 152.25 323.55 152.25 323.9 152.1 324.1 151.9 324.25 151.55 324.25 151.2 324.25 151 324.4 150.15 324.9 148.8 324.95 148.8 325.3 148.6 325.45 148.45 325.65 148.1 325.65 147.75 325.65 147.4 325.65 147.4 326 147.25 326.15 147.05 326.35 146.7 326.35 146.35 326.35 146 326.35 146 326.7 145.85 326.85 145.65 327.05 145.35 327.05 145.2087890625 327.05 145.1 327.05 144.9798828125 327.0904296875 144.95 327.15 144.3 328.8 141.85 328.4 141.85 328.75 141.7 328.95 141.5 329.1 141.15 329.1 139.35 330.05 137.05 330.7 136.65 330.85 136.55 331.25 135.7 334.15 132.85 332.55 132.85 332.9 132.85 333.25 132.85 333.6 132.65 333.8 132.5 333.95 132.15 333.95 131.8 333.95 131.55 334.15 130.7 334.6 129.35 334.65 129.35 335 129.2 335.2 129 335.35 128.7 335.35 127.65 335.35 126.8 335.75 126.25 336.05 125.7 336.5 124.5 337.45 123.05 337.7 122.8 337.8 122.7 337.8 121.35 338.8 118.95 338.8 118.95 339.15 118.8 339.35 118.6 339.5 118.25 339.5 117.9 339.5 117.6 339.5 117.6 339.85 117.4 340.05 117.25 340.2 116.9 340.2 116.55 340.2 116.25 340.3 115.5 340.55 114.8 340.9 114.8 341.25 114.65 341.4 114.45 341.6 114.1 341.6 113.75 341.6 113.4 341.6 113.4 341.95 113.4 342.3 113.4 342.65 113.25 342.8 113.05 343 112.7 343 112.4 343 112.05 343 111.7 343 111.5 342.8 111.35 342.65 111.35 342.3 111 342.3 110.7 342.45 110.3 342.65 109.95 343 109.95 343.35 109.75 343.5 109.6 343.65 109.25 343.65 108.9 343.65 108.55 343.65 108.55 344 108.4 344.2 108.2 344.35 107.85 344.35 107.5 344.35 107.2 344.45 105 345.35 102.3 345.75 102.3 346.1 102.15 346.3 101.95 346.45 101.6 346.45 101.6 346.8 101.5 346.85 100.6 347.15 99.55 347.15 99.2 347.15 99.15 347.3 98.65 348.3 96.75 347.85 96.75 348.2 96.6 348.35 96.4 348.55 96.05 348.55 95.75 348.9 95.3 349 94.7 349.2 94.05 349.4 92.25 349.9 90.5 350.6
L 90.5 350.95
Q 90.2 350.95 89.85 350.6 89.5 350.6 89.2 350.75 87.15 351.8 84.3 352 84.3 352.35 84.1 352.5 83.95 352.7 83.6 352.7 83.25 352.7 83.15 352.85 82.7 353.85 80.8 353.4 80.8 353.75 80.65 353.9 80.45 354.1 80.1 354.1 79.75 354.1 79.4 354.1 79.1 354.1 78.75 354.1 78.75 354.45 78.55 354.6 78.4 354.75 78.05 354.75 77.7 354.75 77.4 354.9 75.9 355.75 73.85 356.15 73.85 356.5 73.7 356.7
M 160.6 321.15
L 160.6 320.8
Q 162.15 321.15 160.6 321.15 Z"/>

<path fill="#000000" fill-opacity="0.5843137254901961" stroke="none" d="
M 160.6 320.8
L 160.6 321.15
Q 162.15 321.15 160.6 320.8 Z"/>
</g>

<g id="Mask_3_MASK_0_FILL">
<path fill="#FFFFFF" stroke="none" d="
M 133 300.05
L 133 366.05 198 366.05 198 300.05 133 300.05 Z"/>
</g>

<g id="Layer3_0_FILL">
<path fill="#000000" fill-opacity="0.4470588235294118" stroke="none" d="
M 162.65 333.95
Q 162.3 333.95 162 333.95 162 334.3 162 334.65 162.3 334.65 162.5 334.5 162.65 334.3 162.65 333.95 Z"/>

<path fill="#000000" fill-opacity="0.5843137254901961" stroke="none" d="
M 164.6 331.7
Q 164.75 331.55 164.75 331.2 164.4 331.2 164.05 331.2 164.05 331.55 164.05 331.9 164.4 331.9 164.6 331.7 Z"/>

<path fill="#000000" fill-opacity="0.4666666666666667" stroke="none" d="
M 166.85 324.25
Q 166.5 324.25 166.15 324.25 166.15 324.6 166.15 324.95 166.5 324.95 166.65 324.75 166.85 324.6 166.85 324.25 Z"/>

<path fill="#000000" fill-opacity="0.49411764705882355" stroke="none" d="
M 169.6 327.7
Q 169.25 327.7 168.9 327.7 168.9 328.05 168.9 328.4 169.25 328.4 169.45 328.25 169.6 328.05 169.6 327.7
M 188.85 310.9
Q 189.05 310.7 189.05 310.4 188.7 310.4 188.35 310.4 188.35 310.7 188.35 311.05 188.7 311.05 188.85 310.9 Z"/>

<path fill="#000000" fill-opacity="0.5294117647058824" stroke="none" d="
M 170.3 327.05
Q 169.95 327.05 169.6 327.05 169.6 327.35 169.6 327.7 169.95 327.7 170.15 327.55 170.3 327.35 170.3 327.05 Z"/>

<path fill="#000000" fill-opacity="0.40784313725490196" stroke="none" d="
M 174.45 322.85
Q 174.45 323.2 174.45 323.55 174.8 323.55 175 323.4 175.15 323.2 175.15 322.85 174.8 322.85 174.45 322.85 Z"/>

<path fill="#000000" fill-opacity="0.5254901960784314" stroke="none" d="
M 177.95 319.4
Q 177.95 319.75 177.95 320.1 178.3 320.1 178.45 319.9 178.6 319.75 178.6 319.4 178.3 319.4 177.95 319.4
M 148.1 350.6
Q 147.75 350.6 147.4 350.6 147.4 350.95 147.4 351.3 147.75 351.3 147.95 351.15 148.1 350.95 148.1 350.6 Z"/>

<path fill="#000000" fill-opacity="0.4392156862745098" stroke="none" d="
M 180.55 318.55
Q 180.7 318.35 180.7 318 180.35 318 180 318 180 318.35 180 318.7 180.35 318.7 180.55 318.55
M 154.85 336.55
Q 155.05 336.4 155.05 336.05 154.7 336.05 154.35 336.05 154.35 336.4 154.35 336.75 154.7 336.75 154.85 336.55 Z"/>

<path fill="#000000" fill-opacity="0.396078431372549" stroke="none" d="
M 173.45 317.9
Q 173.828125 316.9548828125 172.55 317.25 172.4794921875 317.278125 172.4 317.3 172.4 317.339453125 172.4 317.35 172.4 317.689453125 172.4 318 172.75 318 173.05 318 173.4 318 173.45 317.9 Z"/>

<path fill="#000000" fill-opacity="0.9647058823529412" stroke="none" d="
M 170.55 318.95
Q 171.2046875 318.6134765625 171.8 318.2 172.05 318 172.4 318 172.4 317.689453125 172.4 317.35 171.4806640625 318.1712890625 170.55 318.95
M 151.55 342.3
Q 151.55 342.65 151.55 343 151.55 343.35 151.45 343.6 151.2 344 150.9 344.35 150.9 344.7 150.7 344.9 150.55 345.05 150.2 345.05 150.2 345.4 150.05 345.7 149.85 346.1 149.65 346.5 148.95 348.35 148.1 349.9 148.1 350.25 148.1 350.6 148.1 350.95 147.95 351.15 147.75 351.3 147.4 351.3 147.4 351.65 147.25 351.95 147.05 352.35 146.7 352.7 146.7 354.1 146.7 355.45 146.7 355.8 146.7 356.15 146.7 356.5 146.55 356.7 146.35 356.85 146 356.85 146 358.95 146 361 146 361.1828125 146 361.35 147.6392578125 359.8802734375 149.15 358.2 149.3765625 357.9490234375 149.6 357.7 149.5 356.58984375 149.5 355.45 149.85 355.45 150.2 355.45 150.2 355.1 150.2 354.75 150.2 354.45 150.2 354.1 150.2 353.75 150.2 353.4 150.2 353.05 150.2 352.7 150.55 352.7 150.9 352.7 150.9 352.35 150.9 352 150.9 351.65 150.9 351.3 151.9 350.6 152.2 349.2 152.25 348.9 152.25 348.55 152.25 348.2 152.25 347.85 152.6 347.85 152.95 347.85 152.95 347.5 152.95 347.15 153.3 347.15 153.5 346.95 153.65 346.8 153.65 346.45 153.65 346.1 153.65 345.75 154 345.75 154.35 345.75 154.35 345.4 154.35 345.05 154.35 344.7 154.35 344.35 154.7 344.35 155.05 344.35 155.05 344 155.05 343.65 155.05 343.35 155.05 343 155.4 343 155.75 343 155.75 342.65 155.75 342.3 156.1 342.3 156.25 342.1 156.45 341.95 156.45 341.6 156.45 341.25 156.45 340.9 156.75 340.9 157.1 340.9 157.1 340.55 157.1 340.2 157.1 339.85 157.1 339.5 159.2 337.8 161.1 335.85 161.3 335.7 161.3 335.35 161.3 335 161.3 334.65 161.65 334.65 162 334.65 162 334.3 162 333.95 162.3 333.95 162.65 333.95 162.65 333.6 162.65 333.25 163.35 332.9 163.9 332.4 164.05 332.25 164.05 331.9 164.05 331.55 164.05 331.2 164.4 331.2 164.75 331.2 166.6 329.95 168.35 328.6 168.55 328.4 168.9 328.4 168.9 328.05 168.9 327.7 169.25 327.7 169.6 327.7 169.6 327.35 169.6 327.05 169.95 327.05 170.3 327.05 172.5 325.75 174 323.75 174.1 323.55 174.45 323.55 174.45 323.2 174.45 322.85 174.8 322.85 175.15 322.85 175.15 322.5 175.15 322.15 177.05 321.95 177.55 320.2 177.6 320.1 177.95 320.1 177.95 319.75 177.95 319.4 178.3 319.4 178.6 319.4 178.95 319.05 179.4 318.85 179.65 318.7 180 318.7 180 318.35 180 318 180.35 318 180.7 318 184.3 315.35 187.15 311.95 187.3 311.75 187.65 311.75 187.65 311.4 187.65 311.05 188 311.05 188.35 311.05 188.35 310.7 188.35 310.4 188.7 310.4 189.05 310.4 189.05 310.05 189.1 309.7 189.3359375 308.579296875 189 308.05
L 186 308.05
Q 179.25 311.4 174.55 315.55 173.5564453125 316.4078125 172.55 317.25 173.828125 316.9548828125 173.45 317.9 173.4 318 173.05 318 173.05 318.35 172.9 318.55 170 321.5 166.85 324.25 166.85 324.6 166.65 324.75 166.5 324.95 166.15 324.95 165.8 324.95 165.6 325.1 160.45 330.7 155.05 336.05 155.05 336.4 154.85 336.55 154.7 336.75 154.35 336.75 154.35 337.1 154.2 337.35 154 337.8 153.65 338.1 153.65 338.45 153.65 338.8 153.65 339.15 153.5 339.35 153.3 339.5 152.95 339.5 152.95 339.85 152.8 340.05 152.6 340.2 152.25 340.2 152.25 340.55 152.25 340.9 152.25 341.25 152.25 341.6 152.25 341.95 152.1 342.1 151.9 342.3 151.55 342.3 Z"/>

<path fill="#000000" fill-opacity="0.592156862745098" stroke="none" d="
M 188.35 311.05
Q 188 311.05 187.65 311.05 187.65 311.4 187.65 311.75 188 311.75 188.15 311.6 188.35 311.4 188.35 311.05 Z"/>

<path fill="#000000" fill-opacity="0.4588235294117647" stroke="none" d="
M 150.2 355.45
Q 149.85 355.45 149.5 355.45 149.5 356.58984375 149.6 357.7 149.9013671875 357.3734375 150.2 357.05 150.2 356.244140625 150.2 355.45 Z"/>

<path fill="#000000" fill-opacity="0.5411764705882353" stroke="none" d="
M 150.2 354.1
Q 150.55 353.75 150.75 353.3 150.9 353.05 150.9 352.7 150.55 352.7 150.2 352.7 150.2 353.05 150.2 353.4 150.2 353.75 150.2 354.1 Z"/>

<path fill="#000000" fill-opacity="0.5725490196078431" stroke="none" d="
M 146.55 356.7
Q 146.7 356.5 146.7 356.15 146.35 356.15 146 356.15 146 356.5 146 356.85 146.35 356.85 146.55 356.7
M 154.15 346.3
Q 154.35 346.1 154.35 345.75 154 345.75 153.65 345.75 153.65 346.1 153.65 346.45 154 346.45 154.15 346.3
M 151.55 341.6
Q 151.55 341.95 151.55 342.3 151.9 342.3 152.1 342.1 152.25 341.95 152.25 341.6 151.9 341.6 151.55 341.6 Z"/>

<path fill="#000000" fill-opacity="0.5686274509803921" stroke="none" d="
M 152.95 347.85
Q 152.6 347.85 152.25 347.85 152.25 348.2 152.25 348.55 152.6 348.55 152.8 348.35 152.95 348.2 152.95 347.85 Z"/>

<path fill="#000000" fill-opacity="0.4549019607843137" stroke="none" d="
M 154.35 344.35
Q 154.35 344.7 154.35 345.05 154.7 345.05 154.85 344.9 155.05 344.7 155.05 344.35 154.7 344.35 154.35 344.35 Z"/>

<path fill="#000000" fill-opacity="0.403921568627451" stroke="none" d="
M 155.75 343
Q 155.4 343 155.05 343 155.05 343.35 155.05 343.65 155.4 343.65 155.55 343.5 155.75 343.35 155.75 343 Z"/>

<path fill="#000000" fill-opacity="0.43529411764705883" stroke="none" d="
M 156.45 340.9
Q 156.45 341.25 156.45 341.6 156.75 341.6 156.95 341.4 157.1 341.25 157.1 340.9 156.75 340.9 156.45 340.9 Z"/>

<path fill="#000000" fill-opacity="0.5647058823529412" stroke="none" d="
M 153.5 339.35
Q 153.65 339.15 153.65 338.8 153.3 338.8 152.95 338.8 152.95 339.15 152.95 339.5 153.3 339.5 153.5 339.35 Z"/>

<path fill="#000000" fill-opacity="0.4235294117647059" stroke="none" d="
M 161.3 335.35
Q 161.65 335.35 161.8 335.2 162 335 162 334.65 161.65 334.65 161.3 334.65 161.3 335 161.3 335.35 Z"/>

<path fill="#000000" fill-opacity="0.5176470588235295" stroke="none" d="
M 150.7 344.9
Q 150.9 344.7 150.9 344.35 150.55 344.35 150.2 344.35 150.2 344.7 150.2 345.05 150.55 345.05 150.7 344.9 Z"/>

<path fill="#000000" fill-opacity="0.5568627450980392" stroke="none" d="
M 151.55 343
Q 151.55 342.65 151.55 342.3 151.2 342.3 150.9 342.3 150.9 342.65 151.05 342.8 151.2 343 151.55 343 Z"/>
</g>

<g id="Mask_1_MASK_0_FILL">
<path fill="#FFFFFF" stroke="none" d="
M 439.65 378.4
L 439.65 272.8 125.2 272.8 125.2 378.4 439.65 378.4 Z"/>
</g>

<g id="Layer1_0_FILL">
<path fill="#000000" fill-opacity="0.5411764705882353" stroke="none" d="
M 35.05 176.5
Q 35.05 176.85 35.2 177 36.4 178.2 35.05 176.5
M 179.3 354.1
Q 178.95 354.1 178.6 354.1 178.6 354.45 178.6 354.75 178.95 354.75 179.15 354.6 179.3 354.45 179.3 354.1
M 209.15 331.9
Q 209.15 331.55 208.95 331.35 208.8 331.2 208.45 331.2 208.45 331.55 208.45 331.9 208.8 331.9 209.15 331.9
M 383.15 299
Q 383.25 298.95 383.25 298.6 382.9 298.6 382.6 298.6 382.25 298.6 381.9 298.6 381.9 298.95 381.9 299.3 382.6 299.3 383.15 299
M 446.4 287.5
Q 446.05 287.5 445.7 287.5 445.7 287.85 445.7 288.2 446.05 288.2 446.2 288 446.4 287.85 446.4 287.5
M 452.65 286.8
Q 453.7 286.8 454.6 286.5 454.7 286.45 454.7 286.1 454.35 286.1 454.05 286.1 453.35 286.1 452.65 286.1 452.65 286.45 452.65 286.8
M 433.2 286.1
Q 433.2 286.45 433.2 286.8 433.55 286.8 433.75 286.6 433.9 286.45 433.9 286.1 433.55 286.1 433.2 286.1 Z"/>

<path fill="#000000" fill-opacity="0.5803921568627451" stroke="none" d="
M 265.5 337.95
Q 265.7 338.1 266.05 338.1 266.05 337.8 265.85 337.6 265.7 337.45 265.35 337.45 265.35 337.8 265.5 337.95
M 150.9 361
Q 150.9 361.35 151.05 361.55 151.2 361.7 151.55 361.7 151.55 361.35 151.4 361.2 151.2 361 150.9 361
M 349.8 302.55
Q 349.95 302.4 349.95 302.05 349.6 302.05 349.3 302.05 349.3 302.4 349.3 302.75 349.6 302.75 349.8 302.55
M 354.65 301.2
Q 354.85 301 354.85 300.65 354.5 300.65 354.15 300.65 354.15 301 354.15 301.35 354.5 301.35 354.65 301.2
M 382.4 294.95
Q 382.6 294.75 382.6 294.4 382.25 294.4 381.9 294.4 381.9 294.75 381.9 295.1 382.25 295.1 382.4 294.95 Z"/>

<path fill="#000000" fill-opacity="0.6039215686274509" stroke="none" d="
M 269.5 337.45
Q 269.15 337.45 268.8 337.45 268.8 337.8 268.8 338.1 269.15 338.1 269.35 337.95 269.5 337.8 269.5 337.45
M 220.6 330.5
Q 220.6 330.15 220.25 329.8 220.25 330.15 220.25 330.5
L 220.6 330.5
M 393 296.5
Q 392.65 296.5 392.3 296.5 392.3 296.85 392.3 297.2 392.65 297.2 392.8 297 393 296.85 393 296.5
M 408.75 290.1
Q 408.95 289.9 408.95 289.55 408.6 289.55 408.25 289.55 408.25 289.9 408.25 290.25 408.6 290.25 408.75 290.1 Z"/>

<path fill="#000000" fill-opacity="0.4117647058823529" stroke="none" d="
M 272.95 335.35
Q 272.95 335.7 272.95 336.05 273.3 336.05 273.5 335.85 273.65 335.7 273.65 335.35 273.3 335.35 272.95 335.35
M 282.7 316.6
Q 282.35 316.6 282 316.6 282 316.95 282 317.3 282.35 317.3 282.5 317.15 282.7 316.95 282.7 316.6
M 189.7 345.75
Q 189.7 346.1 189.7 346.45 190.05 346.45 190.25 346.3 190.4 346.1 190.4 345.75 190.05 345.75 189.7 345.75
M 189.05 340.9
Q 189.05 341.25 189.05 341.6 189.4 341.6 189.55 341.4 189.7 341.25 189.7 340.9 189.4 340.9 189.05 340.9
M 218.85 343
Q 218.85 342.65 218.85 342.3 218.5 342.3 218.15 342.3 218.15 343 218.45 343.55 218.5 343.65 218.85 343.65 218.85 343.35 218.85 343
M 216.1 327.05
Q 215.75 327.05 215.4 327.05 215.4 327.35 215.4 327.7 215.75 327.7 215.9 327.55 216.1 327.35 216.1 327.05 Z"/>

<path fill="#000000" fill-opacity="0.5254901960784314" stroke="none" d="
M 271.6 336.05
Q 271.25 336.05 270.9 336.05 270.9 336.4 270.9 336.75 271.25 336.75 271.4 336.55 271.6 336.4 271.6 336.05
M 274.35 318.7
Q 274.7 318.7 274.9 318.55 275.05 318.35 275.05 318 274.7 318 274.35 318 274.35 318.35 274.35 318.7
M 291 320.1
Q 291 320.45 291 320.8 291.35 320.8 291.55 320.6 291.7 320.45 291.7 320.1 291.35 320.1 291 320.1
M 202.75 336.55
Q 202.9 336.4 202.9 336.05 202.55 336.05 202.2 336.05 202.2 336.4 202.2 336.75 202.55 336.75 202.75 336.55
M 358.3 303.45
Q 358.3 303.8 358.3 304.15 359.35 304.15 360.25 303.8 360.4 303.8 360.4 303.45 360.05 303.45 359.7 303.45 359 303.45 358.3 303.45
M 450.55 281.95
Q 450.55 282.3 450.55 282.65 450.9 282.65 451.1 282.45 451.25 282.3 451.25 281.95 450.9 281.95 450.55 281.95
M 406 290.8
Q 406.15 290.6 406.15 290.25 405.8 290.25 405.45 290.25 405.45 290.6 405.45 290.95 405.8 290.95 406 290.8 Z"/>

<path fill="#000000" fill-opacity="0.4588235294117647" stroke="none" d="
M 271.05 323.4
Q 271.25 323.55 271.6 323.55 271.6 323.2 271.4 323.05 271.25 322.85 270.9 322.85 270.9 323.2 271.05 323.4
M 276.45 324.95
Q 276.45 325.3 276.6 325.45 276.8 325.65 277.15 325.65 277.15 325.3 276.95 325.1 276.8 324.95 276.45 324.95
M 222.35 339.5
Q 222.35 339.85 222.35 340.2 222.7 340.2 222.85 340.05 223 339.85 223 339.5 222.7 339.5 222.35 339.5
M 150.2 357.05
Q 149.9013671875 357.3734375 149.6 357.7 149.6900390625 358.635546875 149.85 359.55 149.85 359.65 150.2 359.65 150.2 359.3 150.2 358.95 150.2 357.994140625 150.2 357.05 Z"/>

<path fill="#000000" fill-opacity="0.4980392156862745" stroke="none" d="
M 277.15 329.8
Q 277.15 330.15 277.15 330.5
L 277.5 330.5
Q 277.5 330.15 277.15 329.8 Z"/>

<path fill="#000000" fill-opacity="0.4666666666666667" stroke="none" d="
M 277.15 326.35
Q 277.15 326.7 277.15 327.05
L 277.5 327.05
Q 277.5 326.7 277.15 326.35
M 296.55 319.4
Q 296.2 319.4 295.85 319.4 295.85 319.75 295.85 320.1 296.2 320.1 296.4 319.9 296.55 319.75 296.55 319.4
M 196.65 336.05
Q 197 336.05 197.2 335.85 197.35 335.7 197.35 335.35 197 335.35 196.65 335.35 196.65 335.7 196.65 336.05
M 221.65 321.5
Q 221.65 321.15 221.5 321.05 220.95 320.8 220.25 320.8 220.6 321.15 221 321.35 221.3 321.5 221.65 321.5
M 344.4 307.6
Q 344.4 307.95 344.4 308.3 344.75 308.3 344.95 308.1 345.1 307.95 345.1 307.6 344.75 307.6 344.4 307.6
M 418.65 293.05
Q 418.3 293.05 417.95 293.05 417.6 293.05 417.25 293.05 417.25 293.4 417.25 293.75 417.95 293.75 418.5 293.45 418.65 293.4 418.65 293.05 Z"/>

<path fill="#000000" fill-opacity="0.48627450980392156" stroke="none" d="
M 283.35 322.15
Q 283.05 322.15 282.7 322.15 282.7 322.5 282.7 322.85 283.05 322.85 283.2 322.7 283.35 322.5 283.35 322.15
M 263.15 337.05
Q 262.2 336.75 261.2 336.75 261.1 337.9 262.6 337.5 262.9 337.45 263.25 337.45 263.25 337.1 263.15 337.05
M 320.7 314.25
Q 320.85 314.2 320.85 313.85 320.5 313.85 320.15 313.85 319.8 313.85 319.45 313.85 319.45 314.2 319.45 314.55 320.15 314.55 320.7 314.25
M 162 363.8
Q 162 364.15 162 364.5 162.65 364.5 163.2 364.2 163.35 364.15 163.35 363.8 163 363.8 162.65 363.8 162.3 363.8 162 363.8
M 171.7 354.1
Q 171.35 354.1 171 354.1 171 354.45 171 354.75 171.35 354.75 171.5 354.6 171.7 354.45 171.7 354.1
M 219.55 331.9
Q 219.55 332.55 219.85 333.15 219.9 333.25 220.25 333.25 220.25 332.9 220.25 332.55 220.25 332.25 220.25 331.9 219.9 331.9 219.55 331.9
M 161.1 365
Q 161.3 364.85 161.3 364.5 160.95 364.5 160.6 364.5 160.6 364.85 160.6 365.2 160.95 365.2 161.1 365
M 327.6 313
Q 327.75 312.8 327.75 312.45 327.45 312.45 327.1 312.45 327.1 312.8 327.1 313.15 327.45 313.15 327.6 313
M 336.1 306.2
Q 335.75 306.2 335.4 306.2 335.05 306.2 334.7 306.2 334.7 306.55 334.7 306.9 335.4 306.9 335.95 306.65 336.1 306.55 336.1 306.2
M 363.85 302.05
Q 363.85 302.4 363.85 302.75 364.2 302.75 364.35 302.55 364.55 302.4 364.55 302.05 364.2 302.05 363.85 302.05
M 369.95 297.6
Q 370.1 297.55 370.1 297.2 369.75 297.2 369.4 297.2 369.05 297.2 368.7 297.2 368.7 297.55 368.7 297.9 369.4 297.9 369.95 297.6
M 442.05 284.55
Q 442.25 284.35 442.25 284 441.9 284 441.55 284 441.55 284.35 441.55 284.7 441.9 284.7 442.05 284.55 Z"/>

<path fill="#000000" fill-opacity="0.44313725490196076" stroke="none" d="
M 245.9 342.3
Q 246.25 342.3 246.45 342.1 246.6 341.95 246.6 341.6 246.25 341.6 245.9 341.6 245.9 341.95 245.9 342.3
M 200.65 338.65
Q 200.8 338.45 200.8 338.1 200.5 338.1 200.15 338.1 200.15 338.45 200.15 338.8 200.5 338.8 200.65 338.65 Z"/>

<path fill="#000000" fill-opacity="0.596078431372549" stroke="none" d="
M 248 340.2
Q 247.65 340.2 247.3 340.2 247.3 340.55 247.3 340.9 247.65 340.9 247.8 340.75 248 340.55 248 340.2
M 249.2 331
Q 249.4 330.85 249.4 330.5 249.05 330.5 248.7 330.5 248.7 330.85 248.7 331.2 249.05 331.2 249.2 331
M 233.25 354.6
Q 233.45 354.45 233.45 354.1 233.1 354.1 232.75 354.1 232.75 354.45 232.75 354.75 233.1 354.75 233.25 354.6
M 177.25 355.45
Q 177.6 355.45 177.75 355.3 177.95 355.1 177.95 354.75 177.6 354.75 177.25 354.75 177.25 355.1 177.25 355.45
M 377.05 295.8
Q 376.7 295.8 376.35 295.8 376.35 296.15 376.35 296.5 376.7 296.5 376.85 296.35 377.05 296.15 377.05 295.8 Z"/>

<path fill="#000000" fill-opacity="0.5568627450980392" stroke="none" d="
M 249.4 337.45
Q 249.4 337.8 249.4 338.1 249.75 338.1 249.9 337.95 250.1 337.8 250.1 337.45 249.75 337.45 249.4 337.45
M 256.15 327.9
Q 255.95 327.7 255.65 327.7 255.65 328.05 255.8 328.25 255.95 328.4 256.3 328.4 256.3 328.05 256.15 327.9
M 163.9 358.75
Q 164.05 358.6 164.05 358.25 163.7 358.25 163.35 358.25 163.35 358.6 163.35 358.95 163.7 358.95 163.9 358.75
M 173.05 353.4
Q 173.4 353.4 173.6 353.2 173.75 353.05 173.75 352.7 173.4 352.7 173.05 352.7 173.05 353.05 173.05 353.4
M 239 343
Q 238.65 343 238.3 343 238.3 343.35 238.3 343.65 238.65 343.65 238.8 343.5 239 343.35 239 343
M 214.7 327.7
Q 214.35 327.7 214 327.7 214 328.05 214 328.4 214.35 328.4 214.5 328.25 214.7 328.05 214.7 327.7 Z"/>

<path fill="#000000" fill-opacity="0.6" stroke="none" d="
M 247.3 333.95
Q 246.95 333.95 246.6 333.95 246.6 334.3 246.6 334.65 246.95 334.65 247.15 334.5 247.3 334.3 247.3 333.95
M 191.1 340.2
Q 190.75 340.2 190.4 340.2 190.4 340.55 190.4 340.9 190.75 340.9 190.95 340.75 191.1 340.55 191.1 340.2
M 215.4 322.15
Q 215.4 322.5 215.4 322.85 215.75 322.85 215.9 322.7 216.1 322.5 216.1 322.15 215.75 322.15 215.4 322.15
M 458.9 280.55
Q 459.25 280.55 459.4 280.35 459.6 280.2 459.6 279.85 459.25 279.85 458.9 279.85 458.9 280.2 458.9 280.55 Z"/>

<path fill="#000000" fill-opacity="0.396078431372549" stroke="none" d="
M 262.05 331.7
Q 262.2 331.9 262.55 331.9 262.55 331.55 262.4 331.35 262.2 331.2 261.85 331.2 261.85 331.55 262.05 331.7
M 165.45 357.55
Q 165.8 357.55 165.95 357.4 166.15 357.2 166.15 356.85 165.8 356.85 165.45 356.85 165.45 357.2 165.45 357.55
M 180.7 353.4
Q 181.05 353.4 181.25 353.2 181.4 353.05 181.4 352.7 181.05 352.7 180.7 352.7 180.7 353.05 180.7 353.4
M 201.5 337.45
Q 201.15 337.45 200.8 337.45 200.8 337.8 200.8 338.1 201.15 338.1 201.35 337.95 201.5 337.8 201.5 337.45
M 462.35 284.7
Q 462 284.7 461.65 284.7 461.65 285.05 461.65 285.4 462 285.4 462.2 285.25 462.35 285.05 462.35 284.7
M 456.65 281.05
Q 456.8 280.9 456.8 280.55 456.45 280.55 456.1 280.55 456.1 280.9 456.1 281.25 456.45 281.25 456.65 281.05 Z"/>

<path fill="#000000" fill-opacity="0.5450980392156862" stroke="none" d="
M 255.8 333.1
Q 255.95 333.25 256.3 333.25 256.3 332.9 256.15 332.75 255.95 332.55 255.65 332.55 255.65 332.9 255.8 333.1
M 290.3 320.8
Q 290.3 321.15 290.3 321.5 290.65 321.5 290.85 321.3 291 321.15 291 320.8 290.65 320.8 290.3 320.8
M 220.25 327.05
Q 220.25 327.35 220.25 327.7 220.6 327.7 220.65 327.6 221.4 326.25 220.25 326.35 220.25 326.7 220.25 327.05
M 218.85 326.35
Q 219.2 326.35 219.55 326.35 219.9 326.35 220.25 326.35 220.25 326 220.1 325.9 219.55 325.65 218.85 325.65 218.85 326 218.85 326.35
M 336.1 310.4
Q 335.75 310.4 335.4 310.4 335.4 310.7 335.4 311.05 335.75 311.05 335.9 310.9 336.1 310.7 336.1 310.4
M 333.3 306.9
Q 332.95 306.9 332.65 306.9 332.65 307.25 332.65 307.6 332.95 307.6 333.15 307.45 333.3 307.25 333.3 306.9
M 358.3 299.95
Q 357.95 299.95 357.6 299.95 357.6 300.3 357.6 300.65 357.95 300.65 358.1 300.5 358.3 300.3 358.3 299.95
M 361.75 302.75
Q 361.4 302.75 361.05 302.75 361.05 303.1 361.05 303.45 361.75 303.45 362.3 303.15 362.45 303.1 362.45 302.75 362.1 302.75 361.75 302.75
M 444.3 288.2
Q 443.95 288.2 443.6 288.2 443.6 288.5 443.6 288.85 443.95 288.85 444.15 288.7 444.3 288.5 444.3 288.2 Z"/>

<path fill="#000000" fill-opacity="0.5529411764705883" stroke="none" d="
M 256.5 333.8
Q 256.65 333.95 257 333.95 257 333.6 256.85 333.45 256.65 333.25 256.3 333.25 256.3 333.6 256.5 333.8
M 389.5 297.2
Q 389.15 297.2 388.8 297.2 388.8 297.55 388.8 297.9 389.15 297.9 389.35 297.7 389.5 297.55 389.5 297.2 Z"/>

<path fill="#000000" fill-opacity="0.5294117647058824" stroke="none" d="
M 254.75 333.1
Q 254.95 332.9 254.95 332.55 254.6 332.55 254.25 332.55 254.25 332.9 254.25 333.25 254.6 333.25 254.75 333.1
M 447.8 283.3
Q 448.15 283.3 448.3 283.15 448.5 282.95 448.5 282.65 448.15 282.65 447.8 282.65 447.8 282.95 447.8 283.3
M 433.05 291.45
Q 433.2 291.3 433.2 290.95 432.85 290.95 432.5 290.95 432.5 291.3 432.5 291.65 432.85 291.65 433.05 291.45 Z"/>

<path fill="#000000" fill-opacity="0.47058823529411764" stroke="none" d="
M 253.55 327.7
Q 253.55 327.35 253.35 327.2 253.2 327.05 252.85 327.05 252.85 327.35 252.85 327.7 253.2 327.7 253.55 327.7
M 324.85 308.7
Q 325 308.65 325 308.3 324.65 308.3 324.3 308.3 323.95 308.3 323.6 308.3 323.6 308.65 323.6 309 324.3 309 324.85 308.7
M 405.35 295.55
Q 405.45 295.45 405.45 295.1 405.1 295.1 404.75 295.1 404.45 295.1 404.1 295.1 404 296.25 405.35 295.55 Z"/>

<path fill="#000000" fill-opacity="0.4823529411764706" stroke="none" d="
M 297.1 314.35
Q 297.25 314.2 297.25 313.85 296.9 313.85 296.55 313.85 296.55 314.2 296.55 314.55 296.9 314.55 297.1 314.35
M 311.8 311.05
Q 312.15 311.05 312.35 310.9 312.5 310.7 312.5 310.4 312.15 310.4 311.8 310.4 311.8 310.7 311.8 311.05
M 232.05 349.2
Q 231.7 349.2 231.35 349.2 231.35 349.55 231.35 349.9 231.7 349.9 231.85 349.75 232.05 349.55 232.05 349.2
M 218.7 345
Q 218.85 344.7 218.85 344.35 218.5 344.35 218.15 344.35 218.15 344.7 218.15 345.05 218.15 345.4 218.15 345.75 218.5 345.4 218.7 345 Z"/>

<path fill="#000000" fill-opacity="0.4196078431372549" stroke="none" d="
M 300 313.15
Q 300 313.5 300 313.85 300.35 313.85 300.55 313.65 300.7 313.5 300.7 313.15 300.35 313.15 300 313.15
M 411 294.4
Q 410.65 294.4 410.3 294.4 410.3 294.75 410.3 295.1 410.65 295.1 410.85 294.95 411 294.75 411 294.4
M 406.85 295.1
Q 406.5 295.1 406.15 295.1 406.5 295.45 406.85 295.45
L 406.85 295.1 Z"/>

<path fill="#000000" fill-opacity="0.5058823529411764" stroke="none" d="
M 293.1 320.1
Q 292.75 320.1 292.4 320.1 292.75 320.45 293.1 320.45
L 293.1 320.1
M 168.2 361
Q 167.85 361 167.55 361 167.55 361.35 167.55 361.7 167.85 361.7 168.05 361.55 168.2 361.35 168.2 361
M 236.2 346.45
Q 235.85 346.45 235.5 346.45 235.5 346.8 235.5 347.15 235.85 347.15 236.05 346.95 236.2 346.8 236.2 346.45
M 241.75 340.2
Q 241.4 340.2 241.05 340.2 241.05 340.55 241.05 340.9 241.4 340.9 241.6 340.75 241.75 340.55 241.75 340.2
M 216.8 321.5
Q 216.45 321.5 216.1 321.5 216.1 321.8 216.1 322.15 216.8 322.15 217.35 321.9 217.45 321.8 217.45 321.5 217.15 321.5 216.8 321.5
M 337.5 305.5
Q 337.5 305.85 337.5 306.2 338.2 306.2 338.75 305.95 338.85 305.85 338.85 305.5 338.5 305.5 338.2 305.5 337.85 305.5 337.5 305.5 Z"/>

<path fill="#000000" fill-opacity="0.5137254901960784" stroke="none" d="
M 291.7 315.25
Q 291.35 315.25 291 315.25 290.65 315.25 290.3 315.25 290.3 315.6 290.3 315.95 291 315.95 291.55 315.65 291.7 315.6 291.7 315.25
M 319.3 310.1
Q 319.45 310.05 319.45 309.7 319.1 309.7 318.75 309.7 318.4 309.7 318.05 309.7 318.05 310.05 318.05 310.4 318.75 310.4 319.3 310.1
M 218.85 348.55
Q 218.85 348.2 218.95 347.85 219.3 346.4 218.15 346.45 218.15 347.5 218.5 348.45 218.5 348.55 218.85 348.55
M 184.85 344.35
Q 184.85 344.7 184.85 345.05 185.2 345.05 185.4 344.9 185.55 344.7 185.55 344.35 185.2 344.35 184.85 344.35 Z"/>

<path fill="#000000" fill-opacity="0.5372549019607843" stroke="none" d="
M 293.1 315.25
Q 293.45 315.25 293.6 315.05 293.8 314.9 293.8 314.55 293.45 314.55 293.1 314.55 293.1 314.9 293.1 315.25 Z"/>

<path fill="#000000" fill-opacity="0.5607843137254902" stroke="none" d="
M 315.3 310.4
Q 314.95 310.4 314.6 310.4 314.25 310.4 313.9 310.4 313.85 311.5 315.15 310.8 315.3 310.7 315.3 310.4
M 234.65 353.9
Q 234.8 353.75 234.8 353.4 234.45 353.4 234.1 353.4 234.1 353.75 234.1 354.1 234.45 354.1 234.65 353.9
M 174.3 352.5
Q 174.45 352.35 174.45 352 174.1 352 173.75 352 173.75 352.35 173.75 352.7 174.1 352.7 174.3 352.5
M 331.95 311.75
Q 331.95 312.1 331.95 312.45 332.3 312.45 332.45 312.3 332.65 312.1 332.65 311.75 332.3 311.75 331.95 311.75
M 343.05 308.3
Q 342.7 308.3 342.35 308.3 342.35 308.65 342.35 309 342.7 309 342.85 308.8 343.05 308.65 343.05 308.3
M 367.3 298.25
L 367.3 297.9
Q 366.95 297.9 366.6 297.9 366.95 298.25 367.3 298.25 Z"/>

<path fill="#000000" fill-opacity="0.4549019607843137" stroke="none" d="
M 323.45 313.65
Q 323.6 313.5 323.6 313.15 323.25 313.15 322.9 313.15 322.9 313.5 322.9 313.85 323.25 313.85 323.45 313.65
M 193 339.35
Q 193.2 339.15 193.2 338.8 192.85 338.8 192.5 338.8 192.5 339.15 192.5 339.5 192.85 339.5 193 339.35
M 224.25 333.2
Q 224.4 332.9 224.4 332.55 224.05 332.55 223.7 332.55 223.7 332.9 223.7 333.25 223.7 333.6 223.7 333.95 224.05 333.6 224.25 333.2
M 340.95 304.85
Q 340.6 304.85 340.25 304.85 340.25 305.15 340.25 305.5 340.6 305.5 340.8 305.35 340.95 305.15 340.95 304.85
M 369.4 301.35
Q 369.05 301.35 368.7 301.35 368.35 301.35 368 301.35 368 301.7 368 302.05 368.7 302.05 369.25 301.75 369.4 301.7 369.4 301.35 Z"/>

<path fill="#000000" fill-opacity="0.4235294117647059" stroke="none" d="
M 313.05 316.35
Q 313.2 316.25 313.2 315.95 312.85 315.95 312.5 315.95 312.15 315.95 311.8 315.95 311.8 316.25 311.8 316.6 312.5 316.6 313.05 316.35
M 176.55 350.6
Q 176.2 350.6 175.85 350.6 175.85 350.95 175.85 351.3 176.2 351.3 176.35 351.15 176.55 350.95 176.55 350.6
M 344.4 303.45
Q 344.4 303.8 344.4 304.15 344.75 304.15 344.95 303.95 345.1 303.8 345.1 303.45 344.75 303.45 344.4 303.45
M 360.2 299.8
Q 360.4 299.6 360.4 299.3 360.05 299.3 359.7 299.3 359.7 299.6 359.7 299.95 360.05 299.95 360.2 299.8
M 428.9 287.3
Q 429.05 287.15 429.05 286.8 428.7 286.8 428.35 286.8 428.35 287.15 428.35 287.5 428.7 287.5 428.9 287.3 Z"/>

<path fill="#000000" fill-opacity="0.5882352941176471" stroke="none" d="
M 308.35 316.6
Q 308.35 316.95 308.35 317.3 308.7 317.3 308.85 317.15 309.05 316.95 309.05 316.6 308.7 316.6 308.35 316.6
M 171.5 359.45
Q 171.7 359.3 171.7 358.95 171.35 358.95 171 358.95 171 359.3 171 359.65 171.35 359.65 171.5 359.45 Z"/>

<path fill="#000000" fill-opacity="0.4627450980392157" stroke="none" d="
M 304 313
Q 304.2 312.8 304.2 312.45 303.85 312.45 303.5 312.45 303.5 312.8 303.5 313.15 303.85 313.15 304 313
M 166.15 362.4
Q 165.8 362.4 165.45 362.4 165.45 362.75 165.45 363.1 165.8 363.1 165.95 362.9 166.15 362.75 166.15 362.4
M 380.4 299.65
Q 380.5 299.6 380.5 299.3 380.15 299.3 379.8 299.3 378.75 299.3 377.7 299.3 377.7 299.6 377.7 299.95 379.1 299.95 380.4 299.65
M 386.75 293.75
Q 386.4 293.75 386.05 293.75 386.05 294.05 386.05 294.4 386.4 294.4 386.55 294.25 386.75 294.05 386.75 293.75 Z"/>

<path fill="#000000" fill-opacity="0.43529411764705883" stroke="none" d="
M 221.45 354.95
Q 221.3 354.75 220.95 354.75 220.95 355.1 221.1 355.3 221.3 355.45 221.65 355.45 221.65 355.1 221.45 354.95
M 150.9 361
Q 150.9 360.65 150.7 360.5 150.55 360.3 150.2 360.3 150.2 360.65 150.35 360.85 150.55 361 150.9 361
M 372.15 296.5
Q 371.8 296.5 371.5 296.5 371.5 296.85 371.5 297.2 371.8 297.2 372 297 372.15 296.85 372.15 296.5 Z"/>

<path fill="#000000" fill-opacity="0.5647058823529412" stroke="none" d="
M 220.4 353.9
Q 220.6 354.1 220.95 354.1 220.95 353.75 220.75 353.55 220.6 353.4 220.25 353.4 220.25 353.75 220.4 353.9
M 219.55 334.65
Q 219.55 335 219.55 335.35 219.9 335.35 220.05 335.2 220.25 335 220.25 334.65 219.9 334.65 219.55 334.65
M 207.05 332.55
Q 207.05 332.9 207.05 333.25 207.4 333.25 207.6 333.1 207.75 332.9 207.75 332.55 207.4 332.55 207.05 332.55
M 207.75 327.7
Q 208.1 327.7 208.3 327.55 208.45 327.35 208.45 327.05 208.1 327.05 207.75 327.05 207.75 327.35 207.75 327.7
M 214.5 323.4
Q 214.7 323.2 214.7 322.85 214.35 322.85 214 322.85 214 323.2 214 323.55 214.35 323.55 214.5 323.4 Z"/>

<path fill="#000000" fill-opacity="0.45098039215686275" stroke="none" d="
M 222.35 347.15
Q 222.35 346.8 222.4 346.5 222.8 345 221.65 345.05 221.65 346.1 221.95 347.05 222 347.15 222.35 347.15
M 146.3 362.95
Q 146.35 363.1 146.7 363.1 146.7 362.75 146.55 362.45 146.35 362.05 146 361.7 146 362.4 146.3 362.95
M 424.9 287.5
Q 424.9 287.85 424.9 288.2 425.95 288.2 426.85 287.85 426.95 287.85 426.95 287.5 426.65 287.5 426.3 287.5 425.6 287.5 424.9 287.5 Z"/>

<path fill="#000000" fill-opacity="0.5490196078431373" stroke="none" d="
M 232.05 354.75
Q 231.7 354.75 231.35 354.75 231.35 355.1 231.35 355.45 231.7 355.45 231.85 355.3 232.05 355.1 232.05 354.75
M 182.8 346.45
Q 182.45 346.45 182.1 346.45 182.1 346.8 182.1 347.15 182.45 347.15 182.6 346.95 182.8 346.8 182.8 346.45
M 222.35 343
Q 222.35 342.65 222.35 342.3 222 342.3 221.65 342.3 221.65 342.65 221.8 342.8 222 343 222.35 343
M 218.7 321.3
Q 218.85 321.15 218.85 320.8 218.5 320.8 218.15 320.8 218.15 321.15 218.15 321.5 218.5 321.5 218.7 321.3 Z"/>

<path fill="#000000" fill-opacity="0.47843137254901963" stroke="none" d="
M 223.9 356.7
Q 224.05 356.85 224.4 356.85 224.4 356.5 224.25 356.35 224.05 356.15 223.7 356.15 223.7 356.5 223.9 356.7
M 459.6 279.15
Q 459.6 279.5 459.6 279.85 459.9 279.85 460.1 279.7 460.25 279.5 460.25 279.15 459.9 279.15 459.6 279.15 Z"/>

<path fill="#000000" fill-opacity="0.49019607843137253" stroke="none" d="
M 226.5 352
Q 226.5 351.65 226.3 351.5 226.15 351.3 225.8 351.3 225.8 351.65 225.95 351.85 226.15 352 226.5 352
M 242.45 345.75
Q 242.8 345.75 242.95 345.6 243.15 345.4 243.15 345.05 242.8 345.05 242.45 345.05 242.45 345.4 242.45 345.75
M 157.1 366.55
Q 157.45 366.55 157.65 366.4 157.8 366.2 157.8 365.85 157.45 365.85 157.1 365.85 157.1 366.2 157.1 366.55
M 150.95 367.1
Q 151.2 367.25 151.55 367.25 151.55 366.9 151.45 366.85 150.9 366.55 150.2 366.55 150.55 366.9 150.95 367.1
M 349.3 306.2
Q 349.3 306.55 349.3 306.9 349.6 306.9 349.8 306.75 349.95 306.55 349.95 306.2 349.6 306.2 349.3 306.2
M 397.15 296.5
Q 396.8 296.5 396.45 296.5 396.1 296.5 395.75 296.5 395.75 296.85 395.75 297.2 396.45 297.2 397 296.9 397.15 296.85 397.15 296.5
M 393.5 292.85
Q 393.65 292.7 393.65 292.35 393.35 292.35 393 292.35 393 292.7 393 293.05 393.35 293.05 393.5 292.85 Z"/>

<path fill="#000000" fill-opacity="0.592156862745098" stroke="none" d="
M 231.15 350.45
Q 231.35 350.25 231.35 349.9 231 349.9 230.65 349.9 230.65 350.25 230.65 350.6 231 350.6 231.15 350.45
M 229.95 350.6
Q 229.95 350.95 229.95 351.3 230.3 351.3 230.5 351.15 230.65 350.95 230.65 350.6 230.3 350.6 229.95 350.6
M 236.9 350.6
Q 236.9 350.95 236.9 351.3 237.25 351.3 237.4 351.15 237.6 350.95 237.6 350.6 237.25 350.6 236.9 350.6
M 208.45 331.9
Q 208.1 331.9 207.75 331.9 207.75 332.25 207.75 332.55 208.1 332.55 208.3 332.4 208.45 332.25 208.45 331.9
M 203.4 331
Q 203.6 330.85 203.6 330.5 203.25 330.5 202.9 330.5 202.9 330.85 202.9 331.2 203.25 331.2 203.4 331
M 157.8 360.3
Q 157.8 360.65 157.8 361 158.15 361 158.35 360.85 158.5 360.65 158.5 360.3 158.15 360.3 157.8 360.3
M 353.45 304.85
Q 353.1 304.85 352.75 304.85 352.75 305.15 352.75 305.5 353.1 305.5 353.25 305.35 353.45 305.15 353.45 304.85
M 379.1 295.8
Q 379.45 295.8 379.65 295.65 379.8 295.45 379.8 295.1 379.45 295.1 379.1 295.1 379.1 295.45 379.1 295.8 Z"/>

<path fill="#000000" fill-opacity="0.5333333333333333" stroke="none" d="
M 233.25 349.05
Q 233.45 348.9 233.45 348.55 233.1 348.55 232.75 348.55 232.75 348.9 232.75 349.2 233.1 349.2 233.25 349.05
M 363.8 298.95
Q 363.85 298.95 363.85 298.6 363.5 298.6 363.15 298.6 362.1 298.6 361.05 298.6 361.05 298.95 361.05 299.3 362.45 299.3 363.8 298.95 Z"/>

<path fill="#000000" fill-opacity="0.5098039215686274" stroke="none" d="
M 175.85 356.85
Q 175.5 356.85 175.15 356.85 175.15 357.2 175.15 357.55 175.5 357.55 175.7 357.4 175.85 357.2 175.85 356.85
M 342.35 304.15
Q 342.35 304.5 342.35 304.85 342.7 304.85 342.85 304.65 343.05 304.5 343.05 304.15 342.7 304.15 342.35 304.15 Z"/>

<path fill="#000000" fill-opacity="0.4392156862745098" stroke="none" d="
M 176.55 356.15
Q 176.9 356.15 177.05 356 177.25 355.8 177.25 355.45 176.9 355.45 176.55 355.45 176.55 355.8 176.55 356.15
M 204.8 335.2
Q 205 335 205 334.65 204.65 334.65 204.3 334.65 204.3 335 204.3 335.35 204.65 335.35 204.8 335.2
M 205 329.1
Q 204.65 329.1 204.3 329.1 204.3 329.45 204.3 329.8 204.65 329.8 204.8 329.65 205 329.45 205 329.1
M 374.25 295.8
Q 374.25 296.15 374.25 296.5 374.6 296.5 374.95 296.5 374.95 296.15 374.75 296 374.6 295.8 374.25 295.8 Z"/>

<path fill="#000000" fill-opacity="0.5215686274509804" stroke="none" d="
M 176.35 356.7
Q 176.55 356.5 176.55 356.15 176.2 356.15 175.85 356.15 175.85 356.5 175.85 356.85 176.2 356.85 176.35 356.7
M 202.75 331.7
Q 202.9 331.55 202.9 331.2 202.55 331.2 202.2 331.2 202.2 331.55 202.2 331.9 202.55 331.9 202.75 331.7
M 454.55 281.75
Q 454.7 281.6 454.7 281.25 454.35 281.25 454.05 281.25 454.05 281.6 454.05 281.95 454.35 281.95 454.55 281.75 Z"/>

<path fill="#000000" fill-opacity="0.5843137254901961" stroke="none" d="
M 177.95 350.6
Q 178.3 350.6 178.45 350.45 178.6 350.25 178.6 349.9 178.3 349.9 177.95 349.9 177.95 350.25 177.95 350.6
M 155.05 366.55
Q 154.7 366.55 154.35 366.55 154.35 366.9 154.35 367.25 154.7 367.25 154.85 367.1 155.05 366.9 155.05 366.55 Z"/>

<path fill="#000000" fill-opacity="0.40784313725490196" stroke="none" d="
M 241.75 346.45
Q 241.4 346.45 241.05 346.45 241.05 346.8 241.05 347.15 241.4 347.15 241.6 346.95 241.75 346.8 241.75 346.45
M 387.3 298.3
Q 387.45 298.25 387.45 297.9 387.1 297.9 386.75 297.9 386.4 297.9 386.05 297.9 385.95 299.05 387.3 298.3 Z"/>

<path fill="#000000" fill-opacity="0.5764705882352941" stroke="none" d="
M 223.55 335.85
Q 223.7 335.7 223.7 335.35 223.35 335.35 223 335.35 223 335.7 223 336.05 223.35 336.05 223.55 335.85
M 159.2 365.2
Q 158.85 365.2 158.5 365.2 158.5 365.55 158.5 365.85 158.85 365.85 159.05 365.7 159.2 365.55 159.2 365.2
M 329.7 308.1
Q 329.85 307.95 329.85 307.6 329.5 307.6 329.15 307.6 329.15 307.95 329.15 308.3 329.5 308.3 329.7 308.1
M 421.4 288.2
Q 421.35 289.3 422.65 288.6 422.8 288.5 422.8 288.2 422.45 288.2 422.1 288.2 421.75 288.2 421.4 288.2 Z"/>

<path fill="#000000" fill-opacity="0.4470588235294118" stroke="none" d="
M 224.4 323.55
Q 224.4 323.2 224.25 323.05 224.05 322.85 223.7 322.85 223.7 323.2 223.9 323.4 224.05 323.55 224.4 323.55 Z"/>

<path fill="#000000" fill-opacity="0.42745098039215684" stroke="none" d="
M 203.6 329.8
Q 203.6 330.15 203.6 330.5 203.95 330.5 204.1 330.3 204.3 330.15 204.3 329.8 203.95 329.8 203.6 329.8
M 340.95 309
Q 340.6 309 340.25 309 340.25 309.35 340.25 309.7 340.6 309.7 340.8 309.5 340.95 309.35 340.95 309 Z"/>

<path fill="#000000" fill-opacity="0.5019607843137255" stroke="none" d="
M 157 361.45
Q 157.1 361.35 157.1 361 156.75 361 156.45 361 156.1 361 155.75 361 155.75 361.35 155.75 361.7 156.45 361.7 157 361.45
M 408.75 294.6
Q 408.6 294.4 408.25 294.4 408.25 294.75 408.4 294.95 408.6 295.1 408.95 295.1 408.95 294.75 408.75 294.6 Z"/>

<path fill="#000000" fill-opacity="0.5725490196078431" stroke="none" d="
M 333.3 311.05
Q 333.3 311.4 333.3 311.75 333.65 311.75 333.85 311.6 334 311.4 334 311.05 333.65 311.05 333.3 311.05 Z"/>

<path fill="#000000" fill-opacity="0.49411764705882355" stroke="none" d="
M 347.7 307.45
Q 347.9 307.25 347.9 306.9 347.55 306.9 347.2 306.9 347.2 307.25 347.2 307.6 347.55 307.6 347.7 307.45
M 356.9 304.15
Q 356.55 304.15 356.2 304.15 356.2 304.5 356.2 304.85 356.55 304.85 356.75 304.65 356.9 304.5 356.9 304.15
M 463.9 280.35
Q 464.1 280.55 464.45 280.55 464.45 280.2 464.25 280.05 464.1 279.85 463.75 279.85 463.75 280.2 463.9 280.35 Z"/>

<path fill="#000000" fill-opacity="0.4745098039215686" stroke="none" d="
M 350.65 301.35
Q 350.65 301.7 350.65 302.05 351.7 302.05 352.65 301.75 352.75 301.7 352.75 301.35 352.4 301.35 352.05 301.35 351.35 301.35 350.65 301.35
M 394.9 296.8
Q 394.35 296.5 393.65 296.5 394 296.85 394.45 297.05 394.7 297.2 395.05 297.2 395.05 296.85 394.9 296.8
M 442.95 284
Q 443.25 284 443.6 284 443.6 283.65 443.45 283.5 443.25 283.3 442.95 283.3 442.95 283.65 442.95 284
M 422 292.75
Q 422.1 292.7 422.1 292.35 421.75 292.35 421.4 292.35 421.1 292.35 420.75 292.35 420.75 292.7 420.75 293.05 421.4 293.05 422 292.75 Z"/>

<path fill="#000000" fill-opacity="0.43137254901960786" stroke="none" d="
M 460.25 278.45
Q 460.25 278.8 460.25 279.15 460.6 279.15 460.95 279.15 460.95 278.8 460.8 278.65 460.6 278.45 460.25 278.45 Z"/>

<path fill="#000000" fill-opacity="0.9647058823529412" stroke="none" d="
M 408.95 289.55
Q 408.95 289.9 408.75 290.1 408.6 290.25 408.25 290.25 407.9 290.25 407.55 290.25 406.85 290.25 406.15 290.25 406.15 290.6 406 290.8 405.8 290.95 405.45 290.95 403 291.6 399.9 291.65 399.2 291.65 398.75 292 397.1 293.3 393.65 292.35 393.65 292.7 393.5 292.85 393.35 293.05 393 293.05 392.65 293.05 392.3 293.1 389.8 293.7 386.75 293.75 386.75 294.05 386.55 294.25 386.4 294.4 386.05 294.4 385.7 294.4 385.35 294.4 383.95 294.4 382.6 294.4 382.6 294.75 382.4 294.95 382.25 295.1 381.9 295.1 381.55 295.1 381.2 295.1 380.5 295.1 379.8 295.1 379.8 295.45 379.65 295.65 379.45 295.8 379.1 295.8 378.75 295.8 378.4 295.8 377.7 295.8 377.05 295.8 377.05 296.15 376.85 296.35 376.7 296.5 376.35 296.5 376 296.5 375.65 296.5 375.3 296.5 374.95 296.5 374.6 296.5 374.25 296.5 373.9 296.5 373.55 296.5 372.85 296.5 372.15 296.5 372.15 296.85 372 297 371.8 297.2 371.5 297.2 371.15 297.2 370.8 297.2 370.45 297.2 370.1 297.2 370.1 297.55 369.95 297.6 369.4 297.9 368.7 297.9 368.35 297.9 368 297.9 367.65 297.9 367.3 297.9
L 367.3 298.25
Q 366.95 298.25 366.6 297.9 366.25 297.9 366.05 298.05 365.2 298.55 363.85 298.6 363.85 298.95 363.8 298.95 362.45 299.3 361.05 299.3 360.7 299.3 360.4 299.3 360.4 299.6 360.2 299.8 360.05 299.95 359.7 299.95 359.35 299.95 359 299.95 358.65 299.95 358.3 299.95 358.3 300.3 358.1 300.5 357.95 300.65 357.6 300.65 357.25 300.65 356.9 300.65 355.85 300.65 354.85 300.65 354.85 301 354.65 301.2 354.5 301.35 354.15 301.35 353.8 301.35 353.45 301.35 353.1 301.35 352.75 301.35 352.75 301.7 352.65 301.75 351.7 302.05 350.65 302.05 350.3 302.05 349.95 302.05 349.95 302.4 349.8 302.55 349.6 302.75 349.3 302.75 348.95 302.75 348.7 302.9 347.45 303.7 345.1 303.45 345.1 303.8 344.95 303.95 344.75 304.15 344.4 304.15 344.05 304.15 343.75 304.15 343.4 304.15 343.05 304.15 343.05 304.5 342.85 304.65 342.7 304.85 342.35 304.85 342 304.85 341.65 304.85 341.3 304.85 340.95 304.85 340.95 305.15 340.8 305.35 340.6 305.5 340.25 305.5 339.9 305.5 339.55 305.5 339.2 305.5 338.85 305.5 338.85 305.85 338.75 305.95 338.2 306.2 337.5 306.2 337.15 306.2 336.8 306.2 336.45 306.2 336.1 306.2 336.1 306.55 335.95 306.65 335.4 306.9 334.7 306.9 334.35 306.9 334 306.9 333.65 306.9 333.3 306.9 333.3 307.25 333.15 307.45 332.95 307.6 332.65 307.6 332.3 307.6 331.95 307.6 330.9 307.6 329.85 307.6 329.85 307.95 329.7 308.1 329.5 308.3 329.15 308.3 328.8 308.3 328.45 308.3 326.75 308.3 325 308.3 325 308.65 324.85 308.7 324.3 309 323.6 309 323.25 309 323 309.15 321.75 309.95 319.45 309.7 319.45 310.05 319.3 310.1 318.75 310.4 318.05 310.4 317.7 310.4 317.35 310.4 316.35 310.4 315.3 310.4 315.3 310.7 315.15 310.8 313.85 311.5 313.9 310.4 313.55 310.4 313.2 310.4 312.85 310.4 312.5 310.4 312.5 310.7 312.35 310.9 312.15 311.05 311.8 311.05 311.45 311.05 311.15 311.15 308.2 312.3 304.2 312.45 304.2 312.8 304 313 303.85 313.15 303.5 313.15 303.15 313.15 302.8 313.15 301.75 313.15 300.7 313.15 300.7 313.5 300.55 313.65 300.35 313.85 300 313.85 299.7 313.85 299.35 313.85 298.3 313.85 297.25 313.85 297.25 314.2 297.1 314.35 296.9 314.55 296.55 314.55 296.2 314.55 295.85 314.55 294.8 314.55 293.8 314.55 293.8 314.9 293.6 315.05 293.45 315.25 293.1 315.25 292.75 315.25 292.4 315.25 292.05 315.25 291.7 315.25 291.7 315.6 291.55 315.65 291 315.95 290.3 315.95 289.95 315.95 289.65 316 286.6 316.7 282.7 316.6 282.7 316.95 282.5 317.15 282.35 317.3 282 317.3 280.9 316.6 278.5 317.05 276.6 317.45 275.05 318 275.05 318.35 274.9 318.55 274.7 318.7 274.35 318.7 274 318.7 273.85 318.85 272.9 320 270.9 320.1 270.9 321.15 270.9 322.15 270.9 322.5 270.9 322.85 271.25 322.85 271.4 323.05 271.6 323.2 271.6 323.55 273.15 328.4 269.95 330.9 266.65 333.45 262.55 331.9 262.2 331.9 262.05 331.7 261.85 331.55 261.85 331.2 261.5 331.2 261.3 331 259.25 329.3 256.3 328.4 255.95 328.4 255.8 328.25 255.65 328.05 255.65 327.7 255.3 327.7 254.95 327.7 254.25 327.7 253.55 327.7 253.2 327.7 252.85 327.7 252.5 327.7 252.25 327.85 250.75 328.75 249.4 329.8 249.4 330.15 249.4 330.5 249.4 330.85 249.2 331 249.05 331.2 248.7 331.2 248.7 331.55 248.5 331.7 248 332.25 247.3 332.55 247.3 332.9 247.3 333.25 247.3 333.6 247.3 333.95 247.3 334.3 247.15 334.5 246.95 334.65 246.6 334.65 246.6 335 246.45 335.05 243.5 336.75 241.75 339.5 241.75 339.85 241.75 340.2 241.75 340.55 241.6 340.75 241.4 340.9 241.05 340.9 241.05 341.25 240.9 341.5 240.35 342.25 239 342.3 239 342.65 239 343 239 343.35 238.8 343.5 238.65 343.65 238.3 343.65 238.3 344 238.1 344.2 237.25 345.05 236.2 345.75 236.2 346.1 236.2 346.45 236.2 346.8 236.05 346.95 235.85 347.15 235.5 347.15 235.15 347.15 235.1 347.3 234.6 348.3 233.45 348.55 233.45 348.9 233.25 349.05 233.1 349.2 232.75 349.2 232.4 349.2 232.05 349.2 232.05 349.55 231.85 349.75 231.7 349.9 231.35 349.9 231.35 350.25 231.15 350.45 231 350.6 230.65 350.6 230.65 350.95 230.5 351.15 230.3 351.3 229.95 351.3 229.6 351.3 229.25 351.35 227.9 351.65 226.5 352 226.15 352 225.95 351.85 225.8 351.65 225.8 351.3 225.45 351.3 225.1 351.25 222.1 350.85 222.35 347.15 222 347.15 221.95 347.05 221.65 346.1 221.65 345.05 221.65 344.7 221.65 344.35 222 344 222.2 343.6 222.35 343.35 222.35 343 222 343 221.8 342.8 221.65 342.65 221.65 342.3 222 342.3 222.35 342.3 222.35 341.95 222.35 341.6 222.35 340.9 222.35 340.2 222.35 339.85 222.35 339.5 222.7 339.5 223 339.5 223 339.15 223 338.8 223 337.45 223 336.05 223 335.7 223 335.35 223.35 335.35 223.7 335.35 223.7 335 223.7 334.65 223.7 334.3 223.7 333.95 223.7 333.6 223.7 333.25 223.7 332.9 223.7 332.55 224.05 332.55 224.4 332.55 224.4 332.25 224.5 331.9 225.95 327.6 224.4 323.55 224.05 323.55 223.9 323.4 223.7 323.2 223.7 322.85 223.7 322.5 223.55 322.25 223 321.5 221.65 321.5 221.3 321.5 221 321.35 220.6 321.15 220.25 320.8 219.9 320.8 219.55 320.8 219.2 320.8 218.85 320.8 218.85 321.15 218.7 321.3 218.5 321.5 218.15 321.5 217.8 321.5 217.45 321.5 217.45 321.8 217.35 321.9 216.8 322.15 216.1 322.15 216.1 322.5 215.9 322.7 215.75 322.85 215.4 322.85 215.05 322.85 214.7 322.85 214.7 323.2 214.5 323.4 214.35 323.55 214 323.55 213.65 323.55 213.4 323.7 210.55 325 208.45 327.05 208.45 327.35 208.3 327.55 208.1 327.7 207.75 327.7 207.4 327.7 207.25 327.9 206.35 328.75 205 329.1 205 329.45 204.8 329.65 204.65 329.8 204.3 329.8 204.3 330.15 204.1 330.3 203.95 330.5 203.6 330.5 203.6 330.85 203.4 331 203.25 331.2 202.9 331.2 202.9 331.55 202.75 331.7 202.55 331.9 202.2 331.9 201.85 331.9 201.65 332.05 199.5 333.7 197.35 335.35 197.35 335.7 197.2 335.85 197 336.05 196.65 336.05 196.3 336.05 196.2 336.2 195.05 337.9 193.2 338.8 193.2 339.15 193 339.35 192.85 339.5 192.5 339.5 192.15 339.5 191.85 339.65 191.45 339.85 191.1 340.2 191.1 340.55 190.95 340.75 190.75 340.9 190.4 340.9 190.05 340.9 189.7 340.9 189.7 341.25 189.55 341.4 189.4 341.6 189.05 341.6 188.7 341.6 188.6 341.75 187.4 343.45 185.55 344.35 185.55 344.7 185.4 344.9 185.2 345.05 184.85 345.05 184.5 345.05 184.45 345.2 183.95 346.25 182.8 346.45 182.8 346.8 182.6 346.95 182.45 347.15 182.1 347.15 181.75 347.15 181.55 347.3 180.2 348.35 178.6 349.2 178.6 349.55 178.6 349.9 178.6 350.25 178.45 350.45 178.3 350.6 177.95 350.6 177.6 350.6 177.25 350.6 176.9 350.6 176.55 350.6 176.55 350.95 176.35 351.15 176.2 351.3 175.85 351.3 175.5 351.3 175.25 351.45 174.8 351.65 174.45 352 174.45 352.35 174.3 352.5 174.1 352.7 173.75 352.7 173.75 353.05 173.6 353.2 173.4 353.4 173.05 353.4 172.75 353.4 172.45 353.5 172.05 353.75 171.7 354.1 171.7 354.45 171.5 354.6 171.35 354.75 171 354.75 170.65 354.75 170.5 354.95 169.1 356.7 166.15 356.85 166.15 357.2 165.95 357.4 165.8 357.55 165.45 357.55 165.1 357.55 164.8 357.7 164.4 357.9 164.05 358.25 164.05 358.6 163.9 358.75 163.7 358.95 163.35 358.95 163 358.95 162.85 359.1 161.45 360.5 158.5 360.3 158.5 360.65 158.35 360.85 158.15 361 157.8 361 157.45 361 157.1 361 157.1 361.35 157 361.45 156.45 361.7 155.75 361.7 155.4 361.7 155.05 361.7 153.3 361.7 151.55 361.7 151.2 361.7 151.05 361.55 150.9 361.35 150.9 361 150.55 361 150.35 360.85 150.2 360.65 150.2 360.3 150.2 360 150.2 359.65 149.85 359.65 149.85 359.55 149.6900390625 358.635546875 149.6 357.7 149.3765625 357.9490234375 149.15 358.2 147.6392578125 359.8802734375 146 361.35 146 361.5328125 146 361.7 146.35 362.05 146.55 362.45 146.7 362.75 146.7 363.1 147.45 365.5 149.55 366.45 149.85 366.55 150.2 366.55 150.9 366.55 151.45 366.85 151.55 366.9 151.55 367.25 152.6 367.25 153.65 367.25 154 367.25 154.35 367.25 154.35 366.9 154.35 366.55 154.7 366.55 155.05 366.55 155.75 366.55 156.45 366.55 156.75 366.55 157.1 366.55 157.1 366.2 157.1 365.85 157.45 365.85 157.8 365.85 158.15 365.85 158.5 365.85 158.5 365.55 158.5 365.2 158.85 365.2 159.2 365.2 159.55 365.2 159.9 365.2 160.25 365.2 160.6 365.2 160.6 364.85 160.6 364.5 160.95 364.5 161.3 364.5 161.65 364.5 162 364.5 162 364.15 162 363.8 162.3 363.8 162.65 363.8 163 363.8 163.35 363.8 164.05 363.45 164.8 363.2 165.1 363.1 165.45 363.1 165.45 362.75 165.45 362.4 165.8 362.4 166.15 362.4 166.5 362.05 166.9 361.85 167.2 361.7 167.55 361.7 167.55 361.35 167.55 361 167.85 361 168.2 361 169.6 360.65 170.45 359.8 170.65 359.65 171 359.65 171 359.3 171 358.95 171.35 358.95 171.7 358.95 173.7 358.85 174.65 357.7 174.8 357.55 175.15 357.55 175.15 357.2 175.15 356.85 175.5 356.85 175.85 356.85 175.85 356.5 175.85 356.15 176.2 356.15 176.55 356.15 176.55 355.8 176.55 355.45 176.9 355.45 177.25 355.45 177.25 355.1 177.25 354.75 177.6 354.75 177.95 354.75 178.3 354.75 178.6 354.75 178.6 354.45 178.6 354.1 178.95 354.1 179.3 354.1 179.65 353.75 180.1 353.5 180.35 353.4 180.7 353.4 180.7 353.05 180.7 352.7 181.05 352.7 181.4 352.7 185.7 350.05 189.2 346.6 189.4 346.45 189.7 346.45 189.7 346.1 189.7 345.75 190.05 345.75 190.4 345.75 195.35 342.75 199.55 339 199.8 338.8 200.15 338.8 200.15 338.45 200.15 338.1 200.5 338.1 200.8 338.1 200.8 337.8 200.8 337.45 201.15 337.45 201.5 337.45 201.5 337.1 201.5 336.75 201.85 336.75 202.2 336.75 202.2 336.4 202.2 336.05 202.55 336.05 202.9 336.05 203.25 335.7 203.65 335.5 203.95 335.35 204.3 335.35 204.3 335 204.3 334.65 204.65 334.65 205 334.65 206.15 334.45 206.65 333.4 206.7 333.25 207.05 333.25 207.05 332.9 207.05 332.55 207.4 332.55 207.75 332.55 207.75 332.25 207.75 331.9 208.1 331.9 208.45 331.9 208.45 331.55 208.45 331.2 208.8 331.2 208.95 331.35 209.15 331.55 209.15 331.9 211.5 330.4 213.5 328.6 213.65 328.4 214 328.4 214 328.05 214 327.7 214.35 327.7 214.7 327.7 215.05 327.7 215.4 327.7 215.4 327.35 215.4 327.05 215.75 327.05 216.1 327.05 216.8 326.35 218.15 326.35 218.5 326.35 218.85 326.35 218.85 326 218.85 325.65 219.55 325.65 220.1 325.9 220.25 326 220.25 326.35 221.4 326.25 220.65 327.6 220.6 327.7 220.25 327.7 220.25 328.4 220.25 329.1 220.25 329.45 220.25 329.8 220.6 330.15 220.6 330.5
L 220.25 330.5
Q 220.25 330.85 220.25 331.2 220.25 331.55 220.25 331.9 220.25 332.25 220.25 332.55 220.25 332.9 220.25 333.25 220.25 333.6 220.25 333.95 220.25 334.3 220.25 334.65 220.25 335 220.05 335.2 219.9 335.35 219.55 335.35 219.55 335.7 219.4 335.85 219.2 336.05 218.85 336.05 218.85 338.8 218.85 341.6 218.85 341.95 218.85 342.3 218.85 342.65 218.85 343 218.85 343.35 218.85 343.65 218.85 344 218.85 344.35 218.85 344.7 218.7 345 218.5 345.4 218.15 345.75 218.15 346.1 218.15 346.45 219.3 346.4 218.95 347.85 218.85 348.2 218.85 348.55 218.75 351.4 219.8 353.25 219.9 353.4 220.25 353.4 220.6 353.4 220.75 353.55 220.95 353.75 220.95 354.1 220.95 354.45 220.95 354.75 221.3 354.75 221.45 354.95 221.65 355.1 221.65 355.45 223.15 355.05 223.35 356.1 223.35 356.15 223.7 356.15 224.05 356.15 224.25 356.35 224.4 356.5 224.4 356.85 228.55 357.15 230.75 355.65 231 355.45 231.35 355.45 231.35 355.1 231.35 354.75 231.7 354.75 232.05 354.75 232.4 354.75 232.75 354.75 232.75 354.45 232.75 354.1 233.1 354.1 233.45 354.1 233.75 354.1 234.1 354.1 234.1 353.75 234.1 353.4 234.45 353.4 234.8 353.4 234.8 353.05 234.8 352.7 236 352.5 236.5 351.45 236.55 351.3 236.9 351.3 236.9 350.95 236.9 350.6 237.25 350.6 237.6 350.6 239.3 349.2 240.9 347.65 241.05 347.5 241.05 347.15 241.05 346.8 241.05 346.45 241.4 346.45 241.75 346.45 241.75 346.1 241.75 345.75 242.1 345.75 242.45 345.75 242.45 345.4 242.45 345.05 242.8 345.05 243.15 345.05 244.35 343.85 245.45 342.45 245.55 342.3 245.9 342.3 245.9 341.95 245.9 341.6 246.25 341.6 246.6 341.6 246.95 341.6 247.15 341.4 247.3 341.25 247.3 340.9 247.3 340.55 247.3 340.2 247.65 340.2 248 340.2 248 339.85 248 339.5 248.7 339.15 249.2 338.65 249.4 338.45 249.4 338.1 249.4 337.8 249.4 337.45 249.75 337.45 250.1 337.45 250.1 337.1 250.1 336.75 251.45 334.65 253.6 333.4 253.9 333.25 254.25 333.25 254.25 332.9 254.25 332.55 254.6 332.55 254.95 332.55 255.3 332.55 255.65 332.55 255.95 332.55 256.15 332.75 256.3 332.9 256.3 333.25 256.65 333.25 256.85 333.45 257 333.6 257 333.95 258.6 335.5 261.05 336.35 261.2 336.4 261.2 336.75 262.2 336.75 263.15 337.05 263.25 337.1 263.25 337.45 263.95 337.45 264.65 337.45 265 337.45 265.35 337.45 265.7 337.45 265.85 337.6 266.05 337.8 266.05 338.1 267.05 338.1 268.1 338.1 268.45 338.1 268.8 338.1 268.8 337.8 268.8 337.45 269.15 337.45 269.5 337.45 269.85 337.1 270.25 336.9 270.55 336.75 270.9 336.75 270.9 336.4 270.9 336.05 271.25 336.05 271.6 336.05 271.95 336.05 272.3 336.05 272.6 336.05 272.95 336.05 272.95 335.7 272.95 335.35 273.3 335.35 273.65 335.35 276.45 334.35 277.05 331.2 277.15 330.85 277.15 330.5 277.15 330.15 277.15 329.8 277.15 329.45 277.15 329.1 277.15 328.05 277.15 327.05 277.15 326.7 277.15 326.35 277.15 326 277.15 325.65 276.8 325.65 276.6 325.45 276.45 325.3 276.45 324.95 276.45 324.6 276.45 324.25 276.45 323.9 276.45 323.55 279.5 323.5 282 322.95 282.35 322.85 282.7 322.85 282.7 322.5 282.7 322.15 283.05 322.15 283.35 322.15 286.35 321.7 289.6 321.5 289.95 321.5 290.3 321.5 290.3 321.15 290.3 320.8 290.65 320.8 291 320.8 291 320.45 291 320.1 291.35 320.1 291.7 320.1 292.05 320.1 292.4 320.1 292.75 320.1 293.1 320.1 294.15 320.1 295.15 320.1 295.5 320.1 295.85 320.1 295.85 319.75 295.85 319.4 296.2 319.4 296.55 319.4 302.15 318.4 307.65 317.4 308 317.3 308.35 317.3 308.35 316.95 308.35 316.6 308.7 316.6 309.05 316.6 310.1 316.6 311.1 316.6 311.45 316.6 311.8 316.6 311.8 316.25 311.8 315.95 312.15 315.95 312.5 315.95 312.85 315.95 313.2 315.95 316.35 315.6 318.8 314.65 319.1 314.55 319.45 314.55 319.45 314.2 319.45 313.85 319.8 313.85 320.15 313.85 320.5 313.85 320.85 313.85 321.55 313.85 322.2 313.85 322.55 313.85 322.9 313.85 322.9 313.5 322.9 313.15 323.25 313.15 323.6 313.15 325 313.15 326.4 313.15 326.75 313.15 327.1 313.15 327.1 312.8 327.1 312.45 327.45 312.45 327.75 312.45 329.5 312.45 331.25 312.45 331.6 312.45 331.95 312.45 331.95 312.1 331.95 311.75 332.3 311.75 332.65 311.75 332.95 311.75 333.3 311.75 333.3 311.4 333.3 311.05 333.65 311.05 334 311.05 334.35 311.05 334.7 311.05 335.05 311.05 335.4 311.05 335.4 310.7 335.4 310.4 335.75 310.4 336.1 310.4 338.65 310.85 339.75 309.85 339.9 309.7 340.25 309.7 340.25 309.35 340.25 309 340.6 309 340.95 309 341.3 309 341.65 309 342 309 342.35 309 342.35 308.65 342.35 308.3 342.7 308.3 343.05 308.3 343.4 308.3 343.75 308.3 344.05 308.3 344.4 308.3 344.4 307.95 344.4 307.6 344.75 307.6 345.1 307.6 345.8 307.6 346.5 307.6 346.85 307.6 347.2 307.6 347.2 307.25 347.2 306.9 347.55 306.9 347.9 306.9 348.25 306.9 348.6 306.9 348.95 306.9 349.3 306.9 349.3 306.55 349.3 306.2 349.6 306.2 349.95 306.2 351.85 306.7 352.35 305.65 352.4 305.5 352.75 305.5 352.75 305.15 352.75 304.85 353.1 304.85 353.45 304.85 354.5 304.85 355.5 304.85 355.85 304.85 356.2 304.85 356.2 304.5 356.2 304.15 356.55 304.15 356.9 304.15 357.25 304.15 357.6 304.15 357.95 304.15 358.3 304.15 358.3 303.8 358.3 303.45 359 303.45 359.7 303.45 360.05 303.45 360.4 303.45 360.7 303.45 361.05 303.45 361.05 303.1 361.05 302.75 361.4 302.75 361.75 302.75 362.1 302.75 362.45 302.75 362.8 302.75 363.15 302.75 363.5 302.75 363.85 302.75 363.85 302.4 363.85 302.05 364.2 302.05 364.55 302.05 364.55 301.7 364.55 301.35 365.95 301.7 367.3 302 367.65 302.05 368 302.05 368 301.7 368 301.35 368.35 301.35 368.7 301.35 369.05 301.35 369.4 301.35 371.5 301 373.55 301 376.3 301 377.7 299.95 377.7 299.6 377.7 299.3 378.75 299.3 379.8 299.3 380.15 299.3 380.5 299.3 380.85 299.3 381.2 299.3 381.55 299.3 381.9 299.3 381.9 298.95 381.9 298.6 382.25 298.6 382.6 298.6 382.9 298.6 383.25 298.6 384.6 298.55 385.45 298.05 385.7 297.9 386.05 297.9 386.4 297.9 386.75 297.9 387.1 297.9 387.45 297.9 387.8 297.9 388.1 297.9 388.45 297.9 388.8 297.9 388.8 297.55 388.8 297.2 389.15 297.2 389.5 297.2 390.55 297.2 391.6 297.2 391.95 297.2 392.3 297.2 392.3 296.85 392.3 296.5 392.65 296.5 393 296.5 393.35 296.5 393.65 296.5 394.35 296.5 394.9 296.8 395.05 296.85 395.05 297.2 395.4 297.2 395.75 297.2 395.75 296.85 395.75 296.5 396.1 296.5 396.45 296.5 396.8 296.5 397.15 296.5 399.85 295.4 403.4 295.15 403.75 295.1 404.1 295.1 404.45 295.1 404.75 295.1 405.1 295.1 405.45 295.1 405.8 295.1 406.15 295.1 406.5 295.1 406.85 295.1 407.2 294.75 407.6 294.55 407.9 294.4 408.25 294.4 408.6 294.4 408.75 294.6 408.95 294.75 408.95 295.1 409.3 295.1 409.65 295.1 410 295.1 410.3 295.1 410.3 294.75 410.3 294.4 410.65 294.4 411 294.4 413.8 294.05 416.55 293.75 416.9 293.75 417.25 293.75 417.25 293.4 417.25 293.05 417.6 293.05 417.95 293.05 418.3 293.05 418.65 293.05 419.35 293.05 420.05 293.05 420.4 293.05 420.75 293.05 420.75 292.7 420.75 292.35 421.1 292.35 421.4 292.35 421.75 292.35 422.1 292.35 427.15 292.15 431.85 291.7 432.2 291.65 432.5 291.65 432.5 291.3 432.5 290.95 432.85 290.95 433.2 290.95 438.5 290.35 442.95 289 443.25 288.85 443.6 288.85 443.6 288.5 443.6 288.2 443.95 288.2 444.3 288.2 444.65 288.2 445 288.2 445.35 288.2 445.7 288.2 445.7 287.85 445.7 287.5 446.05 287.5 446.4 287.5 449.75 287.7 452 286.9 452.3 286.8 452.65 286.8 452.65 286.45 452.65 286.1 453.35 286.1 454.05 286.1 454.35 286.1 454.7 286.1 458.2 286.15 461 285.45 461.3 285.4 461.65 285.4 461.65 285.05 461.65 284.7 462 284.7 462.35 284.7 465.6 285.2 464.95 281.95 464.8 281.25 464.45 280.55 464.1 280.55 463.9 280.35 463.75 280.2 463.75 279.85 463.4 279.85 463.3 279.7 462.85 278.65 460.95 279.15 460.6 279.15 460.25 279.15 460.25 279.5 460.1 279.7 459.9 279.85 459.6 279.85 459.6 280.2 459.4 280.35 459.25 280.55 458.9 280.55 458.55 280.55 458.2 280.55 457.5 280.55 456.8 280.55 456.8 280.9 456.65 281.05 456.45 281.25 456.1 281.25 455.75 281.25 455.4 281.25 455.05 281.25 454.7 281.25 454.7 281.6 454.55 281.75 454.35 281.95 454.05 281.95 453.7 281.95 453.35 281.95 452.3 281.95 451.25 281.95 451.25 282.3 451.1 282.45 450.9 282.65 450.55 282.65 450.2 282.65 449.85 282.65 449.15 282.65 448.5 282.65 448.5 282.95 448.3 283.15 448.15 283.3 447.8 283.3 447.45 283.3 447.2 283.5 445.95 284.25 443.6 284 443.25 284 442.95 284 442.6 284 442.25 284 442.25 284.35 442.05 284.55 441.9 284.7 441.55 284.7 441.2 284.7 440.9 284.8 437.75 285.75 433.9 286.1 433.9 286.45 433.75 286.6 433.55 286.8 433.2 286.8 432.85 286.8 432.5 286.8 430.8 286.8 429.05 286.8 429.05 287.15 428.9 287.3 428.7 287.5 428.35 287.5 428 287.5 427.65 287.5 427.3 287.5 426.95 287.5 426.95 287.85 426.85 287.85 425.95 288.2 424.9 288.2 424.55 288.2 424.2 288.2 423.5 288.2 422.8 288.2 422.8 288.5 422.65 288.6 421.35 289.3 421.4 288.2 418.3 288.85 415.2 289.5 411.45 290.2 408.95 289.55 Z"/>
</g>
</defs>

<mask id="Mask_Mask_1">
<g transform="matrix( 1, 0, 0, 1, 0,0) ">
<use xlink:href="#Mask_7_MASK_0_FILL"/>
</g>
</mask>

<g mask="url(#Mask_Mask_1)">
<g transform="matrix( 1, 0, 0, 1, 0,0) ">
<use xlink:href="#Layer7_0_FILL"/>
</g>
</g>

<mask id="Mask_Mask_2">
<g transform="matrix( 1, 0, 0, 1, 0,0) ">
<use xlink:href="#Mask_5_MASK_0_FILL"/>
</g>
</mask>

<g mask="url(#Mask_Mask_2)">
<g transform="matrix( 1, 0, 0, 1, 0,0) ">
<use xlink:href="#Layer5_0_FILL"/>
</g>
</g>

<mask id="Mask_Mask_3">
<g transform="matrix( 1, 0, 0, 1, 0,0) ">
<use xlink:href="#Mask_3_MASK_0_FILL"/>
</g>
</mask>

<g mask="url(#Mask_Mask_3)">
<g transform="matrix( 1, 0, 0, 1, 0,0) ">
<use xlink:href="#Layer3_0_FILL"/>
</g>
</g>

<mask id="Mask_Mask_4">
<g transform="matrix( 1, 0, 0, 1, 0,0) ">
<use xlink:href="#Mask_1_MASK_0_FILL"/>
</g>
</mask>

<g mask="url(#Mask_Mask_4)">
<g transform="matrix( 1, 0, 0, 1, 0,0) ">
<use xlink:href="#Layer1_0_FILL"/>
</g>
</g>
</svg>
