
<svg xmlns="http://www.w3.org/2000/svg" version="1.1" xmlns:xlink="http://www.w3.org/1999/xlink" preserveAspectRatio="none" x="0px" y="0px" width="500px" height="500px" viewBox="0 0 500 500">
<defs>
<g id="Mask_7_MASK_0_FILL">
<path fill="#FFFFFF" stroke="none" d="
M 350 364
L 350 51.05 156 51.05 156 364 350 364 Z"/>
</g>

<g id="Layer7_0_FILL">
<path fill="#000000" fill-opacity="0.8313725490196079" stroke="none" d="
M 335.2 332.4
Q 335.85 333.2 336.15 334.8
L 336.2 335.15
Q 337.05 332.85 335.2 332.4 Z"/>

<path fill="#000000" fill-opacity="0.8862745098039215" stroke="none" d="
M 336.2 339.4
Q 336.2 340.65 336.8 341.2 338.4 342.65 336.2 339.4 Z"/>

<path fill="#000000" fill-opacity="0.9254901960784314" stroke="none" d="
M 328.2 302.9
Q 328.2 303.15 328.25 303.35 328.65 305.1 328.2 305.9 328.45 305.9 328.45 305.95 331 314.9 334.2 322.9 334.2 322.65 334.2 322.4 334.3 319.35 332.7 316.4
L 332.95 316.4
Q 331.55 313.05 331.2 308.4 331.5 307.35 331.4 307.1 327.25 296.05 321.7 286.9 307.65 259.45 285.2 237.85 262.25 215.8 236.15 196.75 223.95 187.85 212.75 177.95 200.1 166.8 188.7 154.4
L 188.65 154.35
Q 188.65 154.1 188.75 153.9 188.85 153.6 189 153.3 188.65 153.05 188.3 152.8
L 187.05 152.2 186.25 151.15
Q 186.2 151.25 186.15 151.35 186.15 151.1 186.05 151 185.15 150.05 184.3 149.05 180.15 144.25 177.3 138.2
L 177.3 138.15
Q 177.2 138 177.15 137.85 177.2 137.65 177.3 137.45 176.1 135.05 175.85 132.45 175.75 132.65 175.65 132.85
L 175.4 133.1 175.4 133.05
Q 175.35 132.85 175.3 132.65 175.2 132.05 175.1 131.5 174.25 126.8 174.5 122.4 174.7 117.7 176.15 113.3 176.4 112.45 176.7 111.65 177.85 108.65 179.55 105.8 179.65 105.6 179.8 105.4 180.05 104.95 180.35 104.5 182.2 101.5 184.2 98.7 185 97.55 185.85 96.5 189.55 91.65 193.75 87.35 194.45 86.6 195.2 85.9 198.4 82.7 201.95 79.85 203 79 204.1 78.15 207.1 75.85 210.35 73.75 210.8 73.45 211.25 73.15 214.8 70.9 218.55 68.9 218.9 68.7 219.3 68.5 221.95 67.1 224.75 65.85 226.45 65.1 228.2 64.35
L 228.2 64.6
Q 228.3 64.6 228.4 64.6 232.6 64.6 231.7 61.35 230.05 61.1 228.4 61.25 224.5 61.55 220.45 63.95 218.8 64.9 217.2 65.85 215.55 66.8 213.95 67.7 212.9 68.3 211.85 68.9 211.05 69.35 210.3 69.75 207.4 71.35 204.7 73.15 204.4 73.35 204.1 73.55 203.95 73.65 203.8 73.75 199.55 76.6 195.85 79.85 194.75 80.75 193.75 81.75 191.6 83.75 189.65 85.9 186.2 89.65 183.25 93.85 181.6 96.2 180.15 98.7 179.4 99.9 178.75 101.1 177.7 103.05 176.7 105.1 176.6 105.25 176.55 105.4 174.75 109.2 173.25 113.3 172.1 116.5 171.15 119.85 171.15 121.15 171.2 122.4 171.5 129.15 173.6 135.25 174 136.25 174.4 137.3
L 174.45 137.35 174.65 137.35
Q 174.6 137.45 174.55 137.6
L 174.9 138.2
Q 175.2 140.1 175.7 141.8 175.85 142.45 176.05 143.05 176.1 142.7 176.15 142.35 176.15 142.1 176.15 141.85 176.25 141.95 176.35 142.1
L 176.35 142.15
Q 180.2 147.2 184.2 152.2 185.25 153.45 186.3 154.75 186.4 154.85 186.65 154.85 186.6 155.45 186.55 156
L 187.65 156.45 188.9 157.7 189.35 158.35
Q 192.15 160.45 194.5 163.05 202.8 172.25 212.05 180.55 226.5 193.6 243.2 204.4 243.3 206 244.4 206.8 270.2 225.9 292.25 248.8 314.35 271.7 328.2 302.9 Z"/>
</g>

<g id="Mask_5_MASK_0_FILL">
<path fill="#FFFFFF" stroke="none" d="
M 350 364
L 350 51.05 156 51.05 156 364 350 364 Z"/>
</g>

<g id="Layer5_0_FILL">
<path fill="#000000" fill-opacity="0.8196078431372549" stroke="none" d="
M 308.75 377.05
Q 308.5 377.05 308.25 377.05 308.25 377.3 308.15 377.5 308 377.8 307.75 378.05 308.6 381.7 309.45 385.5 309.5 385.55 309.75 385.55 310.7 381.9 308.85 377.5 308.75 377.3 308.75 377.05 Z"/>

<path fill="#000000" fill-opacity="0.9254901960784314" stroke="none" d="
M 191.1 207.9
Q 188.9359375 204.092578125 191.2 208.1 191.1673828125 207.9974609375 191.1 207.9
M 253.25 64
Q 253 64 252.75 64.05 247.25 65.2 242.3 68.2 240.2 69.45 238.25 71 227.4 74.4 219 80.15 210.15 86.15 204.75 93 204.5 93 204.3 93.15 195.9 99.05 189.65 108.85 188.4 110.85 187.2 113 186.95 113 186.9 113.15 185.55 114.85 184.3 116.65 180.05 122.7 176.7 129.6 176.15 130.7 175.65 131.85 174.45 134.35 173.45 137 173.4 136.85 173.4 136.65 173.3 136.85 173.2 137.05
L 172.95 137.3 172.95 137.25
Q 172.9 137.05 172.85 136.85 173 139.2 172.2 141.95
L 172.2 142
Q 172.15 142.1 172.1 142.25 171.75 142.95 171.6 143.65 171.2 145.35 171.65 147.05 171.7 147.25 171.7 147.5 171.1 148.65 170.5 149.95 170.45 150 170.2 150 170.15 150.85 170.1 151.8 169.6 163.05 172.95 177.35 176.5 192.75 185 203.7 188.15 207.7 190.65 212.3 190.9462890625 212.619921875 191.2 212.95 191.63203125 213.4306640625 192 213.95
L 192 213.95
Q 193.0375 214.6021484375 195.7 218.05 196.3306640625 218.698828125 196.95 219.35 198.0806640625 220.516796875 199.2 221.7 219.4 242.9 239.9 263.9 245.45 269.55 250.2 276.1 250.45 276.25 250.75 276.45 251.0267578125 277.0685546875 251.35 277.6 252.0720703125 278.7732421875 253.05 279.65 253.28828125 279.86171875 253.5 280.1 254.16171875 280.7146484375 254.75 281.45 254.85 282 254.95 282.55 274.6 306 289.9 333.95 299.75 352 305.6 371.25 306.15 373.15 306.35 374.6 306.65 376.65 308.25 377.05 308.5 377.05 308.75 377.05 308.75 376.8 308.6 376.65 307.4 374.9 308.25 372.05 301.05 350.7 290.8 332.3 274.75 303.5 254.75 278.55 254.75 278.50625 254.75 278.45 254.767578125 278.273828125 254.85 278.15
L 252.75 275.55
Q 252.523046875 275.2841796875 252.3 275 231.7494140625 251.0076171875 209.1 229.1 206.2 226.3 203.15 223.7 201.244921875 222.05625 198.45 219.15 195.669921875 216.284765625 194.1 213.2 192.8568359375 210.73671875 191.7 208.9 191.45546875 208.4861328125 191.2 208.1
L 189.2 205.55
Q 189.0638671875 205.390234375 188.9 205.2 173.934765625 187.4076171875 172.25 160.5 172.2 160.25 172.2 160 172.65 155.85 173.1 151.95 173.35 149.8 173.6 147.7 173.65 147.35 173.7 147 173.7 146.8 173.7 146.55
L 173.7 146.5
Q 173.8 146.65 173.95 146.8 173.95 146.85 174.05 146.95
L 173.75 145.45 174.25 142.95
Q 174.4 142.85 174.5 142.75 174.65 142.65 174.75 142.55 174.8 142.45 174.85 142.4
L 174.85 142.35
Q 174.8 142.3 174.8 142.25 174.8 142.15 174.85 142.1 180.25 126.5 188.8 114.1 190.5 111.6 192.35 109.25 193.55 107.65 194.8 106.15 213.05 84.25 241.15 72.35 244.6 70.9 248.25 69.55 252.9 67.85 253.25 64 Z"/>
</g>

<g id="Layer3_0_FILL">
<path fill="#000000" fill-opacity="0.8274509803921568" stroke="none" d="
M 278.3 401.8
Q 278.85 397.35 277.4 400.35 277.4 400.85 277.5 401.35 277.55 401.5 277.55 401.65 277.9 401.95 278.25 402.25 278.25 402.05 278.3 401.8 Z"/>

<path fill="#000000" fill-opacity="0.796078431372549" stroke="none" d="
M 277.05 395.65
Q 279.6 396.25 276.9 393.35 276.9 394.1 276.9 394.85 276.9 395.6 277.05 395.65 Z"/>

<path fill="#000000" fill-opacity="0.9254901960784314" stroke="none" d="
M 214.4 96.3
Q 213 95.85 211.3 97.3 202.7 104.65 196.2 114.4 188.95 125.25 186.5 139.9 185.7 144.75 184.1 148.35
L 183.95 148.15
Q 183.9 148.25 183.85 148.35 183.85 148.1 183.75 148 182.85 147.05 182 146.05 182 146.3 182 146.55
L 181.95 146.5
Q 181.95 147.15 181.95 147.85 181.9 148.5 181.9 149.2
L 181.9 149.25
Q 181.9 149.45 181.9 149.65 182.95 150.9 184 152.2 184.1 152.3 184.3 152.3 184.3 152.65 184.25 153
L 184.3 153.05
Q 184.25 153.25 184.25 153.45 182.35 172.7 187.05 190.45 187.2 190.6 187.4 190.75 187.55 191.9 187.8 193.1 188 193.85 188.25 194.65 188.4 195.1 188.55 195.6 188.35 195.25 188.15 194.95 188.2 195.25 188.25 195.55 188.6 196.7 189 197.85 189 197.896875 189.05 197.95 188.84765625 197.746875 188.7 197.55 188.75 197.9 188.85 198.25 188.9 198.5 188.95 198.75 189.45 200.7 190.4 202.25 190.7 203.9 191.05 205.6 191.05 205.65 191.1 205.7
L 191.1 205.75
Q 191.1 205.8 191.15 205.8 191.15 205.85 191.2 205.9 194.35 211.9 196.4 218.95 197.05 221.15 198.85 221.85 205.8 241.4 217.75 258.4 217.9 258.6 217.9 258.85 225.7 275 235.25 291.9 235.3 291.95 235.35 292.05 235.4 292.15 235.4 292.35 236.3 293.6 237 294.9 237.25 295.4 237.55 295.9 237.9 296.55 238.4 297.25 238.45 297.55 238.5 297.85 242 304.5 245.15 311.35
L 244.9 311.35
Q 261.15 340.05 271.6 374.1 274.7 384.2 276.9 392.35 278 388.6 276.45 383.2 272.45 369.3 267.55 356.5 267.4 356.1 266.9 355.85 266.4 352.05 264.7 349.45 264.65 349.35 264.4 349.35 265 346.9 262.75 344.95 262.65 344.85 262.4 344.85 262.85 341 260.25 338.45 260.15 338.35 259.9 338.35 259.2 333.75 256.75 330.95 256.65 330.85 256.4 330.85 254.2 322.5 249.7 316.45 249.65 316.35 249.4 316.35 245.15 305.6 239 294.3 238.95 294.25 238.95 294.15 238.9 294 238.9 293.85 239 293.65 239.15 293.5
L 238.4 293.25 237.45 290.4
Q 237.3 290.55 237.2 290.7 237.15 290.85 236.9 290.85 236.9 290.8 236.85 290.8 235.2 288.1 234.9 286.35 234.9 286.1 234.9 285.85 228.25 274.95 221.7 263.95 221.65 263.85 221.4 263.85 215.95 251.25 208.6 238.2 202.35 227.2 197.45 214.95 197.25 214.55 197.15 214.2 196.6 212.75 196.05 211.35 196.45 211.75 196.8 212.15 196.6 211.75 196.4 211.4
L 196.45 211.45
Q 194.25 207.4 193.3 202.4 193.05 201.8 192.85 201.25 191.9 198.6 191.35 195.8 191.1 195.8 191.1 195.75 184.65 175.4 186.35 155.3 186.3984375 155.3 186.4 155.35
L 186.4 151.25
Q 186.45 151.2 186.55 151.1 186.6 150.9 186.7 150.75 188.45 145.65 188.35 138.8 190.75 132.7 193.45 126.85 196.2 120.9 200 115.75 207.1 106.05 214.4 96.3 Z"/>
</g>

<g id="Layer1_0_FILL">
<path fill="#000000" fill-opacity="0.9254901960784314" stroke="none" d="
M 274.9 249.05
Q 274.9 248.8 274.85 248.55 274.4 246 272.9 247.05 270.85 256.05 264.5 263.1 259.15 269.05 254.55 273.85 254.45 273.95 254.35 274.1 254.3 273.95 254.25 273.85 253.5 274.6 252.75 275.4 252.5 275.05 252.25 274.75 252.2 274.9 252.15 275.1 252.1 275.2 252.1 275.4 251.75 276.45 251.3 277.45
L 251.35 277.5
Q 251.3 277.55 251.25 277.65
L 251.3 277.7
Q 251.1 278 250.9 278.3 249.65 280.15 248.35 282 242.95 289.85 237.45 297.6 237.4 297.65 237.35 297.75
L 237.3 297.6
Q 237.15 297.75 237.05 297.9 237 298 236.9 298.05 236.85 298 236.8 297.9 236.4 298.2 236 298.55
L 235.3 299.15
Q 235.25 299.2 235.2 299.25 235.25 299.35 235.25 299.55 235.3 299.6 235.35 299.65 219.3 322.75 211.6 354.1 209 364.5 209.75 372.6 213.3 412.85 238.15 433.85 243.95 438.75 251.05 442.25 251.15 442.3 251.4 442.05 238.85 432.05 229.05 419.45 213.95 400.05 212.8 369.55 212.5 362.3 214.9 352.65 217.9 340.35 223.15 329.4 228.3 318.7 232.4 309.05 235.35 306.75 237.1 303.15 237.15 303.05 237.4 303.05
L 237.4 303.1 237.9 301.95
Q 238.1 301.8 238.3 301.7
L 238.4 301.65
Q 238.65 301.45 238.95 301.3 238.9 301.15 238.9 301.05 239 300.85 239.15 300.7 245.7 290.4 253.15 281.1
L 253.4 280.1 253.4 279.95
Q 253.95 279.2 254.6 278.5
L 254.6 278.45
Q 254.95 278.1 255.35 277.7 255.5 277.45 255.7 277.25 262.4 268.5 270.4 261.05 270.4 260.8 270.5 260.6 273.35 255.5 274.9 249.05 Z"/>
</g>
</defs>

<mask id="Mask_Mask_1">
<g transform="matrix( 1, 0, 0, 1, 0,0) ">
<use xlink:href="#Mask_7_MASK_0_FILL"/>
</g>
</mask>

<g mask="url(#Mask_Mask_1)">
<g transform="matrix( 1, 0, 0, 1, 0,0) ">
<use xlink:href="#Layer7_0_FILL"/>
</g>
</g>

<mask id="Mask_Mask_2">
<g transform="matrix( 1, 0, 0, 1, 0,0) ">
<use xlink:href="#Mask_5_MASK_0_FILL"/>
</g>
</mask>

<g mask="url(#Mask_Mask_2)">
<g transform="matrix( 1, 0, 0, 1, 0,0) ">
<use xlink:href="#Layer5_0_FILL"/>
</g>
</g>

<g transform="matrix( 1, 0, 0, 1, 0,0) ">
<use xlink:href="#Layer3_0_FILL"/>
</g>

<g transform="matrix( 1, 0, 0, 1, 0,0) ">
<use xlink:href="#Layer1_0_FILL"/>
</g>
</svg>
