
<svg xmlns="http://www.w3.org/2000/svg" version="1.1" xmlns:xlink="http://www.w3.org/1999/xlink" preserveAspectRatio="none" x="0px" y="0px" width="500px" height="500px" viewBox="0 0 500 500">
<defs>
<g id="Mask_7_MASK_0_FILL">
<path fill="#FFFFFF" stroke="none" d="
M 350 364
L 350 51.05 156 51.05 156 364 350 364 Z"/>
</g>

<g id="Layer7_0_FILL">
<path fill="#000000" fill-opacity="0.8862745098039215" stroke="none" d="
M 334.65 345.4
Q 336.25 346.85 334.05 343.6 334.05 344.85 334.65 345.4 Z"/>

<path fill="#000000" fill-opacity="0.8313725490196079" stroke="none" d="
M 333.05 336.6
Q 333.7 337.4 334 339
L 334.05 339.35
Q 334.9 337.05 333.05 336.6 Z"/>

<path fill="#000000" fill-opacity="0.9254901960784314" stroke="none" d="
M 329.05 312.6
Q 329.35 311.55 329.25 311.3 325.1 300.25 319.55 291.1 305.5 263.65 283.05 242.05 260.1 220 234 200.95 221.81953125 192.037890625 210.6 182.1 197.9693359375 170.99609375 186.55 158.6 186.525 158.5771484375 186.5 158.55 186.5 158.3 186.6 158.1 186.7 157.8 186.85 157.5 186.5 157.25 186.15 157
L 184.9 156.4 184.1 155.35
Q 184.05 155.45 184 155.55 184 155.3 183.9 155.2 182.9845703125 154.25078125 182.1 153.25 178.0146484375 148.4470703125 175.15 142.35 175.136328125 142.3490234375 175.1 142.3 175.06328125 142.1865234375 175 142.05 175.05 141.85 175.15 141.65 173.95 139.25 173.7 136.65 173.6 136.85 173.5 137.05
L 173.25 137.3
Q 173.24140625 137.260546875 173.2 137.2 173.1865234375 137.035546875 173.15 136.85 173.0322265625 136.2587890625 172.9 135.65 172.0939453125 130.994140625 172.35 126.6 172.55 121.9 174 117.5 174.25 116.65 174.55 115.85 175.7 112.85 177.4 110 177.5 109.8 177.65 109.6 177.9 109.15 178.2 108.7 180.05 105.7 182.05 102.9 182.85 101.75 183.7 100.7 187.4 95.85 191.6 91.55 192.3 90.8 193.05 90.1 196.25 86.9 199.8 84.05 200.85 83.2 201.95 82.35 204.95 80.05 208.2 77.95 208.65 77.65 209.1 77.35 212.65 75.1 216.4 73.1 216.75 72.9 217.15 72.7 219.8 71.3 222.6 70.05 224.3 69.3 226.05 68.55
L 226.05 68.8
Q 226.15 68.8 226.25 68.8 230.45 68.8 229.55 65.55 227.9 65.3 226.25 65.45 222.35 65.75 218.3 68.15 216.65 69.1 215.05 70.05 213.4 71 211.8 71.9 210.75 72.5 209.7 73.1 208.9 73.55 208.15 73.95 205.25 75.55 202.55 77.35 202.25 77.55 201.95 77.75 201.8 77.85 201.65 77.95 197.4 80.8 193.7 84.05 192.6 84.95 191.6 85.95 189.45 87.95 187.5 90.1 184.05 93.85 181.1 98.05 179.45 100.4 178 102.9 177.25 104.1 176.6 105.3 175.55 107.25 174.55 109.3 174.45 109.45 174.4 109.6 172.6 113.4 171.1 117.5 169.95 120.7 169 124.05 169 125.35 169.05 126.6 169.348046875 133.3712890625 171.45 139.4 171.8275390625 140.4697265625 172.25 141.5
L 172.25 141.5
Q 172.319921875 141.55 172.5 141.55 172.45 141.65 172.4 141.8
L 172.75 142.4
Q 173.05 144.3 173.55 146 173.7 146.65 173.9 147.25 173.95 146.9 174 146.55 174 146.3 174 146.05 174.0814453125 146.1578125 174.15 146.25 174.19140625 146.2966796875 174.2 146.3 178.0482421875 151.40078125 182.05 156.35 183.094921875 157.66171875 184.15 158.95 184.25 159.05 184.5 159.05 184.45 159.65 184.4 160.2
L 185.5 160.65 186.75 161.9 187.2 162.55
Q 190 164.65 192.35 167.25 200.653125 176.4474609375 209.85 184.75 224.3365234375 197.78359375 241.05 208.6 241.15 210.2 242.25 211 268.05 230.1 290.1 253 312.2 275.9 326.05 307.1 326.05 307.35 326.1 307.55 326.5 309.3 326.05 310.1 326.3 310.1 326.3 310.15 328.85 319.1 332.05 327.1 332.05 326.85 332.05 326.6 332.15 323.55 330.55 320.6
L 330.8 320.6
Q 329.4 317.25 329.05 312.6 Z"/>
</g>

<g id="Mask_5_MASK_0_FILL">
<path fill="#FFFFFF" stroke="none" d="
M 350 364
L 350 51.05 156 51.05 156 364 350 364 Z"/>
</g>

<g id="Layer5_0_FILL">
<path fill="#000000" fill-opacity="0.8196078431372549" stroke="none" d="
M 308.85 377.5
Q 308.75 377.3 308.75 377.05 308.5 377.05 308.25 377.05 308.25 377.3 308.15 377.5 308 377.8 307.75 378.05 308.6 381.7 309.45 385.5 309.5 385.55 309.75 385.55 310.7 381.9 308.85 377.5 Z"/>

<path fill="#000000" fill-opacity="0.9254901960784314" stroke="none" d="
M 191.1 207.9
Q 188.9359375 204.092578125 191.2 208.1 191.1673828125 207.9974609375 191.1 207.9
M 253.25 64
Q 253 64 252.75 64.05 247.25 65.2 242.3 68.2 240.2 69.45 238.25 71 227.4 74.4 219 80.15 210.15 86.15 204.75 93 204.5 93 204.3 93.15 195.9 99.05 189.65 108.85 188.4 110.85 187.2 113 186.95 113 186.9 113.15 185.55 114.85 184.3 116.65 180.05 122.7 176.7 129.6 176.15 130.7 175.65 131.85 174.45 134.35 173.45 137 173.4 136.85 173.4 136.65 173.3 136.85 173.2 137.05
L 172.95 137.3 172.95 137.25
Q 172.9 137.05 172.85 136.85 173 139.2 172.2 141.95
L 172.2 142
Q 172.15 142.1 172.1 142.25 171.75 142.95 171.6 143.65 171.2 145.35 171.65 147.05 171.7 147.25 171.7 147.5 171.1 148.65 170.5 149.95 170.45 150 170.2 150 170.15 150.85 170.1 151.8 169.6 163.05 172.95 177.35 176.5 192.75 185 203.7 188.15 207.7 190.65 212.3 190.9462890625 212.619921875 191.2 212.95 191.63203125 213.4306640625 192 213.95
L 192 213.95
Q 193.0375 214.6021484375 195.7 218.05 196.3306640625 218.698828125 196.95 219.35 198.0806640625 220.516796875 199.2 221.7 219.4 242.9 239.9 263.9 245.45 269.55 250.2 276.1 250.45 276.25 250.75 276.45 251.0267578125 277.0685546875 251.35 277.6 252.0720703125 278.7732421875 253.05 279.65 253.28828125 279.86171875 253.5 280.1 254.16171875 280.7146484375 254.75 281.45 254.85 282 254.95 282.55 274.6 306 289.9 333.95 299.75 352 305.6 371.25 306.15 373.15 306.35 374.6 306.65 376.65 308.25 377.05 308.5 377.05 308.75 377.05 308.75 376.8 308.6 376.65 307.4 374.9 308.25 372.05 301.05 350.7 290.8 332.3 274.75 303.5 254.75 278.55 254.75 278.50625 254.75 278.45 254.767578125 278.273828125 254.85 278.15
L 252.75 275.55
Q 252.523046875 275.2841796875 252.3 275 231.7494140625 251.0076171875 209.1 229.1 206.2 226.3 203.15 223.7 201.244921875 222.05625 198.45 219.15 195.669921875 216.284765625 194.1 213.2 192.8568359375 210.73671875 191.7 208.9 191.45546875 208.4861328125 191.2 208.1
L 189.2 205.55
Q 189.0638671875 205.390234375 188.9 205.2 173.934765625 187.4076171875 172.25 160.5 172.2 160.25 172.2 160 172.65 155.85 173.1 151.95 173.35 149.8 173.6 147.7 173.65 147.35 173.7 147 173.7 146.8 173.7 146.55
L 173.7 146.5
Q 173.8 146.65 173.95 146.8 173.95 146.85 174.05 146.95
L 173.75 145.45 174.25 142.95
Q 174.4 142.85 174.5 142.75 174.65 142.65 174.75 142.55 174.8 142.45 174.85 142.4
L 174.85 142.35
Q 174.8 142.3 174.8 142.25 174.8 142.15 174.85 142.1 180.25 126.5 188.8 114.1 190.5 111.6 192.35 109.25 193.55 107.65 194.8 106.15 213.05 84.25 241.15 72.35 244.6 70.9 248.25 69.55 252.9 67.85 253.25 64 Z"/>
</g>

<g id="Mask_3_MASK_0_FILL">
<path fill="#FFFFFF" stroke="none" d="
M 350 364
L 350 51.05 156 51.05 156 364 350 364 Z"/>
</g>

<g id="Layer3_0_FILL">
<path fill="#000000" fill-opacity="0.8274509803921568" stroke="none" d="
M 278.3 409
Q 278.85 404.55 277.4 407.55 277.4 408.05 277.5 408.55 277.55 408.7 277.55 408.85 277.9 409.15 278.25 409.45 278.25 409.25 278.3 409 Z"/>

<path fill="#000000" fill-opacity="0.796078431372549" stroke="none" d="
M 277.05 402.85
Q 279.6 403.45 276.9 400.55 276.9 401.3 276.9 402.05 276.9 402.8 277.05 402.85 Z"/>

<path fill="#000000" fill-opacity="0.9254901960784314" stroke="none" d="
M 214.4 103.5
Q 213 103.05 211.3 104.5 202.7 111.85 196.2 121.6 188.95 132.45 186.5 147.1 185.682421875 151.9568359375 184.05 155.5
L 183.95 155.35
Q 183.9 155.45 183.85 155.55 183.85 155.3 183.75 155.2 182.85 154.25 182 153.25 181.984765625 153.487109375 181.95 153.7
L 181.95 153.7
Q 181.9251953125 154.370703125 181.9 155.05 181.9001953125 155.7216796875 181.9 156.4
L 181.9 156.45
Q 181.9 156.65 181.9 156.85 182.95 158.1 184 159.4 184.0921875 159.4921875 184.3 159.5 184.2810546875 159.8591796875 184.25 160.2
L 184.3 160.2
Q 184.2693359375 160.43671875 184.25 160.65 182.35 179.9 187.05 197.65 187.2 197.8 187.4 197.95 187.55 199.1 187.8 200.3 188 201.05 188.25 201.85 188.3958984375 202.3169921875 188.55 202.75 188.347265625 202.4693359375 188.15 202.15 188.2 202.45 188.25 202.75 188.6 203.9 189 205.05 189.0107421875 205.1041015625 189 205.15 188.853125 204.9541015625 188.7 204.75 188.75546875 205.0830078125 188.8 205.4 188.883203125 205.6830078125 188.95 205.95 189.45 207.9 190.4 209.45 190.7 211.1 191.05 212.8 191.0673828125 212.851953125 191.1 212.9
L 191.1 212.95
Q 191.121875 212.9765625 191.15 213 191.16796875 213.0521484375 191.2 213.1 194.35 219.1 196.4 226.15 197.05 228.35 198.85 229.05 205.8 248.6 217.75 265.6 217.9 265.8 217.9 266.05 225.7 282.2 235.25 299.1 235.2916015625 299.15546875 235.3 299.2 235.4 299.3693359375 235.4 299.55 236.3 300.8 237 302.1 237.2416015625 302.583203125 237.55 303.1 237.9232421875 303.7490234375 238.4 304.45 238.45 304.75 238.5 305.05 242 311.7 245.15 318.55
L 244.9 318.55
Q 261.15 347.25 271.6 381.3 274.7 391.4 276.9 399.55 278 395.8 276.45 390.4 272.45 376.5 267.55 363.7 267.4 363.3 266.9 363.05 266.4 359.25 264.7 356.65 264.65 356.55 264.4 356.55 265 354.1 262.75 352.15 262.65 352.05 262.4 352.05 262.85 348.2 260.25 345.65 260.15 345.55 259.9 345.55 259.2 340.95 256.75 338.15 256.65 338.05 256.4 338.05 254.2 329.7 249.7 323.65 249.65 323.55 249.4 323.55 245.15 312.8 239 301.5 238.965234375 301.43046875 238.95 301.35 238.9 301.2130859375 238.9 301.05 239 300.85 239.15 300.7
L 238.4 300.45 237.45 297.6
Q 237.3 297.75 237.2 297.9 237.15 298.05 236.9 298.05 236.8796875 298.0171875 236.85 297.95 235.196484375 295.2791015625 234.9 293.55 234.9 293.3 234.9 293.05 228.25 282.15 221.7 271.15 221.65 271.05 221.4 271.05 215.95 258.45 208.6 245.4 202.35 234.4 197.45 222.15 197.25 221.75 197.15 221.4 196.599609375 219.960546875 196.05 218.55 196.433984375 218.953515625 196.8 219.35 196.583203125 218.96796875 196.35 218.55 196.413671875 218.613671875 196.45 218.65 194.25 214.6 193.3 209.6 193.05 209 192.85 208.45 191.9 205.8 191.35 203 191.1 203 191.1 202.95 184.65 182.6 186.35 162.5 186.3984375 162.5 186.4 162.55
L 186.4 158.45
Q 186.45 158.4 186.55 158.3 186.6 158.1 186.7 157.95 188.45 152.85 188.35 146 190.75 139.9 193.45 134.05 196.2 128.1 200 122.95 207.1 113.25 214.4 103.5 Z"/>
</g>

<g id="Mask_1_MASK_0_FILL">
<path fill="#FFFFFF" stroke="none" d="
M 350 364
L 350 51.05 156 51.05 156 364 350 364 Z"/>
</g>

<g id="Layer1_0_FILL">
<path fill="#000000" fill-opacity="0.9254901960784314" stroke="none" d="
M 274.9 249.05
Q 274.9 248.8 274.85 248.55 274.4 246 272.9 247.05 270.85 256.05 264.5 263.1 259.15 269.05 254.55 273.85 254.45 273.95 254.35 274.1 254.3 273.95 254.25 273.85 253.5 274.6 252.75 275.4 252.5 275.05 252.25 274.75 252.2 274.9 252.15 275.1 252.1 275.2 252.1 275.4 251.75 276.45 251.3 277.45
L 251.35 277.5
Q 251.3 277.55 251.25 277.65
L 251.3 277.7
Q 251.1 278 250.9 278.3 249.65 280.15 248.35 282 242.95 289.85 237.45 297.6 237.4 297.65 237.35 297.75
L 237.3 297.6
Q 237.15 297.75 237.05 297.9 237 298 236.9 298.05 236.85 298 236.8 297.9 236.4 298.2 236 298.55
L 235.3 299.15
Q 235.25 299.2 235.2 299.25 235.25 299.35 235.25 299.55 235.3 299.6 235.35 299.65 219.3 322.75 211.6 354.1 209 364.5 209.75 372.6 213.3 412.85 238.15 433.85 243.95 438.75 251.05 442.25 251.15 442.3 251.4 442.05 238.85 432.05 229.05 419.45 213.95 400.05 212.8 369.55 212.5 362.3 214.9 352.65 217.9 340.35 223.15 329.4 228.3 318.7 232.4 309.05 235.35 306.75 237.1 303.15 237.15 303.05 237.4 303.05
L 237.4 303.1 237.9 301.95
Q 238.1 301.8 238.3 301.7
L 238.4 301.65
Q 238.65 301.45 238.95 301.3 238.9 301.15 238.9 301.05 239 300.85 239.15 300.7 245.7 290.4 253.15 281.1
L 253.4 280.1 253.4 279.95
Q 253.95 279.2 254.6 278.5
L 254.6 278.45
Q 254.95 278.1 255.35 277.7 255.5 277.45 255.7 277.25 262.4 268.5 270.4 261.05 270.4 260.8 270.5 260.6 273.35 255.5 274.9 249.05 Z"/>
</g>
</defs>

<mask id="Mask_Mask_1">
<g transform="matrix( 1, 0, 0, 1, 0,0) ">
<use xlink:href="#Mask_7_MASK_0_FILL"/>
</g>
</mask>

<g mask="url(#Mask_Mask_1)">
<g transform="matrix( 1, 0, 0, 1, 0,0) ">
<use xlink:href="#Layer7_0_FILL"/>
</g>
</g>

<mask id="Mask_Mask_2">
<g transform="matrix( 1, 0, 0, 1, 0,0) ">
<use xlink:href="#Mask_5_MASK_0_FILL"/>
</g>
</mask>

<g mask="url(#Mask_Mask_2)">
<g transform="matrix( 1, 0, 0, 1, 0,0) ">
<use xlink:href="#Layer5_0_FILL"/>
</g>
</g>

<mask id="Mask_Mask_3">
<g transform="matrix( 1, 0, 0, 1, 0,0) ">
<use xlink:href="#Mask_3_MASK_0_FILL"/>
</g>
</mask>

<g mask="url(#Mask_Mask_3)">
<g transform="matrix( 1, 0, 0, 1, 0,0) ">
<use xlink:href="#Layer3_0_FILL"/>
</g>
</g>

<mask id="Mask_Mask_4">
<g transform="matrix( 1, 0, 0, 0.68096923828125, 0,201.15) ">
<use xlink:href="#Mask_1_MASK_0_FILL"/>
</g>
</mask>

<g mask="url(#Mask_Mask_4)">
<g transform="matrix( 1, 0, 0, 1, 0,0) ">
<use xlink:href="#Layer1_0_FILL"/>
</g>
</g>
</svg>
