
<svg xmlns="http://www.w3.org/2000/svg" version="1.1" xmlns:xlink="http://www.w3.org/1999/xlink" preserveAspectRatio="none" x="0px" y="0px" width="500px" height="500px" viewBox="0 0 500 500">
<defs>
<g id="Mask_7_MASK_0_FILL">
<path fill="#FFFFFF" stroke="none" d="
M 350 364
L 350 51.05 156 51.05 156 364 350 364 Z"/>
</g>

<g id="Layer7_0_FILL">
<path fill="#000000" fill-opacity="0.6980392156862745" stroke="none" d="
M 334.6 357.7
Q 335.6 357.35 334.15 356.85 333.85 357.95 334.6 357.7 Z"/>

<path fill="#000000" fill-opacity="0.5882352941176471" stroke="none" d="
M 334.3 355.2
Q 334.4 355.35 334.65 355.35 334.65 355.1 334.65 354.85 334.4 354.85 334.15 354.85 334.15 355.1 334.3 355.2 Z"/>

<path fill="#000000" fill-opacity="0.792156862745098" stroke="none" d="
M 334.65 355.35
L 334.65 355.6
Q 336.6 354.85 334.65 353.85 334.65 354.1 334.65 354.35 334.65 354.6 334.65 354.85 334.65 355.1 334.65 355.35
M 332.15 328.2
L 332.15 328.7
Q 334.25 328.35 332.15 327.2 332.15 327.7 332.15 328.2 Z"/>

<path fill="#000000" fill-opacity="0.44313725490196076" stroke="none" d="
M 334.65 347.3
Q 334.65 347.05 334.65 346.8 334.4 346.8 334.15 346.8 334.15 347.05 334.3 347.2 334.4 347.3 334.65 347.3 Z"/>

<path fill="#000000" fill-opacity="0.9019607843137255" stroke="none" d="
M 334.65 346.8
Q 334.65 347.05 334.65 347.3
L 334.65 347.55
Q 335.9 347.05 334.65 346.3 334.65 346.55 334.65 346.8 Z"/>

<path fill="#000000" fill-opacity="0.8862745098039215" stroke="none" d="
M 334.7 345.25
L 334.9 345.55
Q 335.85 342.9 334.15 342.25 333.9 344.25 334.7 345.25 Z"/>

<path fill="#000000" fill-opacity="0.8313725490196079" stroke="none" d="
M 333.15 335.25
Q 333.65 335.75 333.65 336.75 333.65 337.25 333.9 337.45 335.5 338.85 334.6 337.3 334.4 337 334.4 336.75 334.55 334.15 333.15 335.25 Z"/>

<path fill="#000000" stroke="none" d="
M 333.65 332.2
Q 333.4 332.2 333.15 332.2 333.4 332.45 333.65 332.45
L 333.65 332.2 Z"/>

<path fill="#000000" fill-opacity="0.5803921568627451" stroke="none" d="
M 333.15 332.2
Q 333.4 332.2 333.65 332.2 333.65 331.95 333.55 331.85 333.4 331.7 333.15 331.7 333.15 331.95 333.15 332.2 Z"/>

<path fill="#000000" fill-opacity="0.43529411764705883" stroke="none" d="
M 322.75 299.4
Q 322.85 299.55 323.1 299.55 323.1 299.3 323 299.15 322.85 299.05 322.6 299.05 322.6 299.3 322.75 299.4
M 309.4 272
Q 309.25 271.85 309 271.85 309 272.1 309.15 272.25 309.25 272.35 309.55 272.35 309.55 272.1 309.4 272
M 305.4 269
Q 305.25 268.85 305 268.85 305 269.1 305.15 269.25 305.25 269.35 305.5 269.35 305.5 269.1 305.4 269
M 260.1 220.2
Q 260 220.1 259.75 220.1 259.75 220.35 259.85 220.45 260 220.6 260.25 220.6 260.25 220.35 260.1 220.2 Z"/>

<path fill="#000000" fill-opacity="0.4196078431372549" stroke="none" d="
M 317.7 288.85
Q 317.8 288.95 318.05 288.95 318.05 288.7 317.95 288.6 317.8 288.45 317.55 288.45 317.55 288.7 317.7 288.85
M 300.1 263.2
Q 300.2 263.3 300.45 263.3 300.45 263.05 300.35 262.95 300.2 262.8 299.95 262.8 299.95 263.05 300.1 263.2
M 269.3 228.1
Q 269.3 227.85 269.15 227.75 269.05 227.6 268.8 227.6 268.8 227.85 268.9 228 269.05 228.1 269.3 228.1
M 224.55 192.4
Q 224.55 192.15 224.4 192.05 224.3 191.9 224.05 191.9 224.05 192.15 224.15 192.3 224.3 192.4 224.55 192.4
M 208.95 182.35
Q 208.95 182.1 208.85 182 208.7 181.85 208.45 181.85 208.45 182.1 208.55 182.25 208.7 182.35 208.95 182.35
M 211.45 181.85
Q 211.45 181.6 211.35 181.5 211.2 181.35 210.95 181.35 210.95 181.6 211.1 181.75 211.2 181.85 211.45 181.85 Z"/>

<path fill="#000000" fill-opacity="0.41568627450980394" stroke="none" d="
M 311.05 274.9
L 311.3 274.9
Q 311.3 274.65 311.05 274.4 311.05 274.65 311.05 274.9
M 310.9 273.5
Q 310.8 273.4 310.55 273.4 310.55 273.65 310.65 273.75 310.8 273.9 311.05 273.9 311.05 273.65 310.9 273.5
M 277.45 239.05
Q 277.6 239.2 277.85 239.2 277.85 238.95 277.7 238.8 277.6 238.7 277.35 238.7 277.35 238.95 277.45 239.05
M 249.7 214.55
Q 249.7 214.3 249.55 214.15 249.45 214.05 249.2 214.05 249.2 214.3 249.3 214.4 249.45 214.55 249.7 214.55
M 284.5 246.1
Q 284.65 246.25 284.9 246.25 284.9 245.95 284.75 245.85 284.65 245.7 284.4 245.7 284.4 245.95 284.5 246.1
M 227.55 194.95
Q 227.55 195.2 227.7 195.3 227.8 195.45 228.05 195.45 228.05 195.2 227.95 195.05 227.8 194.95 227.55 194.95
M 225.05 192.9
Q 225.05 192.65 224.9 192.55 224.8 192.4 224.55 192.4 224.55 192.65 224.65 192.8 224.8 192.9 225.05 192.9
M 172.75 116.5
Q 173 116.5 173.05 116.4 173.6 115.45 172.75 115.5 172.75 115.75 172.75 116 172.75 116.25 172.75 116.5
M 216 70.2
Q 216 70.45 216 70.7 216.25 70.7 216.35 70.6 216.5 70.45 216.5 70.2 216.25 70.2 216 70.2
M 324.6 302.05
Q 324.6 301.8 324.5 301.65 324.35 301.55 324.1 301.55 324.1 301.8 324.25 301.9 324.35 302.05 324.6 302.05 Z"/>

<path fill="#000000" fill-opacity="0.4235294117647059" stroke="none" d="
M 316.95 283.05
Q 316.8 282.95 316.55 282.95 316.55 283.2 316.7 283.3 316.8 283.45 317.05 283.45 317.05 283.2 316.95 283.05
M 248.05 210.15
Q 247.9 210 247.65 210 247.65 210.25 247.8 210.4 247.9 210.5 248.2 210.5 248.2 210.25 248.05 210.15
M 208.05 181.75
Q 208.2 181.85 208.45 181.85 208.45 181.6 208.3 181.5 208.2 181.35 207.95 181.35 207.95 181.6 208.05 181.75
M 172.75 134.75
L 172.75 134.6
Q 172.5 134.6 172.25 134.6 172.5 134.85 172.75 134.85
L 172.75 134.75
M 215.35 67.1
Q 215.5 66.95 215.5 66.7 215.25 66.7 215 66.7 215 66.95 215 67.2 215.25 67.2 215.35 67.1 Z"/>

<path fill="#000000" fill-opacity="0.4392156862745098" stroke="none" d="
M 288.05 249.6
Q 288.15 249.75 288.4 249.75 288.4 249.5 288.3 249.35 288.15 249.25 287.9 249.25 287.9 249.5 288.05 249.6
M 194.75 165.4
Q 194.6 165.25 194.35 165.25 194.35 165.5 194.5 165.65 194.6 165.75 194.85 165.75 194.85 165.5 194.75 165.4 Z"/>

<path fill="#000000" fill-opacity="0.396078431372549" stroke="none" d="
M 291.95 250.25
Q 291.95 250 291.8 249.85 291.65 249.75 291.4 249.75 291.4 250 291.55 250.1 291.65 250.25 291.95 250.25
M 247.3 209.9
Q 247.4 210 247.65 210 247.65 209.75 247.55 209.65 247.4 209.5 247.15 209.5 247.15 209.75 247.3 209.9
M 197 168.15
Q 197.15 168.3 197.4 168.3 197.4 168.05 197.25 167.9 197.15 167.8 196.9 167.8 196.9 168.05 197 168.15
M 171.45 128.45
Q 171.5 128.55 171.75 128.55 171.75 128.3 171.65 128.1 171.5 127.8 171.25 127.55 171.25 128.05 171.45 128.45
M 188.2 86.7
Q 188.35 86.55 188.35 86.3 188.1 86.3 187.85 86.3 187.85 86.55 187.85 86.8 188.1 86.8 188.2 86.7
M 326.1 307.05
Q 326.1 306.8 326.1 306.55 325.85 306.55 325.6 306.55 325.6 306.8 325.75 306.95 325.85 307.05 326.1 307.05 Z"/>

<path fill="#000000" fill-opacity="0.43137254901960786" stroke="none" d="
M 305.5 269.85
Q 305.5 270.1 305.65 270.25 305.75 270.35 306 270.35 306 270.1 305.9 270 305.75 269.85 305.5 269.85 Z"/>

<path fill="#000000" fill-opacity="0.42745098039215684" stroke="none" d="
M 268.4 230.5
Q 268.55 230.65 268.8 230.65 268.8 230.4 268.65 230.25 268.55 230.15 268.3 230.15 268.3 230.4 268.4 230.5
M 205.45 77.25
Q 205.7 77.25 205.8 77.15 205.95 77 205.95 76.75 205.7 76.75 205.45 76.75 205.45 77 205.45 77.25 Z"/>

<path fill="#000000" fill-opacity="0.4" stroke="none" d="
M 271.45 230.5
Q 271.55 230.65 271.8 230.65 271.8 230.4 271.7 230.25 271.55 230.15 271.3 230.15 271.3 230.4 271.45 230.5
M 258.35 218.95
Q 258.5 219.05 258.75 219.05 258.75 218.8 258.6 218.7 258.5 218.55 258.25 218.55 258.25 218.8 258.35 218.95
M 171.6 140
Q 171.75 139.85 171.75 139.6 171.5 139.6 171.25 139.6 171.25 139.677734375 171.25 139.75 171.3373046875 139.915625 171.4 140.05 171.5416015625 140.0583984375 171.6 140
M 170.35 137
Q 170.5 137.1 170.75 137.1 170.75 136.85 170.6 136.75 170.5 136.6 170.25 136.6 170.25 136.85 170.35 137
M 203.3 74.6
Q 203.4 74.5 203.4 74.25 203.15 74.25 202.9 74.25 202.9 74.5 202.9 74.75 203.15 74.75 203.3 74.6
M 327.5 307.2
Q 327.4 307.05 327.15 307.05 327.15 307.3 327.25 307.45 327.4 307.6 327.65 307.6 327.65 307.3 327.5 307.2 Z"/>

<path fill="#000000" fill-opacity="0.403921568627451" stroke="none" d="
M 264.9 224.5
Q 265 224.6 265.25 224.6 265.25 224.35 265.15 224.25 265 224.1 264.75 224.1 264.75 224.35 264.9 224.5
M 269.3 228.1
Q 269.3 228.35 269.4 228.5 269.55 228.65 269.8 228.65 269.8 228.35 269.65 228.25 269.55 228.1 269.3 228.1
M 223.55 194.45
Q 223.55 194.2 223.4 194.05 223.3 193.95 223.05 193.95 223.05 194.2 223.15 194.3 223.3 194.45 223.55 194.45
M 213.1 186.25
Q 213.25 186.4 213.5 186.4 213.5 186.15 213.35 186 213.25 185.9 212.95 185.9 212.95 186.15 213.1 186.25
M 326.5 302.65
Q 326.35 302.55 326.1 302.55 326.1 302.8 326.25 302.9 326.35 303.05 326.6 303.05 326.6 302.8 326.5 302.65 Z"/>

<path fill="#000000" fill-opacity="0.40784313725490196" stroke="none" d="
M 261.9 225
Q 262 225.1 262.25 225.1 262.25 224.85 262.15 224.75 262 224.6 261.75 224.6 261.75 224.85 261.9 225
M 257.75 221.1
Q 257.75 221.35 257.85 221.45 258 221.6 258.25 221.6 258.25 221.35 258.1 221.2 258 221.1 257.75 221.1
M 186.85 157.2
Q 186.85 156.95 186.7 156.85 186.55 156.7 186.3 156.7 186.3 156.95 186.45 157.1 186.55 157.2 186.85 157.2
M 212.45 68.2
Q 212.45 68.45 212.45 68.7 212.7 68.7 212.85 68.6 212.95 68.45 212.95 68.2 212.7 68.2 212.45 68.2
M 225.05 65.7
Q 225.05 65.95 225.05 66.2 225.3 66.2 225.55 66.2 225.55 65.95 225.4 65.8 225.3 65.7 225.05 65.7 Z"/>

<path fill="#000000" fill-opacity="0.4117647058823529" stroke="none" d="
M 180.4 149.55
Q 180.55 149.65 180.8 149.65 180.8 149.4 180.65 149.3 180.55 149.15 180.3 149.15 180.3 149.4 180.4 149.55
M 171.75 108.95
Q 171.75 109.2 171.75 109.45 172 109.45 172.1 109.3 172.25 109.2 172.25 108.95 172 108.95 171.75 108.95 Z"/>

<path fill="#000000" fill-opacity="0.5607843137254902" stroke="none" d="
M 168.7 126.55
Q 168.7 126.05 168.7 125.55 168.45 125.55 168.2 125.55 168.2 126.3 168.45 126.95 168.45 127.05 168.7 127.05 168.7 126.8 168.7 126.55 Z"/>

<path fill="#000000" fill-opacity="0.5137254901960784" stroke="none" d="
M 168.7 121.5
Q 168.45 121.5 168.2 121.5 168.2 123.25 168.45 125 168.45 125.05 168.7 125.05 168.7 124.8 168.7 124.55 168.7 123 168.7 121.5 Z"/>

<path fill="#000000" fill-opacity="0.5647058823529412" stroke="none" d="
M 168.7 119.5
Q 168.7 119.75 168.7 120 168.7 120.25 168.7 120.5 168.95 120.25 169.1 119.95 169.25 119.75 169.25 119.5 168.95 119.5 168.7 119.5 Z"/>

<path fill="#000000" fill-opacity="0.9254901960784314" stroke="none" d="
M 324.65 300
Q 324.35 299.8 324.3 299.5 324.1 298.5 323.8 297.6 323 295.1 321.8 292.9 321.6 292.5 321.35 292.2 319.65 290.45 319.8 288.95 319.85 288.7 319.65 288.45 318.05 286.25 317.05 283.45 316.8 283.45 316.7 283.3 316.55 283.2 316.55 282.95 315.2 280.05 313.3 277.7 312.15 276.3 311.05 274.9 311.05 274.65 311.05 274.4 311.05 274.15 311.05 273.9 310.8 273.9 310.65 273.75 310.55 273.65 310.55 273.4
L 310.55 273.15
Q 309.5 273.2 309.55 272.35 309.25 272.35 309.15 272.25 309 272.1 309 271.85 308.75 271.6 308.65 271.3 308.5 270.85 308.25 270.55 302.05 262 295.4 253.8 295.2 253.5 294.9 253.45 293.95 253.25 293.75 252.65 293.15 251.05 291.95 250.25 291.65 250.25 291.55 250.1 291.4 250 291.4 249.75 290.05 248.35 288.75 246.9 287.9 245.95 287 245.1 279.6 237.7 271.8 230.65 271.55 230.65 271.45 230.5 271.3 230.4 271.3 230.15 271.3 229.9 271.2 229.85 270.35 229.4 269.8 228.65 269.55 228.65 269.4 228.5 269.3 228.35 269.3 228.1 269.05 228.1 268.9 228 268.8 227.85 268.8 227.6 268.55 227.6 268.45 227.5 267.1 225.8 265.25 224.6 265 224.6 264.9 224.5 264.75 224.35 264.75 224.1 264.5 224.1 264.4 223.95 262.6 222 260.25 220.6 260 220.6 259.85 220.45 259.75 220.35 259.75 220.1 259.5 220.1 259.35 219.95 259 219.55 258.75 219.05 258.5 219.05 258.35 218.95 258.25 218.8 258.25 218.55 258 218.55 257.85 218.45 253.4 214.1 248.2 210.5 247.9 210.5 247.8 210.4 247.65 210.25 247.65 210 247.4 210 247.3 209.9 247.15 209.75 247.15 209.5 246.15 208.75 245.15 208 236.65 201.7 228.05 195.45 227.8 195.45 227.7 195.3 227.55 195.2 227.55 194.95 227.3 194.95 227.25 194.8 226.4 193.6 225.05 192.9 224.8 192.9 224.65 192.8 224.55 192.65 224.55 192.4 224.3 192.4 224.15 192.3 224.05 192.15 224.05 191.9 223.8 191.9 223.65 191.8 217.75 186.65 211.45 181.85 211.2 181.85 211.1 181.75 210.95 181.6 210.95 181.35 210.2 180.1 209.1 179.15 203.15 173.8 197.4 168.3 197.15 168.3 197 168.15 196.9 168.05 196.9 167.8 196.65 167.8 196.55 167.65 195.85 166.55 194.85 165.75 194.6 165.75 194.5 165.65 194.35 165.5 194.35 165.25 194.1 165.25 194 165.15 190.65 160.9 186.85 157.2 186.55 157.2 186.45 157.1 186.3 156.95 186.3 156.7 186.3 156.45 186.2 156.25 186.05 155.95 185.8 155.7 185.9310546875 155.4802734375 186.05 155.25 185.1201171875 153.9162109375 184.2 152.65 181.8794921875 152.0052734375 180.8 149.65 180.55 149.65 180.4 149.55 180.3 149.4 180.3 149.15 179.85 148.1 178.85 147.55 178.55 147.4 178.35 147.1 177.5 145.65 176.55 144.3 174.9 142 174.25 138.6 173.4572265625 137.47890625 173.4 136.45 173.3458984375 135.4181640625 172.75 134.75
L 172.75 134.85
Q 172.5 134.85 172.25 134.6 172.25 134.35 172.2 134.1 171.75 131.8 171.25 129.55 171.5 129.3 171.65 129 171.75 128.8 171.75 128.55 171.5 128.55 171.45 128.45 171.25 128.05 171.25 127.55 171.25 127.3 171.3 127.05 171.7 124.4 171.25 123 172.1 122.35 172 120.5 172 120.25 172 120 172.15 117.9 172.75 116.5 172.75 116.25 172.75 116 172.75 115.75 172.75 115.5 172.75 115.25 172.75 115 173.95 114.15 174.35 112.5 175.1 109.5 176.65 107.35 177.6 106 178 103.95 178.05 103.65 178.25 103.4 184.6 94.9 192.1 87.55 192.85 86.8 193.65 86.1 196.4 83.55 199.6 81.6 202 80.1 203.7 78 203.9 77.75 204.4 77.65 204.95 77.5 205.45 77.25 205.45 77 205.45 76.75 205.7 76.75 205.95 76.75 210.4 73.4 215.55 70.85 215.75 70.7 216 70.7 216 70.45 216 70.2 216.25 70.2 216.5 70.2 220.45 68.15 224.6 66.3 224.8 66.2 225.05 66.2 225.05 65.95 225.05 65.7 225.3 65.7 225.4 65.8 225.55 65.95 225.55 66.2 226.05 65.7 227.05 65.85 228.4 66.05 228.8 65.35 229.05 64.95 229.2 64.55 229.55 63.7 229.3 63.1 228.9 62.1 227.65 61.8 227.05 61.7 226.15 61.95 225.55 62.2 224.95 62.5 220.3 64.75 215.5 66.7 215.5 66.95 215.35 67.1 215.25 67.2 215 67.2
L 214.75 67.2
Q 214.7 68.7 212.95 68.2 212.95 68.45 212.85 68.6 212.7 68.7 212.45 68.7 212.2 68.7 212.05 68.85 207.9 71.7 203.4 74.25 203.4 74.5 203.3 74.6 203.15 74.75 202.9 74.75 197.15 78.8 192 83.4 190.25 84.95 188.35 86.3 188.35 86.55 188.2 86.7 188.1 86.8 187.85 86.8 181.9 92.75 177.35 99.95 176.65 101 175.75 101.9 175.25 102.4 175.05 103 174 105.95 172.25 107.95 172.25 108.2 172.25 108.45 172.25 108.7 172.25 108.95 172.25 109.2 172.1 109.3 172 109.45 171.75 109.45 171.25 110.95 170.6 112.4 170.5 112.7 170.45 112.95 170.35 115.35 169.25 116.5 168.85 118.1 169.5 118.75
L 169.35 119.05
Q 169.25 119.25 169.25 119.5 169.25 119.75 169.1 119.95 168.95 120.25 168.7 120.5 168.7 120.75 168.7 121 168.7 121.25 168.7 121.5 168.7 123 168.7 124.55 168.7 124.8 168.7 125.05 168.7 125.3 168.7 125.55 168.7 126.05 168.7 126.55 168.7 126.8 168.7 127.05 168.7 132.35 170.15 136.1 170.25 136.35 170.25 136.6 170.5 136.6 170.6 136.75 170.75 136.85 170.75 137.1 170.8 138.55 171.6 139.25 171.75 139.35 171.75 139.6 171.75 139.85 171.6 140 171.5416015625 140.0583984375 171.4 140.05 172.908984375 142.768359375 174.5 145.3 176.3849609375 147.759375 178.3 150.2 179.6 151.85 180.95 153.55 181.3 153.95 181.55 154.35 182.45 155.6 183.3 156.7 183.656640625 157.175390625 183.75 157.9
L 184.05 157.9
Q 184.2685546875 158.646484375 184.65 159 185.0744140625 159.3529296875 185.8 159.75 187.75 160.55 189 162.1 192.3 166.35 196.05 170.15 197.75 171.95 199.8 173.45 200.95 174.25 201.75 175.6 201.9 175.8 202.2 176.1 203.65 177.35 205 178.8 206.3 180.25 207.95 181.35 208.2 181.35 208.3 181.5 208.45 181.6 208.45 181.85 208.7 181.85 208.85 182 208.95 182.1 208.95 182.35 211.05 183.8 212.6 185.75 212.7 185.9 212.95 185.9 213.25 185.9 213.35 186 213.5 186.15 213.5 186.4 218.15 190 222.65 193.8 222.8 193.95 223.05 193.95 223.3 193.95 223.4 194.05 223.55 194.2 223.55 194.45 227.6 197.95 231.9 201.2 233.45 202.35 235.25 203.25 236.5 203.85 237.35 204.8 238.25 205.85 239.7 206.3 240.75 206.65 241.25 207.45 242.7 209.7 245.05 211.2 247.15 212.55 249.2 214.05 249.45 214.05 249.55 214.15 249.7 214.3 249.7 214.55 253.7 217.6 257.35 220.95 257.5 221.1 257.75 221.1 258 221.1 258.1 221.2 258.25 221.35 258.25 221.6 259.7 223.15 261.65 224.3 261.75 224.35 261.75 224.6 262 224.6 262.15 224.75 262.25 224.85 262.25 225.1 265.5 227.15 267.95 230 268.05 230.15 268.3 230.15 268.55 230.15 268.65 230.25 268.8 230.4 268.8 230.65 272.75 234.7 277.2 238.35 277.35 238.45 277.35 238.7 277.6 238.7 277.7 238.8 277.85 238.95 277.85 239.2 280.85 241.95 283.65 244.95 283.9 245.2 284.1 245.6 284.15 245.7 284.4 245.7 284.65 245.7 284.75 245.85 284.9 245.95 284.9 246.25 286.2 247.65 287.8 248.9 287.9 249 287.9 249.25 288.15 249.25 288.3 249.35 288.4 249.5 288.4 249.75 294.35 255.9 299.85 262.4 299.95 262.55 299.95 262.8 300.2 262.8 300.35 262.95 300.45 263.05 300.45 263.3 301.5 264.85 302.75 266.1 304 267.35 305 268.85 305.25 268.85 305.4 269 305.5 269.1 305.5 269.35 305.5 269.6 305.5 269.85 305.75 269.85 305.9 270 306 270.1 306 270.35 308.9 274.75 311.85 279.05 314.9 283.6 317.55 288.45 317.8 288.45 317.95 288.6 318.05 288.7 318.05 288.95 319.4 292.9 321.5 296.05 322.3 297.3 322.6 299.05 322.85 299.05 323 299.15 323.1 299.3 323.1 299.55 323 300.9 324.05 301.25 324.1 301.3 324.1 301.55 324.35 301.55 324.5 301.65 324.6 301.8 324.6 302.05 324.65 304.8 326 306.2 326.1 306.3 326.1 306.55 326.1 306.8 326.1 307.05 326.45 308.9 327.4 311.65 327.65 312.35 327.95 312.95 328.15 313.35 328.35 313.75 328.65 314.35 328.55 315.1 328.35 316.9 329.4 317.4
L 329.45 317.6
Q 329.9 319.85 330.4 322.2 330.75 323.55 330.95 324.7 331.3 326.5 332.15 325.2 331.65 323.9 331.95 322.6 332.15 321.7 331.7 321.15 330.95 320.3 330.9 319.1
L 330.9 318.9
Q 330.05 318.5 330.45 317.25 330.7 316.5 329.8 315 329.1 313.85 329.35 312.55 329.4 312.35 329.4 312.15 329.7 310.05 328.15 309.85 327.9 309.85 327.85 309.55 327.65 308.6 327.65 307.6 327.4 307.6 327.25 307.45 327.15 307.3 327.15 307.05 327.15 306.8 327.1 306.55 326.75 304.95 326.6 303.05 326.35 303.05 326.25 302.9 326.1 302.8 326.1 302.55 325.8 300.85 324.65 300 Z"/>
</g>

<g id="Mask_5_MASK_0_FILL">
<path fill="#FFFFFF" stroke="none" d="
M 350 364
L 350 51.05 156 51.05 156 364 350 364 Z"/>
</g>

<g id="Layer5_0_FILL">
<path fill="#000000" fill-opacity="0.4117647058823529" stroke="none" d="
M 311.55 390.05
L 311.8 390.05
Q 311.8 389.8 311.55 389.55 311.55 389.8 311.55 390.05
M 292.55 337.1
Q 292.7 337.25 292.95 337.25 292.95 337 292.8 336.85 292.7 336.75 292.45 336.75 292.45 337 292.55 337.1
M 216 234.15
Q 216 233.9 215.85 233.8 215.75 233.65 215.5 233.65 215.5 233.9 215.6 234.05 215.75 234.15 216 234.15
M 231.1 73.25
Q 231.1 73.5 231.1 73.75 231.35 73.75 231.45 73.6 231.6 73.5 231.6 73.25 231.35 73.25 231.1 73.25 Z"/>

<path fill="#000000" fill-opacity="0.9058823529411765" stroke="none" d="
M 311.05 389.05
Q 310.8 389.05 310.55 389.05 310.8 389.55 311.15 389.9 311.3 390.05 311.55 390.05 311.55 389.8 311.55 389.55 311.55 389.3 311.4 389.15 311.3 389.05 311.05 389.05 Z"/>

<path fill="#000000" fill-opacity="0.4823529411764706" stroke="none" d="
M 310.55 388.55
Q 310.55 388.8 310.55 389.05 310.8 389.05 311.05 389.05 311.05 388.8 310.9 388.65 310.8 388.55 310.55 388.55 Z"/>

<path fill="#000000" fill-opacity="0.43137254901960786" stroke="none" d="
M 310.55 382.5
Q 310.55 382.25 310.4 382.15 310.3 382 310.05 382 310.05 382.25 310.15 382.4 310.3 382.5 310.55 382.5
M 308.15 373.35
Q 308.25 373.45 308.5 373.45 308.5 373.2 308.4 373.05 308.25 372.95 308 372.95 308 373.2 308.15 373.35
M 269.9 300.4
Q 270.05 300.55 270.3 300.55 270.3 300.3 270.2 300.15 270.05 300.05 269.8 300.05 269.8 300.3 269.9 300.4
M 210.1 228.5
Q 210.2 228.65 210.45 228.65 210.45 228.35 210.35 228.25 210.2 228.1 209.95 228.1 209.95 228.35 210.1 228.5
M 170.6 146.55
Q 170.75 146.4 170.75 146.15 170.5 146.15 170.25 146.15 170.25 146.4 170.25 146.65 170.5 146.65 170.6 146.55
M 178.3 122.5
Q 178.3 122.75 178.3 123 178.55 123 178.65 122.9 178.8 122.75 178.8 122.5 178.55 122.5 178.3 122.5
M 239.1 69.7
Q 239.1 69.95 239.1 70.2 239.4 70.2 239.5 70.1 239.65 69.95 239.65 69.7 239.4 69.7 239.1 69.7 Z"/>

<path fill="#000000" fill-opacity="0.4235294117647059" stroke="none" d="
M 311.05 383.5
Q 311.05 383.25 310.9 383.15 310.8 383 310.55 383 310.55 383.25 310.65 383.4 310.8 383.5 311.05 383.5
M 298.1 348.2
Q 298.2 348.3 298.45 348.3 298.45 348.05 298.35 347.95 298.2 347.8 297.95 347.8 297.95 348.05 298.1 348.2
M 276.85 310.1
Q 276.85 310.35 276.95 310.45 277.1 310.6 277.35 310.6 277.35 310.35 277.2 310.2 277.1 310.1 276.85 310.1
M 213.35 231.75
Q 213.25 231.65 212.95 231.65 212.95 231.9 213.1 232 213.25 232.15 213.5 232.15 213.5 231.9 213.35 231.75
M 176.15 134.95
Q 176.25 134.85 176.25 134.6 176 134.6 175.75 134.6 175.75 134.85 175.75 135.1 176 135.1 176.15 134.95
M 233.1 69.2
Q 233.35 69.2 233.6 69.2 233.6 68.95 233.45 68.85 233.35 68.7 233.1 68.7 233.1 68.95 233.1 69.2
M 230.95 74.1
Q 231.1 74 231.1 73.75 230.85 73.75 230.6 73.75 230.6 74 230.6 74.25 230.85 74.25 230.95 74.1 Z"/>

<path fill="#000000" fill-opacity="0.8470588235294118" stroke="none" d="
M 308.5 375.95
Q 308.5 376.2 308.4 376.35 308.25 376.45 308 376.45 308.5 378.75 308.7 381 308.85 382.7 309.45 383.55 310.3 384.7 311.05 383.5 310.8 383.5 310.65 383.4 310.55 383.25 310.55 383 310.55 382.75 310.55 382.5 310.3 382.5 310.15 382.4 310.05 382.25 310.05 382 310.05 380.5 309.85 379 309.8 378.75 309.85 378.65 310.85 376.9 309 375.95 308.75 375.95 308.5 375.95 Z"/>

<path fill="#000000" fill-opacity="0.4392156862745098" stroke="none" d="
M 308.5 371.95
Q 308.5 372.2 308.5 372.45
L 308.75 372.45
Q 308.75 372.2 308.5 371.95
M 286.5 322.05
Q 286.65 322.15 286.9 322.15 286.9 321.9 286.75 321.8 286.65 321.65 286.4 321.65 286.4 321.9 286.5 322.05
M 267.8 293.5
Q 267.8 293.25 267.65 293.1 267.55 293 267.3 293 267.3 293.25 267.4 293.35 267.55 293.5 267.8 293.5
M 190.2 104.3
Q 190.35 104.15 190.35 103.9 190.1 103.9 189.85 103.9 189.85 104.15 189.85 104.4 190.1 104.4 190.2 104.3 Z"/>

<path fill="#000000" fill-opacity="0.4196078431372549" stroke="none" d="
M 309 375.95
Q 309 375.7 309 375.45 308.75 375.45 308.5 375.45 308.5 375.7 308.5 375.95 308.75 375.95 309 375.95
M 302.1 358.25
Q 302.25 358.35 302.5 358.35 302.5 358.1 302.35 358 302.25 357.85 302 357.85 302 358.1 302.1 358.25
M 306.65 366.3
Q 306.75 366.4 307 366.4 307 366.15 306.9 366.05 306.75 365.9 306.5 365.9 306.5 366.15 306.65 366.3 Z"/>

<path fill="#000000" fill-opacity="0.42745098039215684" stroke="none" d="
M 300.35 352.95
Q 300.2 352.85 299.95 352.85 299.95 353.1 300.1 353.2 300.2 353.35 300.45 353.35 300.45 353.1 300.35 352.95
M 265.25 290
Q 265.25 289.7 265.15 289.6 265 289.45 264.75 289.45 264.75 289.7 264.9 289.85 265 290 265.25 290
M 179.15 121.9
Q 179.3 121.75 179.3 121.5 179.05 121.5 178.8 121.5 178.8 121.75 178.8 122 179.05 122 179.15 121.9
M 224.05 77.75
Q 223.8 77.75 223.55 77.75 223.55 78 223.55 78.25 223.8 78.25 223.9 78.15 224.05 78 224.05 77.75
M 238 67.6
Q 238.1 67.45 238.1 67.2 237.85 67.2 237.6 67.2 237.6 67.45 237.6 67.7 237.85 67.7 238 67.6 Z"/>

<path fill="#000000" fill-opacity="0.41568627450980394" stroke="none" d="
M 302.85 353.95
Q 302.75 353.85 302.5 353.85 302.5 354.1 302.6 354.2 302.75 354.35 303 354.35 303 354.1 302.85 353.95
M 270.45 301.4
Q 270.55 301.55 270.8 301.55 270.8 301.3 270.7 301.15 270.55 301.05 270.3 301.05 270.3 301.3 270.45 301.4
M 278.7 309.2
Q 278.6 309.1 278.35 309.1 278.35 309.35 278.45 309.45 278.6 309.6 278.85 309.6 278.85 309.35 278.7 309.2
M 212.95 231.65
Q 212.95 231.4 212.85 231.25 212.7 231.15 212.45 231.15 212.45 231.4 212.6 231.5 212.7 231.65 212.95 231.65
M 258.35 281.3
Q 258.5 281.45 258.75 281.45 258.75 281.2 258.6 281.05 258.5 280.9 258.25 280.9 258.25 281.2 258.35 281.3
M 179.9 194.3
Q 180.05 194.45 180.3 194.45 180.3 194.2 180.15 194.05 180.05 193.95 179.8 193.95 179.8 194.2 179.9 194.3
M 181.15 117.35
Q 181.3 117.25 181.3 117 181.05 117 180.8 117 180.8 117.25 180.8 117.5 181.05 117.5 181.15 117.35 Z"/>

<path fill="#000000" fill-opacity="0.40784313725490196" stroke="none" d="
M 282.35 318.65
Q 282.35 318.4 282.25 318.25 282.1 318.15 281.85 318.15 281.85 318.4 282 318.5 282.1 318.65 282.35 318.65
M 255.6 277.05
Q 255.45 276.9 255.2 276.9 255.2 277.15 255.35 277.3 255.45 277.4 255.7 277.4 255.7 277.15 255.6 277.05
M 179.3 120
Q 179.55 120 179.65 119.9 179.8 119.75 179.8 119.5 179.55 119.5 179.3 119.5 179.3 119.75 179.3 120
M 183.7 113.85
Q 183.8 113.7 183.8 113.45 183.55 113.45 183.3 113.45 183.3 113.7 183.3 113.95 183.55 113.95 183.7 113.85 Z"/>

<path fill="#000000" fill-opacity="0.43529411764705883" stroke="none" d="
M 280.75 312.25
Q 280.6 312.1 280.35 312.1 280.35 312.35 280.5 312.5 280.6 312.6 280.85 312.6 280.85 312.35 280.75 312.25
M 229.45 74.6
Q 229.55 74.5 229.55 74.25 229.3 74.25 229.05 74.25 229.05 74.5 229.05 74.75 229.3 74.75 229.45 74.6 Z"/>

<path fill="#000000" fill-opacity="0.403921568627451" stroke="none" d="
M 290.9 329.7
Q 290.9 329.95 291.05 330.1 291.15 330.2 291.4 330.2 291.4 329.95 291.3 329.85 291.15 329.7 290.9 329.7
M 233.7 252.65
Q 233.85 252.75 234.1 252.75 234.1 252.5 233.95 252.4 233.85 252.25 233.6 252.25 233.6 252.5 233.7 252.65
M 178.8 191.4
Q 178.8 191.15 178.65 191.05 178.55 190.9 178.3 190.9 178.3 191.15 178.4 191.3 178.55 191.4 178.8 191.4
M 204.95 92.35
Q 204.7 92.35 204.45 92.35 204.45 92.6 204.45 92.85 204.7 92.85 204.8 92.75 204.95 92.6 204.95 92.35
M 215 84.3
Q 215.25 84.3 215.35 84.2 215.5 84.05 215.5 83.8 215.25 83.8 215 83.8 215 84.05 215 84.3 Z"/>

<path fill="#000000" fill-opacity="0.4" stroke="none" d="
M 189.35 207.5
Q 189.35 207.75 189.45 207.9 189.6 208 189.85 208 189.85 207.75 189.7 207.65 189.6 207.5 189.35 207.5
M 225.55 243.7
Q 225.55 243.45 225.4 243.35 225.3 243.2 225.05 243.2 225.05 243.45 225.15 243.6 225.3 243.7 225.55 243.7
M 208.45 226.6
Q 208.45 226.35 208.3 226.25 208.2 226.1 207.95 226.1 207.95 226.35 208.05 226.5 208.2 226.6 208.45 226.6
M 171.25 139.75
Q 171.25 139.927734375 171.25 140.1 171.3541015625 140.1 171.4 140.05 171.5416015625 140.0583984375 171.6 140 171.75 139.85 171.75 139.6 171.5 139.6 171.25 139.6 171.25 139.677734375 171.25 139.75
M 208.95 88.85
Q 208.7 88.85 208.45 88.85 208.45 89.1 208.45 89.35 208.7 89.35 208.85 89.2 208.95 89.1 208.95 88.85 Z"/>

<path fill="#000000" fill-opacity="0.396078431372549" stroke="none" d="
M 224.15 242.6
Q 224.3 242.7 224.55 242.7 224.55 242.45 224.4 242.35 224.3 242.2 224.05 242.2 224.05 242.45 224.15 242.6
M 203.4 221.1
Q 203.4 221.35 203.55 221.45 203.65 221.6 203.9 221.6 203.9 221.35 203.8 221.2 203.65 221.1 203.4 221.1
M 181.15 123.4
Q 181.3 123.25 181.3 123 181.05 123 180.8 123 180.8 123.25 180.8 123.55 181.05 123.55 181.15 123.4
M 220 80.3
Q 219.75 80.3 219.5 80.3 219.5 80.55 219.5 80.8 219.75 80.8 219.9 80.65 220 80.55 220 80.3 Z"/>

<path fill="#000000" fill-opacity="0.9254901960784314" stroke="none" d="
M 253.25 62.75
Q 253.65 62.45 253.2 60.65 252.7 60.65 252.6 60.45 252.25 59.85 251.25 60.3 250.45 60.65 249.65 61.05 247.7 61.95 246.2 63.2 245.9 63.45 245.6 63.55 241.3 64.85 238.1 67.2 238.1 67.45 238 67.6 237.85 67.7 237.6 67.7 237.35 67.7 237.1 67.75 234.8 67.9 233.6 69.2 233.35 69.2 233.1 69.2 230.05 70.7 227.2 72.5 226.2 73.1 224.95 73.55 224.55 73.75 224.2 73.95 222.9 74.8 221.4 75.6 220.05 76.3 219.05 77.3 217.7041015625 78.6822265625 215.9 79.65 213.79765625 81.2591796875 211.65 82.8 211.1880859375 83.476171875 210.5 83.8 208.3 84.95 206.9 86.8 206.7 87.05 206.4 87.2 204.05 88.05 204.95 89.85 203.55 89.25 203.3 89.8 203.15 90.1 202.85 90.25 201.8 90.95 201 91.9 199.3 94 197.4 95.9 193.8 99.6 190.35 103.4 190.35 103.65 190.35 103.9 190.35 104.15 190.2 104.3 190.1 104.4 189.85 104.4 189.85 104.9 189.6 105.05 188.3 105.9 187.7 107.4 187.6 107.7 187.45 108 186.45 110.05 184.95 111.6 184.3 112.2 183.8 112.95 183.8 113.2 183.8 113.45 183.8 113.7 183.7 113.85 183.55 113.95 183.3 113.95 183.05 113.95 183.05 114 182.7 115.85 181.3 116.5 181.3 116.75 181.3 117 181.3 117.25 181.15 117.35 181.05 117.5 180.8 117.5 180.8 117.75 180.65 117.9 180.3 118.5 179.8 119 179.8 119.25 179.8 119.5 179.8 119.75 179.65 119.9 179.55 120 179.3 120 179.3 120.5 179.3 121 179.3 121.25 179.3 121.5 179.3 121.75 179.15 121.9 179.05 122 178.8 122 178.8 122.25 178.8 122.5 178.8 122.75 178.65 122.9 178.55 123 178.3 123 177.75 123.8 177.35 124.6 176 127.05 174.75 129.55 174.5125 130.025 174.5 130.5
L 174.5 130.55
Q 174.477734375 131.878515625 174.1 132.8 173.949609375 133.329296875 173.65 133.7
L 173.55 135.55 172.85 137 172.1 137.35 171.3 138.95
Q 171.4451171875 139.114453125 171.6 139.25 171.75 139.35 171.75 139.6 171.75 139.85 171.6 140 171.5416015625 140.0583984375 171.4 140.05 171.3541015625 140.1 171.25 140.1 171.25 140.35 171.3 140.6 171.55 141.7 170.75 141.65 171.45 143.8 170.8 145.7 170.75 145.9 170.75 146.15 170.75 146.4 170.6 146.55 170.5 146.65 170.25 146.65 170 146.9 170 147.15 170 147.65 170 148.15 170 148.4 170.05 148.55 170.2 149.2 170.05 150.15 170 150.45 170 150.65 170.4 153.4 169.25 155.2 170 158.2 169.9 162.25 169.85 164.15 170 165.8 170.35 169.45 171.5 172.2 171.95 173.35 172 175.3 172 175.55 172.1 175.85 173.3 180 174.85 183.8 176.35 187.55 178.3 190.9 178.55 190.9 178.65 191.05 178.8 191.15 178.8 191.4 178.85 192.85 179.65 193.6 179.8 193.7 179.8 193.95 180.05 193.95 180.15 194.05 180.3 194.2 180.3 194.45 184.15 201.35 189.2 207.1 189.35 207.25 189.35 207.5 189.6 207.5 189.7 207.65 189.85 207.75 189.85 208 190.9677734375 209.1875 191.6 210.9
L 192 211.1 192.35 212.2 193.1 212.55 193.8 214 194.55 214.35 195.35 215.6 195.35 215.55
Q 197.9 218.05 200.15 220.8 200.4 221.1 200.65 221.45 201.35 222.65 202.85 223.2 203.15 223.35 203.3 223.65 204.25 225.6 205.7 226.9 205.95 227.1 206.2 227.35 213.55 234.85 220.95 242.25 228.4 249.65 235.6 257.3 242.8 264.95 249.5 273.05 249.980859375 273.62109375 250.5 274.15
L 251.65 274.75
Q 252.1 275.55 252.6 276.45 253.2005859375 277.5140625 253.75 278.6 254.8439453125 279.16875 255.45 280.3 256.75 282.7 258.7 284.45 259.2 284.95 259.45 285.9 259.5 286.2 259.7 286.5 260.6400390625 287.5953125 261.55 288.7 262.89140625 290.355078125 264.15 292.05 267.12265625 295.9044921875 269.8 300.05 270.05 300.05 270.2 300.15 270.3 300.3 270.3 300.55 270.3 300.8 270.3 301.05 270.55 301.05 270.7 301.15 270.8 301.3 270.8 301.55 273.4 306 276.7 309.7 276.85 309.85 276.85 310.1 277.1 310.1 277.2 310.2 277.35 310.35 277.35 310.6 279.35 314.4 281.75 317.7 281.85 317.9 281.85 318.15 282.1 318.15 282.25 318.25 282.35 318.4 282.35 318.65 285.35 322.7 287.65 327.55 288.4 329.2 289.3 330.75 291 333.65 292.45 336.75 292.7 336.75 292.8 336.85 292.95 337 292.95 337.25 293.85 340.1 295.35 342.3 296.15 343.55 296.7 345.2 296.95 346.05 297.45 346.8 297.7 347.3 297.95 347.8 298.2 347.8 298.35 347.95 298.45 348.05 298.45 348.3 298.75 350.8 299.85 352.4 299.95 352.6 299.95 352.85 300.2 352.85 300.35 352.95 300.45 353.1 300.45 353.35 300.9 355.7 301.9 357.4 302 357.6 302 357.85 302.25 357.85 302.35 358 302.5 358.1 302.5 358.35 303.45 360.4 304.1 362.85 304.25 363.4 304.3 363.9 304.5 365.65 305.25 366.6 305.25 366.65 305.3 366.8 305.7 367.75 306 368.95 306.5 370.7 306.9 372.45 307 373.2 307.2 373.9 307.45 375.05 308.5 375.45 308.75 375.45 309 375.45 309 375.2 308.9 375.15 308.15 374.8 308.5 373.45 308.25 373.45 308.15 373.35 308 373.2 308 372.95 308 372.7 308 372.45 308.25 372.45 308.5 372.45 308.5 372.2 308.5 371.95 308.5 371.7 308.4 371.5 307.4 369.3 307 366.4 306.75 366.4 306.65 366.3 306.5 366.15 306.5 365.9 305.75 362.9 304.7 359.95 303.75 357.4 303 354.35 302.75 354.35 302.6 354.2 302.5 354.1 302.5 353.85 299.5 347 296.4 340.3 294 335.2 291.4 330.2 291.15 330.2 291.05 330.1 290.9 329.95 290.9 329.7 290.9 329.45 290.8 329.25 288.9 325.7 286.9 322.15 286.65 322.15 286.5 322.05 286.4 321.9 286.4 321.65 286.4 321.4 286.3 321.25 283.7 316.8 280.85 312.6 280.6 312.6 280.5 312.5 280.35 312.35 280.35 312.1 280.35 311.85 280.25 311.7 279.45 310.7 278.85 309.6 278.6 309.6 278.45 309.45 278.35 309.35 278.35 309.1 276.15 305.2 273.55 301.85 273.3 301.55 273.05 301.25 270.05 297.75 267.8 293.5 267.55 293.5 267.4 293.35 267.3 293.25 267.3 293 267.05 293 267 292.9 266.51953125 291.969140625 265.95 291.1 265.6294921875 290.5392578125 265.25 290 265 290 264.9 289.85 264.75 289.7 264.75 289.45 264.75 289.2 264.65 289.05 263.9728515625 288.228515625 263.3 287.4 260.9673828125 284.4841796875 258.75 281.45 258.5 281.45 258.35 281.3 258.25 281.2 258.25 280.9 258.25 280.65 258.1 280.5 256.95 278.95 255.7 277.4 255.45 277.4 255.35 277.3 255.2 277.15 255.2 276.9 255.2 276.65 255.1 276.45 254.95 276.15 254.7 275.9 255.059375 275.7017578125 255.35 275.45 254.4314453125 274.0625 253.65 272.6 253.5314453125 272.9251953125 253.5 273.35
L 253.45 273.6
Q 250.75 271.55 248.65 268.9 248.45 268.6 248.2 268.35 241.55 260.15 234.1 252.75 233.85 252.75 233.7 252.65 233.6 252.5 233.6 252.25 233.6 252 233.45 251.9 229.45 247.85 225.55 243.7 225.3 243.7 225.15 243.6 225.05 243.45 225.05 243.2 224.8 243.2 224.65 243.1 224.55 242.95 224.55 242.7 224.3 242.7 224.15 242.6 224.05 242.45 224.05 242.2 222.1 240.6 220.5 238.7 220.25 238.45 220 238.2 217.8 236.4 216 234.15 215.75 234.15 215.6 234.05 215.5 233.9 215.5 233.65 215.25 233.65 215.15 233.55 214.55 232.55 213.5 232.15 213.25 232.15 213.1 232 212.95 231.9 212.95 231.65 212.7 231.65 212.6 231.5 212.45 231.4 212.45 231.15 212.45 230.9 212.35 230.8 211.15 229.95 210.45 228.65 210.2 228.65 210.1 228.5 209.95 228.35 209.95 228.1 209.7 228.1 209.6 228 208.95 227.35 208.45 226.6 208.2 226.6 208.05 226.5 207.95 226.35 207.95 226.1 207.95 225.85 207.8 225.75 205.6 223.9 203.9 221.6 203.65 221.6 203.55 221.45 203.4 221.35 203.4 221.1 198.2 215.75 193.7 209.65 192.8162109375 208.471484375 192.2 207.05
L 192 206.75 190.9 206.05 189.1 202.8
Q 189.15 201.35 188.7 200.5 188.06875 199.1923828125 187.45 198.3 187.4955078125 198.6173828125 187.55 198.95 187.6 199.2 187.75 199.5 188.55 201.05 188.85 203 185.6 198.7 182.55 194.25 182.3 193.95 182.1 193.55 180.8 191.15 179.6 188.7 178.35 186.1 177.05 183.45 175.85 181.05 175.1 177.85 174.7 175.9 174 174.2 173.75 173.55 173.65 172.85 173.4 171.1 173.05 169.7 173 169.55 173 169.3 173 168.3 172.9 167.25 172.4 161.05 171.75 157.2 172.6 156.1 172.45 153.65 172.3 151.5 172.45 149.65 172.5 149.4 172.5 149.15 172.5 148.15 172.65 147.15 172.85 145.25 173.25 143.65 173.3736328125 143.8130859375 173.5 143.95 173.7765625 141.30234375 174.25 138.65
L 174.25 138.6 174.25 138.55
Q 174.2890625 138.50859375 174.3 138.45
L 174.35 138.45
Q 174.65703125 138.1033203125 174.85 137.7 175.2205078125 137.1501953125 175.45 136.45 175.5984375 136.0568359375 175.7 135.6 175.75 135.35 175.75 135.1 175.75 134.85 175.75 134.6 176 134.6 176.25 134.6 176.25 134.35 176.25 134.1 176.25 133.85 176.25 133.6 176.839453125 132.55703125 177.3 131.35 177.353515625 131.2255859375 177.4 131.1 178.95 127.2 180.8 123.55 180.8 123.25 180.8 123 181.05 123 181.3 123 181.3 122.75 181.3 122.5 182.95 120.4 184.4 118.05 190.1 108.95 196.85 100.85 198.65 98.65 200.75 96.7 202.65 94.85 204.45 92.85 204.45 92.6 204.45 92.35 204.7 92.35 204.95 92.35 204.95 92.1 204.95 91.85 206.8 90.95 208.1 89.45 208.2 89.35 208.45 89.35 208.45 89.1 208.45 88.85 208.7 88.85 208.95 88.85 211.8 86.65 214.6 84.45 214.75 84.3 215 84.3 215 84.05 215 83.8 215.25 83.8 215.5 83.8 215.5 83.55 215.5 83.3 217.65 82.4 219.15 80.9 219.25 80.8 219.5 80.8 219.5 80.55 219.5 80.3 219.75 80.3 220 80.3 220 80.05 220 79.8 222.35 79.85 223.2 78.35 223.3 78.25 223.55 78.25 223.55 78 223.55 77.75 223.8 77.75 224.05 77.75 226.65 76.6 228.65 74.85 228.8 74.75 229.05 74.75 229.05 74.5 229.05 74.25 229.3 74.25 229.55 74.25 229.8 74.25 230.05 74.25 230.3 74.25 230.6 74.25 230.6 74 230.6 73.75 230.85 73.75 231.1 73.75 231.1 73.5 231.1 73.25 231.35 73.25 231.6 73.25 233.95 71.85 237.05 71.05 238.1 70.7 239.1 70.2 239.1 69.95 239.1 69.7 239.4 69.7 239.65 69.7 247.35 67.15 253.25 62.75
M 194.85 214.8
L 194.85 214.55
Q 196 214.8 194.85 214.8 Z"/>
</g>

<g id="Layer3_0_FILL">
<path fill="#000000" stroke="none" d="
M 278.45 412.55
Q 278.6 412.7 278.85 412.7 278.85 412.4 278.85 412.15 278.6 412.15 278.35 412.15 278.35 412.4 278.45 412.55 Z"/>

<path fill="#000000" fill-opacity="0.6784313725490196" stroke="none" d="
M 278.85 412.7
Q 278.6 412.7 278.45 412.55 278.35 412.4 278.35 412.15 278.6 412.15 278.85 412.15 278.85 411.9 278.75 411.7 278.6 411.4 278.35 411.15 278.1 411.15 277.85 411.15 277.3 413.25 278.8 412.95 278.85 412.95 278.85 412.7 Z"/>

<path fill="#000000" fill-opacity="0.4745098039215686" stroke="none" d="
M 278.85 409.65
Q 278.85 409.4 278.7 409.3 278.6 409.15 278.35 409.15 278.35 409.4 278.35 409.65 278.6 409.65 278.85 409.65 Z"/>

<path fill="#000000" fill-opacity="0.8862745098039215" stroke="none" d="
M 278.85 410.65
Q 278.6 410.65 278.45 410.55 278.35 410.4 278.35 410.15 278.6 410.15 278.85 410.15 278.85 409.9 278.85 409.65 278.6 409.65 278.35 409.65 278.1 409.65 277.85 409.65 277.85 410.15 277.85 410.65 277.85 410.9 277.85 411.15 278.1 411.15 278.35 411.15 278.6 411.15 278.7 411.05 278.85 410.9 278.85 410.65 Z"/>

<path fill="#000000" fill-opacity="0.5372549019607843" stroke="none" d="
M 278.85 410.65
Q 278.85 410.4 278.85 410.15 278.6 410.15 278.35 410.15 278.35 410.4 278.45 410.55 278.6 410.65 278.85 410.65 Z"/>

<path fill="#000000" fill-opacity="0.43137254901960786" stroke="none" d="
M 278.85 405.15
Q 278.85 404.9 278.7 404.75 278.6 404.65 278.35 404.65 278.35 404.9 278.45 405 278.6 405.15 278.85 405.15
M 275.85 390.05
L 276.1 390.05
Q 276.1 389.8 275.85 389.55 275.85 389.8 275.85 390.05
M 247.15 316.1
Q 247.15 315.85 247.05 315.75 246.9 315.6 246.65 315.6 246.65 315.85 246.8 316 246.9 316.1 247.15 316.1
M 244.15 310.6
Q 244.15 310.85 244.3 310.95 244.4 311.1 244.65 311.1 244.65 310.85 244.55 310.7 244.4 310.6 244.15 310.6
M 185.8 162.75
Q 185.8 162.5 185.8 162.25 185.8 162 185.8 161.75 185.55 161.75 185.3 161.75 185.3 162.25 185.5 162.65 185.55 162.75 185.8 162.75 Z"/>

<path fill="#000000" fill-opacity="0.4196078431372549" stroke="none" d="
M 278.45 407.5
Q 278.6 407.65 278.85 407.65 278.85 407.4 278.7 407.25 278.6 407.15 278.35 407.15 278.35 407.4 278.45 407.5
M 272.8 382.5
Q 272.8 382.25 272.7 382.15 272.55 382 272.3 382 272.3 382.25 272.45 382.4 272.55 382.5 272.8 382.5
M 197.9 227.1
L 198.15 227.1
Q 198.15 226.85 197.9 226.6 197.9 226.85 197.9 227.1
M 187.85 190.4
Q 187.85 189.9 187.85 189.4 187.6 189.4 187.35 189.4 187.35 190.15 187.55 190.85 187.6 190.9 187.85 190.9 187.85 190.65 187.85 190.4
M 185.8 180.35
Q 185.8 180.6 185.95 180.75 186.05 180.85 186.3 180.85 186.3 180.6 186.2 180.5 186.05 180.35 185.8 180.35
M 185.35 145.1
Q 185.3 144.9 185.3 144.65 185.05 144.65 184.8 144.65 184.8 145.15 184.8 145.65 184.8 145.7 184.8 145.75 184.8 145.95 184.8 146.15 185.1974609375 146.1966796875 185.35 145.95 185.509765625 145.7123046875 185.35 145.1
M 188.2 133.95
Q 188.35 133.85 188.35 133.6 188.1 133.6 187.85 133.6 187.85 133.85 187.85 134.1 188.1 134.1 188.2 133.95
M 212.95 99.9
Q 213.25 99.9 213.5 99.9 213.5 99.65 213.35 99.5 213.25 99.4 212.95 99.4 212.95 99.65 212.95 99.9 Z"/>

<path fill="#000000" fill-opacity="0.5137254901960784" stroke="none" d="
M 278.35 406.15
Q 278.35 406.4 278.35 406.65 278.6 406.65 278.7 406.5 278.85 406.4 278.85 406.15 278.6 406.15 278.35 406.15 Z"/>

<path fill="#000000" fill-opacity="0.6196078431372549" stroke="none" d="
M 277.75 406.6
Q 277.85 406.4 277.85 406.15 277.6 406.15 277.35 406.15 277.35 406.4 277.35 406.65 277.35 406.9 277.35 407.15 277.6 406.9 277.75 406.6 Z"/>

<path fill="#000000" fill-opacity="0.8980392156862745" stroke="none" d="
M 278.35 404.65
Q 278.1 404.65 277.85 404.65 277.85 405.15 277.85 405.65 277.85 405.9 277.85 406.15 277.85 406.4 277.75 406.6 277.6 406.9 277.35 407.15 277.6 409.35 278.7 408.05 278.85 407.9 278.85 407.65 278.6 407.65 278.45 407.5 278.35 407.4 278.35 407.15 278.35 406.9 278.35 406.65 278.35 406.4 278.35 406.15 278.6 406.15 278.85 406.15 278.85 405.9 278.85 405.65 278.85 405.4 278.85 405.15 278.6 405.15 278.45 405 278.35 404.9 278.35 404.65 Z"/>

<path fill="#000000" fill-opacity="0.5647058823529412" stroke="none" d="
M 277.85 404.15
Q 277.85 404.4 277.85 404.65 278.1 404.65 278.35 404.65 278.35 404.4 278.2 404.25 278.1 404.15 277.85 404.15
M 277.85 400.6
Q 277.85 400.35 277.9 400.1 278.15 398.75 276.85 399.1 276.85 399.35 276.85 399.6 277.65 399.55 277.6 400.6
L 277.85 400.6 Z"/>

<path fill="#000000" fill-opacity="0.5607843137254902" stroke="none" d="
M 277.25 402.15
Q 277.1 401.85 276.85 401.6 276.85 402.1 277.05 402.5 277.1 402.6 277.35 402.6 277.35 402.35 277.25 402.15 Z"/>

<path fill="#000000" fill-opacity="0.9372549019607843" stroke="none" d="
M 277.6 400.6
Q 277.65 399.55 276.85 399.6 276.85 400.35 276.85 401.1 276.85 401.35 276.85 401.6 277.1 401.85 277.25 402.15 277.35 402.35 277.35 402.6 279 402 277.95 401 277.85 400.85 277.85 400.6
L 277.6 400.6 Z"/>

<path fill="#000000" fill-opacity="0.40784313725490196" stroke="none" d="
M 275.05 392.45
Q 275.1 392.55 275.35 392.55 275.35 392.3 275.35 392.05 275.35 391.8 275.35 391.55 275.1 391.55 274.85 391.55 274.85 392.05 275.05 392.45
M 274.95 386.4
Q 275.1 386.55 275.35 386.55 275.35 386.25 275.2 386.15 275.1 386 274.85 386 274.85 386.25 274.95 386.4
M 271.8 379.5
Q 271.8 380 272 380.4 272.05 380.5 272.3 380.5 272.3 380.25 272.2 380.05 272.05 379.75 271.8 379.5
M 271.8 377.45
Q 271.55 377.45 271.3 377.45 271.3 377.75 271.45 377.85 271.55 378 271.8 378 271.8 377.75 271.8 377.45
M 273.8 380.5
Q 273.8 380.25 273.7 380.1 273.55 380 273.3 380 273.3 380.25 273.45 380.35 273.55 380.5 273.8 380.5
M 262.75 353.85
Q 262.75 353.6 262.65 353.45 262.5 353.35 262.25 353.35 262.25 353.6 262.4 353.7 262.5 353.85 262.75 353.85 Z"/>

<path fill="#000000" fill-opacity="0.43529411764705883" stroke="none" d="
M 275.85 388.05
Q 275.85 387.8 275.7 387.65 275.6 387.55 275.35 387.55 275.35 387.8 275.45 387.9 275.6 388.05 275.85 388.05
M 253.2 332.7
Q 253.2 332.95 253.35 333.1 253.45 333.2 253.7 333.2 253.7 332.95 253.6 332.85 253.45 332.7 253.2 332.7
M 242 305.7
Q 241.9 305.55 241.65 305.55 241.65 305.8 241.75 305.95 241.9 306.05 242.15 306.05 242.15 305.8 242 305.7
M 234.1 295
Q 234.1 294.75 233.95 294.65 233.85 294.5 233.6 294.5 233.6 294.75 233.7 294.9 233.85 295 234.1 295
M 206.45 244.7
Q 206.45 244.95 206.55 245.1 206.7 245.2 206.95 245.2 206.95 244.95 206.8 244.85 206.7 244.7 206.45 244.7
M 206.3 244.35
Q 206.2 244.2 205.95 244.2 205.95 244.45 206.05 244.6 206.2 244.7 206.45 244.7 206.45 244.45 206.3 244.35
M 187.85 144.15
Q 187.85 144.4 187.85 144.65
L 188.1 144.65
Q 188.1 144.4 187.85 144.15
M 207.45 107.95
Q 207.45 108.2 207.45 108.45 207.7 108.45 207.8 108.3 207.95 108.2 207.95 107.95 207.7 107.95 207.45 107.95
M 203.9 107.45
Q 203.9 107.7 203.9 107.95 204.15 107.95 204.3 107.8 204.45 107.7 204.45 107.45 204.15 107.45 203.9 107.45
M 213.85 100
Q 213.75 99.9 213.5 99.9 213.5 100.15 213.6 100.25 213.75 100.4 214 100.4 214 100.15 213.85 100 Z"/>

<path fill="#000000" fill-opacity="0.4" stroke="none" d="
M 272.8 378.5
L 273.05 378.5
Q 273.05 378.25 272.8 378 272.8 378.25 272.8 378.5
M 213.5 257.3
Q 213.5 257.05 213.35 256.9 213.25 256.8 212.95 256.8 212.95 257.05 213.1 257.15 213.25 257.3 213.5 257.3
M 188.85 193.95
Q 188.85 193.7 188.7 193.55 188.6 193.4 188.35 193.4 188.35 193.7 188.45 193.8 188.6 193.95 188.85 193.95
M 185.3 172.3
Q 185.55 172.3 185.7 172.2 185.8 172.05 185.8 171.8 185.55 171.8 185.3 171.8 185.3 172.05 185.3 172.3
M 210.95 104.9
Q 211.2 104.9 211.35 104.8 211.45 104.65 211.45 104.4 211.2 104.4 210.95 104.4 210.95 104.65 210.95 104.9 Z"/>

<path fill="#000000" fill-opacity="0.403921568627451" stroke="none" d="
M 272.8 376.45
Q 272.8 376.2 272.7 376 272.55 375.7 272.3 375.45 272.3 375.95 272.5 376.35 272.55 376.45 272.8 376.45
M 257.25 337.25
Q 257.25 337.5 257.35 337.6 257.5 337.75 257.75 337.75 257.75 337.5 257.6 337.35 257.5 337.25 257.25 337.25
M 247.8 322.05
Q 247.9 322.15 248.2 322.15 248.2 321.9 248.05 321.8 247.9 321.65 247.65 321.65 247.65 321.9 247.8 322.05 Z"/>

<path fill="#000000" fill-opacity="0.41568627450980394" stroke="none" d="
M 271.3 372.45
Q 271.3 372.2 271.2 372.05 271.05 371.95 270.8 371.95 270.8 372.2 270.95 372.3 271.05 372.45 271.3 372.45
M 258.6 339.4
Q 258.5 339.25 258.25 339.25 258.25 339.5 258.35 339.65 258.5 339.75 258.75 339.75 258.75 339.5 258.6 339.4
M 211.1 253.65
Q 211.2 253.75 211.45 253.75 211.45 253.5 211.35 253.4 211.2 253.25 210.95 253.25 210.95 253.5 211.1 253.65
M 185.3 142.65
Q 185.3 142.9 185.3 143.15 185.3 143.4 185.3 143.65 185.55 143.4 185.7 143.1 185.8 142.9 185.8 142.65 185.55 142.65 185.3 142.65
M 187.85 135.1
Q 187.6 135.1 187.35 135.1 187.35 135.35 187.35 135.6 187.6 135.6 187.7 135.45 187.85 135.35 187.85 135.1
M 201.9 110.95
Q 201.65 110.95 201.4 110.95 201.4 111.2 201.4 111.45 201.65 111.45 201.8 111.35 201.9 111.2 201.9 110.95 Z"/>

<path fill="#000000" fill-opacity="0.4392156862745098" stroke="none" d="
M 262.4 350.2
Q 262.5 350.3 262.75 350.3 262.75 350.05 262.65 349.95 262.5 349.8 262.25 349.8 262.25 350.05 262.4 350.2
M 260.1 347.45
Q 260 347.3 259.75 347.3 259.75 347.55 259.85 347.7 260 347.8 260.25 347.8 260.25 347.55 260.1 347.45
M 262.15 346.95
Q 262 346.8 261.75 346.8 261.75 347.05 261.9 347.2 262 347.3 262.25 347.3 262.25 347.05 262.15 346.95
M 267.15 365.05
Q 267.05 364.9 266.8 364.9 266.8 365.15 266.9 365.3 267.05 365.4 267.3 365.4 267.3 365.15 267.15 365.05
M 190.35 199.45
Q 190.35 199.2 190.2 199.1 190.1 198.95 189.85 198.95 189.85 199.2 189.95 199.35 190.1 199.45 190.35 199.45
M 187.7 147.55
Q 187.85 147.4 187.85 147.15 187.6 147.15 187.35 147.15 187.35 147.4 187.35 147.65 187.6 147.65 187.7 147.55
M 187.35 137.6
Q 187.35 137.35 187.35 137.1 187.1 137.1 186.85 137.1 186.85 137.35 186.95 137.5 187.1 137.6 187.35 137.6 Z"/>

<path fill="#000000" fill-opacity="0.4235294117647059" stroke="none" d="
M 268.9 370.3
Q 269.05 370.45 269.3 370.45 269.3 370.2 269.15 370.05 269.05 369.95 268.8 369.95 268.8 370.2 268.9 370.3
M 228.45 284.55
Q 228.3 284.45 228.05 284.45 228.05 284.7 228.2 284.8 228.3 284.95 228.55 284.95 228.55 284.7 228.45 284.55
M 195.35 120
Q 195.1 120 194.85 120 194.85 120.25 194.85 120.5 195.1 120.5 195.25 120.4 195.35 120.25 195.35 120
M 197.75 116.85
Q 197.9 116.75 197.9 116.5 197.65 116.5 197.4 116.5 197.4 116.75 197.4 117 197.65 117 197.75 116.85 Z"/>

<path fill="#000000" fill-opacity="0.42745098039215684" stroke="none" d="
M 264.75 354.35
Q 264.5 354.35 264.25 354.35 264.25 354.6 264.4 354.7 264.5 354.85 264.75 354.85 264.75 354.6 264.75 354.35
M 247.15 320.65
Q 247.15 320.9 247.3 321.05 247.4 321.15 247.65 321.15 247.65 320.9 247.55 320.8 247.4 320.65 247.15 320.65
M 185.8 166.75
Q 185.55 166.75 185.3 166.75 185.3 167 185.3 167.3 185.55 167.3 185.7 167.15 185.8 167 185.8 166.75 Z"/>

<path fill="#000000" fill-opacity="0.4117647058823529" stroke="none" d="
M 255.6 332.35
Q 255.45 332.2 255.2 332.2 255.2 332.45 255.35 332.6 255.45 332.7 255.7 332.7 255.7 332.45 255.6 332.35
M 185.3 173.3
L 185.55 173.3
Q 185.55 173.05 185.3 172.8 185.3 173.05 185.3 173.3
M 194.35 127.05
Q 194.35 127.3 194.35 127.55 194.6 127.55 194.75 127.4 194.85 127.3 194.85 127.05 194.6 127.05 194.35 127.05
M 205.3 106.3
Q 205.45 106.2 205.45 105.95 205.2 105.95 204.95 105.95 204.95 106.2 204.95 106.45 205.2 106.45 205.3 106.3 Z"/>

<path fill="#000000" fill-opacity="0.396078431372549" stroke="none" d="
M 241.6 309.35
Q 241.5611328125 309.2611328125 241.5 309.2 241.4 309.1 241.15 309.1 241.15 309.35 241.25 309.45 241.4 309.6 241.65 309.6 241.65 309.451953125 241.6 309.35
M 205.45 111.45
Q 205.2 111.45 204.95 111.45 204.95 111.7 204.95 111.95 205.2 111.95 205.3 111.85 205.45 111.7 205.45 111.45
M 203.8 108.8
Q 203.9 108.7 203.9 108.45 203.65 108.45 203.4 108.45 203.4 108.7 203.4 108.95 203.65 108.95 203.8 108.8 Z"/>

<path fill="#000000" fill-opacity="0.3607843137254902" stroke="none" d="
M 194.9 214.8
Q 194.8931640625 214.7 194.85 214.6
L 194.85 214.8
Q 194.8953125 214.8 194.9 214.8 Z"/>

<path fill="#000000" fill-opacity="0.9254901960784314" stroke="none" d="
M 213.5 99.9
Q 213.25 99.9 212.95 99.9 212.7 100.15 212.45 100.4 212.2 100.65 211.9 100.75 211.45 100.9 211.1 101.1 207.9 102.9 205.45 105.4 205.45 105.65 205.45 105.95 205.45 106.2 205.3 106.3 205.2 106.45 204.95 106.45 204.95 106.7 204.8 106.8 204.7 106.95 204.45 106.95 204.45 107.2 204.45 107.45 204.45 107.7 204.3 107.8 204.15 107.95 203.9 107.95 203.9 108.2 203.9 108.45 203.9 108.7 203.8 108.8 203.65 108.95 203.4 108.95 203.4 109.2 203.3 109.3 202.5 110.05 201.9 110.95 201.9 111.2 201.8 111.35 201.65 111.45 201.4 111.45 201.15 111.45 201.1 111.55 199.7 114.05 197.9 116 197.9 116.25 197.9 116.5 197.9 116.75 197.75 116.85 197.65 117 197.4 117 197.15 117 197.1 117.05 196.6 118.7 195.35 119.5 195.35 119.75 195.35 120 195.35 120.25 195.25 120.4 195.1 120.5 194.85 120.5 193.2 123.35 191.85 126.5 190.45 129.65 188.35 132.05 189.15 132.95 188.45 133.3 188.35 133.35 188.35 133.6 188.35 133.85 188.2 133.95 188.1 134.1 187.85 134.1 187.85 134.35 187.85 134.6 187.85 134.85 187.85 135.1 187.85 135.35 187.7 135.45 187.6 135.6 187.35 135.6 187.35 136.1 187.35 136.6 187.35 136.85 187.35 137.1 187.35 137.35 187.35 137.6 187.35 137.85 187.25 138.05 186.45 139.25 185.8 140.6 185.8 141.4 185.8 142.15 185.8 142.4 185.8 142.65 185.8 142.9 185.7 143.1 185.55 143.4 185.3 143.65 185.3 143.8640625 185.3 144.05 185.3 144.1140625 185.3 144.15 185.3 144.4 185.3 144.65 185.3 144.9 185.35 145.1 185.509765625 145.7123046875 185.35 145.95 185.1974609375 146.1966796875 184.8 146.15 184.55 149.15 184.35 152.2
L 184.3 152.7
Q 184.2552734375 152.687890625 184.2 152.65 183.8384765625 152.570703125 183.5 152.4 183.5048828125 152.8119140625 183.5 153.2 183.5 154.99375 183.35 156.75 183.903125 157.5666015625 183.75 159.05 183.725390625 159.4044921875 183.65 159.8 183.3 161.75 182.95 163.7 182.8 164.55 183.05 166.8 183.05 167 183.05 167.3 182.95 169.15 183.05 170.8 183.2 173 183.55 177.3 183.8 180.6 184.25 183.85 184.95 189.25 186.4 193.9 187.015234375 195.921875 187.45 198.3 187.4955078125 198.6173828125 187.55 198.95 187.6 199.2 187.75 199.5 188.4802734375 200.91484375 188.8 202.65 188.846484375 202.7322265625 188.9 202.8 189.5283203125 205.50234375 190.1 208.3 191.04765625 209.4037109375 191.6 210.9 191.869140625 211.655859375 192.05 212.5 192.95 216.5 194.55 219.7 194.85 220.35 195.1 221 196.3 223.95 197.9 226.6 198.15 226.85 198.15 227.1
L 197.9 227.1
Q 201.45 235.9 205.85 243.75 205.95 243.95 205.95 244.2 206.2 244.2 206.3 244.35 206.45 244.45 206.45 244.7 206.7 244.7 206.8 244.85 206.95 244.95 206.95 245.2 207.7 247.45 208.75 249.35 209.8 251.4 210.95 253.25 211.2 253.25 211.35 253.4 211.45 253.5 211.45 253.75 211.8 255.45 212.85 256.4 212.95 256.55 212.95 256.8 213.25 256.8 213.35 256.9 213.5 257.05 213.5 257.3 214.45 260.1 215.75 262.45 216.15 263.15 217 263.35 217.6 263.45 217.3 264.9 217.25 265.1 217.45 265.35 220.5 269.85 223 274.9 224.25 277.5 225.7 279.8 227 281.95 228.05 284.45 228.3 284.45 228.45 284.55 228.55 284.7 228.55 284.95 229.05 286.2 229.65 287.4 230.15 288.35 230.85 289.15 231.1 289.45 231.2 289.95 231.55 291.25 232.3 292.2 233.1 293.25 233.6 294.5 233.85 294.5 233.95 294.65 234.1 294.75 234.1 295 234.35 295.5 234.65 295.95 234.85 296.25 234.85 296.5 234.860546875 296.7625 234.85 297
L 235.25 297.15
Q 235.55 297.8 235.75 298.4 236.1 299.25 236.6 300.4 236.7892578125 300.8162109375 237.05 301.2 237.4421875 301.2568359375 237.8 301.95 238.1 302.55 238.4 303.15 239.1619140625 304.7828125 239.9 306.4 240.534765625 307.75546875 241.15 309.1 241.4 309.1 241.5 309.2 241.5611328125 309.2611328125 241.6 309.35 241.65 309.451953125 241.65 309.6 242.8 312.7 244.75 315.05 245.65 316.1 244.9 316.9
L 245.2 317.1
Q 246.65 318.4 247.15 320.65 247.4 320.65 247.55 320.8 247.65 320.9 247.65 321.15 247.65 321.4 247.65 321.65 247.9 321.65 248.05 321.8 248.2 321.9 248.2 322.15 250.7 327.15 253.1 332.25 253.2 332.45 253.2 332.7 253.45 332.7 253.6 332.85 253.7 332.95 253.7 333.2 256.45 340.3 259.65 346.85 259.75 347.05 259.75 347.3 260 347.3 260.1 347.45 260.25 347.55 260.25 347.8 260.85 348.9 261.2 350.35 261.6 352 262.25 353.35 262.5 353.35 262.65 353.45 262.75 353.6 262.75 353.85 264.25 356.15 264.95 359.3 265 359.6 265.15 359.9 266.05 362.35 266.8 364.9 267.05 364.9 267.15 365.05 267.3 365.15 267.3 365.4 267.7 367.75 268.7 369.5 268.8 369.7 268.8 369.95 269.05 369.95 269.15 370.05 269.3 370.2 269.3 370.45 270 373 270.65 375.5 270.8 376.2 271.15 376.75 271.3 376.95 271.7 377.15 271.8 377.2 271.8 377.45 271.8 377.75 271.8 378 271.8 378.5 271.8 379 271.8 379.25 271.8 379.5 272.05 379.75 272.2 380.05 272.3 380.25 272.3 380.5 272.3 381 272.3 381.5 272.3 381.75 272.3 382 272.55 382 272.7 382.15 272.8 382.25 272.8 382.5 274.15 384 273.6 385.6 273.55 385.75 273.75 386.05 274.6 387.25 274.6 389.55 274.6 389.8 274.85 390.05 275.3 390.55 275.35 391.55 275.35 391.8 275.35 392.05 275.35 392.3 275.35 392.55 276.3 393.1 275.65 394.25 275.6 394.3 275.75 394.6 276.45 395.95 276.1 396.3 275.85 396.6 276 397 276.8 399.05 277.45 397.1 277.85 395.8 277.05 393.5 276.85 392.8 276.65 392.1 276.35 391.05 275.85 390.05 275.85 389.8 275.85 389.55 275.85 389.3 275.85 389.05 275.85 388.55 275.85 388.05 275.6 388.05 275.45 387.9 275.35 387.8 275.35 387.55 275.35 387.3 275.35 387.05 275.35 386.8 275.35 386.55 275.1 386.55 274.95 386.4 274.85 386.25 274.85 386 274.85 385.75 274.8 385.5 274.3 383 273.8 380.5 273.55 380.5 273.45 380.35 273.3 380.25 273.3 380 273.3 379.75 273.25 379.5 273.05 379 272.8 378.5 272.8 378.25 272.8 378 272.8 377.75 272.8 377.45 272.8 376.95 272.8 376.45 272.55 376.45 272.5 376.35 272.3 375.95 272.3 375.45 272.3 375.2 272.2 375.1 271.3 374.2 271.3 372.45 271.05 372.45 270.95 372.3 270.8 372.2 270.8 371.95 270.8 371.2 270.65 370.5 270.55 370.2 270.4 369.9 269.9 368.85 269.8 367.4 269.8 366.9 269.55 366.6 269.05 365.9 269 364.9 268.9 363 268 362.15 266.85 361.1 266.5 359.3 265.95 356.7 264.75 354.85 264.5 354.85 264.4 354.7 264.25 354.6 264.25 354.35 264.5 354.35 264.75 354.35 264.75 354.1 264.7 353.85 263.9 351.95 262.75 350.3 262.5 350.3 262.4 350.2 262.25 350.05 262.25 349.8 262.25 349.55 262.35 349.35 262.85 348.05 262.25 347.3 262 347.3 261.9 347.2 261.75 347.05 261.75 346.8 261.7 345.35 260.8 344.75 260.5 344.55 260.4 344.25 259.7 341.8 258.75 339.75 258.5 339.75 258.35 339.65 258.25 339.5 258.25 339.25 258.25 339 258.15 338.8 258 338.25 257.75 337.75 257.5 337.75 257.35 337.6 257.25 337.5 257.25 337.25 256.45 336.5 256.3 335.25 256.1 333.85 255.7 332.7 255.45 332.7 255.35 332.6 255.2 332.45 255.2 332.2 254.95 331.7 254.7 331.2 254.45 330.7 254.45 330.2 254.5 328.4 253.4 327.85 252.15 327.25 251.75 325.65 251.2 323.15 249.8 321.55 249.45 321.15 249.15 320.7 247.9 318.65 247.15 316.1 246.9 316.1 246.8 316 246.65 315.85 246.65 315.6
L 246.4 315.6
Q 246.05 312.75 244.65 311.1 244.4 311.1 244.3 310.95 244.15 310.85 244.15 310.6 244.15 310.35 244.05 310.15 243.63203125 309.373828125 243.25 308.55 242.8091796875 307.6525390625 242.4 306.7 242.278125 306.37421875 242.15 306.05 241.9 306.05 241.75 305.95 241.65 305.8 241.65 305.55 240.85 303.85 239.85 302.2 238.95 300.75 238.6 298.5 238.6888671875 298.389453125 238.75 298.25 238.021484375 297.0015625 237.25 295.65 237.184765625 295.8216796875 237.1 296 236.15 294.2 234.7 292.9 234 292.25 234.3 290.9 234.35 290.75 234.15 290.45 233.3 289.25 232.35 288.2 232.1 287.95 232 287.5 231.65 285.9 230.85 284.75 229.3 282.45 227.95 280 226.95 278.25 226.05 276.4 224.85 273.85 223.5 271.4 222.95 270.45 222.15 269.75 220.8 268.55 221.2 267.25 221.25 267.1 221.05 266.8 220.15 265.7 219.45 264.35 216.9 259.4 214.05 254.75 213.25 253.5 212.8 251.8 212.7 251.5 212.45 251.25 210.6 249.35 209.6 246.35 209.2 245 208.2 243.95 207.95 243.7 207.85 243.25 207.6 241.55 206.7 240.5 206.45 240.2 206.2 239.95 205.95 239.7 205.7 239.45 205.45 239.2 205.3 238.75 204.4 235.95 202.95 233.65 202.3 232.5 201.8 231.2 200.35 227.15 198.5 223.55 198 222.5 197.55 221.2 197.4 220.6 197.2 220 196.85 218.6 195.9 218 195.0302734375 217.4201171875 195.3 215.65 195.1255859375 215.24375 194.9 214.8 194.8953125 214.8 194.85 214.8
L 194.85 214.6
Q 193.609765625 211.7068359375 192.85 208.35 192.51484375 207.7470703125 192.2 207.05 191.8169921875 206.058984375 191.55 204.95 190.7 201.65 190.35 199.45 190.1 199.45 189.95 199.35 189.85 199.2 189.85 198.95 189.85 198.7 189.75 198.5 188.95 196.6 188.85 193.95 188.6 193.95 188.45 193.8 188.35 193.7 188.35 193.4 188.35 193.15 188.2 193 187.75 192.3 187.85 190.9 187.6 190.9 187.55 190.85 187.35 190.15 187.35 189.4 187.6 189.4 187.85 189.4 187.85 189.15 187.75 188.95 186.2 185.75 186.3 180.85 186.05 180.85 185.95 180.75 185.8 180.6 185.8 180.35 185.8 180.1 185.85 179.85 186.15 176 185.3 173.3 185.3 173.05 185.3 172.8 185.3 172.55 185.3 172.3 185.3 172.05 185.3 171.8 185.55 171.8 185.8 171.8 185.35 171.25 185.55 170.35 185.95 168.4 185.3 167.3 185.3 167 185.3 166.75 185.55 166.75 185.8 166.75 185.8 166.5 185.7 166.45 184.95 166.1 185.3 164.75 185.903515625 164.6435546875 185.9 163.9 185.9369140625 163.6416015625 185.85 163.25 185.8 163 185.8 162.75 185.55 162.75 185.5 162.65 185.3 162.25 185.3 161.75 185.55 161.75 185.8 161.75 185.8 161.5 185.8 161.25 185.8 160.5 185.8 159.75 185.9505859375 159.81171875 186.1 159.85 185.88828125 158.166796875 186.3 156.85 186.3 156.7869140625 186.3 156.7 186.3 156.45 186.2 156.25 186.05 155.95 185.8 155.7 185.9310546875 155.4802734375 186.05 155.25 187.4884765625 152.4876953125 187.35 148.15 187.35 147.9 187.35 147.65 187.35 147.4 187.35 147.15 187.6 147.15 187.85 147.15 187.85 146.9 187.85 146.65 187.85 146.45234375 187.85 146.25 187.85 145.45234375 187.85 144.65 187.85 144.4 187.85 144.15 187.85 143.9 187.85 143.65
L 187.85 143.6
Q 187.85 143.375 187.85 143.15 189.35 141.9 189.7 139.15 189.9 137.4 190.55 135.95 190.85 135.35 191.15 134.75 192.85 131.3 194.35 127.55 194.35 127.3 194.35 127.05 194.6 127.05 194.85 127.05 194.85 126.8 194.85 126.55 197.25 122.9 199.45 119.05 199.65 118.75 199.9 118.5 202.65 115.5 204.95 111.95 204.95 111.7 204.95 111.45 205.2 111.45 205.45 111.45 205.45 111.2 205.45 110.95 206.45 109.95 207.3 108.85 207.45 108.7 207.45 108.45 207.45 108.2 207.45 107.95 207.7 107.95 207.95 107.95 207.95 107.7 207.95 107.45 209.65 106.65 210.65 105 210.7 104.9 210.95 104.9 210.95 104.65 210.95 104.4 211.2 104.4 211.45 104.4 213.1 103 213.9 100.85 214 100.65 214 100.4 213.75 100.4 213.6 100.25 213.5 100.15 213.5 99.9
M 225.55 277.65
L 225.55 277.4
Q 226.7 277.65 225.55 277.65 Z"/>

<path fill="#000000" fill-opacity="0.2784313725490196" stroke="none" d="
M 225.55 277.4
L 225.55 277.65
Q 226.7 277.65 225.55 277.4 Z"/>
</g>

<g id="Layer1_0_FILL">
<path fill="#000000" fill-opacity="0.4196078431372549" stroke="none" d="
M 236.5 430.4
Q 236.35 430.3 236.1 430.3 236.1 430.55 236.25 430.65 236.35 430.8 236.6 430.8 236.6 430.55 236.5 430.4
M 209.45 370.45
Q 209.45 370.7 209.45 370.95
L 209.7 370.95
Q 209.7 370.7 209.45 370.45
M 225.55 320.15
Q 225.55 320.4 225.55 320.65 225.8 320.65 225.9 320.5 226.05 320.4 226.05 320.15 225.8 320.15 225.55 320.15 Z"/>

<path fill="#000000" fill-opacity="0.40784313725490196" stroke="none" d="
M 236 429.9
Q 235.85 429.75 235.6 429.75 235.6 430 235.75 430.15 235.85 430.3 236.1 430.3 236.1 430 236 429.9
M 243.8 434.7
Q 243.9 434.8 244.15 434.8 244.15 434.55 244.05 434.4 243.9 434.3 243.65 434.3 243.65 434.55 243.8 434.7
M 209.35 365.55
Q 209.2 365.4 208.95 365.4 208.95 365.65 209.1 365.8 209.2 365.9 209.45 365.9 209.45 365.65 209.35 365.55
M 214.5 337.75
Q 214.75 337.75 214.85 337.6 215 337.5 215 337.25 214.75 337.25 214.5 337.25 214.5 337.5 214.5 337.75
M 256.6 269.75
Q 256.7 269.6 256.7 269.35 256.45 269.35 256.2 269.35 256.2 269.6 256.2 269.85 256.45 269.85 256.6 269.75 Z"/>

<path fill="#000000" fill-opacity="0.41568627450980394" stroke="none" d="
M 235.25 426.65
Q 235.35 426.75 235.6 426.75 235.6 426.5 235.5 426.4 235.35 426.25 235.1 426.25 235.1 426.5 235.25 426.65
M 232.1 302.55
Q 232.35 302.55 232.45 302.4 232.6 302.3 232.6 302.05 232.35 302.05 232.1 302.05 232.1 302.3 232.1 302.55
M 235.6 302.55
Q 235.6 302.8 235.6 303.05 235.85 303.05 236 302.9 236.1 302.8 236.1 302.55 235.85 302.55 235.6 302.55 Z"/>

<path fill="#000000" fill-opacity="0.4" stroke="none" d="
M 222.55 414.2
Q 222.55 413.95 222.4 413.8 222.3 413.7 222.05 413.7 222.05 413.95 222.15 414.05 222.3 414.2 222.55 414.2
M 243.15 433.8
Q 243.15 433.55 243 433.4 242.9 433.3 242.65 433.3 242.65 433.55 242.75 433.65 242.9 433.8 243.15 433.8
M 259.25 270.35
Q 259 270.35 258.75 270.35 258.75 270.6 258.75 270.85 259 270.85 259.1 270.75 259.25 270.6 259.25 270.35
M 254.7 271.35
Q 254.7 271.6 254.7 271.85 254.95 271.85 255.1 271.75 255.2 271.6 255.2 271.35 254.95 271.35 254.7 271.35 Z"/>

<path fill="#000000" fill-opacity="0.43529411764705883" stroke="none" d="
M 219.15 402
Q 219.25 402.1 219.5 402.1 219.5 401.85 219.4 401.75 219.25 401.6 219 401.6 219 401.85 219.15 402
M 212.45 373.95
Q 212.2 373.95 211.95 373.95 211.95 374.2 212.1 374.35 212.2 374.45 212.45 374.45 212.45 374.2 212.45 373.95
M 212.45 363.9
Q 212.2 363.9 211.95 363.9 211.95 364.15 212.1 364.25 212.2 364.4 212.45 364.4 212.45 364.15 212.45 363.9
M 209.95 357.85
Q 210.2 357.85 210.35 357.75 210.45 357.6 210.45 357.35 210.2 357.35 209.95 357.35 209.95 357.6 209.95 357.85
M 264.25 265.35
Q 264 265.35 263.75 265.35 263.75 265.6 263.75 265.85 264 265.85 264.15 265.7 264.25 265.6 264.25 265.35 Z"/>

<path fill="#000000" fill-opacity="0.4235294117647059" stroke="none" d="
M 218 398.1
Q 218 397.85 217.9 397.7 217.75 397.6 217.5 397.6 217.5 397.85 217.65 397.95 217.75 398.1 218 398.1
M 214.85 348.7
Q 215 348.55 215 348.3 214.75 348.3 214.5 348.3 214.5 348.55 214.5 348.8 214.75 348.8 214.85 348.7
M 229.55 313.1
Q 229.8 313.1 229.95 313 230.05 312.85 230.05 312.6 229.8 312.6 229.55 312.6 229.55 312.85 229.55 313.1 Z"/>

<path fill="#000000" fill-opacity="0.403921568627451" stroke="none" d="
M 223.05 414.7
Q 223.05 414.45 222.9 414.3 222.8 414.2 222.55 414.2 222.55 414.45 222.65 414.55 222.8 414.7 223.05 414.7 Z"/>

<path fill="#000000" fill-opacity="0.4392156862745098" stroke="none" d="
M 226.05 419.7
Q 226.05 419.95 226.2 420.1 226.3 420.2 226.55 420.2 226.55 419.95 226.45 419.85 226.3 419.7 226.05 419.7
M 211.95 345.3
Q 211.95 345.55 211.95 345.8 212.2 345.8 212.35 345.65 212.45 345.55 212.45 345.3 212.2 345.3 211.95 345.3
M 228.55 314.6
Q 228.8 314.6 228.95 314.5 229.05 314.35 229.05 314.1 228.8 314.1 228.55 314.1 228.55 314.35 228.55 314.6 Z"/>

<path fill="#000000" fill-opacity="0.396078431372549" stroke="none" d="
M 244.15 437.3
Q 244.15 437.05 244.05 436.95 243.9 436.8 243.65 436.8 243.65 437.05 243.8 437.2 243.9 437.3 244.15 437.3
M 215.1 389.9
Q 215.25 390.05 215.5 390.05 215.5 389.8 215.35 389.65 215.25 389.55 215 389.55 215 389.8 215.1 389.9
M 212.95 381.5
Q 212.95 381.75 213.1 381.85 213.25 382 213.5 382 213.5 381.75 213.35 381.6 213.25 381.5 212.95 381.5
M 214.35 350.2
Q 214.5 350.05 214.5 349.8 214.25 349.8 214 349.8 214 350.05 214 350.3 214.25 350.3 214.35 350.2
M 214 352.35
Q 213.75 352.35 213.5 352.35 213.5 352.6 213.5 352.85 213.75 352.85 213.85 352.7 214 352.6 214 352.35 Z"/>

<path fill="#000000" fill-opacity="0.4117647058823529" stroke="none" d="
M 212.45 372.95
Q 212.45 372.7 212.35 372.5 212.2 372.2 211.95 371.95 211.95 372.45 212.15 372.85 212.2 372.95 212.45 372.95
M 209.45 367.9
Q 209.2 367.9 208.95 367.9 208.95 368.15 208.95 368.4 209.2 368.4 209.35 368.3 209.45 368.15 209.45 367.9
M 223.9 324.55
Q 224.05 324.4 224.05 324.15 223.8 324.15 223.55 324.15 223.55 324.4 223.55 324.65 223.8 324.65 223.9 324.55
M 263.65 261.7
Q 263.75 261.55 263.75 261.3 263.5 261.3 263.25 261.3 263.25 261.55 263.25 261.8 263.5 261.8 263.65 261.7 Z"/>

<path fill="#000000" fill-opacity="0.42745098039215684" stroke="none" d="
M 209.95 360.9
Q 209.7 360.9 209.45 360.9 209.45 361.15 209.45 361.4 209.7 361.4 209.85 361.25 209.95 361.15 209.95 360.9
M 213.5 355.35
Q 213.25 355.35 212.95 355.35 212.95 355.6 212.95 355.85 213.25 355.85 213.35 355.75 213.5 355.6 213.5 355.35 Z"/>

<path fill="#000000" fill-opacity="0.43137254901960786" stroke="none" d="
M 211.45 347.8
Q 211.45 348.05 211.45 348.3 211.7 348.3 211.85 348.2 211.95 348.05 211.95 347.8 211.7 347.8 211.45 347.8
M 215.5 345.3
Q 215.75 345.3 215.85 345.15 216 345.05 216 344.8 215.75 344.8 215.5 344.8 215.5 345.05 215.5 345.3
M 227.95 309.95
Q 228.05 309.85 228.05 309.6 227.8 309.6 227.55 309.6 227.55 309.85 227.55 310.1 227.8 310.1 227.95 309.95 Z"/>

<path fill="#000000" fill-opacity="0.9254901960784314" stroke="none" d="
M 274.3 244.7
Q 272.75 243.65 272.6 245.75 272.55 245.95 272.55 246.25 272.5 248.65 271.45 250.35 270.7 251.65 269.95 252.85 267.35 257.35 263.75 260.8 263.75 261.05 263.75 261.3 263.75 261.55 263.65 261.7 263.5 261.8 263.25 261.8 263 262.05 262.8 262.35 262.5 262.8 262.15 263.2 260.2599609375 264.990625 258.45 266.9 257.57578125 267.8564453125 256.7 268.85 256.7 269.1 256.7 269.35 256.7 269.6 256.6 269.75 256.45 269.85 256.2 269.85 256.2 270.1 256.1 270.25 255.71953125 270.5828125 255.25 270.8 255.2244140625 270.8376953125 255.2 270.85 255.2 271.1 255.2 271.35 255.2 271.6 255.1 271.75 254.95 271.85 254.7 271.85 253.94609375 271.952734375 253.65 272.6 253.5314453125 272.9251953125 253.5 273.35
L 253.45 273.6
Q 253.2990234375 273.4853515625 253.15 273.35
L 253.15 273.85 252.85 274.5 252.5 274.65 250.85 276.5
Q 250.7798828125 276.546875 250.7 276.6 250.221484375 277.798046875 249.4 278.65 248.7 279.4 248.1 280.35 245.4 284.4 242.4 288.15 242.15 288.45 241.9 288.75 239.1740234375 291.762890625 237.25 295.65 237.184765625 295.8216796875 237.1 296 236.92890625 295.67578125 236.75 295.35 236.475 295.8666015625 236.2 296.35 235.9 296.85 235.7 297.3
L 235.35 297.45 235.2 297.8 234.85 297.95 234.75 298.1
Q 234.4294921875 300.5208984375 232.6 301.55 232.6 301.8 232.6 302.05 232.6 302.3 232.45 302.4 232.35 302.55 232.1 302.55 232.1 302.8 232 303 230.2 306.2 228.05 309.1 228.05 309.35 228.05 309.6 228.05 309.85 227.95 309.95 227.8 310.1 227.55 310.1 227.55 310.35 227.45 310.55 227.3947265625 310.6484375 227.35 310.75 225.854296875 313.4015625 224.4 316.1 220.840234375 322.98359375 217.65 330.25 217 331.7 216.6 333.25 216.2 334.95 215 335.75 215 336.25 215 336.75 215 337 215 337.25 215 337.5 214.85 337.6 214.75 337.75 214.5 337.75 214.5 338.75 214.25 339.7 214 340.5 213.85 341.35 213.4 343.45 212.45 344.8 212.45 345.05 212.45 345.3 212.45 345.55 212.35 345.65 212.2 345.8 211.95 345.8 211.95 346.55 211.95 347.3 211.95 347.55 211.95 347.8 211.95 348.05 211.85 348.2 211.7 348.3 211.45 348.3 211.45 348.55 211.45 348.8 211.4 351 210.45 352.35 210.45 354.6 210.45 356.85 210.45 357.1 210.45 357.35 210.45 357.6 210.35 357.75 210.2 357.85 209.95 357.85 209.95 359.1 209.95 360.4 209.95 360.65 209.95 360.9 209.95 361.15 209.85 361.25 209.7 361.4 209.45 361.4 209.45 361.65 209.5 361.9 209.8 364 208.95 364.9 208.95 365.15 208.95 365.4 209.2 365.4 209.35 365.55 209.45 365.65 209.45 365.9 209.45 366.65 209.45 367.4 209.45 367.65 209.45 367.9 209.45 368.15 209.35 368.3 209.2 368.4 208.95 368.4 209 369.4 209.35 370 209.45 370.2 209.45 370.45 209.7 370.7 209.7 370.95
L 209.45 370.95
Q 209.45 378.5 211.2 384.1 211.45 385 211.5 386 211.5 387.5 212.2 388.25 212.45 388.55 212.55 389.05 212.95 392.3 214.3 394.7 214.5 395.05 214.6 395.55 215.75 400.85 217.85 405.2 219.9 409.5 222.05 413.7 222.3 413.7 222.4 413.8 222.55 413.95 222.55 414.2 222.8 414.2 222.9 414.3 223.05 414.45 223.05 414.7 224.1 417.4 225.9 419.35 226.05 419.45 226.05 419.7 226.3 419.7 226.45 419.85 226.55 419.95 226.55 420.2 230.7 425.1 235.25 429.65 235.35 429.75 235.6 429.75 235.85 429.75 236 429.9 236.1 430 236.1 430.3 236.35 430.3 236.5 430.4 236.6 430.55 236.6 430.8 240.2 433.5 243.25 436.7 243.4 436.8 243.65 436.8 243.9 436.8 244.05 436.95 244.15 437.05 244.15 437.3 245.5 438.5 247.1 439.45 248.2 440.1 249.15 440.85 250.2 441.7 250.95 440.65 251.2 440.35 250.95 440.2 247.25 437.7 244.15 434.8 243.9 434.8 243.8 434.7 243.65 434.55 243.65 434.3 243.65 434.05 243.5 433.9 243.4 433.8 243.15 433.8 242.9 433.8 242.75 433.65 242.65 433.55 242.65 433.3 242.65 433.05 242.5 432.95 238.95 429.9 235.6 426.75 235.35 426.75 235.25 426.65 235.1 426.5 235.1 426.25 233.1 424 231.2 421.65 230.85 421.25 230.45 420.85 223.2 413.25 219.5 402.1 219.25 402.1 219.15 402 219 401.85 219 401.6 219 401.35 218.9 401.15 218.35 399.8 218 398.1 217.75 398.1 217.65 397.95 217.5 397.85 217.5 397.6 217.5 397.35 217.45 397.1 216.3 393.75 215.5 390.05 215.25 390.05 215.1 389.9 215 389.8 215 389.55 215 389.3 214.95 389.05 214.1 385.65 213.5 382 213.25 382 213.1 381.85 212.95 381.75 212.95 381.5 212.95 381.25 212.95 381 212.65 377.8 212.45 374.45 212.2 374.45 212.1 374.35 211.95 374.2 211.95 373.95 212.2 373.95 212.45 373.95 212.45 373.7 212.45 373.45 212.45 373.2 212.45 372.95 212.2 372.95 212.15 372.85 211.95 372.45 211.95 371.95 211.95 371.7 212 371.45 212.25 368.9 211.45 367.4 212.1 366.3 212.4 364.9 212.45 364.65 212.45 364.4 212.2 364.4 212.1 364.25 211.95 364.15 211.95 363.9 212.2 363.9 212.45 363.9 212.45 363.65 212.45 363.4 212.45 360.15 212.45 356.85 212.7 356.6 212.85 356.3 212.95 356.1 212.95 355.85 212.95 355.6 212.95 355.35 213.25 355.35 213.5 355.35 213.5 355.1 213.5 354.85 213.5 353.85 213.5 352.85 213.5 352.6 213.5 352.35 213.75 352.35 214 352.35 214 352.1 214 351.85 214 351.05 214 350.3 214 350.05 214 349.8 214.25 349.8 214.5 349.8 214.5 349.55 214.5 349.3 214.5 349.05 214.5 348.8 214.5 348.55 214.5 348.3 214.75 348.3 215 348.3 215 348.05 215 347.8 215 347.3 215 346.8 215.8 346.85 215.55 345.75 215.5 345.55 215.5 345.3 215.5 345.05 215.5 344.8 215.75 344.8 216 344.8 216 344.55 216 344.3 216 343.8 216 343.3 217 341.8 217.6 339.8 219.9 331.6 223.55 324.65 223.55 324.4 223.55 324.15 223.8 324.15 224.05 324.15 224.05 323.9 224.05 323.65 224.05 323.4 224.05 323.15 224.8 322.15 225.45 321.1 225.55 320.9 225.55 320.65 225.55 320.4 225.55 320.15 225.8 320.15 226.05 320.15 226.05 319.9173828125 226.05 319.65
L 226.05 319.65
Q 226.05 318.9 226.05 318.15 227.65 317.7 227.8 315.65 227.8 315.35 228.05 315.1 228.3 314.85 228.55 314.6 228.55 314.35 228.55 314.1 228.8 314.1 229.05 314.1 229.05 313.85 229.05 313.6 229.3 313.6 229.45 313.5 229.55 313.35 229.55 313.1 229.55 312.85 229.55 312.6 229.8 312.6 230.05 312.6 230.05 312.35 230.05 312.1 230.5580078125 311.5603515625 230.95 310.95 231.8404296875 309.6380859375 232.25 308 232.35 307.6 232.35 307.05 232.35 306.8 232.6 306.6 234.35 305.1 235.6 303.05 235.6 302.8 235.6 302.55 235.85 302.55 236.1 302.55 236.1 302.3 236.1 302.05 236.3361328125 301.6169921875 236.55 301.4 236.8099609375 300.781640625 237.1 300.25 237.55 299.55 238.2 299.15
L 238.35 298.65 238.95 298
Q 245.367578125 290.037890625 251.05 281.15 251.2 280.9 251.45 280.65 251.7 280.4 251.85 280 252.125390625 279.387890625 252.55 278.9 252.74921875 278.7404296875 252.95 278.55
L 253 278.15
Q 253.45 277.8 253.85 277.3 254.1 276.85 254.15 276.35
L 254.5 276 254.7 275.9
Q 254.78671875 275.8521484375 254.85 275.8
L 255 275.5
Q 255.3087890625 275.378125 255.6 275.25 256.4078125 274.5328125 256.9 273.45 257.25 272.65 257.95 272.15 258.19453125 271.9806640625 258.35 271.75 258.6564453125 271.3802734375 258.75 270.85 258.75 270.6 258.75 270.35 259 270.35 259.25 270.35 260.3419921875 269.4919921875 261.3 268.5 262.233984375 267.6080078125 263.05 266.6 263.25 266.35 263.65 266.15 263.75 266.1 263.75 265.85 263.75 265.6 263.75 265.35 264 265.35 264.25 265.35 265.85 262.1 268.3 259.8 268.55 259.55 268.75 259.6 269.85 259.65 270.1 258.85 270.45 257.4 271.1 256.2 271.55 255.3 272.1 254.45 273.35 252.55 274.15 250.2 274.3 249.75 274.5 249.3 275.35 246.9 274.3 244.7 Z"/>
</g>
</defs>

<mask id="Mask_Mask_1">
<g transform="matrix( 1, 0, 0, 1, 0,0) ">
<use xlink:href="#Mask_7_MASK_0_FILL"/>
</g>
</mask>

<g mask="url(#Mask_Mask_1)">
<g transform="matrix( 1, 0, 0, 1, 0,0) ">
<use xlink:href="#Layer7_0_FILL"/>
</g>
</g>

<mask id="Mask_Mask_2">
<g transform="matrix( 1, 0, 0, 1, 0,0) ">
<use xlink:href="#Mask_5_MASK_0_FILL"/>
</g>
</mask>

<g mask="url(#Mask_Mask_2)">
<g transform="matrix( 1, 0, 0, 1, 0,0) ">
<use xlink:href="#Layer5_0_FILL"/>
</g>
</g>

<g transform="matrix( 1, 0, 0, 1, 0,0) ">
<use xlink:href="#Layer3_0_FILL"/>
</g>

<g transform="matrix( 1, 0, 0, 1, 0,0) ">
<use xlink:href="#Layer1_0_FILL"/>
</g>
</svg>
