
<svg xmlns="http://www.w3.org/2000/svg" version="1.1" xmlns:xlink="http://www.w3.org/1999/xlink" preserveAspectRatio="none" x="0px" y="0px" width="500px" height="500px" viewBox="0 0 500 500">
<defs>
<g id="Mask_7_MASK_0_FILL">
<path fill="#FFFFFF" stroke="none" d="
M 331.55 283.95
L 331.55 204.95 23.05 204.95 23.05 283.95 331.55 283.95 Z"/>
</g>

<g id="Layer7_0_FILL">
<path fill="#000000" fill-opacity="0.49019607843137253" stroke="none" d="
M 212.05 254.05
Q 212.05 253.8 211.9 253.7 211.8 253.6 211.55 253.6 211.55 253.8 211.65 253.95 211.8 254.05 212.05 254.05
M 242.65 264.1
Q 242.55 264 242.3 264 242.3 264.25 242.4 264.35 242.55 264.5 242.75 264.5 242.75 264.25 242.65 264.1
M 225.4 260.5
Q 225.4 260.75 225.55 260.9 225.65 261 225.9 261 225.9 260.75 225.8 260.65 225.65 260.5 225.4 260.5
M 281.95 263
Q 281.7 263 281.45 263 281.45 263.25 281.45 263.5 281.7 263.5 281.85 263.35 281.95 263.25 281.95 263
M 141.1 257.55
Q 141.1 257.8 141.1 258.05 141.35 258.05 141.5 257.9 141.6 257.8 141.6 257.55 141.35 257.55 141.1 257.55 Z"/>

<path fill="#000000" fill-opacity="0.45098039215686275" stroke="none" d="
M 207.05 254.55
Q 207.3 254.55 207.55 254.55 207.55 254.3 207.45 254.2 207.3 254.05 207.05 254.05 207.05 254.3 207.05 254.55
M 215.6 257.4
Q 215.75 257.55 216 257.55 216 257.3 215.85 257.15 215.75 257.05 215.5 257.05 215.5 257.3 215.6 257.4
M 213.4 254.2
Q 213.25 254.05 213 254.05 213 254.3 213.15 254.45 213.25 254.55 213.5 254.55 213.5 254.3 213.4 254.2
M 137 260.4
Q 137.15 260.25 137.15 260 136.9 260 136.65 260 136.65 260.25 136.65 260.5 136.9 260.5 137 260.4
M 115.3 265.95
Q 115.05 265.95 114.8 265.95 114.6 265.95 114.35 265.95 114.35 266.2 114.35 266.45 114.8 266.45 115.2 266.25 115.3 266.2 115.3 265.95
M 108.85 265.95
Q 108.65 265.95 108.4 265.95 108.4 266.2 108.4 266.45 108.65 266.45 108.75 266.35 108.85 266.2 108.85 265.95 Z"/>

<path fill="#000000" fill-opacity="0.403921568627451" stroke="none" d="
M 205.6 253.6
Q 205.35 253.6 205.1 253.6 205.35 253.8 205.6 253.8
L 205.6 253.6
M 199.65 253.1
Q 199.65 252.85 199.5 252.7 199.4 252.6 199.15 252.6 199.15 252.85 199.25 252.95 199.4 253.1 199.65 253.1
M 55.8 275.9
Q 55.8 275.65 55.7 275.5 55.55 275.4 55.3 275.4 55.3 275.65 55.45 275.75 55.55 275.9 55.8 275.9
M 149.4 255.95
Q 149.55 255.8 149.55 255.55 149.3 255.55 149.05 255.55 149.05 255.8 149.05 256.05 149.3 256.05 149.4 255.95 Z"/>

<path fill="#000000" fill-opacity="0.5058823529411764" stroke="none" d="
M 203.6 253.1
Q 203.6 253.35 203.6 253.6 203.85 253.6 203.95 253.45 204.1 253.35 204.1 253.1 203.85 253.1 203.6 253.1
M 280.85 261.9
Q 280.95 261.75 280.95 261.5 280.7 261.5 280.45 261.5 280.45 261.75 280.45 262 280.7 262 280.85 261.9
M 68.6 274.2
Q 68.7 274.15 68.7 273.9 68.45 273.9 68.2 273.9 67.95 273.9 67.7 273.9 67.65 274.75 68.6 274.2
M 71.7 273.9
Q 72.4 273.9 73.1 273.7 73.15 273.65 73.15 273.4 72.9 273.4 72.65 273.4 72.2 273.4 71.7 273.4 71.7 273.65 71.7 273.9 Z"/>

<path fill="#000000" fill-opacity="0.43137254901960786" stroke="none" d="
M 203.1 251.6
Q 203.1 251.35 203 251.2 202.85 251.1 202.6 251.1 202.6 251.35 202.75 251.45 202.85 251.6 203.1 251.6
M 241.3 265.95
Q 241.3 265.75 241.15 265.6 241.05 265.5 240.8 265.5 240.8 265.75 240.9 265.85 241.05 265.95 241.3 265.95
M 293.35 253.6
Q 293.1 253.6 292.85 253.6 292.85 253.8 292.85 254.05 293.1 254.05 293.25 253.95 293.35 253.8 293.35 253.6
M 244.25 266.45
Q 244.25 266.2 244.15 266.1 244 265.95 243.75 265.95 243.75 266.2 243.9 266.35 244 266.45 244.25 266.45
M 135.65 259.05
Q 135.4 259.05 135.15 259.05 135.15 259.3 135.15 259.55 135.4 259.55 135.55 259.4 135.65 259.3 135.65 259.05 Z"/>

<path fill="#000000" fill-opacity="0.47843137254901963" stroke="none" d="
M 204.1 251.6
Q 204.1 251.85 204.2 251.95 204.35 252.1 204.6 252.1 204.6 251.85 204.45 251.7 204.35 251.6 204.1 251.6
M 308.6 232.6
Q 308.75 232.5 308.75 232.25 308.5 232.25 308.25 232.25 308.25 232.5 308.25 232.75 308.5 232.75 308.6 232.6
M 65.6 276.25
Q 65.75 276.15 65.75 275.9 65.5 275.9 65.25 275.9 65.25 276.15 65.25 276.4 65.5 276.4 65.6 276.25
M 43.9 270.95
Q 43.9 270.7 43.8 270.55 43.65 270.45 43.4 270.45 43.4 270.7 43.55 270.8 43.65 270.95 43.9 270.95 Z"/>

<path fill="#000000" fill-opacity="0.43529411764705883" stroke="none" d="
M 221.1 259.4
Q 221.2 259.55 221.45 259.55 221.45 259.3 221.3 259.15 221.2 259.05 220.95 259.05 220.95 259.3 221.1 259.4
M 216.35 255.2
Q 216.25 255.05 216 255.05 216 255.3 216.1 255.45 216.25 255.55 216.5 255.55 216.5 255.3 216.35 255.2
M 285.9 260.5
Q 285.65 260.5 285.4 260.5 285.2 260.5 284.95 260.5 284.95 260.75 284.95 261 285.4 261 285.8 260.8 285.9 260.75 285.9 260.5
M 103.8 268.85
Q 103.9 268.7 103.9 268.45 103.65 268.45 103.4 268.45 103.4 268.7 103.4 268.95 103.65 268.95 103.8 268.85 Z"/>

<path fill="#000000" fill-opacity="0.5333333333333333" stroke="none" d="
M 219.95 259.05
Q 219.95 258.8 219.85 258.65 219.7 258.55 219.45 258.55 219.45 258.8 219.6 258.9 219.7 259.05 219.95 259.05
M 140.1 259.05
Q 140.1 259.3 140.1 259.55 140.35 259.55 140.6 259.55 140.6 259.3 140.5 259.15 140.35 259.05 140.1 259.05
M 110.35 265.5
Q 110.35 265.75 110.35 265.95 110.6 265.95 110.75 265.85 110.85 265.75 110.85 265.5 110.6 265.5 110.35 265.5 Z"/>

<path fill="#000000" fill-opacity="0.4666666666666667" stroke="none" d="
M 218.35 258.15
Q 218.25 258.05 218 258.05 218 258.3 218.1 258.4 218.25 258.55 218.45 258.55 218.45 258.3 218.35 258.15
M 247.25 264.5
Q 247 264.5 246.75 264.5 246.5 264.5 246.25 264.5 246.2 265.3 247.15 264.8 247.25 264.75 247.25 264.5
M 273.05 265.5
Q 273.05 265.75 273.05 265.95 273.5 265.95 273.9 265.8 273.9921875 265.75390625 274 265.55
L 274 265.5
Q 273.9677734375 265.5 273.9 265.5 273.7177734375 265.5 273.5 265.5 273.25 265.5 273.05 265.5
M 34.6 261.9
Q 34.75 262 35 262 35 261.75 34.85 261.65 34.75 261.5 34.5 261.5 34.5 261.75 34.6 261.9
M 151.5 256.55
Q 151.3 256.55 151.05 256.55 151.3 256.8 151.5 256.8
L 151.5 256.55
M 96 270.45
Q 95.75 270.45 95.5 270.45 95.5 270.7 95.5 270.95 95.75 270.95 95.85 270.8 96 270.7 96 270.45 Z"/>

<path fill="#000000" fill-opacity="0.49411764705882355" stroke="none" d="
M 218.85 256.2
Q 218.7 256.05 218.45 256.05 218.45 256.3 218.6 256.45 218.7 256.55 218.95 256.55 218.95 256.3 218.85 256.2
M 276.5 265.05
L 276.5 265
Q 276.25 265 276 265 276 265.1916015625 276 265.35 276 265.4416015625 276 265.5 276.25 265.5 276.35 265.35 276.4857421875 265.2595703125 276.5 265.05
M 46.4 271.9
Q 46.4 271.7 46.25 271.55 46.15 271.45 45.9 271.45 45.9 271.7 46 271.8 46.15 271.9 46.4 271.9
M 32.15 260.4
Q 32.25 260.5 32.5 260.5 32.5 260.25 32.4 260.15 32.25 260 32 260 32 260.25 32.15 260.4
M 129.1 261.9
Q 129.2 261.75 129.2 261.5 128.95 261.5 128.7 261.5 128.7 261.75 128.7 262 128.95 262 129.1 261.9
M 131.2 260.5
Q 131.45 260.5 131.55 260.4 131.7 260.25 131.7 260 131.45 260 131.2 260 131.2 260.25 131.2 260.5
M 99.95 267.95
Q 99.95 268.2 99.95 268.45 100.2 268.45 100.3 268.35 100.45 268.2 100.45 267.95 100.2 267.95 99.95 267.95 Z"/>

<path fill="#000000" fill-opacity="0.40784313725490196" stroke="none" d="
M 214.5 255.05
Q 214.5 254.8 214.4 254.7 214.25 254.55 214 254.55 214 254.8 214.15 254.95 214.25 255.05 214.5 255.05
M 232 261.4
Q 232.1 261.5 232.35 261.5 232.35 261.25 232.25 261.15 232.1 261 231.85 261 231.85 261.25 232 261.4
M 265.1 266.95
Q 264.85 266.95 264.6 266.95 264.85 267.2 265.1 267.2
L 265.1 266.95
M 309.7 228.3
Q 309.7 228.55 309.7 228.8 309.95 228.8 310.1 228.65 310.2 228.55 310.2 228.3 309.95 228.3 309.7 228.3
M 32 251.6
Q 32 251.85 32 252.1
L 32.25 252.1
Q 32.25 251.85 32 251.6
M 35.5 239.2
Q 35.5 239.45 35.5 239.7 35.7 239.7 35.85 239.55 35.95 239.45 35.95 239.2 35.7 239.2 35.5 239.2
M 122.25 262.5
Q 122 262.5 121.75 262.5 121.75 262.75 121.75 263 122 263 122.15 262.85 122.25 262.75 122.25 262.5 Z"/>

<path fill="#000000" fill-opacity="0.5176470588235295" stroke="none" d="
M 215.5 255.3
L 215.5 255.05
Q 215.25 255.05 215 255.05 215.25 255.3 215.5 255.3
M 166.9 253.6
Q 166.65 253.6 166.4 253.6 166.4 253.8 166.4 254.05 166.9 254.05 167.3 253.85 167.4 253.8 167.4 253.6 167.15 253.6 166.9 253.6
M 287.4 258.05
Q 287.65 258.05 287.8 257.9 287.9 257.8 287.9 257.55 287.65 257.55 287.4 257.55 287.4 257.8 287.4 258.05
M 299.8 246.65
Q 299.8 246.9 299.8 247.15 300.05 247.15 300.2 247 300.3 246.9 300.3 246.65 300.05 246.65 299.8 246.65
M 137.15 258.55
Q 137.15 258.8 137.15 259.05 137.4 259.05 137.5 258.9 137.65 258.8 137.65 258.55 137.4 258.55 137.15 258.55 Z"/>

<path fill="#000000" fill-opacity="0.396078431372549" stroke="none" d="
M 236.4 264.9
Q 236.55 265 236.8 265 236.8 264.75 236.7 264.7 236.35 264.5 235.85 264.5 236.1 264.75 236.4 264.9
M 234.45 264.35
Q 234.6 264.5 234.85 264.5 234.85 264.25 234.7 264.1 234.6 264 234.35 264 234.35 264.25 234.45 264.35
M 228.9 262
Q 228.9 262.25 229 262.4 229.15 262.5 229.4 262.5 229.4 262.25 229.25 262.15 229.15 262 228.9 262
M 173.85 251.6
Q 174.1 251.6 174.2 251.45 174.35 251.35 174.35 251.1 174.1 251.1 173.85 251.1 173.85 251.35 173.85 251.6
M 282.45 261
Q 282.7 261 282.8 260.9 282.95 260.75 282.95 260.5 282.7 260.5 282.45 260.5 282.45 260.75 282.45 261
M 301.8 247.15
Q 301.55 247.15 301.3 247.15 301.3 247.4 301.3 247.6 301.55 247.6 301.65 247.5 301.8 247.4 301.8 247.15
M 299.8 247.15
Q 299.55 247.15 299.3 247.15 299.3 247.4 299.3 247.6 299.55 247.6 299.7 247.5 299.8 247.4 299.8 247.15
M 117.8 263.5
Q 117.8 263.75 117.8 264 118.05 264 118.15 263.85 118.3 263.75 118.3 263.5 118.05 263.5 117.8 263.5
M 110.85 266.95
Q 111.1 266.95 111.25 266.85 111.35 266.7 111.35 266.45 111.1 266.45 110.85 266.45 110.85 266.7 110.85 266.95 Z"/>

<path fill="#000000" fill-opacity="0.48627450980392156" stroke="none" d="
M 233.35 263.5
Q 233.35 263.75 233.5 263.85 233.6 264 233.85 264 233.85 263.75 233.7 263.6 233.6 263.5 233.35 263.5
M 169.85 251.6
Q 169.85 251.85 169.85 252.1 170.1 252.1 170.25 251.95 170.35 251.85 170.35 251.6 170.1 251.6 169.85 251.6
M 306.25 239.7
Q 306.25 239.95 306.25 240.2 306.5 240.2 306.6 240.05 306.75 239.95 306.75 239.7 306.5 239.7 306.25 239.7
M 311.2 225.3
Q 310.95 225.3 310.7 225.3 310.7 225.55 310.7 225.8 310.95 225.8 311.1 225.7 311.2 225.55 311.2 225.3
M 157.95 253.6
Q 157.7 253.6 157.45 253.6 157.45 253.8 157.45 254.05 157.7 254.05 157.85 253.95 157.95 253.8 157.95 253.6
M 98.45 269.95
Q 98.2 269.95 97.95 269.95 97.95 270.2 97.95 270.45 98.45 270.45 98.85 270.25 98.95 270.2 98.95 269.95 98.7 269.95 98.45 269.95 Z"/>

<path fill="#000000" fill-opacity="0.5098039215686274" stroke="none" d="
M 240.9 263.85
Q 241.05 264 241.3 264 241.3 263.75 241.15 263.6 241.05 263.5 240.8 263.5 240.8 263.75 240.9 263.85
M 290.9 257.05
Q 290.9 257.3 290.9 257.55 291.15 257.55 291.25 257.4 291.35 257.3 291.35 257.05 291.15 257.05 290.9 257.05
M 30.5 248.6
Q 30.5 248.35 30.5 248.1 30.25 248.1 30 248.1 30 248.35 30.15 248.5 30.25 248.6 30.5 248.6
M 88.55 271.9
Q 88.3 271.9 88.05 271.9 88.05 272.15 88.05 272.4 88.3 272.4 88.4 272.3 88.55 272.15 88.55 271.9
M 87.55 270.95
Q 87.3 270.95 87.05 270.95 87.05 271.2 87.05 271.45 87.3 271.45 87.4 271.3 87.55 271.2 87.55 270.95 Z"/>

<path fill="#000000" fill-opacity="0.4980392156862745" stroke="none" d="
M 238.3 265
Q 238.3 265.25 238.45 265.35 238.55 265.5 238.8 265.5 238.8 265.25 238.7 265.1 238.55 265 238.3 265
M 52.35 274.9
Q 52.6 274.9 52.85 274.9 52.85 274.65 52.7 274.55 52.6 274.4 52.35 274.4 52.35 274.65 52.35 274.9
M 50.95 273.3
Q 51.1 273.4 51.35 273.4 51.35 273.15 51.2 273.05 51.1 272.9 50.85 272.9 50.85 273.15 50.95 273.3 Z"/>

<path fill="#000000" fill-opacity="0.5372549019607843" stroke="none" d="
M 238.7 263.1
Q 238.55 263 238.3 263 238.3 263.25 238.45 263.35 238.55 263.5 238.8 263.5 238.8 263.25 238.7 263.1
M 292.35 254.55
Q 292.6 254.55 292.75 254.45 292.85 254.3 292.85 254.05 292.6 254.05 292.35 254.05 292.35 254.3 292.35 254.55
M 44.05 273.3
Q 44.15 273.4 44.4 273.4 44.4 273.15 44.3 273.05 44.15 272.9 43.9 272.9 43.9 273.15 44.05 273.3
M 116.8 264.5
Q 117.05 264.5 117.2 264.35 117.3 264.25 117.3 264 117.05 264 116.8 264 116.8 264.25 116.8 264.5 Z"/>

<path fill="#000000" fill-opacity="0.5215686274509804" stroke="none" d="
M 223.95 260.5
Q 223.95 260.25 223.8 260.15 223.7 260 223.45 260 223.45 260.25 223.55 260.4 223.7 260.5 223.95 260.5
M 229.9 260.5
Q 229.9 260.75 230 260.9 230.15 261 230.4 261 230.4 260.75 230.25 260.65 230.15 260.5 229.9 260.5
M 302.3 246.15
Q 302.05 246.15 301.8 246.15 301.8 246.4 301.8 246.65 302.05 246.65 302.15 246.5 302.3 246.4 302.3 246.15
M 73.55 275.2
Q 73.65 275.15 73.65 274.9 73.4 274.9 73.15 274.9 72.9 274.9 72.65 274.9 72.65 275.15 72.65 275.4 73.15 275.4 73.55 275.2 Z"/>

<path fill="#000000" fill-opacity="0.4823529411764706" stroke="none" d="
M 227.4 261.5
Q 227.4 261.75 227.5 261.9 227.65 262 227.9 262 227.9 261.75 227.75 261.65 227.65 261.5 227.4 261.5
M 308.25 237.2
Q 308 237.2 307.75 237.2 307.75 237.45 307.75 237.7 308 237.7 308.1 237.6 308.25 237.45 308.25 237.2
M 90.5 270.7
L 90.5 270.45
Q 90.3 270.45 90.05 270.45 90.3 270.7 90.5 270.7
M 82.1 271.9
Q 81.85 271.9 81.6 271.9 81.6 272.15 81.6 272.4 81.85 272.4 81.95 272.3 82.1 272.15 82.1 271.9
M 107.75 267.85
Q 107.9 267.7 107.9 267.45 107.65 267.45 107.4 267.45 107.4 267.7 107.4 267.95 107.65 267.95 107.75 267.85 Z"/>

<path fill="#000000" fill-opacity="0.4392156862745098" stroke="none" d="
M 228.25 259.65
Q 228.15 259.55 227.9 259.55 227.9 259.75 228 259.9 228.15 260 228.4 260 228.4 259.75 228.25 259.65
M 296.85 251.6
Q 296.85 251.85 296.85 252.1 297.1 252.1 297.2 251.95 297.35 251.85 297.35 251.6 297.1 251.6 296.85 251.6
M 271.55 265.95
Q 271.3 265.95 271.05 265.95 270.55 265.95 270.05 265.95 270.2 266.8 271.45 266.25 271.55 266.2 271.55 265.95
M 76.65 272.9
Q 76.4 272.9 76.15 272.9 76.15 273.15 76.15 273.4 76.4 273.4 76.5 273.3 76.65 273.15 76.65 272.9
M 127.6 261.4
Q 127.7 261.25 127.7 261 127.45 261 127.2 261 127.2 261.25 127.2 261.5 127.45 261.5 127.6 261.4
M 116.3 265.5
Q 116.05 265.5 115.8 265.5 116.05 265.75 116.3 265.75
L 116.3 265.5
M 103.9 266.95
Q 103.9 267.2 103.9 267.45 104.15 267.45 104.3 267.35 104.4 267.2 104.4 266.95 104.15 266.95 103.9 266.95 Z"/>

<path fill="#000000" fill-opacity="0.4627450980392157" stroke="none" d="
M 223.55 258.4
Q 223.7 258.55 223.95 258.55 223.95 258.3 223.8 258.15 223.7 258.05 223.45 258.05 223.45 258.3 223.55 258.4
M 282.95 262.5
Q 282.7 262.5 282.45 262.5 282.45 262.75 282.45 263 282.7 263 282.8 262.85 282.95 262.75 282.95 262.5
M 70.05 275.75
Q 70.2 275.65 70.2 275.4 69.95 275.4 69.7 275.4 69.7 275.65 69.7 275.9 69.95 275.9 70.05 275.75
M 40.3 271.05
Q 40.2 270.95 39.95 270.95 39.95 271.2 40.05 271.3 40.2 271.45 40.45 271.45 40.45 271.2 40.3 271.05
M 32.4 249
Q 32.5 248.85 32.5 248.6 32.25 248.6 32 248.6 32 248.85 32 249.1 32.25 249.1 32.4 249
M 133.65 259.55
Q 133.4 259.55 133.15 259.55 133.15 259.75 133.15 260 133.4 260 133.55 259.9 133.65 259.75 133.65 259.55 Z"/>

<path fill="#000000" fill-opacity="0.4588235294117647" stroke="none" d="
M 224.9 258.55
Q 224.9 258.8 225.05 258.9 225.15 259.05 225.4 259.05 225.4 258.8 225.3 258.65 225.15 258.55 224.9 258.55
M 186.15 252.4
Q 186.25 252.35 186.25 252.1 186 252.1 185.75 252.1 185.5 252.1 185.25 252.1 185.2 252.9 186.15 252.4
M 253.1 266.7
Q 252.45 266.45 251.7 266.45 251.65 267.3 252.7 267 252.95 266.95 253.2 266.95 253.2 266.7 253.1 266.7
M 79.6 272.4
Q 79.35 272.4 79.1 272.4 79.35 272.65 79.6 272.65
L 79.6 272.4
M 33 262.5
Q 33 262.75 33.1 262.85 33.25 263 33.5 263 33.5 262.75 33.35 262.65 33.25 262.5 33 262.5
M 82.6 272.9
Q 82.35 272.9 82.1 272.9 82.1 273.15 82.1 273.4 82.35 273.4 82.45 273.3 82.6 273.15 82.6 272.9 Z"/>

<path fill="#000000" fill-opacity="0.4745098039215686" stroke="none" d="
M 163.8 252.9
Q 163.9 252.85 163.9 252.6 163.65 252.6 163.45 252.6 163.2 252.6 162.95 252.6 162.95 252.85 162.95 253.1 163.45 253.1 163.8 252.9
M 312.2 226.8
Q 312.45 226.8 312.6 226.65 312.7 226.55 312.7 226.3 312.45 226.3 312.2 226.3 312.2 226.55 312.2 226.8
M 49.85 272.9
Q 49.85 272.65 49.75 272.55 49.6 272.4 49.35 272.4 49.35 272.65 49.5 272.8 49.6 272.9 49.85 272.9
M 57.3 273.9
Q 57.3 274.15 57.4 274.3 57.55 274.4 57.8 274.4 57.8 274.15 57.65 274.05 57.55 273.9 57.3 273.9
M 101.95 268.95
Q 101.7 268.95 101.45 268.95 101.2 268.95 100.95 268.95 100.95 269.2 100.95 269.45 101.45 269.45 101.85 269.25 101.95 269.2 101.95 268.95 Z"/>

<path fill="#000000" fill-opacity="0.41568627450980394" stroke="none" d="
M 174.85 252.6
Q 174.85 252.85 174.85 253.1 175.1 253.1 175.2 252.95 175.35 252.85 175.35 252.6 175.1 252.6 174.85 252.6
M 188.7 252.1
Q 188.7 252.35 188.7 252.6 189.2 252.6 189.6 252.4 189.7 252.35 189.7 252.1 189.45 252.1 189.2 252.1 188.95 252.1 188.7 252.1
M 129.1 260.9
Q 129.2 260.75 129.2 260.5 128.95 260.5 128.7 260.5 128.7 260.75 128.7 261 128.95 261 129.1 260.9 Z"/>

<path fill="#000000" fill-opacity="0.47058823529411764" stroke="none" d="
M 182.15 252.2
Q 182 252.1 181.75 252.1 181.75 252.35 181.75 252.6 182 252.6 182.25 252.6 182.25 252.35 182.15 252.2
M 181.15 250.95
Q 181.3 250.85 181.3 250.6 181.05 250.6 180.8 250.6 180.8 250.85 180.8 251.1 181.05 251.1 181.15 250.95
M 277.5 264
Q 277.5 264.1880859375 277.5 264.35 277.5 264.4380859375 277.5 264.5 277.75 264.5 278 264.5 278 264.275 277.85 264.1
L 277.85 264.1
Q 277.75 264 277.5 264
M 269.55 265.95
Q 269.3 265.95 269.05 265.95 269.05 266.2 269.05 266.45 269.3 266.45 269.45 266.35 269.55 266.2 269.55 265.95
M 270.55 264.5
Q 270.3 264.5 270.05 264.5 269.8 264.5 269.55 264.5 269.5 265.3 270.45 264.8 270.55 264.75 270.55 264.5
M 310.2 231.25
Q 310.2 231.5 310.2 231.75 310.2 232 310.2 232.25 310.45 232 310.6 231.7 310.7 231.5 310.7 231.25 310.45 231.25 310.2 231.25
M 310.2 226.8
Q 310.2 227.05 310.2 227.3 310.45 227.05 310.6 226.75 310.7 226.55 310.7 226.3 310.45 226.3 310.2 226.3 310.2 226.55 310.2 226.8
M 49.4 274.8
Q 49.6 274.9 49.85 274.9 49.85 274.65 49.75 274.6 49.35 274.4 48.85 274.4 49.1 274.65 49.4 274.8
M 130.2 261.5
Q 130.45 261.5 130.7 261.5 130.7 261.25 130.55 261.15 130.45 261 130.2 261 130.2 261.25 130.2 261.5
M 86.45 272.8
Q 86.55 272.65 86.55 272.4 86.3 272.4 86.05 272.4 86.05 272.65 86.05 272.9 86.3 272.9 86.45 272.8 Z"/>

<path fill="#000000" fill-opacity="0.4" stroke="none" d="
M 180.8 252.85
L 180.8 252.6
Q 180.55 252.6 180.3 252.6 180.55 252.85 180.8 252.85
M 289.4 258.05
Q 289.15 258.05 288.9 258.05 288.9 258.3 288.9 258.55 289.4 258.55 289.8 258.35 289.9 258.3 289.9 258.05 289.65 258.05 289.4 258.05
M 266.6 266.45
Q 266.6 266.7 266.6 266.95 266.85 266.95 266.95 266.85 267.05 266.7 267.05 266.45 266.85 266.45 266.6 266.45
M 94.5 269.45
Q 94.5 269.7 94.5 269.95 94.75 269.95 94.85 269.8 95 269.7 95 269.45 94.75 269.45 94.5 269.45
M 119.8 263
Q 119.8 263.25 119.8 263.5 120.05 263.5 120.15 263.35 120.3 263.25 120.3 263 120.05 263 119.8 263 Z"/>

<path fill="#000000" fill-opacity="0.4117647058823529" stroke="none" d="
M 179.8 252.85
L 179.8 252.6
Q 179.55 252.6 179.3 252.6 179.55 252.85 179.8 252.85
M 298.7 250.5
Q 298.8 250.35 298.8 250.1 298.55 250.1 298.3 250.1 298.3 250.35 298.3 250.6 298.55 250.6 298.7 250.5
M 283.45 260
Q 283.45 260.25 283.45 260.5 283.7 260.5 283.8 260.4 283.95 260.25 283.95 260 283.7 260 283.45 260
M 305.75 238.7
Q 305.5 238.7 305.25 238.7 305.25 238.95 305.25 239.2 305.5 239.2 305.65 239.05 305.75 238.95 305.75 238.7
M 307.6 235.1
Q 307.75 235 307.75 234.75 307.5 234.75 307.25 234.75 307.25 235 307.25 235.25 307.5 235.25 307.6 235.1
M 31 255.05
Q 31 254.8 30.9 254.7 30.75 254.55 30.5 254.55 30.5 254.8 30.65 254.95 30.75 255.05 31 255.05
M 33.5 243.15
Q 33.5 243.4 33.5 243.65 33.75 243.65 33.85 243.55 34 243.4 34 243.15 33.75 243.15 33.5 243.15
M 92.9 270.3
Q 93 270.2 93 269.95 92.75 269.95 92.5 269.95 92.5 270.2 92.5 270.45 92.75 270.45 92.9 270.3 Z"/>

<path fill="#000000" fill-opacity="0.4196078431372549" stroke="none" d="
M 201.6 253.1
Q 201.35 253.1 201.1 253.1 201.35 253.35 201.6 253.35
L 201.6 253.1
M 249.2 265
Q 249.2 264.75 249.1 264.6 248.95 264.5 248.7 264.5 248.7 264.75 248.85 264.85 248.95 265 249.2 265
M 126.25 261.5
Q 126 261.5 125.75 261.5 125.75 261.75 125.75 262 126 262 126.1 261.9 126.25 261.75 126.25 261.5 Z"/>

<path fill="#000000" fill-opacity="0.42745098039215684" stroke="none" d="
M 289.9 256.05
Q 289.65 256.05 289.4 256.05 289.4 256.3 289.4 256.55 289.65 256.55 289.75 256.45 289.9 256.3 289.9 256.05
M 312.1 220.45
Q 311.95 220.35 311.7 220.35 311.7 220.6 311.85 220.7 311.95 220.85 312.2 220.85 312.2 220.6 312.1 220.45
M 67.7 275.4
Q 67.45 275.4 67.2 275.4 67.2 275.65 67.2 275.9 67.45 275.9 67.6 275.75 67.7 275.65 67.7 275.4
M 131.2 261.5
Q 130.95 261.5 130.7 261.5 130.6 262.35 131.6 261.8 131.7 261.75 131.7 261.5 131.45 261.5 131.2 261.5
M 139.15 258.05
Q 139.15 258.3 139.15 258.55 139.35 258.55 139.5 258.4 139.6 258.3 139.6 258.05 139.35 258.05 139.15 258.05
M 143.1 257.55
Q 143.35 257.55 143.45 257.4 143.6 257.3 143.6 257.05 143.35 257.05 143.1 257.05 143.1 257.3 143.1 257.55
M 153.9 254.95
Q 154 254.8 154 254.55 153.75 254.55 153.5 254.55 153.5 254.8 153.5 255.05 153.75 255.05 153.9 254.95
M 119.8 264.5
Q 120.05 264.5 120.15 264.35 120.3 264.25 120.3 264 120.05 264 119.8 264 119.8 264.25 119.8 264.5 Z"/>

<path fill="#000000" fill-opacity="0.5019607843137255" stroke="none" d="
M 287.4 259.55
Q 287.15 259.55 286.9 259.55 286.9 259.75 286.9 260 287.15 260 287.3 259.9 287.4 259.75 287.4 259.55
M 299.3 249.6
Q 299.05 249.6 298.8 249.6 298.8 249.85 298.8 250.1 299.05 250.1 299.2 250 299.3 249.85 299.3 249.6
M 67.2 273.9
Q 66.95 273.9 66.7 273.9 66.45 273.9 66.2 273.9 66.2 274.15 66.2 274.4 66.7 274.4 67.1 274.2 67.2 274.15 67.2 273.9
M 124.75 262
Q 124.5 262 124.25 262 124 262 123.75 262 123.75 262.25 123.75 262.5 124.25 262.5 124.65 262.3 124.75 262.25 124.75 262
M 84.1 272.9
Q 84.35 272.9 84.45 272.8 84.55 272.65 84.55 272.4 84.35 272.4 84.1 272.4 84.1 272.65 84.1 272.9
M 96.95 268.95
Q 96.7 268.95 96.5 268.95 96.5 269.2 96.5 269.45 96.7 269.45 96.85 269.3 96.95 269.2 96.95 268.95 Z"/>

<path fill="#000000" fill-opacity="0.5254901960784314" stroke="none" d="
M 257.15 265
Q 256.9 265 256.65 265 256.9 265.25 257.15 265.25
L 257.15 265
M 312.2 227.3
Q 311.95 227.3 311.7 227.3 311.7 227.55 311.7 227.8 311.95 227.8 312.1 227.65 312.2 227.55 312.2 227.3
M 76.65 274.4
Q 76.65 274.65 76.65 274.9 76.9 274.9 77 274.8 77.15 274.65 77.15 274.4 76.9 274.4 76.65 274.4
M 122.75 264
Q 123 264 123.25 264 123.25 263.75 123.15 263.6 123 263.5 122.75 263.5 122.75 263.75 122.75 264 Z"/>

<path fill="#000000" fill-opacity="0.4549019607843137" stroke="none" d="
M 277 263
Q 276.75 263 276.5 263 276.5 263.25 276.5 263.5 276.75 263.5 276.85 263.35 277 263.25 277 263
M 272.4 264.35
Q 272.55 264.25 272.55 264 272.3 264 272.05 264 272.05 264.25 272.05 264.5 272.3 264.5 272.4 264.35
M 268.5 264.75
Q 268.55 264.75 268.55 264.5 268.3 264.5 268.05 264.5 267.55 264.5 267.05 264.5 267.05 264.75 267.05 265 267.8 265 268.5 264.75
M 311.7 221.35
Q 311.7 221.6 311.7 221.85 311.95 221.85 312.1 221.7 312.2 221.6 312.2 221.35 311.95 221.35 311.7 221.35
M 41.3 269.05
Q 41.2 268.95 40.95 268.95 40.95 269.2 41.05 269.3 41.2 269.45 41.45 269.45 41.45 269.2 41.3 269.05 Z"/>

<path fill="#000000" fill-opacity="0.5294117647058824" stroke="none" d="
M 311.7 228.8
Q 311.45 228.8 311.2 228.8 311.2 229.05 311.2 229.3 311.45 229.3 311.6 229.15 311.7 229.05 311.7 228.8
M 160.45 253.1
Q 160.45 253.35 160.45 253.6 160.7 253.6 160.8 253.45 160.95 253.35 160.95 253.1 160.7 253.1 160.45 253.1 Z"/>

<path fill="#000000" fill-opacity="0.4470588235294118" stroke="none" d="
M 311.6 224.2
Q 311.7 224.05 311.7 223.8 311.45 223.8 311.2 223.8 311.2 224.05 311.2 224.3 311.45 224.3 311.6 224.2
M 84.95 271.8
Q 85.05 271.7 85.05 271.45 84.8 271.45 84.55 271.45 84.55 271.7 84.55 271.9 84.8 271.9 84.95 271.8 Z"/>

<path fill="#000000" fill-opacity="0.5137254901960784" stroke="none" d="
M 300.8 246.15
Q 300.55 246.15 300.3 246.15 300.3 246.4 300.3 246.65 300.55 246.65 300.65 246.5 300.8 246.4 300.8 246.15
M 59.9 276.25
Q 60.05 276.4 60.25 276.4 60.25 276.15 60.15 276 60.05 275.9 59.8 275.9 59.8 276.15 59.9 276.25
M 38.95 267.45
Q 38.95 267.7 39.05 267.85 39.2 267.95 39.45 267.95 39.45 267.7 39.3 267.6 39.2 267.45 38.95 267.45
M 30.5 254.05
L 30.75 254.05
Q 30.75 253.8 30.5 253.6 30.5 253.8 30.5 254.05
M 32.5 248.1
Q 32.5 247.85 32.5 247.6 32.25 247.6 32 247.6 32 247.85 32.15 248 32.25 248.1 32.5 248.1
M 157.95 255.05
Q 157.7 255.05 157.45 255.05 157.45 255.3 157.45 255.55 157.7 255.55 157.85 255.45 157.95 255.3 157.95 255.05 Z"/>

<path fill="#000000" fill-opacity="0.44313725490196076" stroke="none" d="
M 68.35 275.75
Q 68.45 275.9 68.7 275.9 68.7 275.65 68.6 275.5 68.45 275.4 68.2 275.4 68.2 275.65 68.35 275.75 Z"/>

<path fill="#000000" fill-opacity="0.5411764705882353" stroke="none" d="
M 31 245.15
Q 30.75 245.15 30.5 245.15 30.5 245.65 30.5 246.15 30.5 246.4 30.5 246.65 31.3 246.7 31.05 245.6 31 245.4 31 245.15 Z"/>

<path fill="#000000" fill-opacity="0.9215686274509803" stroke="none" d="
M 109.85 265.95
Q 109.35 265.95 108.85 265.95 108.85 266.2 108.75 266.35 108.65 266.45 108.4 266.45 108.15 266.45 107.9 266.5 106.25 266.85 104.4 266.95 104.4 267.2 104.3 267.35 104.15 267.45 103.9 267.45 103.65 267.45 103.45 267.55 102.4 268.2 100.45 267.95 100.45 268.2 100.3 268.35 100.2 268.45 99.95 268.45 99.7 268.45 99.55 268.6 98.65 269.1 96.95 268.95 96.95 269.2 96.85 269.3 96.7 269.45 96.5 269.45 96.25 269.45 96 269.45 95.5 269.45 95 269.45 95 269.7 94.85 269.8 94.75 269.95 94.5 269.95 94.25 269.95 94 269.95 93.5 269.95 93 269.95 93 270.2 92.9 270.3 92.75 270.45 92.5 270.45 92.25 270.45 92 270.45 91.25 270.45 90.5 270.45
L 90.5 270.7
Q 90.3 270.7 90.05 270.45 89.8 270.45 89.7 270.55 89.15 271.3 87.55 270.95 87.55 271.2 87.4 271.3 87.3 271.45 87.05 271.45 86.8 271.45 86.55 271.45 85.8 271.45 85.05 271.45 85.05 271.7 84.95 271.8 84.8 271.9 84.55 271.9 84.35 271.9 84.1 271.9 83.1 271.9 82.1 271.9 82.1 272.15 81.95 272.3 81.85 272.4 81.6 272.4 81.35 272.4 81.1 272.4 80.35 272.4 79.6 272.4
L 79.6 272.65
Q 79.35 272.65 79.1 272.4 78.85 272.4 78.75 272.55 78.25 273.25 76.65 272.9 76.65 273.15 76.5 273.3 76.4 273.4 76.15 273.4 75.9 273.4 75.65 273.4 74.4 273.4 73.15 273.4 73.15 273.65 73.1 273.7 72.4 273.9 71.7 273.9 71.45 273.9 71.2 273.9 69.95 273.9 68.7 273.9 68.7 274.15 68.6 274.2 67.65 274.75 67.7 273.9 67.45 273.9 67.2 273.9 67.2 274.15 67.1 274.2 66.7 274.4 66.2 274.4 66 274.4 65.75 274.4 61.75 274.4 57.8 274.4 57.55 274.4 57.4 274.3 57.3 274.15 57.3 273.9 57.05 273.9 56.8 273.9 54.15 273.6 51.35 273.4 51.1 273.4 50.95 273.3 50.85 273.15 50.85 272.9 50.6 272.9 50.35 272.9 50.1 272.9 49.85 272.9 49.6 272.9 49.5 272.8 49.35 272.65 49.35 272.4 49.1 272.4 48.9 272.35 47.8 272 46.4 271.9 46.15 271.9 46 271.8 45.9 271.7 45.9 271.45 45.65 271.45 45.4 271.45 44.45 271.4 43.9 270.95 43.65 270.95 43.55 270.8 43.4 270.7 43.4 270.45 43.15 270.45 43.05 270.3 42.4 269.7 41.45 269.45 41.2 269.45 41.05 269.3 40.95 269.2 40.95 268.95 40.7 268.95 40.65 268.85 40.3 268.1 39.45 267.95 39.2 267.95 39.05 267.85 38.95 267.7 38.95 267.45 38.7 267.45 38.6 267.35 36.3 265.15 35 262 34.75 262 34.6 261.9 34.5 261.75 34.5 261.5 33.55 259.45 33.1 257 32.6 254.45 32 252.1 32 251.85 32 251.6 32 251.35 32 251.1 32 250.1 32 249.1 32 248.85 32 248.6 32.25 248.6 32.5 248.6 32.5 248.35 32.5 248.1 32.25 248.1 32.15 248 32 247.85 32 247.6 32.25 247.6 32.5 247.6 32.5 247.4 32.5 247.15 32.5 246.4 32.5 245.65 33.25 245.15 33.45 244.15 33.5 243.9 33.5 243.65 33.5 243.4 33.5 243.15 33.75 243.15 34 243.15 34 242.9 34 242.65 34 242.4 34 242.15 35.35 241.75 35.45 240.2 35.5 239.95 35.5 239.7 35.5 239.45 35.5 239.2 35.7 239.2 35.95 239.2 35.65 237.3 34.35 238.55 32.3 240.5 31 243.15 31 243.9 31 244.65 31 244.9 31 245.15 31 245.4 31.05 245.6 31.3 246.7 30.5 246.65 30.5 247.15 30.5 247.6 30.5 247.85 30.5 248.1 30.5 248.35 30.5 248.6 30.5 250.85 30.5 253.1 30.5 253.35 30.5 253.6 30.75 253.8 30.75 254.05
L 30.5 254.05
Q 30.5 254.3 30.5 254.55 30.75 254.55 30.9 254.7 31 254.8 31 255.05 31.25 257.55 31.95 259.55 32 259.75 32 260 32.25 260 32.4 260.15 32.5 260.25 32.5 260.5 32.55 261.5 32.85 262.1 33 262.25 33 262.5 33.25 262.5 33.35 262.65 33.5 262.75 33.5 263 35.7 267.7 39.55 270.8 39.7 270.95 39.95 270.95 40.2 270.95 40.3 271.05 40.45 271.2 40.45 271.45 41.9 272.15 43.45 272.8 43.65 272.9 43.9 272.9 44.15 272.9 44.3 273.05 44.4 273.15 44.4 273.4 46.7 273.6 48.4 274.3 48.6 274.4 48.85 274.4 49.35 274.4 49.75 274.6 49.85 274.65 49.85 274.9 50.85 274.9 51.85 274.9 52.1 274.9 52.35 274.9 52.35 274.65 52.35 274.4 52.6 274.4 52.7 274.55 52.85 274.65 52.85 274.9 54.4 274.55 54.95 275.25 55.05 275.4 55.3 275.4 55.55 275.4 55.7 275.5 55.8 275.65 55.8 275.9 57.55 275.9 59.3 275.9 59.55 275.9 59.8 275.9 60.05 275.9 60.15 276 60.25 276.15 60.25 276.4 62.25 275.5 64.75 276.3 65 276.4 65.25 276.4 65.25 276.15 65.25 275.9 65.5 275.9 65.75 275.9 66.2 275.9 66.7 275.9 66.95 275.9 67.2 275.9 67.2 275.65 67.2 275.4 67.45 275.4 67.7 275.4 67.95 275.4 68.2 275.4 68.45 275.4 68.6 275.5 68.7 275.65 68.7 275.9 68.95 275.9 69.2 275.9 69.45 275.9 69.7 275.9 69.7 275.65 69.7 275.4 69.95 275.4 70.2 275.4 71.2 275.4 72.2 275.4 72.4 275.4 72.65 275.4 72.65 275.15 72.65 274.9 72.9 274.9 73.15 274.9 73.4 274.9 73.65 274.9 74.9 274.9 76.15 274.9 76.4 274.9 76.65 274.9 76.65 274.65 76.65 274.4 76.9 274.4 77.15 274.4 79.35 273.9 81.6 273.45 81.85 273.4 82.1 273.4 82.1 273.15 82.1 272.9 82.35 272.9 82.6 272.9 83.1 272.9 83.6 272.9 83.85 272.9 84.1 272.9 84.1 272.65 84.1 272.4 84.35 272.4 84.55 272.4 85.6 272.1 85.8 272.85 85.8 272.9 86.05 272.9 86.05 272.65 86.05 272.4 86.3 272.4 86.55 272.4 87.05 272.4 87.55 272.4 87.8 272.4 88.05 272.4 88.05 272.15 88.05 271.9 88.3 271.9 88.55 271.9 92.25 271.9 95 271 95.25 270.95 95.5 270.95 95.5 270.7 95.5 270.45 95.75 270.45 96 270.45 96.7 270.45 97.45 270.45 97.7 270.45 97.95 270.45 97.95 270.2 97.95 269.95 98.2 269.95 98.45 269.95 98.7 269.95 98.95 269.95 99.5 269.45 100.45 269.45 100.7 269.45 100.95 269.45 100.95 269.2 100.95 268.95 101.2 268.95 101.45 268.95 101.7 268.95 101.95 268.95 102.45 268.95 102.9 268.95 103.15 268.95 103.4 268.95 103.4 268.7 103.4 268.45 103.65 268.45 103.9 268.45 105.15 267.95 106.9 267.95 107.15 267.95 107.4 267.95 107.4 267.7 107.4 267.45 107.65 267.45 107.9 267.45 109.25 267.35 110.4 267.05 110.6 266.95 110.85 266.95 110.85 266.7 110.85 266.45 111.1 266.45 111.35 266.45 112.6 266.45 113.85 266.45 114.1 266.45 114.35 266.45 114.35 266.2 114.35 265.95 114.6 265.95 114.8 265.95 115.05 265.95 115.3 265.95 115.3 265.75 115.3 265.5 115.55 265.5 115.8 265.5 116.05 265.5 116.3 265.5 117.65 264.8 119.3 264.55 119.55 264.5 119.8 264.5 119.8 264.25 119.8 264 120.05 264 120.3 264 121.25 264 122.25 264 122.5 264 122.75 264 122.75 263.75 122.75 263.5 123 263.5 123.15 263.6 123.25 263.75 123.25 264 124.9 262.95 127.7 262.75 127.95 262.75 128.2 262.5 128.45 262.25 128.7 262 128.7 261.75 128.7 261.5 128.95 261.5 129.2 261.5 129.45 261.5 129.7 261.5 129.95 261.5 130.2 261.5 130.2 261.25 130.2 261 130.45 261 130.55 261.15 130.7 261.25 130.7 261.5 130.95 261.5 131.2 261.5 131.45 261.5 131.7 261.5 131.7 261.25 131.7 261 134.45 261.3 136.15 260.6 136.4 260.5 136.65 260.5 136.65 260.25 136.65 260 136.9 260 137.15 260 137.95 259.35 139.6 259.5 139.85 259.55 140.1 259.55 140.1 259.3 140.1 259.05 140.35 259.05 140.5 259.15 140.6 259.3 140.6 259.55 142.8 258.5 145.5 257.75 148.05 257 151.05 256.55 151.3 256.55 151.5 256.55 153.65 256.9 154.6 256.25 155.75 255.55 157.45 255.55 157.45 255.3 157.45 255.05 157.7 255.05 157.95 255.05 160.1 254.7 162.4 254.45 163.9 254.3 165 253.85 165.15 253.8 165.45 253.9 165.9 254.05 166.4 254.05 166.4 253.8 166.4 253.6 166.65 253.6 166.9 253.6 167.15 253.6 167.4 253.6 170.75 253.2 174.35 253.1 174.6 253.1 174.85 253.1 174.85 252.85 174.85 252.6 175.1 252.6 175.35 252.6 177.05 252.6 178.8 252.6 179.05 252.6 179.3 252.6 179.55 252.6 179.8 252.6 180.05 252.6 180.3 252.6 180.55 252.6 180.8 252.6 181.05 252.6 181.3 252.6 181.55 252.6 181.75 252.6 181.75 252.35 181.75 252.1 182 252.1 182.15 252.2 182.25 252.35 182.25 252.6 183.95 252.75 184.8 252.2 185 252.1 185.25 252.1 185.5 252.1 185.75 252.1 186 252.1 186.25 252.1 187.85 251.75 188.35 252.45 188.45 252.6 188.7 252.6 188.7 252.35 188.7 252.1 188.95 252.1 189.2 252.1 189.45 252.1 189.7 252.1 193.9 252.6 198.65 252.6 198.9 252.6 199.15 252.6 199.4 252.6 199.5 252.7 199.65 252.85 199.65 253.1 200.1 253.1 200.6 253.1 200.85 253.1 201.1 253.1 201.35 253.1 201.6 253.1 202.15 253.55 203.1 253.6 203.35 253.6 203.6 253.6 203.6 253.35 203.6 253.1 203.85 253.1 204.1 253.1 204.35 253.35 204.65 253.5 204.85 253.6 205.1 253.6 205.35 253.6 205.6 253.6 206.4 253.7 206.75 254.45 206.8 254.55 207.05 254.55 207.05 254.3 207.05 254.05 207.3 254.05 207.45 254.2 207.55 254.3 207.55 254.55 209.35 255.25 212.05 255.3 212.25 255.3 212.55 255.5 214 256.3 215.5 257.05 215.75 257.05 215.85 257.15 216 257.3 216 257.55 216.95 257.55 217.55 257.9 217.75 258.05 218 258.05 218.25 258.05 218.35 258.15 218.45 258.3 218.45 258.55 218.7 258.55 218.95 258.55 219.2 258.55 219.45 258.55 219.7 258.55 219.85 258.65 219.95 258.8 219.95 259.05 220.2 259.05 220.45 259.05 220.7 259.05 220.95 259.05 221.2 259.05 221.3 259.15 221.45 259.3 221.45 259.55 222.4 259.55 223 259.9 223.2 260 223.45 260 223.7 260 223.8 260.15 223.95 260.25 223.95 260.5 224.4 260.5 224.9 260.5 225.15 260.5 225.4 260.5 225.65 260.5 225.8 260.65 225.9 260.75 225.9 261 226.4 261.25 226.95 261.45 227.15 261.5 227.4 261.5 227.65 261.5 227.75 261.65 227.9 261.75 227.9 262 228.15 262 228.4 262 228.65 262 228.9 262 229.15 262 229.25 262.15 229.4 262.25 229.4 262.5 231.3 262.8 232.9 263.4 233.1 263.5 233.35 263.5 233.6 263.5 233.7 263.6 233.85 263.75 233.85 264 234.1 264 234.35 264 234.6 264 234.7 264.1 234.85 264.25 234.85 264.5 235.1 264.5 235.35 264.5 235.6 264.5 235.85 264.5 236.35 264.5 236.7 264.7 236.8 264.75 236.8 265 237.3 265 237.8 265 238.05 265 238.3 265 238.55 265 238.7 265.1 238.8 265.25 238.8 265.5 239.55 265.5 240.3 265.5 240.55 265.5 240.8 265.5 241.05 265.5 241.15 265.6 241.3 265.75 241.3 265.95 243.05 266.4 243.4 266.1 243.5 265.95 243.75 265.95 244 265.95 244.15 266.1 244.25 266.2 244.25 266.45 247.5 266.45 250.7 266.25 250.95 266.2 251.2 266.2 251.45 266.2 251.7 266.45 252.45 266.45 253.1 266.7 253.2 266.7 253.2 266.95 255.1 266.55 258.15 266.75 261.35 266.95 264.6 266.95 264.85 266.95 265.1 266.95 265.6 266.95 266.1 266.95 266.35 266.95 266.6 266.95 266.6 266.7 266.6 266.45 266.85 266.45 267.05 266.45 267.8 266.45 268.55 266.45 268.8 266.45 269.05 266.45 269.05 266.2 269.05 265.95 269.3 265.95 269.55 265.95 269.8 265.95 270.05 265.95 270.55 265.95 271.05 265.95 271.3 265.95 271.55 265.95 272.05 265.95 272.55 265.95 272.8 265.95 273.05 265.95 273.05 265.75 273.05 265.5 273.25 265.5 273.5 265.5 273.7177734375 265.5 273.9 265.5 273.9677734375 265.5 274 265.5 274.75 265.5 275.5 265.5 275.657421875 265.5 275.8 265.5 275.907421875 265.5 276 265.5 276 265.4416015625 276 265.35 276 265.1916015625 276 265 276.25 265 276.5 265 276.75 264.75 277.05 264.6 277.159765625 264.5451171875 277.25 264.5 277.387109375 264.5 277.5 264.5 277.5 264.4380859375 277.5 264.35 277.5 264.1880859375 277.5 264 277.75 264 277.85 264.1
L 277.85 264.1
Q 278 264.275 278 264.5 278.90234375 264.1888671875 279.85 263.9 280.414453125 263.719921875 281 263.55 281.2 263.5 281.45 263.5 281.45 263.25 281.45 263 281.7 263 281.95 263 282.2 263 282.45 263 282.45 262.75 282.45 262.5 282.7 262.5 282.95 262.5 284 262.1 284.6 261.1 284.7 261 284.95 261 284.95 260.75 284.95 260.5 285.2 260.5 285.4 260.5 285.65 260.5 285.9 260.5 286.15 260.25 286.45 260.1 286.65 260 286.9 260 286.9 259.75 286.9 259.55 287.15 259.55 287.4 259.55 288.25 259.4 288.6 258.65 288.65 258.55 288.9 258.55 288.9 258.3 288.9 258.05 289.15 258.05 289.4 258.05 289.65 258.05 289.9 258.05 290.15 257.8 290.45 257.65 290.65 257.55 290.9 257.55 290.9 257.3 290.9 257.05 291.15 257.05 291.35 257.05 292.55 255.75 294.25 254.85 295.1 254.35 295.7 253.3 295.85 253.1 296.2 252.85 296.6 252.6 296.85 252.1 296.85 251.85 296.85 251.6 297.1 251.6 297.35 251.6 297.8 251.35 298.2 250.95 298.3 250.85 298.3 250.6 298.3 250.35 298.3 250.1 298.55 250.1 298.8 250.1 298.8 249.85 298.8 249.6 299.05 249.6 299.3 249.6 300.3 248.85 301.15 248 301.3 247.85 301.3 247.6 301.3 247.4 301.3 247.15 301.55 247.15 301.8 247.15 301.8 246.9 301.8 246.65 301.8 246.4 301.8 246.15 302.05 246.15 302.3 246.15 304.35 243.5 306.15 240.6 306.25 240.45 306.25 240.2 306.25 239.95 306.25 239.7 306.5 239.7 306.75 239.7 306.75 239.45 306.75 239.2 307.6 239.05 307.7 238.2 307.75 237.95 307.75 237.7 307.75 237.45 307.75 237.2 308 237.2 308.25 237.2 308.25 236.95 308.25 236.7 308.25 236.45 308.25 236.2 309.4 234.65 310.15 232.7 310.2 232.5 310.2 232.25 310.2 232 310.2 231.75 310.2 231.5 310.2 231.25 310.45 231.25 310.7 231.25 310.7 231 310.7 230.75 310.7 230.5 310.7 230.25 310.95 230 311.1 229.7 311.2 229.5 311.2 229.3 311.2 229.05 311.2 228.8 311.45 228.8 311.7 228.8 311.7 228.55 311.7 228.3 311.7 228.05 311.7 227.8 311.7 227.55 311.7 227.3 311.95 227.3 312.2 227.3 312.2 227.05 312.2 226.8 312.2 226.55 312.2 226.3 312.45 226.3 312.7 226.3 312.95 225.3 313.1 224.3 313.3 222.95 313.95 222.05 314.65 221.05 314.45 219.4 314.45 219.1 314.45 218.9 314.5 217.8 313.7 217.85 311.75 217.9 311.2 219.35 311.2 219.85 311.4 220.25 311.45 220.35 311.7 220.35 311.95 220.35 312.1 220.45 312.2 220.6 312.2 220.85 312.2 221.1 312.2 221.35 312.2 221.6 312.1 221.7 311.95 221.85 311.7 221.85 311.7 222.6 311.7 223.3 311.7 223.55 311.7 223.8 311.7 224.05 311.6 224.2 311.45 224.3 311.2 224.3 311.2 224.55 311.2 224.8 311.2 225.05 311.2 225.3 311.2 225.55 311.1 225.7 310.95 225.8 310.7 225.8 310.7 226.05 310.7 226.3 310.7 226.55 310.6 226.75 310.45 227.05 310.2 227.3 310.2 227.55 310.2 227.8 310.2 228.05 310.2 228.3 310.2 228.55 310.1 228.65 309.95 228.8 309.7 228.8 309.7 229.05 309.7 229.3 309.65 230.7 308.75 231.25 308.75 231.5 308.75 231.75 308.75 232 308.75 232.25 308.75 232.5 308.6 232.6 308.5 232.75 308.25 232.75 308.25 233 308.15 233.2 308 233.5 307.75 233.75 307.75 234 307.75 234.25 307.75 234.5 307.75 234.75 307.75 235 307.6 235.1 307.5 235.25 307.25 235.25 307.25 235.45 307.15 235.7 306.7 237.2 305.75 238.2 305.75 238.45 305.75 238.7 305.75 238.95 305.65 239.05 305.5 239.2 305.25 239.2 305.25 239.45 305.15 239.6 303.1 242.75 300.8 245.65 300.8 245.9 300.8 246.15 300.8 246.4 300.65 246.5 300.55 246.65 300.3 246.65 300.3 246.9 300.2 247 300.05 247.15 299.8 247.15 299.8 247.4 299.7 247.5 299.55 247.6 299.3 247.6 299.3 247.85 299.2 248 296.35 250.85 293.35 253.6 293.35 253.8 293.25 253.95 293.1 254.05 292.85 254.05 292.85 254.3 292.75 254.45 292.6 254.55 292.35 254.55 292.1 254.55 292 254.7 291.3 255.7 289.9 256.05 289.9 256.3 289.75 256.45 289.65 256.55 289.4 256.55 289.15 256.55 289.1 256.65 288.75 257.4 287.9 257.55 287.9 257.8 287.8 257.9 287.65 258.05 287.4 258.05 287.15 258.05 287.05 258.15 285.8 259.45 283.95 260 283.95 260.25 283.8 260.4 283.7 260.5 283.45 260.5 283.2 260.5 282.95 260.5 282.95 260.75 282.8 260.9 282.7 261 282.45 261 282.2 261 282.2 261.05 282.05 261.85 280.95 261.5 280.95 261.75 280.85 261.9 280.7 262 280.45 262 280.2 262 280.05 262.15 279 263 277 263 277 263.25 276.85 263.35 276.75 263.5 276.5 263.5 276.25 263.5 276.05 263.55 274.6 264.05 272.55 264 272.55 264.25 272.4 264.35 272.3 264.5 272.05 264.5
L 272 264.5
Q 271.7767578125 264.5 271.55 264.5 271.05 264.5 270.55 264.5 270.55 264.75 270.45 264.8 269.5 265.3 269.55 264.5 269.3 264.5 269.05 264.5 268.8 264.5 268.55 264.5 268.55 264.75 268.5 264.75 267.8 265 267.05 265 264.35 265 261.6 265.15 259.05 265.3 257.15 265
L 257.15 265.25
Q 256.9 265.25 256.65 265 256.4 265 256.15 265 252.7 265 249.2 265 248.95 265 248.85 264.85 248.7 264.75 248.7 264.5 248.5 264.5 248.25 264.5 247.75 264.5 247.25 264.5 247.25 264.75 247.15 264.8 246.2 265.3 246.25 264.5 246 264.5 245.75 264.5 244.25 264.5 242.75 264.5 242.55 264.5 242.4 264.35 242.3 264.25 242.3 264 242.05 264 241.8 264 241.55 264 241.3 264 241.05 264 240.9 263.85 240.8 263.75 240.8 263.5 240.55 263.5 240.3 263.5 239.55 263.5 238.8 263.5 238.55 263.5 238.45 263.35 238.3 263.25 238.3 263 238.05 263 237.8 262.95 234.75 262.6 232.35 261.5 232.1 261.5 232 261.4 231.85 261.25 231.85 261 231.6 261 231.35 261 230.85 261 230.4 261 230.15 261 230 260.9 229.9 260.75 229.9 260.5 229.65 260.5 229.65 260.45 229.45 259.75 228.4 260 228.15 260 228 259.9 227.9 259.75 227.9 259.55 227.65 259.55 227.4 259.5 226.4 259.3 225.4 259.05 225.15 259.05 225.05 258.9 224.9 258.8 224.9 258.55 224.65 258.55 224.4 258.55 224.2 258.55 223.95 258.55 223.7 258.55 223.55 258.4 223.45 258.3 223.45 258.05 223.2 258.05 222.95 258 220.75 257.55 218.95 256.55 218.7 256.55 218.6 256.45 218.45 256.3 218.45 256.05 218.25 256.05 218.05 255.95 217.45 255.6 216.5 255.55 216.25 255.55 216.1 255.45 216 255.3 216 255.05 215.75 255.05 215.5 255.05
L 215.5 255.3
Q 215.25 255.3 215 255.05 214.75 255.05 214.5 255.05 214.25 255.05 214.15 254.95 214 254.8 214 254.55 213.75 254.55 213.5 254.55 213.25 254.55 213.15 254.45 213 254.3 213 254.05 212.75 254.05 212.5 254.05 212.25 254.05 212.05 254.05 211.8 254.05 211.65 253.95 211.55 253.8 211.55 253.6 211.3 253.6 211.05 253.5 208.3 252.35 204.6 252.1 204.35 252.1 204.2 251.95 204.1 251.85 204.1 251.6 203.85 251.6 203.6 251.6 203.35 251.6 203.1 251.6 202.85 251.6 202.75 251.45 202.6 251.35 202.6 251.1 202.35 251.35 202.15 251.3 200.3 250.9 197.65 250.85 197.4 250.85 197.15 250.85 189.2 250.6 181.3 250.6 181.3 250.85 181.15 250.95 181.05 251.1 180.8 251.1 180.55 251.1 180.3 251.1 177.3 251.1 174.35 251.1 174.35 251.35 174.2 251.45 174.1 251.6 173.85 251.6 173.6 251.6 173.35 251.6 171.85 251.6 170.35 251.6 170.35 251.85 170.25 251.95 170.1 252.1 169.85 252.1 169.6 252.1 169.4 252.15 167.55 252.6 163.9 252.6 163.9 252.85 163.8 252.9 163.45 253.1 162.95 253.1 162.7 253.1 162.45 253.1 161.7 253.1 160.95 253.1 160.95 253.35 160.8 253.45 160.7 253.6 160.45 253.6 160.2 253.6 159.95 253.6 158.95 253.6 157.95 253.6 157.95 253.8 157.85 253.95 157.7 254.05 157.45 254.05 157.25 254.05 157 254.15 155.75 254.55 154 254.55 154 254.8 153.9 254.95 153.75 255.05 153.5 255.05 153.25 255.05 153.05 255.15 151.8 255.85 149.55 255.55 149.55 255.8 149.4 255.95 149.3 256.05 149.05 256.05 148.8 256.05 148.55 256.15 146.3 256.8 143.6 257.05 143.6 257.3 143.45 257.4 143.35 257.55 143.1 257.55 142.85 257.55 142.6 257.55 142.1 257.55 141.6 257.55 141.6 257.8 141.5 257.9 141.35 258.05 141.1 258.05 140.85 258.05 140.6 258.05 140.1 258.05 139.6 258.05 139.6 258.3 139.5 258.4 139.35 258.55 139.15 258.55 138.9 258.55 138.65 258.55 138.15 258.55 137.65 258.55 137.65 258.8 137.5 258.9 137.4 259.05 137.15 259.05 136.9 259.05 136.65 259.05 136.15 259.05 135.65 259.05 135.65 259.3 135.55 259.4 135.4 259.55 135.15 259.55 134.9 259.55 134.65 259.55 134.15 259.55 133.65 259.55 133.65 259.75 133.55 259.9 133.4 260 133.15 260 132.95 260 132.7 260 132.2 260 131.7 260 131.7 260.25 131.55 260.4 131.45 260.5 131.2 260.5 130.95 260.5 130.7 260.5 129.95 260.5 129.2 260.5 129.2 260.75 129.1 260.9 128.95 261 128.7 261 128.45 261 128.2 261 127.95 261 127.7 261 127.7 261.25 127.6 261.4 127.45 261.5 127.2 261.5 127 261.5 126.75 261.5 126.5 261.5 126.25 261.5 126.25 261.75 126.1 261.9 126 262 125.75 262 125.5 262 125.25 262 125 262 124.75 262 124.75 262.25 124.65 262.3 124.25 262.5 123.75 262.5 123.5 262.5 123.25 262.5 122.75 262.5 122.25 262.5 122.25 262.75 122.15 262.85 122 263 121.75 263 121.5 263 121.25 263 120.8 263 120.3 263 120.3 263.25 120.15 263.35 120.05 263.5 119.8 263.5 119.55 263.5 119.3 263.5 118.8 263.5 118.3 263.5 118.3 263.75 118.15 263.85 118.05 264 117.8 264 117.55 264 117.3 264 117.3 264.25 117.2 264.35 117.05 264.5 116.8 264.5 116.55 264.5 116.3 264.5 113.45 264.85 110.85 265.5 110.85 265.75 110.75 265.85 110.6 265.95 110.35 265.95 110.1 265.95 109.85 265.95 Z"/>
</g>

<g id="Mask_5_MASK_0_FILL">
<path fill="#FFFFFF" stroke="none" d="
M 448.8 271.2
L 448.8 202.05 306.6 202.05 306.6 271.2 448.8 271.2 Z"/>
</g>

<g id="Layer5_0_FILL">
<path fill="#000000" fill-opacity="0.5215686274509804" stroke="none" d="
M 322.1 262
Q 322.1 261.75 322 261.65 321.85 261.5 321.65 261.5 321.65 261.75 321.75 261.9 321.85 262 322.1 262
M 375.2 250.6
Q 374.95 250.6 374.7 250.6 374.7 250.85 374.7 251.1 374.95 251.1 375.05 250.95 375.2 250.85 375.2 250.6
M 384.5 248.4
Q 384.6 248.35 384.6 248.1 384.35 248.1 384.1 248.1 383.85 248.1 383.6 248.1 383.6 248.35 383.6 248.6 384.1 248.6 384.5 248.4
M 388.1 248.1
Q 387.85 248.1 387.6 248.1 387.6 248.35 387.6 248.6 387.85 248.6 387.95 248.5 388.1 248.35 388.1 248.1
M 333.05 260
Q 333 260.85 333.9 260.3 334 260.25 334 260 333.8 260 333.55 260 333.3 260 333.05 260
M 341.45 258.55
Q 341.45 258.8 341.45 259.05 341.7 259.05 341.85 258.9 341.95 258.8 341.95 258.55 341.7 258.55 341.45 258.55
M 358.8 254.55
Q 358.55 254.55 358.3 254.55 358.1 254.55 357.85 254.55 357.85 254.8 357.85 255.05 358.3 255.05 358.7 254.85 358.8 254.8 358.8 254.55 Z"/>

<path fill="#000000" fill-opacity="0.5333333333333333" stroke="none" d="
M 313.7 255.55
Q 313.7 255.3 313.55 255.2 313.45 255.05 313.2 255.05 313.2 255.3 313.3 255.45 313.45 255.55 313.7 255.55
M 431.1 245.75
Q 431 245.65 430.75 245.65 430.75 245.9 430.85 246 431 246.15 431.25 246.15 431.25 245.9 431.1 245.75 Z"/>

<path fill="#000000" fill-opacity="0.5764705882352941" stroke="none" d="
M 312.2 252.6
Q 312.2 252.35 312.1 252.2 311.95 252.1 311.7 252.1 311.7 252.35 311.85 252.45 311.95 252.6 312.2 252.6
M 410.9 246.15
Q 410.9 245.9 410.75 245.75 410.65 245.65 410.4 245.65 410.4 245.9 410.5 246 410.65 246.15 410.9 246.15 Z"/>

<path fill="#000000" fill-opacity="0.5176470588235295" stroke="none" d="
M 311.7 251.1
Q 311.7 250.85 311.6 250.65 311.45 250.35 311.2 250.1 311.2 250.6 311.4 251 311.45 251.1 311.7 251.1
M 323 223.2
Q 323.1 223.1 323.1 222.85 322.85 222.85 322.6 222.85 322.6 223.1 322.6 223.3 322.85 223.3 323 223.2 Z"/>

<path fill="#000000" fill-opacity="0.5607843137254902" stroke="none" d="
M 313.05 251.2
Q 312.95 251.1 312.7 251.1 312.7 251.35 312.8 251.45 312.95 251.6 313.2 251.6 313.2 251.35 313.05 251.2
M 370.7 252.6
Q 370.45 252.6 370.25 252.6 370.25 252.85 370.25 253.1 370.45 253.1 370.6 252.95 370.7 252.85 370.7 252.6
M 325.45 222.7
Q 325.6 222.6 325.6 222.35 325.35 222.35 325.1 222.35 325.1 222.6 325.1 222.85 325.35 222.85 325.45 222.7 Z"/>

<path fill="#000000" fill-opacity="0.43137254901960786" stroke="none" d="
M 311.2 248.1
Q 311.2 247.85 311.2 247.6 310.95 247.6 310.7 247.6 310.7 247.85 310.85 248 310.95 248.1 311.2 248.1
M 439.15 251.1
Q 439.15 250.85 439.05 250.7 438.9 250.6 438.65 250.6 438.65 250.85 438.8 250.95 438.9 251.1 439.15 251.1
M 435.7 249.6
Q 435.7 249.35 435.55 249.25 435.45 249.1 435.2 249.1 435.2 249.35 435.3 249.5 435.45 249.6 435.7 249.6
M 408.8 244.3
Q 408.65 244.15 408.4 244.15 408.4 244.4 408.55 244.5 408.65 244.65 408.9 244.65 408.9 244.4 408.8 244.3 Z"/>

<path fill="#000000" fill-opacity="0.403921568627451" stroke="none" d="
M 319.25 257.9
Q 319.4 258.05 319.65 258.05 319.65 257.8 319.5 257.65 319.4 257.55 319.15 257.55 319.15 257.8 319.25 257.9
M 338.5 260.5
Q 338.5 260.75 338.5 261 338.75 261 338.85 260.9 339 260.75 339 260.5 338.75 260.5 338.5 260.5 Z"/>

<path fill="#000000" fill-opacity="0.43529411764705883" stroke="none" d="
M 316.15 258.55
Q 316.15 258.8 316.3 258.9 316.4 259.05 316.65 259.05 316.65 258.8 316.55 258.65 316.4 258.55 316.15 258.55
M 312.1 242.05
Q 312.2 241.9 312.2 241.65 311.95 241.65 311.7 241.65 311.7 241.9 311.7 242.15 311.95 242.15 312.1 242.05
M 343.45 259.05
Q 343.45 259.3 343.45 259.55 343.7 259.55 343.8 259.4 343.95 259.3 343.95 259.05 343.7 259.05 343.45 259.05 Z"/>

<path fill="#000000" fill-opacity="0.6" stroke="none" d="
M 315.55 257.65
Q 315.45 257.55 315.2 257.55 315.2 257.8 315.3 257.9 315.45 258.05 315.65 258.05 315.65 257.8 315.55 257.65
M 318.15 229.75
Q 318.4 229.75 318.55 229.65 318.65 229.5 318.65 229.3 318.4 229.3 318.15 229.3 318.15 229.5 318.15 229.75 Z"/>

<path fill="#000000" fill-opacity="0.42745098039215684" stroke="none" d="
M 314.55 256.7
Q 314.45 256.55 314.2 256.55 314.2 256.8 314.3 256.9 314.45 257.05 314.7 257.05 314.7 256.8 314.55 256.7 Z"/>

<path fill="#000000" fill-opacity="0.396078431372549" stroke="none" d="
M 315.2 254.55
Q 315.2 254.8 315.3 254.95 315.45 255.05 315.65 255.05 315.65 254.8 315.55 254.7 315.45 254.55 315.2 254.55
M 314.55 235.6
Q 314.7 235.45 314.7 235.25 314.45 235.25 314.2 235.25 314.2 235.45 314.2 235.7 314.45 235.7 314.55 235.6
M 443.75 250
Q 443.85 250.1 444.1 250.1 444.1 249.85 444 249.75 443.85 249.6 443.6 249.6 443.6 249.85 443.75 250 Z"/>

<path fill="#000000" fill-opacity="0.4235294117647059" stroke="none" d="
M 314.2 253.1
Q 314.2 252.85 314.05 252.7 313.95 252.6 313.7 252.6 313.7 252.85 313.8 252.95 313.95 253.1 314.2 253.1
M 318.15 232.75
Q 317.9 232.75 317.65 232.75 317.65 233 317.65 233.25 317.9 233.25 318.05 233.1 318.15 233 318.15 232.75
M 322.6 226.3
Q 322.35 226.3 322.1 226.3 322.1 226.55 322.1 226.8 322.35 226.8 322.5 226.65 322.6 226.55 322.6 226.3
M 412.5 244.5
Q 412.65 244.65 412.9 244.65 412.9 244.4 412.75 244.3 412.65 244.15 412.4 244.15 412.4 244.4 412.5 244.5 Z"/>

<path fill="#000000" fill-opacity="0.45098039215686275" stroke="none" d="
M 313.2 243.15
Q 312.95 243.15 312.7 243.15 312.7 243.4 312.7 243.65 312.95 243.65 313.05 243.55 313.2 243.4 313.2 243.15 Z"/>

<path fill="#000000" fill-opacity="0.6509803921568628" stroke="none" d="
M 311.75 244.15
Q 311.7 243.9 311.7 243.65 311.45 243.65 311.2 243.65 311.2 244.4 311.2 245.15 311.2 245.4 311.2 245.65 312.05 245.5 311.75 244.15 Z"/>

<path fill="#000000" fill-opacity="0.4588235294117647" stroke="none" d="
M 312.2 240.7
Q 312.45 240.7 312.6 240.55 312.7 240.45 312.7 240.2 312.45 240.2 312.2 240.2 312.2 240.45 312.2 240.7
M 379.15 250.6
Q 378.9 250.6 378.65 250.6 378.65 250.85 378.65 251.1 378.9 251.1 379.05 250.95 379.15 250.85 379.15 250.6
M 327.1 262.5
Q 327.1 262.25 326.95 262.15 326.85 262 326.6 262 326.6 262.25 326.7 262.4 326.85 262.5 327.1 262.5
M 413.85 244.15
Q 413.6 244.15 413.35 244.15 413.35 244.4 413.35 244.65 413.6 244.65 413.75 244.5 413.85 244.4 413.85 244.15 Z"/>

<path fill="#000000" fill-opacity="0.48627450980392156" stroke="none" d="
M 312.7 239.7
Q 312.95 239.7 313.05 239.55 313.2 239.45 313.2 239.2 312.95 239.2 312.7 239.2 312.7 239.45 312.7 239.7
M 332.55 261
Q 332.55 261.25 332.65 261.4 332.8 261.5 333.05 261.5 333.05 261.25 332.9 261.15 332.8 261 332.55 261
M 418.7 245.75
Q 418.6 245.65 418.35 245.65 418.35 245.9 418.45 246 418.6 246.15 418.85 246.15 418.85 245.9 418.7 245.75 Z"/>

<path fill="#000000" fill-opacity="0.49411764705882355" stroke="none" d="
M 313.7 236.2
Q 313.7 236.45 313.7 236.7 313.95 236.7 314.05 236.6 314.2 236.45 314.2 236.2 313.95 236.2 313.7 236.2
M 336.4 259.8
Q 336.5 259.75 336.5 259.55 336.25 259.55 336 259.55 335.75 259.55 335.5 259.55 335.5 259.75 335.5 260 336 260 336.4 259.8 Z"/>

<path fill="#000000" fill-opacity="0.4" stroke="none" d="
M 313.55 238.1
Q 313.7 237.95 313.7 237.7 313.45 237.7 313.2 237.7 313.2 237.95 313.2 238.2 313.45 238.2 313.55 238.1
M 324 221.7
Q 324.1 221.6 324.1 221.35 323.85 221.35 323.6 221.35 323.6 221.6 323.6 221.85 323.85 221.85 324 221.7
M 423.8 246.15
Q 423.55 246.15 423.3 246.15 423.3 246.4 423.3 246.65 423.55 246.65 423.65 246.5 423.8 246.4 423.8 246.15 Z"/>

<path fill="#000000" fill-opacity="0.49019607843137253" stroke="none" d="
M 315.55 234.1
Q 315.65 234 315.65 233.75 315.45 233.75 315.2 233.75 315.2 234 315.2 234.25 315.45 234.25 315.55 234.1
M 324.1 260
Q 324.1 259.75 324 259.65 323.85 259.55 323.6 259.55 323.6 259.75 323.75 259.9 323.85 260 324.1 260
M 362.8 253.6
Q 362.55 253.6 362.3 253.6 362.3 253.8 362.3 254.05 362.8 254.05 363.2 253.85 363.3 253.8 363.3 253.6 363.05 253.6 362.8 253.6 Z"/>

<path fill="#000000" fill-opacity="0.47058823529411764" stroke="none" d="
M 318.65 230.75
Q 318.65 231 318.65 231.25 318.9 231.25 319 231.15 319.15 231 319.15 230.75 318.9 230.75 318.65 230.75
M 321 225.7
Q 321.15 225.55 321.15 225.3 320.9 225.3 320.65 225.3 320.65 225.55 320.65 225.8 320.9 225.8 321 225.7
M 401.95 245.65
Q 401.95 245.9 401.95 246.15 403.45 246.15 404.9 245.9 404.95 245.9 404.95 245.65 404.7 245.65 404.45 245.65 403.2 245.65 401.95 245.65 Z"/>

<path fill="#000000" fill-opacity="0.4745098039215686" stroke="none" d="
M 321.15 228.3
Q 320.9 228.3 320.65 228.3 320.65 228.55 320.65 228.8 320.9 228.8 321 228.65 321.15 228.55 321.15 228.3
M 358.25 255.85
Q 358.3 255.8 358.3 255.55 358.1 255.55 357.85 255.55 357.35 255.55 356.85 255.55 356.85 255.8 356.85 256.05 357.6 256.05 358.25 255.85
M 406.95 245.65
Q 407.15 245.65 407.4 245.65 407.65 245.65 407.9 245.65 407.9 245.4 407.8 245.35 407.4 245.15 406.95 245.15 406.95 245.4 406.95 245.65 Z"/>

<path fill="#000000" fill-opacity="0.5098039215686274" stroke="none" d="
M 322.6 225.3
Q 322.6 225.55 322.6 225.8 322.85 225.8 323 225.7 323.1 225.55 323.1 225.3 322.85 225.3 322.6 225.3
M 374.2 251.6
Q 374.2 251.85 374.2 252.1 374.45 252.1 374.55 251.95 374.7 251.85 374.7 251.6 374.45 251.6 374.2 251.6 Z"/>

<path fill="#000000" fill-opacity="0.4117647058823529" stroke="none" d="
M 322.1 223.8
Q 321.85 223.8 321.65 223.8 321.65 224.05 321.65 224.3 321.85 224.3 322 224.2 322.1 224.05 322.1 223.8 Z"/>

<path fill="#000000" fill-opacity="0.5137254901960784" stroke="none" d="
M 365.25 254.55
Q 365 254.55 364.75 254.55 364.75 254.8 364.75 255.05 365 255.05 365.15 254.95 365.25 254.8 365.25 254.55
M 326.1 262
Q 325.85 262 325.6 262 325.35 262 325.1 262 325.05 262.8 326 262.3 326.1 262.25 326.1 262 Z"/>

<path fill="#000000" fill-opacity="0.4980392156862745" stroke="none" d="
M 366.15 254.45
Q 366.25 254.3 366.25 254.05 366 254.05 365.75 254.05 365.75 254.3 365.75 254.55 366 254.55 366.15 254.45
M 377.05 250.5
Q 377.15 250.35 377.15 250.1 376.9 250.1 376.65 250.1 376.65 250.35 376.65 250.6 376.9 250.6 377.05 250.5
M 380.65 250.1
Q 380.4 250.1 380.15 250.1 380.15 250.35 380.15 250.6 380.4 250.6 380.5 250.5 380.65 250.35 380.65 250.1
M 352.8 256.35
Q 352.85 256.3 352.85 256.05 352.6 256.05 352.35 256.05 351.9 256.05 351.4 256.05 351.4 256.3 351.4 256.55 352.15 256.55 352.8 256.35
M 324.6 223.8
Q 324.35 223.8 324.1 223.8 324.1 224.05 324.1 224.3 324.35 224.3 324.5 224.2 324.6 224.05 324.6 223.8 Z"/>

<path fill="#000000" fill-opacity="0.5411764705882353" stroke="none" d="
M 368.25 253.1
Q 368 253.1 367.75 253.1 367.75 253.35 367.75 253.6 368 253.6 368.1 253.45 368.25 253.35 368.25 253.1
M 382.5 249
Q 382.6 248.85 382.6 248.6 382.4 248.6 382.15 248.6 382.15 248.85 382.15 249.1 382.4 249.1 382.5 249
M 330.55 262.5
Q 330.55 262.25 330.5 262.25 329.55 262 328.55 262 328.7 262.85 330.05 262.55 330.3 262.5 330.55 262.5 Z"/>

<path fill="#000000" fill-opacity="0.4666666666666667" stroke="none" d="
M 366.25 253.1
Q 366.5 253.1 366.65 252.95 366.75 252.85 366.75 252.6 366.5 252.6 366.25 252.6 366.25 252.85 366.25 253.1
M 360.3 255.05
Q 360.05 255.05 359.8 255.05 359.8 255.3 359.8 255.55 360.05 255.55 360.2 255.45 360.3 255.3 360.3 255.05 Z"/>

<path fill="#000000" fill-opacity="0.5372549019607843" stroke="none" d="
M 384.1 249.1
Q 383.85 249.1 383.6 249.1 383.6 249.35 383.6 249.6 383.85 249.6 384 249.5 384.1 249.35 384.1 249.1
M 359.8 254.55
Q 360.05 254.55 360.2 254.45 360.3 254.3 360.3 254.05 360.05 254.05 359.8 254.05 359.8 254.3 359.8 254.55 Z"/>

<path fill="#000000" fill-opacity="0.44313725490196076" stroke="none" d="
M 382.5 250
Q 382.6 249.85 382.6 249.6 382.4 249.6 382.15 249.6 382.15 249.85 382.15 250.1 382.4 250.1 382.5 250
M 344.3 258.4
Q 344.45 258.3 344.45 258.05 344.2 258.05 343.95 258.05 343.95 258.3 343.95 258.55 344.2 258.55 344.3 258.4
M 356.35 255.05
Q 356.1 255.05 355.85 255.05 355.85 255.3 355.85 255.55 356.1 255.55 356.2 255.45 356.35 255.3 356.35 255.05
M 327.1 221.35
Q 326.85 221.35 326.6 221.35 326.6 221.6 326.6 221.85 326.85 221.85 326.95 221.7 327.1 221.6 327.1 221.35 Z"/>

<path fill="#000000" fill-opacity="0.5058823529411764" stroke="none" d="
M 386.6 248.6
Q 386.35 248.6 386.1 248.6 385.85 248.6 385.6 248.6 385.6 248.85 385.6 249.1 386.1 249.1 386.5 248.9 386.6 248.85 386.6 248.6
M 348.3 257.4
Q 348.4 257.3 348.4 257.05 348.15 257.05 347.9 257.05 347.9 257.3 347.9 257.55 348.15 257.55 348.3 257.4
M 443.6 253.1
Q 443.4 253.1 443.15 253.1 443.4 253.35 443.6 253.35
L 443.6 253.1
M 407.4 244.15
Q 407.15 244.15 406.95 244.15 406.95 244.4 406.95 244.65 407.15 244.65 407.3 244.5 407.4 244.4 407.4 244.15 Z"/>

<path fill="#000000" fill-opacity="0.47843137254901963" stroke="none" d="
M 386.6 247.6
Q 386.35 247.6 386.1 247.6 386.1 247.85 386.1 248.1 386.35 248.1 386.45 248 386.6 247.85 386.6 247.6
M 362.3 254.55
Q 362.3 254.8 362.3 255.05 362.55 255.05 362.8 255.05 362.8 254.8 362.65 254.7 362.55 254.55 362.3 254.55
M 432.2 248.1
Q 432.2 248.35 432.35 248.5 432.45 248.6 432.7 248.6 432.7 248.35 432.6 248.25 432.45 248.1 432.2 248.1 Z"/>

<path fill="#000000" fill-opacity="0.5019607843137255" stroke="none" d="
M 337.4 261.3
Q 337.5 261.25 337.5 261 337.25 261 337 261 336.5 261 336 261 336 261.25 336 261.5 336.75 261.5 337.4 261.3
M 354.75 255.95
Q 354.85 255.8 354.85 255.55 354.6 255.55 354.35 255.55 354.35 255.8 354.35 256.05 354.6 256.05 354.75 255.95 Z"/>

<path fill="#000000" fill-opacity="0.5254901960784314" stroke="none" d="
M 340.45 260
Q 340.6 260.85 341.85 260.3 341.95 260.25 341.95 260 341.7 260 341.45 260 340.95 260 340.45 260 Z"/>

<path fill="#000000" fill-opacity="0.5803921568627451" stroke="none" d="
M 329.05 260.25
L 329.05 260
Q 328.8 260 328.55 260 328.8 260.25 329.05 260.25
M 431.7 248.1
Q 431.7 247.85 431.6 247.75 431.45 247.6 431.25 247.6 431.25 247.85 431.35 248 431.45 248.1 431.7 248.1 Z"/>

<path fill="#000000" fill-opacity="0.40784313725490196" stroke="none" d="
M 340.95 259.05
Q 340.95 258.8 340.85 258.65 340.7 258.55 340.45 258.55 340.45 258.8 340.45 259.05 340.7 259.05 340.95 259.05
M 409.9 244.15
Q 409.65 244.15 409.4 244.15 409.4 244.4 409.4 244.65 409.65 244.65 409.8 244.5 409.9 244.4 409.9 244.15 Z"/>

<path fill="#000000" fill-opacity="0.4823529411764706" stroke="none" d="
M 347.9 258.05
Q 347.65 258.05 347.4 258.05 347.4 258.3 347.4 258.55 347.65 258.55 347.8 258.4 347.9 258.3 347.9 258.05
M 424.8 246.65
Q 424.8 246.4 424.65 246.25 424.55 246.15 424.3 246.15 424.3 246.4 424.4 246.5 424.55 246.65 424.8 246.65 Z"/>

<path fill="#000000" fill-opacity="0.596078431372549" stroke="none" d="
M 354.75 256.9
Q 354.85 256.8 354.85 256.55 354.6 256.55 354.35 256.55 354.35 256.8 354.35 257.05 354.6 257.05 354.75 256.9
M 325.1 219.35
Q 324.85 219.35 324.6 219.35 324.6 219.6 324.6 219.85 324.85 219.85 324.95 219.75 325.1 219.6 325.1 219.35 Z"/>

<path fill="#000000" fill-opacity="0.5882352941176471" stroke="none" d="
M 364.3 253.1
Q 364.3 253.35 364.3 253.6 364.5 253.6 364.65 253.45 364.75 253.35 364.75 253.1 364.5 253.1 364.3 253.1 Z"/>

<path fill="#000000" fill-opacity="0.41568627450980394" stroke="none" d="
M 325.1 223.3
Q 324.85 223.3 324.6 223.3 324.6 223.55 324.6 223.8 324.85 223.8 324.95 223.7 325.1 223.55 325.1 223.3
M 434.8 247
Q 434.95 247.15 435.2 247.15 435.2 246.9 435.05 246.75 434.95 246.65 434.7 246.65 434.7 246.9 434.8 247 Z"/>

<path fill="#000000" fill-opacity="0.5529411764705883" stroke="none" d="
M 327.6 220.85
Q 327.35 220.85 327.1 220.85 327.1 221.1 327.1 221.35 327.35 221.35 327.45 221.2 327.6 221.1 327.6 220.85 Z"/>

<path fill="#000000" fill-opacity="0.592156862745098" stroke="none" d="
M 324.5 220.7
Q 324.6 220.6 324.6 220.35 324.35 220.35 324.1 220.35 324.1 220.6 324.1 220.85 324.35 220.85 324.5 220.7
M 433.2 246.65
Q 433.2 246.4 433.1 246.25 432.95 246.15 432.7 246.15 432.7 246.4 432.85 246.5 432.95 246.65 433.2 246.65 Z"/>

<path fill="#000000" fill-opacity="0.5843137254901961" stroke="none" d="
M 402.45 244.65
Q 402.45 244.9 402.45 245.15 402.7 245.15 402.85 245 402.95 244.9 402.95 244.65 402.7 244.65 402.45 244.65 Z"/>

<path fill="#000000" fill-opacity="0.4549019607843137" stroke="none" d="
M 398.5 245.65
Q 398.75 245.65 398.85 245.5 399 245.4 399 245.15 398.75 245.15 398.5 245.15 398.5 245.4 398.5 245.65 Z"/>

<path fill="#000000" fill-opacity="0.5647058823529412" stroke="none" d="
M 391.9 247.25
Q 391.8 247.15 391.55 247.15 391.55 247.4 391.55 247.6 391.8 247.6 392.05 247.6 392.05 247.4 391.9 247.25 Z"/>

<path fill="#000000" fill-opacity="0.5294117647058824" stroke="none" d="
M 437.2 247.6
Q 437.2 247.85 437.3 248 437.4 248.1 437.65 248.1 437.65 247.85 437.55 247.75 437.4 247.6 437.2 247.6
M 414.35 244.15
Q 414.6 244.4 414.85 244.4
L 414.85 244.15
Q 414.6 244.15 414.35 244.15 Z"/>

<path fill="#000000" fill-opacity="0.4392156862745098" stroke="none" d="
M 444.6 251.6
Q 444.6 251.85 444.6 252.1 444.85 252.1 444.9 252 445.45 251.05 444.6 251.1 444.6 251.35 444.6 251.6 Z"/>

<path fill="#000000" fill-opacity="0.5568627450980392" stroke="none" d="
M 414.35 246.15
Q 414.6 246.15 414.85 246.15 415.1 246.15 415.35 246.15 415.35 245.9 415.25 245.85 414.85 245.65 414.35 245.65 414.35 245.9 414.35 246.15 Z"/>

<path fill="#000000" fill-opacity="0.4470588235294118" stroke="none" d="
M 413.75 245.75
Q 413.6 245.65 413.35 245.65 413.35 245.9 413.5 246 413.6 246.15 413.85 246.15 413.85 245.9 413.75 245.75 Z"/>

<path fill="#000000" fill-opacity="0.9294117647058824" stroke="none" d="
M 408.4 244.15
Q 408.15 244.15 407.9 244.15 407.65 244.15 407.4 244.15 407.4 244.4 407.3 244.5 407.15 244.65 406.95 244.65 406.7 244.65 406.45 244.65 404.7 244.65 402.95 244.65 402.95 244.9 402.85 245 402.7 245.15 402.45 245.15 402.2 245.15 401.95 245.15 400.5 245.15 399 245.15 399 245.4 398.85 245.5 398.75 245.65 398.5 245.65 398.25 245.65 398 245.65 392 246.35 386.6 247.6 386.6 247.85 386.45 248 386.35 248.1 386.1 248.1 385.85 248.1 385.6 248.1 385.1 248.1 384.6 248.1 384.6 248.35 384.5 248.4 384.1 248.6 383.6 248.6 383.35 248.6 383.1 248.6 382.85 248.6 382.6 248.6 382.6 248.85 382.5 249 382.4 249.1 382.15 249.1 381.9 249.1 381.65 249.2 379.7 249.9 377.15 250.1 377.15 250.35 377.05 250.5 376.9 250.6 376.65 250.6 376.45 250.6 376.2 250.6 375.7 250.6 375.2 250.6 375.2 250.85 375.05 250.95 374.95 251.1 374.7 251.1 372.85 251.2 371.25 251.75 370.95 251.85 370.65 251.95 368.95 252.55 366.75 252.6 366.75 252.85 366.65 252.95 366.5 253.1 366.25 253.1 366 253.1 365.75 253.1 365.25 253.1 364.75 253.1 364.75 253.35 364.65 253.45 364.5 253.6 364.3 253.6 364.05 253.6 363.8 253.6 363.55 253.6 363.3 253.6 363.3 253.8 363.2 253.85 362.8 254.05 362.3 254.05 362.05 254.05 361.8 254.05 361.05 254.05 360.3 254.05 360.3 254.3 360.2 254.45 360.05 254.55 359.8 254.55 359.55 254.55 359.3 254.55 359.05 254.55 358.8 254.55 358.8 254.8 358.7 254.85 358.3 255.05 357.85 255.05 357.6 255.05 357.35 255.05 356.85 255.05 356.35 255.05 356.35 255.3 356.2 255.45 356.1 255.55 355.85 255.55 355.6 255.55 355.35 255.55 355.1 255.55 354.85 255.55 354.85 255.8 354.75 255.95 354.6 256.05 354.35 256.05 354.1 256.05 353.85 256.05 353.35 256.05 352.85 256.05 352.85 256.3 352.8 256.35 352.15 256.55 351.4 256.55 351.15 256.55 350.95 256.7 350.05 257.2 348.4 257.05 348.4 257.3 348.3 257.4 348.15 257.55 347.9 257.55 347.65 257.55 347.4 257.55 345.65 257.5 344.45 258.05 344.45 258.3 344.3 258.4 344.2 258.55 343.95 258.55 343.7 258.55 343.45 258.55 342.7 258.55 341.95 258.55 341.95 258.8 341.85 258.9 341.7 259.05 341.45 259.05 341.2 259.05 340.95 259.05 340.7 259.05 340.45 259.05 340.2 259.05 340 259.1 338.35 259.4 336.5 259.55 336.5 259.75 336.4 259.8 336 260 335.5 260 335.25 260 335 260 334.5 260 334 260 334 260.25 333.9 260.3 333 260.85 333.05 260 332.8 260 332.55 260 330.8 260 329.05 260
L 329.05 260.25
Q 328.8 260.25 328.55 260 328.3 260 328.05 260 326.1 260 324.1 260 323.85 260 323.75 259.9 323.6 259.75 323.6 259.55 323.35 259.55 323.15 259.45 321.5 258.7 319.65 258.05 319.4 258.05 319.25 257.9 319.15 257.8 319.15 257.55 318.9 257.55 318.7 257.4 317.15 256.3 315.65 255.05 315.45 255.05 315.3 254.95 315.2 254.8 315.2 254.55 315.2 254.3 315.1 254.25 314.35 253.9 314.2 253.1 313.95 253.1 313.8 252.95 313.7 252.85 313.7 252.6 313.7 252.35 313.6 252.15 313.45 251.85 313.2 251.6 312.95 251.6 312.8 251.45 312.7 251.35 312.7 251.1 312.7 250.85 312.7 250.6 312.7 247.15 312.7 243.65 312.7 243.4 312.7 243.15 312.95 243.15 313.2 243.15 313.2 242.9 313.2 242.65 313.2 242.4 313.2 242.15 313.8 241.05 314.35 239.75 315.7 236.25 317.65 233.25 317.65 233 317.65 232.75 317.9 232.75 318.15 232.75 318.15 232.5 318.15 232.25 318.4 232 318.55 231.7 318.65 231.5 318.65 231.25 318.65 231 318.65 230.75 318.9 230.75 319.15 230.75 319.15 230.5 319.15 230.25 319.9 229.75 320.5 229.15 320.65 229.05 320.65 228.8 320.65 228.55 320.65 228.3 320.9 228.3 321.15 228.3 321.65 227.8 322 227.2 322.1 227.05 322.1 226.8 322.1 226.55 322.1 226.3 322.35 226.3 322.6 226.3 322.6 226.05 322.6 225.8 322.6 225.55 322.6 225.3 322.85 225.3 323.1 225.3 323.6 225.05 324 224.7 324.1 224.55 324.1 224.3 324.1 224.05 324.1 223.8 324.35 223.8 324.6 223.8 324.6 223.55 324.6 223.3 324.85 223.3 325.1 223.3 325.1 223.1 325.1 222.85 325.1 222.6 325.1 222.35 325.35 222.35 325.6 222.35 325.85 222.1 326.15 221.95 326.35 221.85 326.6 221.85 326.6 221.6 326.6 221.35 326.85 221.35 327.1 221.35 327.1 221.1 327.1 220.85 327.35 220.85 327.6 220.85 328.9 220.15 329.65 218.9 330.7 217.25 328.9 216.1 328.55 215.9 328.3 216.15 326.75 217.5 325.1 218.85 325.1 219.1 325.1 219.35 325.1 219.6 324.95 219.75 324.85 219.85 324.6 219.85 324.6 220.1 324.6 220.35 324.6 220.6 324.5 220.7 324.35 220.85 324.1 220.85 324.1 221.1 324.1 221.35 324.1 221.6 324 221.7 323.85 221.85 323.6 221.85 323.6 222.1 323.5 222.2 323.35 222.35 323.1 222.35 323.1 222.6 323.1 222.85 323.1 223.1 323 223.2 322.85 223.3 322.6 223.3 322.6 223.55 322.5 223.7 322.35 223.8 322.1 223.8 322.1 224.05 322 224.2 321.85 224.3 321.65 224.3 321.65 224.55 321.5 224.7 321.4 224.8 321.15 224.8 321.15 225.05 321.15 225.3 321.15 225.55 321 225.7 320.9 225.8 320.65 225.8 320.65 226.05 320.55 226.25 319.85 227.5 318.65 228.3 318.65 228.55 318.65 228.8 318.65 229.05 318.65 229.3 318.65 229.5 318.55 229.65 318.4 229.75 318.15 229.75 318.15 230 318.05 230.15 316.8 231.65 315.65 233.25 315.65 233.5 315.65 233.75 315.65 234 315.55 234.1 315.45 234.25 315.2 234.25 315.2 234.5 315.05 234.6 314.95 234.75 314.7 234.75 314.7 235 314.7 235.25 314.7 235.45 314.55 235.6 314.45 235.7 314.2 235.7 314.2 235.95 314.2 236.2 314.2 236.45 314.05 236.6 313.95 236.7 313.7 236.7 313.7 236.95 313.7 237.2 313.7 237.45 313.7 237.7 313.7 237.95 313.55 238.1 313.45 238.2 313.2 238.2 313.2 238.45 313.2 238.7 313.2 238.95 313.2 239.2 313.2 239.45 313.05 239.55 312.95 239.7 312.7 239.7 312.7 239.95 312.7 240.2 312.7 240.45 312.6 240.55 312.45 240.7 312.2 240.7 312.2 240.95 312.2 241.2 312.2 241.45 312.2 241.65 312.2 241.9 312.1 242.05 311.95 242.15 311.7 242.15 311.7 242.65 311.7 243.15 311.7 243.4 311.7 243.65 311.7 243.9 311.75 244.15 312.05 245.5 311.2 245.65 311.2 246.4 311.2 247.15 311.2 247.4 311.2 247.6 311.2 247.85 311.2 248.1 311.2 248.85 311.2 249.6 311.2 249.85 311.2 250.1 311.45 250.35 311.6 250.65 311.7 250.85 311.7 251.1 311.7 251.35 311.7 251.6 311.7 251.85 311.7 252.1 311.95 252.1 312.1 252.2 312.2 252.35 312.2 252.6 312.25 254 313.05 254.7 313.2 254.8 313.2 255.05 313.45 255.05 313.55 255.2 313.7 255.3 313.7 255.55 313.95 255.8 314.1 256.1 314.2 256.3 314.2 256.55 314.45 256.55 314.55 256.7 314.7 256.8 314.7 257.05 314.7 257.3 314.8 257.4 314.95 257.55 315.2 257.55 315.45 257.55 315.55 257.65 315.65 257.8 315.65 258.05 315.65 258.3 315.8 258.4 315.9 258.55 316.15 258.55 316.4 258.55 316.55 258.65 316.65 258.8 316.65 259.05 318.8 260.35 321.2 261.4 321.4 261.5 321.65 261.5 321.85 261.5 322 261.65 322.1 261.75 322.1 262 323.35 262 324.6 262 324.85 262 325.1 262 325.35 262 325.6 262 325.85 262 326.1 262 326.35 262 326.6 262 326.85 262 326.95 262.15 327.1 262.25 327.1 262.5 327.6 262.25 328.1 262.1 328.3 262 328.55 262 329.55 262 330.5 262.25 330.55 262.25 330.55 262.5 332.15 262.65 332.3 261.05 332.3 261 332.55 261 332.8 261 332.9 261.15 333.05 261.25 333.05 261.5 334.25 261.5 335.5 261.5 335.75 261.5 336 261.5 336 261.25 336 261 336.5 261 337 261 337.25 261 337.5 261 337.75 261 338 261 338.25 261 338.5 261 338.5 260.75 338.5 260.5 338.75 260.5 339 260.5 339.5 260.25 340 260.1 340.2 260 340.45 260 340.95 260 341.45 260 341.7 260 341.95 260 341.95 259.75 341.95 259.55 342.45 259.55 342.95 259.55 343.2 259.55 343.45 259.55 343.45 259.3 343.45 259.05 343.7 259.05 343.95 259.05 345.45 258.8 346.9 258.55 347.15 258.55 347.4 258.55 347.4 258.3 347.4 258.05 347.65 258.05 347.9 258.05 351 257.65 353.85 257.1 354.1 257.05 354.35 257.05 354.35 256.8 354.35 256.55 354.6 256.55 354.85 256.55 355.8 256.55 356.4 256.2 356.6 256.05 356.85 256.05 356.85 255.8 356.85 255.55 357.35 255.55 357.85 255.55 358.1 255.55 358.3 255.55 358.8 255.55 359.3 255.55 359.55 255.55 359.8 255.55 359.8 255.3 359.8 255.05 360.05 255.05 360.3 255.05 361.05 255.05 361.8 255.05 362.05 255.05 362.3 255.05 362.3 254.8 362.3 254.55 362.55 254.55 362.65 254.7 362.8 254.8 362.8 255.05 363.55 255.05 364.3 255.05 364.5 255.05 364.75 255.05 364.75 254.8 364.75 254.55 365 254.55 365.25 254.55 365.5 254.55 365.75 254.55 365.75 254.3 365.75 254.05 366 254.05 366.25 254.05 366.75 253.8 367.3 253.65 367.5 253.6 367.75 253.6 367.75 253.35 367.75 253.1 368 253.1 368.25 253.1 369.25 254.05 369.9 253.2 370 253.1 370.25 253.1 370.25 252.85 370.25 252.6 370.45 252.6 370.7 252.6 372.2 252.35 373.7 252.1 373.95 252.1 374.2 252.1 374.2 251.85 374.2 251.6 374.45 251.6 374.7 251.6 376.95 251.85 378.2 251.2 378.4 251.1 378.65 251.1 378.65 250.85 378.65 250.6 378.9 250.6 379.15 250.6 379.4 250.6 379.65 250.6 379.9 250.6 380.15 250.6 380.15 250.35 380.15 250.1 380.4 250.1 380.65 250.1 381.15 250.1 381.65 250.1 381.9 250.1 382.15 250.1 382.15 249.85 382.15 249.6 382.4 249.6 382.6 249.6 382.85 249.6 383.1 249.6 383.35 249.6 383.6 249.6 383.6 249.35 383.6 249.1 383.85 249.1 384.1 249.1 384.6 249.1 385.1 249.1 385.35 249.1 385.6 249.1 385.6 248.85 385.6 248.6 385.85 248.6 386.1 248.6 386.35 248.6 386.6 248.6 386.85 248.6 387.1 248.6 387.35 248.6 387.6 248.6 387.6 248.35 387.6 248.1 387.85 248.1 388.1 248.1 390.05 248.35 391.1 247.7 391.3 247.6 391.55 247.6 391.55 247.4 391.55 247.15 391.8 247.15 391.9 247.25 392.05 247.4 392.05 247.6 394 246.85 397 246.8 398.15 246.8 399.1 246.4 399.75 246.15 400.5 246.15 401.2 246.15 401.95 246.15 401.95 245.9 401.95 245.65 403.2 245.65 404.45 245.65 404.7 245.65 404.95 245.65 405.7 245.65 406.45 245.65 406.7 245.65 406.95 245.65 406.95 245.4 406.95 245.15 407.4 245.15 407.8 245.35 407.9 245.4 407.9 245.65 408.9 245.65 409.9 245.65 410.15 245.65 410.4 245.65 410.65 245.65 410.75 245.75 410.9 245.9 410.9 246.15 411.9 245.9 412.9 245.7 413.1 245.65 413.35 245.65 413.6 245.65 413.75 245.75 413.85 245.9 413.85 246.15 414.1 246.15 414.35 246.15 414.35 245.9 414.35 245.65 414.85 245.65 415.25 245.85 415.35 245.9 415.35 246.15 417 246.3 417.9 245.75 418.1 245.65 418.35 245.65 418.6 245.65 418.7 245.75 418.85 245.9 418.85 246.15 420.55 245.55 422.85 246.55 423.05 246.65 423.3 246.65 423.3 246.4 423.3 246.15 423.55 246.15 423.8 246.15 424.05 246.15 424.3 246.15 424.55 246.15 424.65 246.25 424.8 246.4 424.8 246.65 428.2 246.7 430.75 247.55 431 247.6 431.25 247.6 431.45 247.6 431.6 247.75 431.7 247.85 431.7 248.1 431.95 248.1 432.2 248.1 432.45 248.1 432.6 248.25 432.7 248.35 432.7 248.6 434.1 248.5 434.75 249 434.95 249.1 435.2 249.1 435.45 249.1 435.55 249.25 435.7 249.35 435.7 249.6 437.3 249.75 438.25 250.5 438.4 250.6 438.65 250.6 438.9 250.6 439.05 250.7 439.15 250.85 439.15 251.1 441.35 251.6 442.75 252.95 442.9 253.1 443.15 253.1 443.4 253.1 443.6 253.1 444.7 253.4 444.65 252.6 444.6 252.35 444.6 252.1 444.6 251.85 444.6 251.6 444.6 251.35 444.6 251.1 444.6 250.85 444.5 250.65 444.35 250.35 444.1 250.1 443.85 250.1 443.75 250 443.6 249.85 443.6 249.6 443.4 249.6 443.15 249.6 440.1 249.2 437.65 248.1 437.4 248.1 437.3 248 437.2 247.85 437.2 247.6 436.95 247.6 436.7 247.6 435.7 247.6 435.2 247.15 434.95 247.15 434.8 247 434.7 246.9 434.7 246.65 434.45 246.65 434.2 246.65 433.7 246.65 433.2 246.65 432.95 246.65 432.85 246.5 432.7 246.4 432.7 246.15 432.45 246.15 432.2 246.15 431.7 246.15 431.25 246.15 431 246.15 430.85 246 430.75 245.9 430.75 245.65 430.5 245.65 430.25 245.6 422.65 244.75 414.85 244.15
L 414.85 244.4
Q 414.6 244.4 414.35 244.15 414.1 244.15 413.85 244.15 413.85 244.4 413.75 244.5 413.6 244.65 413.35 244.65 413.1 244.65 412.9 244.65 412.65 244.65 412.5 244.5 412.4 244.4 412.4 244.15 412.15 244.15 411.9 244.15 410.9 244.15 409.9 244.15 409.9 244.4 409.8 244.5 409.65 244.65 409.4 244.65 409.15 244.65 408.9 244.65 408.65 244.65 408.55 244.5 408.4 244.4 408.4 244.15 Z"/>
</g>

<g id="Layer3_0_FILL">
<path fill="#000000" fill-opacity="0.8784313725490196" stroke="none" d="
M 427.75 271.95
Q 427.25 271.9 426.95 272.15 425.5 273.4 422.8 273.55 421.75 273.65 421.3 273.75 420.3 273.9 419.4 274.2 417.65 274.7 414.85 274.65 414.35 274.65 413.85 274.7 411.15 274.9 408.4 275.05 407.4 275.15 406.4 275.2 404.45 275.4 402.5 275.7 399.6 276.25 395.5 276.15 395.25 276.15 395 276.15 392.3 276.4 389.6 276.6 382.9 277.2 375.2 277.15 374.95 277.15 374.7 277.15 364.3 277.4 353.85 277.65 349.8 277.75 347.4 277.65 347.15 277.65 346.9 277.65 346.65 277.65 346.45 277.65 344.1 277.8 341.45 277.85 326.85 277.9 312.7 278.55 310.25 278.65 309.7 278.65 308.1 278.75 306.3 278.65 306 278.6 305.75 278.6 305.5 278.6 305.25 278.6 293.6 278.85 281.95 279.1 280.35 279.15 277.5 279.2 275.4 279.25 274.5 278.95 273.15 278.5 272.8 279.1
L 272.55 279.1
Q 260.4 278.85 248.25 278.75 243.95 278.75 241.8 278.6 241.55 278.6 241.35 278.65 238.9 279.2 235.35 278.65 235.1 278.6 235.05 278.65 234.2 279.2 232.4 278.75 231.25 278.45 229.9 278.6 229.65 278.6 229.4 278.6 229.15 278.6 228.9 278.6 221.95 278.35 215 278.1 214.75 278.1 214.55 278.15 213.15 278.25 212.05 278.1 207.4 277.55 201.6 277.65 197.5 277.7 195.15 277.65 194.9 277.65 194.65 277.65 193.7 277.65 192.7 277.65 192.45 277.65 192.2 277.65 185.25 277.4 178.3 277.25 174.15 277.15 171.85 277.15 171.6 277.15 171.35 277.15 158.7 276.9 146.05 277.15 145.8 277.15 145.6 277.1 143.95 277 142.15 277.15 140 277.3 139.1 277.15 138.9 277.15 138.65 277.1 137.55 277 136.15 277.1 135.9 277.15 135.65 277.15 131.7 277.4 127.7 277.5 124.25 277.65 120.8 277.7 116.95 277.8 113.9 278.55 113.6 278.6 113.45 278.55 112.8 278.4 111.85 278.45 105.05 279 97.95 279.35 90.8 279.65 84.1 280.3 80.05 280.7 77.65 280.6 77.4 280.6 77.15 280.6 71.2 280.85 65.25 280.8 57.95 280.7 50.85 280.35 49.45 280.25 48.35 280.1 44.95 279.55 41.9 278.9 40.25 278.55 38.85 278.1 37.25 277.6 36.05 276.75 34.5 275.65 33.5 277.4 36.35 280.75 41.9 281.45 42.9 281.6 43.9 281.55 46.25 281.45 47.35 282.4 47.9 282.8 48.75 282.55 49.4 282.35 50.3 282.6 52.25 283.15 55.3 282.75 57.4 282.45 58.3 282.55 60.5 282.85 62.75 282.65 63.75 282.6 64.75 282.6 65.75 282.6 66.7 282.55 68.85 282.45 69.7 282.55 71.95 282.85 74.15 282.85 76.15 282.85 78.1 282.5 79.55 282.25 81.6 282.3 83.6 282.35 85.5 282.05 88.6 281.65 92.5 282.05 92.75 282.1 92.95 282.05 94.3 281.65 96 281.55 99.7 281.4 101.95 280.9 105.6 280.05 110.35 280 111.95 280 113.8 280.1 114.1 280.1 114.25 280.05 117.1 279.4 120.75 279.7 121.65 279.75 123.65 279.05 123.95 278.9 125.75 279.1 126 279.1 126.15 279.15 129.5 280 132.75 279.15 132.95 279.1 133.15 279.1 134.55 279 135.65 279 143.35 278.85 151.05 278.6 151.3 278.6 151.45 278.65 152.95 278.95 155 279.05 159.05 279.2 162 278.65 162.2 278.6 162.45 278.6 172.35 278.85 182.25 279.1 182.5 279.1 182.7 279.05 186.05 278.25 189.3 279.05 189.45 279.1 189.65 279.15 191.6 279.7 194.65 279.15 194.9 279.1 195.05 279.15 195.7 279.35 196.65 279.35 198.65 279.35 200.55 279.7 202.05 279.95 204.1 279.8 206.8 279.65 207.55 279.65 212.25 279.85 217 279.85 218 279.85 218.85 280.2 219.2 280.3 221 280.15 221.2 280.1 221.45 280.1 235.35 280.35 249.2 280.6 249.45 280.6 249.6 280.55 250.35 280.25 251.7 280.45 253.8 280.75 254.7 280.65 254.9 280.6 255.2 280.65 259.15 280.85 263.1 280.65 264.1 280.6 265.05 280.7 266.2 280.75 267.5 280.55 269 280.3 271 280.65 272.45 280.95 274.5 280.65 274.75 280.6 275 280.65 276.1 280.75 277.4 280.5 278 280.4 278.95 280.6 280.4 280.95 282.45 280.8 286.5 280.5 288.9 280.6 289.15 280.6 289.35 280.65 290.5 280.75 291.8 280.5 292.4 280.4 293.3 280.65 294.15 280.85 296.35 280.65 296.6 280.6 296.85 280.6 297.1 280.6 297.35 280.6 307.25 280.35 317.15 280.1 317.4 280.1 317.65 280.1 325.35 279.85 333.05 279.6 333.3 279.6 333.5 279.65 335.15 279.75 336.95 279.65 337.25 279.6 337.5 279.6 345.2 279.35 352.85 279.2 355.6 279.15 356.35 279.15 361.05 279.35 365.75 279.15 366 279.1 366.25 279.15 367.15 279.25 369.25 279.1 372.95 278.85 376.65 278.6 378.2 278.45 381.15 278.75 385.05 279.05 388.05 278.2 388.95 278 391.1 278.1 391.3 278.1 391.55 278.1 392.55 278.1 393.55 278.1 393.8 278.1 394.05 278.1 394.3 278.1 394.55 278.1 395.5 278.1 396.55 278.05 398.5 277.9 400.45 277.55 401.9 277.3 403.95 277.25 407.7 277.2 409.9 276.9 412.35 276.6 412.9 276.6 414.5 276.5 416.35 276.4 419.8 276.15 423.25 275.65 423.55 275.65 423.8 275.6 427.4 275.3 428.75 272.9 428.6 272.05 427.75 271.95 Z"/>
</g>

<g id="Layer1_0_FILL">
<path fill="#000000" fill-opacity="0.8823529411764706" stroke="none" d="
M 149.55 271.45
Q 149.55 271.7 149.55 271.9 149.55 272.4 149.8 272.65 150.9 273.8 153.5 273.5 157 273.15 158.45 273.25 162.2 273.4 165.9 273.7 171.2 274.05 179.3 274.15 179.55 274.15 179.75 274.15 182.5 273.9 185.7 274.15 186 274.15 186.25 274.15 193.2 274.4 200.1 274.4 214.75 274.4 229.4 274.15 229.65 274.15 229.9 274.15 237.45 274.05 244.25 273.3 247.5 272.9 251.2 272.7 251.45 272.65 251.7 272.7 255.15 272.9 258.15 272.35 259.15 272.15 260.15 272.15 260.4 272.15 260.55 272.1 262.55 271.65 265.6 271.6 269.65 271.6 272.05 271.65 273.05 271.7 274 271.7 281.8 271.8 288.4 271.2 288.65 271.2 288.8 271.15 289.4 270.95 290.3 271.25 291.6 271.7 293.8 271.1 294.35 270.95 295.25 271.2 297.3 271.75 300.3 271.3 301.9 271.05 303.75 271.05 305.65 271.05 307.1 271.75 308.35 272.25 308.25 269.45 308.25 268.95 308 268.7 307.75 268.45 307.25 268.35 305.6 267.95 303.8 269 303.5 269.2 303.25 269.2 300.3 269.45 297.35 269.55 294.3 269.65 293.35 269.6 288.4 269.45 283.45 269.7 283.2 269.7 282.95 269.65 282.1 269.55 279.95 269.65 279.7 269.7 279.45 269.7 279.2 269.7 279.1 269.65 278.45 269.45 277.5 269.65 277.25 269.7 276.95 269.7 273.25 269.95 269.6 270.25 268.45 270.35 267.05 270.4 264.35 270.45 261.65 270.7 258.5 271.05 254.7 271.2 254.45 271.2 254.2 271.15 252.65 271.05 249.7 271.3 247.75 271.45 245.8 271.7 242.7 272.1 238.85 272.3 228.65 272.7 217.5 272.7 213.85 272.75 211.55 272.65 211.3 272.65 211.15 272.7 209.8 273.2 207.6 272.65 205.6 272.2 204.45 272.6 204.35 272.65 204.1 272.65 201.65 272.7 201.15 272.7 199 272.8 198.1 272.7 197.9 272.65 197.65 272.65 196.55 272.5 195.2 272.65 194.9 272.65 194.7 272.65 191.7 272.15 187.75 272.3 184 272.4 180.3 272.1 178.6 271.95 177.3 272.3 176.8 272.4 176.6 272.15 176.15 271.6 174.85 271.65 170.55 271.8 168.4 271.7 168.15 271.7 167.9 271.7 166.9 271.7 165.9 271.7 165.65 271.7 165.4 271.65 163.45 271.45 161.45 271.2 159.65 270.95 155.5 270.95 154.5 270.95 153.6 270.65 151.1 269.85 149.55 271.45 Z"/>
</g>
</defs>

<mask id="Mask_Mask_1">
<g transform="matrix( 1, 0, 0, 1, 0,0) ">
<use xlink:href="#Mask_7_MASK_0_FILL"/>
</g>
</mask>

<g mask="url(#Mask_Mask_1)">
<g transform="matrix( 1, 0, 0, 1, 0,0) ">
<use xlink:href="#Layer7_0_FILL"/>
</g>
</g>

<mask id="Mask_Mask_2">
<g transform="matrix( 1, 0, 0, 1, 0,0) ">
<use xlink:href="#Mask_5_MASK_0_FILL"/>
</g>
</mask>

<g mask="url(#Mask_Mask_2)">
<g transform="matrix( 1, 0, 0, 1, 0,0) ">
<use xlink:href="#Layer5_0_FILL"/>
</g>
</g>

<g transform="matrix( 1, 0, 0, 1, 0,0) ">
<use xlink:href="#Layer3_0_FILL"/>
</g>

<g transform="matrix( 1, 0, 0, 1, 0,0) ">
<use xlink:href="#Layer1_0_FILL"/>
</g>
</svg>
