
<svg xmlns="http://www.w3.org/2000/svg" version="1.1" xmlns:xlink="http://www.w3.org/1999/xlink" preserveAspectRatio="none" x="0px" y="0px" width="500px" height="500px" viewBox="0 0 500 500">
<defs>
<g id="Mask_7_MASK_0_FILL">
<path fill="#FFFFFF" stroke="none" d="
M 331.55 273.45
L 331.55 194.45 23.05 194.45 23.05 273.45 331.55 273.45 Z"/>
</g>

<g id="Layer7_0_FILL">
<path fill="#000000" fill-opacity="0.8980392156862745" stroke="none" d="
M 115 265
Q 115 264.75 115.1 264.75 125.1 261.35 136.5 259.5 136.5 259.25 136.55 259.25 137.95 258.95 138.5 258 139.25 258 140 257.95 144.05 257.55 147.2 256.8 159.3 253.8 171.6 252.2 190.85 249.75 207.5 252 215.25 254.55 224.1 258.25 232.65 261.85 242.55 263.85 248.45 265.05 255 265.45 272.3 266.5 285.5 261 285.5 260.75 285.6 260.7 286.6 260.1 287 259 287.25 259 287.45 258.9 309.8 246.3 317 218.5 317 218.25 317 218 317.1 215.65 314.5 216 314.15 218.8 313.25 222.45 306.45 248.7 283.85 259.15 269.65 265.7 250.45 263.4 232.7 261.3 219.75 255.05 211.45 251.1 203 250.15 181.05 247.7 162.6 252 126.65 260.35 90.55 269.25 76.25 272.8 58.5 272.4 31.05 271.75 32.5 244 32.75 244 32.8 243.9 35.15 239.9 35.5 236.5 35.25 236.5 35.1 236.65 30.85 239.85 30 246.5 30.8 248.2 31 250.95 32.1 267.2 45.15 271.5 62.3 277.1 78.7 273.45 96.5 269.45 115 265 Z"/>
</g>

<g id="Mask_5_MASK_0_FILL">
<path fill="#FFFFFF" stroke="none" d="
M 456.15 271.2
L 456.15 202.05 313.95 202.05 313.95 271.2 456.15 271.2 Z"/>
</g>

<g id="Layer5_0_FILL">
<path fill="#000000" fill-opacity="0.8941176470588236" stroke="none" d="
M 439 248
Q 440.1 248.4 441.05 249.1 445.4 252.35 448 250.5 448.25 248.5 446.95 248.25 442.2 247.3 438.35 246.1 420.1 240.6 402 243.95 382.95 247.45 365.3 252.9 362.5447265625 253.7470703125 345.35 258.5 349.32265625 256.8953125 353.75 255.75 341.3283203125 258.1974609375 326.5 258.5 326.5 258.25 326.45 258.25 318.15 256.15 315 249 314.6 238.85 318.45 233.1 322.4 227.15 327.55 222.6 331.4 219.15 332 215 330.1 213.1 328.15 215.75 319.5 227.5 313.5 242 313.5 242.25 313.5 242.5 313.5 246 313.5 249.5 313.75 249.5 313.8 249.6 318.8 262.55 334 261 334 260.75 334.15 260.65 335.55 259.5 340 260 340 259.75 340.15 259.65 341.9091796875 258.4138671875 343.8 258.95 342.43515625 259.3263671875 340.95 259.7 342.48125 259.3458984375 343.9 258.95 343.95234375 258.9845703125 344 259 344.2451171875 259.0052734375 344.4 258.9 344.6142578125 258.8337890625 350.15 258.3 355.7310546875 257.8216796875 368 253.5 383.05 247.95 402.6 245.2 423.25 242.3 439 248 Z"/>
</g>

<g id="Layer3_0_FILL">
<path fill="#000000" fill-opacity="0.8784313725490196" stroke="none" d="
M 416.55 275.9
Q 426.25 275.5 432 271.5 432 271.25 431.9 271.2 429.5 270.05 427.5 272 396.45 276 359 276.3 339.75 276.45 317 277.2 303.65 277.65 286 277.7 277.1 277.7 266.5 277.7 243.6 277.7 226 277.25 215.4 276.95 206 276.7 186.15 276.1 165 275.7 147.1 275.35 135 275.5 123.4 275.65 113.9 276.6 83.9 279.65 51.5 278.5 46.45 278.3 41.85 276.6 37.05 274.8 33.5 276 37.2 279.8 43.95 280.75 49.8 281.5 57 281.55 69.1 281.6 83.95 280.55 103.65 279.15 122.5 278.5 129.3 277.3 136 277.2 150.7 277 163.5 277.05 186.3 277.15 204.55 278 224.1 278.85 247 279.1 266.5 279.35 285.5 279.25 294.85 279.2 306 279 350 278.25 389.5 276.9 402.65 276.4 416.55 275.9 Z"/>
</g>

<g id="Layer1_0_FILL">
<path fill="#000000" fill-opacity="0.8823529411764706" stroke="none" d="
M 150.5 270
Q 150.3 273 154.05 272.45 161.3 271.5 168.55 271.8 196.8 273.1 229.95 272 251.3 271.3 270.5 270.2 290.75 269 309.5 270.5 309.75 270.5 309.85 270.4 311.15 268.7 310 267 304 267.8 295.5 267.65 286.6 267.5 280.95 267.85 265.05 268.85 249.5 269.8 227.05 271.25 208 271.05 198.65 270.95 183 270.7 173.1 270.5 164.55 269.6 157.2 268.8 150.5 270 Z"/>
</g>
</defs>

<mask id="Mask_Mask_1">
<g transform="matrix( 1, 0, 0, 1, 0,0) ">
<use xlink:href="#Mask_7_MASK_0_FILL"/>
</g>
</mask>

<g mask="url(#Mask_Mask_1)">
<g transform="matrix( 1, 0, 0, 1, 0,0) ">
<use xlink:href="#Layer7_0_FILL"/>
</g>
</g>

<mask id="Mask_Mask_2">
<g transform="matrix( 1, 0, 0, 1, 0,0) ">
<use xlink:href="#Mask_5_MASK_0_FILL"/>
</g>
</mask>

<g mask="url(#Mask_Mask_2)">
<g transform="matrix( 1, 0, 0, 1, 0,0) ">
<use xlink:href="#Layer5_0_FILL"/>
</g>
</g>

<g transform="matrix( 1, 0, 0, 1, 0,0) ">
<use xlink:href="#Layer3_0_FILL"/>
</g>

<g transform="matrix( 1, 0, 0, 1, 0,0) ">
<use xlink:href="#Layer1_0_FILL"/>
</g>
</svg>
