
<svg xmlns="http://www.w3.org/2000/svg" version="1.1" xmlns:xlink="http://www.w3.org/1999/xlink" preserveAspectRatio="none" x="0px" y="0px" width="500px" height="500px" viewBox="0 0 500 500">
<defs>
<g id="Mask_7_MASK_0_FILL">
<path fill="#FFFFFF" stroke="none" d="
M 451.2 182.4
L 330.95 119.3 198.6 266.7 318.85 329.8 451.2 182.4 Z"/>
</g>

<g id="Layer7_0_FILL">
<path fill="#000000" fill-opacity="0.5372549019607843" stroke="none" d="
M 269.6 204.85
Q 269.6 204.6 269.45 204.5 269.35 204.35 269.1 204.35 269.1 204.6 269.2 204.75 269.35 204.85 269.6 204.85 Z"/>

<path fill="#000000" fill-opacity="0.4588235294117647" stroke="none" d="
M 271.6 204.85
Q 271.85 205.15 272.1 205.15
L 272.1 204.85
Q 271.85 204.85 271.6 204.85
M 321.75 218.05
Q 321.75 217.8 321.6 217.65 321.5 217.55 321.2 217.55 321.2 217.8 321.35 217.9 321.5 218.05 321.75 218.05
M 351.1 242.35
Q 351.1 242.1 350.95 241.95 350.85 241.8 350.6 241.8 350.6 242.1 350.7 242.2 350.85 242.35 351.1 242.35
M 344 242.35
Q 344 242.6 344.15 242.7 344.25 242.85 344.5 242.85 344.5 242.6 344.4 242.45 344.25 242.35 344 242.35 Z"/>

<path fill="#000000" fill-opacity="0.4745098039215686" stroke="none" d="
M 268.45 201.2
Q 268.6 201.1 268.6 200.8 268.35 200.8 268.05 200.8 268.05 201.1 268.05 201.35 268.35 201.35 268.45 201.2
M 322.85 219.95
Q 323 220.05 323.25 220.05 323.25 219.8 323.1 219.7 323 219.55 322.75 219.55 322.75 219.8 322.85 219.95
M 339.95 237.75
Q 340.2 238.05 340.5 238.2 340.7 238.3 340.95 238.3 340.95 238.05 340.85 238 340.45 237.75 339.95 237.75 Z"/>

<path fill="#000000" fill-opacity="0.4980392156862745" stroke="none" d="
M 268.95 204
Q 268.85 203.85 268.6 203.85 268.6 204.1 268.7 204.25 268.85 204.35 269.1 204.35 269.1 204.1 268.95 204
M 280.2 199.8
Q 279.95 199.8 279.7 199.8 279.7 200.05 279.7 200.3 279.95 200.3 280.1 200.2 280.2 200.05 280.2 199.8
M 338.8 239.4
Q 338.7 239.3 338.45 239.3 338.45 239.55 338.55 239.65 338.7 239.8 338.95 239.8 338.95 239.55 338.8 239.4
M 324.25 225.1
Q 324.25 224.85 324.15 224.75 324 224.6 323.75 224.6 323.75 224.85 323.9 225 324 225.1 324.25 225.1 Z"/>

<path fill="#000000" fill-opacity="0.5607843137254902" stroke="none" d="
M 270.25 200.7
Q 270.35 200.8 270.6 200.8 270.6 200.55 270.5 200.45 270.35 200.3 270.1 200.3 270.1 200.55 270.25 200.7
M 347.05 243.35
Q 347.05 243.1 346.9 242.95 346.8 242.85 346.55 242.85 346.55 243.1 346.55 243.35 346.8 243.35 347.05 243.35
M 349.05 243.85
Q 349.05 244.1 349.2 244.25 349.3 244.35 349.55 244.35 349.55 244.1 349.45 243.95 349.3 243.85 349.05 243.85
M 341.45 240.8
Q 341.45 241.05 341.6 241.2 341.7 241.3 342 241.3 342 241.05 341.85 240.95 341.7 240.8 341.45 240.8
M 326.3 228.15
Q 326.3 228.4 326.4 228.55 326.55 228.65 326.8 228.65 326.8 228.4 326.65 228.3 326.55 228.15 326.3 228.15 Z"/>

<path fill="#000000" fill-opacity="0.5137254901960784" stroke="none" d="
M 276.15 200.8
Q 275.9 200.8 275.65 200.8 275.65 201.1 275.65 201.35 275.9 201.35 276.05 201.2 276.15 201.1 276.15 200.8
M 321.85 222.45
Q 322 222.6 322.25 222.6 322.25 222.35 322.1 222.2 322 222.1 321.75 222.1 321.75 222.35 321.85 222.45
M 307.05 206.4
Q 307.05 206.15 306.9 206 306.8 205.9 306.55 205.9 306.55 206.15 306.65 206.25 306.8 206.4 307.05 206.4
M 331.35 233.7
Q 331.35 234 331.45 234.1 331.6 234.25 331.85 234.25 331.85 234 331.75 233.85 331.6 233.7 331.35 233.7 Z"/>

<path fill="#000000" fill-opacity="0.40784313725490196" stroke="none" d="
M 276.15 203.35
Q 276.45 203.35 276.55 203.25 276.7 203.1 276.7 202.85 276.45 202.85 276.15 202.85 276.15 203.1 276.15 203.35
M 277.2 200.8
Q 277.45 200.8 277.55 200.7 277.7 200.55 277.7 200.3 277.45 200.3 277.2 200.3 277.2 200.55 277.2 200.8
M 299.95 203.85
Q 299.95 203.6 299.85 203.5 299.7 203.35 299.45 203.35 299.45 203.6 299.6 203.75 299.7 203.85 299.95 203.85
M 352.1 242.35
Q 352.1 242.6 352.25 242.7 352.35 242.85 352.6 242.85 352.6 242.6 352.5 242.45 352.35 242.35 352.1 242.35
M 331.2 233.35
Q 331.1 233.2 330.85 233.2 330.85 233.45 330.95 233.6 331.1 233.7 331.35 233.7 331.35 233.45 331.2 233.35 Z"/>

<path fill="#000000" fill-opacity="0.4196078431372549" stroke="none" d="
M 277.7 202.35
Q 277.45 202.35 277.2 202.35 277.2 202.6 277.2 202.85 277.45 202.85 277.55 202.7 277.7 202.6 277.7 202.35
M 325.25 226.65
Q 325.25 226.4 325.15 226.25 325 226.15 324.75 226.15 324.75 226.4 324.9 226.5 325 226.65 325.25 226.65
M 334.9 234.25
Q 334.9 234.5 335 234.6 335.15 234.75 335.4 234.75 335.4 234.5 335.25 234.35 335.15 234.25 334.9 234.25
M 324.25 221.6
Q 324.25 221.85 324.4 221.95 324.5 222.1 324.75 222.1 324.75 221.85 324.65 221.7 324.5 221.6 324.25 221.6 Z"/>

<path fill="#000000" fill-opacity="0.5215686274509804" stroke="none" d="
M 274.65 201.35
Q 274.4 201.35 274.15 201.35 274.4 201.6 274.65 201.6
L 274.65 201.35
M 385.5 244.35
Q 385.5 244.1 385.5 243.85 385.25 243.85 385 243.85 385 244.1 385.15 244.25 385.25 244.35 385.5 244.35 Z"/>

<path fill="#000000" fill-opacity="0.5176470588235295" stroke="none" d="
M 281.6 200.95
Q 281.5 200.8 281.25 200.8 281.25 201.1 281.25 201.35 281.5 201.35 281.75 201.35 281.75 201.1 281.6 200.95 Z"/>

<path fill="#000000" fill-opacity="0.5686274509803921" stroke="none" d="
M 282.75 200.05
L 282.75 199.8
Q 282.5 199.8 282.25 199.8 282.5 200.05 282.75 200.05 Z"/>

<path fill="#000000" fill-opacity="0.5098039215686274" stroke="none" d="
M 287.35 202.25
Q 287.55 202.35 287.8 202.35 287.8 202.1 287.7 202.05 287.3 201.85 286.8 201.85 287.05 202.1 287.35 202.25 Z"/>

<path fill="#000000" fill-opacity="0.5490196078431373" stroke="none" d="
M 285.3 199.8
Q 285.55 200.05 285.8 200.05
L 285.8 199.8
Q 285.55 199.8 285.3 199.8 Z"/>

<path fill="#000000" fill-opacity="0.4392156862745098" stroke="none" d="
M 286.3 199.3
Q 286.3 199.55 286.3 199.8 286.55 199.8 286.8 199.8 286.8 199.55 286.7 199.45 286.55 199.3 286.3 199.3
M 376.25 243.7
Q 376.4 243.6 376.4 243.35 376.15 243.35 375.9 243.35 375.9 243.6 375.9 243.85 376.15 243.85 376.25 243.7 Z"/>

<path fill="#000000" fill-opacity="0.5450980392156862" stroke="none" d="
M 293.25 201.45
Q 293.15 201.35 292.9 201.35 292.9 201.6 293 201.7 293.15 201.85 293.4 201.85 293.4 201.6 293.25 201.45
M 293.25 204
Q 293.15 203.85 292.9 203.85 292.9 204.1 293 204.25 293.15 204.35 293.4 204.35 293.4 204.1 293.25 204
M 312.1 211.95
Q 312.1 211.7 312 211.6 311.85 211.45 311.6 211.45 311.6 211.7 311.75 211.85 311.85 211.95 312.1 211.95
M 327.15 228.8
Q 327.05 228.65 326.8 228.65 326.8 228.9 326.9 229.05 327.05 229.15 327.3 229.15 327.3 228.9 327.15 228.8 Z"/>

<path fill="#000000" fill-opacity="0.4117647058823529" stroke="none" d="
M 290.35 200.8
Q 290.35 200.55 290.2 200.45 290.1 200.3 289.85 200.3 289.85 200.55 289.95 200.7 290.1 200.8 290.35 200.8 Z"/>

<path fill="#000000" fill-opacity="0.4470588235294118" stroke="none" d="
M 301.5 206.4
Q 301.5 206.15 301.4 206.1 301 205.9 300.45 205.9 300.7 206.15 301.05 206.3 301.25 206.4 301.5 206.4
M 336.9 235.75
Q 336.9 235.5 336.8 235.35 336.65 235.25 336.4 235.25 336.4 235.5 336.55 235.6 336.65 235.75 336.9 235.75 Z"/>

<path fill="#000000" fill-opacity="0.45098039215686275" stroke="none" d="
M 302.35 206.5
Q 302.25 206.4 302 206.4 302 206.65 302.1 206.75 302.25 206.9 302.5 206.9 302.5 206.65 302.35 206.5
M 385.15 242.2
Q 385.25 242.35 385.5 242.35 385.5 242.1 385.4 241.95 385.25 241.8 385 241.8 385 242.1 385.15 242.2 Z"/>

<path fill="#000000" fill-opacity="0.396078431372549" stroke="none" d="
M 302 204.35
Q 302 204.6 302.1 204.75 302.25 204.85 302.5 204.85 302.5 204.6 302.35 204.5 302.25 204.35 302 204.35
M 295.55 204.75
Q 295.65 204.85 295.9 204.85 295.9 204.6 295.8 204.5 295.65 204.35 295.4 204.35 295.4 204.6 295.55 204.75
M 335.4 237.75
Q 335.4 238.05 335.5 238.15 335.65 238.3 335.9 238.3 335.9 238.05 335.8 237.9 335.65 237.75 335.4 237.75 Z"/>

<path fill="#000000" fill-opacity="0.4823529411764706" stroke="none" d="
M 296.95 204.85
Q 296.95 205.15 297.05 205.25 297.2 205.4 297.45 205.4 297.45 205.15 297.3 205 297.2 204.85 296.95 204.85
M 294.9 201.85
Q 294.65 201.85 294.4 201.85 294.15 201.85 293.9 201.85 293.85 202.65 294.8 202.15 294.9 202.1 294.9 201.85
M 378.95 246.9
Q 379.2 246.9 379.45 246.9 379.45 246.65 379.35 246.6 378.95 246.4 378.4 246.4 378.4 246.65 378.4 246.9 378.65 246.9 378.95 246.9 Z"/>

<path fill="#000000" fill-opacity="0.4235294117647059" stroke="none" d="
M 320.7 220.55
Q 320.7 220.3 320.6 220.2 320.45 220.05 320.2 220.05 320.2 220.3 320.35 220.45 320.45 220.55 320.7 220.55 Z"/>

<path fill="#000000" fill-opacity="0.403921568627451" stroke="none" d="
M 321.2 221.6
Q 321.2 221.85 321.35 221.95 321.5 222.1 321.75 222.1 321.75 221.85 321.6 221.7 321.5 221.6 321.2 221.6 Z"/>

<path fill="#000000" fill-opacity="0.49411764705882355" stroke="none" d="
M 320.2 219.55
Q 320.2 219.3 320.1 219.15 319.95 219.05 319.7 219.05 319.7 219.3 319.85 219.45 319.95 219.55 320.2 219.55
M 325.4 227.5
Q 325.55 227.65 325.8 227.65 325.8 227.4 325.65 227.25 325.55 227.15 325.25 227.15 325.25 227.4 325.4 227.5 Z"/>

<path fill="#000000" fill-opacity="0.47058823529411764" stroke="none" d="
M 318.3 217.9
Q 318.45 218.05 318.7 218.05 318.7 217.8 318.55 217.65 318.45 217.55 318.2 217.55 318.2 217.8 318.3 217.9
M 304.15 207.8
Q 304.25 207.9 304.5 207.9 304.5 207.65 304.4 207.55 304.25 207.4 304 207.4 304 207.65 304.15 207.8 Z"/>

<path fill="#000000" fill-opacity="0.4549019607843137" stroke="none" d="
M 315.15 214
Q 315.15 213.75 315 213.6 314.9 213.5 314.65 213.5 314.65 213.75 314.75 213.85 314.9 214 315.15 214
M 359.2 243.85
Q 359.2 244.1 359.3 244.25 359.45 244.35 359.7 244.35 359.7 244.1 359.55 243.95 359.45 243.85 359.2 243.85
M 368.3 244.35
Q 368.05 244.35 367.8 244.35 367.05 244.35 366.25 244.35 366.25 244.6 366.25 244.85 367.3 244.85 368.25 244.65 368.3 244.6 368.3 244.35 Z"/>

<path fill="#000000" fill-opacity="0.47843137254901963" stroke="none" d="
M 315.15 211.45
Q 315.15 211.2 315 211.05 314.9 210.95 314.65 210.95 314.65 211.2 314.75 211.35 314.9 211.45 315.15 211.45
M 304 204.85
Q 304 205.15 304.15 205.25 304.25 205.4 304.5 205.4 304.5 205.15 304.4 205 304.25 204.85 304 204.85
M 354.1 245.85
Q 354.1 245.6 354 245.5 353.85 245.35 353.6 245.35 353.6 245.6 353.75 245.75 353.85 245.85 354.1 245.85 Z"/>

<path fill="#000000" fill-opacity="0.48627450980392156" stroke="none" d="
M 313.1 209.95
Q 313.1 210.2 313.25 210.3 313.4 210.45 313.65 210.45 313.65 210.2 313.5 210.05 313.4 209.95 313.1 209.95 Z"/>

<path fill="#000000" fill-opacity="0.4666666666666667" stroke="none" d="
M 311.1 208.4
Q 311.1 208.65 311.25 208.8 311.35 208.9 311.6 208.9 311.6 208.65 311.5 208.55 311.35 208.4 311.1 208.4
M 305.9 205.5
Q 305.8 205.4 305.55 205.4 305.55 205.65 305.65 205.75 305.8 205.9 306.05 205.9 306.05 205.65 305.9 205.5
M 329.3 228.15
Q 329.3 228.4 329.45 228.55 329.6 228.65 329.85 228.65 329.85 228.4 329.7 228.3 329.6 228.15 329.3 228.15 Z"/>

<path fill="#000000" fill-opacity="0.5568627450980392" stroke="none" d="
M 306.05 208.4
Q 306.05 208.65 306.15 208.8 306.3 208.9 306.55 208.9 306.55 208.65 306.4 208.55 306.3 208.4 306.05 208.4
M 363 247.35
Q 363.1375 247.3689453125 363.25 247.35 363.2431640625 247.1431640625 363.1 247 363 246.9 362.75 246.9 362.75 247.15 362.85 247.25 362.9248046875 247.3248046875 363 247.35
M 337.05 238.65
Q 337.15 238.8 337.4 238.8 337.4 238.55 337.3 238.4 337.15 238.3 336.9 238.3 336.9 238.55 337.05 238.65
M 342.5 241.3
Q 342.25 241.3 342 241.3 342.25 241.55 342.5 241.55
L 342.5 241.3 Z"/>

<path fill="#000000" fill-opacity="0.5333333333333333" stroke="none" d="
M 358.15 246.9
Q 358.15 246.65 358.05 246.5 357.9 246.4 357.65 246.4 357.65 246.65 357.65 246.9 357.9 246.9 358.15 246.9 Z"/>

<path fill="#000000" fill-opacity="0.5058823529411764" stroke="none" d="
M 354.65 243.6
L 354.65 243.35
Q 354.4 243.35 354.1 243.35 354.4 243.6 354.65 243.6
M 378.8 243.2
Q 378.95 243.1 378.95 242.85 378.65 242.85 378.4 242.85 378.4 243.1 378.4 243.35 378.65 243.35 378.8 243.2 Z"/>

<path fill="#000000" fill-opacity="0.5019607843137255" stroke="none" d="
M 347.05 243.35
Q 347.05 243.6 347.15 243.7 347.3 243.85 347.55 243.85 347.55 243.6 347.4 243.45 347.3 243.35 347.05 243.35 Z"/>

<path fill="#000000" fill-opacity="0.4" stroke="none" d="
M 335.25 237.4
Q 335.15 237.25 334.9 237.25 334.9 237.5 335 237.65 335.15 237.75 335.4 237.75 335.4 237.5 335.25 237.4 Z"/>

<path fill="#000000" fill-opacity="0.5529411764705883" stroke="none" d="
M 344 239.8
Q 344 239.55 343.85 239.4 343.75 239.3 343.5 239.3 343.5 239.55 343.6 239.65 343.75 239.8 344 239.8 Z"/>

<path fill="#000000" fill-opacity="0.41568627450980394" stroke="none" d="
M 329.85 232.2
Q 329.85 232.45 329.95 232.6 330.1 232.7 330.35 232.7 330.35 232.45 330.2 232.35 330.1 232.2 329.85 232.2 Z"/>

<path fill="#000000" fill-opacity="0.5647058823529412" stroke="none" d="
M 325.9 228.05
Q 326.05 228.15 326.3 228.15 326.3 227.9 326.15 227.8 326.05 227.65 325.8 227.65 325.8 227.9 325.9 228.05
M 365.75 244.85
Q 365.75 244.6 365.65 244.5 365.5 244.35 365.25 244.35 365.25 244.6 365.4 244.75 365.5 244.85 365.75 244.85 Z"/>

<path fill="#000000" fill-opacity="0.44313725490196076" stroke="none" d="
M 334.75 233.85
Q 334.65 233.7 334.4 233.7 334.4 234 334.5 234.1 334.65 234.25 334.9 234.25 334.9 234 334.75 233.85 Z"/>

<path fill="#000000" fill-opacity="0.43529411764705883" stroke="none" d="
M 324.9 222.45
Q 325 222.6 325.25 222.6 325.25 222.35 325.15 222.2 325 222.1 324.75 222.1 324.75 222.35 324.9 222.45 Z"/>

<path fill="#000000" fill-opacity="0.42745098039215684" stroke="none" d="
M 371.85 244.35
Q 371.6 244.35 371.35 244.35 371.35 244.6 371.35 244.85 371.6 244.85 371.7 244.75 371.85 244.6 371.85 244.35 Z"/>

<path fill="#000000" fill-opacity="0.9529411764705882" stroke="none" d="
M 365.25 244.35
Q 365 244.35 364.75 244.35 362.2 244.35 359.7 244.35 359.45 244.35 359.3 244.25 359.2 244.1 359.2 243.85 358.95 243.85 358.7 243.8 356.65 243.6 354.65 243.35
L 354.65 243.6
Q 354.4 243.6 354.1 243.35 353.85 243.35 353.85 243.3 353.7 242.55 352.6 242.85 352.35 242.85 352.25 242.7 352.1 242.6 352.1 242.35 351.85 242.35 351.6 242.35 351.35 242.35 351.1 242.35 350.85 242.35 350.7 242.2 350.6 242.1 350.6 241.8 349.55 241.8 348.6 241.7 347.55 241.55 346.85 241.1 345.5 240.3 344 239.8 343.75 239.8 343.6 239.65 343.5 239.55 343.5 239.3 343.25 239.3 343 239.2 342 238.8 340.95 238.3 340.7 238.3 340.5 238.2 340.2 238.05 339.95 237.75 339.7 237.75 339.55 237.65 338.45 236.5 336.9 235.75 336.65 235.75 336.55 235.6 336.4 235.5 336.4 235.25 336.15 235.25 335.95 235.15 335.65 235 335.4 234.75 335.15 234.75 335 234.6 334.9 234.5 334.9 234.25 334.65 234.25 334.5 234.1 334.4 234 334.4 233.7 334.15 233.7 334 233.6 331.55 231.45 329.85 228.65 329.6 228.65 329.45 228.55 329.3 228.4 329.3 228.15 329.3 227.9 329.2 227.8 326.85 225.55 325.25 222.6 325 222.6 324.9 222.45 324.75 222.35 324.75 222.1 324.5 222.1 324.4 221.95 324.25 221.85 324.25 221.6 324.25 221.3 324.15 221.25 323.4 220.9 323.25 220.05 323 220.05 322.85 219.95 322.75 219.8 322.75 219.55 322.75 219.3 322.65 219.25 321.9 218.9 321.75 218.05 321.5 218.05 321.35 217.9 321.2 217.8 321.2 217.55 321.2 217.25 321.1 217.15 318.7876953125 214.876953125 316.45 212.65 315.7984375 212.0552734375 315.15 211.45 314.9 211.45 314.75 211.35 314.65 211.2 314.65 210.95 314.4 210.95 314.2 210.85 313.9 210.7 313.65 210.45 313.4 210.45 313.25 210.3 313.1 210.2 313.1 209.95 312.85 209.95 312.8 209.85 312.45 209.05 311.6 208.9 311.35 208.9 311.25 208.8 311.1 208.65 311.1 208.4 310.85 208.4 310.7 208.3 309.3 206.9 307.05 206.4 306.8 206.4 306.65 206.25 306.55 206.15 306.55 205.9 306.3 205.9 306.05 205.9 305.8 205.9 305.65 205.75 305.55 205.65 305.55 205.4 305.3 205.4 305.05 205.4 304.75 205.4 304.5 205.4 304.25 205.4 304.15 205.25 304 205.15 304 204.85 303.75 204.85 303.5 204.85 303 204.85 302.5 204.85 302.25 204.85 302.1 204.75 302 204.6 302 204.35 301.75 204.35 301.55 204.25 300.95 203.9 299.95 203.85 299.7 203.85 299.6 203.75 299.45 203.6 299.45 203.35 299.2 203.35 299 203.3 296.95 202.6 294.9 201.85 294.9 202.1 294.8 202.15 293.85 202.65 293.9 201.85 293.65 201.85 293.4 201.85 293.15 201.85 293 201.7 292.9 201.6 292.9 201.35 292.6 201.35 292.35 201.3 291.35 201.1 290.35 200.8 290.1 200.8 289.95 200.7 289.85 200.55 289.85 200.3 289.6 200.3 289.35 200.3 287.9 200.2 286.8 199.8 286.55 199.8 286.3 199.8 286.05 199.8 285.8 199.8
L 285.8 200.05
Q 285.55 200.05 285.3 199.8 285.05 199.8 284.8 199.8 283.75 199.8 282.75 199.8
L 282.75 200.05
Q 282.5 200.05 282.25 199.8 282 199.8 281.75 199.8 281 199.8 280.2 199.8 280.2 200.05 280.1 200.2 279.95 200.3 279.7 200.3 279.45 200.3 279.2 200.3 279.12421875 200.3 279.05 200.3 278.37421875 200.3 277.7 200.3 277.7 200.55 277.55 200.7 277.45 200.8 277.2 200.8 276.95 200.8 276.7 200.8 276.6384765625 200.8 276.55 200.8 276.376171875 200.8 276.15 200.8 276.15 201.1 276.05 201.2 275.9 201.35 275.65 201.35 275.4 201.35 275.15 201.35 274.9 201.35 274.65 201.35
L 274.65 201.6
Q 274.4 201.6 274.15 201.35 273.9 201.35 273.65 201.3 272.1 201.1 270.6 200.8 270.35 200.8 270.25 200.7 270.1 200.55 270.1 200.3 269.85 200.3 269.6 200.4 269.1 200.55 268.6 200.8 268.6 201.1 268.45 201.2 268.35 201.35 268.05 201.35 268.05 202.6 268.35 203.8 268.35 203.85 268.6 203.85 268.85 203.85 268.95 204 269.1 204.1 269.1 204.35 269.35 204.35 269.45 204.5 269.6 204.6 269.6 204.85 270.35 204.85 271.1 204.85 271.35 204.85 271.6 204.85 271.85 204.85 272.1 204.85 273.8 204 275.7 203.45 275.9 203.35 276.15 203.35 276.15 203.1 276.15 202.85 276.45 202.85 276.7 202.85 276.95 202.85 277.2 202.85 277.2 202.6 277.2 202.35 277.45 202.35 277.7 202.35 278.855859375 202.112109375 279.85 201.75 280.3296875 201.6330078125 280.75 201.45
L 280.8 201.45
Q 281 201.35 281.25 201.35 281.25 201.1 281.25 200.8 281.5 200.8 281.6 200.95 281.75 201.1 281.75 201.35 284.1 201.5 286.3 201.8 286.55 201.85 286.8 201.85 287.3 201.85 287.7 202.05 287.8 202.1 287.8 202.35 290.25 202.95 292.4 203.8 292.6 203.85 292.9 203.85 293.15 203.85 293.25 204 293.4 204.1 293.4 204.35 294.15 204.35 294.9 204.35 295.15 204.35 295.4 204.35 295.65 204.35 295.8 204.5 295.9 204.6 295.9 204.85 296.15 204.85 296.4 204.85 296.65 204.85 296.95 204.85 297.2 204.85 297.3 205 297.45 205.15 297.45 205.4 298.25 206.05 299.95 205.9 300.2 205.9 300.45 205.9 301 205.9 301.4 206.1 301.5 206.15 301.5 206.4 301.75 206.4 302 206.4 302.25 206.4 302.35 206.5 302.5 206.65 302.5 206.9 303 207.15 303.55 207.35 303.75 207.4 304 207.4 304.25 207.4 304.4 207.55 304.5 207.65 304.5 207.9 305.3 207.9 305.95 208.15 306.05 208.15 306.05 208.4 306.3 208.4 306.4 208.55 306.55 208.65 306.55 208.9 309.1064453125 209.57265625 310.85 211 311.059375 211.1748046875 311.25 211.35 311.35 211.45 311.6 211.45 311.85 211.45 312 211.6 312.1 211.7 312.1 211.95 313.6 212.25 314.5 213.1 314.65 213.2 314.65 213.5 314.9 213.5 315 213.6 315.15 213.75 315.15 214 316.55 215.65 318.05 217.15 318.2 217.25 318.2 217.55 318.45 217.55 318.55 217.65 318.7 217.8 318.7 218.05 319.2 218.3 319.6 218.65 319.7 218.8 319.7 219.05 319.95 219.05 320.1 219.15 320.2 219.3 320.2 219.55 320.2 219.8 320.2 220.05 320.45 220.05 320.6 220.2 320.7 220.3 320.7 220.55 320.95 220.8 321.1 221.1 321.2 221.3 321.2 221.6 321.5 221.6 321.6 221.7 321.75 221.85 321.75 222.1 322 222.1 322.1 222.2 322.25 222.35 322.25 222.6 322.65 223.7 323.65 224.3 323.75 224.35 323.75 224.6 324 224.6 324.15 224.75 324.25 224.85 324.25 225.1 324.5 225.35 324.65 225.7 324.75 225.9 324.75 226.15 325 226.15 325.15 226.25 325.25 226.4 325.25 226.65 325.25 226.9 325.25 227.15 325.55 227.15 325.65 227.25 325.8 227.4 325.8 227.65 326.05 227.65 326.15 227.8 326.3 227.9 326.3 228.15 326.55 228.15 326.65 228.3 326.8 228.4 326.8 228.65 327.05 228.65 327.15 228.8 327.3 228.9 327.3 229.15 328.5 230.5 329.5 232.1 329.6 232.2 329.85 232.2 330.1 232.2 330.2 232.35 330.35 232.45 330.35 232.7 330.35 232.95 330.45 233.1 330.6 233.2 330.85 233.2 331.1 233.2 331.2 233.35 331.35 233.45 331.35 233.7 331.6 233.7 331.75 233.85 331.85 234 331.85 234.25 333.25 235.6 334.55 237.15 334.65 237.25 334.9 237.25 335.15 237.25 335.25 237.4 335.4 237.5 335.4 237.75 335.65 237.75 335.8 237.9 335.9 238.05 335.9 238.3 336.15 238.3 336.4 238.3 336.65 238.3 336.9 238.3 337.15 238.3 337.3 238.4 337.4 238.55 337.4 238.8 337.65 239.05 338 239.2 338.2 239.3 338.45 239.3 338.7 239.3 338.8 239.4 338.95 239.55 338.95 239.8 339.15 241.1 340.95 240.85 341.2 240.8 341.45 240.8 341.7 240.8 341.85 240.95 342 241.05 342 241.3 342.25 241.3 342.5 241.3 343.35 241.45 343.7 242.25 343.75 242.35 344 242.35 344.25 242.35 344.4 242.45 344.5 242.6 344.5 242.85 345.5 242.85 346.1 243.2 346.3 243.35 346.55 243.35 346.55 243.1 346.55 242.85 346.8 242.85 346.9 242.95 347.05 243.1 347.05 243.35 347.3 243.35 347.4 243.45 347.55 243.6 347.55 243.85 348.05 243.85 348.55 243.85 348.8 243.85 349.05 243.85 349.3 243.85 349.45 243.95 349.55 244.1 349.55 244.35 351.95 244.25 353.2 245.25 353.35 245.35 353.6 245.35 353.85 245.35 354 245.5 354.1 245.6 354.1 245.85 356.15 245.85 357.25 246.75 357.4 246.9 357.65 246.9 357.65 246.65 357.65 246.4 357.9 246.4 358.05 246.5 358.15 246.65 358.15 246.9 360.2 246.9 362.2 246.9 362.5 246.9 362.75 246.9 363 246.9 363.1 247 363.2431640625 247.1431640625 363.25 247.35 363.5046875 247.3892578125 363.75 247.4 364.5326171875 247.4123046875 365.3 247.45 366.6486328125 247.4986328125 368 247.6 370.7435546875 247.7595703125 373.5 247.85 375.867578125 247.4826171875 377.95 246.95 378.15 246.9 378.4 246.9 378.4 246.65 378.4 246.4 378.95 246.4 379.35 246.6 379.45 246.65 379.45 246.9 380.6 245.55 383.5 245.65 385.1 245.7 385.5 244.35 385.25 244.35 385.15 244.25 385 244.1 385 243.85 385.25 243.85 385.5 243.85 385.5 243.65 385.5 243.45 385.5 243.4 385.5 243.35 385.5 242.85 385.5 242.35 385.25 242.35 385.15 242.2 385 242.1 385 241.8 383 241.6 381.9 242.2 380.7 242.85 378.95 242.85 378.95 243.1 378.8 243.2 378.65 243.35 378.4 243.35 378.15 243.35 377.9 243.35 377.15 243.35 376.4 243.35 376.4 243.6 376.25 243.7 376.15 243.85 375.9 243.85 375.65 243.85 375.4 243.9 373.95 244.45 371.85 244.35 371.85 244.6 371.7 244.75 371.6 244.85 371.35 244.85 371.1 244.85 370.9 244.75 370 244.2 368.3 244.35 368.3 244.6 368.25 244.65 367.3 244.85 366.25 244.85 366 244.85 365.75 244.85 365.5 244.85 365.4 244.75 365.25 244.6 365.25 244.35
M 369.8 247.65
L 369.8 247.4
Q 370.95 247.65 369.8 247.65 Z"/>

<path fill="#000000" fill-opacity="0.3254901960784314" stroke="none" d="
M 369.8 247.4
L 369.8 247.65
Q 370.95 247.65 369.8 247.4 Z"/>
</g>

<g id="Layer5_0_FILL">
<path fill="#000000" fill-opacity="0.8980392156862745" stroke="none" d="
M 298.95 264.1
Q 299.2 264.1 299.2 264.05 299.3 263.25 297.95 263.6 298.2 263.85 298.5 264 298.7 264.1 298.95 264.1 Z"/>

<path fill="#000000" fill-opacity="0.5450980392156862" stroke="none" d="
M 298.9 264.35
Q 298.95 264.35 298.95 264.1 298.7 264.1 298.5 264 298.2 263.85 297.95 263.6 297.7 263.6 297.45 263.6 297.2 263.6 296.95 263.6 296.9 265.15 298.9 264.35
M 265.05 268.15
Q 265.3 268.15 265.5 268.25
L 265.8 268.4
Q 264.7 269 264.55 268.15 264.3 268.15 264 268.15 262.75 268.15 261.5 268.15 261.5 268.4 261.5 268.65 262.25 268.65 262.95 268.9 263 268.9 263 269.15 265.4 269.3 267.55 269.35 269.5 269.4 267.55 269.2 265.8 269 266.55 267.65
L 266.05 267.55
Q 265 267.35 265.05 268.15
M 217.9 273.5
Q 217.95 273.45 217.95 273.2 217.7 273.2 217.45 273.2 216.95 273.2 216.45 273.2 216.45 273.45 216.45 273.7 217.2 273.7 217.9 273.5
M 188 277.05
Q 188.1 277 188.1 276.75 187.85 276.75 187.6 276.75 187.35 276.75 187.1 276.75 187.05 277.6 188 277.05
M 192.65 276.25
Q 192.65 276 192.6 275.95 191.9 275.75 191.15 275.75 191.15 276 191.15 276.25 191.65 276.25 192.15 276.25 192.4 276.25 192.65 276.25
M 159.9 275.1
Q 160 275.25 160.25 275.25 160.25 275 160.15 274.85 160 274.75 159.75 274.75 159.75 275 159.9 275.1 Z"/>

<path fill="#000000" fill-opacity="0.5803921568627451" stroke="none" d="
M 299.9 264.8
Q 302.2 264.3 299.45 264.1 299.45 264.35 299.55 264.55 299.7 264.85 299.9 264.8
M 300.45 263.1
Q 301.15 263.95 303 263.65 303.5 263.6 303.9 263.4 305.95 262.35 303 262.55 301.6 262.7 300.45 263.1
M 167.35 276.75
Q 167.35 276.5 167.25 276.45 166.85 276.25 166.35 276.25 166.35 276.5 166.35 276.75 166.6 276.75 166.85 276.75 167.1 276.75 167.35 276.75 Z"/>

<path fill="#000000" fill-opacity="0.7019607843137254" stroke="none" d="
M 314.6 261
L 314.9 260.8
Q 315.3 261.4 315.95 260.4 316.15 260.05 315.95 259.95 315.65 259.8 315.15 260 313.9 260.55 312.1 260.55 312.55 262.3 314.6 261 Z"/>

<path fill="#000000" fill-opacity="0.611764705882353" stroke="none" d="
M 307.55 261.55
L 307.55 261.8
Q 310.3 261.8 307.55 261.55 Z"/>

<path fill="#000000" fill-opacity="0.7098039215686275" stroke="none" d="
M 306.5 262.5
Q 307.7 262.1 306.05 262.05 306.05 262.3 306.05 262.6 306.3 262.6 306.5 262.5 Z"/>

<path fill="#000000" fill-opacity="0.4823529411764706" stroke="none" d="
M 306.05 262.05
Q 305.8 262.05 305.55 262.05 305.3 262.05 305.05 262.05 305.3 262.3 305.6 262.5 305.8 262.6 306.05 262.6 306.05 262.3 306.05 262.05
M 223.55 274.2
Q 223.55 274.45 223.55 274.75 223.8 274.75 223.9 274.6 224.05 274.45 224.05 274.2 223.8 274.2 223.55 274.2 Z"/>

<path fill="#000000" fill-opacity="0.4627450980392157" stroke="none" d="
M 309.6 261.3
Q 311.55 261.3 309.6 261.05
L 309.6 261.3
M 232 272.05
Q 232.15 271.95 232.15 271.7 231.9 271.7 231.65 271.7 231.65 271.95 231.65 272.2 231.9 272.2 232 272.05 Z"/>

<path fill="#000000" fill-opacity="0.5607843137254902" stroke="none" d="
M 317.15 259.8
Q 319.1 259.8 317.15 259.55
L 317.15 259.8
M 183.4 276.9
Q 183.3 276.75 183.05 276.75 183.05 277 183.15 277.15 183.3 277.25 183.55 277.25 183.55 277 183.4 276.9
M 149.1 272.7
Q 148.85 272.7 148.6 272.7 148.85 272.95 149.1 272.95
L 149.1 272.7
M 104.45 259.65
Q 104.3 259.55 104.05 259.55 104.05 259.8 104.2 259.9 104.3 260.05 104.6 260.05 104.6 259.8 104.45 259.65 Z"/>

<path fill="#000000" fill-opacity="0.5333333333333333" stroke="none" d="
M 318.7 259.05
Q 318.7 259.3 318.8 259.5 318.95 259.8 319.1 259.75 321.2 259.05 318.7 259.05
M 279.7 267.65
Q 279.45 267.65 279.2 267.65 279.2 267.9 279.2 268.15 279.45 268.15 279.6 268 279.7 267.9 279.7 267.65
M 149.65 275.25
Q 149.65 275 149.55 274.95 149.1 274.75 148.6 274.75 148.6 275 148.6 275.25 148.85 275.25 149.1 275.25 149.4 275.25 149.65 275.25
M 125.85 269.65
Q 125.85 269.4 125.75 269.35 125.35 269.15 124.85 269.15 125.1 269.4 125.4 269.55 125.6 269.65 125.85 269.65 Z"/>

<path fill="#000000" fill-opacity="0.6705882352941176" stroke="none" d="
M 244.15 271.8
Q 244.9 272.5 245.6 271.1
L 245.8 270.7
Q 244.55 270.7 242.75 270.7 243.5 271.2 244.15 271.8 Z"/>

<path fill="#000000" fill-opacity="0.4666666666666667" stroke="none" d="
M 293.9 265.1
Q 294.15 265.1 294.25 265 294.4 264.85 294.4 264.6 294.15 264.6 293.9 264.6 293.9 264.85 293.9 265.1
M 225.95 273.5
Q 226.05 273.45 226.05 273.2 225.8 273.2 225.55 273.2 225.3 273.2 225.05 273.2 225.05 273.45 225.05 273.7 225.55 273.7 225.95 273.5
M 144.6 272.75
Q 144.8 272.7 145.05 272.7 145.05 272.45 145 272.4 144.3 272.2 143.55 272.2 143.5 273.05 144.6 272.75
M 110.55 262.7
Q 110.4 262.6 110.15 262.6 110.15 262.85 110.25 262.95 110.4 263.1 110.65 263.1 110.65 262.85 110.55 262.7 Z"/>

<path fill="#000000" fill-opacity="0.49411764705882355" stroke="none" d="
M 284.65 267
Q 284.8 266.9 284.8 266.65 284.55 266.65 284.25 266.65 284.25 266.9 284.25 267.15 284.55 267.15 284.65 267
M 240.25 270.7
Q 240 270.7 239.75 270.7 239.75 270.95 239.75 271.2 240.25 271.2 240.65 271 240.75 270.95 240.75 270.7 240.5 270.7 240.25 270.7
M 164.8 274.2
Q 164.75 275.05 165.85 274.8 166.1 274.75 166.35 274.75 166.35 274.45 166.25 274.45 165.55 274.2 164.8 274.2 Z"/>

<path fill="#000000" fill-opacity="0.4117647058823529" stroke="none" d="
M 286.3 267.15
Q 286.55 267.15 286.7 267 286.8 266.9 286.8 266.65 286.55 266.65 286.3 266.65 286.3 266.9 286.3 267.15 Z"/>

<path fill="#000000" fill-opacity="0.4470588235294118" stroke="none" d="
M 284.8 265.6
Q 284.55 265.6 284.25 265.6 284.25 265.85 284.25 266.1 284.55 266.1 284.8 266.1 284.8 265.85 284.8 265.6
M 191.65 275.25
Q 191.65 275 191.55 274.95 190.9 274.75 190.1 274.75 190.1 275 190.1 275.25 190.65 275.25 191.15 275.25 191.4 275.25 191.65 275.25
M 331.35 258
Q 331.35 258.25 331.35 258.55 331.6 258.55 331.75 258.4 331.85 258.25 331.85 258 331.6 258 331.35 258 Z"/>

<path fill="#000000" fill-opacity="0.7058823529411765" stroke="none" d="
M 292.9 264.1
Q 292.9 264.35 292.75 264.5 292.6 264.6 292.35 264.6 292.1 264.6 291.9 264.65 288.7 265.5 284.8 265.6 284.8 265.85 284.8 266.1 284.8 266.35 284.8 266.65 285.9 265.55 286.05 267.1 286.05 267.15 286.3 267.15 286.3 266.9 286.3 266.65 286.55 266.65 286.8 266.65 288.95 265.7 291.85 265.45 292.9 265.35 293.9 265.1 293.9 264.85 293.9 264.6 294.15 264.6 294.4 264.6 294.65 264.6 294.9 264.6
L 295.4 264.6
Q 295 263.7 292.9 264.1 Z"/>

<path fill="#000000" fill-opacity="0.45098039215686275" stroke="none" d="
M 292.75 264.5
Q 292.9 264.35 292.9 264.1 292.6 264.1 292.35 264.1 292.35 264.35 292.35 264.6 292.6 264.6 292.75 264.5 Z"/>

<path fill="#000000" fill-opacity="0.4745098039215686" stroke="none" d="
M 280.6 266.5
Q 280.75 266.35 280.75 266.1 280.5 266.1 280.2 266.1 280.2 266.35 280.2 266.65 280.5 266.65 280.6 266.5 Z"/>

<path fill="#000000" fill-opacity="0.4392156862745098" stroke="none" d="
M 281.1 267.5
Q 281.25 267.4 281.25 267.15 281 267.15 280.75 267.15 280.75 267.4 280.75 267.65 281 267.65 281.1 267.5
M 227.05 272.2
Q 226.8 272.2 226.55 272.2 226.55 272.45 226.55 272.7 226.8 272.7 226.95 272.55 227.05 272.45 227.05 272.2 Z"/>

<path fill="#000000" fill-opacity="0.48627450980392156" stroke="none" d="
M 275.65 268.15
Q 275.4 268.15 275.15 268.15 275.4 268.4 275.65 268.4
L 275.65 268.15
M 177.45 276.75
Q 177.45 277 177.45 277.25 177.7 277.25 177.95 277.25 177.95 277 177.85 276.9 177.7 276.75 177.45 276.75
M 340.45 254.5
Q 340.2 254.5 339.95 254.5 339.7 254.5 339.45 254.5 339.6 255.6 340.9 255.25 340.95 255.25 340.95 255 340.7 255 340.6 254.85 340.45 254.75 340.45 254.5 Z"/>

<path fill="#000000" fill-opacity="0.43137254901960786" stroke="none" d="
M 278.2 268.15
Q 278.2 268.4 278.2 268.65 278.45 268.65 278.6 268.5 278.7 268.4 278.7 268.15 278.45 268.15 278.2 268.15
M 362.2 249.9
Q 362.2 250.2 362.2 250.45 363.25 250.45 364.2 250.2 364.25 250.2 364.25 249.9 364 249.9 363.75 249.9 363 249.9 362.2 249.9 Z"/>

<path fill="#000000" fill-opacity="0.44313725490196076" stroke="none" d="
M 276.7 266.65
Q 276.7 266.9 276.7 267.15 276.95 267.15 277.2 267.15 277.2 266.9 277.05 266.75 276.95 266.65 276.7 266.65
M 220.35 274.6
Q 220.5 274.45 220.5 274.2 220.25 274.2 220 274.2 220 274.45 220 274.75 220.25 274.75 220.35 274.6
M 230.1 271.7
Q 230.1 271.95 230.1 272.2 230.35 272.2 230.6 272.2 230.85 272.2 231.1 272.2 231.1 271.95 231 271.9 230.6 271.7 230.1 271.7
M 160.4 274.1
Q 160.5 274.2 160.75 274.2 160.75 273.95 160.65 273.85 160.5 273.7 160.25 273.7 160.25 273.95 160.4 274.1
M 105.95 262.7
Q 105.85 262.6 105.6 262.6 105.6 262.85 105.7 262.95 105.85 263.1 106.1 263.1 106.1 262.85 105.95 262.7 Z"/>

<path fill="#000000" fill-opacity="0.803921568627451" stroke="none" d="
M 278.05 267
Q 277.95 267.15 277.7 267.15 277.45 267.15 277.2 267.15 276.95 267.15 276.7 267.15 276.45 267.15 276.15 267.15 275.4 267.15 274.65 267.15 274.9 267.4 275.05 267.7 275.15 267.9 275.15 268.15 275.4 268.15 275.65 268.15 277.3 266.8 277.9 268.6 277.95 268.65 278.2 268.65 278.2 268.4 278.2 268.15 278.45 268.15 278.7 268.15 278.95 268.15 279.2 268.15 279.2 267.9 279.2 267.65 279.45 267.65 279.7 267.65 279.95 267.65 280.2 267.65 280.5 267.65 280.75 267.65 280.75 267.4 280.75 267.15 281 267.15 281.25 267.15 282.5 267.15 283.75 267.15 284 267.15 284.25 267.15 284.25 266.9 284.25 266.65 284.55 266.65 284.8 266.65 284.8 266.35 284.8 266.1 284.55 266.1 284.25 266.1 284 266.1 283.75 266.1 282.25 266.1 280.75 266.1 280.75 266.35 280.6 266.5 280.5 266.65 280.2 266.65 279.95 266.65 279.7 266.65 278.95 266.65 278.2 266.65 278.2 266.9 278.05 267 Z"/>

<path fill="#000000" fill-opacity="0.5294117647058824" stroke="none" d="
M 277.7 267.15
Q 277.95 267.15 278.05 267 278.2 266.9 278.2 266.65 277.95 266.65 277.7 266.65 277.7 266.9 277.7 267.15
M 241.1 272.05
Q 241.25 271.95 241.25 271.7 241 271.7 240.75 271.7 240.75 271.95 240.75 272.2 241 272.2 241.1 272.05
M 234.65 271.2
Q 234.65 271.45 234.65 271.7 235.95 271.7 237.15 271.45 237.2 271.45 237.2 271.2 236.95 271.2 236.7 271.2 235.7 271.2 234.65 271.2 Z"/>

<path fill="#000000" fill-opacity="0.6745098039215687" stroke="none" d="
M 272.55 267.85
Q 272.65 267.9 272.65 268.15 273.65 268.15 274.65 268.15 274.9 268.15 275.15 268.15 275.15 267.9 275.05 267.7 274.9 267.4 274.65 267.15 274.4 267.15 274.15 267.15 272.65 267.15 271.1 267.15 271.1 267.4 271.1 267.65 271.85 267.65 272.55 267.85 Z"/>

<path fill="#000000" fill-opacity="0.9607843137254902" stroke="none" d="
M 271.6 268.15
Q 271.85 268.15 272.1 268.15 272.4 268.15 272.65 268.15 272.65 267.9 272.55 267.85 271.85 267.65 271.1 267.65 271.1 267.9 271.25 268 271.35 268.15 271.6 268.15 Z"/>

<path fill="#000000" fill-opacity="0.6431372549019608" stroke="none" d="
M 271.1 267.65
Q 270.85 267.65 270.85 267.7 270.7 268.45 269.6 268.15 269.95 270 271.5 268.5 271.6 268.4 271.6 268.15 271.35 268.15 271.25 268 271.1 267.9 271.1 267.65
M 209.85 274.2
Q 209.6 274.2 209.35 274.2 209.1 274.2 208.85 274.2 209.1 274.45 209.25 274.8 209.35 275 209.35 275.25 209.75 276.6 211.8 276 211.9 276 211.9 275.75 209.8 275.85 210.95 275.4
L 211.4 275.25
Q 210.9 274.75 209.85 274.2 Z"/>

<path fill="#000000" fill-opacity="0.5176470588235295" stroke="none" d="
M 258.45 270.15
Q 258.45 269.9 258.35 269.85 257.95 269.65 257.45 269.65 257.6 270.5 258.45 270.4
L 258.45 270.15
M 204.8 275.75
Q 204.8 276 204.8 276.25 205.05 276.25 205.2 276.1 205.3 276 205.3 275.75 205.05 275.75 204.8 275.75
M 237.7 272.2
Q 237.45 272.2 237.2 272.2 237.2 272.45 237.2 272.7 237.45 272.7 237.6 272.55 237.7 272.45 237.7 272.2
M 163.65 276.6
Q 163.8 276.5 163.8 276.25 163.55 276.25 163.3 276.25 163.3 276.5 163.3 276.75 163.55 276.75 163.65 276.6
M 161.4 276.1
Q 161.5 276.25 161.8 276.25 161.8 276 161.65 275.85 161.5 275.75 161.25 275.75 161.25 276 161.4 276.1
M 109.15 262.05
Q 109.15 261.8 109 261.7 108.9 261.55 108.65 261.55 108.65 261.8 108.75 261.95 108.9 262.05 109.15 262.05 Z"/>

<path fill="#000000" fill-opacity="0.47058823529411764" stroke="none" d="
M 259.35 268.95
Q 259.45 268.9 259.45 268.65 259.2 268.65 258.95 268.65 258.7 268.65 258.45 268.65 258.45 268.9 258.45 269.15 258.95 269.15 259.35 268.95
M 174.05 276.6
Q 174.2 276.75 174.45 276.75 174.45 276.5 174.3 276.35 174.2 276.25 173.9 276.25 173.9 276.5 174.05 276.6 Z"/>

<path fill="#000000" fill-opacity="0.4980392156862745" stroke="none" d="
M 261.5 269.15
Q 261.25 269.15 261 269.15 260.5 269.15 260 269.15 260 269.4 260 269.65 260.75 269.65 261.4 269.45 261.5 269.4 261.5 269.15
M 123.8 271.7
Q 123.55 271.7 123.3 271.7 123.25 272.5 124.2 272 124.3 271.95 124.3 271.7 124.05 271.7 123.8 271.7
M 104.95 260.7
Q 104.85 260.55 104.6 260.55 104.6 260.8 104.7 260.95 104.85 261.05 105.1 261.05 105.1 260.8 104.95 260.7 Z"/>

<path fill="#000000" fill-opacity="0.5019607843137255" stroke="none" d="
M 253.4 270.4
L 253.4 270.15
Q 253.15 270.15 252.9 270.15 253.15 270.4 253.4 270.4
M 129.9 273.2
Q 129.9 272.95 129.75 272.85 129.65 272.7 129.4 272.7 129.4 272.95 129.5 273.1 129.65 273.2 129.9 273.2
M 108.25 265
Q 108.35 265.1 108.65 265.1 108.65 264.85 108.5 264.75 108.35 264.6 108.1 264.6 108.1 264.85 108.25 265
M 372.35 248.4
Q 372.35 248.15 372.25 248.1 371.85 247.9 371.35 247.9 371.35 248.15 371.35 248.4 371.6 248.4 371.85 248.4 372.1 248.4 372.35 248.4 Z"/>

<path fill="#000000" fill-opacity="0.5529411764705883" stroke="none" d="
M 254.4 269.15
Q 254.15 269.15 253.9 269.15 253.65 269.15 253.4 269.15 253.4 269.4 253.4 269.65 253.9 269.65 254.3 269.45 254.4 269.4 254.4 269.15
M 219.85 275.1
Q 220 275 220 274.75 219.75 274.75 219.5 274.75 219.5 275 219.5 275.25 219.75 275.25 219.85 275.1
M 325.65 258.9
Q 325.8 258.8 325.8 258.55 325.55 258.55 325.25 258.55 325.25 258.8 325.25 259.05 325.55 259.05 325.65 258.9 Z"/>

<path fill="#000000" fill-opacity="0.4588235294117647" stroke="none" d="
M 252.25 270.55
Q 252.4 270.4 252.4 270.15 252.15 270.15 251.9 270.15 251.9 270.4 251.9 270.7 252.15 270.7 252.25 270.55
M 197.6 275.05
Q 197.7 275 197.7 274.75 197.45 274.75 197.2 274.75 196.95 274.75 196.7 274.75 196.7 275 196.7 275.25 197.2 275.25 197.6 275.05
M 361.7 249.4
Q 361.45 249.4 361.2 249.4 361.2 249.65 361.2 249.9 361.45 249.9 361.6 249.8 361.7 249.65 361.7 249.4 Z"/>

<path fill="#000000" fill-opacity="0.4" stroke="none" d="
M 248.85 269.65
Q 248.6 269.65 248.35 269.65 248.35 269.9 248.35 270.15 248.6 270.15 248.7 270.05 248.85 269.9 248.85 269.65
M 115.1 265.25
Q 114.95 265.1 114.7 265.1 114.7 265.35 114.85 265.5 114.95 265.6 115.2 265.6 115.2 265.35 115.1 265.25
M 358.7 250.45
Q 358.45 250.45 358.15 250.45 358.15 250.7 358.3 250.8 358.45 250.95 358.7 250.95 358.7 250.7 358.7 250.45 Z"/>

<path fill="#000000" fill-opacity="0.5647058823529412" stroke="none" d="
M 249.85 269.65
Q 249.6 269.65 249.35 269.65 249.6 269.9 249.85 269.9
L 249.85 269.65
M 247.3 270.15
Q 247.05 270.15 246.85 270.25 246.55 270.4 246.3 270.7 246.95 271.55 248.75 270.95 248.85 270.95 248.85 270.7 248.6 270.7 248.35 270.75 247.25 271 247.3 270.15
M 117.85 270.05
Q 118 270.15 118.25 270.15 118.25 269.9 118.1 269.8 118 269.65 117.75 269.65 117.75 269.9 117.85 270.05
M 107 260.15
Q 106.85 260.05 106.6 260.05 106.6 260.3 106.75 260.45 106.85 260.55 107.1 260.55 107.1 260.3 107 260.15 Z"/>

<path fill="#000000" fill-opacity="0.8235294117647058" stroke="none" d="
M 247.85 270.15
Q 247.55 270.15 247.3 270.15 247.25 271 248.35 270.75 248.6 270.7 248.85 270.7 250.1 270.7 251.35 270.7 251.6 270.7 251.9 270.7 251.9 270.4 251.9 270.15 252.15 270.15 252.4 270.15 252.65 270.15 252.9 270.15 253.15 270.15 253.4 270.15 255.5 270.25 256.95 269.75 257.2 269.65 257.45 269.65 257.95 269.65 258.35 269.85 258.45 269.9 258.45 270.15 258.95 269.9 259.5 269.75 259.7 269.65 260 269.65 260 269.4 260 269.15 260.5 269.15 261 269.15 261.25 269.15 261.5 269.15 262 269.15 262.5 269.15 262.75 269.15 263 269.15 263 268.9 262.95 268.9 262.25 268.65 261.5 268.65 261.25 268.65 261 268.65 260.25 268.65 259.45 268.65 259.45 268.9 259.35 268.95 258.95 269.15 258.45 269.15 258.2 269.15 257.95 269.15 256.2 269.15 254.4 269.15 254.4 269.4 254.3 269.45 253.9 269.65 253.4 269.65 253.15 269.65 252.9 269.65 251.35 269.65 249.85 269.65
L 249.85 269.9
Q 249.6 269.9 249.35 269.65 249.1 269.65 248.85 269.65 248.85 269.9 248.7 270.05 248.6 270.15 248.35 270.15 248.1 270.15 247.85 270.15 Z"/>

<path fill="#000000" fill-opacity="0.9921568627450981" stroke="none" d="
M 265.5 268.25
Q 265.3 268.15 265.05 268.15 264.8 268.15 264.55 268.15 264.7 269 265.8 268.4
L 265.5 268.25 Z"/>

<path fill="#000000" fill-opacity="0.5764705882352941" stroke="none" d="
M 229.1 273.2
Q 229.35 273.2 229.5 273.1 229.6 272.95 229.6 272.7 229.35 272.7 229.1 272.7 229.1 272.95 229.1 273.2
M 204.3 276.25
Q 204.3 276 204.15 275.85 204.05 275.75 203.8 275.75 203.8 276 203.8 276.25 204.05 276.25 204.3 276.25
M 205.7 274.5
Q 205.8 274.45 205.8 274.2 205.55 274.2 205.3 274.2 205.05 274.2 204.8 274.2 204.75 275.05 205.7 274.5
M 119.25 267.65
Q 119.25 267.4 119.15 267.25 119 267.15 118.75 267.15 118.75 267.4 118.9 267.5 119 267.65 119.25 267.65 Z"/>

<path fill="#000000" fill-opacity="0.4196078431372549" stroke="none" d="
M 203.8 274.2
Q 203.8 274.45 203.8 274.75 204.05 274.75 204.15 274.6 204.3 274.45 204.3 274.2 204.05 274.2 203.8 274.2
M 213.4 276
L 213.4 275.75
Q 213.15 275.75 212.9 275.75 213.15 276 213.4 276
M 189.1 277
L 189.1 276.75
Q 188.85 276.75 188.6 276.75 188.85 277 189.1 277
M 128.85 272.7
Q 128.6 272.7 128.35 272.7 128.6 272.95 128.85 272.95
L 128.85 272.7 Z"/>

<path fill="#000000" fill-opacity="0.41568627450980394" stroke="none" d="
M 211.4 274.2
Q 211.65 274.2 211.9 274.2 211.9 273.95 211.8 273.95 211.15 273.7 210.35 273.7 210.35 273.95 210.35 274.2 210.9 274.2 211.4 274.2
M 169.9 274.75
Q 169.9 274.45 169.75 274.35 169.6 274.2 169.35 274.2 169.35 274.45 169.35 274.75 169.6 274.75 169.9 274.75
M 155.2 273.2
Q 155.2 273.45 155.2 273.7 155.45 273.7 155.7 273.7 155.7 273.45 155.6 273.35 155.45 273.2 155.2 273.2
M 135.35 271.3
Q 135.2 271.2 134.95 271.2 134.95 271.45 135.1 271.55 135.2 271.7 135.45 271.7 135.45 271.45 135.35 271.3
M 333.25 257.4
Q 333.35 257.25 333.35 257 333.1 257 332.85 257 332.85 257.25 332.85 257.5 333.1 257.5 333.25 257.4 Z"/>

<path fill="#000000" fill-opacity="0.42745098039215684" stroke="none" d="
M 212.75 274.1
Q 212.9 273.95 212.9 273.7 212.65 273.7 212.4 273.7 212.4 273.95 212.4 274.2 212.65 274.2 212.75 274.1 Z"/>

<path fill="#000000" fill-opacity="0.5411764705882353" stroke="none" d="
M 216.45 275.25
Q 216.2 275.25 215.95 275.25 215.45 275.25 214.95 275.25 214.95 275.5 214.95 275.75 215.7 275.75 216.35 275.5 216.45 275.5 216.45 275.25
M 121.85 271.1
Q 122.05 271.2 122.3 271.2 122.3 270.95 122.2 270.9 121.8 270.7 121.3 270.7 121.55 270.95 121.85 271.1
M 322.25 258.55
Q 322 258.55 321.75 258.55 321.2 258.55 320.7 258.55 321.1 259.9 323.15 259.3 323.25 259.3 323.25 259.05 323 259.05 322.8 258.95 322.5 258.8 322.25 258.55 Z"/>

<path fill="#000000" fill-opacity="0.49019607843137253" stroke="none" d="
M 220.5 274.2
Q 220.75 274.2 221 274.2 221.25 274.2 221.5 274.2 221.5 273.95 221.4 273.9 221 273.7 220.5 273.7 220.5 273.95 220.5 274.2
M 157.1 275.1
Q 157.2 275 157.2 274.75 156.95 274.75 156.7 274.75 156.7 275 156.7 275.25 156.95 275.25 157.1 275.1
M 117.35 267
Q 117.5 267.15 117.75 267.15 117.75 266.9 117.6 266.75 117.5 266.65 117.25 266.65 117.25 266.9 117.35 267
M 351.1 251.95
L 351.1 252.2
Q 352.25 252.2 351.1 251.95
M 365.25 249.9
Q 365.5 249.9 365.75 249.9 365.75 249.65 365.65 249.55 365.5 249.4 365.25 249.4 365.25 249.65 365.25 249.9 Z"/>

<path fill="#000000" fill-opacity="0.47843137254901963" stroke="none" d="
M 222.5 272.7
Q 222.25 272.7 222 272.7 221.75 272.7 221.5 272.7 221.5 272.95 221.5 273.2 222 273.2 222.4 273 222.5 272.95 222.5 272.7
M 146.2 275.1
Q 146.35 275.25 146.6 275.25 146.6 275 146.45 274.85 146.35 274.75 146.1 274.75 146.1 275 146.2 275.1
M 118.75 270.15
Q 118.75 270.4 118.9 270.55 119 270.7 119.25 270.7 119.25 270.4 119.15 270.3 119 270.15 118.75 270.15
M 337.95 255.5
Q 337.65 255.5 337.4 255.5 337.4 255.75 337.4 256 337.65 256 337.8 255.85 337.95 255.75 337.95 255.5
M 359.7 249.9
Q 359.7 250.2 359.7 250.45 359.95 250.45 360.05 250.3 360.2 250.2 360.2 249.9 359.95 249.9 359.7 249.9 Z"/>

<path fill="#000000" fill-opacity="0.43529411764705883" stroke="none" d="
M 239.75 271.7
Q 239.75 271.95 239.75 272.2 240 272.2 240.25 272.2 240.25 271.95 240.1 271.8 240 271.7 239.75 271.7
M 154.7 273.7
Q 154.7 273.45 154.55 273.35 154.45 273.2 154.2 273.2 154.2 273.45 154.3 273.6 154.45 273.7 154.7 273.7 Z"/>

<path fill="#000000" fill-opacity="0.8901960784313725" stroke="none" d="
M 230.1 272.2
Q 229.85 272.2 229.6 272.2 228.35 272.2 227.05 272.2 227.05 272.45 226.95 272.55 226.8 272.7 226.55 272.7 226.3 272.7 226.05 272.7 224.3 272.7 222.5 272.7 222.5 272.95 222.4 273 222 273.2 221.5 273.2 221.25 273.2 221 273.2 219.5 273.2 217.95 273.2 217.95 273.45 217.9 273.5 217.2 273.7 216.45 273.7 216.2 273.7 215.95 273.7 214.4 273.7 212.9 273.7 212.9 273.95 212.75 274.1 212.65 274.2 212.4 274.2 212.15 274.2 211.9 274.2 211.65 274.2 211.4 274.2 210.9 274.2 210.35 274.2 210.1 274.2 209.85 274.2 210.9 274.75 211.4 275.25
L 210.95 275.4
Q 209.8 275.85 211.9 275.75 212.15 275.75 212.4 275.75 212.65 275.75 212.9 275.75 213.15 275.75 213.4 275.75 213.9 275.75 214.4 275.75 214.65 275.75 214.95 275.75 214.95 275.5 214.95 275.25 215.45 275.25 215.95 275.25 216.2 275.25 216.45 275.25 217.7 275.25 218.95 275.25 219.25 275.25 219.5 275.25 219.5 275 219.5 274.75 219.75 274.75 220 274.75 220 274.45 220 274.2 220.25 274.2 220.5 274.2 220.5 273.95 220.5 273.7 221 273.7 221.4 273.9 221.5 273.95 221.5 274.2 222.5 274.25 223.1 274.6 223.3 274.75 223.55 274.75 223.55 274.45 223.55 274.2 223.8 274.2 224.05 274.2 224.05 273.95 224.05 273.7 224.3 273.7 224.55 273.7 224.8 273.7 225.05 273.7 225.05 273.45 225.05 273.2 225.3 273.2 225.55 273.2 225.8 273.2 226.05 273.2 227.35 273.2 228.6 273.2 228.85 273.2 229.1 273.2 229.1 272.95 229.1 272.7 229.35 272.7 229.6 272.7 232.7 273.05 234.75 272.5 234.9 272.45 235.15 272.75 235.75 273.5 237.2 272.7 237.2 272.45 237.2 272.2 237.45 272.2 237.7 272.2 238.45 272.2 239.2 272.2 239.5 272.2 239.75 272.2 239.75 271.95 239.75 271.7 240 271.7 240.1 271.8 240.25 271.95 240.25 272.2 240.5 272.2 240.75 272.2 240.75 271.95 240.75 271.7 241 271.7 241.25 271.7 241.5 271.7 241.55 271.6 242.1 270.35 240.75 270.7 240.75 270.95 240.65 271 240.25 271.2 239.75 271.2 239.5 271.2 239.2 271.2 238.2 271.2 237.2 271.2 237.2 271.45 237.15 271.45 235.95 271.7 234.65 271.7 234.4 271.7 234.15 271.7 233.15 271.7 232.15 271.7 232.15 271.95 232 272.05 231.9 272.2 231.65 272.2 231.4 272.2 231.1 272.2 230.85 272.2 230.6 272.2 230.35 272.2 230.1 272.2 Z"/>

<path fill="#000000" fill-opacity="0.4549019607843137" stroke="none" d="
M 185.55 276.75
Q 185.3 276.75 185.05 276.75 185.05 277 185.05 277.25 185.3 277.25 185.45 277.15 185.55 277 185.55 276.75 Z"/>

<path fill="#000000" fill-opacity="0.6" stroke="none" d="
M 185.55 276.25
Q 185.55 276.5 185.55 276.75 185.8 276.75 186.05 276.75 186.05 276.5 185.95 276.35 185.8 276.25 185.55 276.25
M 198.75 276.25
Q 198.75 276.5 198.75 276.75 199 276.75 199.25 276.75 199.5 276.75 199.75 276.75 199.75 276.5 199.65 276.45 199.25 276.25 198.75 276.25
M 121.15 267.75
Q 121.05 267.65 120.8 267.65 120.8 267.9 120.9 268 121.05 268.15 121.3 268.15 121.3 267.9 121.15 267.75
M 201.25 275.5
Q 202.4 275.5 201.25 275.25
L 201.25 275.5 Z"/>

<path fill="#000000" fill-opacity="0.4235294117647059" stroke="none" d="
M 188.6 275.25
Q 188.85 275.25 189.1 275.25 189.1 275 189 274.85 188.85 274.75 188.6 274.75 188.6 275 188.6 275.25
M 332.35 256
Q 332.35 256.25 332.35 256.5 332.85 256.5 333.25 256.3 333.35 256.25 333.35 256 333.1 256 332.85 256 332.6 256 332.35 256
M 363.75 248.9
Q 363.5 248.9 363.25 248.9 363 248.9 362.75 248.9 362.75 249.15 362.75 249.4 363.25 249.4 363.65 249.2 363.75 249.15 363.75 248.9 Z"/>

<path fill="#000000" fill-opacity="0.6039215686274509" stroke="none" d="
M 194.15 276.75
Q 194.45 276.75 194.7 276.75 194.7 276.5 194.55 276.35 194.45 276.25 194.15 276.25 194.15 276.5 194.15 276.75 Z"/>

<path fill="#000000" fill-opacity="0.5215686274509804" stroke="none" d="
M 194.7 274.75
Q 194.45 274.75 194.15 274.75 193.9 274.75 193.65 274.75 193.65 275 193.65 275.25 194.15 275.25 194.6 275.05 194.7 275 194.7 274.75
M 178.5 275.25
Q 178.5 275 178.4 274.95 177.7 274.75 176.95 274.75 176.9 275.55 178 275.3 178.25 275.25 178.5 275.25
M 108.5 261.2
Q 108.35 261.05 108.1 261.05 108.1 261.3 108.25 261.45 108.35 261.55 108.65 261.55 108.65 261.3 108.5 261.2 Z"/>

<path fill="#000000" fill-opacity="0.596078431372549" stroke="none" d="
M 195.55 274.85
Q 195.45 274.75 195.2 274.75 195.2 275 195.3 275.1 195.45 275.25 195.7 275.25 195.7 275 195.55 274.85 Z"/>

<path fill="#000000" fill-opacity="0.396078431372549" stroke="none" d="
M 165.3 276.75
Q 165.3 276.5 165.2 276.35 165.05 276.25 164.8 276.25 164.8 276.5 164.95 276.6 165.05 276.75 165.3 276.75
M 350.1 252.45
L 350.1 252.7
Q 351.2 252.7 350.1 252.45 Z"/>

<path fill="#000000" fill-opacity="0.40784313725490196" stroke="none" d="
M 162.65 276.35
Q 162.55 276.25 162.3 276.25 162.3 276.5 162.4 276.6 162.55 276.75 162.8 276.75 162.8 276.5 162.65 276.35
M 140.65 272.05
Q 140.75 272.2 141 272.2 141 271.95 140.9 271.8 140.75 271.7 140.5 271.7 140.5 271.95 140.65 272.05
M 344.45 253.65
Q 344.5 253.5654296875 344.5 253.45 344.25 253.45 344 253.45 344 253.51796875 344 253.55 344 253.76796875 344 253.95 344.25 253.95 344.4 253.85 344.45390625 253.769140625 344.45 253.65 Z"/>

<path fill="#000000" fill-opacity="0.5882352941176471" stroke="none" d="
M 169.35 276.25
Q 169.35 276.5 169.35 276.75 169.6 276.75 169.9 276.75 170.15 276.75 170.4 276.75 170.4 276.5 170.3 276.45 169.9 276.25 169.35 276.25 Z"/>

<path fill="#000000" fill-opacity="0.5568627450980392" stroke="none" d="
M 173.4 276.25
Q 173.65 276.25 173.9 276.25 173.9 276 173.8 275.95 173.4 275.75 172.9 275.75 172.9 276 172.9 276.25 173.15 276.25 173.4 276.25
M 109.65 262.6
Q 109.65 262.3 109.5 262.2 109.4 262.05 109.15 262.05 109.15 262.3 109.25 262.45 109.4 262.6 109.65 262.6 Z"/>

<path fill="#000000" fill-opacity="0.592156862745098" stroke="none" d="
M 147.6 274.75
Q 147.6 275 147.6 275.25 147.85 275.25 148.1 275.25 148.1 275 148 274.85 147.85 274.75 147.6 274.75 Z"/>

<path fill="#000000" fill-opacity="0.5098039215686274" stroke="none" d="
M 149.75 273.1
Q 149.9 273.2 150.15 273.2 150.15 272.95 150 272.85 149.9 272.7 149.65 272.7 149.65 272.95 149.75 273.1 Z"/>

<path fill="#000000" fill-opacity="0.5490196078431373" stroke="none" d="
M 132.4 273.2
Q 132.4 273.45 132.55 273.6 132.65 273.7 132.9 273.7 132.9 273.45 132.8 273.35 132.65 273.2 132.4 273.2 Z"/>

<path fill="#000000" fill-opacity="0.5137254901960784" stroke="none" d="
M 113.2 267.65
Q 113.2 267.4 113.05 267.25 112.95 267.15 112.7 267.15 112.7 267.4 112.8 267.5 112.95 267.65 113.2 267.65
M 373.35 247.9
Q 373.1 247.9 372.85 247.9 372.85 248.15 372.85 248.4 373.1 248.4 373.25 248.3 373.35 248.15 373.35 247.9 Z"/>

<path fill="#000000" fill-opacity="0.5725490196078431" stroke="none" d="
M 106.5 259.65
Q 106.35 259.55 106.1 259.55 106.1 259.8 106.2 259.9 106.35 260.05 106.6 260.05 106.6 259.8 106.5 259.65 Z"/>

<path fill="#000000" fill-opacity="0.9372549019607843" stroke="none" d="
M 105.95 259.1
Q 105.35 258.25 104.05 258 104.05 258.55 104.05 259.05 104.05 259.3 104.05 259.55 104.3 259.55 104.45 259.65 104.6 259.8 104.6 260.05 104.6 260.3 104.6 260.55 104.85 260.55 104.95 260.7 105.1 260.8 105.1 261.05 104.75 262.15 105.55 262.3 105.6 262.3 105.6 262.6 105.85 262.6 105.95 262.7 106.1 262.85 106.1 263.1 107.2 263.5 107.8 264.5 107.85 264.6 108.1 264.6 108.35 264.6 108.5 264.75 108.65 264.85 108.65 265.1 111.2 265.35 112.35 267 112.4 267.15 112.7 267.15 112.95 267.15 113.05 267.25 113.2 267.4 113.2 267.65 115.25 268.6 117.3 269.55 117.5 269.65 117.75 269.65 118 269.65 118.1 269.8 118.25 269.9 118.25 270.15 118.5 270.15 118.75 270.15 119 270.15 119.15 270.3 119.25 270.4 119.25 270.7 120 270.7 120.8 270.7 121.05 270.7 121.3 270.7 121.8 270.7 122.2 270.9 122.3 270.95 122.3 271.2 122.55 271.45 122.85 271.6 123.05 271.7 123.3 271.7 123.55 271.7 123.8 271.7 124.05 271.7 124.3 271.7 125.75 272.5 127.85 272.7 128.1 272.7 128.35 272.7 128.6 272.7 128.85 272.7 129.15 272.7 129.4 272.7 129.65 272.7 129.75 272.85 129.9 272.95 129.9 273.2 130.9 273.2 131.9 273.2 132.15 273.2 132.4 273.2 132.65 273.2 132.8 273.35 132.9 273.45 132.9 273.7 139.2 274.25 145.6 274.7 145.85 274.75 146.1 274.75 146.35 274.75 146.45 274.85 146.6 275 146.6 275.25 146.85 275.25 147.1 275.25 147.35 275.25 147.6 275.25 147.6 275 147.6 274.75 147.85 274.75 148 274.85 148.1 275 148.1 275.25 148.35 275.25 148.6 275.25 148.6 275 148.6 274.75 149.1 274.75 149.55 274.95 149.65 275 149.65 275.25 152.9 275.25 156.2 275.25 156.45 275.25 156.7 275.25 156.7 275 156.7 274.75 156.95 274.75 157.2 274.75 158.25 274.75 159.25 274.75 159.5 274.75 159.75 274.75 160 274.75 160.15 274.85 160.25 275 160.25 275.25 160.5 275.5 160.8 275.65 161 275.75 161.25 275.75 161.5 275.75 161.65 275.85 161.8 276 161.8 276.25 162.05 276.25 162.3 276.25 162.55 276.25 162.65 276.35 162.8 276.5 162.8 276.75 163.05 276.75 163.3 276.75 163.3 276.5 163.3 276.25 163.55 276.25 163.8 276.25 164.05 276.25 164.3 276.25 164.55 276.25 164.8 276.25 165.05 276.25 165.2 276.35 165.3 276.5 165.3 276.75 165.55 276.75 165.85 276.75 166.1 276.75 166.35 276.75 166.35 276.5 166.35 276.25 166.85 276.25 167.25 276.45 167.35 276.5 167.35 276.75 168.1 276.75 168.85 276.75 169.1 276.75 169.35 276.75 169.35 276.5 169.35 276.25 169.9 276.25 170.3 276.45 170.4 276.5 170.4 276.75 171.75 276.9 172.5 276.35 172.65 276.25 172.9 276.25 172.9 276 172.9 275.75 173.4 275.75 173.8 275.95 173.9 276 173.9 276.25 174.2 276.25 174.3 276.35 174.45 276.5 174.45 276.75 175.55 277.15 176.95 277.25 177.2 277.25 177.45 277.25 177.45 277 177.45 276.75 177.7 276.75 177.85 276.9 177.95 277 177.95 277.25 179.95 276.7 182.55 276.75 182.8 276.75 183.05 276.75 183.3 276.75 183.4 276.9 183.55 277 183.55 277.25 184.05 277.25 184.55 277.25 184.8 277.25 185.05 277.25 185.05 277 185.05 276.75 185.3 276.75 185.55 276.75 185.55 276.5 185.55 276.25 185.8 276.25 185.95 276.35 186.05 276.5 186.05 276.75 186.35 276.75 186.6 276.75 186.85 276.75 187.1 276.75 187.35 276.75 187.6 276.75 187.85 276.75 188.1 276.75 188.35 276.75 188.6 276.75 188.85 276.75 189.1 276.75 190.5 277.1 190.85 276.35 190.9 276.25 191.15 276.25 191.15 276 191.15 275.75 191.9 275.75 192.6 275.95 192.65 276 192.65 276.25 193.15 276.5 193.7 276.65 193.9 276.75 194.15 276.75 194.15 276.5 194.15 276.25 194.45 276.25 194.55 276.35 194.7 276.5 194.7 276.75 196.45 276.75 198.2 276.75 198.45 276.75 198.75 276.75 198.75 276.5 198.75 276.25 199.25 276.25 199.65 276.45 199.75 276.5 199.75 276.75 201.5 276.45 202.9 276.05 203.05 276 203.35 276.15 203.55 276.25 203.8 276.25 203.8 276 203.8 275.75 204.05 275.75 204.15 275.85 204.3 276 204.3 276.25 204.55 276.25 204.8 276.25 204.8 276 204.8 275.75 205.05 275.75 205.3 275.75 207.2 275.6 208.85 275.3 209.1 275.25 209.35 275.25 209.35 275 209.25 274.8 209.1 274.45 208.85 274.2 208.6 274.2 208.35 274.2 207.1 274.2 205.8 274.2 205.8 274.45 205.7 274.5 204.75 275.05 204.8 274.2 204.55 274.2 204.3 274.2 204.3 274.45 204.15 274.6 204.05 274.75 203.8 274.75 203.55 274.75 203.3 274.75 200.5 274.75 197.7 274.75 197.7 275 197.6 275.05 197.2 275.25 196.7 275.25 196.45 275.25 196.2 275.25 195.95 275.25 195.7 275.25 195.45 275.25 195.3 275.1 195.2 275 195.2 274.75 194.95 274.75 194.7 274.75 194.7 275 194.6 275.05 194.15 275.25 193.65 275.25 193.4 275.25 193.15 275.25 192.4 275.25 191.65 275.25 191.4 275.25 191.15 275.25 190.65 275.25 190.1 275.25 189.85 275.25 189.6 275.25 189.35 275.25 189.1 275.25 188.85 275.25 188.6 275.25 188.35 275.25 188.1 275.25 183.3 275.25 178.5 275.25 178.25 275.25 178 275.3 176.9 275.55 176.95 274.75 176.7 274.75 176.45 274.75 173.15 274.75 169.9 274.75 169.6 274.75 169.35 274.75 169.1 274.75 168.85 274.75 167.6 274.75 166.35 274.75 166.1 274.75 165.85 274.8 164.75 275.05 164.8 274.2 164.55 274.2 164.3 274.2 162.55 274.2 160.75 274.2 160.5 274.2 160.4 274.1 160.25 273.95 160.25 273.7 160 273.7 159.75 273.7 157.75 273.7 155.7 273.7 155.45 273.7 155.2 273.7 154.95 273.7 154.7 273.7 154.45 273.7 154.3 273.6 154.2 273.45 154.2 273.2 153.95 273.2 153.7 273.2 151.9 273.2 150.15 273.2 149.9 273.2 149.75 273.1 149.65 272.95 149.65 272.7 149.4 272.7 149.1 272.7
L 149.1 272.95
Q 148.85 272.95 148.6 272.7 148.35 272.7 148.1 272.7 146.6 272.7 145.05 272.7 144.8 272.7 144.6 272.75 143.5 273.05 143.55 272.2 143.3 272.2 143.05 272.2 142.05 272.2 141 272.2 140.75 272.2 140.65 272.05 140.5 271.95 140.5 271.7 140.25 271.7 140 271.7 137.75 271.7 135.45 271.7 135.2 271.7 135.1 271.55 134.95 271.45 134.95 271.2 134.7 271.2 134.45 271.15 129.8 270.8 125.85 269.65 125.6 269.65 125.4 269.55 125.1 269.4 124.85 269.15 124.55 269.15 124.4 269.05 123.2 268.25 121.3 268.15 121.05 268.15 120.9 268 120.8 267.9 120.8 267.65 120.5 267.65 120.25 267.65 119.75 267.65 119.25 267.65 119 267.65 118.9 267.5 118.75 267.4 118.75 267.15 118.5 267.15 118.25 267.15 118 267.15 117.75 267.15 117.5 267.15 117.35 267 117.25 266.9 117.25 266.65 117 266.65 116.85 266.5 116.2 265.9 115.2 265.6 114.95 265.6 114.85 265.5 114.7 265.35 114.7 265.1 114.45 265.1 114.25 265 112.6 263.95 110.65 263.1 110.4 263.1 110.25 262.95 110.15 262.85 110.15 262.6 109.9 262.6 109.65 262.6 109.4 262.6 109.25 262.45 109.15 262.3 109.15 262.05 108.9 262.05 108.75 261.95 108.65 261.8 108.65 261.55 108.35 261.55 108.25 261.45 108.1 261.3 108.1 261.05 107.85 261.05 107.65 260.95 107.35 260.8 107.1 260.55 106.85 260.55 106.75 260.45 106.6 260.3 106.6 260.05 106.35 260.05 106.2 259.9 106.1 259.8 106.1 259.55 106.1 259.3 105.95 259.1
M 201.25 275.25
Q 202.4 275.5 201.25 275.5
L 201.25 275.25 Z"/>

<path fill="#000000" fill-opacity="0.5843137254901961" stroke="none" d="
M 103.8 259.45
Q 103.8 259.55 104.05 259.55 104.05 259.3 104.05 259.05 104.05 258.55 104.05 258 103.8 258 103.55 258 103.55 258.8 103.8 259.45
M 323.25 258
Q 323.5 258.25 323.75 258.25
L 323.75 258
Q 323.5 258 323.25 258 Z"/>

<path fill="#000000" fill-opacity="0.8666666666666667" stroke="none" d="
M 326.3 258
Q 326.05 258 325.8 258 324.75 258 323.75 258
L 323.75 258.25
Q 323.5 258.25 323.25 258 323 258 322.8 258.1 322.5 258.25 322.25 258.55 322.5 258.8 322.8 258.95 323 259.05 323.25 259.05 324 259.05 324.75 259.05 325 259.05 325.25 259.05 325.25 258.8 325.25 258.55 325.55 258.55 325.8 258.55 326.05 258.55 326.3 258.55 326.55 258.55 326.8 258.55 326.8 258.25 326.65 258.15 326.55 258 326.3 258 Z"/>

<path fill="#000000" fill-opacity="0.6196078431372549" stroke="none" d="
M 326.3 257.5
Q 326.3 257.75 326.3 258 326.55 258 326.65 258.15 326.8 258.25 326.8 258.55 328.25 257.75 328.95 258.4 329.05 258.55 329.3 258.55 329.3 258.25 329.3 258 331 258 329.95 257.35 329.85 257.25 329.85 257 329.6 257 329.35 257.1 329.05 257.25 328.95 257.2 328.15 256.9 326.3 257.5 Z"/>

<path fill="#000000" fill-opacity="0.8627450980392157" stroke="none" d="
M 337.4 255.5
Q 337.65 255.5 337.95 255.5
L 337.95 255.25
Q 335.65 255.5 333.35 256 333.35 256.25 333.25 256.3 332.85 256.5 332.35 256.5 332.1 256.5 331.85 256.55 330.85 256.75 329.85 257 329.85 257.25 329.95 257.35 331 258 329.3 258 329.3 258.25 329.3 258.55 330.1 258.55 330.85 258.55 331.1 258.55 331.35 258.55 331.35 258.25 331.35 258 331.6 258 331.85 258 332.1 257.75 332.4 257.6 332.6 257.5 332.85 257.5 332.85 257.25 332.85 257 333.1 257 333.35 257 335.45 256.85 336.95 256.1 337.15 256 337.4 256 337.4 255.75 337.4 255.5 Z"/>

<path fill="#000000" fill-opacity="0.5058823529411764" stroke="none" d="
M 346.55 253.9
Q 346.6908203125 254.1087890625 347 254.15 347.3 254.25 347.35 254.2 347.514453125 254.0884765625 347.6 253.95 348.4916015625 253.21484375 346.55 252.95 346.3736328125 253.596484375 346.55 253.9 Z"/>

<path fill="#000000" fill-opacity="0.7294117647058823" stroke="none" d="
M 344.5 253.45
Q 344.5 253.5654296875 344.45 253.65 344.45390625 253.769140625 344.4 253.85 344.25 253.95 344 253.95 343.75 253.95 343.5 253.95 341.7 253.95 340.45 254.5 340.45 254.75 340.6 254.85 340.7 255 340.95 255 344.15 255.4 345.2 253.75 345.25 253.7 344.95 253.55 344.75 253.45 344.5 253.45 Z"/>

<path fill="#000000" stroke="none" d="
M 352.75 252.35
Q 352.85 252.45 353.1 252.45 353.1 252.2 353 252.05 352.85 251.95 352.6 251.95 352.6 252.2 352.75 252.35
M 354.65 250.95
Q 354.9 251.2 355.2 251.35 355.4 251.45 355.65 251.45 355.65 251.2 355.55 251.15 355.15 250.95 354.65 250.95 Z"/>

<path fill="#000000" fill-opacity="0.7176470588235294" stroke="none" d="
M 355.65 251.7
L 355.65 251.45
Q 355.4 251.45 355.2 251.35 354.9 251.2 354.65 250.95 354.4 250.95 354.35 251.05 354.03828125 251.634375 353.15 251.55 352.8982421875 251.52734375 352.6 251.45 352.6 251.7 352.6 251.95 352.85 251.95 353 252.05 353.1 252.2 353.1 252.45 353.203515625 252.36484375 353.3 252.3 354.15703125 251.7439453125 355.65 251.7 Z"/>

<path fill="#000000" fill-opacity="0.9529411764705882" stroke="none" d="
M 362.75 249.4
Q 362.5 249.4 362.2 249.4 361.95 249.4 361.7 249.4 361.7 249.65 361.6 249.8 361.45 249.9 361.2 249.9 360.95 249.9 360.7 249.9 360.45 249.9 360.2 249.9 360.2 250.2 360.05 250.3 359.95 250.45 359.7 250.45 359.45 250.45 359.2 250.45 358.95 250.45 358.7 250.45 358.7 250.7 358.7 250.95 360.8 251.3 361.8 250.55 361.95 250.45 362.2 250.45 362.2 250.2 362.2 249.9 363 249.9 363.75 249.9 364 249.9 364.25 249.9 364.5 249.9 364.75 249.9 365 249.9 365.25 249.9 365.25 249.65 365.25 249.4 365.5 249.4 365.65 249.55 365.75 249.65 365.75 249.9 368 248.9 370.85 248.45 371.1 248.4 371.35 248.4 371.35 248.15 371.35 247.9 371.85 247.9 372.25 248.1 372.35 248.15 372.35 248.4 372.6 248.4 372.85 248.4 372.85 248.15 372.85 247.9 373.1 247.9 373.35 247.9 373.426953125 247.8875 373.5 247.85 370.7435546875 247.7595703125 368 247.6 368.3708984375 247.65859375 368.75 247.7 369.95 247.85 368.3 248.05 367.1 248.25 366.15 248.65 365.5 248.9 364.75 248.9 364.25 248.9 363.75 248.9 363.75 249.15 363.65 249.2 363.25 249.4 362.75 249.4 Z"/>
</g>

<g id="Layer3_0_FILL">
<path fill="#000000" fill-opacity="0.9254901960784314" stroke="none" d="
M 394.6 223.6
Q 394.8 228.6 398.25 226.25 399.15 225.65 400.25 225.35 404.65 224.3 406.25 220.55 404.9 219.75 402.8 220.7 401.3 221.4 400.2 222.6 399.95 222.85 399.7 222.85 396.6 222.8 394.6 223.6 Z"/>

<path fill="#000000" fill-opacity="0.5803921568627451" stroke="none" d="
M 428.05 227.15
Q 427.75 227.15 427.5 227.15 427.5 227.65 427.7 228.05 427.75 228.15 428.05 228.15 428.05 227.9 428.05 227.65 428.05 227.4 428.05 227.15 Z"/>

<path fill="#000000" fill-opacity="0.9450980392156862" stroke="none" d="
M 434.4 227.5
Q 434.6 227.15 434.85 226.95 435.45 226.5 435.35 225.7 435 223.7 432.7 224.8 430.55 225.9 428.05 226.65 428.05 226.9 428.05 227.15 428.05 227.4 428.05 227.65 428.05 227.9 428.05 228.15 429.35 230.35 431.1 229.8 433.25 229.1 434.4 227.5 Z"/>

<path fill="#000000" fill-opacity="0.4549019607843137" stroke="none" d="
M 414.25 225.75
Q 414.1 225.65 413.85 225.65 413.85 225.9 414 226 414.1 226.15 414.35 226.15 414.35 225.9 414.25 225.75
M 420.3 223.45
Q 420.45 223.35 420.45 223.1 420.2 223.1 419.95 223.1 419.95 223.35 419.95 223.6 420.2 223.6 420.3 223.45 Z"/>

<path fill="#000000" fill-opacity="0.44313725490196076" stroke="none" d="
M 413.35 223.1
Q 413.1 223.1 412.85 223.1 412.85 223.35 412.95 223.45 413.1 223.6 413.35 223.6 413.35 223.35 413.35 223.1 Z"/>

<path fill="#000000" fill-opacity="0.5607843137254902" stroke="none" d="
M 415.75 226.5
Q 415.9 226.4 415.9 226.15 415.65 226.15 415.35 226.15 415.35 226.4 415.35 226.65 415.65 226.65 415.75 226.5
M 418.4 225.1
Q 418.15 225.1 417.9 225.1 417.9 225.35 417.9 225.65 418.15 225.65 418.3 225.5 418.4 225.35 418.4 225.1 Z"/>

<path fill="#000000" fill-opacity="0.592156862745098" stroke="none" d="
M 419.95 223.6
Q 419.7 223.6 419.4 223.6 419.4 223.85 419.4 224.1 419.7 224.1 419.8 224 419.95 223.85 419.95 223.6 Z"/>

<path fill="#000000" fill-opacity="0.5882352941176471" stroke="none" d="
M 421.95 222.6
Q 421.7 222.6 421.45 222.6 421.45 222.85 421.45 223.1 421.7 223.1 421.85 222.95 421.95 222.85 421.95 222.6 Z"/>

<path fill="#000000" fill-opacity="0.396078431372549" stroke="none" d="
M 418.9 221.05
Q 418.65 221.05 418.4 221.05 418.4 221.3 418.4 221.6 418.65 221.6 418.8 221.45 418.9 221.3 418.9 221.05 Z"/>

<path fill="#000000" fill-opacity="0.49019607843137253" stroke="none" d="
M 419.95 220.55
Q 419.95 220.8 419.95 221.05 420.2 221.05 420.45 221.05 420.7 221.05 420.95 221.05 420.95 220.8 420.85 220.75 420.45 220.55 419.95 220.55 Z"/>

<path fill="#000000" fill-opacity="0.5372549019607843" stroke="none" d="
M 417.4 221.6
Q 417.4 221.85 417.4 222.1 417.65 222.1 417.8 221.95 417.9 221.85 417.9 221.6 417.65 221.6 417.4 221.6 Z"/>

<path fill="#000000" fill-opacity="0.9647058823529412" stroke="none" d="
M 417.4 222.1
Q 417.15 222.1 416.95 222.2 415.85 222.8 413.85 222.6 413.85 222.85 413.75 222.95 413.6 223.1 413.35 223.1 413.35 223.35 413.35 223.6 413 224.95 413.75 225.3 413.85 225.35 413.85 225.65 414.1 225.65 414.25 225.75 414.35 225.9 414.35 226.15 414.6 226.4 414.9 226.55 415.1 226.65 415.35 226.65 415.35 226.4 415.35 226.15 415.65 226.15 415.9 226.15 417.25 226.5 417.6 225.75 417.65 225.65 417.9 225.65 417.9 225.35 417.9 225.1 418.15 225.1 418.4 225.1 418.9 224.85 419.3 224.5 419.4 224.35 419.4 224.1 419.4 223.85 419.4 223.6 419.7 223.6 419.95 223.6 419.95 223.35 419.95 223.1 420.2 223.1 420.45 223.1 420.7 223.1 420.95 223.1 421.2 223.1 421.45 223.1 421.45 222.85 421.45 222.6 421.7 222.6 421.95 222.6 421.95 222.35 421.95 222.1 421.8 221.2 420.95 221.05 420.7 221.05 420.45 221.05 420.2 221.05 419.95 221.05 419.7 221.05 419.4 221.05 419.15 221.05 418.9 221.05 418.9 221.3 418.8 221.45 418.65 221.6 418.4 221.6 418.15 221.6 417.9 221.6 417.9 221.85 417.8 221.95 417.65 222.1 417.4 222.1 Z"/>

<path fill="#000000" fill-opacity="0.5686274509803921" stroke="none" d="
M 413.85 222.6
Q 413.6 222.6 413.35 222.6 413.35 222.85 413.35 223.1 413.6 223.1 413.75 222.95 413.85 222.85 413.85 222.6 Z"/>
</g>

<g id="Layer1_0_FILL">
<path fill="#000000" fill-opacity="0.5568627450980392" stroke="none" d="
M 363.25 247.4
L 363.25 247.35
Q 363.1375 247.3689453125 363 247.35 363.1248046875 247.4 363.25 247.4 Z"/>

<path fill="#000000" fill-opacity="0.9529411764705882" stroke="none" d="
M 363.25 247.35
L 363.25 247.4
Q 363.505078125 247.4 363.75 247.4 363.5046875 247.3892578125 363.25 247.35 Z"/>

<path fill="#000000" fill-opacity="0.4" stroke="none" d="
M 163.7 299.35
Q 163.8 299.3 163.8 299 163.55 299 163.3 299 163.05 299 162.8 299 162.8 299.3 162.8 299.55 163.3 299.55 163.7 299.35
M 231 293.85
Q 231.1 293.7 231.1 293.45 230.85 293.45 230.6 293.45 230.6 293.7 230.6 293.95 230.85 293.95 231 293.85
M 323.1 292.3
Q 323.25 292.2 323.25 291.95 323 291.95 322.75 291.95 322.75 292.2 322.75 292.45 323 292.45 323.1 292.3
M 130.4 302.05
Q 130.15 302.05 129.9 302.05 129.9 302.3 129.9 302.55 130.15 302.55 130.25 302.45 130.4 302.3 130.4 302.05
M 378.8 290.55
Q 378.65 290.4 378.4 290.4 378.4 290.65 378.4 290.9 378.65 290.9 378.95 290.9 378.95 290.65 378.8 290.55 Z"/>

<path fill="#000000" fill-opacity="0.47843137254901963" stroke="none" d="
M 167.85 298.5
Q 167.85 298.75 167.85 299 168.1 299 168.25 298.9 168.35 298.75 168.35 298.5 168.1 298.5 167.85 298.5
M 307.95 292.55
Q 307.8 292.45 307.55 292.45 307.55 292.7 307.7 292.8 307.8 292.95 308.05 292.95 308.05 292.7 307.95 292.55
M 119.75 302.55
Q 119.5 302.55 119.25 302.55 119.5 302.8 119.75 302.8
L 119.75 302.55
M 349.55 289.9
Q 349.55 289.65 349.45 289.55 349.3 289.4 349.05 289.4 349.05 289.65 349.2 289.8 349.3 289.9 349.55 289.9
M 406.75 290.4
Q 407 290.4 407.25 290.4 407.25 290.15 407.15 290.05 407 289.9 406.75 289.9 406.75 290.15 406.75 290.4 Z"/>

<path fill="#000000" fill-opacity="0.47058823529411764" stroke="none" d="
M 172.9 299.55
Q 172.9 299.8 172.9 300.05 173.4 300.05 173.8 299.85 173.9 299.8 173.9 299.55 173.65 299.55 173.4 299.55 173.15 299.55 172.9 299.55
M 229.5 293.6
Q 229.35 293.45 229.1 293.45 229.1 293.7 229.1 293.95 229.35 293.95 229.6 293.95 229.6 293.7 229.5 293.6
M 264.55 293.45
Q 264.8 293.45 265.05 293.45 265.05 293.2 264.95 293.15 264.55 292.95 264 292.95 264 293.2 264 293.45 264.3 293.45 264.55 293.45
M 88.4 303.6
Q 88.4 303.3 88.25 303.2 88.15 303.05 87.85 303.05 87.85 303.3 88 303.45 88.15 303.6 88.4 303.6
M 125.85 302.8
L 125.85 302.55
Q 125.6 302.55 125.35 302.55 125.6 302.8 125.85 302.8
M 75.75 303.05
Q 75.75 302.8 75.6 302.7 75.45 302.55 75.2 302.55 75.2 302.8 75.35 302.95 75.45 303.05 75.75 303.05
M 389.55 289.9
Q 389.3 289.9 389.05 289.9 389.05 290.15 389.05 290.4 389.3 290.4 389.45 290.3 389.55 290.15 389.55 289.9
M 330.35 292.45
Q 330.85 292.45 331.25 292.25 331.35 292.2 331.35 291.95 331.1 291.95 330.85 291.95 330.6 291.95 330.35 291.95 330.35 292.2 330.35 292.45 Z"/>

<path fill="#000000" fill-opacity="0.4392156862745098" stroke="none" d="
M 172.9 298.5
Q 173.15 298.5 173.3 298.4 173.4 298.25 173.4 298 173.15 298 172.9 298 172.9 298.25 172.9 298.5
M 221.4 294.35
Q 221.5 294.2 221.5 293.95 221.25 293.95 221 293.95 221 294.2 221 294.45 221.25 294.45 221.4 294.35
M 148.6 301.55
Q 148.35 301.55 148.1 301.55 147.85 301.55 147.6 301.55 147.55 302.4 148.5 301.85 148.6 301.8 148.6 301.55
M 41.45 303.45
Q 41.55 303.6 41.8 303.6 41.8 303.3 41.7 303.2 41.55 303.05 41.3 303.05 41.3 303.3 41.45 303.45
M 76.25 303.05
Q 76.75 303.05 77.25 303.05 77.5 303.05 77.75 303.05 77.75 302.8 77.65 302.8 77 302.55 76.25 302.55 76.25 302.8 76.25 303.05
M 326.8 290.4
Q 326.8 290.65 326.9 290.8 327.05 290.9 327.3 290.9 327.3 290.65 327.15 290.55 327.05 290.4 326.8 290.4 Z"/>

<path fill="#000000" fill-opacity="0.40784313725490196" stroke="none" d="
M 174.95 299.8
L 174.95 299.55
Q 174.7 299.55 174.45 299.55 174.7 299.8 174.95 299.8
M 259.45 292.45
Q 259.2 292.45 258.95 292.45 259.2 292.7 259.45 292.7
L 259.45 292.45
M 132.9 303.6
Q 132.65 303.6 132.4 303.6 132.4 303.85 132.4 304.1 132.65 304.1 132.8 303.95 132.9 303.85 132.9 303.6
M 40.8 300.55
Q 40.8 300.3 40.65 300.15 40.55 300.05 40.3 300.05 40.3 300.3 40.4 300.4 40.55 300.55 40.8 300.55 Z"/>

<path fill="#000000" fill-opacity="0.43529411764705883" stroke="none" d="
M 175.45 299.55
Q 175.7 299.55 175.8 299.4 175.95 299.3 175.95 299 175.7 299 175.45 299 175.45 299.3 175.45 299.55
M 210.25 296.6
Q 210.1 296.5 209.85 296.5 209.85 296.75 209.85 297 210.1 297 210.35 297 210.35 296.75 210.25 296.6
M 188.6 296.5
Q 188.35 296.5 188.1 296.5 188.1 296.75 188.1 297 188.35 297 188.5 296.85 188.6 296.75 188.6 296.5
M 287.3 293.45
Q 287.3 293.2 287.2 293.15 286.8 292.95 286.3 292.95 286.55 293.2 286.85 293.35 287.05 293.45 287.3 293.45
M 267.55 291.95
Q 267.3 291.95 267.05 291.95 267.3 292.2 267.55 292.2
L 267.55 291.95
M 109.65 305.1
Q 109.4 305.1 109.15 305.1 109.4 305.35 109.65 305.35
L 109.65 305.1
M 105.6 303.6
Q 105.6 303.3 105.5 303.25 105.1 303.05 104.6 303.05 104.85 303.3 105.15 303.5 105.35 303.6 105.6 303.6
M 326.15 290.8
Q 326.3 290.65 326.3 290.4 326.05 290.4 325.8 290.4 325.8 290.65 325.8 290.9 326.05 290.9 326.15 290.8 Z"/>

<path fill="#000000" fill-opacity="0.4980392156862745" stroke="none" d="
M 183.05 297
Q 183.05 297.25 183.05 297.5 183.3 297.5 183.4 297.4 183.55 297.25 183.55 297 183.3 297 183.05 297
M 238.6 293.35
Q 238.7 293.2 238.7 292.95 238.45 292.95 238.2 292.95 238.2 293.2 238.2 293.45 238.45 293.45 238.6 293.35
M 224.05 295.5
Q 223.8 295.5 223.55 295.5 223.55 295.75 223.55 296 223.8 296 223.9 295.85 224.05 295.75 224.05 295.5
M 296.95 292.95
Q 296.65 292.95 296.4 292.95 296.4 293.2 296.4 293.45 296.65 293.45 296.8 293.35 296.95 293.2 296.95 292.95
M 253.9 292.45
Q 254.15 292.7 254.4 292.7
L 254.4 292.45
Q 254.15 292.45 253.9 292.45 Z"/>

<path fill="#000000" fill-opacity="0.4470588235294118" stroke="none" d="
M 185.55 298
Q 185.55 298.25 185.55 298.5 185.8 298.5 186.05 298.5 186.05 298.25 185.95 298.15 185.8 298 185.55 298
M 304.15 291.3
Q 304.25 291.45 304.5 291.45 304.5 291.2 304.4 291.05 304.25 290.9 304 290.9 304 291.2 304.15 291.3
M 306.4 292.8
Q 306.55 292.7 306.55 292.45 306.3 292.45 306.05 292.45 306.05 292.7 306.05 292.95 306.3 292.95 306.4 292.8
M 274.05 293.75
Q 274.15 293.7 274.15 293.45 273.9 293.45 273.65 293.45 273.4 293.45 273.15 293.45 273.1 294.3 274.05 293.75
M 263 293.45
Q 263 293.7 263 293.95 263.25 293.95 263.4 293.85 263.5 293.7 263.5 293.45 263.25 293.45 263 293.45
M 155.2 300.05
Q 154.95 300.05 154.7 300.05 153.95 300.05 153.15 300.05 153.6 300.9 155.1 300.3 155.2 300.3 155.2 300.05
M 380.45 288.4
Q 380.45 288.65 380.45 288.9 380.7 288.9 380.85 288.75 380.95 288.65 380.95 288.4 380.7 288.4 380.45 288.4
M 367.3 290.15
L 367.3 289.9
Q 367.05 289.9 366.8 289.9 367.05 290.15 367.3 290.15
M 332.85 289.9
Q 332.85 290.15 332.85 290.4 333.1 290.4 333.35 290.4 333.35 290.15 333.25 290.05 333.1 289.9 332.85 289.9 Z"/>

<path fill="#000000" fill-opacity="0.4117647058823529" stroke="none" d="
M 190.1 298
Q 189.85 298 189.6 298 189.55 298.85 190.55 298.3 190.65 298.25 190.65 298 190.4 298 190.1 298
M 108.65 303.6
Q 108.65 303.3 108.5 303.2 108.35 303.05 108.1 303.05 108.1 303.3 108.1 303.6 108.35 303.6 108.65 303.6
M 370.3 289.9
Q 370.3 290.15 370.3 290.4 370.6 290.4 370.7 290.3 370.85 290.15 370.85 289.9 370.6 289.9 370.3 289.9
M 346.55 291.45
Q 346.3 291.45 346.05 291.45 346.3 291.7 346.55 291.7
L 346.55 291.45 Z"/>

<path fill="#000000" fill-opacity="0.49019607843137253" stroke="none" d="
M 232 295.35
Q 232.15 295.25 232.15 294.95 231.9 294.95 231.65 294.95 231.65 295.25 231.65 295.5 231.9 295.5 232 295.35
M 93.3 305.5
Q 93.45 305.35 93.45 305.1 93.2 305.1 92.95 305.1 92.95 305.35 92.95 305.6 93.2 305.6 93.3 305.5
M 59 304.1
Q 59.25 304.1 59.4 303.95 59.55 303.85 59.55 303.6 59.25 303.6 59 303.6 59 303.85 59 304.1
M 348.55 289.4
Q 348.3 289.4 348.05 289.4 348.05 289.65 348.05 289.9 348.3 289.9 348.45 289.8 348.55 289.65 348.55 289.4 Z"/>

<path fill="#000000" fill-opacity="0.48627450980392156" stroke="none" d="
M 229.1 295.5
Q 229.35 295.5 229.6 295.5 229.6 295.25 229.5 295.15 229.1 294.95 228.6 294.95 228.6 295.25 228.6 295.5 228.85 295.5 229.1 295.5
M 318.55 292.55
Q 318.45 292.45 318.2 292.45 318.2 292.7 318.3 292.8 318.45 292.95 318.7 292.95 318.7 292.7 318.55 292.55
M 83.3 303.05
Q 83.05 303.05 82.8 303.05 83.05 303.3 83.3 303.3
L 83.3 303.05
M 82.3 303.05
Q 82.05 303.05 81.8 303.05 82.05 303.3 82.3 303.3
L 82.3 303.05
M 142.05 301.55
Q 142.3 301.55 142.4 301.45 142.55 301.3 142.55 301.05 142.3 301.05 142.05 301.05 142.05 301.3 142.05 301.55
M 37.75 300.55
Q 37.75 300.8 37.9 300.9 38 301.05 38.25 301.05 38.25 300.8 38.25 300.55 38 300.55 37.75 300.55
M 67.65 303.6
Q 67.9 303.6 68.15 303.6 68.15 303.3 68 303.2 67.9 303.05 67.65 303.05 67.65 303.3 67.65 303.6
M 365.75 289.9
Q 365.75 290.15 365.75 290.4 366 290.4 366.15 290.3 366.25 290.15 366.25 289.9 366 289.9 365.75 289.9
M 325.25 292.45
Q 325.55 292.45 325.8 292.45 325.8 292.2 325.7 292.15 325.25 291.95 324.75 291.95 324.75 292.2 324.75 292.45 325 292.45 325.25 292.45 Z"/>

<path fill="#000000" fill-opacity="0.4627450980392157" stroke="none" d="
M 217.45 296
Q 217.45 296.25 217.45 296.5 217.95 296.5 218.35 296.3 218.45 296.25 218.45 296 218.2 296 217.95 296 217.7 296 217.45 296
M 276.15 291.95
Q 275.9 291.95 275.65 291.95 275.6 292.75 276.6 292.25 276.7 292.2 276.7 291.95 276.45 291.95 276.15 291.95
M 124.3 304.1
Q 124.05 304.1 123.8 304.1 123.55 304.1 123.3 304.1 123.25 304.9 124.2 304.4 124.3 304.35 124.3 304.1
M 41.3 300.55
Q 41.3 300.8 41.45 300.9 41.55 301.05 41.8 301.05 41.8 300.8 41.7 300.65 41.55 300.55 41.3 300.55 Z"/>

<path fill="#000000" fill-opacity="0.41568627450980394" stroke="none" d="
M 214.95 294.45
Q 214.95 294.7 214.95 294.95 215.2 294.95 215.3 294.85 215.45 294.7 215.45 294.45 215.2 294.45 214.95 294.45
M 254.4 293.95
Q 254.65 293.95 254.8 293.85 254.9 293.7 254.9 293.45 254.65 293.45 254.4 293.45 254.4 293.7 254.4 293.95
M 140 303.05
Q 140 302.8 139.9 302.7 139.75 302.55 139.5 302.55 139.5 302.8 139.65 302.95 139.75 303.05 140 303.05
M 145.05 301.05
Q 145.35 301.05 145.6 301.05 145.6 300.8 145.45 300.65 145.35 300.55 145.05 300.55 145.05 300.8 145.05 301.05
M 45.75 301.45
Q 45.85 301.3 45.85 301.05 45.6 301.05 45.35 301.05 45.35 301.3 45.35 301.55 45.6 301.55 45.75 301.45
M 67.65 302.55
Q 67.65 302.3 67.5 302.2 67.35 302.05 67.1 302.05 67.1 302.3 67.25 302.45 67.35 302.55 67.65 302.55
M 393.5 290.7
Q 393.6 290.65 393.6 290.4 393.35 290.4 393.1 290.4 392.85 290.4 392.6 290.4 392.6 290.65 392.6 290.9 393.1 290.9 393.5 290.7
M 379.95 288.9
Q 379.95 288.65 379.8 288.5 379.7 288.4 379.45 288.4 379.45 288.65 379.45 288.9 379.7 288.9 379.95 288.9 Z"/>

<path fill="#000000" fill-opacity="0.43137254901960786" stroke="none" d="
M 205.7 295.85
Q 205.8 295.75 205.8 295.5 205.55 295.5 205.3 295.5 205.3 295.75 205.3 296 205.55 296 205.7 295.85
M 289.35 292.95
Q 289.1 292.95 288.85 292.95 288.85 293.2 288.85 293.45 289.1 293.45 289.2 293.35 289.35 293.2 289.35 292.95
M 342 291.45
Q 341.7 291.45 341.45 291.45 341.7 291.7 342 291.7
L 342 291.45
M 333.9 291.95
Q 333.6 291.95 333.35 291.95 333.3 292.75 334.3 292.25 334.4 292.2 334.4 291.95 334.15 291.95 333.9 291.95 Z"/>

<path fill="#000000" fill-opacity="0.4549019607843137" stroke="none" d="
M 200.25 295.5
Q 200 295.5 199.75 295.5 199.75 295.75 199.75 296 200 296 200.1 295.85 200.25 295.75 200.25 295.5
M 302 290.9
Q 301.75 290.9 301.5 290.9 301 290.9 300.45 290.9 300.45 291.2 300.45 291.45 301.25 291.45 301.9 291.2 302 291.2 302 290.9
M 84.85 303.05
Q 84.35 303.05 83.8 303.05 84 303.95 85.25 303.4 85.35 303.3 85.35 303.05 85.1 303.05 84.85 303.05
M 68.15 302.05
Q 68.15 302.3 68.15 302.55 68.4 302.55 68.65 302.55 68.65 302.3 68.5 302.2 68.4 302.05 68.15 302.05
M 328.2 290.8
Q 328.3 290.65 328.3 290.4 328.05 290.4 327.8 290.4 327.8 290.65 327.8 290.9 328.05 290.9 328.2 290.8 Z"/>

<path fill="#000000" fill-opacity="0.45098039215686275" stroke="none" d="
M 294.5 293.35
Q 294.65 293.45 294.9 293.45 294.9 293.2 294.8 293.05 294.65 292.95 294.4 292.95 294.4 293.2 294.5 293.35
M 111.65 303.6
Q 111.65 303.3 111.6 303.3 110.9 303.05 110.15 303.05 110.15 303.3 110.15 303.6 110.65 303.6 111.15 303.6 111.4 303.6 111.65 303.6
M 142.45 302.85
Q 142.55 302.8 142.55 302.55 142.3 302.55 142.05 302.55 141.55 302.55 141 302.55 141 302.8 141 303.05 141.8 303.05 142.45 302.85
M 351.1 291.45
Q 350.85 291.45 350.6 291.45 350.35 291.45 350.1 291.45 350 292.25 351 291.75 351.1 291.7 351.1 291.45 Z"/>

<path fill="#000000" fill-opacity="0.396078431372549" stroke="none" d="
M 284.25 292.45
Q 284 292.45 283.75 292.45 283.75 292.7 283.75 292.95 284 292.95 284.15 292.8 284.25 292.7 284.25 292.45 Z"/>

<path fill="#000000" fill-opacity="0.4588235294117647" stroke="none" d="
M 280.2 291.95
Q 280.2 291.7 280.1 291.55 279.95 291.45 279.7 291.45 279.7 291.7 279.85 291.8 279.95 291.95 280.2 291.95
M 410.7 287.7
Q 410.8 287.65 410.8 287.4 410.55 287.4 410.3 287.4 410.05 287.4 409.8 287.4 409.8 287.65 409.8 287.9 410.3 287.9 410.7 287.7 Z"/>

<path fill="#000000" fill-opacity="0.4196078431372549" stroke="none" d="
M 281.75 291.95
Q 282 291.95 282.25 291.95 282.25 291.7 282.15 291.65 281.5 291.45 280.75 291.45 280.75 291.7 280.75 291.95 281.25 291.95 281.75 291.95
M 67.1 303.6
Q 66.85 303.6 66.6 303.6 66.6 303.85 66.6 304.1 66.85 304.1 67 303.95 67.1 303.85 67.1 303.6
M 400.7 290.4
Q 400.45 290.4 400.2 290.4 400.2 290.65 400.2 290.9 400.45 290.9 400.55 290.8 400.7 290.65 400.7 290.4 Z"/>

<path fill="#000000" fill-opacity="0.42745098039215684" stroke="none" d="
M 269.6 293.7
L 269.6 293.45
Q 269.35 293.45 269.1 293.45 269.35 293.7 269.6 293.7
M 267.55 293.45
Q 267.3 293.45 267.05 293.45 267 294.3 267.95 293.75 268.05 293.7 268.05 293.45 267.8 293.45 267.55 293.45
M 103.05 303.05
Q 102.8 303.05 102.55 303.05 102.55 303.3 102.55 303.6 102.8 303.6 102.95 303.45 103.05 303.3 103.05 303.05
M 117.25 305.1
Q 117.25 304.85 117.1 304.7 117 304.6 116.75 304.6 116.75 304.85 116.75 305.1 117 305.1 117.25 305.1
M 154.7 301.8
L 154.7 301.55
Q 154.45 301.55 154.2 301.55 154.45 301.8 154.7 301.8
M 153.15 301.55
Q 152.9 301.55 152.65 301.55 151.9 301.55 151.15 301.55 151.55 302.4 153.1 301.85 153.15 301.8 153.15 301.55
M 38.25 302.55
Q 38.25 302.8 38.4 302.95 38.5 303.05 38.75 303.05 38.75 302.8 38.65 302.7 38.5 302.55 38.25 302.55
M 346.55 289.4
Q 346.55 289.65 346.55 289.9 346.8 289.9 347.05 289.9 347.05 289.65 346.9 289.55 346.8 289.4 346.55 289.4 Z"/>

<path fill="#000000" fill-opacity="0.44313725490196076" stroke="none" d="
M 270.5 292.15
Q 270.1 291.95 269.6 291.95 269.85 292.2 270.15 292.35 270.35 292.45 270.6 292.45 270.6 292.2 270.5 292.15
M 104 305.35
Q 104.05 305.35 104.05 305.1 103.8 305.1 103.55 305.1 103.05 305.1 102.55 305.1 102.55 305.35 102.55 305.6 103.3 305.6 104 305.35
M 116.2 305.1
Q 116.2 304.85 116.1 304.7 115.95 304.6 115.7 304.6 115.7 304.85 115.85 304.95 115.95 305.1 116.2 305.1
M 128.35 302.55
Q 128.6 302.55 128.85 302.55 128.85 302.3 128.75 302.25 128.35 302.05 127.85 302.05 127.85 302.3 127.85 302.55 128.1 302.55 128.35 302.55
M 156.6 301.85
Q 156.7 301.8 156.7 301.55 156.45 301.55 156.2 301.55 155.95 301.55 155.7 301.55 155.65 302.4 156.6 301.85
M 79.8 305.1
Q 79.8 304.85 79.7 304.8 79 304.6 78.25 304.6 78.2 305.45 79.3 305.15 79.5 305.1 79.8 305.1 Z"/>

<path fill="#000000" fill-opacity="0.49411764705882355" stroke="none" d="
M 271.6 292.45
Q 271.85 292.45 272 292.3 272.1 292.2 272.1 291.95 271.85 291.95 271.6 291.95 271.6 292.2 271.6 292.45
M 94.95 305.1
Q 94.95 305.35 95.1 305.5 95.2 305.6 95.45 305.6 95.45 305.35 95.35 305.2 95.2 305.1 94.95 305.1
M 132.4 302.55
Q 132.65 302.55 132.8 302.45 132.9 302.3 132.9 302.05 132.65 302.05 132.4 302.05 132.4 302.3 132.4 302.55
M 47.4 303.6
Q 47.4 303.3 47.25 303.2 47.15 303.05 46.85 303.05 46.85 303.3 47 303.45 47.15 303.6 47.4 303.6
M 70.15 304.1
Q 70.15 304.35 70.3 304.45 70.4 304.6 70.65 304.6 70.65 304.35 70.55 304.2 70.4 304.1 70.15 304.1
M 377.4 290.4
Q 377.4 290.65 377.55 290.8 377.65 290.9 377.9 290.9 377.9 290.65 377.8 290.55 377.65 290.4 377.4 290.4 Z"/>

<path fill="#000000" fill-opacity="0.4745098039215686" stroke="none" d="
M 266.55 291.95
Q 266.3 291.95 266.05 291.95 266.3 292.2 266.55 292.2
L 266.55 291.95
M 250.35 293.95
Q 250.1 293.95 249.85 293.95 249.1 293.95 248.35 293.95 248.75 294.8 250.3 294.25 250.35 294.2 250.35 293.95
M 100.55 305.6
Q 100.55 305.35 100.4 305.2 100.3 305.1 100 305.1 100 305.35 100 305.6 100.3 305.6 100.55 305.6
M 50.9 303.6
Q 51.2 303.6 51.45 303.6 51.45 303.3 51.35 303.3 50.65 303.05 49.9 303.05 49.9 303.3 49.9 303.6 50.4 303.6 50.9 303.6
M 363.1 289
Q 363 288.9 362.75 288.9 362.75 289.15 362.85 289.3 363 289.4 363.25 289.4 363.25 289.15 363.1 289
M 350.45 289.8
Q 350.6 289.65 350.6 289.4 350.35 289.4 350.1 289.4 350.1 289.65 350.1 289.9 350.35 289.9 350.45 289.8 Z"/>

<path fill="#000000" fill-opacity="0.4666666666666667" stroke="none" d="
M 118.75 302.55
Q 118.5 302.55 118.25 302.55 118.25 302.8 118.25 303.05 118.5 303.05 118.6 302.95 118.75 302.8 118.75 302.55
M 147.1 300.55
Q 147.1 300.8 147.1 301.05 147.35 301.05 147.5 300.9 147.6 300.8 147.6 300.55 147.35 300.55 147.1 300.55 Z"/>

<path fill="#000000" fill-opacity="0.4823529411764706" stroke="none" d="
M 129.75 303.95
Q 129.9 303.85 129.9 303.6 129.65 303.6 129.4 303.6 129.4 303.85 129.4 304.1 129.65 304.1 129.75 303.95
M 404.25 290.4
Q 404.5 290.65 404.75 290.65
L 404.75 290.4
Q 404.5 290.4 404.25 290.4
M 356.65 290.9
Q 356.4 290.9 356.15 290.9 356.15 291.2 356.15 291.45 356.4 291.45 356.55 291.3 356.65 291.2 356.65 290.9
M 359.55 290.8
Q 359.7 290.65 359.7 290.4 359.45 290.4 359.2 290.4 359.2 290.65 359.2 290.9 359.45 290.9 359.55 290.8 Z"/>

<path fill="#000000" fill-opacity="0.4235294117647059" stroke="none" d="
M 135.45 301.55
Q 135.45 301.8 135.45 302.05 135.7 302.05 135.85 301.95 135.95 301.8 135.95 301.55 135.7 301.55 135.45 301.55
M 40.8 303.3
L 40.8 303.05
Q 40.55 303.05 40.3 303.05 40.55 303.3 40.8 303.3
M 385 290.4
Q 385 290.65 385.15 290.8 385.25 290.9 385.5 290.9 385.5 290.65 385.4 290.55 385.25 290.4 385 290.4 Z"/>

<path fill="#000000" fill-opacity="0.5294117647058824" stroke="none" d="
M 37.75 301.55
Q 37.75 302.05 37.95 302.45 38 302.55 38.25 302.55 38.25 302.3 38.25 302.05 38.25 301.8 38.25 301.55 38 301.55 37.75 301.55 Z"/>

<path fill="#000000" fill-opacity="0.403921568627451" stroke="none" d="
M 397 288.25
Q 397.15 288.15 397.15 287.9 396.9 287.9 396.65 287.9 396.65 288.15 396.65 288.4 396.9 288.4 397 288.25 Z"/>

<path fill="#000000" fill-opacity="0.9019607843137255" stroke="none" d="
M 410.8 287.4
Q 410.8 287.65 410.7 287.7 410.3 287.9 409.8 287.9 406.25 287.9 402.75 288.1 399.8 288.3 397.15 287.9 397.15 288.15 397 288.25 396.9 288.4 396.65 288.4 396.4 288.4 396.15 288.4 388.55 288.4 380.95 288.4 380.95 288.65 380.85 288.75 380.7 288.9 380.45 288.9 380.2 288.9 379.95 288.9 379.7 288.9 379.45 288.9 379.2 288.9 378.95 288.9 370.6 288.65 363.25 289.4 363 289.4 362.85 289.3 362.75 289.15 362.75 288.9 362.2 289.15 361.7 289.2 356.15 289.4 350.6 289.4 350.6 289.65 350.45 289.8 350.35 289.9 350.1 289.9 349.8 289.9 349.55 289.9 349.3 289.9 349.2 289.8 349.05 289.65 349.05 289.4 348.8 289.4 348.55 289.4 348.55 289.65 348.45 289.8 348.3 289.9 348.05 289.9 347.8 289.9 347.55 289.9 347.3 289.9 347.05 289.9 346.8 289.9 346.55 289.9 346.3 289.9 346.05 289.9 339.6 290.05 333.35 290.4 333.1 290.4 332.85 290.4 332.6 290.4 332.35 290.4 330.35 290.4 328.3 290.4 328.3 290.65 328.2 290.8 328.05 290.9 327.8 290.9 327.55 290.9 327.3 290.9 327.05 290.9 326.9 290.8 326.8 290.65 326.8 290.4 326.55 290.4 326.3 290.4 326.3 290.65 326.15 290.8 326.05 290.9 325.8 290.9 320.95 290.9 316.15 291.15 315.9 291.2 315.75 291.15 313.2 290.6 309.6 290.6 306.5 290.6 304.5 291.45 304.25 291.45 304.15 291.3 304 291.2 304 290.9 303.75 290.9 303.5 290.9 302.75 290.9 302 290.9 302 291.2 301.9 291.2 301.25 291.45 300.45 291.45 294.4 291.45 288.3 291.25 284.7 291.1 282.25 291.95 282 291.95 281.75 291.95 281.25 291.95 280.75 291.95 280.5 291.95 280.2 291.95 279.95 291.95 279.85 291.8 279.7 291.7 279.7 291.45 279.45 291.45 279.35 291.55 278.55 292.3 276.7 291.95 276.7 292.2 276.6 292.25 275.6 292.75 275.65 291.95 275.4 291.95 275.15 291.95 273.65 291.95 272.1 291.95 272.1 292.2 272 292.3 271.85 292.45 271.6 292.45 271.35 292.45 271.1 292.45 270.85 292.45 270.6 292.45 270.35 292.45 270.15 292.35 269.85 292.2 269.6 291.95 269.35 291.95 269.1 291.95 268.35 291.95 267.55 291.95
L 267.55 292.2
Q 267.3 292.2 267.05 291.95 266.8 291.95 266.55 291.95
L 266.55 292.2
Q 266.3 292.2 266.05 291.95 265.8 291.95 265.55 291.95 262.6 292.3 259.45 292.45
L 259.45 292.7
Q 259.2 292.7 258.95 292.45 258.7 292.45 258.45 292.45 256.45 292.45 254.4 292.45
L 254.4 292.7
Q 254.15 292.7 253.9 292.45 251.35 292.45 248.85 292.65 248.6 292.7 248.35 292.7 243.5 292.95 238.7 292.95 238.7 293.2 238.6 293.35 238.45 293.45 238.2 293.45 237.95 293.45 237.7 293.45 234.4 293.45 231.1 293.45 231.1 293.7 231 293.85 230.85 293.95 230.6 293.95 230.35 293.95 230.1 293.95 229.85 293.95 229.6 293.95 229.35 293.95 229.1 293.95 228.85 293.95 228.6 293.95 225.05 293.95 221.5 293.95 221.5 294.2 221.4 294.35 221.25 294.45 221 294.45 220.75 294.45 220.5 294.45 217.95 294.45 215.45 294.45 215.45 294.7 215.3 294.85 215.2 294.95 214.95 294.95 214.65 294.95 214.4 294.95 209.7 294.8 205.8 295.5 205.8 295.75 205.7 295.85 205.55 296 205.3 296 204.8 295.75 204.25 295.7 202.25 295.5 200.25 295.5 200.25 295.75 200.1 295.85 200 296 199.75 296 199.5 296 199.25 296 194.05 296.35 188.6 296.5 188.6 296.75 188.5 296.85 188.35 297 188.1 297 187.85 297 187.6 297 185.55 297 183.55 297 183.55 297.25 183.4 297.4 183.3 297.5 183.05 297.5 182.8 297.5 182.55 297.5 177.7 297.45 173.4 298 173.4 298.25 173.3 298.4 173.15 298.5 172.9 298.5 172.65 298.5 172.4 298.5 170.4 298.5 168.35 298.5 168.35 298.75 168.25 298.9 168.1 299 167.85 299 167.6 299 167.35 299 165.55 299 163.8 299 163.8 299.3 163.7 299.35 163.3 299.55 162.8 299.55 162.55 299.55 162.3 299.55 159 300.05 155.2 300.05 155.2 300.3 155.1 300.3 153.6 300.9 153.15 300.05 152.9 300.05 152.65 300.05 150.15 300.3 147.6 300.55 147.6 300.8 147.5 300.9 147.35 301.05 147.1 301.05 146.85 301.05 146.6 301.05 146.1 301.05 145.6 301.05 145.35 301.05 145.05 301.05 144.8 301.05 144.55 301.05 143.55 301.05 142.55 301.05 142.55 301.3 142.4 301.45 142.3 301.55 142.05 301.55 141.8 301.55 141.55 301.5 139.35 300.95 135.95 301.55 135.95 301.8 135.85 301.95 135.7 302.05 135.45 302.05 135.2 302.05 134.95 302.05 133.95 302.05 132.9 302.05 132.9 302.3 132.8 302.45 132.65 302.55 132.4 302.55 132.15 302.55 132 302.45 131.4 302.1 130.4 302.05 130.4 302.3 130.25 302.45 130.15 302.55 129.9 302.55 129.65 302.55 129.4 302.55 129.15 302.55 128.85 302.55 128.6 302.55 128.35 302.55 128.1 302.55 127.85 302.55 127.6 302.55 127.35 302.55 126.6 302.55 125.85 302.55
L 125.85 302.8
Q 125.6 302.8 125.35 302.55 125.1 302.55 124.85 302.55 122.3 302.55 119.75 302.55
L 119.75 302.8
Q 119.5 302.8 119.25 302.55 119 302.55 118.75 302.55 118.75 302.8 118.6 302.95 118.5 303.05 118.25 303.05 118 303.05 117.75 303.05 114.2 302.8 111.65 303.6 111.4 303.6 111.15 303.6 110.65 303.6 110.15 303.6 109.9 303.6 109.65 303.6 109.15 303.6 108.65 303.6 108.35 303.6 108.1 303.6 107.85 303.6 107.6 303.6 106.6 303.6 105.6 303.6 105.35 303.6 105.15 303.5 104.85 303.3 104.6 303.05 104.3 303.05 104.05 303.05 103.55 303.05 103.05 303.05 103.05 303.3 102.95 303.45 102.8 303.6 102.55 303.6 98.75 303.6 95 303.3 91.65 303.1 88.4 303.6 88.15 303.6 88 303.45 87.85 303.3 87.85 303.05 87.6 303.05 87.35 303.05 86.35 303.05 85.35 303.05 85.35 303.3 85.25 303.4 84 303.95 83.8 303.05 83.55 303.05 83.3 303.05
L 83.3 303.3
Q 83.05 303.3 82.8 303.05 82.55 303.05 82.3 303.05
L 82.3 303.3
Q 82.05 303.3 81.8 303.05 81.55 303.05 81.3 303.05 79.5 303.05 77.75 303.05 77.5 303.05 77.25 303.05 76.75 303.05 76.25 303.05 76 303.05 75.75 303.05 75.45 303.05 75.35 302.95 75.2 302.8 75.2 302.55 74.95 302.55 74.7 302.55 71.7 302.55 68.65 302.55 68.4 302.55 68.15 302.55 67.9 302.55 67.65 302.55 67.35 302.55 67.25 302.45 67.1 302.3 67.1 302.05 66.85 302.05 66.6 302.05 55.8 302 45.85 301.05 45.85 301.3 45.75 301.45 45.6 301.55 45.35 301.55 45.1 301.55 44.95 301.45 43.95 300.65 41.8 301.05 41.55 301.05 41.45 300.9 41.3 300.8 41.3 300.55 41.05 300.55 40.8 300.55 40.55 300.55 40.4 300.4 40.3 300.3 40.3 300.05 40.05 300.05 39.8 300.05 38.8 300.05 38.25 300.55 38.25 300.8 38.25 301.05 38.25 301.3 38.25 301.55 38.25 301.8 38.25 302.05 38.25 302.3 38.25 302.55 38.5 302.55 38.65 302.7 38.75 302.8 38.75 303.05 39.3 303.05 39.8 303.05 40.05 303.05 40.3 303.05 40.55 303.05 40.8 303.05 41.05 303.05 41.3 303.05 41.55 303.05 41.7 303.2 41.8 303.3 41.8 303.6 44.65 303.9 46.4 303.15 46.6 303.05 46.85 303.05 47.15 303.05 47.25 303.2 47.4 303.3 47.4 303.6 48.4 303.6 49.4 303.6 49.65 303.6 49.9 303.6 49.9 303.3 49.9 303.05 50.65 303.05 51.35 303.3 51.45 303.3 51.45 303.6 55.45 303.4 58.5 304.05 58.75 304.1 59 304.1 59 303.85 59 303.6 59.25 303.6 59.55 303.6 62.25 304.4 66.1 304.1 66.35 304.1 66.6 304.1 66.6 303.85 66.6 303.6 66.85 303.6 67.1 303.6 67.35 303.6 67.65 303.6 67.65 303.3 67.65 303.05 67.9 303.05 68 303.2 68.15 303.3 68.15 303.6 68.65 304.05 69.65 304.1 69.9 304.1 70.15 304.1 70.4 304.1 70.55 304.2 70.65 304.35 70.65 304.6 74.2 304.6 77.75 304.6 78 304.6 78.25 304.6 79 304.6 79.7 304.8 79.8 304.85 79.8 305.1 81.95 304.7 83 305.3 83.55 305.6 84.3 305.5 85.5 305.3 88.4 305.5 90.65 305.6 92.95 305.6 92.95 305.35 92.95 305.1 93.2 305.1 93.45 305.1 93.95 305.1 94.45 305.1 94.7 305.1 94.95 305.1 95.2 305.1 95.35 305.2 95.45 305.35 95.45 305.6 97.5 305.6 99.5 305.6 99.75 305.6 100 305.6 100 305.35 100 305.1 100.3 305.1 100.4 305.2 100.55 305.35 100.55 305.6 101.3 305.6 102.05 305.6 102.3 305.6 102.55 305.6 102.55 305.35 102.55 305.1 103.05 305.1 103.55 305.1 103.8 305.1 104.05 305.1 106.35 305.1 108.65 305.1 108.9 305.1 109.15 305.1 109.4 305.1 109.65 305.1 113 305.45 115.25 304.65 115.45 304.6 115.7 304.6 115.95 304.6 116.1 304.7 116.2 304.85 116.2 305.1 116.45 305.1 116.75 305.1 116.75 304.85 116.75 304.6 117 304.6 117.1 304.7 117.25 304.85 117.25 305.1 119.5 304.1 122.8 304.1 123.05 304.1 123.3 304.1 123.55 304.1 123.8 304.1 124.05 304.1 124.3 304.1 126.6 304.1 128.85 304.1 129.15 304.1 129.4 304.1 129.4 303.85 129.4 303.6 129.65 303.6 129.9 303.6 131.5 303.2 132.05 303.95 132.15 304.1 132.4 304.1 132.4 303.85 132.4 303.6 132.65 303.6 132.9 303.6 135.1 303.15 136 303.25 136.45 303.3 136.85 302.95 137.65 302.2 139.5 302.55 139.75 302.55 139.9 302.7 140 302.8 140 303.05 140.25 303.05 140.5 303.05 140.75 303.05 141 303.05 141 302.8 141 302.55 141.55 302.55 142.05 302.55 142.3 302.55 142.55 302.55 145.8 303 147.2 301.7 147.35 301.55 147.6 301.55 147.85 301.55 148.1 301.55 148.35 301.55 148.6 301.55 149.65 301.55 150.65 301.55 150.9 301.55 151.15 301.55 151.9 301.55 152.65 301.55 152.9 301.55 153.15 301.55 153.4 301.55 153.7 301.55 153.95 301.55 154.2 301.55 154.45 301.55 154.7 301.55 154.95 301.55 155.2 301.55 155.45 301.55 155.7 301.55 155.95 301.55 156.2 301.55 156.45 301.55 156.7 301.55 164.3 300.55 172.4 300.05 172.65 300.05 172.9 300.05 172.9 299.8 172.9 299.55 173.15 299.55 173.4 299.55 173.65 299.55 173.9 299.55 174.2 299.55 174.45 299.55 174.7 299.55 174.95 299.55 175.2 299.55 175.45 299.55 175.45 299.3 175.45 299 175.7 299 175.95 299 180.25 299.5 185.05 298.55 185.3 298.5 185.55 298.5 185.55 298.25 185.55 298 185.8 298 185.95 298.15 186.05 298.25 186.05 298.5 187.85 298.5 189.15 298.1 189.35 298 189.6 298 189.85 298 190.1 298 190.4 298 190.65 298 195.95 298.3 200.25 297.55 204.55 296.75 209.85 297 209.85 296.75 209.85 296.5 210.1 296.5 210.25 296.6 210.35 296.75 210.35 297 213.25 296.3 216.95 296.5 217.2 296.5 217.45 296.5 217.45 296.25 217.45 296 217.7 296 217.95 296 218.2 296 218.45 296 220.75 296 223 296 223.3 296 223.55 296 223.55 295.75 223.55 295.5 223.8 295.5 224.05 295.5 226.05 295.5 228.1 295.5 228.35 295.5 228.6 295.5 228.6 295.25 228.6 294.95 229.1 294.95 229.5 295.15 229.6 295.25 229.6 295.5 230.35 295.5 231.1 295.5 231.4 295.5 231.65 295.5 231.65 295.25 231.65 294.95 231.9 294.95 232.15 294.95 235.95 294.95 239.7 294.75 240 294.7 240.15 294.4 240.4 293.85 241.8 294.1 245.55 294.75 248.35 293.95 249.1 293.95 249.85 293.95 250.1 293.95 250.35 293.95 252.3 293 253.95 293.85 254.15 293.95 254.4 293.95 254.4 293.7 254.4 293.45 254.65 293.45 254.9 293.45 258.15 294.25 262.5 294 262.75 293.95 263 293.95 263 293.7 263 293.45 263.25 293.45 263.5 293.45 263.75 293.45 264 293.45 264 293.2 264 292.95 264.55 292.95 264.95 293.15 265.05 293.2 265.05 293.45 265.8 293.45 266.55 293.45 266.8 293.45 267.05 293.45 267.3 293.45 267.55 293.45 267.8 293.45 268.05 293.45 268.35 293.45 268.6 293.45 268.85 293.45 269.1 293.45 269.35 293.45 269.6 293.45 270.95 292.6 272.7 293.35 272.9 293.45 273.15 293.45 273.4 293.45 273.65 293.45 273.9 293.45 274.15 293.45 279 293.5 283.25 292.95 283.5 292.95 283.75 292.95 283.75 292.7 283.75 292.45 284 292.45 284.25 292.45 284.8 292.9 285.8 292.95 286.05 292.95 286.3 292.95 286.8 292.95 287.2 293.15 287.3 293.2 287.3 293.45 287.8 293.45 288.3 293.45 288.55 293.45 288.85 293.45 288.85 293.2 288.85 292.95 289.1 292.95 289.35 292.95 291.6 292.95 293.9 292.95 294.15 292.95 294.4 292.95 294.65 292.95 294.8 293.05 294.9 293.2 294.9 293.45 295.4 293.45 295.9 293.45 296.15 293.45 296.4 293.45 296.4 293.2 296.4 292.95 296.65 292.95 296.95 292.95 301.25 292.95 305.55 292.95 305.8 292.95 306.05 292.95 306.05 292.7 306.05 292.45 306.3 292.45 306.55 292.45 306.8 292.45 307.05 292.45 307.3 292.45 307.55 292.45 307.8 292.45 307.95 292.55 308.05 292.7 308.05 292.95 309.2 292.55 310.6 292.6 312.6 292.7 314.65 292.85 316.75 293 318.2 292.45 318.45 292.45 318.55 292.55 318.7 292.7 318.7 292.95 320.15 292.35 322.25 292.45 322.5 292.45 322.75 292.45 322.75 292.2 322.75 291.95 323 291.95 323.25 291.95 323.75 292.2 324.3 292.35 324.5 292.45 324.75 292.45 324.75 292.2 324.75 291.95 325.25 291.95 325.7 292.15 325.8 292.2 325.8 292.45 327.8 292.45 329.85 292.45 330.1 292.45 330.35 292.45 330.35 292.2 330.35 291.95 330.6 291.95 330.85 291.95 331.1 291.95 331.35 291.95 332.1 291.95 332.85 291.95 333.1 291.95 333.35 291.95 333.6 291.95 333.9 291.95 334.15 291.95 334.4 291.95 336.5 291.2 338.05 291.6 338.45 291.7 338.95 291.7 339.2 291.7 339.45 291.7 339.95 291.7 340.5 291.55 340.95 291.45 341.45 291.45 341.7 291.45 342 291.45 343.75 292.25 345.55 291.5 345.75 291.45 346.05 291.45 346.3 291.45 346.55 291.45 348.05 291.45 349.55 291.45 349.8 291.45 350.1 291.45 350.35 291.45 350.6 291.45 350.85 291.45 351.1 291.45 352.85 291.45 354.2 291.15 354.75 291.05 356.15 291.45 356.15 291.2 356.15 290.9 356.4 290.9 356.65 290.9 357.65 290.9 358.7 290.9 358.95 290.9 359.2 290.9 359.2 290.65 359.2 290.4 359.45 290.4 359.7 290.4 362.7 291.15 365.3 290.45 365.5 290.4 365.75 290.4 365.75 290.15 365.75 289.9 366 289.9 366.25 289.9 366.55 289.9 366.8 289.9 367.05 289.9 367.3 289.9 368.4 290.3 369.8 290.4 370.05 290.4 370.3 290.4 370.3 290.15 370.3 289.9 370.6 289.9 370.85 289.9 372.15 291.5 373.2 290.15 373.35 289.9 373.75 290.15 375.25 291 376 290.7 376.65 290.4 377.4 290.4 377.65 290.4 377.8 290.55 377.9 290.65 377.9 290.9 378.15 290.9 378.4 290.9 378.4 290.65 378.4 290.4 378.65 290.4 378.8 290.55 378.95 290.65 378.95 290.9 381.05 291.3 382.1 290.6 383.5 289.75 385 290.4 385.25 290.4 385.4 290.55 385.5 290.65 385.5 290.9 386.5 290.2 388.55 290.4 388.8 290.4 389.05 290.4 389.05 290.15 389.05 289.9 389.3 289.9 389.55 289.9 391.05 290.2 392.15 290.8 392.35 290.9 392.6 290.9 392.6 290.65 392.6 290.4 392.85 290.4 393.1 290.4 393.35 290.4 393.6 290.4 396.4 290.4 399.15 290.65 399.7 290.65 400.2 290.9 400.2 290.65 400.2 290.4 400.45 290.4 400.7 290.4 402.2 290.4 403.75 290.4 404 290.4 404.25 290.4 404.5 290.4 404.75 290.4 405.5 290.4 406.25 290.4 406.5 290.4 406.75 290.4 406.75 290.15 406.75 289.9 407 289.9 407.15 290.05 407.25 290.15 407.25 290.4 409.8 290.4 412.3 290.2 412.6 290.15 412.8 289.9 413.95 288.5 412.9 287.35 412 286.3 410.8 287.4 Z"/>
</g>
</defs>

<mask id="Mask_Mask_1">
<g transform="matrix( 1, 0, 0, 1, 0,0) ">
<use xlink:href="#Mask_7_MASK_0_FILL"/>
</g>
</mask>

<g mask="url(#Mask_Mask_1)">
<g transform="matrix( 1, 0, 0, 1, 0,0) ">
<use xlink:href="#Layer7_0_FILL"/>
</g>
</g>

<g transform="matrix( 1, 0, 0, 1, 0,0) ">
<use xlink:href="#Layer5_0_FILL"/>
</g>

<g transform="matrix( 1, 0, 0, 1, 0,0) ">
<use xlink:href="#Layer3_0_FILL"/>
</g>

<g transform="matrix( 1, 0, 0, 1, 0,0) ">
<use xlink:href="#Layer1_0_FILL"/>
</g>
</svg>
