
<svg xmlns="http://www.w3.org/2000/svg" version="1.1" xmlns:xlink="http://www.w3.org/1999/xlink" preserveAspectRatio="none" x="0px" y="0px" width="500px" height="500px" viewBox="0 0 500 500">
<defs>
<g id="Mask_7_MASK_0_FILL">
<path fill="#FFFFFF" stroke="none" d="
M 451.2 182.4
L 330.95 119.3 198.6 266.7 318.85 329.8 451.2 182.4 Z"/>
</g>

<g id="Layer7_0_FILL">
<path fill="#000000" fill-opacity="0.40784313725490196" stroke="none" d="
M 271.85 204.9
Q 271.6 204.9 271.35 204.9 271.35 205.15 271.35 205.4 271.6 205.4 271.75 205.25 271.85 205.15 271.85 204.9
M 272.85 202.4
Q 272.6 202.4 272.35 202.4 272.35 202.65 272.35 202.9 272.6 202.9 272.75 202.8 272.85 202.65 272.85 202.4
M 294.7 205.9
Q 294.7 205.65 294.55 205.5 294.45 205.4 294.2 205.4 294.2 205.65 294.3 205.75 294.45 205.9 294.7 205.9
M 346.25 244.1
Q 346.25 243.85 346.15 243.7 346.05 243.6 345.8 243.6 345.8 243.85 345.9 243.95 346.05 244.1 346.25 244.1
M 325.3 234.8
Q 325.2 234.65 324.95 234.65 324.95 234.9 325.05 235.05 325.2 235.15 325.45 235.15 325.45 234.9 325.3 234.8 Z"/>

<path fill="#000000" fill-opacity="0.4196078431372549" stroke="none" d="
M 272.85 204.4
Q 272.6 204.4 272.35 204.4 272.35 204.65 272.35 204.9 272.6 204.9 272.75 204.8 272.85 204.65 272.85 204.4
M 318.5 223.25
Q 318.5 223.5 318.6 223.65 318.75 223.75 319 223.75 319 223.5 318.85 223.4 318.75 223.25 318.5 223.25
M 319.5 228.2
Q 319.5 227.95 319.35 227.85 319.25 227.7 319 227.7 319 227.95 319.1 228.1 319.25 228.2 319.5 228.2
M 329.4 236.15
Q 329.4 235.9 329.3 235.8 329.15 235.65 328.9 235.65 328.9 235.9 329.05 236.05 329.15 236.15 329.4 236.15 Z"/>

<path fill="#000000" fill-opacity="0.5372549019607843" stroke="none" d="
M 264.55 206.75
Q 264.65 206.9 264.9 206.9 264.9 206.65 264.8 206.5 264.65 206.4 264.45 206.4 264.45 206.65 264.55 206.75 Z"/>

<path fill="#000000" fill-opacity="0.4980392156862745" stroke="none" d="
M 264.45 206.4
Q 264.45 206.15 264.3 206 264.2 205.9 263.95 205.9 263.95 206.15 264.05 206.25 264.2 206.4 264.45 206.4
M 274.85 202.4
Q 275.1 202.4 275.2 202.3 275.35 202.15 275.35 201.9 275.1 201.9 274.85 201.9 274.85 202.15 274.85 202.4
M 318.5 226.75
Q 318.5 226.5 318.35 226.35 318.25 226.25 318 226.25 318 226.5 318.1 226.6 318.25 226.75 318.5 226.75
M 332.9 241.1
Q 332.9 240.85 332.75 240.75 332.65 240.6 332.4 240.6 332.4 240.85 332.5 241 332.65 241.1 332.9 241.1 Z"/>

<path fill="#000000" fill-opacity="0.4588235294117647" stroke="none" d="
M 266.9 206.9
Q 267.15 207.15 267.4 207.15
L 267.4 206.9
Q 267.15 206.9 266.9 206.9
M 315.9 219.4
Q 315.75 219.3 315.5 219.3 315.5 219.55 315.65 219.65 315.75 219.8 316 219.8 316 219.55 315.9 219.4
M 344.8 243.6
Q 344.8 243.35 344.65 243.2 344.55 243.1 344.3 243.1 344.3 243.35 344.4 243.45 344.55 243.6 344.8 243.6
M 337.85 243.6
Q 337.85 243.85 337.95 243.95 338.1 244.1 338.35 244.1 338.35 243.85 338.2 243.7 338.1 243.6 337.85 243.6 Z"/>

<path fill="#000000" fill-opacity="0.5607843137254902" stroke="none" d="
M 265.4 202.4
Q 265.4 202.65 265.55 202.8 265.65 202.9 265.9 202.9 265.9 202.65 265.8 202.55 265.65 202.4 265.4 202.4
M 320.6 230.05
Q 320.75 230.2 320.95 230.2 320.95 229.95 320.85 229.85 320.75 229.7 320.5 229.7 320.5 229.95 320.6 230.05
M 343.3 245.6
Q 343.3 245.35 343.15 245.2 343.05 245.1 342.8 245.1 342.8 245.35 342.9 245.45 343.05 245.6 343.3 245.6
M 340.7 244.2
Q 340.55 244.1 340.3 244.1 340.3 244.35 340.3 244.6 340.55 244.6 340.8 244.6 340.8 244.35 340.7 244.2
M 335.5 242.5
Q 335.6 242.6 335.85 242.6 335.85 242.35 335.75 242.25 335.6 242.1 335.35 242.1 335.35 242.35 335.5 242.5 Z"/>

<path fill="#000000" fill-opacity="0.4745098039215686" stroke="none" d="
M 263.45 203.4
Q 263.7 203.4 263.8 203.3 263.95 203.15 263.95 202.9 263.7 202.9 263.45 202.9 263.45 203.15 263.45 203.4
M 317.5 221.75
Q 317.5 221.5 317.4 221.4 317.25 221.25 317 221.25 317 221.5 317.15 221.65 317.25 221.75 317.5 221.75
M 334.85 239.6
Q 334.85 239.35 334.75 239.35 334.35 239.15 333.85 239.15 334.1 239.35 334.4 239.5 334.6 239.6 334.85 239.6 Z"/>

<path fill="#000000" fill-opacity="0.5137254901960784" stroke="none" d="
M 270.85 203.4
Q 271.1 203.4 271.25 203.3 271.35 203.15 271.35 202.9 271.1 202.9 270.85 202.9 270.85 203.15 270.85 203.4
M 316.4 223.85
Q 316.25 223.75 316 223.75 316 224 316.15 224.1 316.25 224.25 316.5 224.25 316.5 224 316.4 223.85
M 301.65 208.35
Q 301.65 208.1 301.5 208 301.4 207.9 301.15 207.9 301.15 208.1 301.25 208.25 301.4 208.35 301.65 208.35
M 366.6 249.05
Q 366.35 249.05 366.1 249.05 366.1 249.3 366.1 249.55 366.35 249.55 366.5 249.4 366.6 249.3 366.6 249.05
M 325.45 235.15
Q 325.45 235.4 325.55 235.55 325.7 235.65 325.95 235.65 325.95 235.4 325.8 235.3 325.7 235.15 325.45 235.15 Z"/>

<path fill="#000000" fill-opacity="0.5215686274509804" stroke="none" d="
M 269.9 203.65
L 269.9 203.4
Q 269.65 203.4 269.4 203.4 269.65 203.65 269.9 203.65
M 378.5 245.1
Q 378.25 245.1 378 245.1 378 245.35 378.15 245.45 378.25 245.6 378.5 245.6 378.5 245.35 378.5 245.1 Z"/>

<path fill="#000000" fill-opacity="0.5686274509803921" stroke="none" d="
M 277.8 201.9
Q 277.55 201.9 277.3 201.9 277.55 202.15 277.8 202.15
L 277.8 201.9 Z"/>

<path fill="#000000" fill-opacity="0.5176470588235295" stroke="none" d="
M 276.85 203.4
Q 276.85 203.15 276.7 203.05 276.6 202.9 276.35 202.9 276.35 203.15 276.35 203.4 276.6 203.4 276.85 203.4 Z"/>

<path fill="#000000" fill-opacity="0.5098039215686274" stroke="none" d="
M 282.7 204.1
Q 282.3 203.9 281.8 203.9 282.05 204.15 282.35 204.3 282.55 204.4 282.8 204.4 282.8 204.15 282.7 204.1 Z"/>

<path fill="#000000" fill-opacity="0.4392156862745098" stroke="none" d="
M 281.8 201.9
Q 281.8 201.7 281.65 201.55 281.55 201.45 281.3 201.45 281.3 201.7 281.3 201.9 281.55 201.9 281.8 201.9
M 369.1 244.6
Q 369.1 244.85 369.1 245.1 369.35 245.1 369.45 244.95 369.6 244.85 369.6 244.6 369.35 244.6 369.1 244.6 Z"/>

<path fill="#000000" fill-opacity="0.5490196078431373" stroke="none" d="
M 280.8 202.15
L 280.8 201.9
Q 280.55 201.9 280.3 201.9 280.55 202.15 280.8 202.15 Z"/>

<path fill="#000000" fill-opacity="0.5647058823529412" stroke="none" d="
M 320.5 229.7
Q 320.5 229.45 320.35 229.35 320.25 229.2 320 229.2 320 229.45 320.1 229.6 320.25 229.7 320.5 229.7
M 359.05 245.7
Q 358.9 245.6 358.65 245.6 358.65 245.8 358.8 245.95 358.9 246.05 359.15 246.05 359.15 245.8 359.05 245.7 Z"/>

<path fill="#000000" fill-opacity="0.5450980392156862" stroke="none" d="
M 321.35 230.3
Q 321.2 230.2 320.95 230.2 320.95 230.45 321.1 230.55 321.2 230.7 321.45 230.7 321.45 230.45 321.35 230.3
M 288.25 206.4
Q 288.25 206.15 288.1 206 288 205.9 287.75 205.9 287.75 206.15 287.85 206.25 288 206.4 288.25 206.4
M 288.25 203.9
Q 288.25 203.65 288.1 203.55 288 203.4 287.75 203.4 287.75 203.65 287.85 203.8 288 203.9 288.25 203.9
M 306.6 213.85
Q 306.6 213.6 306.45 213.45 306.35 213.35 306.1 213.35 306.1 213.6 306.2 213.7 306.35 213.85 306.6 213.85 Z"/>

<path fill="#000000" fill-opacity="0.4666666666666667" stroke="none" d="
M 323.45 229.7
Q 323.45 229.95 323.6 230.05 323.7 230.2 323.95 230.2 323.95 229.95 323.85 229.85 323.7 229.7 323.45 229.7
M 300.65 207.9
Q 300.65 207.65 300.5 207.5 300.4 207.4 300.15 207.4 300.15 207.65 300.25 207.75 300.4 207.9 300.65 207.9
M 305.7 210.75
Q 305.85 210.85 306.1 210.85 306.1 210.6 305.95 210.5 305.85 210.35 305.6 210.35 305.6 210.6 305.7 210.75 Z"/>

<path fill="#000000" fill-opacity="0.403921568627451" stroke="none" d="
M 315.65 223.65
Q 315.75 223.75 316 223.75 316 223.5 315.9 223.4 315.75 223.25 315.5 223.25 315.5 223.5 315.65 223.65 Z"/>

<path fill="#000000" fill-opacity="0.49411764705882355" stroke="none" d="
M 319.85 228.85
Q 319.75 228.7 319.5 228.7 319.5 228.95 319.6 229.1 319.75 229.2 320 229.2 320 228.95 319.85 228.85
M 314.4 220.9
Q 314.3 220.75 314.05 220.75 314.05 221 314.15 221.15 314.3 221.25 314.55 221.25 314.55 221 314.4 220.9 Z"/>

<path fill="#000000" fill-opacity="0.43529411764705883" stroke="none" d="
M 319.35 223.85
Q 319.25 223.75 319 223.75 319 224 319.1 224.1 319.25 224.25 319.5 224.25 319.5 224 319.35 223.85 Z"/>

<path fill="#000000" fill-opacity="0.5568627450980392" stroke="none" d="
M 301.15 210.85
Q 301.15 210.6 301 210.5 300.9 210.35 300.65 210.35 300.65 210.6 300.75 210.75 300.9 210.85 301.15 210.85
M 356.3 248.45
Q 356.45 248.55 356.7 248.55 356.7 248.3 356.55 248.2 356.45 248.05 356.2 248.05 356.2 248.3 356.3 248.45
M 336.35 242.6
Q 336.1 242.6 335.85 242.6 336.1 242.85 336.35 242.85
L 336.35 242.6
M 331.25 239.75
Q 331.15 239.6 330.9 239.6 330.9 239.85 331 240 331.15 240.1 331.4 240.1 331.4 239.85 331.25 239.75 Z"/>

<path fill="#000000" fill-opacity="0.396078431372549" stroke="none" d="
M 290.35 206.75
Q 290.45 206.9 290.7 206.9 290.7 206.65 290.6 206.5 290.45 206.4 290.2 206.4 290.2 206.65 290.35 206.75
M 296.65 206.4
Q 296.65 206.65 296.8 206.75 296.9 206.9 297.15 206.9 297.15 206.65 297.05 206.5 296.9 206.4 296.65 206.4
M 329.4 239.15
Q 329.4 239.35 329.55 239.5 329.65 239.6 329.9 239.6 329.9 239.35 329.8 239.25 329.65 239.15 329.4 239.15 Z"/>

<path fill="#000000" fill-opacity="0.4823529411764706" stroke="none" d="
M 291.7 206.9
Q 291.7 207.15 291.85 207.25 291.95 207.4 292.2 207.4 292.2 207.15 292.1 207 291.95 206.9 291.7 206.9
M 289.25 203.9
Q 289 203.9 288.75 203.9 288.65 204.7 289.6 204.2 289.7 204.15 289.7 203.9 289.5 203.9 289.25 203.9
M 371.55 248.05
Q 371.8 248.05 372.05 248.05 372.3 248.05 372.55 248.05 372.55 247.8 372.45 247.75 372.05 247.55 371.55 247.55 371.55 247.8 371.55 248.05 Z"/>

<path fill="#000000" fill-opacity="0.4117647058823529" stroke="none" d="
M 285.25 202.9
Q 285.25 202.65 285.15 202.55 285 202.4 284.75 202.4 284.75 202.65 284.9 202.8 285 202.9 285.25 202.9 Z"/>

<path fill="#000000" fill-opacity="0.47843137254901963" stroke="none" d="
M 298.8 207.25
Q 298.9 207.4 299.15 207.4 299.15 207.15 299 207 298.9 206.9 298.65 206.9 298.65 207.15 298.8 207.25
M 309.2 213.2
Q 309.3 213.35 309.55 213.35 309.55 213.1 309.45 212.95 309.3 212.85 309.05 212.85 309.05 213.1 309.2 213.2
M 347.65 246.7
Q 347.5 246.55 347.25 246.55 347.25 246.8 347.4 246.95 347.5 247.05 347.75 247.05 347.75 246.8 347.65 246.7 Z"/>

<path fill="#000000" fill-opacity="0.47058823529411764" stroke="none" d="
M 299.15 209.85
Q 299.15 209.6 299 209.5 298.9 209.35 298.65 209.35 298.65 209.6 298.8 209.75 298.9 209.85 299.15 209.85
M 313.05 219.8
Q 313.05 219.55 312.9 219.4 312.8 219.3 312.55 219.3 312.55 219.55 312.65 219.65 312.8 219.8 313.05 219.8 Z"/>

<path fill="#000000" fill-opacity="0.45098039215686275" stroke="none" d="
M 297.15 208.85
Q 297.15 208.6 297.05 208.5 296.9 208.35 296.65 208.35 296.65 208.6 296.8 208.75 296.9 208.85 297.15 208.85
M 378.5 243.6
Q 378.5 243.35 378.4 243.2 378.25 243.1 378 243.1 378 243.35 378.15 243.45 378.25 243.6 378.5 243.6 Z"/>

<path fill="#000000" fill-opacity="0.4470588235294118" stroke="none" d="
M 296.15 208.35
Q 296.15 208.1 296.05 208.05 295.7 207.9 295.2 207.9 295.45 208.1 295.75 208.25 295.9 208.35 296.15 208.35
M 330.9 237.15
Q 330.9 236.9 330.75 236.75 330.65 236.65 330.4 236.65 330.4 236.9 330.5 237 330.65 237.15 330.9 237.15 Z"/>

<path fill="#000000" fill-opacity="0.4235294117647059" stroke="none" d="
M 315 222.25
Q 315 222 314.9 221.9 314.75 221.75 314.55 221.75 314.55 222 314.65 222.15 314.75 222.25 315 222.25 Z"/>

<path fill="#000000" fill-opacity="0.48627450980392156" stroke="none" d="
M 307.6 211.85
Q 307.6 212.1 307.7 212.2 307.85 212.35 308.1 212.35 308.1 212.1 307.95 211.95 307.85 211.85 307.6 211.85 Z"/>

<path fill="#000000" fill-opacity="0.4549019607843137" stroke="none" d="
M 309.05 215.3
Q 309.05 215.55 309.2 215.7 309.3 215.8 309.55 215.8 309.55 215.55 309.45 215.45 309.3 215.3 309.05 215.3
M 361.6 245.85
Q 361.65 245.8 361.65 245.6 361.4 245.6 361.15 245.6 360.4 245.6 359.65 245.6 359.65 245.8 359.65 246.05 360.65 246.05 361.6 245.85
M 353.2 245.6
Q 353.2 245.35 353.1 245.2 352.95 245.1 352.7 245.1 352.7 245.35 352.85 245.45 352.95 245.6 353.2 245.6 Z"/>

<path fill="#000000" fill-opacity="0.5019607843137255" stroke="none" d="
M 365.1 249.55
Q 365.35 249.55 365.6 249.55 365.6 249.3 365.5 249.25 365.1 249.05 364.65 249.05 364.65 249.3 364.65 249.55 364.85 249.55 365.1 249.55
M 341.2 244.7
Q 341.05 244.6 340.8 244.6 340.8 244.85 340.95 244.95 341.05 245.1 341.3 245.1 341.3 244.85 341.2 244.7 Z"/>

<path fill="#000000" fill-opacity="0.5333333333333333" stroke="none" d="
M 351.25 248.05
Q 351.5 248.05 351.75 248.05 351.75 247.8 351.6 247.7 351.5 247.55 351.25 247.55 351.25 247.8 351.25 248.05 Z"/>

<path fill="#000000" fill-opacity="0.5058823529411764" stroke="none" d="
M 348.25 244.85
L 348.25 244.6
Q 348 244.6 347.75 244.6 348 244.85 348.25 244.85
M 372.05 244.1
Q 371.8 244.1 371.55 244.1 371.55 244.35 371.55 244.6 371.8 244.6 371.95 244.45 372.05 244.35 372.05 244.1 Z"/>

<path fill="#000000" fill-opacity="0.5529411764705883" stroke="none" d="
M 337.35 240.6
Q 337.35 240.85 337.45 241 337.6 241.1 337.85 241.1 337.85 240.85 337.7 240.75 337.6 240.6 337.35 240.6 Z"/>

<path fill="#000000" fill-opacity="0.44313725490196076" stroke="none" d="
M 328.4 235.15
Q 328.4 235.4 328.55 235.55 328.65 235.65 328.9 235.65 328.9 235.4 328.8 235.3 328.65 235.15 328.4 235.15 Z"/>

<path fill="#000000" fill-opacity="0.4" stroke="none" d="
M 329.4 239.15
Q 329.4 238.9 329.3 238.75 329.15 238.65 328.9 238.65 328.9 238.9 329.05 239 329.15 239.15 329.4 239.15 Z"/>

<path fill="#000000" fill-opacity="0.41568627450980394" stroke="none" d="
M 324.45 234.15
Q 324.45 233.9 324.3 233.8 324.2 233.65 323.95 233.65 323.95 233.9 324.1 234.05 324.2 234.15 324.45 234.15 Z"/>

<path fill="#000000" fill-opacity="0.9529411764705882" stroke="none" d="
M 365 245.95
Q 364.85 246.05 364.65 246.05 364.4 246.05 364.2 245.95 363.3 245.4 361.65 245.6 361.65 245.8 361.6 245.85 360.65 246.05 359.65 246.05 359.4 246.05 359.15 246.05 358.9 246.05 358.8 245.95 358.65 245.8 358.65 245.6 358.45 245.6 358.2 245.6 355.7 245.6 353.2 245.6 352.95 245.6 352.85 245.45 352.7 245.35 352.7 245.1 352.45 245.1 352.25 245.05 350.25 244.85 348.25 244.6
L 348.25 244.85
Q 348 244.85 347.75 244.6 347.5 244.6 347.5 244.55 347.3 243.8 346.25 244.1 346.05 244.1 345.9 243.95 345.8 243.85 345.8 243.6 345.55 243.6 345.3 243.6 345.05 243.6 344.8 243.6 344.55 243.6 344.4 243.45 344.3 243.35 344.3 243.1 344.05 243.1 343.8 243.05 340.45 242.5 337.85 241.1 337.6 241.1 337.45 241 337.35 240.85 337.35 240.6 337.1 240.6 336.9 240.55 335.85 240.1 334.85 239.6 334.6 239.6 334.4 239.5 334.1 239.35 333.85 239.15 333.6 239.15 333.5 239 332.4 237.85 330.9 237.15 330.65 237.15 330.5 237 330.4 236.9 330.4 236.65 330.15 236.65 329.95 236.55 329.65 236.4 329.4 236.15 329.15 236.15 329.05 236.05 328.9 235.9 328.9 235.65 328.65 235.65 328.55 235.55 328.4 235.4 328.4 235.15 328.15 235.15 328.05 235.05 325.65 232.95 323.95 230.2 323.7 230.2 323.6 230.05 323.45 229.95 323.45 229.7 323.45 229.45 323.35 229.35 321.05 227.15 319.5 224.25 319.25 224.25 319.1 224.1 319 224 319 223.75 318.75 223.75 318.6 223.65 318.5 223.5 318.5 223.25 318.5 223 318.4 222.95 317.65 222.6 317.5 221.75 317.25 221.75 317.15 221.65 317 221.5 317 221.25 317 221 316.9 221 316.15 220.6 316 219.8 315.75 219.8 315.65 219.65 315.5 219.55 315.5 219.3 315.5 219.05 315.4 218.9 312.55 216.05 309.55 213.35 309.3 213.35 309.2 213.2 309.05 213.1 309.05 212.85 308.8 212.85 308.6 212.75 308.35 212.6 308.1 212.35 307.85 212.35 307.7 212.2 307.6 212.1 307.6 211.85 307.35 211.85 307.3 211.75 306.95 211 306.1 210.85 305.85 210.85 305.7 210.75 305.6 210.6 305.6 210.35 305.35 210.35 305.2 210.25 303.85 208.9 301.65 208.35 301.4 208.35 301.25 208.25 301.15 208.1 301.15 207.9 300.9 207.9 300.65 207.9 300.4 207.9 300.25 207.75 300.15 207.65 300.15 207.4 299.9 207.4 299.65 207.4 299.4 207.4 299.15 207.4 298.9 207.4 298.8 207.25 298.65 207.15 298.65 206.9 298.4 206.9 298.15 206.9 297.65 206.9 297.15 206.9 296.9 206.9 296.8 206.75 296.65 206.65 296.65 206.4 296.4 206.4 296.25 206.3 295.65 205.9 294.7 205.9 294.45 205.9 294.3 205.75 294.2 205.65 294.2 205.4 293.95 205.4 293.7 205.3 291.7 204.65 289.7 203.9 289.7 204.15 289.6 204.2 288.65 204.7 288.75 203.9 288.5 203.9 288.25 203.9 288 203.9 287.85 203.8 287.75 203.65 287.75 203.4 287.5 203.4 287.25 203.35 286.25 203.15 285.25 202.9 285 202.9 284.9 202.8 284.75 202.65 284.75 202.4 284.5 202.4 284.25 202.4 282.85 202.3 281.8 201.9 281.55 201.9 281.3 201.9 281.05 201.9 280.8 201.9
L 280.8 202.15
Q 280.55 202.15 280.3 201.9 280.05 201.9 279.8 201.9 278.8 201.9 277.8 201.9
L 277.8 202.15
Q 277.55 202.15 277.3 201.9 277.05 201.9 276.85 201.9 276.1 201.95 275.35 201.9 275.35 202.15 275.2 202.3 275.1 202.4 274.85 202.4 274.6 202.4 274.35 202.4 273.6 202.4 272.85 202.4 272.85 202.65 272.75 202.8 272.6 202.9 272.35 202.9 272.1 202.9 271.85 202.9 271.6 202.9 271.35 202.9 271.35 203.15 271.25 203.3 271.1 203.4 270.85 203.4 270.65 203.4 270.4 203.4 270.15 203.4 269.9 203.4
L 269.9 203.65
Q 269.65 203.65 269.4 203.4 269.15 203.4 268.9 203.4 267.4 203.15 265.9 202.9 265.65 202.9 265.55 202.8 265.4 202.65 265.4 202.4 265.15 202.4 264.95 202.5 264.45 202.65 263.95 202.9 263.95 203.15 263.8 203.3 263.7 203.4 263.45 203.4 263.45 204.65 263.65 205.85 263.7 205.9 263.95 205.9 264.2 205.9 264.3 206 264.45 206.15 264.45 206.4 264.65 206.4 264.8 206.5 264.9 206.65 264.9 206.9 265.65 206.9 266.4 206.9 266.65 206.9 266.9 206.9 267.15 206.9 267.4 206.9 269.05 206.05 270.9 205.45 271.1 205.4 271.35 205.4 271.35 205.15 271.35 204.9 271.6 204.9 271.85 204.9 272.1 204.9 272.35 204.9 272.35 204.65 272.35 204.4 272.6 204.4 272.85 204.4 274.5 204.1 275.85 203.5 276.1 203.4 276.35 203.4 276.35 203.15 276.35 202.9 276.6 202.9 276.7 203.05 276.85 203.15 276.85 203.4 279.15 203.55 281.3 203.85 281.55 203.9 281.8 203.9 282.3 203.9 282.7 204.1 282.8 204.15 282.8 204.4 285.15 205 287.25 205.8 287.5 205.9 287.75 205.9 288 205.9 288.1 206 288.25 206.15 288.25 206.4 289 206.4 289.7 206.4 289.95 206.4 290.2 206.4 290.45 206.4 290.6 206.5 290.7 206.65 290.7 206.9 290.95 206.9 291.2 206.9 291.45 206.9 291.7 206.9 291.95 206.9 292.1 207 292.2 207.15 292.2 207.4 293 208.05 294.7 207.9 294.95 207.9 295.2 207.9 295.7 207.9 296.05 208.05 296.15 208.1 296.15 208.35 296.4 208.35 296.65 208.35 296.9 208.35 297.05 208.5 297.15 208.6 297.15 208.85 297.65 209.1 298.2 209.3 298.4 209.35 298.65 209.35 298.9 209.35 299 209.5 299.15 209.6 299.15 209.85 299.9 209.85 300.55 210.1 300.65 210.1 300.65 210.35 300.9 210.35 301 210.5 301.15 210.6 301.15 210.85 303.9 211.55 305.7 213.2 305.85 213.35 306.1 213.35 306.35 213.35 306.45 213.45 306.6 213.6 306.6 213.85 308.05 214.1 308.95 214.95 309.05 215.05 309.05 215.3 309.3 215.3 309.45 215.45 309.55 215.55 309.55 215.8 310.95 217.4 312.4 218.9 312.55 219.05 312.55 219.3 312.8 219.3 312.9 219.4 313.05 219.55 313.05 219.8 313.55 220.05 313.9 220.4 314.05 220.55 314.05 220.75 314.3 220.75 314.4 220.9 314.55 221 314.55 221.25 314.55 221.5 314.55 221.75 314.75 221.75 314.9 221.9 315 222 315 222.25 315.25 222.5 315.4 222.8 315.5 223 315.5 223.25 315.75 223.25 315.9 223.4 316 223.5 316 223.75 316.25 223.75 316.4 223.85 316.5 224 316.5 224.25 316.9 225.3 317.9 225.9 318 226 318 226.25 318.25 226.25 318.35 226.35 318.5 226.5 318.5 226.75 318.75 226.95 318.9 227.25 319 227.45 319 227.7 319.25 227.7 319.35 227.85 319.5 227.95 319.5 228.2 319.5 228.45 319.5 228.7 319.75 228.7 319.85 228.85 320 228.95 320 229.2 320.25 229.2 320.35 229.35 320.5 229.45 320.5 229.7 320.75 229.7 320.85 229.85 320.95 229.95 320.95 230.2 321.2 230.2 321.35 230.3 321.45 230.45 321.45 230.7 322.65 232 323.65 233.55 323.7 233.65 323.95 233.65 324.2 233.65 324.3 233.8 324.45 233.9 324.45 234.15 324.45 234.4 324.55 234.55 324.7 234.65 324.95 234.65 325.2 234.65 325.3 234.8 325.45 234.9 325.45 235.15 325.7 235.15 325.8 235.3 325.95 235.4 325.95 235.65 327.35 237 328.55 238.5 328.65 238.65 328.9 238.65 329.15 238.65 329.3 238.75 329.4 238.9 329.4 239.15 329.65 239.15 329.8 239.25 329.9 239.35 329.9 239.6 330.15 239.6 330.4 239.6 330.65 239.6 330.9 239.6 331.15 239.6 331.25 239.75 331.4 239.85 331.4 240.1 331.65 240.35 331.95 240.5 332.15 240.6 332.4 240.6 332.65 240.6 332.75 240.75 332.9 240.85 332.9 241.1 333.1 242.35 334.85 242.15 335.1 242.1 335.35 242.1 335.6 242.1 335.75 242.25 335.85 242.35 335.85 242.6 336.1 242.6 336.35 242.6 337.2 242.75 337.55 243.5 337.6 243.6 337.85 243.6 338.1 243.6 338.2 243.7 338.35 243.85 338.35 244.1 339.3 244.1 339.9 244.45 340.05 244.6 340.3 244.6 340.3 244.35 340.3 244.1 340.55 244.1 340.7 244.2 340.8 244.35 340.8 244.6 341.05 244.6 341.2 244.7 341.3 244.85 341.3 245.1 341.8 245.1 342.3 245.1 342.55 245.1 342.8 245.1 343.05 245.1 343.15 245.2 343.3 245.35 343.3 245.6 345.65 245.45 346.85 246.45 347 246.55 347.25 246.55 347.5 246.55 347.65 246.7 347.75 246.8 347.75 247.05 349.75 247.05 350.85 247.95 351 248.05 351.25 248.05 351.25 247.8 351.25 247.55 351.5 247.55 351.6 247.7 351.75 247.8 351.75 248.05 353.7 248.05 355.7 248.05 355.95 248.05 356.2 248.05 356.45 248.05 356.55 248.2 356.7 248.3 356.7 248.55 365.9271484375 248.5005859375 357.85 249.95 359.2404296875 250.2203125 360.6 250.45 362.2509765625 249.8712890625 364.15 249.6 364.4 249.55 364.65 249.55 364.65 249.3 364.65 249.05 365.1 249.05 365.5 249.25 365.6 249.3 365.6 249.55 365.85 249.55 366.1 249.55 366.1 249.3 366.1 249.05 366.35 249.05 366.6 249.05 369 248.7 371.1 248.1 371.3 248.05 371.55 248.05 371.55 247.8 371.55 247.55 372.05 247.55 372.45 247.75 372.55 247.8 372.55 248.05 375.5 247 378.45 245.85 378.5 245.8 378.5 245.6 378.25 245.6 378.15 245.45 378 245.35 378 245.1 378.25 245.1 378.5 245.1 378.5 244.85 378.5 244.6 378.5 244.1 378.5 243.6 378.25 243.6 378.15 243.45 378 243.35 378 243.1 377.75 243.1 377.55 243.15 374.8 243.6 372.05 244.1 372.05 244.35 371.95 244.45 371.8 244.6 371.55 244.6 371.3 244.6 371.1 244.6 370.35 244.6 369.6 244.6 369.6 244.85 369.45 244.95 369.35 245.1 369.1 245.1 368.85 245.1 368.6 245.15 367.2 245.65 365.1 245.6 365.1 245.8 365 245.95
M 363.15 248.55
Q 364.25 248.8 363.15 248.8
L 363.15 248.55 Z"/>

<path fill="#000000" fill-opacity="0.3254901960784314" stroke="none" d="
M 363.15 248.8
Q 364.25 248.8 363.15 248.55
L 363.15 248.8 Z"/>

<path fill="#000000" fill-opacity="0.42745098039215684" stroke="none" d="
M 364.65 245.6
Q 364.65 245.8 364.65 246.05 364.85 246.05 365 245.95 365.1 245.8 365.1 245.6 364.85 245.6 364.65 245.6 Z"/>
</g>

<g id="Layer5_0_FILL">
<path fill="#000000" fill-opacity="0.6705882352941176" stroke="none" d="
M 238.65 271.35
L 238.65 271.6
Q 244 272.15 238.65 271.35 Z"/>

<path fill="#000000" fill-opacity="0.5803921568627451" stroke="none" d="
M 295.2 263.95
L 295.2 264.2
Q 302.5 263.35 295.2 263.95
M 294.2 264.9
Q 294.2 265.15 294.25 265.2 296.95 265.9 294.2 264.9
M 163.75 277.3
Q 164 277.3 164.2 277.3 164.45 277.3 164.7 277.3 164.7 277.05 164.6 277 164.2 276.85 163.75 276.85 163.75 277.05 163.75 277.3 Z"/>

<path fill="#000000" fill-opacity="0.7098039215686275" stroke="none" d="
M 300.65 263.45
Q 300.9 263.45 301.1 263.35 302.3 262.95 300.65 262.95 300.65 263.2 300.65 263.45 Z"/>

<path fill="#000000" fill-opacity="0.4823529411764706" stroke="none" d="
M 300.65 262.95
Q 300.4 262.95 300.15 262.95 299.9 262.95 299.65 262.95 299.9 263.2 300.2 263.35 300.4 263.45 300.65 263.45 300.65 263.2 300.65 262.95
M 220.15 275.2
Q 220.3 275.1 220.3 274.85 220.05 274.85 219.8 274.85 219.8 275.1 219.8 275.35 220.05 275.35 220.15 275.2 Z"/>

<path fill="#000000" fill-opacity="0.611764705882353" stroke="none" d="
M 302.1 262.45
L 302.1 262.7
Q 304.8 262.7 302.1 262.45 Z"/>

<path fill="#000000" fill-opacity="0.8980392156862745" stroke="none" d="
M 292.7 264.45
Q 292.95 264.65 293.25 264.8 293.45 264.9 293.7 264.9
L 293.95 264.9
Q 294 264.1 292.7 264.45 Z"/>

<path fill="#000000" fill-opacity="0.5450980392156862" stroke="none" d="
M 292.7 264.45
Q 292.45 264.45 292.2 264.45 291.95 264.45 291.7 264.45 291.65 265.95 293.6 265.2 293.7 265.15 293.7 264.9 293.45 264.9 293.25 264.8 292.95 264.65 292.7 264.45
M 257 268.9
Q 257 269.15 257 269.4 257.75 269.4 258.4 269.6 258.45 269.65 258.45 269.9 266.45 270.9 260.45 268.65
L 260.45 268.9
Q 260.7 268.9 260.8 269 261.5 269.95 259.95 268.9 259.7 268.9 259.45 268.9 258.25 268.9 257 268.9
M 214.25 274.1
Q 214.3 274.1 214.3 273.85 214.1 273.85 213.85 273.85 213.35 273.85 212.85 273.85 212.85 274.1 212.85 274.35 213.6 274.35 214.25 274.1
M 184.55 277.3
Q 184.3 277.3 184.05 277.3 184 278.15 184.95 277.6 185.05 277.55 185.05 277.3 184.8 277.3 184.55 277.3
M 189.5 276.85
Q 189.5 276.6 189.45 276.55 188.8 276.35 188.05 276.35 188.05 276.6 188.05 276.85 188.55 276.85 189.05 276.85 189.25 276.85 189.5 276.85
M 157.4 275.7
Q 157.55 275.85 157.75 275.85 157.75 275.6 157.65 275.45 157.55 275.35 157.3 275.35 157.3 275.6 157.4 275.7 Z"/>

<path fill="#000000" fill-opacity="0.5333333333333333" stroke="none" d="
M 313.05 259.95
Q 313.05 260.2 313.1 260.2 315.6 260.75 313.05 259.95
M 274.35 268.4
Q 274.35 268.65 274.35 268.9 274.6 268.9 274.7 268.75 274.85 268.65 274.85 268.4 274.6 268.4 274.35 268.4
M 147.35 275.85
Q 147.35 275.6 147.25 275.55 146.85 275.35 146.35 275.35 146.35 275.6 146.35 275.85 146.6 275.85 146.85 275.85 147.1 275.85 147.35 275.85
M 123.05 269.9
Q 123.3 270.15 123.6 270.3 123.8 270.4 124.05 270.4 124.05 270.15 123.95 270.1 123.55 269.9 123.05 269.9 Z"/>

<path fill="#000000" fill-opacity="0.5607843137254902" stroke="none" d="
M 311.55 260.45
L 311.55 260.7
Q 313.45 260.7 311.55 260.45
M 180.1 277.3
Q 180.1 277.55 180.2 277.7 180.35 277.8 180.6 277.8 180.6 277.55 180.45 277.45 180.35 277.3 180.1 277.3
M 146.85 273.6
L 146.85 273.35
Q 146.6 273.35 146.35 273.35 146.6 273.6 146.85 273.6
M 103.1 260.6
Q 102.95 260.45 102.7 260.45 102.7 260.7 102.85 260.85 102.95 260.95 103.2 260.95 103.2 260.7 103.1 260.6 Z"/>

<path fill="#000000" fill-opacity="0.7019607843137254" stroke="none" d="
M 306.6 261.45
L 306.6 261.7
Q 313.45 261 306.6 261.45 Z"/>

<path fill="#000000" fill-opacity="0.4627450980392157" stroke="none" d="
M 304.1 261.95
L 304.1 262.2
Q 306 262.2 304.1 261.95
M 228.1 272.75
Q 228.2 272.6 228.2 272.35 227.95 272.35 227.7 272.35 227.7 272.6 227.7 272.85 227.95 272.85 228.1 272.75 Z"/>

<path fill="#000000" fill-opacity="0.9921568627450981" stroke="none" d="
M 260.8 269
Q 260.7 268.9 260.45 268.9 260.2 268.9 259.95 268.9 261.5 269.95 260.8 269 Z"/>

<path fill="#000000" fill-opacity="0.5176470588235295" stroke="none" d="
M 254 271.15
Q 254 271.1 254 270.85 254 270.65 253.9 270.6 253.5 270.4 253 270.4 253.15 271.2 254 271.15
M 233.55 273.25
Q 233.65 273.1 233.65 272.85 233.4 272.85 233.15 272.85 233.15 273.1 233.15 273.35 233.4 273.35 233.55 273.25
M 201.45 276.35
Q 201.45 276.6 201.45 276.85 201.7 276.85 201.8 276.7 201.9 276.6 201.9 276.35 201.7 276.35 201.45 276.35
M 161.25 276.85
Q 161 276.85 160.75 276.85 160.75 277.05 160.75 277.3 161 277.3 161.1 277.2 161.25 277.05 161.25 276.85
M 159.25 276.85
Q 159.25 276.6 159.15 276.45 159 276.35 158.75 276.35 158.75 276.6 158.9 276.7 159 276.85 159.25 276.85
M 107.3 262.8
Q 107.45 262.95 107.65 262.95 107.65 262.7 107.55 262.55 107.45 262.45 107.2 262.45 107.2 262.7 107.3 262.8 Z"/>

<path fill="#000000" fill-opacity="0.47058823529411764" stroke="none" d="
M 255 269.4
Q 254.75 269.4 254.5 269.4 254.25 269.4 254 269.4 254 269.65 254 269.9 254.5 269.9 254.9 269.7 255 269.65 255 269.4
M 171.3 277.2
Q 171.4 277.3 171.65 277.3 171.65 277.05 171.55 276.95 171.4 276.85 171.15 276.85 171.15 277.05 171.3 277.2 Z"/>

<path fill="#000000" fill-opacity="0.4980392156862745" stroke="none" d="
M 255.5 269.9
Q 255.5 270.15 255.5 270.4 256.25 270.4 256.9 270.15 257 270.15 257 269.9 256.75 269.9 256.5 269.9 256 269.9 255.5 269.9
M 122.55 272.35
Q 122.3 272.35 122.05 272.35 121.8 272.35 121.55 272.35 121.5 273.2 122.45 272.65 122.55 272.6 122.55 272.35
M 103.35 261.8
Q 103.45 261.95 103.7 261.95 103.7 261.7 103.6 261.55 103.45 261.45 103.2 261.45 103.2 261.7 103.35 261.8 Z"/>

<path fill="#000000" fill-opacity="0.5019607843137255" stroke="none" d="
M 249.05 271.1
L 249.05 270.85
Q 248.8 270.85 248.55 270.85 248.8 271.1 249.05 271.1
M 128 273.85
Q 128 273.6 127.9 273.5 127.75 273.35 127.5 273.35 127.5 273.6 127.65 273.75 127.75 273.85 128 273.85
M 106.7 265.4
Q 106.7 265.65 106.8 265.8 106.95 265.9 107.2 265.9 107.2 265.65 107.05 265.55 106.95 265.4 106.7 265.4 Z"/>

<path fill="#000000" fill-opacity="0.5529411764705883" stroke="none" d="
M 249.95 270.2
Q 250.05 270.15 250.05 269.9 249.8 269.9 249.55 269.9 249.3 269.9 249.05 269.9 249.05 270.15 249.05 270.4 249.55 270.4 249.95 270.2
M 216.2 275.7
Q 216.3 275.6 216.3 275.35 216.05 275.35 215.8 275.35 215.8 275.6 215.8 275.85 216.05 275.85 216.2 275.7
M 320 259.45
Q 319.75 259.45 319.5 259.45 319.5 259.7 319.5 259.95 319.75 259.95 319.85 259.85 320 259.7 320 259.45 Z"/>

<path fill="#000000" fill-opacity="0.5647058823529412" stroke="none" d="
M 245.6 270.65
L 245.6 270.4
Q 245.35 270.4 245.1 270.4 245.35 270.65 245.6 270.65
M 244.1 271.45
Q 243.05 271.7 243.1 270.85 242.85 270.85 242.65 270.95 242.35 271.1 242.1 271.35 242.75 272.25 244.5 271.65 244.6 271.6 244.6 271.35 244.35 271.35 244.1 271.45
M 116.1 270.4
Q 116.1 270.65 116.25 270.75 116.35 270.85 116.6 270.85 116.6 270.65 116.5 270.5 116.35 270.4 116.1 270.4
M 105.55 261.1
Q 105.45 260.95 105.2 260.95 105.2 261.2 105.3 261.3 105.45 261.45 105.7 261.45 105.7 261.2 105.55 261.1 Z"/>

<path fill="#000000" fill-opacity="0.4588235294117647" stroke="none" d="
M 247.95 271.25
Q 248.05 271.1 248.05 270.85 247.8 270.85 247.55 270.85 247.55 271.1 247.55 271.35 247.8 271.35 247.95 271.25
M 193.5 275.85
Q 194 275.85 194.4 275.65 194.5 275.6 194.5 275.35 194.25 275.35 194 275.35 193.75 275.35 193.5 275.35 193.5 275.6 193.5 275.85
M 355.2 250.55
Q 354.95 250.55 354.7 250.55 354.7 250.8 354.7 251.05 354.95 251.05 355.1 250.9 355.2 250.8 355.2 250.55 Z"/>

<path fill="#000000" fill-opacity="0.4" stroke="none" d="
M 244.45 270.75
Q 244.6 270.65 244.6 270.4 244.35 270.4 244.1 270.4 244.1 270.65 244.1 270.85 244.35 270.85 244.45 270.75
M 113.5 266.05
Q 113.4 265.9 113.15 265.9 113.15 266.15 113.25 266.3 113.4 266.4 113.65 266.4 113.65 266.15 113.5 266.05
M 351.85 251.9
Q 352 252 352.25 252 352.25 251.8 352.25 251.55 352 251.55 351.75 251.55 351.75 251.8 351.85 251.9 Z"/>

<path fill="#000000" fill-opacity="0.8235294117647058" stroke="none" d="
M 245.1 270.4
Q 244.85 270.4 244.6 270.4 244.6 270.65 244.45 270.75 244.35 270.85 244.1 270.85 243.85 270.85 243.6 270.85 243.35 270.85 243.1 270.85 243.05 271.7 244.1 271.45 244.35 271.35 244.6 271.35 245.85 271.4 247.05 271.35 247.3 271.35 247.55 271.35 247.55 271.1 247.55 270.85 247.8 270.85 248.05 270.85 248.3 270.85 248.55 270.85 248.8 270.85 249.05 270.85 251.1 270.95 252.55 270.45 252.75 270.4 253 270.4 253.5 270.4 253.9 270.6 254 270.65 254 270.85 254.5 270.6 255 270.45 255.25 270.4 255.5 270.4 255.5 270.15 255.5 269.9 256 269.9 256.5 269.9 256.75 269.9 257 269.9 257.5 269.9 258 269.9 258.2 269.9 258.45 269.9 258.45 269.65 258.4 269.6 257.75 269.4 257 269.4 256.75 269.4 256.5 269.4 255.75 269.4 255 269.4 255 269.65 254.9 269.7 254.5 269.9 254 269.9 253.75 269.9 253.5 269.9 251.75 269.9 250.05 269.9 250.05 270.15 249.95 270.2 249.55 270.4 249.05 270.4 248.8 270.4 248.55 270.4 247.05 270.4 245.6 270.4
L 245.6 270.65
Q 245.35 270.65 245.1 270.4 Z"/>

<path fill="#000000" fill-opacity="0.45098039215686275" stroke="none" d="
M 287.6 265.3
Q 287.75 265.15 287.75 264.9 287.5 264.9 287.25 264.9 287.25 265.15 287.25 265.4 287.5 265.4 287.6 265.3 Z"/>

<path fill="#000000" fill-opacity="0.4666666666666667" stroke="none" d="
M 288.75 265.4
Q 288.75 265.65 288.75 265.9 289 265.9 289.1 265.8 289.25 265.65 289.25 265.4 289 265.4 288.75 265.4
M 221.25 274.35
Q 221.75 274.35 222.15 274.15 222.25 274.1 222.25 273.85 222 273.85 221.75 273.85 221.5 273.85 221.25 273.85 221.25 274.1 221.25 274.35
M 142.9 273.35
Q 142.9 273.1 142.8 273.1 142.15 272.85 141.4 272.85 141.35 273.65 142.4 273.4 142.65 273.35 142.9 273.35
M 108.65 263.45
Q 108.65 263.7 108.8 263.8 108.9 263.95 109.15 263.95 109.15 263.7 109.05 263.55 108.9 263.45 108.65 263.45 Z"/>

<path fill="#000000" fill-opacity="0.49411764705882355" stroke="none" d="
M 279.3 267.9
Q 279.55 267.9 279.7 267.75 279.8 267.65 279.8 267.4 279.55 267.4 279.3 267.4 279.3 267.65 279.3 267.9
M 235.65 271.85
Q 236.15 271.85 236.55 271.65 236.65 271.6 236.65 271.35 236.4 271.35 236.15 271.35 235.9 271.35 235.65 271.35 235.65 271.6 235.65 271.85
M 163.65 275.05
Q 163 274.85 162.25 274.85 162.2 275.65 163.25 275.4 163.5 275.35 163.75 275.35 163.75 275.1 163.65 275.05 Z"/>

<path fill="#000000" fill-opacity="0.4470588235294118" stroke="none" d="
M 279.8 266.9
Q 279.8 266.65 279.8 266.4 279.55 266.4 279.3 266.4 279.3 266.65 279.3 266.9 279.55 266.9 279.8 266.9
M 188.55 275.85
Q 188.55 275.6 188.45 275.55 187.8 275.35 187.05 275.35 187.05 275.6 187.05 275.85 187.55 275.85 188.05 275.85 188.3 275.85 188.55 275.85
M 325.95 258.95
Q 325.7 258.95 325.45 258.95 325.45 259.2 325.45 259.45 325.7 259.45 325.8 259.35 325.95 259.2 325.95 258.95 Z"/>

<path fill="#000000" fill-opacity="0.7058823529411765" stroke="none" d="
M 281.3 267.9
Q 281.3 267.65 281.3 267.4 281.55 267.4 281.8 267.4 284.9 266.55 288.25 265.95 288.5 265.9 288.75 265.9 288.75 265.65 288.75 265.4 289 265.4 289.25 265.4 289.5 265.4 289.7 265.35 291.4 264.8 287.75 264.9 287.75 265.15 287.6 265.3 287.5 265.4 287.25 265.4 287 265.4 286.75 265.5 283.65 266.3 279.8 266.4 279.8 266.65 279.8 266.9 279.8 267.15 279.8 267.4 280.9 266.35 281.05 267.85 281.05 267.9 281.3 267.9 Z"/>

<path fill="#000000" fill-opacity="0.4117647058823529" stroke="none" d="
M 281.3 267.9
Q 281.55 267.9 281.65 267.75 281.8 267.65 281.8 267.4 281.55 267.4 281.3 267.4 281.3 267.65 281.3 267.9 Z"/>

<path fill="#000000" fill-opacity="0.4745098039215686" stroke="none" d="
M 275.35 267.4
Q 275.6 267.4 275.7 267.3 275.85 267.15 275.85 266.9 275.6 266.9 275.35 266.9 275.35 267.15 275.35 267.4 Z"/>

<path fill="#000000" fill-opacity="0.4392156862745098" stroke="none" d="
M 276.2 268.25
Q 276.35 268.15 276.35 267.9 276.1 267.9 275.85 267.9 275.85 268.15 275.85 268.4 276.1 268.4 276.2 268.25
M 223.25 272.85
Q 223 272.85 222.75 272.85 222.75 273.1 222.75 273.35 223 273.35 223.15 273.25 223.25 273.1 223.25 272.85 Z"/>

<path fill="#000000" fill-opacity="0.43137254901960786" stroke="none" d="
M 273.35 268.9
Q 273.35 269.15 273.35 269.4 273.6 269.4 273.75 269.25 273.85 269.15 273.85 268.9 273.6 268.9 273.35 268.9
M 355.7 251.05
Q 355.7 251.3 355.7 251.55 356.7 251.5 357.65 251.3 357.7 251.3 357.7 251.05 357.45 251.05 357.2 251.05 356.45 251.05 355.7 251.05 Z"/>

<path fill="#000000" fill-opacity="0.44313725490196076" stroke="none" d="
M 271.85 267.9
Q 272.1 267.9 272.35 267.9 272.35 267.65 272.25 267.55 272.1 267.4 271.85 267.4 271.85 267.65 271.85 267.9
M 227.2 272.85
Q 227.2 272.6 227.1 272.55 226.75 272.35 226.25 272.35 226.25 272.6 226.25 272.85 226.5 272.85 226.75 272.85 226.95 272.85 227.2 272.85
M 216.7 275.2
Q 216.8 275.1 216.8 274.85 216.55 274.85 216.3 274.85 216.3 275.1 216.3 275.35 216.55 275.35 216.7 275.2
M 158.15 274.45
Q 158 274.35 157.75 274.35 157.75 274.6 157.9 274.7 158 274.85 158.25 274.85 158.25 274.6 158.15 274.45
M 104.35 263.8
Q 104.45 263.95 104.7 263.95 104.7 263.7 104.55 263.55 104.45 263.45 104.2 263.45 104.2 263.7 104.35 263.8 Z"/>

<path fill="#000000" fill-opacity="0.803921568627451" stroke="none" d="
M 271.85 267.9
Q 271.6 267.9 271.35 267.9 270.65 267.9 269.9 267.9 270.15 268.15 270.3 268.45 270.4 268.65 270.4 268.9 270.65 268.9 270.85 268.9 272.45 267.55 273.1 269.3 273.1 269.4 273.35 269.4 273.35 269.15 273.35 268.9 273.6 268.9 273.85 268.9 274.1 268.9 274.35 268.9 274.35 268.65 274.35 268.4 274.6 268.4 274.85 268.4 275.1 268.4 275.35 268.4 275.6 268.4 275.85 268.4 275.85 268.15 275.85 267.9 276.1 267.9 276.35 267.9 277.6 267.9 278.8 267.9 279.05 267.9 279.3 267.9 279.3 267.65 279.3 267.4 279.55 267.4 279.8 267.4 279.8 267.15 279.8 266.9 279.55 266.9 279.3 266.9 279.05 266.9 278.8 266.9 277.35 266.9 275.85 266.9 275.85 267.15 275.7 267.3 275.6 267.4 275.35 267.4 275.1 267.4 274.85 267.4 274.1 267.4 273.35 267.4 273.35 267.65 273.25 267.75 273.1 267.9 272.85 267.9 272.6 267.9 272.35 267.9 272.1 267.9 271.85 267.9 Z"/>

<path fill="#000000" fill-opacity="0.48627450980392156" stroke="none" d="
M 270.85 269.15
L 270.85 268.9
Q 270.65 268.9 270.4 268.9 270.65 269.15 270.85 269.15
M 174.65 277.3
Q 174.65 277.55 174.65 277.8 174.9 277.8 175.15 277.8 175.15 277.55 175 277.45 174.9 277.3 174.65 277.3
M 334.85 256
Q 334.6 256 334.5 255.85 334.35 255.75 334.35 255.5 334.1 255.5 333.85 255.5 333.6 255.5 333.4 255.5 333.55 256.6 334.8 256.25 334.85 256.25 334.85 256 Z"/>

<path fill="#000000" fill-opacity="0.5294117647058824" stroke="none" d="
M 273.35 267.4
Q 273.1 267.4 272.85 267.4 272.85 267.65 272.85 267.9 273.1 267.9 273.25 267.75 273.35 267.65 273.35 267.4
M 237 272.75
Q 237.15 272.6 237.15 272.35 236.9 272.35 236.65 272.35 236.65 272.6 236.65 272.85 236.9 272.85 237 272.75
M 232.7 271.85
Q 231.7 271.85 230.7 271.85 230.7 272.1 230.7 272.35 231.95 272.35 233.15 272.1
L 233.15 271.85
Q 232.95 271.85 232.7 271.85 Z"/>

<path fill="#000000" fill-opacity="0.6431372549019608" stroke="none" d="
M 266.9 268.9
Q 266.65 268.9 266.55 268.75 266.4 268.65 266.4 268.4 266.15 268.4 266.15 268.45 265.95 269.2 264.9 268.9 265.3 270.7 266.8 269.25 266.9 269.15 266.9 268.9
M 208.3 276.6
Q 208.35 276.6 208.35 276.35
L 208.1 276.35
Q 208.25 275.8 206.4 274.85 206.15 274.85 205.9 274.85 205.65 274.85 205.4 274.85 205.65 275.1 205.8 275.4 205.9 275.6 205.9 275.85 206.25 277.2 208.3 276.6 Z"/>

<path fill="#000000" fill-opacity="0.6745098039215687" stroke="none" d="
M 266.4 267.9
Q 266.4 268.15 266.4 268.4 267.15 268.4 267.8 268.6 267.9 268.65 267.9 268.9 268.9 268.9 269.9 268.9 270.15 268.9 270.4 268.9 270.4 268.65 270.3 268.45 270.15 268.15 269.9 267.9 269.65 267.9 269.4 267.9 267.9 267.9 266.4 267.9 Z"/>

<path fill="#000000" fill-opacity="0.9607843137254902" stroke="none" d="
M 267.4 268.9
Q 267.65 268.9 267.9 268.9 267.9 268.65 267.8 268.6 267.15 268.4 266.4 268.4 266.4 268.65 266.55 268.75 266.65 268.9 266.9 268.9 267.15 268.9 267.4 268.9 Z"/>

<path fill="#000000" fill-opacity="0.5764705882352941" stroke="none" d="
M 225.6 273.75
Q 225.75 273.6 225.75 273.35 225.5 273.35 225.25 273.35 225.25 273.6 225.25 273.85 225.5 273.85 225.6 273.75
M 200.45 276.35
Q 200.45 276.6 200.45 276.85 200.7 276.85 200.95 276.85 200.95 276.6 200.8 276.45 200.7 276.35 200.45 276.35
M 201.45 274.85
Q 201.35 275.65 202.3 275.15 202.4 275.1 202.4 274.85 202.15 274.85 201.9 274.85 201.7 274.85 201.45 274.85
M 117.45 268
Q 117.35 267.9 117.1 267.9 117.1 268.15 117.2 268.25 117.35 268.4 117.6 268.4 117.6 268.15 117.45 268 Z"/>

<path fill="#000000" fill-opacity="0.43529411764705883" stroke="none" d="
M 236.15 272.85
Q 236.15 272.6 236.05 272.5 235.9 272.35 235.65 272.35 235.65 272.6 235.65 272.85 235.9 272.85 236.15 272.85
M 151.95 274.2
Q 152.05 274.35 152.3 274.35 152.3 274.1 152.2 273.95 152.05 273.85 151.8 273.85 151.8 274.1 151.95 274.2 Z"/>

<path fill="#000000" fill-opacity="0.4196078431372549" stroke="none" d="
M 209.85 276.6
L 209.85 276.35
Q 209.6 276.35 209.35 276.35 209.6 276.6 209.85 276.6
M 186.05 277.55
L 186.05 277.3
Q 185.8 277.3 185.55 277.3 185.8 277.55 186.05 277.55
M 200.95 274.85
Q 200.7 274.85 200.45 274.85 200.45 275.1 200.45 275.35 200.7 275.35 200.8 275.2 200.95 275.1 200.95 274.85
M 127 273.6
L 127 273.35
Q 126.75 273.35 126.5 273.35 126.75 273.6 127 273.6 Z"/>

<path fill="#000000" fill-opacity="0.42745098039215684" stroke="none" d="
M 209.35 274.35
Q 209.1 274.35 208.85 274.35 208.85 274.6 208.85 274.85 209.1 274.85 209.25 274.7 209.35 274.6 209.35 274.35 Z"/>

<path fill="#000000" fill-opacity="0.41568627450980394" stroke="none" d="
M 207.9 274.85
Q 208.1 274.85 208.35 274.85 208.35 274.6 208.3 274.55 207.65 274.35 206.9 274.35 206.9 274.6 206.9 274.85 207.4 274.85 207.9 274.85
M 167.2 275.35
Q 167.2 275.1 167.1 274.95 166.95 274.85 166.7 274.85 166.7 275.1 166.7 275.35 166.95 275.35 167.2 275.35
M 152.8 274.35
Q 153.05 274.35 153.3 274.35 153.3 274.1 153.2 273.95 153.05 273.85 152.8 273.85 152.8 274.1 152.8 274.35
M 133.35 272
Q 133.2 271.85 132.95 271.85 132.95 272.1 133.1 272.25 133.2 272.35 133.45 272.35 133.45 272.1 133.35 272
M 327.3 258.35
Q 327.4 258.2 327.4 258 327.2 258 326.95 258 326.95 258.2 326.95 258.45 327.2 258.45 327.3 258.35 Z"/>

<path fill="#000000" fill-opacity="0.5411764705882353" stroke="none" d="
M 212.75 276.1
Q 212.85 276.1 212.85 275.85 212.6 275.85 212.35 275.85 211.85 275.85 211.35 275.85 211.35 276.1 211.35 276.35 212.1 276.35 212.75 276.1
M 120.1 271.75
Q 120.3 271.85 120.55 271.85 120.55 271.6 120.45 271.55 120.1 271.35 119.6 271.35 119.85 271.6 120.1 271.75
M 316 259.45
Q 315.5 259.45 315 259.45 315.4 260.8 317.45 260.25 317.5 260.2 317.5 259.95 317.25 259.95 317.05 259.85 316.75 259.7 316.5 259.45 316.25 259.45 316 259.45 Z"/>

<path fill="#000000" fill-opacity="0.47843137254901963" stroke="none" d="
M 218.8 273.35
Q 218.55 273.35 218.3 273.35 218.05 273.35 217.8 273.35 217.8 273.6 217.8 273.85 218.3 273.85 218.7 273.65 218.8 273.6 218.8 273.35
M 144.25 275.45
Q 144.15 275.35 143.9 275.35 143.9 275.6 144 275.7 144.15 275.85 144.4 275.85 144.4 275.6 144.25 275.45
M 117.2 271.25
Q 117.35 271.35 117.6 271.35 117.6 271.1 117.45 271 117.35 270.85 117.1 270.85 117.1 271.1 117.2 271.25
M 331.75 256.85
Q 331.9 256.75 331.9 256.5 331.65 256.5 331.4 256.5 331.4 256.75 331.4 257 331.65 257 331.75 256.85
M 353.2 251.05
Q 353.2 251.3 353.2 251.55 353.45 251.55 353.6 251.4 353.7 251.3 353.7 251.05 353.45 251.05 353.2 251.05 Z"/>

<path fill="#000000" fill-opacity="0.49019607843137253" stroke="none" d="
M 217.8 274.85
Q 217.8 274.6 217.7 274.55 217.3 274.35 216.8 274.35 216.8 274.6 216.8 274.85 217.05 274.85 217.3 274.85 217.55 274.85 217.8 274.85
M 154.3 275.35
Q 154.3 275.6 154.3 275.85 154.55 275.85 154.65 275.7 154.8 275.6 154.8 275.35 154.55 275.35 154.3 275.35
M 116.1 267.9
Q 116.1 267.65 116 267.55 115.85 267.4 115.6 267.4 115.6 267.65 115.75 267.75 115.85 267.9 116.1 267.9
M 344.8 253.25
Q 345.9 253.25 344.8 253
L 344.8 253.25
M 358.65 251.05
Q 358.9 251.05 359.15 251.05 359.15 250.8 359.05 250.65 358.9 250.55 358.65 250.55 358.65 250.8 358.65 251.05 Z"/>

<path fill="#000000" fill-opacity="0.8901960784313725" stroke="none" d="
M 235.15 271.85
Q 234.15 271.85 233.15 271.85
L 233.15 272.1
Q 231.95 272.35 230.7 272.35 230.45 272.35 230.2 272.35 229.2 272.35 228.2 272.35 228.2 272.6 228.1 272.75 227.95 272.85 227.7 272.85 227.45 272.85 227.2 272.85 226.95 272.85 226.75 272.85 226.5 272.85 226.25 272.85 226 272.85 225.75 272.85 224.5 272.85 223.25 272.85 223.25 273.1 223.15 273.25 223 273.35 222.75 273.35 222.5 273.35 222.25 273.35 220.5 273.35 218.8 273.35 218.8 273.6 218.7 273.65 218.3 273.85 217.8 273.85 217.55 273.85 217.3 273.85 215.8 273.85 214.3 273.85 214.3 274.1 214.25 274.1 213.6 274.35 212.85 274.35 212.6 274.35 212.35 274.35 210.85 274.35 209.35 274.35 209.35 274.6 209.25 274.7 209.1 274.85 208.85 274.85 208.6 274.85 208.35 274.85 208.1 274.85 207.9 274.85 207.4 274.85 206.9 274.85 206.65 274.85 206.4 274.85 208.25 275.8 208.1 276.35
L 208.35 276.35
Q 208.6 276.35 208.85 276.35 209.1 276.35 209.35 276.35 209.6 276.35 209.85 276.35 210.35 276.35 210.85 276.35 211.1 276.35 211.35 276.35 211.35 276.1 211.35 275.85 211.85 275.85 212.35 275.85 212.6 275.85 212.85 275.85 214.1 275.85 215.3 275.85 215.55 275.85 215.8 275.85 215.8 275.6 215.8 275.35 216.05 275.35 216.3 275.35 216.3 275.1 216.3 274.85 216.55 274.85 216.8 274.85 216.8 274.6 216.8 274.35 217.3 274.35 217.7 274.55 217.8 274.6 217.8 274.85 218.75 274.85 219.35 275.25 219.55 275.35 219.8 275.35 219.8 275.1 219.8 274.85 220.05 274.85 220.3 274.85 220.3 274.6 220.3 274.35 220.55 274.35 220.75 274.35 221 274.35 221.25 274.35 221.25 274.1 221.25 273.85 221.5 273.85 221.75 273.85 222 273.85 222.25 273.85 223.5 273.85 224.75 273.85 225 273.85 225.25 273.85 225.25 273.6 225.25 273.35 225.5 273.35 225.75 273.35 230.6 273.25 232.7 273.35 232.95 273.35 233.15 273.35 233.15 273.1 233.15 272.85 233.4 272.85 233.65 272.85 234.4 272.85 235.15 272.85 235.4 272.85 235.65 272.85 235.65 272.6 235.65 272.35 235.9 272.35 236.05 272.5 236.15 272.6 236.15 272.85 236.4 272.85 236.65 272.85 236.65 272.6 236.65 272.35 236.9 272.35 237.15 272.35 237.4 272.35 237.45 272.25 237.95 271.05 236.65 271.35 236.65 271.6 236.55 271.65 236.15 271.85 235.65 271.85 235.4 271.85 235.15 271.85 Z"/>

<path fill="#000000" fill-opacity="0.4235294117647059" stroke="none" d="
M 185.55 275.35
Q 185.55 275.6 185.55 275.85 185.8 275.85 186.05 275.85 186.05 275.6 185.95 275.45 185.8 275.35 185.55 275.35
M 326.45 257
Q 326.45 257.25 326.45 257.5 326.95 257.5 327.3 257.3 327.4 257.25 327.4 257 327.2 257 326.95 257 326.7 257 326.45 257
M 357.1 250.35
Q 357.2 250.3 357.2 250.05 356.95 250.05 356.7 250.05 356.45 250.05 356.2 250.05 356.2 250.3 356.2 250.55 356.7 250.55 357.1 250.35 Z"/>

<path fill="#000000" fill-opacity="0.6" stroke="none" d="
M 182.6 276.85
Q 182.6 277.05 182.6 277.3 182.85 277.3 183.05 277.3 183.05 277.05 182.95 276.95 182.85 276.85 182.6 276.85
M 195.95 277.3
Q 196.2 277.3 196.45 277.3 196.45 277.05 196.35 277 195.95 276.85 195.45 276.85 195.45 277.05 195.45 277.3 195.7 277.3 195.95 277.3
M 119.1 268.4
Q 119.1 268.65 119.2 268.75 119.35 268.9 119.6 268.9 119.6 268.65 119.45 268.5 119.35 268.4 119.1 268.4
M 197.95 275.85
L 197.95 276.1
Q 199.05 276.1 197.95 275.85 Z"/>

<path fill="#000000" fill-opacity="0.6039215686274509" stroke="none" d="
M 191.5 277.3
Q 191.5 277.05 191.4 276.95 191.25 276.85 191 276.85 191 277.05 191 277.3 191.25 277.3 191.5 277.3 Z"/>

<path fill="#000000" fill-opacity="0.5215686274509804" stroke="none" d="
M 191.4 275.65
Q 191.5 275.6 191.5 275.35 191.25 275.35 191 275.35 190.75 275.35 190.5 275.35 190.5 275.6 190.5 275.85 191 275.85 191.4 275.65
M 175.15 275.9
Q 175.4 275.85 175.65 275.85 175.65 275.6 175.55 275.55 174.9 275.35 174.15 275.35 174.1 276.15 175.15 275.9
M 107.2 262.45
Q 107.2 262.2 107.05 262.05 106.95 261.95 106.7 261.95 106.7 262.2 106.8 262.3 106.95 262.45 107.2 262.45 Z"/>

<path fill="#000000" fill-opacity="0.596078431372549" stroke="none" d="
M 192 275.35
Q 192 275.6 192.15 275.7 192.25 275.85 192.5 275.85 192.5 275.6 192.35 275.45 192.25 275.35 192 275.35 Z"/>

<path fill="#000000" fill-opacity="0.396078431372549" stroke="none" d="
M 162.75 277.3
Q 162.75 277.05 162.6 276.95 162.5 276.85 162.25 276.85 162.25 277.05 162.35 277.2 162.5 277.3 162.75 277.3
M 343.8 253.5
L 343.8 253.75
Q 344.9 253.75 343.8 253.5 Z"/>

<path fill="#000000" fill-opacity="0.5568627450980392" stroke="none" d="
M 171.15 276.85
Q 171.15 276.6 171.05 276.55 170.65 276.35 170.2 276.35 170.2 276.6 170.2 276.85 170.4 276.85 170.65 276.85 170.9 276.85 171.15 276.85
M 108.15 263.45
Q 108.15 263.2 108.05 263.05 107.9 262.95 107.65 262.95 107.65 263.2 107.8 263.3 107.9 263.45 108.15 263.45 Z"/>

<path fill="#000000" fill-opacity="0.5882352941176471" stroke="none" d="
M 167.7 277.3
Q 167.7 277.05 167.6 277 167.2 276.85 166.7 276.85 166.7 277.05 166.7 277.3 166.95 277.3 167.2 277.3 167.45 277.3 167.7 277.3 Z"/>

<path fill="#000000" fill-opacity="0.4549019607843137" stroke="none" d="
M 182.1 277.3
Q 182.1 277.55 182.1 277.8 182.35 277.8 182.45 277.7 182.6 277.55 182.6 277.3 182.35 277.3 182.1 277.3 Z"/>

<path fill="#000000" fill-opacity="0.592156862745098" stroke="none" d="
M 145.35 275.85
Q 145.6 275.85 145.85 275.85 145.85 275.6 145.75 275.45 145.6 275.35 145.35 275.35 145.35 275.6 145.35 275.85 Z"/>

<path fill="#000000" fill-opacity="0.5098039215686274" stroke="none" d="
M 147.85 273.85
Q 147.85 273.6 147.75 273.5 147.6 273.35 147.35 273.35 147.35 273.6 147.5 273.75 147.6 273.85 147.85 273.85 Z"/>

<path fill="#000000" fill-opacity="0.40784313725490196" stroke="none" d="
M 160.25 277.3
Q 160.25 277.05 160.15 276.95 160 276.85 159.75 276.85 159.75 277.05 159.9 277.2 160 277.3 160.25 277.3
M 138.95 272.85
Q 138.95 272.6 138.8 272.5 138.7 272.35 138.45 272.35 138.45 272.6 138.55 272.75 138.7 272.85 138.95 272.85
M 337.85 255
Q 338.1 255 338.2 254.9 338.35 254.75 338.35 254.5 338.1 254.5 337.85 254.5 337.85 254.75 337.85 255 Z"/>

<path fill="#000000" fill-opacity="0.5490196078431373" stroke="none" d="
M 130.6 274.2
Q 130.75 274.35 131 274.35 131 274.1 130.85 273.95 130.75 273.85 130.5 273.85 130.5 274.1 130.6 274.2 Z"/>

<path fill="#000000" fill-opacity="0.5137254901960784" stroke="none" d="
M 111.15 267.9
Q 111.15 268.15 111.25 268.25 111.4 268.4 111.65 268.4 111.65 268.15 111.5 268 111.4 267.9 111.15 267.9 Z"/>

<path fill="#000000" fill-opacity="0.5725490196078431" stroke="none" d="
M 105.2 260.95
Q 105.2 260.7 105.05 260.6 104.95 260.45 104.7 260.45 104.7 260.7 104.8 260.85 104.95 260.95 105.2 260.95 Z"/>

<path fill="#000000" fill-opacity="0.9372549019607843" stroke="none" d="
M 107.65 262.95
Q 107.45 262.95 107.3 262.8 107.2 262.7 107.2 262.45 106.95 262.45 106.8 262.3 106.7 262.2 106.7 261.95 106.45 261.95 106.25 261.85 105.95 261.7 105.7 261.45 105.45 261.45 105.3 261.3 105.2 261.2 105.2 260.95 104.95 260.95 104.8 260.85 104.7 260.7 104.7 260.45 104.7 260.2 104.6 260.05 104 259.2 102.7 258.95 102.7 259.45 102.7 259.95 102.7 260.2 102.7 260.45 102.95 260.45 103.1 260.6 103.2 260.7 103.2 260.95 103.2 261.2 103.2 261.45 103.45 261.45 103.6 261.55 103.7 261.7 103.7 261.95 103.4 263 104.15 263.15 104.2 263.2 104.2 263.45 104.45 263.45 104.55 263.55 104.7 263.7 104.7 263.95 105.75 264.35 106.35 265.3 106.45 265.4 106.7 265.4 106.95 265.4 107.05 265.55 107.2 265.65 107.2 265.9 109.7 266.1 110.8 267.8 110.9 267.9 111.15 267.9 111.4 267.9 111.5 268 111.65 268.15 111.65 268.4 113.65 269.35 115.65 270.3 115.85 270.4 116.1 270.4 116.35 270.4 116.5 270.5 116.6 270.65 116.6 270.85 116.85 270.85 117.1 270.85 117.35 270.85 117.45 271 117.6 271.1 117.6 271.35 118.35 271.4 119.1 271.35 119.35 271.35 119.6 271.35 120.1 271.35 120.45 271.55 120.55 271.6 120.55 271.85 120.8 272.1 121.1 272.25 121.3 272.35 121.55 272.35 121.8 272.35 122.05 272.35 122.3 272.35 122.55 272.35 123.95 273.2 126.05 273.35 126.3 273.35 126.5 273.35 126.75 273.35 127 273.35 127.25 273.35 127.5 273.35 127.75 273.35 127.9 273.5 128 273.6 128 273.85 129 273.85 130 273.85 130.25 273.85 130.5 273.85 130.75 273.85 130.85 273.95 131 274.1 131 274.35 137.15 274.9 143.4 275.3 143.65 275.35 143.9 275.35 144.15 275.35 144.25 275.45 144.4 275.6 144.4 275.85 144.65 275.85 144.9 275.85 145.15 275.85 145.35 275.85 145.35 275.6 145.35 275.35 145.6 275.35 145.75 275.45 145.85 275.6 145.85 275.85 146.1 275.85 146.35 275.85 146.35 275.6 146.35 275.35 146.85 275.35 147.25 275.55 147.35 275.6 147.35 275.85 150.6 275.85 153.8 275.85 154.05 275.85 154.3 275.85 154.3 275.6 154.3 275.35 154.55 275.35 154.8 275.35 155.8 275.35 156.8 275.35 157.05 275.35 157.3 275.35 157.55 275.35 157.65 275.45 157.75 275.6 157.75 275.85 158 276.1 158.3 276.25 158.5 276.35 158.75 276.35 159 276.35 159.15 276.45 159.25 276.6 159.25 276.85 159.5 276.85 159.75 276.85 160 276.85 160.15 276.95 160.25 277.05 160.25 277.3 160.5 277.3 160.75 277.3 160.75 277.05 160.75 276.85 161 276.85 161.25 276.85 161.5 276.85 161.75 276.85 162 276.85 162.25 276.85 162.5 276.85 162.6 276.95 162.75 277.05 162.75 277.3 163 277.3 163.25 277.3 163.5 277.3 163.75 277.3 163.75 277.05 163.75 276.85 164.2 276.85 164.6 277 164.7 277.05 164.7 277.3 165.45 277.3 166.2 277.3 166.45 277.3 166.7 277.3 166.7 277.05 166.7 276.85 167.2 276.85 167.6 277 167.7 277.05 167.7 277.3 169.05 277.45 169.75 276.95 169.95 276.85 170.2 276.85 170.2 276.6 170.2 276.35 170.65 276.35 171.05 276.55 171.15 276.6 171.15 276.85 171.4 276.85 171.55 276.95 171.65 277.05 171.65 277.3 172.75 277.7 174.15 277.8 174.4 277.8 174.65 277.8 174.65 277.55 174.65 277.3 174.9 277.3 175 277.45 175.15 277.55 175.15 277.8 177.1 277.3 179.6 277.3 179.85 277.3 180.1 277.3 180.35 277.3 180.45 277.45 180.6 277.55 180.6 277.8 181.1 277.8 181.6 277.8 181.85 277.8 182.1 277.8 182.1 277.55 182.1 277.3 182.35 277.3 182.6 277.3 182.6 277.05 182.6 276.85 182.85 276.85 182.95 276.95 183.05 277.05 183.05 277.3 183.3 277.3 183.55 277.3 183.8 277.3 184.05 277.3 184.3 277.3 184.55 277.3 184.8 277.3 185.05 277.3 185.3 277.3 185.55 277.3 185.8 277.3 186.05 277.3 187.35 277.65 187.75 276.95 187.8 276.85 188.05 276.85 188.05 276.6 188.05 276.35 188.8 276.35 189.45 276.55 189.5 276.6 189.5 276.85 190 277.1 190.55 277.25 190.75 277.3 191 277.3 191 277.05 191 276.85 191.25 276.85 191.4 276.95 191.5 277.05 191.5 277.3 193.25 277.3 195 277.3 195.25 277.3 195.45 277.3 195.45 277.05 195.45 276.85 195.95 276.85 196.35 277 196.45 277.05 196.45 277.3 198.55 276.35 199.95 276.75 200.2 276.85 200.45 276.85 200.45 276.6 200.45 276.35 200.7 276.35 200.8 276.45 200.95 276.6 200.95 276.85 201.2 276.85 201.45 276.85 201.45 276.6 201.45 276.35 201.7 276.35 201.9 276.35 203.75 276.2 205.4 275.9 205.65 275.85 205.9 275.85 205.9 275.6 205.8 275.4 205.65 275.1 205.4 274.85 205.15 274.85 204.9 274.85 203.65 274.85 202.4 274.85 202.4 275.1 202.3 275.15 201.35 275.65 201.45 274.85 201.2 274.85 200.95 274.85 200.95 275.1 200.8 275.2 200.7 275.35 200.45 275.35 200.2 275.35 199.95 275.35 197.2 275.35 194.5 275.35 194.5 275.6 194.4 275.65 194 275.85 193.5 275.85 193.25 275.85 193 275.85 192.75 275.85 192.5 275.85 192.25 275.85 192.15 275.7 192 275.6 192 275.35 191.75 275.35 191.5 275.35 191.5 275.6 191.4 275.65 191 275.85 190.5 275.85 190.25 275.85 190 275.85 189.3 275.85 188.55 275.85 188.3 275.85 188.05 275.85 187.55 275.85 187.05 275.85 186.8 275.85 186.55 275.85 186.3 275.85 186.05 275.85 185.8 275.85 185.55 275.85 185.3 275.85 185.05 275.85 180.35 275.85 175.65 275.85 175.4 275.85 175.15 275.9 174.1 276.15 174.15 275.35 173.9 275.35 173.65 275.35 170.4 275.35 167.2 275.35 166.95 275.35 166.7 275.35 166.45 275.35 166.2 275.35 164.95 275.35 163.75 275.35 163.5 275.35 163.25 275.4 162.2 275.65 162.25 274.85 162 274.85 161.75 274.85 160 274.85 158.25 274.85 158 274.85 157.9 274.7 157.75 274.6 157.75 274.35 157.55 274.35 157.3 274.35 155.3 274.35 153.3 274.35 153.05 274.35 152.8 274.35 152.55 274.35 152.3 274.35 152.05 274.35 151.95 274.2 151.8 274.1 151.8 273.85 151.55 273.85 151.35 273.85 149.6 273.85 147.85 273.85 147.6 273.85 147.5 273.75 147.35 273.6 147.35 273.35 147.1 273.35 146.85 273.35
L 146.85 273.6
Q 146.6 273.6 146.35 273.35 146.1 273.35 145.85 273.35 144.4 273.35 142.9 273.35 142.65 273.35 142.4 273.4 141.35 273.65 141.4 272.85 141.15 272.85 140.9 272.85 139.9 272.85 138.95 272.85 138.7 272.85 138.55 272.75 138.45 272.6 138.45 272.35 138.2 272.35 137.95 272.35 135.7 272.35 133.45 272.35 133.2 272.35 133.1 272.25 132.95 272.1 132.95 271.85 132.7 271.85 132.5 271.85 127.9 271.45 124.05 270.4 123.8 270.4 123.6 270.3 123.3 270.15 123.05 269.9 122.8 269.9 122.65 269.75 121.45 269 119.6 268.9 119.35 268.9 119.2 268.75 119.1 268.65 119.1 268.4 118.85 268.4 118.6 268.4 118.1 268.4 117.6 268.4 117.35 268.4 117.2 268.25 117.1 268.15 117.1 267.9 116.85 267.9 116.6 267.9 116.35 267.9 116.1 267.9 115.85 267.9 115.75 267.75 115.6 267.65 115.6 267.4 115.35 267.4 115.25 267.3 114.6 266.65 113.65 266.4 113.4 266.4 113.25 266.3 113.15 266.15 113.15 265.9 112.9 265.9 112.7 265.8 111.05 264.75 109.15 263.95 108.9 263.95 108.8 263.8 108.65 263.7 108.65 263.45 108.4 263.45 108.15 263.45 107.9 263.45 107.8 263.3 107.65 263.2 107.65 262.95
M 197.95 276.1
L 197.95 275.85
Q 199.05 276.1 197.95 276.1 Z"/>

<path fill="#000000" fill-opacity="0.5843137254901961" stroke="none" d="
M 102.7 258.95
Q 102.45 258.95 102.2 258.95 102.2 259.7 102.45 260.4 102.45 260.45 102.7 260.45 102.7 260.2 102.7 259.95 102.7 259.45 102.7 258.95
M 318 258.95
Q 317.75 258.95 317.5 258.95 317.75 259.2 318 259.2
L 318 258.95 Z"/>

<path fill="#000000" fill-opacity="0.6196078431372549" stroke="none" d="
M 320.5 258.95
Q 320.75 258.95 320.85 259.1 320.95 259.2 320.95 259.45 322.4 258.7 323.1 259.35 323.2 259.45 323.45 259.45 323.45 259.2 323.45 258.95 325.1 258.95 324.05 258.3 323.95 258.2 323.95 258 323.7 258 323.45 258.05 322.75 258.25 320.5 258.45 320.5 258.7 320.5 258.95 Z"/>

<path fill="#000000" fill-opacity="0.8666666666666667" stroke="none" d="
M 317.05 259.05
Q 316.75 259.2 316.5 259.45 316.75 259.7 317.05 259.85 317.25 259.95 317.5 259.95 318.25 259.95 319 259.95 319.25 259.95 319.5 259.95 319.5 259.7 319.5 259.45 319.75 259.45 320 259.45 320.25 259.45 320.5 259.45 320.75 259.45 320.95 259.45 320.95 259.2 320.85 259.1 320.75 258.95 320.5 258.95 320.25 258.95 320 258.95 319 258.95 318 258.95
L 318 259.2
Q 317.75 259.2 317.5 258.95 317.25 258.95 317.05 259.05 Z"/>

<path fill="#000000" fill-opacity="0.8627450980392157" stroke="none" d="
M 326.45 257.5
Q 326.2 257.5 325.95 257.55 324.95 257.75 323.95 258 323.95 258.2 324.05 258.3 325.1 258.95 323.45 258.95 323.45 259.2 323.45 259.45 324.2 259.45 324.95 259.45 325.2 259.45 325.45 259.45 325.45 259.2 325.45 258.95 325.7 258.95 325.95 258.95 326.2 258.7 326.5 258.55 326.7 258.45 326.95 258.45 326.95 258.2 326.95 258 327.2 258 327.4 258 329.5 257.8 330.95 257.1 331.15 257 331.4 257 331.4 256.75 331.4 256.5 331.65 256.5 331.9 256.5
L 331.9 256.25
Q 329.65 256.5 327.4 257 327.4 257.25 327.3 257.3 326.95 257.5 326.45 257.5 Z"/>

<path fill="#000000" fill-opacity="0.5058823529411764" stroke="none" d="
M 340.3 254
Q 340.3 254.25 340.45 254.3 343 255.8 340.3 254 Z"/>

<path fill="#000000" fill-opacity="0.7294117647058823" stroke="none" d="
M 338.2 254.9
Q 338.1 255 337.85 255 337.6 255 337.35 255 335.6 255 334.35 255.5 334.35 255.75 334.5 255.85 334.6 256 334.85 256 339.2 256.35 338.6 254.6 338.6 254.5 338.35 254.5 338.35 254.75 338.2 254.9 Z"/>

<path fill="#000000" stroke="none" d="
M 348.8 252.4
Q 349 252.5 349.25 252.5 349.25 252.25 349.15 252.2 348.75 252 348.25 252 348.5 252.25 348.8 252.4
M 346.65 253.15
Q 346.5 253 346.25 253 346.25 253.25 346.4 253.4 346.5 253.5 346.75 253.5 346.75 253.25 346.65 253.15 Z"/>

<path fill="#000000" fill-opacity="0.7176470588235294" stroke="none" d="
M 346.25 252.5
Q 346.25 252.75 346.25 253 346.5 253 346.65 253.15 346.75 253.25 346.75 253.5 347.55 252.85 349.25 252.75
L 349.25 252.5
Q 349 252.5 348.8 252.4 348.5 252.25 348.25 252 348 252 347.95 252.1 347.6 252.85 346.25 252.5 Z"/>

<path fill="#000000" fill-opacity="0.9529411764705882" stroke="none" d="
M 357.65 250
Q 357.45 250.05 357.2 250.05 357.2 250.3 357.1 250.35 356.7 250.55 356.2 250.55 355.95 250.55 355.7 250.55 355.45 250.55 355.2 250.55 355.2 250.8 355.1 250.9 354.95 251.05 354.7 251.05 354.45 251.05 354.2 251.05 353.95 251.05 353.7 251.05 353.7 251.3 353.6 251.4 353.45 251.55 353.2 251.55 352.95 251.55 352.7 251.55 352.45 251.55 352.25 251.55 352.25 251.8 352.25 252 354.3 252.4 355.3 251.65 355.45 251.55 355.7 251.55 355.7 251.3 355.7 251.05 356.45 251.05 357.2 251.05 357.45 251.05 357.7 251.05 357.95 251.05 358.2 251.05 358.45 251.05 358.65 251.05 358.65 250.8 358.65 250.55 358.9 250.55 359.05 250.65 359.15 250.8 359.15 251.05 359.8580078125 250.712109375 360.6 250.45 359.2404296875 250.2203125 357.85 249.95 357.7603515625 249.9802734375 357.65 250 Z"/>
</g>

<g id="Layer3_0_FILL">
<path fill="#000000" fill-opacity="0.9254901960784314" stroke="none" d="
M 387.45 225.25
Q 387.45 225.5 387.55 225.6 392.8 230.65 398.85 222.25
L 398.85 222
Q 393.4 223.75 387.45 225.25 Z"/>

<path fill="#000000" fill-opacity="0.5803921568627451" stroke="none" d="
M 420.2 228.7
Q 419.95 228.7 419.7 228.7 419.7 229.2 419.9 229.6 419.95 229.7 420.2 229.7 420.2 229.45 420.2 229.2 420.2 228.95 420.2 228.7 Z"/>

<path fill="#000000" fill-opacity="0.9450980392156862" stroke="none" d="
M 420.2 228.2
Q 420.2 228.45 420.2 228.7 420.2 228.95 420.2 229.2 420.2 229.45 420.2 229.7
L 420.2 229.95
Q 432.8 227.1 420.2 228.2 Z"/>

<path fill="#000000" fill-opacity="0.5607843137254902" stroke="none" d="
M 408.15 228.1
Q 408.3 227.95 408.3 227.7 408.05 227.7 407.8 227.7 407.8 227.95 407.8 228.2 408.05 228.2 408.15 228.1
M 410.75 226.75
Q 410.5 226.75 410.25 226.75 410.25 226.95 410.25 227.2 410.5 227.2 410.65 227.1 410.75 226.95 410.75 226.75 Z"/>

<path fill="#000000" fill-opacity="0.4549019607843137" stroke="none" d="
M 406.4 227.6
Q 406.55 227.7 406.8 227.7 406.8 227.45 406.65 227.35 406.55 227.2 406.3 227.2 406.3 227.45 406.4 227.6
M 412.6 225.1
Q 412.75 225 412.75 224.75 412.5 224.75 412.25 224.75 412.25 225 412.25 225.25 412.5 225.25 412.6 225.1 Z"/>

<path fill="#000000" fill-opacity="0.5686274509803921" stroke="none" d="
M 405.8 224.75
Q 406.05 224.75 406.15 224.6 406.3 224.5 406.3 224.25 406.05 224.25 405.8 224.25 405.8 224.5 405.8 224.75 Z"/>

<path fill="#000000" fill-opacity="0.44313725490196076" stroke="none" d="
M 405.8 225.25
Q 405.8 225 405.8 224.75 405.55 224.75 405.3 224.75 405.3 225 405.45 225.1 405.55 225.25 405.8 225.25 Z"/>

<path fill="#000000" fill-opacity="0.592156862745098" stroke="none" d="
M 412.1 225.6
Q 412.25 225.5 412.25 225.25 412 225.25 411.75 225.25 411.75 225.5 411.75 225.75 412 225.75 412.1 225.6 Z"/>

<path fill="#000000" fill-opacity="0.5372549019607843" stroke="none" d="
M 410.15 223.65
Q 410.25 223.5 410.25 223.25 410 223.25 409.75 223.25 409.75 223.5 409.75 223.75 410 223.75 410.15 223.65 Z"/>

<path fill="#000000" fill-opacity="0.396078431372549" stroke="none" d="
M 410.75 222.75
Q 410.75 223 410.75 223.25 411 223.25 411.15 223.15 411.25 223 411.25 222.75 411 222.75 410.75 222.75 Z"/>

<path fill="#000000" fill-opacity="0.5882352941176471" stroke="none" d="
M 414.1 224.6
Q 414.25 224.5 414.25 224.25 414 224.25 413.75 224.25 413.75 224.5 413.75 224.75 414 224.75 414.1 224.6 Z"/>

<path fill="#000000" fill-opacity="0.9647058823529412" stroke="none" d="
M 414.25 224.25
Q 414.25 224 414.2 223.75 414.1 222.9 413.25 222.75 413 222.75 412.75 222.75 412.5 222.75 412.25 222.75 412 222.75 411.75 222.75 411.5 222.75 411.25 222.75 411.25 223 411.15 223.15 411 223.25 410.75 223.25 410.5 223.25 410.25 223.25 410.25 223.5 410.15 223.65 410 223.75 409.75 223.75 409.5 223.75 409.35 223.85 408.25 224.45 406.3 224.25 406.3 224.5 406.15 224.6 406.05 224.75 405.8 224.75 405.8 225 405.8 225.25 405.45 226.55 406.2 226.95 406.3 226.95 406.3 227.2 406.55 227.2 406.65 227.35 406.8 227.45 406.8 227.7 407.05 227.95 407.35 228.1 407.55 228.2 407.8 228.2 407.8 227.95 407.8 227.7 408.05 227.7 408.3 227.7 409.6 228.05 409.95 227.3 410 227.2 410.25 227.2 410.25 226.95 410.25 226.75 410.5 226.75 410.75 226.75 411.25 226.5 411.65 226.1 411.75 226 411.75 225.75 411.75 225.5 411.75 225.25 412 225.25 412.25 225.25 412.25 225 412.25 224.75 412.5 224.75 412.75 224.75 413 224.75 413.25 224.75 413.5 224.75 413.75 224.75 413.75 224.5 413.75 224.25 414 224.25 414.25 224.25 Z"/>

<path fill="#000000" fill-opacity="0.49019607843137253" stroke="none" d="
M 413.15 222.45
Q 412.75 222.25 412.25 222.25 412.25 222.5 412.25 222.75 412.5 222.75 412.75 222.75 413 222.75 413.25 222.75 413.25 222.5 413.15 222.45 Z"/>
</g>

<g id="Layer1_0_FILL">
<path fill="#000000" fill-opacity="0.47843137254901963" stroke="none" d="
M 165.7 298.65
Q 165.45 298.65 165.2 298.65 165.2 298.9 165.2 299.15 165.45 299.15 165.6 299 165.7 298.9 165.7 298.65
M 302.1 292.7
Q 302.1 292.95 302.25 293.05 302.35 293.2 302.6 293.2 302.6 292.95 302.5 292.8 302.35 292.7 302.1 292.7
M 117.6 302.6
Q 117.85 302.85 118.1 302.85
L 118.1 302.6
Q 117.85 302.6 117.6 302.6
M 399.35 290.7
Q 399.6 290.7 399.85 290.7 399.85 290.45 399.7 290.35 399.6 290.2 399.35 290.2 399.35 290.45 399.35 290.7
M 342.8 289.7
Q 342.8 289.95 342.9 290.1 343.05 290.2 343.3 290.2 343.3 289.95 343.15 289.85 343.05 289.7 342.8 289.7 Z"/>

<path fill="#000000" fill-opacity="0.47058823529411764" stroke="none" d="
M 170.65 299.65
Q 170.4 299.65 170.2 299.65 170.2 299.9 170.2 300.15 170.65 300.15 171.05 299.95 171.15 299.9 171.15 299.65 170.9 299.65 170.65 299.65
M 225.25 294.2
Q 225.5 294.2 225.75 294.2 225.75 293.95 225.6 293.8 225.5 293.7 225.25 293.7 225.25 293.95 225.25 294.2
M 259.95 293.7
Q 260.2 293.7 260.45 293.7 260.45 293.45 260.35 293.4 259.95 293.2 259.45 293.2 259.45 293.45 259.45 293.7 259.7 293.7 259.95 293.7
M 86.95 303.5
Q 87.1 303.6 87.35 303.6 87.35 303.35 87.2 303.25 87.1 303.1 86.85 303.1 86.85 303.35 86.95 303.5
M 124.05 302.6
Q 123.8 302.6 123.55 302.6 123.8 302.85 124.05 302.85
L 124.05 302.6
M 74.55 303
Q 74.7 303.1 74.95 303.1 74.95 302.85 74.8 302.75 74.7 302.6 74.45 302.6 74.45 302.85 74.55 303
M 382 290.7
Q 382.25 290.7 382.35 290.6 382.5 290.45 382.5 290.2 382.25 290.2 382 290.2 382 290.45 382 290.7
M 325.35 292.5
Q 325.45 292.45 325.45 292.2 325.2 292.2 324.95 292.2 324.7 292.2 324.45 292.2 324.45 292.45 324.45 292.7 324.95 292.7 325.35 292.5 Z"/>

<path fill="#000000" fill-opacity="0.4392156862745098" stroke="none" d="
M 170.65 298.15
Q 170.4 298.15 170.2 298.15 170.2 298.4 170.2 298.65 170.4 298.65 170.55 298.55 170.65 298.4 170.65 298.15
M 217.3 294.7
Q 217.55 294.7 217.65 294.55 217.8 294.45 217.8 294.2 217.55 294.2 217.3 294.2 217.3 294.45 217.3 294.7
M 321.45 291.2
Q 321.45 290.95 321.35 290.85 321.2 290.7 320.95 290.7 320.95 290.95 321.1 291.1 321.2 291.2 321.45 291.2
M 146.25 301.95
Q 146.35 301.9 146.35 301.65 146.1 301.65 145.85 301.65 145.6 301.65 145.35 301.65 145.3 302.45 146.25 301.95
M 41.35 303.5
Q 41.45 303.6 41.7 303.6 41.7 303.35 41.6 303.25 41.45 303.1 41.2 303.1 41.2 303.35 41.35 303.5
M 76.4 303.1
Q 76.65 303.1 76.9 303.1 76.9 302.85 76.85 302.85 76.2 302.65 75.45 302.6 75.45 302.85 75.45 303.1 75.95 303.1 76.4 303.1 Z"/>

<path fill="#000000" fill-opacity="0.40784313725490196" stroke="none" d="
M 172.15 299.9
L 172.15 299.65
Q 171.9 299.65 171.65 299.65 171.9 299.9 172.15 299.9
M 255 292.7
Q 254.75 292.7 254.5 292.7 254.75 292.95 255 292.95
L 255 292.7
M 130.5 304.1
Q 130.75 304.1 130.85 304 131 303.85 131 303.6 130.75 303.6 130.5 303.6 130.5 303.85 130.5 304.1
M 40.7 300.65
Q 40.7 300.4 40.6 300.25 40.45 300.15 40.2 300.15 40.2 300.4 40.35 300.5 40.45 300.65 40.7 300.65 Z"/>

<path fill="#000000" fill-opacity="0.43529411764705883" stroke="none" d="
M 173.05 299.5
Q 173.15 299.4 173.15 299.15 172.9 299.15 172.65 299.15 172.65 299.4 172.65 299.65 172.9 299.65 173.05 299.5
M 206.75 296.8
Q 206.65 296.65 206.4 296.65 206.4 296.9 206.4 297.15 206.65 297.15 206.9 297.15 206.9 296.9 206.75 296.8
M 185.55 296.65
Q 185.3 296.65 185.05 296.65 185.05 296.9 185.05 297.15 185.3 297.15 185.45 297.05 185.55 296.9 185.55 296.65
M 320.5 290.7
Q 320.25 290.7 320 290.7 320 290.95 320 291.2 320.25 291.2 320.35 291.1 320.5 290.95 320.5 290.7
M 281.3 293.2
Q 281.55 293.45 281.85 293.6 282.05 293.7 282.3 293.7 282.3 293.45 282.2 293.4 281.8 293.2 281.3 293.2
M 262.95 292.2
Q 262.7 292.2 262.45 292.2 262.7 292.45 262.95 292.45
L 262.95 292.2
M 108.15 305.35
L 108.15 305.1
Q 107.9 305.1 107.65 305.1 107.9 305.35 108.15 305.35
M 104.2 303.6
Q 104.2 303.35 104.1 303.3 103.7 303.1 103.2 303.1 103.45 303.35 103.75 303.5 103.95 303.6 104.2 303.6 Z"/>

<path fill="#000000" fill-opacity="0.4980392156862745" stroke="none" d="
M 180.45 297.55
Q 180.6 297.4 180.6 297.15 180.35 297.15 180.1 297.15 180.1 297.4 180.1 297.65 180.35 297.65 180.45 297.55
M 234.55 293.55
Q 234.65 293.45 234.65 293.2 234.4 293.2 234.15 293.2 234.15 293.45 234.15 293.7 234.4 293.7 234.55 293.55
M 220.15 296.05
Q 220.3 295.9 220.3 295.7 220.05 295.7 219.8 295.7 219.8 295.9 219.8 296.15 220.05 296.15 220.15 296.05
M 291.6 293.55
Q 291.7 293.45 291.7 293.2 291.45 293.2 291.2 293.2 291.2 293.45 291.2 293.7 291.45 293.7 291.6 293.55
M 250.05 292.7
Q 249.8 292.7 249.55 292.7 249.8 292.95 250.05 292.95
L 250.05 292.7 Z"/>

<path fill="#000000" fill-opacity="0.4470588235294118" stroke="none" d="
M 182.95 298.3
Q 182.85 298.15 182.6 298.15 182.6 298.4 182.6 298.65 182.85 298.65 183.05 298.65 183.05 298.4 182.95 298.3
M 301.15 292.7
Q 300.9 292.7 300.65 292.7 300.65 292.95 300.65 293.2 300.9 293.2 301 293.05 301.15 292.95 301.15 292.7
M 299.15 291.7
Q 299.15 291.45 299 291.35 298.9 291.2 298.65 291.2 298.65 291.45 298.8 291.6 298.9 291.7 299.15 291.7
M 268.9 293.7
Q 268.65 293.7 268.4 293.7 268.35 294.5 269.3 294 269.4 293.95 269.4 293.7 269.15 293.7 268.9 293.7
M 258.95 293.7
Q 258.7 293.7 258.45 293.7 258.45 293.95 258.45 294.2 258.7 294.2 258.85 294.05 258.95 293.95 258.95 293.7
M 152.8 300.15
Q 152.55 300.15 152.3 300.15 151.55 300.15 150.85 300.15 151.25 301 152.75 300.4 152.8 300.4 152.8 300.15
M 373.55 288.75
Q 373.55 289 373.55 289.25 373.8 289.25 373.95 289.1 374.05 289 374.05 288.75 373.8 288.75 373.55 288.75
M 360.65 290.2
Q 360.4 290.2 360.15 290.2 360.4 290.45 360.65 290.45
L 360.65 290.2
M 326.95 290.7
Q 327.2 290.7 327.4 290.7 327.4 290.45 327.3 290.35 327.2 290.2 326.95 290.2 326.95 290.45 326.95 290.7 Z"/>

<path fill="#000000" fill-opacity="0.4117647058823529" stroke="none" d="
M 187.45 298.45
Q 187.55 298.4 187.55 298.15 187.3 298.15 187.05 298.15 186.8 298.15 186.55 298.15 186.5 298.95 187.45 298.45
M 106.7 303.6
Q 106.95 303.6 107.2 303.6 107.2 303.35 107.05 303.25 106.95 303.1 106.7 303.1 106.7 303.35 106.7 303.6
M 363.65 290.2
Q 363.65 290.45 363.65 290.7 363.9 290.7 364 290.6 364.15 290.45 364.15 290.2 363.9 290.2 363.65 290.2
M 340.3 291.7
Q 340.05 291.7 339.8 291.7 340.05 291.95 340.3 291.95
L 340.3 291.7 Z"/>

<path fill="#000000" fill-opacity="0.49019607843137253" stroke="none" d="
M 227.7 295.2
Q 227.7 295.45 227.7 295.7 227.95 295.7 228.1 295.55 228.2 295.45 228.2 295.2 227.95 295.2 227.7 295.2
M 92.15 305.45
Q 92.3 305.35 92.3 305.1 92.05 305.1 91.8 305.1 91.8 305.35 91.8 305.6 92.05 305.6 92.15 305.45
M 58.95 304
Q 59.05 303.85 59.05 303.6 58.8 303.6 58.55 303.6 58.55 303.85 58.55 304.1 58.8 304.1 58.95 304
M 341.8 289.7
Q 341.8 289.95 341.8 290.2 342.05 290.2 342.2 290.1 342.3 289.95 342.3 289.7 342.05 289.7 341.8 289.7 Z"/>

<path fill="#000000" fill-opacity="0.48627450980392156" stroke="none" d="
M 224.75 295.7
Q 225 295.7 225.25 295.7 225.5 295.7 225.75 295.7 225.75 295.45 225.65 295.4 225.25 295.2 224.75 295.2 224.75 295.45 224.75 295.7
M 319.5 292.7
Q 319.75 292.7 320 292.7 320 292.45 319.9 292.4 319.5 292.2 319 292.2 319 292.45 319 292.7 319.25 292.7 319.5 292.7
M 312.9 292.8
Q 312.8 292.7 312.55 292.7 312.55 292.95 312.65 293.05 312.8 293.2 313.05 293.2 313.05 292.95 312.9 292.8
M 81.4 303.35
L 81.4 303.1
Q 81.15 303.1 80.9 303.1 81.15 303.35 81.4 303.35
M 82.4 303.1
Q 82.15 303.1 81.9 303.1 82.15 303.35 82.4 303.35
L 82.4 303.1
M 140.3 301.5
Q 140.4 301.4 140.4 301.15 140.15 301.15 139.9 301.15 139.9 301.4 139.9 301.65 140.15 301.65 140.3 301.5
M 37.75 300.65
Q 37.75 300.9 37.85 301 38 301.15 38.25 301.15 38.25 300.9 38.25 300.65 38 300.65 37.75 300.65
M 67 303.6
Q 67.25 303.6 67.5 303.6 67.5 303.35 67.35 303.25 67.25 303.1 67 303.1 67 303.35 67 303.6
M 359.55 290.6
Q 359.65 290.45 359.65 290.2 359.4 290.2 359.15 290.2 359.15 290.45 359.15 290.7 359.4 290.7 359.55 290.6 Z"/>

<path fill="#000000" fill-opacity="0.4" stroke="none" d="
M 227.2 293.7
Q 226.95 293.7 226.75 293.7 226.75 293.95 226.75 294.2 226.95 294.2 227.1 294.05 227.2 293.95 227.2 293.7
M 317 292.2
Q 317 292.45 317 292.7 317.25 292.7 317.4 292.6 317.5 292.45 317.5 292.2 317.25 292.2 317 292.2
M 128.5 302.1
Q 128.25 302.1 128 302.1 128 302.35 128 302.6 128.25 302.6 128.4 302.5 128.5 302.35 128.5 302.1
M 160.25 299.65
Q 160.75 299.65 161.15 299.45 161.25 299.4 161.25 299.15 161 299.15 160.75 299.15 160.5 299.15 160.25 299.15 160.25 299.4 160.25 299.65
M 371.55 291.2
Q 371.8 291.2 372.05 291.2 372.05 290.95 371.95 290.85 371.8 290.7 371.55 290.7 371.55 290.95 371.55 291.2 Z"/>

<path fill="#000000" fill-opacity="0.4627450980392157" stroke="none" d="
M 214.7 296.45
Q 214.8 296.4 214.8 296.15 214.55 296.15 214.3 296.15 214.1 296.15 213.85 296.15 213.85 296.4 213.85 296.65 214.3 296.65 214.7 296.45
M 271.35 292.2
Q 271.1 292.2 270.85 292.2 270.8 293 271.75 292.5 271.85 292.45 271.85 292.2 271.6 292.2 271.35 292.2
M 122.55 304.1
Q 122.3 304.1 122.05 304.1 121.8 304.1 121.55 304.1 121.5 304.9 122.45 304.4 122.55 304.35 122.55 304.1
M 41.35 301
Q 41.45 301.15 41.7 301.15 41.7 300.9 41.6 300.75 41.45 300.65 41.2 300.65 41.2 300.9 41.35 301 Z"/>

<path fill="#000000" fill-opacity="0.41568627450980394" stroke="none" d="
M 211.7 295.05
Q 211.85 294.95 211.85 294.7 211.6 294.7 211.35 294.7 211.35 294.95 211.35 295.2 211.6 295.2 211.7 295.05
M 250.55 293.7
Q 250.3 293.7 250.05 293.7 250.05 293.95 250.05 294.2 250.3 294.2 250.4 294.05 250.55 293.95 250.55 293.7
M 137.8 302.75
Q 137.7 302.6 137.45 302.6 137.45 302.85 137.55 303 137.7 303.1 137.95 303.1 137.95 302.85 137.8 302.75
M 142.9 300.65
Q 142.9 300.9 142.9 301.15 143.15 301.15 143.4 301.15 143.4 300.9 143.25 300.75 143.15 300.65 142.9 300.65
M 45.15 301.15
Q 45.15 301.4 45.15 301.65 45.4 301.65 45.55 301.5 45.65 301.4 45.65 301.15 45.4 301.15 45.15 301.15
M 66.5 302.1
Q 66.5 302.35 66.65 302.5 66.75 302.6 67 302.6 67 302.35 66.85 302.25 66.75 302.1 66.5 302.1
M 386.45 290.7
Q 386.2 290.7 385.95 290.7 385.7 290.7 385.45 290.7 385.45 290.95 385.45 291.2 385.95 291.2 386.35 291 386.45 290.95 386.45 290.7
M 372.55 289.25
Q 372.8 289.25 373.05 289.25 373.05 289 372.95 288.85 372.8 288.75 372.55 288.75 372.55 289 372.55 289.25 Z"/>

<path fill="#000000" fill-opacity="0.43137254901960786" stroke="none" d="
M 201.9 295.7
Q 201.9 295.9 201.9 296.15 202.15 296.15 202.3 296.05 202.4 295.9 202.4 295.7 202.15 295.7 201.9 295.7
M 283.75 293.2
Q 283.75 293.45 283.75 293.7 284 293.7 284.15 293.55 284.25 293.45 284.25 293.2 284 293.2 283.75 293.2
M 335.85 291.7
Q 335.6 291.7 335.35 291.7 335.6 291.95 335.85 291.95
L 335.85 291.7
M 328.3 292.5
Q 328.4 292.45 328.4 292.2 328.15 292.2 327.9 292.2 327.65 292.2 327.4 292.2 327.35 293 328.3 292.5 Z"/>

<path fill="#000000" fill-opacity="0.4549019607843137" stroke="none" d="
M 196.45 295.7
Q 196.45 295.9 196.45 296.15 196.7 296.15 196.85 296.05 196.95 295.9 196.95 295.7 196.7 295.7 196.45 295.7
M 322.45 290.7
Q 322.2 290.7 321.95 290.7 321.95 290.95 321.95 291.2 322.2 291.2 322.35 291.1 322.45 290.95 322.45 290.7
M 295.2 291.2
Q 295.2 291.45 295.2 291.7 295.95 291.7 296.6 291.5 296.65 291.45 296.65 291.2 296.4 291.2 296.15 291.2 295.7 291.2 295.2 291.2
M 83.85 303.1
Q 83.35 303.1 82.85 303.1 83.05 303.95 84.25 303.4 84.35 303.35 84.35 303.1 84.1 303.1 83.85 303.1
M 67.5 302.6
Q 67.75 302.6 68 302.6 68 302.35 67.85 302.25 67.75 302.1 67.5 302.1 67.5 302.35 67.5 302.6 Z"/>

<path fill="#000000" fill-opacity="0.45098039215686275" stroke="none" d="
M 289.25 293.2
Q 289.25 293.45 289.35 293.55 289.5 293.7 289.7 293.7 289.7 293.45 289.6 293.3 289.5 293.2 289.25 293.2
M 109.65 303.6
Q 109.9 303.6 110.15 303.6 110.15 303.35 110.1 303.35 109.4 303.1 108.65 303.1 108.65 303.35 108.65 303.6 109.15 303.6 109.65 303.6
M 138.95 302.6
Q 138.95 302.85 138.95 303.1 139.65 303.15 140.35 302.9 140.4 302.85 140.4 302.6 140.15 302.6 139.9 302.6 139.4 302.6 138.95 302.6
M 344.7 292
Q 344.8 291.95 344.8 291.7 344.55 291.7 344.3 291.7 344.05 291.7 343.8 291.7 343.75 292.5 344.7 292 Z"/>

<path fill="#000000" fill-opacity="0.396078431372549" stroke="none" d="
M 278.8 292.7
Q 278.8 292.95 278.8 293.2 279.05 293.2 279.2 293.05 279.3 292.95 279.3 292.7 279.05 292.7 278.8 292.7 Z"/>

<path fill="#000000" fill-opacity="0.4588235294117647" stroke="none" d="
M 274.95 292.1
Q 275.1 292.2 275.35 292.2 275.35 291.95 275.2 291.85 275.1 291.7 274.85 291.7 274.85 291.95 274.95 292.1
M 402.35 288.25
Q 402.8 288.25 403.2 288.05 403.3 288 403.3 287.75 403.05 287.75 402.8 287.75 402.55 287.75 402.35 287.75 402.35 288 402.35 288.25 Z"/>

<path fill="#000000" fill-opacity="0.4196078431372549" stroke="none" d="
M 276.85 292.2
Q 277.05 292.2 277.3 292.2 277.3 291.95 277.25 291.95 276.6 291.7 275.85 291.7 275.85 291.95 275.85 292.2 276.35 292.2 276.85 292.2
M 66.4 304
Q 66.5 303.85 66.5 303.6 66.25 303.6 66 303.6 66 303.85 66 304.1 66.25 304.1 66.4 304
M 393.4 290.7
Q 393.15 290.7 392.9 290.7 392.9 290.95 392.9 291.2 393.15 291.2 393.25 291.1 393.4 290.95 393.4 290.7 Z"/>

<path fill="#000000" fill-opacity="0.42745098039215684" stroke="none" d="
M 264.9 293.7
Q 264.65 293.7 264.45 293.7 264.65 293.95 264.9 293.95
L 264.9 293.7
M 262.95 293.7
Q 262.7 293.7 262.45 293.7 262.4 294.5 263.35 294 263.45 293.95 263.45 293.7 263.2 293.7 262.95 293.7
M 101.7 303.1
Q 101.45 303.1 101.25 303.1 101.25 303.35 101.25 303.6 101.45 303.6 101.6 303.5 101.7 303.35 101.7 303.1
M 115.6 305.1
Q 115.6 304.85 115.5 304.75 115.35 304.6 115.1 304.6 115.1 304.85 115.1 305.1 115.35 305.1 115.6 305.1
M 148.85 301.65
Q 149.25 302.5 150.75 301.9 150.85 301.9 150.85 301.65 150.6 301.65 150.35 301.65 149.6 301.65 148.85 301.65
M 152.3 301.9
L 152.3 301.65
Q 152.05 301.65 151.8 301.65 152.05 301.9 152.3 301.9
M 38.7 303.1
Q 38.7 302.85 38.6 302.75 38.5 302.6 38.25 302.6 38.25 302.85 38.35 303 38.5 303.1 38.7 303.1
M 340.8 290.2
Q 340.8 289.95 340.7 289.85 340.55 289.7 340.3 289.7 340.3 289.95 340.3 290.2 340.55 290.2 340.8 290.2 Z"/>

<path fill="#000000" fill-opacity="0.44313725490196076" stroke="none" d="
M 265.9 292.7
Q 265.9 292.45 265.8 292.4 265.4 292.2 264.9 292.2 265.15 292.45 265.45 292.6 265.65 292.7 265.9 292.7
M 101.25 305.1
Q 101.25 305.35 101.25 305.6 101.95 305.6 102.65 305.35 102.7 305.35 102.7 305.1 102.45 305.1 102.2 305.1 101.7 305.1 101.25 305.1
M 114.6 305.1
Q 114.6 304.85 114.5 304.75 114.35 304.6 114.1 304.6 114.1 304.85 114.25 305 114.35 305.1 114.6 305.1
M 127 302.6
Q 127 302.35 126.9 302.3 126.5 302.1 126.05 302.1 126.05 302.35 126.05 302.6 126.3 302.6 126.5 302.6 126.75 302.6 127 302.6
M 154.2 301.95
Q 154.3 301.9 154.3 301.65 154.05 301.65 153.8 301.65 153.55 301.65 153.3 301.65 153.25 302.45 154.2 301.95
M 78.4 305.15
Q 78.65 305.1 78.9 305.1 78.9 304.85 78.85 304.85 78.15 304.6 77.4 304.6 77.35 305.4 78.4 305.15 Z"/>

<path fill="#000000" fill-opacity="0.49411764705882355" stroke="none" d="
M 266.9 292.7
Q 267.15 292.7 267.3 292.6 267.4 292.45 267.4 292.2 267.15 292.2 266.9 292.2 266.9 292.45 266.9 292.7
M 93.8 305.1
Q 93.8 305.35 93.9 305.45 94.05 305.6 94.3 305.6 94.3 305.35 94.15 305.25 94.05 305.1 93.8 305.1
M 130.85 302.5
Q 131 302.35 131 302.1 130.75 302.1 130.5 302.1 130.5 302.35 130.5 302.6 130.75 302.6 130.85 302.5
M 46.8 303.5
Q 46.9 303.6 47.15 303.6 47.15 303.35 47.05 303.25 46.9 303.1 46.65 303.1 46.65 303.35 46.8 303.5
M 69.5 304.1
Q 69.5 304.35 69.6 304.5 69.75 304.6 69.95 304.6 69.95 304.35 69.85 304.25 69.75 304.1 69.5 304.1
M 370.7 291.1
Q 370.85 291.2 371.1 291.2 371.1 290.95 370.95 290.85 370.85 290.7 370.6 290.7 370.6 290.95 370.7 291.1 Z"/>

<path fill="#000000" fill-opacity="0.4745098039215686" stroke="none" d="
M 261.95 292.2
Q 261.7 292.2 261.45 292.2 261.7 292.45 261.95 292.45
L 261.95 292.2
M 244.1 294.2
Q 244.5 295.05 246 294.45 246.05 294.45 246.05 294.2 245.8 294.2 245.6 294.2 244.85 294.2 244.1 294.2
M 98.75 305.6
Q 99 305.6 99.25 305.6 99.25 305.35 99.1 305.25 99 305.1 98.75 305.1 98.75 305.35 98.75 305.6
M 50.65 303.6
Q 50.9 303.6 51.1 303.6 51.1 303.35 51.05 303.35 50.4 303.15 49.65 303.1 49.65 303.35 49.65 303.6 50.15 303.6 50.65 303.6
M 356.7 289.7
Q 356.7 289.5 356.55 289.35 356.45 289.25 356.2 289.25 356.2 289.5 356.3 289.6 356.45 289.7 356.7 289.7
M 343.8 289.7
Q 343.8 289.95 343.8 290.2 344.05 290.2 344.15 290.1 344.3 289.95 344.3 289.7 344.05 289.7 343.8 289.7 Z"/>

<path fill="#000000" fill-opacity="0.4666666666666667" stroke="none" d="
M 116.6 303.1
Q 116.85 303.1 117 303 117.1 302.85 117.1 302.6 116.85 302.6 116.6 302.6 116.6 302.85 116.6 303.1
M 145.35 300.65
Q 145.15 300.65 144.9 300.65 144.9 300.9 144.9 301.15 145.15 301.15 145.25 301 145.35 300.9 145.35 300.65 Z"/>

<path fill="#000000" fill-opacity="0.4823529411764706" stroke="none" d="
M 128 303.6
Q 127.75 303.6 127.5 303.6 127.5 303.85 127.5 304.1 127.75 304.1 127.9 304 128 303.85 128 303.6
M 397.35 290.7
Q 397.1 290.7 396.85 290.7 397.1 290.95 397.35 290.95
L 397.35 290.7
M 350.25 291.2
Q 350 291.2 349.75 291.2 349.75 291.45 349.75 291.7 350 291.7 350.1 291.6 350.25 291.45 350.25 291.2
M 353.2 290.7
Q 352.95 290.7 352.7 290.7 352.7 290.95 352.7 291.2 352.95 291.2 353.1 291.1 353.2 290.95 353.2 290.7 Z"/>

<path fill="#000000" fill-opacity="0.4235294117647059" stroke="none" d="
M 133.95 301.65
Q 133.7 301.65 133.45 301.65 133.45 301.9 133.45 302.1 133.7 302.1 133.85 302 133.95 301.9 133.95 301.65
M 40.7 303.35
L 40.7 303.1
Q 40.45 303.1 40.2 303.1 40.45 303.35 40.7 303.35
M 378.5 291.2
Q 378.5 290.95 378.4 290.85 378.25 290.7 378 290.7 378 290.95 378.15 291.1 378.25 291.2 378.5 291.2 Z"/>

<path fill="#000000" fill-opacity="0.5294117647058824" stroke="none" d="
M 37.75 301.65
Q 37.75 302.1 37.95 302.5 38 302.6 38.25 302.6 38.25 302.35 38.25 302.1 38.25 301.9 38.25 301.65 38 301.65 37.75 301.65 Z"/>

<path fill="#000000" fill-opacity="0.403921568627451" stroke="none" d="
M 389.45 288.75
Q 389.7 288.75 389.8 288.6 389.95 288.5 389.95 288.25 389.7 288.25 389.45 288.25 389.45 288.5 389.45 288.75 Z"/>

<path fill="#000000" fill-opacity="0.9019607843137255" stroke="none" d="
M 326.95 290.7
Q 326.7 290.7 326.45 290.7 324.45 290.7 322.45 290.7 322.45 290.95 322.35 291.1 322.2 291.2 321.95 291.2 321.7 291.2 321.45 291.2 321.2 291.2 321.1 291.1 320.95 290.95 320.95 290.7 320.75 290.7 320.5 290.7 320.5 290.95 320.35 291.1 320.25 291.2 320 291.2 319.75 291.2 319.5 291.2 308.85 290.95 299.15 291.7 298.9 291.7 298.8 291.6 298.65 291.45 298.65 291.2 298.4 291.2 298.15 291.2 297.4 291.2 296.65 291.2 296.65 291.45 296.6 291.5 295.95 291.7 295.2 291.7 294.95 291.7 294.7 291.7 285.4 291.35 277.3 292.2 277.05 292.2 276.85 292.2 276.35 292.2 275.85 292.2 275.6 292.2 275.35 292.2 275.1 292.2 274.95 292.1 274.85 291.95 274.85 291.7 274.6 291.7 274.45 291.85 273.7 292.55 271.85 292.2 271.85 292.45 271.75 292.5 270.8 293 270.85 292.2 270.65 292.2 270.4 292.2 268.9 292.2 267.4 292.2 267.4 292.45 267.3 292.6 267.15 292.7 266.9 292.7 266.65 292.7 266.4 292.7 266.15 292.7 265.9 292.7 265.65 292.7 265.45 292.6 265.15 292.45 264.9 292.2 264.65 292.2 264.45 292.2 263.7 292.2 262.95 292.2
L 262.95 292.45
Q 262.7 292.45 262.45 292.2 262.2 292.2 261.95 292.2
L 261.95 292.45
Q 261.7 292.45 261.45 292.2 261.2 292.2 260.95 292.25 258.1 292.55 255 292.7
L 255 292.95
Q 254.75 292.95 254.5 292.7 254.25 292.7 254 292.7 252 292.7 250.05 292.7
L 250.05 292.95
Q 249.8 292.95 249.55 292.7 249.3 292.7 249.05 292.7 242.15 293.2 234.65 293.2 234.65 293.45 234.55 293.55 234.4 293.7 234.15 293.7 233.9 293.7 233.65 293.7 230.45 293.7 227.2 293.7 227.2 293.95 227.1 294.05 226.95 294.2 226.75 294.2 226.5 294.2 226.25 294.2 226 294.2 225.75 294.2 225.5 294.2 225.25 294.2 225 294.2 224.75 294.2 221.25 294.2 217.8 294.2 217.8 294.45 217.65 294.55 217.55 294.7 217.3 294.7 217.05 294.7 216.8 294.7 214.35 294.7 211.85 294.7 211.85 294.95 211.7 295.05 211.6 295.2 211.35 295.2 211.1 295.2 210.85 295.15 206.2 295 202.4 295.7 202.4 295.9 202.3 296.05 202.15 296.15 201.9 296.15 201.7 296.15 201.45 296.1 199.8 295.3 196.95 295.7 196.95 295.9 196.85 296.05 196.7 296.15 196.45 296.15 196.2 296.15 195.95 296.2 190.9 296.55 185.55 296.65 185.55 296.9 185.45 297.05 185.3 297.15 185.05 297.15 184.8 297.15 184.55 297.15 182.6 297.15 180.6 297.15 180.6 297.4 180.45 297.55 180.35 297.65 180.1 297.65 179.85 297.65 179.6 297.65 174.85 297.6 170.65 298.15 170.65 298.4 170.55 298.55 170.4 298.65 170.2 298.65 169.95 298.65 169.7 298.65 167.7 298.65 165.7 298.65 165.7 298.9 165.6 299 165.45 299.15 165.2 299.15 164.95 299.15 164.7 299.15 163 299.15 161.25 299.15 161.25 299.4 161.15 299.45 160.75 299.65 160.25 299.65 160 299.65 159.75 299.7 156.55 300.15 152.8 300.15 152.8 300.4 152.75 300.4 151.25 301 150.85 300.15 150.6 300.15 150.35 300.15 147.85 300.4 145.35 300.65 145.35 300.9 145.25 301 145.15 301.15 144.9 301.15 144.65 301.15 144.4 301.15 143.9 301.15 143.4 301.15 143.15 301.15 142.9 301.15 142.65 301.15 142.4 301.15 141.4 301.1 140.4 301.15 140.4 301.4 140.3 301.5 140.15 301.65 139.9 301.65 139.65 301.65 139.45 301.55 137.25 301.05 133.95 301.65 133.95 301.9 133.85 302 133.7 302.1 133.45 302.1 133.2 302.1 132.95 302.1 132 302.1 131 302.1 131 302.35 130.85 302.5 130.75 302.6 130.5 302.6 130.25 302.6 130.05 302.5 129.5 302.15 128.5 302.1 128.5 302.35 128.4 302.5 128.25 302.6 128 302.6 127.75 302.6 127.5 302.6 127.25 302.6 127 302.6 126.75 302.6 126.5 302.6 126.3 302.6 126.05 302.6 125.8 302.6 125.55 302.6 124.8 302.65 124.05 302.6
L 124.05 302.85
Q 123.8 302.85 123.55 302.6 123.3 302.6 123.05 302.6 120.55 302.6 118.1 302.6
L 118.1 302.85
Q 117.85 302.85 117.6 302.6 117.35 302.6 117.1 302.6 117.1 302.85 117 303 116.85 303.1 116.6 303.1 116.35 303.1 116.1 303.1 112.65 302.85 110.15 303.6 109.9 303.6 109.65 303.6 109.15 303.6 108.65 303.6 108.4 303.6 108.15 303.6 107.65 303.6 107.2 303.6 106.95 303.6 106.7 303.6 106.45 303.6 106.2 303.6 105.2 303.6 104.2 303.6 103.95 303.6 103.75 303.5 103.45 303.35 103.2 303.1 102.95 303.1 102.7 303.1 102.2 303.1 101.7 303.1 101.7 303.35 101.6 303.5 101.45 303.6 101.25 303.6 101 303.6 100.75 303.6 93.2 303.4 87.35 303.6 87.1 303.6 86.95 303.5 86.85 303.35 86.85 303.1 86.6 303.1 86.35 303.1 85.35 303.1 84.35 303.1 84.35 303.35 84.25 303.4 83.05 303.95 82.85 303.1 82.6 303.1 82.4 303.1
L 82.4 303.35
Q 82.15 303.35 81.9 303.1 81.65 303.1 81.4 303.1
L 81.4 303.35
Q 81.15 303.35 80.9 303.1 80.65 303.1 80.4 303.1 78.65 303.1 76.9 303.1 76.65 303.1 76.4 303.1 75.95 303.1 75.45 303.1 75.2 303.1 74.95 303.1 74.7 303.1 74.55 303 74.45 302.85 74.45 302.6 74.2 302.6 73.95 302.6 70.95 302.6 68 302.6 67.75 302.6 67.5 302.6 67.25 302.6 67 302.6 66.75 302.6 66.65 302.5 66.5 302.35 66.5 302.1 66.25 302.1 66 302.1 55.4 302.05 45.65 301.15 45.65 301.4 45.55 301.5 45.4 301.65 45.15 301.65 44.9 301.65 44.75 301.5 43.8 300.75 41.7 301.15 41.45 301.15 41.35 301 41.2 300.9 41.2 300.65 40.95 300.65 40.7 300.65 40.45 300.65 40.35 300.5 40.2 300.4 40.2 300.15 39.95 300.15 39.7 300.15 38.75 300.15 38.25 300.65 38.25 300.9 38.25 301.15 38.25 301.4 38.25 301.65 38.25 301.9 38.25 302.1 38.25 302.35 38.25 302.6 38.5 302.6 38.6 302.75 38.7 302.85 38.7 303.1 39.2 303.1 39.7 303.1 39.95 303.1 40.2 303.1 40.45 303.1 40.7 303.1 40.95 303.1 41.2 303.1 41.45 303.1 41.6 303.25 41.7 303.35 41.7 303.6 44.5 303.9 46.2 303.2 46.4 303.1 46.65 303.1 46.9 303.1 47.05 303.25 47.15 303.35 47.15 303.6 48.15 303.6 49.15 303.6 49.4 303.6 49.65 303.6 49.65 303.35 49.65 303.1 50.4 303.15 51.05 303.35 51.1 303.35 51.1 303.6 55.05 303.4 58.1 304.05 58.3 304.1 58.55 304.1 58.55 303.85 58.55 303.6 58.8 303.6 59.05 303.6 61.7 304.45 65.5 304.15 65.75 304.1 66 304.1 66 303.85 66 303.6 66.25 303.6 66.5 303.6 66.75 303.6 67 303.6 67 303.35 67 303.1 67.25 303.1 67.35 303.25 67.5 303.35 67.5 303.6 68 304.1 69 304.1 69.25 304.1 69.5 304.1 69.75 304.1 69.85 304.25 69.95 304.35 69.95 304.6 73.45 304.6 76.9 304.6 77.15 304.6 77.4 304.6 78.15 304.6 78.85 304.85 78.9 304.85 78.9 305.1 84.45 305.65 91.3 305.6 91.55 305.6 91.8 305.6 91.8 305.35 91.8 305.1 92.05 305.1 92.3 305.1 92.8 305.1 93.3 305.1 93.55 305.1 93.8 305.1 94.05 305.1 94.15 305.25 94.3 305.35 94.3 305.6 96.25 305.6 98.25 305.6 98.5 305.6 98.75 305.6 98.75 305.35 98.75 305.1 99 305.1 99.1 305.25 99.25 305.35 99.25 305.6 100 305.6 100.75 305.6 101 305.6 101.25 305.6 101.25 305.35 101.25 305.1 101.7 305.1 102.2 305.1 102.45 305.1 102.7 305.1 104.95 305.1 107.2 305.1 107.45 305.1 107.65 305.1 107.9 305.1 108.15 305.1 111.45 305.4 113.65 304.7 113.85 304.6 114.1 304.6 114.35 304.6 114.5 304.75 114.6 304.85 114.6 305.1 114.85 305.1 115.1 305.1 115.1 304.85 115.1 304.6 115.35 304.6 115.5 304.75 115.6 304.85 115.6 305.1 117.85 304.1 121.05 304.1 121.3 304.1 121.55 304.1 121.8 304.1 122.05 304.1 122.3 304.1 122.55 304.1 124.8 304.1 127 304.1 127.25 304.1 127.5 304.1 127.5 303.85 127.5 303.6 127.75 303.6 128 303.6 129.6 303.25 130.15 304 130.25 304.1 130.5 304.1 130.5 303.85 130.5 303.6 130.75 303.6 131 303.6 133.95 303.45 136.95 302.7 137.2 302.6 137.45 302.6 137.7 302.6 137.8 302.75 137.95 302.85 137.95 303.1 138.2 303.1 138.45 303.1 138.7 303.1 138.95 303.1 138.95 302.85 138.95 302.6 139.4 302.6 139.9 302.6 140.15 302.6 140.4 302.6 143.6 303.05 145 301.75 145.15 301.65 145.35 301.65 145.6 301.65 145.85 301.65 146.1 301.65 146.35 301.65 147.35 301.6 148.35 301.65 148.6 301.65 148.85 301.65 149.6 301.65 150.35 301.65 150.6 301.65 150.85 301.65 151.1 301.65 151.35 301.65 151.55 301.65 151.8 301.65 152.05 301.65 152.3 301.65 152.55 301.65 152.8 301.65 153.05 301.65 153.3 301.65 153.55 301.65 153.8 301.65 154.05 301.65 154.3 301.65 161.75 300.65 169.7 300.15 169.95 300.15 170.2 300.15 170.2 299.9 170.2 299.65 170.4 299.65 170.65 299.65 170.9 299.65 171.15 299.65 171.4 299.65 171.65 299.65 171.9 299.65 172.15 299.65 172.4 299.65 172.65 299.65 172.65 299.4 172.65 299.15 172.9 299.15 173.15 299.15 177.35 299.6 182.1 298.7 182.35 298.65 182.6 298.65 182.6 298.4 182.6 298.15 182.85 298.15 182.95 298.3 183.05 298.4 183.05 298.65 184.8 298.65 186.1 298.25 186.3 298.15 186.55 298.15 186.8 298.15 187.05 298.15 187.3 298.15 187.55 298.15 196.8 297.75 205.9 297.2 206.15 297.15 206.4 297.15 206.4 296.9 206.4 296.65 206.65 296.65 206.75 296.8 206.9 296.9 206.9 297.15 209.7 296.5 213.35 296.65 213.6 296.65 213.85 296.65 213.85 296.4 213.85 296.15 214.1 296.15 214.3 296.15 214.55 296.15 214.8 296.15 217.05 296.2 219.3 296.15 219.55 296.15 219.8 296.15 219.8 295.9 219.8 295.7 220.05 295.7 220.3 295.7 222.25 295.65 224.25 295.7 224.5 295.7 224.75 295.7 224.75 295.45 224.75 295.2 225.25 295.2 225.65 295.4 225.75 295.45 225.75 295.7 226.5 295.7 227.2 295.7 227.45 295.7 227.7 295.7 227.7 295.45 227.7 295.2 227.95 295.2 228.2 295.2 236.5 295.1 243.6 294.2 243.85 294.2 244.1 294.2 244.85 294.2 245.6 294.2 245.8 294.2 246.05 294.2 247.95 293.3 249.6 294.1 249.8 294.2 250.05 294.2 250.05 293.95 250.05 293.7 250.3 293.7 250.55 293.7 253.7 294.5 258 294.2 258.2 294.2 258.45 294.2 258.45 293.95 258.45 293.7 258.7 293.7 258.95 293.7 259.2 293.7 259.45 293.7 259.45 293.45 259.45 293.2 259.95 293.2 260.35 293.4 260.45 293.45 260.45 293.7 261.2 293.7 261.95 293.7 262.2 293.7 262.45 293.7 262.7 293.7 262.95 293.7 263.2 293.7 263.45 293.7 263.7 293.7 263.95 293.7 264.2 293.7 264.45 293.7 264.65 293.7 264.9 293.7 266.25 292.85 267.95 293.6 268.15 293.7 268.4 293.7 268.65 293.7 268.9 293.7 269.15 293.7 269.4 293.7 274.15 293.75 278.3 293.25 278.55 293.2 278.8 293.2 278.8 292.95 278.8 292.7 279.05 292.7 279.3 292.7 279.8 293.15 280.8 293.2 281.05 293.2 281.3 293.2 281.8 293.2 282.2 293.4 282.3 293.45 282.3 293.7 282.8 293.7 283.3 293.7 283.5 293.7 283.75 293.7 283.75 293.45 283.75 293.2 284 293.2 284.25 293.2 286.5 293.2 288.75 293.2 289 293.2 289.25 293.2 289.5 293.2 289.6 293.3 289.7 293.45 289.7 293.7 290.2 293.7 290.7 293.7 290.95 293.7 291.2 293.7 291.2 293.45 291.2 293.2 291.45 293.2 291.7 293.2 295.9 293.2 300.15 293.2 300.4 293.2 300.65 293.2 300.65 292.95 300.65 292.7 300.9 292.7 301.15 292.7 301.4 292.7 301.65 292.7 301.9 292.7 302.1 292.7 302.35 292.7 302.5 292.8 302.6 292.95 302.6 293.2 307.3 293 312.05 292.7 312.3 292.7 312.55 292.7 312.8 292.7 312.9 292.8 313.05 292.95 313.05 293.2 314.45 292.6 316.5 292.7 316.75 292.7 317 292.7 317 292.45 317 292.2 317.25 292.2 317.5 292.2 318 292.45 318.5 292.65 318.75 292.7 319 292.7 319 292.45 319 292.2 319.5 292.2 319.9 292.4 320 292.45 320 292.7 321.95 292.7 323.95 292.7 324.2 292.7 324.45 292.7 324.45 292.45 324.45 292.2 324.7 292.2 324.95 292.2 325.2 292.2 325.45 292.2 326.2 292.2 326.95 292.2 327.2 292.2 327.4 292.2 327.65 292.2 327.9 292.2 328.15 292.2 328.4 292.2 332.05 292 334.85 291.75 335.1 291.7 335.35 291.7 335.6 291.7 335.85 291.7 337.6 292.5 339.35 291.8 339.6 291.7 339.8 291.7 340.05 291.7 340.3 291.7 341.8 291.7 343.3 291.7 343.55 291.7 343.8 291.7 344.05 291.7 344.3 291.7 344.55 291.7 344.8 291.7 347.9 291.05 349.3 291.6 349.5 291.7 349.75 291.7 349.75 291.45 349.75 291.2 350 291.2 350.25 291.2 351.2 291.2 352.25 291.2 352.45 291.2 352.7 291.2 352.7 290.95 352.7 290.7 352.95 290.7 353.2 290.7 356.15 291.4 358.7 290.75 358.9 290.7 359.15 290.7 359.15 290.45 359.15 290.2 359.4 290.2 359.65 290.2 359.9 290.2 360.15 290.2 360.4 290.2 360.65 290.2 361.75 290.65 363.15 290.7 363.4 290.7 363.65 290.7 363.65 290.45 363.65 290.2 363.9 290.2 364.15 290.2 366.65 290.95 370.1 290.75 370.35 290.7 370.6 290.7 370.85 290.7 370.95 290.85 371.1 290.95 371.1 291.2 371.3 291.2 371.55 291.2 371.55 290.95 371.55 290.7 371.8 290.7 371.95 290.85 372.05 290.95 372.05 291.2 375.65 290.65 377.5 290.7 377.75 290.7 378 290.7 378.25 290.7 378.4 290.85 378.5 290.95 378.5 291.2 379.5 290.5 381.5 290.7 381.75 290.7 382 290.7 382 290.45 382 290.2 382.25 290.2 382.5 290.2 383.95 290.5 385 291.1 385.2 291.2 385.45 291.2 385.45 290.95 385.45 290.7 385.7 290.7 385.95 290.7 386.2 290.7 386.45 290.7 390.05 290.35 392.45 291.15 392.65 291.2 392.9 291.2 392.9 290.95 392.9 290.7 393.15 290.7 393.4 290.7 394.9 290.7 396.35 290.7 396.6 290.7 396.85 290.7 397.1 290.7 397.35 290.7 398.1 290.7 398.85 290.7 399.1 290.7 399.35 290.7 399.35 290.45 399.35 290.2 399.6 290.2 399.7 290.35 399.85 290.45 399.85 290.7 408.5 290.3 403.75 287.85 403.55 287.75 403.3 287.75 403.3 288 403.2 288.05 402.8 288.25 402.35 288.25 402.1 288.25 401.85 288.25 395 288.4 389.95 288.25 389.95 288.5 389.8 288.6 389.7 288.75 389.45 288.75 389.2 288.75 388.95 288.75 381.5 288.75 374.05 288.75 374.05 289 373.95 289.1 373.8 289.25 373.55 289.25 373.3 289.25 373.05 289.25 372.8 289.25 372.55 289.25 372.3 289.25 372.05 289.2 363.9 289 356.7 289.7 356.45 289.7 356.3 289.6 356.2 289.5 356.2 289.25 355.95 289.25 355.7 289.25 350.6 290.1 344.3 289.7 344.3 289.95 344.15 290.1 344.05 290.2 343.8 290.2 343.55 290.2 343.3 290.2 343.05 290.2 342.9 290.1 342.8 289.95 342.8 289.7 342.55 289.7 342.3 289.7 342.3 289.95 342.2 290.1 342.05 290.2 341.8 290.2 341.55 290.2 341.3 290.2 341.05 290.2 340.8 290.2 340.55 290.2 340.3 290.2 340.05 290.2 339.8 290.25 333.5 290.35 327.4 290.7 327.2 290.7 326.95 290.7 Z"/>
</g>
</defs>

<mask id="Mask_Mask_1">
<g transform="matrix( 1, 0, 0, 1, 0,0) ">
<use xlink:href="#Mask_7_MASK_0_FILL"/>
</g>
</mask>

<g mask="url(#Mask_Mask_1)">
<g transform="matrix( 1, 0, 0, 1, 0,0) ">
<use xlink:href="#Layer7_0_FILL"/>
</g>
</g>

<g transform="matrix( 1, 0, 0, 1, 0,0) ">
<use xlink:href="#Layer5_0_FILL"/>
</g>

<g transform="matrix( 1, 0, 0, 1, 0,0) ">
<use xlink:href="#Layer3_0_FILL"/>
</g>

<g transform="matrix( 1, 0, 0, 1, 0,0) ">
<use xlink:href="#Layer1_0_FILL"/>
</g>
</svg>
