
<svg xmlns="http://www.w3.org/2000/svg" version="1.1" xmlns:xlink="http://www.w3.org/1999/xlink" preserveAspectRatio="none" x="0px" y="0px" width="500px" height="500px" viewBox="0 0 500 500">
<defs>
<g id="Layer11_0_FILL">
<path fill="#000000" fill-opacity="0.4470588235294118" stroke="none" d="
M 179.45 317.4
L 178.45 317.4 178.45 317.9 179.45 317.9 179.45 317.4
M 246.95 202.95
L 246.95 202.45 246.45 202.45 246.45 202.95 246.95 202.95
M 232.95 178.45
L 232.95 177.95 232.45 177.95 232.45 178.45 232.95 178.45 Z"/>

<path fill="#000000" fill-opacity="0.4549019607843137" stroke="none" d="
M 175.45 316.9
L 174.95 316.9 174.95 317.4 175.45 317.4 175.45 316.9
M 204.95 304.45
L 204.45 304.45 204.45 304.95 204.95 304.95 204.95 304.45 Z"/>

<path fill="#000000" fill-opacity="0.43529411764705883" stroke="none" d="
M 174.45 315.4
L 175.45 315.4 175.45 314.9 174.45 314.9 174.45 315.4
M 235.45 180.95
L 235.45 180.45 234.95 180.45 234.95 180.95 235.45 180.95
M 198.95 158.95
L 198.95 158.45 198.45 158.45 198.45 158.95 198.95 158.95
M 196.45 158.45
L 196.45 157.95 195.95 157.95 195.95 158.45 196.45 158.45 Z"/>

<path fill="#000000" fill-opacity="0.4196078431372549" stroke="none" d="
M 197.45 311.9
L 197.45 311.4 196.95 311.4 196.95 311.9 197.45 311.9 Z"/>

<path fill="#000000" fill-opacity="0.4117647058823529" stroke="none" d="
M 191.95 313.9
L 191.45 313.9 191.45 314.4 191.95 314.4 191.95 313.9
M 240.45 268.95
L 240.45 268.45 239.95 268.45 239.95 268.95 240.45 268.95 Z"/>

<path fill="#000000" fill-opacity="0.4" stroke="none" d="
M 208.45 305.45
L 208.45 304.95 207.95 304.95 207.95 305.45 208.45 305.45
M 217.95 167.45
L 217.95 166.95 217.45 166.95 217.45 167.45 217.95 167.45
M 217.45 166.45
L 216.95 166.45 216.95 166.95 217.45 166.95 217.45 166.45 Z"/>

<path fill="#000000" fill-opacity="0.45098039215686275" stroke="none" d="
M 209.95 303.95
L 209.45 303.95 209.45 304.45 209.95 304.45 209.95 303.95
M 236.95 274.95
L 236.45 274.95 236.45 275.45 236.95 275.45 236.95 274.95
M 247.95 207.95
L 247.95 208.45 248.45 208.45 248.45 207.95 247.95 207.95 Z"/>

<path fill="#000000" fill-opacity="0.403921568627451" stroke="none" d="
M 211.45 302.95
L 210.95 302.95 210.95 303.45 211.45 303.45 211.45 302.95
M 197.95 158.95
L 197.95 158.45 197.45 158.45 197.45 158.95 197.95 158.95 Z"/>

<path fill="#000000" fill-opacity="0.4666666666666667" stroke="none" d="
M 218.45 297.85
L 218.45 297.45 217.95 297.45 217.95 297.95 218.25 297.95 218.45 297.85
M 240.95 267.95
L 240.95 267.45 240.45 267.45 240.45 267.95 240.95 267.95
M 249.95 238.95
L 249.95 238.45 249.45 238.45 249.45 238.95 249.95 238.95 Z"/>

<path fill="#000000" fill-opacity="0.4235294117647059" stroke="none" d="
M 223.45 292.45
L 222.95 292.45 222.95 292.95 223.45 292.95 223.45 292.45
M 224.45 291.95
L 224.45 291.45 223.95 291.45 223.95 291.95 224.45 291.95
M 210.45 163.45
L 210.45 162.95 209.95 162.95 209.95 163.45 210.45 163.45 Z"/>

<path fill="#000000" fill-opacity="0.4627450980392157" stroke="none" d="
M 227.95 287.95
L 227.95 287.45 227.45 287.45 227.45 287.95 227.95 287.95
M 242.95 263.95
L 242.95 263.45 242.45 263.45 242.45 263.95 242.95 263.95 Z"/>

<path fill="#000000" fill-opacity="0.44313725490196076" stroke="none" d="
M 229.95 285.45
L 229.95 284.95 229.45 284.95 229.45 285.45 229.95 285.45
M 240.95 189.45
L 241.45 189.45 241.45 188.95 240.95 188.95 240.95 189.45
M 230.45 175.95
L 230.45 175.45 229.95 175.45 229.95 175.95 230.45 175.95
M 215.95 165.95
L 215.45 165.95 215.45 166.45 215.95 166.45 215.95 165.95 Z"/>

<path fill="#000000" fill-opacity="0.43137254901960786" stroke="none" d="
M 245.45 257.45
L 245.45 256.95 244.95 256.95 244.95 257.45 245.45 257.45 Z"/>

<path fill="#000000" fill-opacity="0.4392156862745098" stroke="none" d="
M 247.45 250.95
L 246.95 250.95 246.95 251.45 247.45 251.45 247.45 250.95
M 223.45 171.45
L 223.95 171.45 223.95 170.95 223.45 170.95 223.45 171.45 Z"/>

<path fill="#000000" fill-opacity="0.42745098039215684" stroke="none" d="
M 250.45 222.45
L 250.45 221.95 249.95 221.95 249.95 222.45 250.45 222.45
M 221.45 169.95
L 221.95 169.95 221.95 169.45 221.45 169.45 221.45 169.95
M 182.45 155.95
L 182.95 155.95 182.95 155.45 182.45 155.45 182.45 155.95 Z"/>

<path fill="#000000" fill-opacity="0.396078431372549" stroke="none" d="
M 244.45 195.45
L 244.45 194.95 243.95 194.95 243.95 195.45 244.45 195.45
M 228.95 174.45
L 228.45 174.45 228.45 174.95 228.95 174.95 228.95 174.45 Z"/>

<path fill="#000000" fill-opacity="0.4588235294117647" stroke="none" d="
M 227.95 174.45
L 227.95 173.95 227.45 173.95 227.45 174.45 227.95 174.45 Z"/>

<path fill="#000000" fill-opacity="0.9254901960784314" stroke="none" d="
M 192.45 156.95
L 192.45 157.45 191.95 157.45 191.95 156.95 189.45 156.95 189.45 156.45 185.45 156.45 185.45 155.95 183.95 155.95 183.95 155.45 183.45 155.45 183.45 155.95 182.95 155.95 182.45 155.95 182.45 155.45 177.45 155.45 177.45 154.95 176.55 154.95
Q 176.712890625 156.209765625 176.8 157.45
L 183.95 157.45 183.95 157.95 187.45 157.95 187.45 158.45 190.95 158.45 190.95 158.95 192.95 158.95 192.95 159.45 194.95 159.45 194.95 159.95 197.45 159.95 197.45 160.45 199.45 160.45 199.45 160.95 200.95 160.95 200.95 161.45 201.95 161.45 201.95 161.95 203.45 161.95 203.45 162.45 204.95 162.45 204.95 162.95 205.95 162.95 205.95 163.45 206.95 163.45 206.95 163.95 208.45 163.95 208.45 164.45 209.45 164.45 209.45 164.95 210.95 164.95 210.95 165.45 211.45 165.45 211.45 165.95 212.95 165.95 212.95 166.45 213.45 166.45 213.45 166.95 215.45 166.95 215.45 167.95 216.45 167.95 216.45 168.45 216.95 168.45 216.95 168.95 217.95 168.95 217.95 169.45 219.45 169.45 219.45 169.95 219.95 169.95 219.95 170.45 220.95 170.45 220.95 171.45 221.95 171.45 221.95 171.95 222.95 171.95 222.95 172.45 223.95 172.45 223.95 173.45 224.95 173.45 224.95 173.95 225.45 173.95 225.45 174.45 225.95 174.45 225.95 174.95 226.45 174.95 226.45 175.45 227.45 175.45 227.45 175.95 227.95 175.95 227.95 176.45 228.45 176.45 228.45 176.95 229.45 176.95 229.45 177.45 229.95 177.45 229.95 177.95 230.45 177.95 230.45 178.45 230.95 178.45 230.95 178.95 231.95 178.95 231.95 179.45 232.45 179.45 232.45 179.95 232.95 179.95 232.95 180.45 233.45 180.45 233.45 181.45 233.95 181.45 233.95 181.95 234.45 181.95 234.45 182.45 234.95 182.45 234.95 182.95 235.45 182.95 235.45 183.95 235.95 183.95 235.95 184.45 236.45 184.45 236.45 185.45 236.95 185.45 236.95 185.95 237.45 185.95 237.45 186.45 237.95 186.45 237.95 186.95 238.45 186.95 238.45 187.95 238.95 187.95 238.95 188.45 239.45 188.45 239.45 189.45 239.95 189.45 239.95 190.95 240.45 190.95 240.45 191.45 240.95 191.45 240.95 191.95 241.45 191.95 241.45 193.45 241.95 193.45 241.95 194.45 242.45 194.45 242.45 195.95 242.95 195.95 242.95 196.95 243.45 196.95 243.45 198.45 243.95 198.45 243.95 199.95 244.45 199.95 244.45 201.45 244.95 201.45 244.95 202.95 245.45 202.95 245.45 204.95 245.95 204.95 245.95 207.45 246.45 207.45 246.45 208.95 246.95 208.95 246.95 210.95 247.45 210.95 247.45 213.95 247.95 213.95 247.95 217.45 248.45 217.45 248.45 222.45 248.95 222.45 248.95 225.45 248.45 225.45 248.45 225.95 248.95 225.95 248.95 232.45 248.45 232.45 248.45 232.95 248.95 232.95 248.95 233.95 248.45 233.95 248.45 237.45 247.95 237.45 247.95 240.95 247.45 240.95 247.45 244.45 246.95 244.45 246.95 246.45 246.45 246.45 246.45 248.95 245.95 248.95 245.95 250.45 245.45 250.45 245.45 251.95 244.95 251.95 244.95 253.45 244.45 253.45 244.45 254.95 243.95 254.95 243.95 256.45 243.45 256.45 243.45 257.45 242.95 257.45 242.95 259.45 242.45 259.45 242.45 260.45 241.95 260.45 241.95 261.45 241.45 261.45 241.45 262.45 240.95 262.45 240.95 263.45 240.45 263.45 240.45 264.95 239.95 264.95 239.95 265.95 239.45 265.95 239.45 266.95 238.95 266.95 238.95 267.95 238.45 267.95 238.45 268.95 237.95 268.95 237.95 269.95 237.45 269.95 237.45 270.45 236.95 270.45 236.95 271.45 236.45 271.45 236.45 272.45 235.95 272.45 235.95 272.95 235.45 272.95 235.45 273.95 234.95 273.95 234.95 274.95 234.45 274.95 234.45 275.45 233.95 275.45 233.95 276.45 233.45 276.45 233.45 276.95 232.95 276.95 232.95 277.95 232.45 277.95 232.45 278.45 231.95 278.45 231.95 279.45 231.45 279.45 231.45 279.95 230.95 279.95 230.95 280.95 230.45 280.95 230.45 281.45 229.95 281.45 229.95 281.95 229.45 281.95 229.45 282.95 228.95 282.95 228.95 283.45 228.45 283.45 228.45 283.95 227.95 283.95 227.95 284.45 227.45 284.45 227.45 285.45 226.95 285.45 226.95 285.95 226.45 285.95 226.45 286.45 225.95 286.45 225.95 286.95 225.45 286.95 225.45 287.45 224.95 287.45 224.95 288.45 224.45 288.45 224.45 288.95 223.95 288.95 223.95 289.45 223.45 289.45 223.45 289.95 222.95 289.95 222.95 290.45 222.45 290.45 222.45 290.95 221.95 290.95 221.95 291.45 221.45 291.45 221.45 291.95 220.95 291.95 220.95 292.45 220.45 292.45 220.45 292.95 219.95 292.95 219.95 293.45 219.45 293.45 219.45 293.95 218.95 293.95 218.95 294.45 218.45 294.45 218.45 294.95 217.95 294.95 217.95 295.45 217.45 295.45 217.45 295.95 216.45 295.95 216.45 295.35 216.2 295.7 215.6 295.9 215.35 296.3 214.95 296.6 214.95 297.45 214.45 297.45 214.45 297.95 213.95 297.95 213.95 298.45 213.45 298.45 213.45 298.95 212.95 298.95 212.95 299.45 212.45 299.45 212.45 299.95 211.45 299.95 211.45 300.45 210.45 300.45 210.45 300.95 209.95 300.95 209.95 301.45 209.45 301.45 209.45 301.95 208.45 301.95 208.45 302.45 207.95 302.45 207.95 302.95 206.95 302.95 206.95 303.45 206.45 303.45 206.45 303.95 205.45 303.95 205.45 304.45 204.95 304.45 204.95 304.95 204.45 304.95 203.95 304.95 203.95 305.45 202.95 305.45 202.95 305.95 201.95 305.95 201.95 306.45 200.95 306.45 200.95 306.95 200.45 306.95 200.45 307.45 199.45 307.45 199.45 307.9 198.45 307.9 198.45 308.4 197.95 308.4 197.95 308.9 196.95 308.9 196.95 309.4 195.95 309.4 195.95 309.9 194.95 309.9 194.95 310.4 193.95 310.4 193.95 310.9 192.95 310.9 192.95 311.4 191.45 311.4 191.45 311.9 189.95 311.9 189.95 312.4 188.95 312.4 188.95 312.9 187.95 312.9 187.95 313.4 185.95 313.4 185.95 313.9 183.95 313.9 183.95 314.4 182.45 314.4 182.45 314.9 179.95 314.9 179.95 315.4 179.45 315.4 179.45 314.9 178.45 314.9 178.45 315.4 175.45 315.4 174.45 315.4 173.95 315.4 173.95 314.9 173.45 314.9 173.45 315.9 173.95 315.9 173.95 316.4 174.45 316.4 174.45 316.9 174.95 316.9 175.45 316.9 175.45 317.4 177.95 317.4 177.95 317.9 178.45 317.9 178.45 317.4 179.45 317.4 182.45 317.4 182.45 316.9 184.45 316.9 184.45 316.4 185.95 316.4 185.95 315.9 187.45 315.9 187.45 315.4 188.95 315.4 188.95 314.9 190.45 314.9 190.45 314.4 191.45 314.4 191.45 313.9 191.95 313.9 192.45 313.9 192.45 313.4 193.95 313.4 193.95 312.9 194.95 312.9 194.95 312.4 195.95 312.4 195.95 311.9 196.95 311.9 196.95 311.4 197.45 311.4 197.95 311.4 197.95 310.9 198.95 310.9 198.95 310.4 199.95 310.4 199.95 309.9 200.95 309.9 200.95 309.4 201.45 309.4 201.45 308.9 202.45 308.9 202.45 308.4 203.45 308.4 203.45 307.9 203.95 307.9 203.95 307.45 204.95 307.45 204.95 306.95 205.95 306.95 205.95 306.45 206.45 306.45 206.45 305.95 207.45 305.95 207.45 305.45 207.95 305.45 207.95 304.95 208.45 304.95 208.95 304.95 208.95 304.45 209.45 304.45 209.45 303.95 209.95 303.95 210.45 303.95 210.45 303.45 210.95 303.45 210.95 302.95 211.45 302.95 211.95 302.95 211.95 302.45 212.45 302.45 212.45 301.95 212.95 301.95 212.95 301.45 213.95 301.45 213.95 300.95 214.45 300.95 214.45 300.45 214.95 300.45 214.95 299.95 215.95 299.95 215.95 299.45 216.25 299.45 216.4 299.05 216.85 298.6 217.95 298.1 217.95 297.95 217.95 297.45 218.45 297.45 218.95 297.45 218.95 296.95 219.45 296.95 219.45 296.45 219.95 296.45 219.95 295.95 220.45 295.95 220.45 294.95 220.95 294.95 220.95 294.45 221.45 294.45 221.45 293.95 221.95 293.95 221.95 293.45 222.45 293.45 222.45 292.95 222.95 292.95 222.95 292.45 223.45 292.45 223.45 291.95 223.95 291.95 223.95 291.45 224.45 291.45 224.45 290.45 224.95 290.45 224.95 289.95 225.95 289.95 225.95 289.45 226.45 289.45 226.45 288.95 226.95 288.95 226.95 288.45 227.45 288.45 227.45 287.95 227.45 287.45 227.95 287.45 227.95 286.95 228.45 286.95 228.45 286.45 228.95 286.45 228.95 285.95 229.45 285.95 229.45 285.45 229.45 284.95 229.95 284.95 229.95 284.45 230.45 284.45 230.45 283.45 230.95 283.45 230.95 282.95 231.45 282.95 231.45 282.45 231.95 282.45 231.95 281.95 232.45 281.95 232.45 280.95 232.95 280.95 232.95 280.45 233.45 280.45 233.45 279.95 233.95 279.95 233.95 278.95 234.45 278.95 234.45 277.95 234.95 277.95 234.95 277.45 235.45 277.45 235.45 275.95 235.95 275.95 235.95 275.45 236.45 275.45 236.45 274.95 236.95 274.95 236.95 273.95 237.45 273.95 237.45 273.45 237.95 273.45 237.95 272.45 238.45 272.45 238.45 271.95 238.95 271.95 238.95 270.95 239.45 270.95 239.45 269.95 239.95 269.95 239.95 268.95 239.95 268.45 240.45 268.45 240.45 267.95 240.45 267.45 240.95 267.45 240.95 266.95 241.45 266.95 241.45 265.95 241.95 265.95 241.95 264.95 242.45 264.95 242.45 263.95 242.45 263.45 242.95 263.45 242.95 262.45 243.45 262.45 243.45 260.95 243.95 260.95 243.95 259.95 244.45 259.95 244.45 258.95 244.95 258.95 244.95 257.45 244.95 256.95 245.45 256.95 245.45 255.95 245.95 255.95 245.95 253.95 246.45 253.95 246.45 252.95 246.95 252.95 246.95 252.45 246.45 252.45 246.45 251.95 246.95 251.95 246.95 251.45 246.95 250.95 247.45 250.95 247.45 249.95 247.95 249.95 247.95 247.95 248.45 247.95 248.45 245.95 248.95 245.95 248.95 242.45 249.45 242.45 249.45 238.95 249.45 238.45 249.95 238.45 249.95 232.95 250.45 232.95 250.45 223.45 249.95 223.45 249.95 222.45 249.95 221.95 250.45 221.95 250.45 220.95 249.95 220.95 249.95 217.45 249.45 217.45 249.45 213.45 248.95 213.45 248.95 210.45 248.45 210.45 248.45 208.45 247.95 208.45 247.95 207.95 247.95 205.95 247.45 205.95 247.45 204.45 246.95 204.45 246.95 202.95 246.45 202.95 246.45 202.45 246.45 200.95 245.95 200.95 245.95 199.45 245.45 199.45 245.45 197.95 244.95 197.95 244.95 196.45 244.45 196.45 244.45 195.45 243.95 195.45 243.95 194.95 243.95 193.95 243.45 193.95 243.45 192.95 242.95 192.95 242.95 191.95 242.45 191.95 242.45 190.95 241.95 190.95 241.95 189.95 241.45 189.95 241.45 189.45 240.95 189.45 240.95 188.95 240.95 188.45 240.45 188.45 240.45 187.45 239.95 187.45 239.95 186.95 239.45 186.95 239.45 185.95 238.95 185.95 238.95 185.45 238.45 185.45 238.45 184.45 237.95 184.45 237.95 183.95 237.45 183.95 237.45 183.45 236.95 183.45 236.95 182.45 236.45 182.45 236.45 181.95 235.95 181.95 235.95 181.45 235.45 181.45 235.45 180.95 234.95 180.95 234.95 180.45 234.45 180.45 234.45 179.45 233.95 179.45 233.95 178.95 233.45 178.95 233.45 178.45 232.95 178.45 232.45 178.45 232.45 177.95 232.45 177.45 231.95 177.45 231.95 176.95 230.95 176.95 230.95 176.45 230.45 176.45 230.45 175.95 229.95 175.95 229.95 175.45 229.45 175.45 229.45 174.95 228.95 174.95 228.45 174.95 228.45 174.45 227.95 174.45 227.45 174.45 227.45 173.95 227.45 173.45 226.95 173.45 226.95 172.95 226.45 172.95 226.45 172.45 225.45 172.45 225.45 171.95 224.95 171.95 224.95 171.45 223.95 171.45 223.45 171.45 223.45 170.95 222.95 170.95 222.95 170.45 222.45 170.45 222.45 169.95 221.95 169.95 221.45 169.95 221.45 169.45 220.45 169.45 220.45 168.95 219.95 168.95 219.95 168.45 219.45 168.45 219.45 167.95 218.45 167.95 218.45 167.45 217.95 167.45 217.45 167.45 217.45 166.95 216.95 166.95 216.95 166.45 215.95 166.45 215.45 166.45 215.45 165.95 214.95 165.95 214.95 165.45 213.95 165.45 213.95 164.95 212.95 164.95 212.95 164.45 211.95 164.45 211.95 163.95 210.95 163.95 210.95 163.45 210.45 163.45 209.95 163.45 209.95 162.95 208.95 162.95 208.95 162.45 207.95 162.45 207.95 161.95 206.45 161.95 206.45 161.45 205.95 161.45 205.95 160.95 204.45 160.95 204.45 160.45 202.45 160.45 202.45 159.95 200.95 159.95 200.95 159.45 199.45 159.45 199.45 158.95 198.95 158.95 198.45 158.95 197.95 158.95 197.45 158.95 197.45 158.45 196.45 158.45 195.95 158.45 195.95 157.95 193.95 157.95 193.95 157.45 192.95 157.45 192.95 156.95 192.45 156.95 Z"/>

<path fill="#000000" fill-opacity="0.40784313725490196" stroke="none" d="
M 192.45 157.45
L 192.45 156.95 191.95 156.95 191.95 157.45 192.45 157.45 Z"/>
</g>

<g id="Layer9_0_FILL">
<path fill="#000000" fill-opacity="0.4549019607843137" stroke="none" d="
M 110.45 326.9
L 110.45 327.4 110.95 327.4 110.95 326.9 110.45 326.9
M 62 219.45
L 61.5 219.45 61.5 219.95 62 219.95 62 219.45
M 107.95 172.95
L 107.5 172.95 107.5 173.45 107.95 173.45 107.95 172.95 Z"/>

<path fill="#000000" fill-opacity="0.42745098039215684" stroke="none" d="
M 115.45 325.9
L 115.45 325.4 114.95 325.4 114.95 325.9 115.45 325.9
M 53 293.45
L 52.5 293.45 52.5 293.95 53 293.95 53 293.45
M 55.5 230.95
L 55.5 231.45 56 231.45 56 230.95 55.5 230.95
M 102 176.45
L 102 176.95 102.5 176.95 102.5 176.45 102 176.45 Z"/>

<path fill="#000000" fill-opacity="0.403921568627451" stroke="none" d="
M 58.5 305.45
L 58.5 304.95 58 304.95 58 305.45 58.5 305.45
M 67.5 316.9
L 67.5 316.4 67 316.4 67 316.9 67.5 316.9
M 53 294.95
L 53 295.45 53.5 295.45 53.5 294.95 53 294.95
M 50.5 287.45
L 50.5 287.95 51 287.95 51 287.45 50.5 287.45
M 99 178.95
L 98.5 178.95 98.5 179.45 99 179.45 99 178.95 Z"/>

<path fill="#000000" fill-opacity="0.4" stroke="none" d="
M 56.5 301.45
L 56 301.45 56 301.95 56.5 301.95 56.5 301.45
M 61.5 310.4
L 62 310.4 62 309.9 61.5 309.9 61.5 310.4 Z"/>

<path fill="#000000" fill-opacity="0.40784313725490196" stroke="none" d="
M 66.5 315.9
L 66.5 316.4 67 316.4 67 315.9 66.5 315.9
M 57 229.45
L 57 228.95 56.5 228.95 56.5 229.45 57 229.45 Z"/>

<path fill="#000000" fill-opacity="0.43529411764705883" stroke="none" d="
M 68.5 317.9
L 68.5 317.4 68 317.4 68 317.9 68.5 317.9
M 64 312.4
L 63.5 312.4 63.5 312.9 64 312.9 64 312.4 Z"/>

<path fill="#000000" fill-opacity="0.45098039215686275" stroke="none" d="
M 69 318.4
L 69 317.9 68.5 317.9 68.5 318.4 69 318.4
M 53.5 237.45
L 53.5 236.95 53 236.95 53 237.45 53.5 237.45
M 67 212.45
L 67 211.95 66.5 211.95 66.5 212.45 67 212.45 Z"/>

<path fill="#000000" fill-opacity="0.44313725490196076" stroke="none" d="
M 61 308.9
L 61 308.4 60.5 308.4 60.5 308.9 61 308.9 Z"/>

<path fill="#000000" fill-opacity="0.4392156862745098" stroke="none" d="
M 51 289.95
L 51.5 289.95 51.5 289.45 51 289.45 51 289.95 Z"/>

<path fill="#000000" fill-opacity="0.396078431372549" stroke="none" d="
M 49 282.95
L 49.5 282.95 49.5 282.45 49 282.45 49 282.95 Z"/>

<path fill="#000000" fill-opacity="0.4666666666666667" stroke="none" d="
M 48.5 279.45
L 48.5 279.95 49 279.95 49 279.45 48.5 279.45 Z"/>

<path fill="#000000" fill-opacity="0.4470588235294118" stroke="none" d="
M 47.5 262.95
L 47 262.95 47 265.95 47.5 265.95 47.5 262.95
M 147.95 156.95
L 147.45 156.95 147.45 157.45 147.95 157.45 147.95 156.95 Z"/>

<path fill="#000000" fill-opacity="0.6196078431372549" stroke="none" d="
M 47.5 258.95
L 48 258.95 48 257.45 47.5 257.45 47.5 258.95 Z"/>

<path fill="#000000" fill-opacity="0.4117647058823529" stroke="none" d="
M 49 248.45
L 49 248.95 49.5 248.95 49.5 248.45 49 248.45
M 59 224.95
L 58.5 224.95 58.5 225.45 59 225.45 59 224.95
M 60.5 222.45
L 60 222.45 60 222.95 60.5 222.95 60.5 222.45 Z"/>

<path fill="#000000" fill-opacity="0.41568627450980394" stroke="none" d="
M 55.5 231.95
L 55 231.95 55 232.45 55.5 232.45 55.5 231.95 Z"/>

<path fill="#000000" fill-opacity="0.4235294117647059" stroke="none" d="
M 61 221.95
L 61 221.45 60.5 221.45 60.5 221.95 61 221.95
M 94.5 181.95
L 94.5 182.45 95 182.45 95 181.95 94.5 181.95 Z"/>

<path fill="#000000" fill-opacity="0.43137254901960786" stroke="none" d="
M 61 220.45
L 61 220.95 61.5 220.95 61.5 220.45 61 220.45
M 77 199.45
L 76.5 199.45 76.5 199.95 77 199.95 77 199.45 Z"/>

<path fill="#000000" fill-opacity="0.4627450980392157" stroke="none" d="
M 68.5 209.95
L 68 209.95 68 210.45 68.5 210.45 68.5 209.95 Z"/>

<path fill="#000000" fill-opacity="0.4588235294117647" stroke="none" d="
M 104.5 175.45
L 105 175.45 105 174.95 104.5 174.95 104.5 175.45
M 91.5 185.45
L 91.5 184.95 91 184.95 91 185.45 91.5 185.45 Z"/>

<path fill="#000000" fill-opacity="0.9254901960784314" stroke="none" d="
M 80 195.95
L 80 196.45 79.5 196.45 79.5 196.95 79 196.95 79 197.45 78.5 197.45 78.5 197.95 78 197.95 78 198.45 77.5 198.45 77.5 198.95 77 198.95 77 199.45 77 199.95 76.5 199.95 76 199.95 76 200.45 75.5 200.45 75.5 201.45 75 201.45 75 201.95 74.5 201.95 74.5 202.45 74 202.45 74 202.95 73.5 202.95 73.5 203.45 73 203.45 73 204.45 72.5 204.45 72.5 204.95 72 204.95 72 205.45 71.5 205.45 71.5 206.45 71 206.45 71 206.95 70.5 206.95 70.5 207.45 70 207.45 70 207.95 69.5 207.95 69.5 208.95 69 208.95 69 209.45 68.5 209.45 68.5 209.95 68.5 210.45 68 210.45 68 210.95 67.5 210.95 67.5 211.45 67 211.45 67 211.95 67 212.45 66.5 212.45 66.5 212.95 66 212.95 66 213.95 65.5 213.95 65.5 214.45 65 214.45 65 215.45 64.5 215.45 64.5 215.95 64 215.95 64 216.45 63.5 216.45 63.5 217.45 63 217.45 63 217.95 62.5 217.95 62.5 218.95 62 218.95 62 219.45 62 219.95 61.5 219.95 61.5 220.45 61.5 220.95 61 220.95 61 221.45 61 221.95 60.5 221.95 60.5 222.45 60.5 222.95 60 222.95 60 223.95 59.5 223.95 59.5 224.45 59 224.45 59 224.95 59 225.45 58.5 225.45 58.5 225.95 58 225.95 58 226.95 57.5 226.95 57.5 227.95 57 227.95 57 228.95 57 229.45 56.5 229.45 56.5 229.95 56 229.95 56 230.95 56 231.45 55.5 231.45 55.5 231.95 55.5 232.45 55 232.45 55 232.95 54.5 232.95 54.5 234.45 54 234.45 54 235.95 53.5 235.95 53.5 236.95 53.5 237.45 53 237.45 53 238.45 52.5 238.45 52.5 239.45 52 239.45 52 240.95 51.5 240.95 51.5 242.45 51 242.45 51 243.95 50.5 243.95 50.5 245.45 50 245.45 50 247.45 49.5 247.45 49.5 248.45 49.5 248.95 49 248.95 49 250.95 48.5 250.95 48.5 254.45 48 254.45 48 257.45 48 258.95 47.5 258.95 47.5 262.95 47.5 265.95 47.5 272.95 48 272.95 48 276.45 48.5 276.45 48.5 279.45 49 279.45 49 279.95 49 282.45 49.5 282.45 49.5 282.95 49.5 285.45 50 285.45 50 286.95 50.5 286.95 50.5 287.45 51 287.45 51 287.95 51 289.45 51.5 289.45 51.5 289.95 51.5 290.95 52 290.95 52 292.95 52.5 292.95 52.5 293.45 53 293.45 53 293.95 53 294.95 53.5 294.95 53.5 295.45 53.5 296.45 54 296.45 54 297.45 54.5 297.45 54.5 298.45 55 298.45 55 299.45 55.5 299.45 55.5 300.45 56 300.45 56 301.45 56.5 301.45 56.5 301.95 56.5 302.45 57 302.45 57 303.45 57.5 303.45 57.5 304.45 58 304.45 58 304.95 58.5 304.95 58.5 305.45 58.5 305.95 59 305.95 59 306.45 59.5 306.45 59.5 307.45 60 307.45 60 308.4 60.5 308.4 61 308.4 61 308.9 61 309.4 61.5 309.4 61.5 309.9 62 309.9 62 310.4 62 310.9 62.5 310.9 62.5 311.4 63 311.4 63 311.9 63.5 311.9 63.5 312.4 64 312.4 64 312.9 64 313.4 64.5 313.4 64.5 313.9 65 313.9 65 314.4 65.5 314.4 65.5 314.9 66 314.9 66 315.4 66.5 315.4 66.5 315.9 67 315.9 67 316.4 67.5 316.4 67.5 316.9 68 316.9 68 317.4 68.5 317.4 68.5 317.9 69 317.9 69 318.4 69.5 318.4 69.5 318.9 70 318.9 70 319.4 70.5 319.4 70.5 319.9 71 319.9 71 320.4 72 320.4 72 320.9 72.5 320.9 72.5 321.4 73 321.4 73 321.9 74 321.9 74 322.4 74.5 322.4 74.5 322.9 75.5 322.9 75.5 323.4 76 323.4 76 323.9 77 323.9 77 324.4 77.5 324.4 77.5 324.9 78.5 324.9 78.5 325.4 79 325.4 79 325.9 80 325.9 80 326.4 81.5 326.4 81.5 326.9 82 326.9 82 327.4 83.5 327.4 83.5 327.9 85.5 327.9 85.5 328.4 87.5 328.4 87.5 328.9 102 328.9 102 328.4 105.5 328.4 105.5 327.9 107.5 327.9 107.5 327.4 110.45 327.4 110.45 326.9 110.95 326.9 112.45 326.9 112.45 326.4 113.95 326.4 113.95 325.9 114.95 325.9 114.95 325.4 115.45 325.4 118.45 325.4 118.45 324.9 119.45 324.9 119.45 324.4 120.45 324.4 120.45 323.9 120.8 323.9
Q 121.390234375 322.6576171875 121.9 321.4
L 121.45 321.4 121.45 321.9 120.45 321.9 120.45 322.4 118.95 322.4 118.95 322.9 116.95 322.9 116.95 323.4 114.95 323.4 114.95 323.9 113.95 323.9 113.95 324.4 111.95 324.4 111.95 324.9 109.45 324.9 109.45 325.4 107.5 325.4 107.5 325.9 104.5 325.9 104.5 326.4 102 326.4 102 326.9 98.5 326.9 98.5 327.4 98 327.4 98 326.9 90 326.9 90 326.4 89.5 326.4 89.5 326.9 88 326.9 88 326.4 86 326.4 86 325.9 85.5 325.9 85.5 325.4 83 325.4 83 324.9 82.5 324.9 82.5 324.4 81.5 324.4 81.5 323.9 80.5 323.9 80.5 323.4 79 323.4 79 322.9 78.5 322.9 78.5 322.4 78 322.4 78 321.9 77 321.9 77 321.4 76.5 321.4 76.5 320.9 76 320.9 76 320.4 75 320.4 75 319.9 74 319.9 74 319.4 73.5 319.4 73.5 318.9 73 318.9 73 318.4 71.5 318.4 71.5 317.9 71 317.9 71 316.9 70.5 316.9 70.5 316.4 70 316.4 70 315.9 69.5 315.9 69.5 315.4 69 315.4 69 314.9 68.5 314.9 68.5 314.4 67.5 314.4 67.5 313.4 67 313.4 67 312.9 66.5 312.9 66.5 312.4 66 312.4 66 311.9 65.5 311.9 65.5 311.4 65 311.4 65 310.4 64.5 310.4 64.5 309.9 64 309.9 64 309.4 63.5 309.4 63.5 308.9 63 308.9 63 307.9 62.5 307.9 62.5 307.45 62 307.45 62 306.95 61.5 306.95 61.5 306.45 61 306.45 61 305.95 60.5 305.95 60.5 304.95 60 304.95 60 303.95 59.5 303.95 59.5 303.45 59 303.45 59 302.95 58.5 302.95 58.5 301.45 58 301.45 58 300.45 57.5 300.45 57.5 299.45 57 299.45 57 298.45 56.5 298.45 56.5 297.45 56 297.45 56 296.45 55.5 296.45 55.5 295.95 55 295.95 55 293.95 54.5 293.95 54.5 293.45 54 293.45 54 291.45 53.5 291.45 53.5 290.45 53 290.45 53 288.95 52.5 288.95 52.5 286.95 52 286.95 52 285.45 51.5 285.45 51.5 283.45 51 283.45 51 282.95 51.5 282.95 51.5 282.45 51 282.45 51 280.95 50.5 280.95 50.5 279.45 50 279.45 50 277.95 50.5 277.95 50.5 276.95 50 276.95 50 274.95 49.5 274.95 49.5 274.45 50 274.45 50 273.95 49.5 273.95 49.5 266.45 49 266.45 49 262.45 49.5 262.45 49.5 256.95 50 256.95 50 254.95 50.5 254.95 50.5 251.45 51 251.45 51 249.45 51.5 249.45 51.5 248.45 52 248.45 52 245.95 52.5 245.95 52.5 245.45 53 245.45 53 243.45 53.5 243.45 53.5 242.45 54 242.45 54 240.95 54.5 240.95 54.5 239.45 55 239.45 55 237.95 55.5 237.95 55.5 236.45 56 236.45 56 235.45 56.5 235.45 56.5 234.45 57 234.45 57 232.95 57.5 232.95 57.5 231.95 58 231.95 58 230.95 58.5 230.95 58.5 229.95 59 229.95 59 228.45 59.5 228.45 59.5 227.45 60 227.45 60 226.95 60.5 226.95 60.5 225.95 61 225.95 61 225.45 61.5 225.45 61.5 223.95 62 223.95 62 223.45 62.5 223.45 62.5 222.45 63 222.45 63 221.95 63.5 221.95 63.5 221.45 64 221.45 64 220.45 64.5 220.45 64.5 219.45 65 219.45 65 218.45 65.5 218.45 65.5 217.95 66 217.95 66 216.95 66.5 216.95 66.5 215.95 67 215.95 67 215.45 67.5 215.45 67.5 214.95 68 214.95 68 213.95 68.5 213.95 68.5 213.45 69 213.45 69 212.45 69.5 212.45 69.5 211.95 70 211.95 70 211.45 70.5 211.45 70.5 210.45 71 210.45 71 209.95 71.5 209.95 71.5 208.95 72.5 208.95 72.5 208.45 73 208.45 73 207.45 73.5 207.45 73.5 206.95 74 206.95 74 205.95 74.5 205.95 74.5 205.45 75 205.45 75 204.95 75.5 204.95 75.5 204.45 76 204.45 76 203.95 76.5 203.95 76.5 202.95 77 202.95 77 202.45 77.5 202.45 77.5 201.45 78 201.45 78 200.95 79 200.95 79 200.45 79.5 200.45 79.5 199.45 80 199.45 80 198.95 80.5 198.95 80.5 198.45 81 198.45 81 197.95 81.5 197.95 81.5 197.45 82 197.45 82 196.95 82.5 196.95 82.5 196.45 83 196.45 83 195.95 83.5 195.95 83.5 195.45 84 195.45 84 194.95 84.5 194.95 84.5 194.45 85 194.45 85 193.95 85.5 193.95 85.5 192.95 86 192.95 86 192.45 86.5 192.45 86.5 191.95 87.5 191.95 87.5 191.45 88 191.45 88 190.95 88.5 190.95 88.5 190.45 89 190.45 89 189.95 89.5 189.95 89.5 189.45 90 189.45 90 188.95 90.5 188.95 90.5 188.45 91 188.45 91 187.95 92 187.95 92 187.45 92.5 187.45 92.5 186.95 93 186.95 93 186.45 93.5 186.45 93.5 185.95 94 185.95 94 185.45 95 185.45 95 184.95 95.5 184.95 95.5 184.45 96 184.45 96 183.95 97 183.95 97 183.45 97.5 183.45 97.5 182.95 98 182.95 98 182.45 98.5 182.45 98.5 181.95 99.5 181.95 99.5 181.45 100 181.45 100 180.95 100.5 180.95 100.5 180.45 101.5 180.45 101.5 179.95 102 179.95 102 179.45 102.5 179.45 102.5 178.95 103.5 178.95 103.5 178.45 104 178.45 104 177.95 105 177.95 105 177.45 106 177.45 106 176.95 106.5 176.95 106.5 176.45 107.5 176.45 107.5 175.95 107.95 175.95 107.95 175.45 108.95 175.45 108.95 174.95 109.45 174.95 109.45 174.45 109.95 174.45 109.95 173.95 111.45 173.95 111.45 173.45 112.45 173.45 112.45 172.95 113.45 172.95 113.45 172.45 113.95 172.45 113.95 171.95 114.95 171.95 114.95 171.45 115.45 171.45 115.45 170.95 116.95 170.95 116.95 170.45 117.95 170.45 117.95 169.95 118.95 169.95 118.95 169.45 119.95 169.45 119.95 168.95 120.95 168.95 120.95 168.45 121.95 168.45 121.95 167.95 123.45 167.95 123.45 167.45 124.45 167.45 124.45 166.95 125.95 166.95 125.95 166.45 126.95 166.45 126.95 165.95 127.95 165.95 127.95 165.45 129.45 165.45 129.45 164.95 130.95 164.95 130.95 164.45 131.95 164.45 131.95 163.95 133.45 163.95 133.45 163.45 134.45 163.45 134.45 162.95 135.45 162.95 135.45 162.45 136.95 162.45 136.95 161.95 138.45 161.95 138.45 161.45 140.45 161.45 140.45 160.95 142.95 160.95 142.95 160.45 144.45 160.45 144.45 159.95 145.95 159.95 145.95 159.45 147.95 159.45 147.95 158.95 150.85 158.95
Q 150.901953125 158.7998046875 150.95 158.65
L 150.95 158.45 151 158.45
Q 151.35390625 157.4376953125 151.75 156.45
L 150.45 156.45 150.45 156.95 147.95 156.95 147.95 157.45 147.45 157.45 145.45 157.45 145.45 157.95 143.45 157.95 143.45 158.45 141.45 158.45 141.45 158.95 139.95 158.95 139.95 159.45 137.95 159.45 137.95 159.95 136.45 159.95 136.45 160.45 134.95 160.45 134.95 160.95 133.95 160.95 133.95 161.45 132.45 161.45 132.45 161.95 131.45 161.95 131.45 162.45 129.95 162.45 129.95 162.95 128.45 162.95 128.45 163.45 126.95 163.45 126.95 163.95 125.45 163.95 125.45 164.45 124.45 164.45 124.45 164.95 123.45 164.95 123.45 165.45 122.45 165.45 122.45 165.95 120.95 165.95 120.95 166.45 119.95 166.45 119.95 166.95 118.95 166.95 118.95 167.45 117.95 167.45 117.95 167.95 116.95 167.95 116.95 168.45 115.95 168.45 115.95 168.95 114.45 168.95 114.45 169.45 113.95 169.45 113.95 169.95 112.95 169.95 112.95 170.45 111.95 170.45 111.95 170.95 110.95 170.95 110.95 171.45 110.45 171.45 110.45 171.95 109.45 171.95 109.45 172.45 108.45 172.45 108.45 172.95 107.95 172.95 107.95 173.45 107.5 173.45 107 173.45 107 173.95 106 173.95 106 174.45 105.5 174.45 105.5 174.95 105 174.95 105 175.45 104.5 175.45 104 175.45 104 175.95 103 175.95 103 176.45 102.5 176.45 102.5 176.95 102 176.95 101.5 176.95 101.5 177.45 101 177.45 101 177.95 100 177.95 100 178.45 99.5 178.45 99.5 178.95 99 178.95 99 179.45 98.5 179.45 98 179.45 98 179.95 97.5 179.95 97.5 180.45 97 180.45 97 180.95 96 180.95 96 181.45 95.5 181.45 95.5 181.95 95 181.95 95 182.45 94.5 182.45 94 182.45 94 182.95 93.5 182.95 93.5 183.45 93 183.45 93 183.95 92.5 183.95 92.5 184.45 92 184.45 92 184.95 91.5 184.95 91.5 185.45 91 185.45 90.5 185.45 90.5 185.95 90 185.95 90 186.45 89.5 186.45 89.5 186.95 89 186.95 89 187.45 88.5 187.45 88.5 187.95 88 187.95 88 188.45 87.5 188.45 87.5 188.95 86.5 188.95 86.5 189.45 86 189.45 86 189.95 85.5 189.95 85.5 190.45 85 190.45 85 190.95 84.5 190.95 84.5 191.45 84 191.45 84 191.95 83.5 191.95 83.5 192.45 83 192.45 83 192.95 82.5 192.95 82.5 193.45 82 193.45 82 194.45 81.5 194.45 81.5 194.95 80.5 194.95 80.5 195.95 80 195.95 Z"/>
</g>

<g id="Layer9_1_FILL">
<path fill="#000000" fill-opacity="0.9254901960784314" stroke="none" d="
M 150.85 158.95
L 150.95 158.95 150.95 158.65
Q 150.901953125 158.7998046875 150.85 158.95
M 175.95 154.95
L 175.95 155.45 173.45 155.45 173.45 154.95 172.45 154.95 172.45 155.45 171.95 155.45 171.95 154.95 165.95 154.95 165.95 155.45 165.45 155.45 164.95 155.45 164.95 154.95 163.95 154.95 163.95 155.45 163.45 155.45 163.45 154.95 162.95 154.95 162.95 155.45 158.95 155.45 158.95 155.95 153.45 155.95 153.45 156.45 151.75 156.45
Q 151.35390625 157.4376953125 151 158.45
L 154.45 158.45 154.45 157.95 159.95 157.95 159.95 157.45 164.45 157.45 164.45 156.95 174.95 156.95 174.95 157.45 176.8 157.45
Q 176.712890625 156.209765625 176.55 154.95
L 175.95 154.95 Z"/>

<path fill="#000000" fill-opacity="0.4470588235294118" stroke="none" d="
M 163.95 155.45
L 163.95 154.95 163.45 154.95 163.45 155.45 163.95 155.45 Z"/>

<path fill="#000000" fill-opacity="0.396078431372549" stroke="none" d="
M 165.45 155.45
L 165.45 154.95 164.95 154.95 164.95 155.45 165.45 155.45 Z"/>

<path fill="#000000" fill-opacity="0.4549019607843137" stroke="none" d="
M 172.45 155.45
L 172.45 154.95 171.95 154.95 171.95 155.45 172.45 155.45 Z"/>
</g>

<g id="Layer7_0_FILL">
<path fill="#000000" fill-opacity="0.4666666666666667" stroke="none" d="
M 218.25 297.95
L 218.45 297.95 218.45 297.85 218.25 297.95
M 165.45 297.95
L 164.95 297.95 164.95 298.45 165.45 298.45 165.45 297.95
M 225.95 301.45
L 225.95 300.95 225.45 300.95 225.45 301.45 225.95 301.45 Z"/>

<path fill="#000000" fill-opacity="0.4235294117647059" stroke="none" d="
M 209.45 285.95
L 208.95 285.95 208.95 286.45 209.45 286.45 209.45 285.95
M 329.4 297.95
L 329.4 297.45 328.9 297.45 328.9 297.95 329.4 297.95
M 397.4 294.95
L 397.4 295.45 397.9 295.45 397.9 294.95 397.4 294.95
M 389.4 296.45
L 389.4 296.95 389.9 296.95 389.9 296.45 389.4 296.45 Z"/>

<path fill="#000000" fill-opacity="0.43137254901960786" stroke="none" d="
M 204.45 281.45
L 203.95 281.45 203.95 281.95 204.45 281.95 204.45 281.45
M 141.45 314.4
L 141.45 313.9 140.95 313.9 140.95 314.4 141.45 314.4
M 234.95 299.95
L 234.95 299.45 234.45 299.45 234.45 299.95 234.95 299.95
M 435.9 257.45
L 436.4 257.45 436.4 257.4
Q 436.1521484375 257.22890625 435.9 257.05
L 435.9 257.45 Z"/>

<path fill="#000000" fill-opacity="0.4588235294117647" stroke="none" d="
M 183.45 285.95
L 182.95 285.95 182.95 286.45 183.45 286.45 183.45 285.95
M 195.95 280.45
L 195.45 280.45 195.45 280.95 195.95 280.95 195.95 280.45
M 269.95 300.95
L 269.95 300.45 269.45 300.45 269.45 300.95 269.95 300.95
M 376.4 297.95
L 376.9 297.95 376.9 297.45 376.4 297.45 376.4 297.95
M 407.4 291.95
L 406.9 291.95 406.9 292.45 407.4 292.45 407.4 291.95 Z"/>

<path fill="#000000" fill-opacity="0.4549019607843137" stroke="none" d="
M 131.45 319.9
L 131.45 319.4 130.95 319.4 130.95 319.9 131.45 319.9
M 160.95 301.95
L 160.95 301.45 160.45 301.45 160.45 301.95 160.95 301.95
M 229.95 299.45
L 229.45 299.45 229.45 299.95 229.95 299.95 229.95 299.45
M 433.4 265.45
L 433.4 264.95 432.9 264.95 432.9 265.45 433.4 265.45 Z"/>

<path fill="#000000" fill-opacity="0.4627450980392157" stroke="none" d="
M 143.95 312.4
L 143.45 312.4 143.45 312.9 143.95 312.9 143.95 312.4
M 273.45 300.45
L 273.45 299.95 272.95 299.95 272.95 300.45 273.45 300.45
M 277.95 302.95
L 277.45 302.95 277.45 303.45 277.95 303.45 277.95 302.95
M 230.95 299.45
L 230.95 298.95 230.45 298.95 230.45 299.45 230.95 299.45
M 245.45 293.95
L 244.95 293.95 244.95 294.45 245.45 294.45 245.45 293.95 Z"/>

<path fill="#000000" fill-opacity="0.4" stroke="none" d="
M 149.45 308.9
L 148.95 308.9 148.95 309.4 149.45 309.4 149.45 308.9
M 266.95 297.95
L 266.95 297.45 266.45 297.45 266.45 297.95 266.95 297.95
M 243.45 292.45
L 243.45 291.95 242.95 291.95 242.95 292.45 243.45 292.45
M 335.9 293.45
L 335.9 292.95 335.4 292.95 335.4 293.45 335.9 293.45 Z"/>

<path fill="#000000" fill-opacity="0.4196078431372549" stroke="none" d="
M 151.95 307.9
L 151.95 307.45 151.45 307.45 151.45 307.9 151.95 307.9
M 222.95 301.45
L 223.95 301.45 223.95 300.95 222.95 300.95 222.95 301.45
M 345.4 291.95
L 344.9 291.95 344.9 292.45 345.4 292.45 345.4 291.95 Z"/>

<path fill="#000000" fill-opacity="0.396078431372549" stroke="none" d="
M 156.45 303.95
L 156.45 304.45 156.95 304.45 156.95 303.95 156.45 303.95
M 258.45 290.95
L 258.45 290.45 257.95 290.45 257.95 290.95 258.45 290.95
M 367.4 297.95
L 366.9 297.95 366.9 298.45 367.4 298.45 367.4 297.95
M 372.9 297.95
L 372.9 297.45 371.9 297.45 371.9 297.95 372.9 297.95
M 343.9 291.45
L 343.9 290.95 343.4 290.95 343.4 291.45 343.9 291.45
M 413.9 288.45
L 413.4 288.45 413.4 288.95 413.9 288.95 413.9 288.45 Z"/>

<path fill="#000000" fill-opacity="0.9254901960784314" stroke="none" d="
M 161.95 297.95
L 161.95 298.45 160.95 298.45 160.95 298.95 160.45 298.95 160.45 299.45 159.45 299.45 159.45 299.95 158.95 299.95 158.95 300.45 157.95 300.45 157.95 300.95 157.45 300.95 157.45 301.45 156.45 301.45 156.45 301.95 155.95 301.95 155.95 302.45 154.95 302.45 154.95 302.95 154.45 302.95 154.45 303.45 153.95 303.45 153.95 303.95 152.95 303.95 152.95 304.45 152.45 304.45 152.45 304.95 151.95 304.95 151.95 305.45 150.45 305.45 150.45 305.95 149.45 305.95 149.45 306.45 148.95 306.45 148.95 306.95 148.45 306.95 148.45 307.45 147.45 307.45 147.45 307.9 146.95 307.9 146.95 308.4 146.45 308.4 146.45 308.9 145.45 308.9 145.45 309.4 144.95 309.4 144.95 309.9 143.95 309.9 143.95 310.4 142.95 310.4 142.95 310.9 142.45 310.9 142.45 311.4 140.95 311.4 140.95 311.9 139.95 311.9 139.95 312.4 139.45 312.4 139.45 312.9 138.45 312.9 138.45 313.4 137.95 313.4 137.95 313.9 137.45 313.9 137.45 314.4 135.95 314.4 135.95 314.9 134.95 314.9 134.95 315.4 133.95 315.4 133.95 315.9 132.95 315.9 132.95 316.4 132.45 316.4 132.45 316.9 131.95 316.9 131.95 317.4 130.95 317.4 130.95 317.9 129.95 317.9 129.95 318.4 128.45 318.4 128.45 318.9 127.45 318.9 127.45 319.4 126.45 319.4 126.45 319.9 125.45 319.9 125.45 320.4 123.95 320.4 123.95 320.9 122.45 320.9 122.45 321.4 121.9 321.4
Q 121.390234375 322.6576171875 120.8 323.9
L 121.45 323.9 121.45 323.4 123.45 323.4 123.45 322.9 125.45 322.9 125.45 322.4 126.45 322.4 126.45 321.9 126.95 321.9 126.95 321.4 127.95 321.4 127.95 320.9 129.45 320.9 129.45 320.4 130.45 320.4 130.45 319.9 130.95 319.9 130.95 319.4 131.45 319.4 131.95 319.4 131.95 318.9 132.95 318.9 132.95 318.4 133.95 318.4 133.95 317.9 134.95 317.9 134.95 317.4 135.95 317.4 135.95 316.9 136.45 316.9 136.45 316.4 137.45 316.4 137.45 315.9 138.45 315.9 138.45 315.4 139.45 315.4 139.45 314.9 139.95 314.9 139.95 314.4 140.95 314.4 140.95 313.9 141.45 313.9 141.95 313.9 141.95 313.4 142.95 313.4 142.95 312.9 143.45 312.9 143.45 312.4 143.95 312.4 144.45 312.4 144.45 311.9 145.45 311.9 145.45 311.4 146.45 311.4 146.45 310.9 146.95 310.9 146.95 310.4 147.45 310.4 147.45 309.9 147.95 309.9 147.95 309.4 148.95 309.4 148.95 308.9 149.45 308.9 149.95 308.9 149.95 308.4 150.95 308.4 150.95 307.9 151.45 307.9 151.45 307.45 151.95 307.45 152.45 307.45 152.45 306.95 152.95 306.95 152.95 306.45 153.95 306.45 153.95 305.95 154.95 305.95 154.95 305.45 155.45 305.45 155.45 304.95 155.95 304.95 155.95 304.45 156.45 304.45 156.45 303.95 156.95 303.95 157.45 303.95 157.45 303.45 157.95 303.45 157.95 302.95 158.95 302.95 158.95 302.45 159.45 302.45 159.45 301.95 160.45 301.95 160.45 301.45 160.95 301.45 161.45 301.45 161.45 300.95 161.95 300.95 161.95 300.45 162.45 300.45 162.45 299.95 163.45 299.95 163.45 299.45 163.95 299.45 163.95 298.95 164.45 298.95 164.45 298.45 164.95 298.45 164.95 297.95 165.45 297.95 165.95 297.95 165.95 297.45 166.95 297.45 166.95 296.95 167.95 296.95 167.95 296.45 168.45 296.45 168.45 295.95 168.95 295.95 168.95 295.45 169.95 295.45 169.95 294.95 170.45 294.95 170.45 294.45 171.45 294.45 171.45 293.95 171.95 293.95 171.95 293.45 172.95 293.45 172.95 292.95 173.45 292.95 173.45 292.45 173.95 292.45 173.95 291.95 174.95 291.95 174.95 291.45 175.45 291.45 175.45 290.95 176.45 290.95 176.45 289.95 177.45 289.95 177.45 289.45 178.45 289.45 178.45 288.95 178.95 288.95 178.95 288.45 179.45 288.45 179.45 287.95 180.45 287.95 180.45 287.45 181.45 287.45 181.45 286.95 182.45 286.95 182.45 286.45 182.95 286.45 182.95 285.95 183.45 285.95 183.95 285.95 183.95 285.45 184.45 285.45 184.45 284.95 185.45 284.95 185.45 284.45 186.45 284.45 186.45 283.95 187.45 283.95 187.45 283.45 188.45 283.45 188.45 282.95 189.95 282.95 189.95 282.45 190.95 282.45 190.95 281.95 191.95 281.95 191.95 281.45 193.95 281.45 193.95 280.95 195.45 280.95 195.45 280.45 195.95 280.45 201.45 280.45 201.45 280.95 202.95 280.95 202.95 281.45 203.95 281.45 204.45 281.45 204.45 281.95 204.95 281.95 204.95 282.45 205.45 282.45 205.45 282.95 206.45 282.95 206.45 283.45 206.95 283.45 206.95 283.95 207.45 283.95 207.45 284.45 207.95 284.45 207.95 284.95 208.45 284.95 208.45 285.45 208.95 285.45 208.95 285.95 209.45 285.95 209.45 286.45 209.45 286.95 209.95 286.95 209.95 287.95 210.45 287.95 210.45 288.95 210.95 288.95 210.95 289.45 211.45 289.45 211.45 290.45 211.95 290.45 211.95 291.45 212.45 291.45 212.45 292.45 212.95 292.45 212.95 293.45 213.45 293.45 213.45 294.45 213.95 294.45 213.95 295.45 214.45 295.45 214.45 296.45 214.95 296.45 214.95 296.6 215.35 296.3 215.6 295.9 216.2 295.7 216.45 295.35 216.45 294.95 215.95 294.95 215.95 293.95 215.45 293.95 215.45 292.95 214.95 292.95 214.95 292.45 214.45 292.45 214.45 291.45 213.95 291.45 213.95 290.45 213.45 290.45 213.45 289.95 212.95 289.95 212.95 288.95 212.45 288.95 212.45 287.45 211.95 287.45 211.95 286.95 211.45 286.95 211.45 285.95 210.95 285.95 210.95 284.95 210.45 284.95 210.45 284.45 209.95 284.45 209.95 283.45 209.45 283.45 209.45 282.95 208.95 282.95 208.95 282.45 208.45 282.45 208.45 281.95 207.95 281.95 207.95 281.45 207.45 281.45 207.45 280.95 206.45 280.95 206.45 280.45 205.45 280.45 205.45 279.95 204.95 279.95 204.95 279.45 203.95 279.45 203.95 278.95 202.95 278.95 202.95 278.45 200.45 278.45 200.45 277.95 195.95 277.95 195.95 278.45 194.45 278.45 194.45 278.95 192.45 278.95 192.45 279.45 190.45 279.45 190.45 279.95 189.45 279.95 189.45 280.45 188.45 280.45 188.45 280.95 187.45 280.95 187.45 281.45 186.45 281.45 186.45 281.95 185.45 281.95 185.45 282.45 184.45 282.45 184.45 282.95 183.45 282.95 183.45 283.45 182.95 283.45 182.95 283.95 181.95 283.95 181.95 284.45 181.45 284.45 181.45 284.95 180.45 284.95 180.45 285.45 179.45 285.45 179.45 285.95 178.95 285.95 178.95 286.45 178.45 286.45 178.45 286.95 177.45 286.95 177.45 287.45 176.45 287.45 176.45 287.95 175.95 287.95 175.95 288.45 175.45 288.45 175.45 288.95 174.95 288.95 174.95 289.45 173.95 289.45 173.95 289.95 172.95 289.95 172.95 290.45 172.45 290.45 172.45 290.95 171.95 290.95 171.95 291.45 171.45 291.45 171.45 291.95 170.45 291.95 170.45 292.45 169.95 292.45 169.95 292.95 168.95 292.95 168.95 293.45 168.45 293.45 168.45 293.95 167.95 293.95 167.95 294.45 166.95 294.45 166.95 294.95 165.95 294.95 165.95 295.45 165.45 295.45 165.45 295.95 164.45 295.95 164.45 296.45 163.95 296.45 163.95 296.95 162.95 296.95 162.95 297.45 162.45 297.45 162.45 297.95 161.95 297.95
M 435.9 258.95
L 435.9 257.45 435.9 257.05
Q 435.1666015625 256.5314453125 434.4 256.05
L 434.4 256.95 433.9 256.95 433.9 258.95 433.4 258.95 433.4 260.45 432.9 260.45 432.9 261.95 432.4 261.95 432.4 262.45 431.9 262.45 431.9 263.95 431.4 263.95 431.4 264.95 430.9 264.95 430.9 265.95 430.4 265.95 430.4 266.95 429.9 266.95 429.9 267.95 429.4 267.95 429.4 268.95 428.9 268.95 428.9 269.95 428.4 269.95 428.4 270.95 427.9 270.95 427.9 271.45 427.4 271.45 427.4 272.45 426.9 272.45 426.9 272.95 426.4 272.95 426.4 273.45 425.9 273.45 425.9 274.45 425.4 274.45 425.4 274.95 424.9 274.95 424.9 275.95 424.4 275.95 424.4 276.45 423.9 276.45 423.9 276.95 423.4 276.95 423.4 277.45 422.9 277.45 422.9 277.95 422.4 277.95 422.4 278.45 421.9 278.45 421.9 279.45 421.4 279.45 421.4 279.95 420.9 279.95 420.9 280.45 420.4 280.45 420.4 280.95 419.9 280.95 419.9 281.45 419.4 281.45 419.4 281.95 418.9 281.95 418.9 282.45 417.9 282.45 417.9 282.95 417.4 282.95 417.4 283.45 416.9 283.45 416.9 283.95 416.4 283.95 416.4 284.45 415.9 284.45 415.9 284.95 414.9 284.95 414.9 285.45 414.4 285.45 414.4 285.95 413.4 285.95 413.4 286.45 412.9 286.45 412.9 286.95 411.9 286.95 411.9 287.45 410.9 287.45 410.9 287.95 409.9 287.95 409.9 288.45 408.9 288.45 408.9 288.95 408.4 288.95 408.4 289.45 407.4 289.45 407.4 289.95 405.9 289.95 405.9 290.45 404.4 290.45 404.4 290.95 402.9 290.95 402.9 291.45 401.9 291.45 401.9 291.95 399.9 291.95 399.9 292.45 398.4 292.45 398.4 292.95 395.9 292.95 395.9 293.45 393.9 293.45 393.9 293.95 389.4 293.95 389.4 294.45 387.9 294.45 387.9 294.95 376.9 294.95 376.9 295.45 376.4 295.45 376.4 294.95 374.9 294.95 374.9 295.45 374.4 295.45 374.4 294.95 373.9 294.95 373.9 295.45 364.4 295.45 364.4 295.95 362.9 295.95 362.9 296.45 359.9 296.45 359.9 296.95 357.9 296.95 357.9 297.45 356.4 297.45 356.4 296.95 355.4 296.95 355.4 297.45 354.4 297.45 354.4 296.95 353.4 296.95 353.4 296.45 352.4 296.45 352.4 295.95 351.9 295.95 351.9 295.45 351.4 295.45 351.4 294.95 350.9 294.95 350.9 294.45 350.4 294.45 350.4 293.95 349.4 293.95 349.4 293.45 348.9 293.45 348.9 292.95 348.4 292.95 348.4 292.45 347.9 292.45 347.9 291.95 347.4 291.95 347.4 291.45 346.9 291.45 346.9 290.95 346.4 290.95 346.4 290.45 345.9 290.45 345.9 289.95 345.4 289.95 345.4 289.45 344.4 289.45 344.4 288.95 343.9 288.95 343.9 288.45 342.4 288.45 342.4 287.95 338.9 287.95 338.9 288.45 337.9 288.45 337.9 288.95 337.4 288.95 337.4 289.45 335.9 289.45 335.9 289.95 335.4 289.95 335.4 290.45 334.9 290.45 334.9 290.95 333.9 290.95 333.9 291.45 333.4 291.45 333.4 291.95 332.4 291.95 332.4 292.45 331.9 292.45 331.9 292.95 330.9 292.95 330.9 293.45 330.4 293.45 330.4 293.95 329.9 293.95 329.9 294.45 328.9 294.45 328.9 294.95 327.9 294.95 327.9 295.45 326.9 295.45 326.9 295.95 326.4 295.95 326.4 296.45 324.9 296.45 324.9 296.95 324.4 296.95 324.4 297.45 323.4 297.45 323.4 297.95 321.9 297.95 321.9 298.45 317.9 298.45 317.9 298.95 317.4 298.95 317.4 298.45 316.4 298.45 316.4 297.95 315.9 297.95 315.9 297.45 314.9 297.45 314.9 296.95 314.4 296.95 314.4 296.45 313.4 296.45 313.4 295.45 312.9 295.45 312.9 294.95 311.95 294.95 311.95 294.45 311.45 294.45 311.45 293.95 310.95 293.95 310.95 293.45 310.45 293.45 310.45 292.95 309.95 292.95 309.95 292.45 309.45 292.45 309.45 291.95 308.45 291.95 308.45 291.45 307.95 291.45 307.95 290.95 307.45 290.95 307.45 290.45 306.45 290.45 306.45 289.95 304.45 289.95 304.45 289.45 301.45 289.45 301.45 289.95 299.95 289.95 299.95 290.45 298.95 290.45 298.95 290.95 297.45 290.95 297.45 291.45 296.45 291.45 296.45 291.95 295.45 291.95 295.45 292.45 294.95 292.45 294.95 292.95 293.95 292.95 293.95 293.45 293.45 293.45 293.45 293.95 292.45 293.95 292.45 294.45 290.95 294.45 290.95 294.95 290.45 294.95 290.45 295.45 289.45 295.45 289.45 295.95 288.95 295.95 288.95 296.45 287.45 296.45 287.45 295.95 285.95 295.95 285.95 295.45 285.45 295.45 285.45 295.05 285 295.95 282.45 296.15 282.45 296.45 283.45 296.45 283.45 296.95 284.45 296.95 284.45 297.45 284.95 297.45 284.95 297.95 284.45 297.95 284.45 298.45 283.45 298.45 283.45 298.95 282.45 298.95 282.45 299.45 281.45 299.45 281.45 299.95 280.45 299.95 280.45 300.45 277.45 300.45 277.45 300.95 276.95 300.95 276.45 300.95 276.45 300.45 275.95 300.45 275.95 300.95 275.45 300.95 274.45 300.95 274.45 300.45 273.45 300.45 272.95 300.45 272.95 299.95 272.45 299.95 272.45 299.45 271.95 299.45 271.45 299.45 271.45 298.95 270.95 298.95 270.95 298.45 269.95 298.45 269.95 297.95 269.45 297.95 269.45 297.45 268.95 297.45 268.95 296.95 268.45 296.95 268.45 296.45 267.95 296.45 267.95 295.45 267.45 295.45 267.45 294.95 266.95 294.95 266.95 294.45 266.45 294.45 266.45 293.95 265.95 293.95 265.95 293.45 265.45 293.45 265.45 292.95 264.95 292.95 264.95 292.45 264.45 292.45 264.45 291.95 263.95 291.95 263.95 291.45 263.45 291.45 263.45 290.95 262.95 290.95 262.45 290.95 262.45 290.45 261.95 290.45 261.95 289.95 260.95 289.95 260.95 289.45 260.45 289.45 260.45 288.95 259.95 288.95 259.45 288.95 259.45 288.45 258.45 288.45 258.45 287.95 256.45 287.95 255.95 287.95 255.95 287.45 254.45 287.45 254.45 287.95 251.95 287.95 251.95 288.45 250.45 288.45 250.45 288.95 248.95 288.95 248.95 289.45 247.95 289.45 247.95 289.95 246.95 289.95 246.95 290.45 245.95 290.45 245.95 290.95 244.95 290.95 244.95 291.45 244.45 291.45 244.45 291.95 243.45 291.95 243.45 292.45 242.95 292.45 241.95 292.45 241.95 292.95 241.45 292.95 241.45 293.45 240.45 293.45 240.45 293.95 239.45 293.95 239.45 294.45 238.95 294.45 238.95 294.95 237.95 294.95 237.95 295.45 236.95 295.45 236.95 295.95 235.95 295.95 235.95 296.45 234.95 296.45 234.95 296.95 234.45 296.95 234.45 297.45 233.95 297.45 233.45 297.45 233.45 297.95 232.45 297.95 232.45 298.45 231.45 298.45 231.45 298.95 230.95 298.95 230.95 299.45 230.45 299.45 229.95 299.45 229.95 299.95 229.45 299.95 228.95 299.95 228.95 300.45 228.45 300.45 227.45 300.45 227.45 300.95 225.95 300.95 225.95 301.45 225.45 301.45 225.45 300.95 224.45 300.95 224.45 301.45 223.95 301.45 222.95 301.45 222.45 301.45 221.95 301.45 221.95 300.95 220.95 300.95 220.95 300.45 219.95 300.45 219.95 299.95 219.45 299.95 219.45 299.45 218.95 299.45 218.95 298.95 218.45 298.95 218.45 298.45 217.95 298.45 217.95 298.1 216.85 298.6 216.4 299.05 216.25 299.45 216.95 299.45 216.95 300.45 217.45 300.45 217.45 300.95 217.95 300.95 217.95 301.45 218.45 301.45 218.45 301.95 218.95 301.95 218.95 302.45 219.45 302.45 219.45 302.95 219.95 302.95 219.95 303.45 220.45 303.45 220.45 303.95 221.95 303.95 221.95 304.45 224.45 304.45 224.45 303.95 226.45 303.95 226.45 303.45 227.95 303.45 227.95 302.95 229.45 302.95 229.45 302.45 230.45 302.45 230.45 301.95 231.45 301.95 231.45 301.45 232.45 301.45 232.45 300.95 232.95 300.95 232.95 300.45 233.95 300.45 233.95 299.95 234.45 299.95 234.45 299.45 234.95 299.45 235.45 299.45 235.45 298.95 236.45 298.95 236.45 298.45 236.95 298.45 236.95 297.95 238.45 297.95 238.45 297.45 239.45 297.45 239.45 296.95 239.95 296.95 239.95 296.45 241.45 296.45 241.45 295.95 242.45 295.95 242.45 295.45 242.95 295.45 242.95 294.95 243.95 294.95 243.95 294.45 244.95 294.45 244.95 293.95 245.45 293.95 245.45 293.45 245.95 293.45 246.45 293.45 246.45 292.95 246.95 292.95 247.45 292.95 247.45 292.45 248.45 292.45 248.45 291.95 249.45 291.95 249.45 291.45 250.95 291.45 250.95 290.95 252.45 290.95 252.45 290.45 257.95 290.45 258.45 290.45 258.45 290.95 259.45 290.95 259.45 291.45 260.45 291.45 260.45 291.95 261.45 291.95 261.45 292.45 261.95 292.45 261.95 292.95 262.45 292.95 262.95 292.95 262.95 293.45 263.45 293.45 263.45 293.95 263.95 293.95 263.95 294.95 264.45 294.95 264.45 295.45 264.95 295.45 264.95 295.95 265.45 295.95 265.45 296.45 265.95 296.45 265.95 296.95 266.45 296.95 266.45 297.45 266.95 297.45 266.95 297.95 266.95 298.45 267.45 298.45 267.45 298.95 267.95 298.95 267.95 299.45 268.45 299.45 268.45 299.95 268.95 299.95 268.95 300.45 269.45 300.45 269.95 300.45 269.95 300.95 270.45 300.95 270.45 301.45 270.95 301.45 270.95 301.95 271.95 301.95 271.95 302.45 272.95 302.45 272.95 302.95 273.95 302.95 273.95 303.45 277.45 303.45 277.45 302.95 277.95 302.95 280.45 302.95 280.45 302.45 281.45 302.45 281.45 301.95 282.95 301.95 282.95 301.45 284.45 301.45 284.45 300.95 285.45 300.95 285.45 300.45 286.45 300.45 286.45 299.95 286.95 299.95 287.45 299.95 287.45 299.45 287.75 299.45
Q 287.891015625 299.2005859375 288 298.95
L 291 296.95
Q 291.987109375 296.909765625 292.95 296.9
L 292.95 296.45 293.95 296.45 293.95 295.95 294.95 295.95 294.95 295.45 295.95 295.45 295.95 294.95 296.95 294.95 296.95 294.45 297.45 294.45 297.45 293.95 298.45 293.95 298.45 293.45 299.95 293.45 299.95 292.95 300.95 292.95 300.95 292.45 306.45 292.45 306.45 292.95 306.95 292.95 307.45 292.95 307.45 293.45 307.95 293.45 307.95 293.95 308.45 293.95 308.45 294.45 308.95 294.45 308.95 294.95 309.45 294.95 309.45 295.45 309.95 295.45 309.95 295.95 310.45 295.95 310.45 296.45 310.95 296.45 310.95 296.95 311.45 296.95 311.45 297.45 311.95 297.45 311.95 297.95 312.45 297.95 312.45 298.45 312.9 298.45 313.4 298.45 313.4 298.95 313.9 298.95 313.9 299.45 314.4 299.45 314.4 299.95 314.9 299.95 314.9 300.45 315.9 300.45 315.9 300.95 316.9 300.95 316.9 301.4 316.95 301.45 321.9 301.45 321.9 300.95 322.9 300.95 322.9 300.45 323.9 300.45 323.9 299.95 325.4 299.95 325.4 299.45 326.4 299.45 326.4 298.95 327.4 298.95 327.4 298.45 328.4 298.45 328.4 297.95 328.9 297.95 328.9 297.45 329.4 297.45 329.9 297.45 329.9 296.95 330.9 296.95 330.9 296.45 331.4 296.45 331.4 295.95 332.4 295.95 332.4 295.45 332.9 295.45 332.9 294.95 333.9 294.95 333.9 294.45 334.4 294.45 334.4 293.95 334.9 293.95 334.9 293.45 335.4 293.45 335.4 292.95 335.9 292.95 336.9 292.95 336.9 292.45 337.4 292.45 337.4 291.95 337.9 291.95 337.9 291.45 338.9 291.45 338.9 290.95 340.4 290.95 340.4 290.45 342.4 290.45 342.4 290.95 343.4 290.95 343.9 290.95 343.9 291.45 344.4 291.45 344.4 291.95 344.9 291.95 345.4 291.95 345.4 292.45 345.9 292.45 345.9 292.95 346.4 292.95 346.4 293.45 346.9 293.45 346.9 293.95 347.4 293.95 347.4 294.45 347.9 294.45 347.9 294.95 348.4 294.95 348.4 295.45 348.9 295.45 348.9 295.95 349.4 295.95 349.4 296.45 349.9 296.45 349.9 296.95 350.4 296.95 350.4 297.95 350.9 297.95 351.4 297.95 351.4 298.45 351.9 298.45 351.9 298.95 352.4 298.95 352.4 299.45 353.4 299.45 353.4 299.95 355.4 299.95 355.9 299.95 359.4 299.95 359.4 299.45 361.4 299.45 361.4 298.95 363.9 298.95 363.9 298.45 366.9 298.45 366.9 297.95 367.4 297.95 370.9 297.95 370.9 297.45 371.9 297.45 372.9 297.45 373.4 297.45 373.4 297.95 373.9 297.95 373.9 297.45 374.9 297.45 375.4 297.45 375.4 297.95 375.9 297.95 375.9 297.45 376.4 297.45 376.9 297.45 376.9 297.95 377.4 297.95 377.4 297.45 378.4 297.45 378.4 297.95 378.9 297.95 378.9 297.45 387.4 297.45 387.4 296.95 389.4 296.95 389.4 296.45 389.9 296.45 391.9 296.45 391.9 295.95 394.9 295.95 394.9 295.45 396.4 295.45 397.4 295.45 397.4 294.95 397.9 294.95 398.9 294.95 398.9 294.45 401.4 294.45 401.4 293.95 402.9 293.95 402.9 293.45 404.9 293.45 404.9 292.95 405.4 292.95 405.4 292.45 406.9 292.45 406.9 291.95 407.4 291.95 408.4 291.95 408.4 291.45 409.4 291.45 409.4 290.95 409.9 290.95 409.9 290.45 410.4 290.45 410.9 290.45 410.9 289.95 411.9 289.95 411.9 289.45 412.4 289.45 412.4 288.95 413.4 288.95 413.4 288.45 413.9 288.45 414.4 288.45 414.4 287.95 414.9 287.95 414.9 287.45 415.9 287.45 415.9 286.95 416.4 286.95 416.4 286.45 416.9 286.45 417.4 286.45 417.4 285.95 417.9 285.95 417.9 285.45 418.4 285.45 418.4 284.95 418.9 284.95 418.9 284.45 419.4 284.45 419.4 283.95 420.4 283.95 420.4 283.45 420.9 283.45 420.9 282.95 421.4 282.95 421.4 282.45 421.9 282.45 421.9 281.95 422.4 281.95 422.4 280.95 422.9 280.95 422.9 280.45 423.4 280.45 423.4 279.95 423.9 279.95 423.9 279.45 424.4 279.45 424.4 278.95 424.9 278.95 424.9 278.45 425.4 278.45 425.4 277.95 425.4 277.45 425.9 277.45 425.9 276.95 426.4 276.95 426.4 276.45 426.9 276.45 426.9 275.95 427.4 275.95 427.4 274.95 427.9 274.95 427.9 274.45 428.4 274.45 428.4 273.95 428.4 273.45 428.9 273.45 428.9 272.95 429.4 272.95 429.4 271.95 429.9 271.95 429.9 270.95 430.4 270.95 430.4 270.45 430.9 270.45 430.9 269.45 431.4 269.45 431.4 268.45 431.9 268.45 431.9 267.45 432.4 267.45 432.4 266.45 432.9 266.45 432.9 265.45 432.9 264.95 433.4 264.95 433.4 264.45 433.9 264.45 433.9 263.45 434.4 263.45 434.4 261.45 434.9 261.45 434.9 260.45 435.4 260.45 435.4 258.95 435.9 258.95 Z"/>

<path fill="#000000" fill-opacity="0.42745098039215684" stroke="none" d="
M 271.95 298.95
L 271.45 298.95 271.45 299.45 271.95 299.45 271.95 298.95
M 276.95 300.45
L 276.45 300.45 276.45 300.95 276.95 300.95 276.95 300.45 Z"/>

<path fill="#000000" fill-opacity="0.43529411764705883" stroke="none" d="
M 275.45 300.45
L 275.45 300.95 275.95 300.95 275.95 300.45 275.45 300.45 Z"/>

<path fill="#000000" fill-opacity="0.403921568627451" stroke="none" d="
M 286.95 299.95
L 286.45 299.95 286.45 300.45 286.95 300.45 286.95 299.95
M 313.4 298.45
L 312.9 298.45 312.9 298.95 313.4 298.95 313.4 298.45
M 228.95 299.95
L 228.45 299.95 228.45 300.45 228.95 300.45 228.95 299.95
M 234.45 296.95
L 233.95 296.95 233.95 297.45 234.45 297.45 234.45 296.95
M 256.45 287.95
L 256.45 287.45 255.95 287.45 255.95 287.95 256.45 287.95
M 259.95 288.95
L 259.95 288.45 259.45 288.45 259.45 288.95 259.95 288.95 Z"/>

<path fill="#000000" fill-opacity="0.45098039215686275" stroke="none" d="
M 222.45 301.45
L 222.45 300.95 221.95 300.95 221.95 301.45 222.45 301.45
M 425.9 277.95
L 425.9 277.45 425.4 277.45 425.4 277.95 425.9 277.95
M 428.9 273.45
L 428.4 273.45 428.4 273.95 428.9 273.95 428.9 273.45 Z"/>

<path fill="#000000" fill-opacity="0.4392156862745098" stroke="none" d="
M 218.45 302.45
L 218.95 302.45 218.95 301.95 218.45 301.95 218.45 302.45
M 245.95 293.45
L 245.45 293.45 245.45 293.95 245.95 293.95 245.95 293.45
M 351.4 298.45
L 351.4 297.95 350.9 297.95 350.9 298.45 351.4 298.45
M 410.4 290.45
L 409.9 290.45 409.9 290.95 410.4 290.95 410.4 290.45 Z"/>

<path fill="#000000" fill-opacity="0.40784313725490196" stroke="none" d="
M 306.95 293.45
L 307.45 293.45 307.45 292.95 306.95 292.95 306.95 293.45
M 262.95 290.45
L 262.45 290.45 262.45 290.95 262.95 290.95 262.95 290.45
M 246.95 292.95
L 246.45 292.95 246.45 293.45 246.95 293.45 246.95 292.95
M 355.9 299.95
L 355.4 299.95 355.4 300.45 355.9 300.45 355.9 299.95 Z"/>

<path fill="#000000" fill-opacity="0.4470588235294118" stroke="none" d="
M 262.95 292.95
L 262.45 292.95 262.45 293.45 262.95 293.45 262.95 292.95
M 374.9 297.95
L 375.4 297.95 375.4 297.45 374.9 297.45 374.9 297.95 Z"/>

<path fill="#000000" fill-opacity="0.44313725490196076" stroke="none" d="
M 396.4 295.95
L 396.4 295.45 394.9 295.45 394.9 295.95 396.4 295.95
M 416.9 286.95
L 416.9 286.45 416.4 286.45 416.4 286.95 416.9 286.95 Z"/>
</g>

<g id="Layer5_0_FILL">
<path fill="#000000" fill-opacity="0.43137254901960786" stroke="none" d="
M 436.4 256.95
L 435.9 256.95 435.9 257.05
Q 436.1521484375 257.22890625 436.4 257.4
L 436.4 256.95
M 440.4 236.45
L 440.4 235.95 439.9 235.95 439.9 236.45 440.4 236.45
M 440.4 233.45
L 439.9 233.45 439.9 234.95 440.4 234.95 440.4 233.45
M 410.9 175.95
L 410.9 175.45 410.4 175.45 410.4 175.95 410.9 175.95
M 361.4 157.95
L 361.4 157.45 360.9 157.45 360.9 157.95 361.4 157.95 Z"/>

<path fill="#000000" fill-opacity="0.4470588235294118" stroke="none" d="
M 437.9 250.95
L 438.4 250.95 438.4 250.45 437.9 250.45 437.9 250.95
M 385.9 162.95
L 385.9 162.45 385.4 162.45 385.4 162.95 385.9 162.95 Z"/>

<path fill="#000000" fill-opacity="0.40784313725490196" stroke="none" d="
M 437.4 252.95
L 437.9 252.95 437.9 252.45 437.4 252.45 437.4 252.95
M 435.9 208.95
L 436.4 208.95 436.4 208.45 435.9 208.45 435.9 208.95 Z"/>

<path fill="#000000" fill-opacity="0.42745098039215684" stroke="none" d="
M 437.4 253.45
L 436.9 253.45 436.9 253.95 437.4 253.95 437.4 253.45
M 439.4 245.45
L 439.4 244.95 438.9 244.95 438.9 245.45 439.4 245.45
M 429.9 196.45
L 429.9 196.95 430.4 196.95 430.4 196.45 429.9 196.45 Z"/>

<path fill="#000000" fill-opacity="0.4235294117647059" stroke="none" d="
M 440.4 237.45
L 440.4 236.95 439.9 236.95 439.9 237.45 440.4 237.45 Z"/>

<path fill="#000000" fill-opacity="0.396078431372549" stroke="none" d="
M 439.9 229.95
L 440.4 229.95 440.4 229.45 439.9 229.45 439.9 229.95
M 416.4 180.45
L 416.9 180.45 416.9 179.95 416.4 179.95 416.4 180.45 Z"/>

<path fill="#000000" fill-opacity="0.4627450980392157" stroke="none" d="
M 431.4 197.95
L 430.9 197.95 430.9 198.45 431.4 198.45 431.4 197.95 Z"/>

<path fill="#000000" fill-opacity="0.4666666666666667" stroke="none" d="
M 427.9 193.45
L 427.9 193.95 428.4 193.95 428.4 193.45 427.9 193.45 Z"/>

<path fill="#000000" fill-opacity="0.403921568627451" stroke="none" d="
M 428.4 193.95
L 428.4 194.45 428.9 194.45 428.9 193.95 428.4 193.95
M 403.9 170.95
L 403.9 171.45 404.4 171.45 404.4 170.95 403.9 170.95 Z"/>

<path fill="#000000" fill-opacity="0.4196078431372549" stroke="none" d="
M 374.4 159.45
L 373.9 159.45 373.9 159.95 374.4 159.95 374.4 159.45
M 368.4 158.95
L 368.9 158.95 368.9 158.45 368.4 158.45 368.4 158.95 Z"/>

<path fill="#000000" fill-opacity="0.45098039215686275" stroke="none" d="
M 374.9 159.95
L 375.4 159.95 375.4 159.45 374.9 159.45 374.9 159.95
M 394.4 165.95
L 394.4 166.45 394.9 166.45 394.9 165.95 394.4 165.95 Z"/>

<path fill="#000000" fill-opacity="0.4" stroke="none" d="
M 347.4 156.95
L 346.9 156.95 346.9 157.45 347.4 157.45 347.4 156.95 Z"/>

<path fill="#000000" fill-opacity="0.9254901960784314" stroke="none" d="
M 361.4 157.95
L 360.9 157.95 360.9 157.45 349.9 157.45 349.9 156.95 348.9 156.95 348.9 157.45 347.9 157.45 347.9 156.95 347.4 156.95 347.4 157.45 346.9 157.45 343.8 157.45
Q 343.66640625 158.4482421875 343.55 159.45
L 361.4 159.45 361.4 159.95 364.9 159.95 364.9 160.45 365.4 160.45 365.4 159.95 365.9 159.95 365.9 160.45 369.4 160.45 369.4 160.95 371.4 160.95 371.4 161.45 373.9 161.45 373.9 161.95 376.4 161.95 376.4 162.45 378.4 162.45 378.4 162.95 380.4 162.95 380.4 163.45 382.4 163.45 382.4 163.95 384.4 163.95 384.4 164.45 385.4 164.45 385.4 164.95 386.4 164.95 386.4 165.45 387.9 165.45 387.9 165.95 388.9 165.95 388.9 166.45 390.4 166.45 390.4 166.95 391.4 166.95 391.4 167.45 392.9 167.45 392.9 167.95 393.9 167.95 393.9 168.45 394.9 168.45 394.9 168.95 396.9 168.95 396.9 169.45 397.9 169.45 397.9 169.95 398.9 169.95 398.9 170.45 400.4 170.45 400.4 170.95 400.9 170.95 400.9 171.45 401.9 171.45 401.9 171.95 402.4 171.95 402.4 172.45 403.9 172.45 403.9 172.95 404.4 172.95 404.4 173.45 405.4 173.45 405.4 173.95 405.9 173.95 405.9 174.45 406.4 174.45 406.4 174.95 407.4 174.95 407.4 175.45 407.9 175.45 407.9 175.95 408.4 175.95 408.4 176.45 409.9 176.45 409.9 176.95 410.4 176.95 410.4 177.95 411.4 177.95 411.4 178.45 411.9 178.45 411.9 178.95 412.4 178.95 412.4 179.45 413.4 179.45 413.4 179.95 414.4 179.95 414.4 180.45 414.9 180.45 414.9 180.95 415.4 180.95 415.4 181.45 415.9 181.45 415.9 181.95 416.4 181.95 416.4 182.45 416.9 182.45 416.9 182.95 417.4 182.95 417.4 183.45 418.4 183.45 418.4 183.95 418.9 183.95 418.9 184.95 419.9 184.95 419.9 185.95 420.4 185.95 420.4 186.45 420.9 186.45 420.9 186.95 421.4 186.95 421.4 187.45 421.9 187.45 421.9 187.95 422.4 187.95 422.4 188.95 422.9 188.95 422.9 189.45 423.4 189.45 423.4 189.95 423.9 189.95 423.9 190.45 424.4 190.45 424.4 190.95 424.9 190.95 424.9 191.95 425.4 191.95 425.4 192.45 425.9 192.45 425.9 193.45 426.4 193.45 426.4 193.95 426.9 193.95 426.9 194.45 427.4 194.45 427.4 195.45 427.9 195.45 427.9 195.95 428.4 195.95 428.4 196.95 428.9 196.95 428.9 197.45 429.4 197.45 429.4 198.45 429.9 198.45 429.9 199.45 430.4 199.45 430.4 200.45 430.9 200.45 430.9 200.95 431.4 200.95 431.4 201.95 431.9 201.95 431.9 202.95 432.4 202.95 432.4 203.95 432.9 203.95 432.9 204.95 433.4 204.95 433.4 206.95 433.9 206.95 433.9 207.95 434.4 207.95 434.4 209.45 434.9 209.45 434.9 210.95 435.4 210.95 435.4 212.45 435.9 212.45 435.9 213.95 436.4 213.95 436.4 215.45 436.9 215.45 436.9 217.45 437.4 217.45 437.4 217.95 436.9 217.95 436.9 218.45 437.4 218.45 437.4 219.95 437.9 219.95 437.9 224.95 438.4 224.95 438.4 230.95 438.9 230.95 438.9 231.45 438.4 231.45 438.4 239.45 437.9 239.45 437.9 243.95 437.4 243.95 437.4 246.45 436.9 246.45 436.9 247.95 436.4 247.95 436.4 250.95 435.9 250.95 435.9 252.45 435.4 252.45 435.4 253.95 434.9 253.95 434.9 255.95 434.4 255.95 434.4 256.05
Q 435.1666015625 256.5314453125 435.9 257.05
L 435.9 256.95 436.4 256.95 436.4 256.45 436.9 256.45 436.9 254.45 437.4 254.45 437.4 253.95 436.9 253.95 436.9 253.45 437.4 253.45 437.4 252.95 437.4 252.45 437.4 251.95 437.9 251.95 437.9 250.95 437.9 250.45 437.9 249.95 438.4 249.95 438.4 248.95 438.9 248.95 438.9 247.95 438.4 247.95 438.4 247.45 438.9 247.45 438.9 245.45 438.9 244.95 439.4 244.95 439.4 241.95 439.9 241.95 439.9 237.45 439.9 236.95 440.4 236.95 440.4 236.45 439.9 236.45 439.9 235.95 440.4 235.95 440.4 234.95 439.9 234.95 439.9 233.45 440.4 233.45 440.4 229.95 439.9 229.95 439.9 229.45 439.9 223.45 439.4 223.45 439.4 219.45 438.9 219.45 438.9 217.45 438.4 217.45 438.4 215.95 437.9 215.95 437.9 213.45 437.4 213.45 437.4 211.95 436.9 211.95 436.9 209.95 436.4 209.95 436.4 208.95 435.9 208.95 435.9 208.45 435.9 207.45 435.4 207.45 435.4 205.95 434.9 205.95 434.9 204.95 434.4 204.95 434.4 203.95 433.9 203.95 433.9 202.95 433.4 202.95 433.4 201.95 432.9 201.95 432.9 200.95 432.4 200.95 432.4 199.95 431.9 199.95 431.9 198.95 431.4 198.95 431.4 198.45 430.9 198.45 430.9 197.95 430.9 197.45 430.4 197.45 430.4 196.95 429.9 196.95 429.9 196.45 429.9 195.95 429.4 195.95 429.4 194.95 428.9 194.95 428.9 194.45 428.4 194.45 428.4 193.95 427.9 193.95 427.9 193.45 427.9 192.95 427.4 192.95 427.4 192.45 426.9 192.45 426.9 191.45 426.4 191.45 426.4 190.95 425.9 190.95 425.9 189.95 425.4 189.95 425.4 189.45 424.9 189.45 424.9 188.95 424.4 188.95 424.4 187.95 423.9 187.95 423.9 187.45 423.4 187.45 423.4 186.95 422.9 186.95 422.9 186.45 422.4 186.45 422.4 185.95 421.9 185.95 421.9 185.45 421.4 185.45 421.4 184.95 420.9 184.95 420.9 183.95 420.4 183.95 420.4 183.45 419.9 183.45 419.9 182.95 419.4 182.95 419.4 182.45 418.9 182.45 418.9 181.95 418.4 181.95 418.4 181.45 417.9 181.45 417.9 180.95 417.4 180.95 417.4 180.45 416.9 180.45 416.4 180.45 416.4 179.95 415.9 179.95 415.9 179.45 415.4 179.45 415.4 178.95 414.9 178.95 414.9 178.45 413.9 178.45 413.9 177.95 413.4 177.95 413.4 176.95 412.4 176.95 412.4 176.45 411.4 176.45 411.4 175.95 410.9 175.95 410.4 175.95 410.4 175.45 409.9 175.45 409.9 174.95 409.4 174.95 409.4 173.95 408.4 173.95 408.4 173.45 407.4 173.45 407.4 172.95 406.4 172.95 406.4 172.45 405.9 172.45 405.9 171.95 404.9 171.95 404.9 171.45 404.4 171.45 403.9 171.45 403.9 170.95 403.4 170.95 403.4 170.45 401.9 170.45 401.9 169.95 401.4 169.95 401.4 169.45 400.9 169.45 400.9 168.95 400.4 168.95 400.4 168.45 398.4 168.45 398.4 167.95 397.9 167.95 397.9 167.45 396.4 167.45 396.4 166.95 395.9 166.95 395.9 166.45 394.9 166.45 394.4 166.45 394.4 165.95 393.4 165.95 393.4 165.45 392.4 165.45 392.4 164.95 390.9 164.95 390.9 164.45 389.9 164.45 389.9 163.95 389.4 163.95 389.4 164.45 388.4 164.45 388.4 163.45 386.4 163.45 386.4 162.95 385.9 162.95 385.4 162.95 384.9 162.95 384.9 162.45 383.4 162.45 383.4 161.95 382.4 161.95 382.4 161.45 380.9 161.45 380.9 160.95 379.4 160.95 379.4 160.45 376.4 160.45 376.4 159.95 375.4 159.95 374.9 159.95 374.9 159.45 374.4 159.45 374.4 159.95 373.9 159.95 373.9 159.45 372.4 159.45 372.4 158.95 368.9 158.95 368.4 158.95 368.4 158.45 366.9 158.45 366.9 157.95 361.4 157.95 Z"/>
</g>

<g id="Layer3_0_FILL">
<path fill="#000000" fill-opacity="0.4196078431372549" stroke="none" d="
M 274.45 288.95
L 273.95 288.95 273.95 289.45 274.45 289.45 274.45 288.95 Z"/>

<path fill="#000000" fill-opacity="0.42745098039215684" stroke="none" d="
M 273.45 288.95
L 273.95 288.95 273.95 288.45 273.45 288.45 273.45 288.95
M 258.45 250.45
L 258.45 249.45 257.95 249.45 257.95 250.45 258.45 250.45
M 321.9 161.95
L 321.9 161.45 321.4 161.45 321.4 161.95 321.9 161.95 Z"/>

<path fill="#000000" fill-opacity="0.45098039215686275" stroke="none" d="
M 269.45 283.45
L 269.95 283.45 269.95 282.95 269.45 282.95 269.45 283.45
M 268.45 203.95
L 267.95 203.95 267.95 204.45 268.45 204.45 268.45 203.95
M 287.95 179.95
L 287.95 179.45 287.45 179.45 287.45 179.95 287.95 179.95 Z"/>

<path fill="#000000" fill-opacity="0.4470588235294118" stroke="none" d="
M 267.95 279.95
L 267.95 279.45 267.45 279.45 267.45 279.95 267.95 279.95
M 259.95 223.45
L 260.45 223.45 260.45 222.95 259.95 222.95 259.95 223.45 Z"/>

<path fill="#000000" fill-opacity="0.4" stroke="none" d="
M 260.95 262.95
L 260.95 262.45 260.45 262.45 260.45 262.95 260.95 262.95 Z"/>

<path fill="#000000" fill-opacity="0.4627450980392157" stroke="none" d="
M 259.45 255.45
L 258.95 255.45 258.95 255.95 259.45 255.95 259.45 255.45
M 300.45 170.95
L 300.45 170.45 299.95 170.45 299.95 170.95 300.45 170.95
M 333.4 158.95
L 333.9 158.95 333.9 158.45 333.4 158.45 333.4 158.95 Z"/>

<path fill="#000000" fill-opacity="0.43137254901960786" stroke="none" d="
M 258.95 252.95
L 258.45 252.95 258.45 253.45 258.95 253.45 258.95 252.95
M 315.4 163.95
L 315.4 163.45 314.9 163.45 314.9 163.95 315.4 163.95
M 308.95 166.45
L 308.95 165.95 308.45 165.95 308.45 166.45 308.95 166.45 Z"/>

<path fill="#000000" fill-opacity="0.4588235294117647" stroke="none" d="
M 264.45 271.95
L 263.95 271.95 263.95 272.45 264.45 272.45 264.45 271.95 Z"/>

<path fill="#000000" fill-opacity="0.40784313725490196" stroke="none" d="
M 265.45 208.45
L 265.45 208.95 265.95 208.95 265.95 208.45 265.45 208.45 Z"/>

<path fill="#000000" fill-opacity="0.44313725490196076" stroke="none" d="
M 288.45 178.95
L 287.95 178.95 287.95 179.45 288.45 179.45 288.45 178.95
M 303.95 168.95
L 303.95 168.45 303.45 168.45 303.45 168.95 303.95 168.95
M 337.9 157.95
L 337.4 157.95 337.4 158.45 337.9 158.45 337.9 157.95 Z"/>

<path fill="#000000" fill-opacity="0.4549019607843137" stroke="none" d="
M 299.45 171.45
L 299.45 170.95 298.95 170.95 298.95 171.45 299.45 171.45
M 272.95 195.95
L 272.95 196.45 273.45 196.45 273.45 195.95 272.95 195.95 Z"/>

<path fill="#000000" fill-opacity="0.43529411764705883" stroke="none" d="
M 302.45 169.95
L 302.45 169.45 301.95 169.45 301.95 169.95 302.45 169.95
M 296.45 172.95
L 295.95 172.95 295.95 173.45 296.45 173.45 296.45 172.95 Z"/>

<path fill="#000000" fill-opacity="0.4392156862745098" stroke="none" d="
M 316.9 163.45
L 316.9 162.95 316.4 162.95 316.4 163.45 316.9 163.45 Z"/>

<path fill="#000000" fill-opacity="0.4666666666666667" stroke="none" d="
M 309.95 165.45
L 309.95 165.95 310.45 165.95 310.45 165.45 309.95 165.45 Z"/>

<path fill="#000000" fill-opacity="0.403921568627451" stroke="none" d="
M 330.4 158.95
L 330.4 159.45 330.9 159.45 330.9 158.95 330.4 158.95 Z"/>

<path fill="#000000" fill-opacity="0.4235294117647059" stroke="none" d="
M 325.4 160.45
L 324.9 160.45 324.9 160.95 325.4 160.95 325.4 160.45 Z"/>

<path fill="#000000" fill-opacity="0.9254901960784314" stroke="none" d="
M 337.4 157.95
L 336.9 157.95 336.9 158.45 336.4 158.45 333.9 158.45 333.9 158.95 333.4 158.95 330.9 158.95 330.9 159.45 330.4 159.45 328.9 159.45 328.9 159.95 326.9 159.95 326.9 160.45 325.4 160.45 325.4 160.95 324.9 160.95 323.4 160.95 323.4 161.45 321.9 161.45 321.9 161.95 321.4 161.95 319.9 161.95 319.9 162.45 318.4 162.45 318.4 162.95 316.9 162.95 316.9 163.45 316.4 163.45 315.4 163.45 315.4 163.95 314.9 163.95 313.9 163.95 313.9 164.45 312.45 164.45 312.45 164.95 311.45 164.95 311.45 165.45 310.45 165.45 310.45 165.95 309.95 165.95 308.95 165.95 308.95 166.45 308.45 166.45 307.45 166.45 307.45 166.95 306.45 166.95 306.45 167.45 305.95 167.45 305.95 167.95 304.45 167.95 304.45 168.45 303.95 168.45 303.95 168.95 303.45 168.95 302.95 168.95 302.95 169.45 302.45 169.45 302.45 169.95 301.95 169.95 300.95 169.95 300.95 170.45 300.45 170.45 300.45 170.95 299.95 170.95 299.45 170.95 299.45 171.45 298.95 171.45 298.45 171.45 298.45 171.95 297.45 171.95 297.45 172.45 296.95 172.45 296.95 172.95 296.45 172.95 296.45 173.45 295.95 173.45 295.45 173.45 295.45 173.95 294.45 173.95 294.45 174.45 293.95 174.45 293.95 174.95 292.95 174.95 292.95 175.45 292.45 175.45 292.45 175.95 291.95 175.95 291.95 176.45 291.45 176.45 291.45 176.95 290.95 176.95 290.95 177.45 289.95 177.45 289.95 177.95 289.45 177.95 289.45 178.45 288.95 178.45 288.95 178.95 288.45 178.95 288.45 179.45 287.95 179.45 287.95 179.95 287.45 179.95 286.95 179.95 286.95 180.45 286.45 180.45 286.45 180.95 285.95 180.95 285.95 181.45 285.45 181.45 285.45 181.95 284.95 181.95 284.95 182.45 284.45 182.45 284.45 182.95 283.95 182.95 283.95 183.45 283.45 183.45 283.45 183.95 282.95 183.95 282.95 184.45 282.45 184.45 282.45 184.95 281.95 184.95 281.95 185.45 281.45 185.45 281.45 185.95 280.95 185.95 280.95 186.95 279.95 186.95 279.95 187.45 279.45 187.45 279.45 187.95 278.95 187.95 278.95 188.95 278.45 188.95 278.45 189.45 277.95 189.45 277.95 189.95 277.45 189.95 277.45 190.45 276.95 190.45 276.95 190.95 276.45 190.95 276.45 191.95 275.95 191.95 275.95 192.45 275.45 192.45 275.45 192.95 274.95 192.95 274.95 193.95 274.45 193.95 274.45 194.45 273.95 194.45 273.95 195.45 273.45 195.45 273.45 195.95 273.45 196.45 272.95 196.45 272.95 196.95 272.45 196.95 272.45 197.45 271.95 197.45 271.95 198.45 271.45 198.45 271.45 198.95 270.95 198.95 270.95 199.95 270.45 199.95 270.45 200.45 269.95 200.45 269.95 201.45 269.45 201.45 269.45 202.45 268.95 202.45 268.95 202.95 268.45 202.95 268.45 203.95 268.45 204.45 267.95 204.45 267.95 205.45 267.45 205.45 267.45 205.95 266.95 205.95 266.95 206.95 266.45 206.95 266.45 207.45 265.95 207.45 265.95 208.45 265.95 208.95 265.45 208.95 265.45 209.45 264.95 209.45 264.95 210.95 264.45 210.95 264.45 211.95 263.95 211.95 263.95 212.95 263.45 212.95 263.45 214.45 262.95 214.45 262.95 215.45 262.45 215.45 262.45 216.95 261.95 216.95 261.95 218.45 261.45 218.45 261.45 220.45 260.95 220.45 260.95 221.45 260.45 221.45 260.45 222.95 260.45 223.45 259.95 223.45 259.95 225.95 259.45 225.95 259.45 227.45 258.95 227.45 258.95 229.95 258.45 229.95 258.45 231.95 257.95 231.95 257.95 233.95 258.45 233.95 258.45 234.45 257.95 234.45 257.95 236.95 257.45 236.95 257.45 238.45 257.95 238.45 257.95 249.45 258.45 249.45 258.45 250.45 258.45 252.95 258.95 252.95 258.95 253.45 258.95 255.45 259.45 255.45 259.45 255.95 259.45 258.95 259.95 258.95 259.95 261.45 260.45 261.45 260.45 262.45 260.95 262.45 260.95 262.95 260.95 263.95 261.45 263.95 261.45 265.45 261.95 265.45 261.95 266.95 262.45 266.95 262.45 267.95 262.95 267.95 262.95 269.95 263.45 269.95 263.45 270.95 263.95 270.95 263.95 271.95 264.45 271.95 264.45 272.45 264.45 273.45 264.95 273.45 264.95 274.45 265.45 274.45 265.45 275.45 265.95 275.45 265.95 276.95 266.45 276.95 266.45 277.95 266.95 277.95 266.95 278.95 267.45 278.95 267.45 279.45 267.95 279.45 267.95 279.95 267.95 280.45 268.45 280.45 268.45 281.45 268.95 281.45 268.95 282.45 269.45 282.45 269.45 282.95 269.95 282.95 269.95 283.45 269.95 283.95 270.45 283.95 270.45 284.95 270.95 284.95 270.95 285.45 271.45 285.45 271.45 285.95 271.95 285.95 271.95 286.95 272.45 286.95 272.45 287.45 272.95 287.45 272.95 287.95 273.45 287.95 273.45 288.45 273.95 288.45 273.95 288.95 274.45 288.95 274.45 289.45 274.45 289.95 274.95 289.95 274.95 290.45 275.45 290.45 275.45 290.95 275.95 290.95 275.95 291.45 276.45 291.45 276.45 291.95 276.95 291.95 276.95 292.45 277.45 292.45 277.45 292.95 277.95 292.95 277.95 293.45 278.95 293.45 278.95 293.95 279.45 293.95 279.45 294.45 279.95 294.45 279.95 294.95 280.95 294.95 280.95 295.45 281.45 295.45 281.45 295.95 282.45 295.95 282.45 296.15 285 295.95 285.45 295.05 285.45 294.95 284.95 294.95 284.95 294.45 282.95 294.45 282.95 293.95 282.45 293.95 282.45 293.45 281.45 293.45 281.45 292.45 280.45 292.45 280.45 291.95 279.95 291.95 279.95 291.45 279.45 291.45 279.45 290.95 278.45 290.95 278.45 290.45 277.95 290.45 277.95 289.45 276.95 289.45 276.95 288.95 276.45 288.95 276.45 287.95 275.95 287.95 275.95 287.45 274.95 287.45 274.95 286.45 274.45 286.45 274.45 285.95 273.95 285.95 273.95 285.45 273.45 285.45 273.45 284.95 272.95 284.95 272.95 284.45 272.45 284.45 272.45 282.95 271.95 282.95 271.95 282.45 271.45 282.45 271.45 281.95 270.95 281.95 270.95 280.95 270.45 280.95 270.45 279.95 269.95 279.95 269.95 279.45 269.45 279.45 269.45 277.95 268.95 277.95 268.95 277.45 268.45 277.45 268.45 276.45 267.95 276.45 267.95 275.95 267.45 275.95 267.45 274.95 266.95 274.95 266.95 273.45 266.45 273.45 266.45 272.95 265.95 272.95 265.95 270.95 265.45 270.95 265.45 269.45 264.95 269.45 264.95 268.45 264.45 268.45 264.45 266.95 263.95 266.95 263.95 265.95 263.45 265.95 263.45 264.45 262.95 264.45 262.95 262.95 262.45 262.95 262.45 260.95 261.95 260.95 261.95 259.45 261.45 259.45 261.45 256.95 260.95 256.95 260.95 253.45 260.45 253.45 260.45 250.95 259.95 250.95 259.95 247.45 259.45 247.45 259.45 246.45 259.95 246.45 259.95 245.95 259.45 245.95 259.45 237.95 259.95 237.95 259.95 231.95 260.45 231.95 260.45 228.95 260.95 228.95 260.95 227.95 261.45 227.95 261.45 225.45 261.95 225.45 261.95 223.95 262.45 223.95 262.45 221.95 262.95 221.95 262.95 219.95 263.45 219.95 263.45 218.95 263.95 218.95 263.95 217.45 264.45 217.45 264.45 216.45 264.95 216.45 264.95 214.95 265.45 214.95 265.45 213.95 265.95 213.95 265.95 212.45 266.45 212.45 266.45 211.45 266.95 211.45 266.95 210.45 267.45 210.45 267.45 209.95 267.95 209.95 267.95 208.95 268.45 208.95 268.45 207.95 268.95 207.95 268.95 206.95 269.45 206.95 269.45 205.95 269.95 205.95 269.95 204.95 270.45 204.95 270.45 203.95 270.95 203.95 270.95 203.45 271.45 203.45 271.45 202.45 271.95 202.45 271.95 201.45 272.45 201.45 272.45 200.95 272.95 200.95 272.95 199.95 273.45 199.95 273.45 198.95 273.95 198.95 273.95 198.45 274.45 198.45 274.45 197.45 274.95 197.45 274.95 196.95 275.45 196.95 275.45 196.45 275.95 196.45 275.95 195.45 276.45 195.45 276.45 194.95 276.95 194.95 276.95 194.45 277.45 194.45 277.45 193.45 277.95 193.45 277.95 192.95 278.45 192.95 278.45 192.45 278.95 192.45 278.95 191.45 279.95 191.45 279.95 190.45 280.45 190.45 280.45 189.95 280.95 189.95 280.95 189.45 281.45 189.45 281.45 188.95 281.95 188.95 281.95 188.45 282.45 188.45 282.45 187.95 282.95 187.95 282.95 187.45 283.45 187.45 283.45 186.95 283.95 186.95 283.95 185.95 284.45 185.95 284.45 185.45 284.95 185.45 284.95 184.95 285.45 184.95 285.45 184.45 285.95 184.45 285.95 183.95 286.45 183.95 286.45 183.45 286.95 183.45 286.95 182.95 287.95 182.95 287.95 182.45 288.45 182.45 288.45 181.95 288.95 181.95 288.95 181.45 289.45 181.45 289.45 180.95 289.95 180.95 289.95 180.45 290.45 180.45 290.45 179.95 291.45 179.95 291.45 179.45 291.95 179.45 291.95 178.95 292.45 178.95 292.45 178.45 292.95 178.45 292.95 177.95 293.95 177.95 293.95 177.45 294.45 177.45 294.45 176.95 294.95 176.95 294.95 176.45 295.95 176.45 295.95 175.95 296.45 175.95 296.45 175.45 297.45 175.45 297.45 174.95 297.95 174.95 297.95 174.45 298.45 174.45 298.45 173.95 299.45 173.95 299.45 173.45 299.95 173.45 299.95 172.95 300.95 172.95 300.95 172.45 301.95 172.45 301.95 171.95 302.95 171.95 302.95 171.45 303.95 171.45 303.95 170.95 304.95 170.95 304.95 170.45 305.95 170.45 305.95 169.95 306.95 169.95 306.95 169.45 308.45 169.45 308.45 168.95 309.45 168.95 309.45 168.45 310.45 168.45 310.45 167.95 311.45 167.95 311.45 167.45 312.9 167.45 312.9 166.95 313.9 166.95 313.9 166.45 315.4 166.45 315.4 165.95 316.9 165.95 316.9 165.45 318.4 165.45 318.4 164.95 319.4 164.95 319.4 164.45 321.4 164.45 321.4 163.95 322.9 163.95 322.9 163.45 324.9 163.45 324.9 162.95 326.4 162.95 326.4 162.45 328.4 162.45 328.4 161.95 330.4 161.95 330.4 161.45 332.9 161.45 332.9 160.95 336.4 160.95 336.4 160.45 339.4 160.45 339.4 159.95 342.9 159.95 342.9 159.45 343.55 159.45
Q 343.66640625 158.4482421875 343.8 157.45
L 341.4 157.45 341.4 157.95 337.9 157.95 337.9 158.45 337.4 158.45 337.4 157.95 Z"/>

<path fill="#000000" fill-opacity="0.4117647058823529" stroke="none" d="
M 336.4 157.95
L 336.4 158.45 336.9 158.45 336.9 157.95 336.4 157.95 Z"/>
</g>

<g id="Mask_1_MASK_0_FILL">
<path fill="#FFFFFF" stroke="none" d="
M 444.75 326.95
L 444.75 275.95 283.25 275.95 283.25 326.95 444.75 326.95 Z"/>
</g>

<g id="Layer1_0_FILL">
<path fill="#000000" fill-opacity="0.9254901960784314" stroke="none" d="
M 316.9 301.45
L 316.95 301.45 316.9 301.4 316.9 301.45
M 434.4 295.45
L 434.4 295.95 433.4 295.95 433.4 296.45 432.4 296.45 432.4 296.95 431.4 296.95 431.4 297.45 429.9 297.45 429.9 297.95 428.9 297.95 428.9 298.45 427.9 298.45 427.9 298.95 426.9 298.95 426.9 299.45 425.9 299.45 425.9 299.95 424.9 299.95 424.9 300.45 423.9 300.45 423.9 300.95 422.9 300.95 422.9 301.45 422.4 301.45 421.9 301.45 421.9 301.95 420.9 301.95 420.9 302.45 419.9 302.45 419.9 302.95 418.9 302.95 418.9 303.45 417.4 303.45 417.4 303.95 416.4 303.95 416.4 304.45 414.9 304.45 414.9 304.95 413.9 304.95 413.9 305.45 413.4 305.45 412.4 305.45 412.4 305.95 411.9 305.95 411.4 305.95 411.4 306.45 410.9 306.45 410.4 306.45 410.4 306.95 409.4 306.95 408.4 306.95 408.4 307.45 407.4 307.45 407.4 307.9 406.9 307.9 405.9 307.9 405.9 308.4 405.4 308.4 404.4 308.4 404.4 308.9 403.4 308.9 403.4 309.4 401.9 309.4 401.9 309.9 401.4 309.9 399.4 309.9 399.4 310.4 398.4 310.4 398.4 310.9 397.9 310.9 396.4 310.9 396.4 311.4 394.4 311.4 394.4 311.9 391.9 311.9 391.9 312.4 389.4 312.4 389.4 312.9 386.9 312.9 386.9 313.4 383.4 313.4 383.4 313.9 378.9 313.9 378.9 314.4 375.4 314.4 375.4 314.9 374.9 314.9 366.9 314.9 366.9 315.4 365.4 315.4 354.4 315.4 353.4 315.4 353.4 314.9 352.9 314.9 352.9 315.4 350.4 315.4 350.4 314.9 344.9 314.9 344.9 314.4 341.4 314.4 340.9 314.4 340.9 313.9 340.4 313.9 340.4 314.4 339.4 314.4 337.9 314.4 337.9 313.9 336.4 313.9 335.9 313.9 335.9 313.4 333.4 313.4 333.4 312.9 330.9 312.9 330.4 312.9 329.9 312.9 329.4 312.9 329.4 312.4 327.4 312.4 327.4 311.9 326.4 311.9 325.9 311.9 325.9 311.4 324.4 311.4 324.4 310.9 322.4 310.9 321.9 310.9 321.9 310.4 319.9 310.4 319.4 310.4 319.4 309.9 317.9 309.9 317.9 309.4 317.4 309.4 317.4 308.9 315.9 308.9 315.9 308.4 313.9 308.4 313.4 308.4 313.4 307.9 312.45 307.9 312.45 307.45 310.95 307.45 310.95 306.95 309.95 306.95 309.95 306.45 308.95 306.45 308.45 306.45 308.45 305.95 307.45 305.95 307.45 305.45 306.45 305.45 306.45 304.95 305.95 304.95 305.95 304.45 304.45 304.45 304.45 303.95 303.45 303.95 303.45 303.45 301.95 303.45 301.95 302.95 301.45 302.95 300.95 302.95 300.95 302.45 300.45 302.45 300.45 302.95 299.95 302.95 299.95 302.45 298.95 302.45 298.95 301.95 298.45 301.95 298.45 301.45 297.45 301.45 297.45 300.95 296.95 300.95 296.45 300.95 296.45 300.45 295.95 300.45 295.95 299.95 294.95 299.95 294.45 299.95 294.45 299.45 293.45 299.45 293.45 298.95 292.45 298.95 292.45 298.45 291.45 298.45 291.45 297.95 290.95 297.95 290.95 297.45 291.45 297.45 291.45 296.95 292.95 296.95 292.95 296.9
Q 291.987109375 296.909765625 291 296.95
L 288 298.95
Q 287.891015625 299.2005859375 287.75 299.45
L 288.95 299.45 289.45 299.45 289.45 299.95 290.45 299.95 290.45 300.45 291.45 300.45 291.45 300.95 292.45 300.95 292.45 301.45 293.45 301.45 293.45 301.95 294.45 301.95 294.45 302.45 295.45 302.45 295.95 302.45 295.95 302.95 296.45 302.95 296.45 303.45 297.95 303.45 297.95 303.95 298.95 303.95 298.95 304.45 299.95 304.45 299.95 304.95 300.95 304.95 301.45 304.95 301.45 305.45 302.45 305.45 302.45 305.95 303.45 305.95 303.45 306.45 304.45 306.45 304.45 306.95 305.45 306.95 305.45 307.45 306.45 307.45 306.95 307.45 306.95 307.9 307.95 307.9 307.95 308.4 308.95 308.4 309.45 308.4 309.45 308.9 310.45 308.9 310.95 308.9 310.95 309.4 311.95 309.4 311.95 309.9 312.9 309.9 312.9 310.4 314.9 310.4 314.9 310.9 315.9 310.9 315.9 311.4 317.4 311.4 317.4 311.9 318.9 311.9 318.9 312.4 320.9 312.4 320.9 312.9 322.9 312.9 322.9 313.4 324.9 313.4 325.4 313.4 325.4 313.9 326.9 313.9 326.9 314.4 329.4 314.4 329.4 314.9 332.9 314.9 332.9 315.4 334.9 315.4 334.9 315.9 337.9 315.9 337.9 316.4 343.9 316.4 343.9 316.9 347.4 316.9 347.9 316.9 348.4 316.9 348.4 317.4 349.9 317.4 349.9 316.9 350.9 316.9 351.9 316.9 352.9 316.9 352.9 317.4 363.4 317.4 363.9 317.4 372.4 317.4 372.4 316.9 378.4 316.9 378.4 316.4 378.9 316.4 379.4 316.4 379.9 316.4 382.4 316.4 382.4 315.9 385.9 315.9 385.9 315.4 389.4 315.4 389.4 314.9 390.9 314.9 390.9 314.4 391.4 314.4 392.4 314.4 392.4 313.9 392.9 313.9 395.4 313.9 395.4 313.4 396.4 313.4 396.4 312.9 397.9 312.9 397.9 312.4 400.4 312.4 400.4 311.9 401.9 311.9 401.9 311.4 403.9 311.4 403.9 310.9 405.9 310.9 405.9 310.4 406.4 310.4 406.4 309.9 406.9 309.9 406.9 310.4 407.4 310.4 407.4 309.9 408.4 309.9 408.4 309.4 408.9 309.4 408.9 308.9 410.4 308.9 410.4 308.4 411.9 308.4 411.9 307.9 412.4 307.9 412.4 307.45 412.9 307.45 414.4 307.45 414.4 306.95 415.4 306.95 415.4 306.45 415.9 306.45 416.9 306.45 416.9 305.95 417.9 305.95 417.9 305.45 419.4 305.45 419.4 304.95 420.4 304.95 420.4 304.45 421.4 304.45 421.4 303.95 421.9 303.95 422.9 303.95 422.9 303.45 423.4 303.45 423.9 303.45 423.9 302.95 424.9 302.95 424.9 302.45 426.4 302.45 426.4 301.95 427.4 301.95 427.4 301.45 427.9 301.45 427.9 300.95 428.4 300.95 428.9 300.95 428.9 300.45 429.4 300.45 429.9 300.45 429.9 299.95 430.4 299.95 431.4 299.95 431.4 299.45 431.9 299.45 431.9 298.95 432.4 298.95 432.9 298.95 434.4 298.95 434.4 298.45 435.9 298.45 435.9 297.95 437.4 297.95 437.4 297.45 438.9 297.45 438.9 295.45 438.9 294.95 438.9 294.45 438.4 294.45 437.9 294.45 435.9 294.45 435.9 294.95 435.4 294.95 435.4 295.45 434.4 295.45 Z"/>

<path fill="#000000" fill-opacity="0.44313725490196076" stroke="none" d="
M 288.95 299.95
L 289.45 299.95 289.45 299.45 288.95 299.45 288.95 299.95
M 296.95 300.95
L 296.95 300.45 296.45 300.45 296.45 300.95 296.95 300.95
M 313.9 308.4
L 313.9 307.9 313.4 307.9 313.4 308.4 313.9 308.4
M 405.9 308.4
L 405.9 307.9 405.4 307.9 405.4 308.4 405.9 308.4
M 432.9 299.45
L 432.9 298.95 432.4 298.95 432.4 299.45 432.9 299.45 Z"/>

<path fill="#000000" fill-opacity="0.4235294117647059" stroke="none" d="
M 301.45 305.45
L 301.45 304.95 300.95 304.95 300.95 305.45 301.45 305.45
M 422.9 303.95
L 423.4 303.95 423.4 303.45 422.9 303.45 422.9 303.95
M 341.4 313.9
L 340.9 313.9 340.9 314.4 341.4 314.4 341.4 313.9
M 329.9 312.4
L 329.4 312.4 329.4 312.9 329.9 312.9 329.9 312.4
M 351.9 317.4
L 351.9 316.9 350.9 316.9 350.9 317.4 351.9 317.4 Z"/>

<path fill="#000000" fill-opacity="0.43137254901960786" stroke="none" d="
M 295.95 302.95
L 295.95 302.45 295.45 302.45 295.45 302.95 295.95 302.95
M 308.45 305.95
L 308.45 306.45 308.95 306.45 308.95 305.95 308.45 305.95
M 412.4 305.95
L 412.4 305.45 411.9 305.45 411.9 305.95 412.4 305.95
M 415.9 306.45
L 415.4 306.45 415.4 306.95 415.9 306.95 415.9 306.45
M 430.4 300.45
L 430.4 299.95 429.9 299.95 429.9 300.45 430.4 300.45
M 366.9 315.4
L 366.9 314.9 365.4 314.9 365.4 315.4 366.9 315.4 Z"/>

<path fill="#000000" fill-opacity="0.4392156862745098" stroke="none" d="
M 294.45 299.45
L 294.45 299.95 294.95 299.95 294.95 299.45 294.45 299.45
M 340.4 313.9
L 339.4 313.9 339.4 314.4 340.4 314.4 340.4 313.9 Z"/>

<path fill="#000000" fill-opacity="0.42745098039215684" stroke="none" d="
M 300.95 302.45
L 300.95 302.95 301.45 302.95 301.45 302.45 300.95 302.45
M 306.45 307.9
L 306.95 307.9 306.95 307.45 306.45 307.45 306.45 307.9
M 412.4 307.45
L 412.4 307.9 412.9 307.9 412.9 307.45 412.4 307.45
M 324.9 313.9
L 325.4 313.9 325.4 313.4 324.9 313.4 324.9 313.9 Z"/>

<path fill="#000000" fill-opacity="0.4" stroke="none" d="
M 319.9 310.4
L 319.9 309.9 319.4 309.9 319.4 310.4 319.9 310.4
M 398.4 310.4
L 397.9 310.4 397.9 310.9 398.4 310.9 398.4 310.4 Z"/>

<path fill="#000000" fill-opacity="0.4196078431372549" stroke="none" d="
M 321.9 310.4
L 321.9 310.9 322.4 310.9 322.4 310.4 321.9 310.4
M 363.9 317.4
L 363.4 317.4 363.4 317.9 363.9 317.9 363.9 317.4
M 353.4 314.9
L 353.4 315.4 354.4 315.4 354.4 314.9 353.4 314.9
M 438.9 294.95
L 438.9 295.45 439.4 295.45 439.4 294.95 438.9 294.95 Z"/>

<path fill="#000000" fill-opacity="0.4666666666666667" stroke="none" d="
M 310.95 308.9
L 310.45 308.9 310.45 309.4 310.95 309.4 310.95 308.9
M 379.4 316.4
L 379.4 316.9 379.9 316.9 379.9 316.4 379.4 316.4 Z"/>

<path fill="#000000" fill-opacity="0.4117647058823529" stroke="none" d="
M 309.45 308.9
L 309.45 308.4 308.95 308.4 308.95 308.9 309.45 308.9
M 413.9 305.45
L 413.9 304.95 413.4 304.95 413.4 305.45 413.9 305.45
M 429.4 300.95
L 429.4 300.45 428.9 300.45 428.9 300.95 429.4 300.95
M 347.9 316.9
L 347.4 316.9 347.4 317.4 347.9 317.4 347.9 316.9
M 378.9 316.9
L 378.9 316.4 378.4 316.4 378.4 316.9 378.9 316.9 Z"/>

<path fill="#000000" fill-opacity="0.4627450980392157" stroke="none" d="
M 411.4 305.95
L 410.9 305.95 410.9 306.45 411.4 306.45 411.4 305.95
M 325.9 311.4
L 325.9 311.9 326.4 311.9 326.4 311.4 325.9 311.4 Z"/>

<path fill="#000000" fill-opacity="0.4470588235294118" stroke="none" d="
M 409.4 306.45
L 409.4 306.95 410.4 306.95 410.4 306.45 409.4 306.45
M 401.9 309.4
L 401.4 309.4 401.4 309.9 401.9 309.9 401.9 309.4 Z"/>

<path fill="#000000" fill-opacity="0.396078431372549" stroke="none" d="
M 407.4 307.45
L 406.9 307.45 406.9 307.9 407.4 307.9 407.4 307.45
M 421.9 303.95
L 421.4 303.95 421.4 304.45 421.9 304.45 421.9 303.95
M 422.4 300.95
L 422.4 301.45 422.9 301.45 422.9 300.95 422.4 300.95 Z"/>

<path fill="#000000" fill-opacity="0.43529411764705883" stroke="none" d="
M 427.9 300.95
L 427.9 301.45 428.4 301.45 428.4 300.95 427.9 300.95
M 375.4 314.4
L 374.9 314.4 374.9 314.9 375.4 314.9 375.4 314.4 Z"/>

<path fill="#000000" fill-opacity="0.40784313725490196" stroke="none" d="
M 336.4 313.9
L 336.4 313.4 335.9 313.4 335.9 313.9 336.4 313.9 Z"/>

<path fill="#000000" fill-opacity="0.45098039215686275" stroke="none" d="
M 330.9 312.4
L 330.4 312.4 330.4 312.9 330.9 312.9 330.9 312.4 Z"/>

<path fill="#000000" fill-opacity="0.41568627450980394" stroke="none" d="
M 392.9 314.4
L 392.9 313.9 392.4 313.9 392.4 314.4 392.9 314.4 Z"/>

<path fill="#000000" fill-opacity="0.403921568627451" stroke="none" d="
M 391.4 314.9
L 391.4 314.4 390.9 314.4 390.9 314.9 391.4 314.9
M 437.9 293.95
L 437.9 294.45 438.4 294.45 438.4 293.95 437.9 293.95 Z"/>
</g>
</defs>

<g transform="matrix( 1, 0, 0, 1, 0,0) ">
<use xlink:href="#Layer11_0_FILL"/>
</g>

<g transform="matrix( 1, 0, 0, 1, 0,0) ">
<use xlink:href="#Layer9_0_FILL"/>
</g>

<g transform="matrix( 1, 0, 0, 1, 0,0) ">
<use xlink:href="#Layer9_1_FILL"/>
</g>

<g transform="matrix( 1, 0, 0, 1, 0,0) ">
<use xlink:href="#Layer7_0_FILL"/>
</g>

<g transform="matrix( 1, 0, 0, 1, 0,0) ">
<use xlink:href="#Layer5_0_FILL"/>
</g>

<g transform="matrix( 1, 0, 0, 1, 0,0) ">
<use xlink:href="#Layer3_0_FILL"/>
</g>

<mask id="Mask_Mask_1">
<g transform="matrix( 1, 0, 0, 1, 0,0) ">
<use xlink:href="#Mask_1_MASK_0_FILL"/>
</g>
</mask>

<g mask="url(#Mask_Mask_1)">
<g transform="matrix( 1, 0, 0, 1, 0,0) ">
<use xlink:href="#Layer1_0_FILL"/>
</g>
</g>
</svg>
