
<svg xmlns="http://www.w3.org/2000/svg" version="1.1" xmlns:xlink="http://www.w3.org/1999/xlink" preserveAspectRatio="none" x="0px" y="0px" width="500px" height="500px" viewBox="0 0 500 500">
<defs>
<g id="Layer9_0_FILL">
<path fill="#000000" fill-opacity="0.8509803921568627" stroke="none" d="
M 208.55 250.4
L 208.55 250.35 208.25 250.4 208.55 250.4
M 211.65 248.8
Q 211.5826171875 248.85 211.5 248.85 211.35 249 211.2 249 210.95 249.15 210.7 249.15
L 210.65 249.2 211.65 249.2 211.65 248.8
M 212.85 248.6
L 212.85 248.2
Q 212.7193359375 248.278515625 212.6 248.35 212.45 248.35 212.4 248.4 212.35 248.45 212.3 248.5 212.187890625 248.544921875 212.05 248.6
L 212.85 248.6
M 280.7 202.1
L 280.7 203.35 280.7 204 280.1 204 280.1 207.05 280.7 207.05 280.7 205.8 281.35 205.8 281.35 204 281.95 204 281.95 202.75 281.35 202.75 281.35 202.1 280.7 202.1
M 261.15 169.15
L 261.15 168.55 259.95 168.55 259.95 169.15 260.55 169.15 260.55 169.75 261.15 169.75 262.4 169.75 262.4 169.15 261.15 169.15
M 371.15 197.85
L 369.95 197.85 369.95 198.45 368.15 198.45 368.15 199.1 366.9 199.1 366.9 199.7 364.5 199.7 364.5 200.3 363.2 200.3 363.2 200.9 362 200.9 362 201.5 360.15 201.5 360.15 202.1 358.35 202.1 358.35 202.75 356.5 202.75 356.5 203.35 355.3 203.35 355.3 204 354.1 204 354.1 204.6 352.2 204.6 352.2 205.2 350.4 205.2 350.4 205.8 349.8 205.8 349.8 206.45 347.95 206.45 347.95 207.05 346.15 207.05 346.15 207.65 344.3 207.65 344.3 208.25 342.45 208.25 342.45 208.85 340.6 208.85 340.6 209.45 340 209.45 340 210.1 338.2 210.1 338.2 210.7 336.35 210.7 336.35 211.3 334.55 211.3 334.55 211.9 333.25 211.9 333.25 212.5 332.05 212.5 332.05 213.1 329.6 213.1 329.6 213.8 328.4 213.8 328.4 214.4 327.2 214.4 327.2 215 325.95 215 325.95 215.6 324.1 215.6 324.1 216.2 322.25 216.2 322.25 216.8 320.45 216.8 320.45 217.4 319.25 217.4 319.25 218.05 317.4 218.05 317.4 218.65 315.6 218.65 315.6 219.25 314.3 219.25 314.3 219.85 312.5 219.85 312.5 220.45 310.65 220.45 310.65 221.05 309.45 221.05 309.45 221.7 308.25 221.7 308.25 222.3 307 222.3 307 222.9 304.6 222.9 304.6 223.5 302.7 223.5 302.7 224.15 300.9 224.15 300.9 224.75 299.65 224.75 299.65 225.4 297.85 225.4 297.85 226 295.95 226 295.95 226.6 295.35 226.6 295.35 227.2 292.3 227.2 292.3 227.8 290.5 227.8 290.5 228.4 288.05 228.4 288.05 229.05 286.85 229.05 286.85 229.65 285.65 229.65 285.65 230.25 282.55 230.25 282.55 230.85 280.7 230.85 280.7 231.45 279.5 231.45 279.5 232.05 277.7 232.05 277.7 232.75 276.4 232.75 276.4 233.35 274 233.35 274 233.95 271.55 233.95 271.55 234.55 270.95 234.55 270.95 233.75 270.1 234.4 269.05 234.7
Q 268.7421875 234.6275390625 268.5 234.6
L 268.5 235.15 267.9 235.15 267.9 235.75 266 235.75 266 236.4 263.6 236.4 263.6 237 262.4 237 262.4 237.6 261.75 237.6 261.75 237 261.15 237 261.15 237.6 260.55 237.6 260.55 238.2 257.5 238.2 257.5 238.8 255.65 238.8 255.65 239.4 252.6 239.4 252.6 238.8 252.4 239.05
Q 251.9 239.3 251.6 239.35 251.3 239.45 251.05 239.6 250.9 239.6 250.85 239.7 250.75 239.75 250.7 239.85 250.6 239.9 250.5 239.9 250.35 239.9 250.2 239.9 250.05 239.9 249.95 239.95 249.8880859375 239.970703125 249.8 240
L 250.15 240 250.15 240.65 249.55 240.65 249.55 241.25 247.75 241.25 247.75 241.85 245.85 241.85 245.85 242.45 243.4 242.45 243.4 243.05 240.4 243.05 240.4 243.7 237.95 243.7 237.95 244.35 235.45 244.35 235.45 244.95 233.05 244.95 233.05 245.55 231.8 245.55 231.8 246.15 228.8 246.15 228.8 246.75 226.9 246.75 226.9 247.35 223.85 247.35 223.85 248 222.05 248 222.05 248.6 219 248.6 219 249.2 215.9 249.2 215.9 249.8 212.85 249.8 212.85 250.4 210.45 250.4 210.45 251 207.95 251 207.95 250.4 204.9 250.75 204.9 251 204.45 251 204.15 251.3
Q 203.9162109375 251.309375 203.7 251.3
L 203.7 251.7 203.1 251.7 203.1 252.3 200.05 252.3 200.05 252.9 193.9 252.9 193.9 253.5 189 253.5 189 254.1 188.4 254.1 188.4 253.5 187.2 253.5 187.2 254.1 167 254.1 167 253.5 164.6 253.5 164.6 252.9 163.95 252.9 163.95 252.3
Q 163.3587890625 252.4 162.7 252.4 162.4208984375 252.4 162.15 252.4
L 162.15 252.9 160.95 252.9 160.95 252.3 158.45 252.3 158.45 251.7 156 251.7 156 251 154.8 251 154.8 250.4 154.2 250.4 154.2 249.8 153 249.8 153 249.2 151.75 249.2 151.75 248.6 151.15 248.6 151.15 248 149.9 248 149.9 247.35 149.3 247.35 149.3 246.75 148.05 246.75 148.05 246.15 147.45 246.15 147.45 245.55 146.85 245.55 146.85 244.95 146.25 244.95 146.25 244.35 145.65 244.35 145.65 243.7 145 243.7 145 243.05 144.4 243.05 144.4 242.45 143.8 242.45 143.8 241.25 143.2 241.25 143.2 240 142.6 240 142.6 238.8 142 238.8 142 237 141.3 237 141.3 235.15 140.7 235.15 140.7 223.5 141.3 223.5 141.3 221.05 142 221.05 142 219.25 142.6 219.25 142.6 217.4 143.2 217.4 143.2 215.6 143.8 215.6 143.8 214.4 144.4 214.4 144.4 213.8 145 213.8 145 212.5 145.65 212.5 145.65 211.3 146.25 211.3 146.25 210.7 146.85 210.7 146.85 209.45 147.45 209.45 147.45 208.25 148.05 208.25 148.05 207.65 148.65 207.65 148.65 207.05 149.3 207.05 149.3 206.45 149.9 206.45 149.9 205.2 150.5 205.2 150.5 204.6 151.15 204.6 151.15 204 151.75 204 151.75 203.35 152.35 203.35 152.35 202.1 153 202.1 153 201.5 153.6 201.5 153.6 200.9 154.2 200.9 154.2 200.3 154.8 200.3 154.8 199.7 155.4 199.7 155.4 199.1 156.6 199.1 156.6 198.45 157.25 198.45 157.25 197.85 157.85 197.85 157.85 197.25 158.45 197.25 158.45 196.65 159.05 196.65 159.05 196.05 160.25 196.05 160.25 195.45 160.95 195.45 160.95 194.75 161.55 194.75 161.55 194.15 162.15 194.15 162.15 193.55 163.35 193.55 163.35 192.95 163.95 192.95 163.95 192.35 164.6 192.35 164.6 191.75 165.8 191.75 165.8 191.15 166.4 191.15 166.4 190.5 167.6 190.5 167.6 189.9 168.25 189.9 168.25 189.3 168.85 189.3 168.85 188.7 170.05 188.7 170.05 188.1 170.7 188.1 170.7 187.5 171.3 187.5 171.3 186.85 171.95 186.85 171.95 186.25 172.55 186.25 172.55 185.65 174.95 185.65 174.95 185.05 175.6 185.05 175.6 184.45 176.8 184.45 176.8 183.8 178 183.8 178 183.15 179.2 183.15 179.2 182.55 180.5 182.55 180.5 181.95 181.7 181.95 181.7 181.35 182.9 181.35 182.9 180.75 184.15 180.75 184.15 180.15 184.75 180.15 184.75 179.5 185.35 179.5 185.35 178.3 186.55 178.3 186.55 178.9 187.8 178.9 187.8 178.3 189 178.3 189 177.7 191.5 177.7 191.5 177.1 192.7 177.1 192.7 176.5 193.9 176.5 193.9 175.8 195.15 175.8 195.15 175.2 196.95 175.2 196.95 174 197.55 174 197.55 174.6 198.85 174.6 198.85 174 200.65 174 200.65 173.4 202.5 173.4 202.5 172.8 204.3 172.8 204.3 172.15 205.5 172.15 205.5 171.55 207.95 171.55 207.95 170.95 209.85 170.95 209.85 170.35 211.65 170.35 211.65 169.15 211.05 169.15 211.05 168.55 212.25 168.55 212.25 169.15 212.85 169.15 212.85 168.55 214.1 168.55 214.1 169.75 215.9 169.75 215.9 169.15 217.15 169.15 217.15 168.55 219 168.55 219 167.3 220.8 167.3 220.8 166.7 221.45 166.7 221.45 167.3 222.05 167.3 222.05 167.9 223.25 167.9 223.25 167.3 223.85 167.3 223.85 166.7 224.45 166.7 224.45 167.3 226.3 167.3 226.3 166.7 230 166.7 230 166.1 233.05 166.1 233.05 165.5 233.65 165.5 233.65 166.1 236.7 166.1 236.7 166.7 238.55 166.7 238.55 166.1 239.15 166.1 239.15 165.5 238.55 165.5 238.55 164.9 236.7 164.9 236.7 165.5 236.1 165.5 236.1 164.2 232.45 164.2 232.45 164.9 230 164.9 230 165.5 228.8 165.5 228.8 164.9 226.9 164.9 226.9 165.5 226.3 165.5 226.3 166.1 225.1 166.1 225.1 165.5 221.45 165.5 221.45 166.1 220.2 166.1 220.2 166.7 219.6 166.7 219.6 166.1 219 166.1 219 166.7 215.3 166.7 215.3 167.3 212.25 167.3 212.25 167.9 210.45 167.9 210.45 168.55 207.95 168.55 207.95 169.15 206.15 169.15 206.15 169.75 204.3 169.75 204.3 170.35 201.85 170.35 201.85 170.95 200.05 170.95 200.05 171.55 198.85 171.55 198.85 172.15 196.95 172.15 196.95 172.8 195.15 172.8 195.15 173.4 193.9 173.4 193.9 174 192.1 174 192.1 174.6 190.9 174.6 190.9 175.2 189.6 175.2 189.6 175.8 188.4 175.8 188.4 176.5 187.2 176.5 187.2 177.1 185.95 177.1 185.95 177.7 184.15 177.7 184.15 178.9 182.9 178.9 182.9 179.5 181.7 179.5 181.7 180.15 179.9 180.15 179.9 180.75 178.6 180.75 178.6 181.35 177.4 181.35 177.4 181.95 176.2 181.95 176.2 182.55 174.95 182.55 174.95 183.15 174.35 183.15 174.35 183.8 173.15 183.8 173.15 184.45 171.95 184.45 171.95 185.05 171.3 185.05 171.3 185.65 170.05 185.65 170.05 186.25 169.45 186.25 169.45 186.85 168.25 186.85 168.25 187.5 167 187.5 167 188.7 165.2 188.7 165.2 189.3 164.6 189.3 164.6 189.9 163.95 189.9 163.95 190.5 162.75 190.5 162.75 191.15 162.15 191.15 162.15 191.75 160.95 191.75 160.95 192.35 160.25 192.35 160.25 192.95 159.65 192.95 159.65 193.55 159.05 193.55 159.05 194.15 158.45 194.15 158.45 194.75 157.25 194.75 157.25 196.05 156.6 196.05 156.6 196.65 156 196.65 156 197.25 154.8 197.25 154.8 197.85 154.2 197.85 154.2 198.45 153.6 198.45 153.6 199.1 153 199.1 153 199.7 152.35 199.7 152.35 200.3 151.75 200.3 151.75 200.9 151.15 200.9 151.15 201.5 150.5 201.5 150.5 202.1 149.9 202.1 149.9 202.75 149.3 202.75 149.3 204 148.65 204 148.65 204.6 148.05 204.6 148.05 205.2 147.45 205.2 147.45 206.45 146.85 206.45 146.85 207.05 146.25 207.05 146.25 207.65 145.65 207.65 145.65 208.85 145 208.85 145 209.45 144.4 209.45 144.4 210.7 143.8 210.7 143.8 211.9 143.2 211.9 143.2 212.5 142.6 212.5 142.6 213.8 142 213.8 142 215 141.3 215 141.3 216.8 140.7 216.8 140.7 218.65 140.1 218.65 140.1 221.05 139.5 221.05 139.5 222.9 138.9 222.9 138.9 235.15 139.5 235.15 139.5 238.2 140.1 238.2 140.1 240 140.7 240 140.7 241.25 141.3 241.25 141.3 242.45 142 242.45 142 243.7 142.6 243.7 142.6 244.95 143.2 244.95 143.2 245.55 144.4 245.55 144.4 246.15 145 246.15 145 247.35 146.25 247.35 146.25 248 146.85 248 146.85 248.6 147.45 248.6 147.45 249.2 148.05 249.2 148.05 249.8 148.65 249.8 148.65 250.4 149.9 250.4 149.9 251 151.15 251 151.15 251.7 151.75 251.7 151.75 252.3 153 252.3 153 252.9 154.8 252.9 154.8 253.5 156 253.5 156 254.1 157.25 254.1 157.25 254.7 159.05 254.7 159.05 255.35 162.15 255.35 162.15 255.95 162.65 255.95
Q 163.066796875 255.5853515625 164.05 255.85 164.4 256.05 165.15 255.95 165.4798828125 255.9279296875 165.8 255.95
L 165.8 255.95 167 255.95 167 256.3
Q 167.2625 256.4337890625 167.55 256.55
L 177.4 256.55 177.4 257.15 178.6 257.15 178.6 256.55 185.35 256.55 185.35 255.95 193.3 255.95 193.3 255.35 197.55 255.35 197.55 254.7 200.05 254.7 200.05 254.75
Q 200.445703125 254.85 201.15 254.85 201.5498046875 254.755859375 201.85 254.7
L 201.85 254.7 202.05 254.7
Q 202.2552734375 254.6818359375 202.4 254.7
L 203.7 254.7 203.7 254.1 206.15 254.1 206.15 253.5 209.15 253.5 209.15 252.9 212.25 252.9 212.25 252.3 215.9 252.3 215.9 251.7 218.4 251.7 218.4 251 221.45 251 221.45 250.4 223.85 250.4 223.85 249.8 226.9 249.8 226.9 249.2 229.4 249.2 229.4 248.6 231.8 248.6 231.8 248 233.65 248 233.65 247.35 235.45 247.35 235.45 246.75 237.95 246.75 237.95 246.15 241 246.15 241 245.55 242.2 245.55 242.2 244.95 244.05 244.95 244.05 244.35 245.85 244.35 245.85 243.7 248.35 243.7 248.35 243.05 250.75 243.05 250.75 242.45 253.2 242.45 253.2 241.85 253.7 241.85 253.75 241.8
Q 254.05 241.55 254.4 241.4 254.55 241.25 254.85 241.25 255.1 241.25 255.4 241.25 255.65 241.25 255.9 241.1 256.05 241.1 256.2 240.95 256.45 240.95 256.75 240.95 256.7990234375 240.95 256.85 240.95
L 256.85 240.65 258.75 240.65 258.75 240 261.15 240 261.15 239.4 263.6 239.4 263.6 238.8 264.7 238.8
Q 264.7400390625 238.6626953125 264.8 238.55
L 264.8 238.2 265.1 238.2
Q 265.1634765625 238.1431640625 265.25 238.1 265.55 238 266.05 237.95 266.5 238.05 266.8 237.9 267.25 237.75 267.65 237.75 268.15 237.75 268.4 237.55 268.6701171875 237.4150390625 269.1 237.4
L 269.1 237 270.35 237 270.35 236.4 272.15 236.4 272.15 235.75 274 235.75 274 235.15 275.8 235.15 275.8 234.55 277.7 234.55 277.7 233.95 279.5 233.95 279.5 233.35 281.95 233.35 281.95 232.75 283.75 232.75 283.75 232.05 286.25 232.05 286.25 231.45 287.45 231.45 287.45 230.85 289.3 230.85 289.3 230.25 291.1 230.25 291.1 229.65 292.95 229.65 292.95 229.05 294.75 229.05 294.75 228.4 296.65 228.4 296.65 227.8 298.45 227.8 298.45 227.2 299.65 227.2 299.65 226.6 301.5 226.6 301.5 226 303.3 226 303.3 225.4 305.2 225.4 305.2 224.75 306.4 224.75 306.4 224.15 308.25 224.15 308.25 223.5 310.65 223.5 310.65 222.9 311.9 222.9 311.9 222.3 313.1 222.3 313.1 221.7 314.9 221.7 314.9 221.05 315.6 221.05 315.6 220.45 318 220.45 318 219.85 319.25 219.85 319.25 219.25 321.05 219.25 321.05 218.65 322.9 218.65 322.9 218.05 324.75 218.05 324.75 217.4 326.6 217.4 326.6 216.8 328.4 216.8 328.4 216.2 329 216.2 329 215.6 330.85 215.6 330.85 215 332.65 215 332.65 214.4 333.85 214.4 333.85 213.8 335.15 213.8 335.15 213.1 336.95 213.1 336.95 212.5 338.2 212.5 338.2 211.9 340.6 211.9 340.6 211.3 341.85 211.3 341.85 210.7 343.05 210.7 343.05 210.1 344.9 210.1 344.9 209.45 346.75 209.45 346.75 208.85 348.55 208.85 348.55 208.25 349.8 208.25 349.8 207.65 351.6 207.65 351.6 207.05 352.8 207.05 352.8 206.45 354.7 206.45 354.7 205.8 355.9 205.8 355.9 205.2 357.75 205.2 357.75 204.6 358.95 204.6 358.95 204 360.8 204 360.8 203.35 362.6 203.35 362.6 202.75 363.85 202.75 363.85 202.1 366.3 202.1 366.3 201.5 367.5 201.5 367.5 200.9 369.35 200.9 369.35 200.3 371.15 200.3 371.15 199.7 372.45 199.7 372.45 199.1 374.85 199.1 374.85 198.45 376.1 198.45 376.1 197.85 377.9 197.85 377.9 197.25 379.75 197.25 379.75 196.65 381.55 196.65 381.55 196.05 383.45 196.05 383.45 195.45 385.85 195.45 385.85 194.75 388.3 194.75 388.3 194.15 390.1 194.15 390.1 193.55 392.6 193.55 392.6 192.95 393.8 192.95 393.8 192.35 395.65 192.35 395.65 191.75 397.45 191.75 397.45 191.15 401.1 191.15 401.1 190.5 401.7 190.5 401.7 189.9 403.6 189.9 403.6 189.3 405.4 189.3 405.4 188.7 409.05 188.7 409.05 188.1 410.9 188.1 410.9 187.5 414 187.5 414 186.85 414.6 186.85 414.6 187.5 415.2 187.5 415.2 186.85 418.25 186.85 418.25 186.25 423.75 186.25 423.75 185.65 432.35 185.65 432.35 185.05 443.95 185.05 443.95 185.65 445.15 185.65 445.15 185.05 446.35 185.05 446.35 185.65 446.95 185.65 446.95 185.05 447.6 185.05 447.6 185.65 450 185.65 450 186.25 453.7 186.25 453.7 186.85 456.15 186.85 456.15 187.5 457.35 187.5 457.35 188.1 459.25 188.1 459.25 187.5 459.85 187.5 459.85 186.85 460.45 186.85 460.45 185.05 459.25 185.05 459.25 184.45 458.65 184.45 458.65 183.8 454.3 183.8 454.3 183.15 451.3 183.15 451.3 182.55 442.1 182.55 442.1 181.95 436.6 181.95 436.6 182.55 428 182.55 428 183.15 421.35 183.15 421.35 183.8 417.65 183.8 417.65 184.45 415.2 184.45 415.2 185.05 412.15 185.05 412.15 185.65 409.7 185.65 409.7 186.25 406.65 186.25 406.65 186.85 404.2 186.85 404.2 187.5 402.4 187.5 402.4 188.1 400.5 188.1 400.5 188.7 398.05 188.7 398.05 189.3 395.65 189.3 395.65 189.9 394.45 189.9 394.45 190.5 391.35 190.5 391.35 191.15 390.1 191.15 390.1 191.75 387.7 191.75 387.7 192.35 387.1 192.35 387.1 192.95 384.05 192.95 384.05 193.55 382.15 193.55 382.15 194.15 380.35 194.15 380.35 194.75 377.9 194.75 377.9 195.45 376.7 195.45 376.7 196.05 374.85 196.05 374.85 196.65 373.05 196.65 373.05 197.25 371.15 197.25 371.15 197.85
M 192.7 175.2
L 192.7 175.8 191.5 175.8 191.5 175.2 192.7 175.2 Z"/>

<path fill="#000000" fill-opacity="0.7647058823529411" stroke="none" d="
M 218.4 244.35
L 219.6 244.35 219.6 244.05
Q 218.994140625 244.1853515625 218.4 244.3
L 218.4 244.35 Z"/>

<path fill="#000000" fill-opacity="0.6274509803921569" stroke="none" d="
M 218.4 244.95
L 218.4 244.35 218.4 244.3
Q 218.0986328125 244.3919921875 217.8 244.45
L 217.8 244.95 218.4 244.95
M 282.55 198.45
L 281.35 198.45 281.35 200.3 281.95 200.3 281.95 199.7 282.55 199.7 282.55 198.45 Z"/>

<path fill="#000000" fill-opacity="0.5411764705882353" stroke="none" d="
M 216.5 244.95
L 216.5 244.85
Q 216.4736328125 244.8763671875 216.45 244.9 216.4 244.9 216.4 245.05 216.4 245.2 216.4 245.35 216.4 245.4328125 216.4 245.55
L 216.5 245.55 216.5 244.95 Z"/>

<path fill="#000000" fill-opacity="0.9921568627450981" stroke="none" d="
M 216.5 244.85
L 216.5 244.95 217.8 244.95 217.8 244.45
Q 217.2703125 244.596875 216.75 244.75 216.7 244.65 216.7 244.8 216.5853515625 244.8 216.5 244.85 Z"/>

<path fill="#000000" fill-opacity="0.6784313725490196" stroke="none" d="
M 278.9 212.5
L 278.9 211.9 277.7 211.9 277.7 213.1 278.3 213.1 278.3 212.5 278.9 212.5
M 257.5 166.7
L 253.2 166.7 253.2 167.3 255.65 167.3 255.65 167.9 256.25 167.9 256.25 167.3 257.5 167.3 257.5 166.7 Z"/>

<path fill="#000000" fill-opacity="0.5098039215686274" stroke="none" d="
M 278.9 210.1
L 278.3 210.1 278.3 211.3 279.5 211.3 279.5 210.7 278.9 210.7 278.9 210.1 Z"/>

<path fill="#000000" fill-opacity="0.9333333333333333" stroke="none" d="
M 279.5 210.1
L 280.1 210.1 280.1 209.45 278.9 209.45 278.9 210.1 278.9 210.7 279.5 210.7 279.5 210.1 Z"/>

<path fill="#000000" fill-opacity="0.5529411764705883" stroke="none" d="
M 280.7 203.35
L 280.1 203.35 280.1 204 280.7 204 280.7 203.35 Z"/>

<path fill="#000000" fill-opacity="0.5764705882352941" stroke="none" d="
M 281.95 200.9
L 281.35 200.9 281.35 202.1 281.35 202.75 281.95 202.75 281.95 200.9 Z"/>

<path fill="#000000" fill-opacity="0.40784313725490196" stroke="none" d="
M 281.95 197.25
L 281.95 196.65 281.35 196.65 281.35 197.25 281.95 197.25 Z"/>

<path fill="#000000" fill-opacity="0.7803921568627451" stroke="none" d="
M 281.95 193.55
L 281.95 194.15 281.95 195.45 281.95 196.65 281.95 197.25 281.95 197.85 282.55 197.85 282.55 192.35 281.95 192.35 281.95 193.55 Z"/>

<path fill="#000000" fill-opacity="0.5607843137254902" stroke="none" d="
M 281.95 194.15
L 281.35 194.15 281.35 195.45 281.95 195.45 281.95 194.15 Z"/>

<path fill="#000000" fill-opacity="0.4" stroke="none" d="
M 281.35 193.55
L 281.95 193.55 281.95 192.35 281.35 192.35 281.35 193.55 Z"/>

<path fill="#000000" fill-opacity="0.9647058823529412" stroke="none" d="
M 280.7 186.85
L 280.7 186.25 280.1 186.25 280.1 186.85 280.7 186.85 Z"/>

<path fill="#000000" fill-opacity="0.5019607843137255" stroke="none" d="
M 280.7 186.25
L 280.7 185.65 280.1 185.65 280.1 186.25 280.7 186.25 Z"/>

<path fill="#000000" fill-opacity="0.8431372549019608" stroke="none" d="
M 281.35 188.1
L 281.35 187.5 280.7 187.5 280.7 188.1 281.35 188.1 Z"/>

<path fill="#000000" fill-opacity="0.5215686274509804" stroke="none" d="
M 271.55 175.2
L 271.55 174.6 270.35 174.6 270.35 175.2 271.55 175.2 Z"/>

<path fill="#000000" stroke="none" d="
M 278.3 182.55
L 278.3 183.15 278.9 183.15 278.9 182.55 278.3 182.55
M 241.6 164.9
L 241.6 165.5 244.05 165.5 244.05 164.9 241.6 164.9 Z"/>

<path fill="#000000" fill-opacity="0.6509803921568628" stroke="none" d="
M 278.3 183.15
L 278.3 183.8 278.9 183.8 278.9 185.05 280.1 185.05 280.1 184.45 279.5 184.45 279.5 183.15 278.9 183.15 278.3 183.15 Z"/>

<path fill="#000000" fill-opacity="0.6431372549019608" stroke="none" d="
M 277.05 180.75
L 277.05 180.15 276.4 180.15 275.8 180.15 275.8 180.75 276.4 180.75 276.4 181.35 277.05 181.35 277.05 181.95 277.7 181.95 277.7 182.55 278.3 182.55 278.9 182.55 278.9 181.95 278.3 181.95 278.3 181.35 277.7 181.35 277.7 180.75 277.05 180.75 Z"/>

<path fill="#000000" fill-opacity="0.47058823529411764" stroke="none" d="
M 276.4 178.9
L 275.8 178.9 275.8 179.5 276.4 179.5 276.4 178.9 Z"/>

<path fill="#000000" fill-opacity="0.8666666666666667" stroke="none" d="
M 274 178.9
L 274.6 178.9 274.6 179.5 275.2 179.5 275.2 180.15 275.8 180.15 276.4 180.15 276.4 179.5 275.8 179.5 275.8 178.9 275.2 178.9 275.2 178.3 274.6 178.3 274.6 177.7 274 177.7 274 177.1 273.35 177.1 273.35 176.5 272.75 176.5 272.75 175.8 272.15 175.8 272.15 175.2 271.55 175.2 270.35 175.2 270.35 175.8 270.95 175.8 270.95 176.5 271.55 176.5 271.55 177.1 272.75 177.1 272.75 177.7 273.35 177.7 273.35 178.3 274 178.3 274 178.9 Z"/>

<path fill="#000000" fill-opacity="0.5568627450980392" stroke="none" d="
M 269.1 173.4
L 269.1 174 269.7 174 269.7 173.4 269.1 173.4 Z"/>

<path fill="#000000" fill-opacity="0.5843137254901961" stroke="none" d="
M 260.55 169.75
L 260.55 169.15 259.95 169.15 259.95 169.75 260.55 169.75 Z"/>

<path fill="#000000" fill-opacity="0.5686274509803921" stroke="none" d="
M 258.1 168.55
L 258.1 169.15 259.95 169.15 259.95 168.55 259.95 167.9 259.35 167.9 259.35 168.55 258.1 168.55 Z"/>

<path fill="#000000" fill-opacity="0.8862745098039215" stroke="none" d="
M 257.5 168.55
L 258.1 168.55 259.35 168.55 259.35 167.9 258.1 167.9 258.1 167.3 257.5 167.3 256.25 167.3 256.25 167.9 257.5 167.9 257.5 168.55 Z"/>

<path fill="#000000" fill-opacity="0.5372549019607843" stroke="none" d="
M 252 166.1
L 252 165.5 250.75 165.5 250.75 166.1 252 166.1 Z"/>

<path fill="#000000" fill-opacity="0.5647058823529412" stroke="none" d="
M 252 166.1
L 252 166.7 253.2 166.7 253.2 166.1 252 166.1 Z"/>

<path fill="#000000" fill-opacity="0.596078431372549" stroke="none" d="
M 263.6 170.35
L 264.2 170.35 264.2 169.75 262.4 169.75 261.15 169.75 261.15 170.35 263 170.35 263 170.95 263.6 170.95 263.6 170.35 Z"/>

<path fill="#000000" fill-opacity="0.9294117647058824" stroke="none" d="
M 265.4 171.55
L 265.4 170.95 264.8 170.95 264.8 170.35 264.2 170.35 263.6 170.35 263.6 170.95 264.2 170.95 264.2 171.55 264.8 171.55 264.8 172.15 265.4 172.15 265.4 172.8 266 172.8 266 173.4 267.9 173.4 267.9 174 269.1 174 269.1 173.4 268.5 173.4 268.5 172.8 267.3 172.8 267.3 172.15 266 172.15 266 171.55 265.4 171.55 Z"/>

<path fill="#000000" fill-opacity="0.5058823529411764" stroke="none" d="
M 265.4 170.95
L 265.4 171.55 266 171.55 266 170.95 265.4 170.95 Z"/>

<path fill="#000000" fill-opacity="0.6470588235294118" stroke="none" d="
M 250.15 166.1
L 250.15 164.9 246.45 164.9 246.45 165.5 246.45 166.1 250.15 166.1 Z"/>

<path fill="#000000" fill-opacity="0.5450980392156862" stroke="none" d="
M 239.8 164.2
L 239.8 165.5 241.6 165.5 241.6 164.9 244.05 164.9 244.05 165.5 241.6 165.5 241.6 166.1 246.45 166.1 246.45 165.5 245.85 165.5 245.85 164.9 245.25 164.9 245.25 165.5 244.65 165.5 244.65 164.2 239.8 164.2 Z"/>

<path fill="#000000" fill-opacity="0.10196078431372549" stroke="none" d="
M 192.7 175.8
L 192.7 175.2 191.5 175.2 191.5 175.8 192.7 175.8 Z"/>
</g>

<g id="Layer7_0_FILL">
<path fill="#000000" fill-opacity="0.8509803921568627" stroke="none" d="
M 222.65 270.6
L 222.65 270.45
Q 222.5751953125 270.538671875 222.5 270.6
L 222.65 270.6
M 224.45 269.95
L 224.45 269.35 223.45 269.6 223.3 269.95 224.45 269.95
M 150.5 295.65
L 150.5 296.25 147.45 296.25 147.45 296.9 145.65 296.9 145.65 297.5 143.2 297.5 143.2 298.1 140.7 298.1 140.7 298.7 138.9 298.7 138.9 299.3 136.45 299.3 136.45 299.9 134.65 299.9 134.65 300.6 133.4 300.6 133.4 301.2 131 301.2 131 301.8 128.5 301.8 128.5 302.4 126.7 302.4 126.7 303 124.85 303 124.85 303.6 122.35 303.6 122.35 304.2 121.15 304.2 121.15 304.85 119.35 304.85 119.35 305.45 117.5 305.45 117.5 306.05 115.7 306.05 115.7 306.65 114.45 306.65 114.45 307.25 113.25 307.25 113.25 307.85 111.35 307.85 111.35 308.5 108.95 308.5 108.95 309.1 107.75 309.1 107.75 309.7 106.5 309.7 106.5 310.3 104.7 310.3 104.7 310.95 103.45 310.95 103.45 311.55 101.6 311.55 101.6 312.2 101 312.2 101 312.8 99.15 312.8 99.15 313.4 97.95 313.4 97.95 314 96.1 314 96.1 314.6 94.9 314.6 94.9 315.2 93.7 315.2 93.7 315.85 92.4 315.85 92.4 316.45 91.2 316.45 91.2 317.05 90 317.05 90 317.65 88.75 317.65 88.75 318.25 87.55 318.25 87.55 318.85 86.35 318.85 86.35 319.55 85.15 319.55 85.15 320.15 83.9 320.15 83.9 320.75 82.65 320.75 82.65 321.35 81.45 321.35 81.45 321.95 80.2 321.95 80.2 322.55 79 322.55 79 323.2 77.8 323.2 77.8 323.8 76.55 323.8 76.55 324.4 75.35 324.4 75.35 325 74.15 325 74.15 325.6 72.85 325.6 72.85 326.2 71.65 326.2 71.65 326.8 70.45 326.8 70.45 327.45 69.2 327.45 69.2 328.05 68 328.05 68 328.65 67.4 328.65 67.4 329.25 65.55 329.25 65.55 329.85 64.35 329.85 64.35 330.5 63.1 330.5 63.1 331.15 61.85 331.15 61.85 331.75 60.65 331.75 60.65 332.35 59.45 332.35 59.45 332.95 58.2 332.95 58.2 333.55 57.6 333.55 57.6 334.8 59.45 334.8 59.45 334.15 60.65 334.15 60.65 333.55 62.5 333.55 62.5 332.95 63.1 332.95 63.1 332.35 64.95 332.35 64.95 331.75 66.15 331.75 66.15 331.15 68 331.15 68 330.5 68.6 330.5 68.6 329.85 69.8 329.85 69.8 329.25 71.05 329.25 71.05 328.65 71.65 328.65 71.65 328.05 72.85 328.05 72.85 327.45 74.75 327.45 74.75 326.8 75.95 326.8 75.95 326.2 77.15 326.2 77.15 325.6 77.8 325.6 77.8 325 79.6 325 79.6 324.4 80.2 324.4 80.2 323.8 81.45 323.8 81.45 323.2 82.65 323.2 82.65 322.55 83.9 322.55 83.9 321.95 85.75 321.95 85.75 321.35 86.35 321.35 86.35 320.75 87.55 320.75 87.55 320.15 88.75 320.15 88.75 319.55 90 319.55 90 318.85 90.6 318.85 90.6 318.25 92.4 318.25 92.4 317.65 93.7 317.65 93.7 317.05 95.5 317.05 95.5 316.45 96.1 316.45 96.1 315.85 97.95 315.85 97.95 315.2 99.15 315.2 99.15 314.6 99.75 314.6 99.75 314 101.6 314 101.6 313.4 103.45 313.4 103.45 312.8 104.7 312.8 104.7 312.2 106.5 312.2 106.5 311.55 107.75 311.55 107.75 310.95 109.55 310.95 109.55 310.3 111.35 310.3 111.35 309.7 112.65 309.7 112.65 309.1 113.85 309.1 113.85 308.5 116.3 308.5 116.3 307.85 117.5 307.85 117.5 307.25 119.35 307.25 119.35 306.65 120.55 306.65 120.55 306.05 121.75 306.05 121.75 305.45 123.65 305.45 123.65 304.85 124.85 304.85 124.85 304.2 127.3 304.2 127.3 303.6 128.5 303.6 128.5 303 129.7 303 129.7 303.6 131 303.6 131 303 132.8 303 132.8 302.4 134.65 302.4 134.65 301.8 135.25 301.8 135.25 301.2 137.65 301.2 137.65 300.6 140.1 300.6 140.1 299.9 143.2 299.9 143.2 299.3 144.4 299.3 144.4 298.7 146.85 298.7 146.85 298.1 147.45 298.1 147.45 297.5 149.9 297.5 149.9 296.9 154.2 296.9 154.2 296.25 158.45 296.25 158.45 295.65 159.05 295.65 159.05 295.05 160.95 295.05 160.95 294.45 162.75 294.45 162.75 293.85 164.6 293.85 164.6 294.45 165.8 294.45 165.8 293.85 167.6 293.85 167.6 293.25 168.85 293.25 168.85 292.6 170.7 292.6 170.7 292 174.35 292 174.35 291.4 176.2 291.4 176.2 290.8 178.6 290.8 178.6 290.15 179.9 290.15 179.9 289.55 181.1 289.55 181.1 288.9 183.55 288.9 183.55 288.3 186.55 288.3 186.55 287.7 188.4 287.7 188.4 287.1 189.6 287.1 189.6 286.5 190.9 286.5 190.9 285.9 192.1 285.9 192.1 285.25 195.15 285.25 195.15 284.65 195.75 284.65 195.75 284.05 198.85 284.05 198.85 283.45 200.05 283.45 200.05 282.85 200.65 282.85 200.65 282.25 202.5 282.25 202.5 281.65 204.3 281.65 204.3 280.95 206.15 280.95 206.15 280.35 206.75 280.35 206.75 279.75 207.95 279.75 207.95 279.15 210.45 279.15 210.45 278.55 212.25 278.55 212.25 277.95 213.5 277.95 213.5 277.3 214.7 277.3 214.7 276.7 215.3 276.7 215.3 276.1 216.5 276.1 216.5 275.5 217.8 275.5 217.8 274.9 220.2 274.9 220.2 274.3 220.8 274.3 220.8 273.65 222.05 273.65 222.05 273.05 223.85 273.05 223.85 272.45 224.45 272.45 224.45 271.85 225.7 271.85 225.7 271.25 227.5 271.25 227.5 270.6 228.1 270.6 228.1 269.95 229.4 269.95 229.4 269.35 230.6 269.35 230.6 268.75 231.8 268.75 231.8 268.15 232.45 268.15 232.45 267.55 234.25 267.55 234.25 266.95 234.85 266.95 234.85 266.3 236.1 266.3 236.1 265.7 236.7 265.7 236.7 265.1 237.3 265.1 237.3 264.5 237.95 264.5 237.95 263.9 238.55 263.9 238.55 263.3 240.4 263.3 240.4 262.6 241 262.6 241 261.4 242.2 261.4 242.2 262 242.8 262 242.8 260.2 244.05 260.2 244.05 259.6 245.85 259.6 245.85 259 246.45 259 246.45 258.35 247.75 258.35 247.75 257.75 248.35 257.75 248.35 257.15 248.95 257.15 248.95 256.55 249.55 256.55 249.55 255.95 250.75 255.95 250.75 255.35 251.4 255.35 251.4 254.7 252 254.7 252 254.1 252.6 254.1 252.6 253.5 253.2 253.5 253.2 252.9 253.8 252.9 253.8 252.3 255.05 252.3 255.05 251.7 255.65 251.7 255.65 251 256.25 251 256.25 250.4 256.85 250.4 256.85 249.8 257.5 249.8 257.5 249.2 257.65 249.2
Q 257.8796875 248.6583984375 258.1 248.35
L 258.1 248 258.25 248
Q 258.3154296875 247.9189453125 258.35 247.85 258.4 247.75 258.5 247.7 258.55 247.6 258.6 247.5 258.7 247.3 258.8 247.1 258.9 246.8 259 246.55 259.05 246.5 259.1 246.45 259.15 246.3 259.15 246.15
L 258.75 246.15 258.75 244.35 258.1 244.35 258.1 242.45 257.5 242.45 257.5 241.85 256.85 241.85 256.85 240.65 253.25 239.4 252.6 239.4 252.6 238.8 248.35 238.8 248.35 238.2 244.65 238.2 244.65 237.6 244.05 237.6 244.05 238.2 236.1 238.2 236.1 238.8 232.45 238.8 232.45 239.4 228.8 239.4 228.8 240 226.9 240 226.9 240.65 227.5 240.65 227.5 241.25 228.1 241.25 228.1 240.65 229.4 240.65 229.4 240 236.1 240 236.1 239.4 242.2 239.4 242.2 238.8 243.4 238.8 243.4 239.4 245.85 239.4 245.85 240 250.15 240 250.15 240.65 249.55 240.65 249.55 240.7
Q 250.076953125 240.7869140625 250.6 240.9 251.4 240.8 252.25 240.8
L 253.75 241.85 254.4 241.85 254.4 242.15
Q 254.5353515625 242.2689453125 254.55 242.45
L 255.05 242.45 255.05 243.05 256.25 243.05 256.25 244.35 256.85 244.35 256.85 245.55 256.25 245.55 256.25 247.35 255.65 247.35 255.65 248 255.05 248 255.05 249.2 254.4 249.2 254.4 249.8 253.8 249.8 253.8 250.4 253.2 250.4 253.2 251 252.6 251 252.6 251.7 252 251.7 252 252.3 251.4 252.3 251.4 252.9 250.15 252.9 250.15 253.5 249.55 253.5 249.55 254.1 248.95 254.1 248.95 254.7 247.75 254.7 247.75 255.35 247.05 255.35 247.05 255.95 246.45 255.95 246.45 256.55 245.85 256.55 245.85 257.15 244.65 257.15 244.65 257.75 243.4 257.75 243.4 258.35 242.2 258.35 242.2 259.6 241 259.6 241 259 240.4 259 240.4 259.6 239.8 259.6 239.8 260.2 239.15 260.2 239.15 260.8 237.95 260.8 237.95 261.4 236.7 261.4 236.7 262 235.45 262 235.45 262.6 234.85 262.6 234.85 263.3 233.65 263.3 233.65 263.9 233.05 263.9 233.05 264.5 231.7 264.5
Q 231.6765625 264.5234375 231.65 264.55 231.5 264.7 231.35 264.85 231 265 230.65 265.1 230.35 265.3 229.7 265.7 229.2 266.15 228.5 266.45
L 228.2 267.1 226.3 268.35 226 269 224.55 269.35 226.3 269.35 226.3 268.75 226.9 268.75 226.9 269.35 226.3 269.35 226.3 269.95 225.1 269.95 225.1 270.6 223.85 270.6 223.85 271.25 222.05 271.25 222.05 271.85 221.45 271.85 221.45 272.45 219.6 272.45 219.6 273.05 219 273.05 219 273.65 217.8 273.65 217.8 274.3 215.3 274.3 215.3 274.9 214.7 274.9 214.7 275.5 213.5 275.5 213.5 276.1 212.25 276.1 212.25 276.7 211.05 276.7 211.05 277.3 208.55 277.3 208.55 277.95 207.95 277.95 207.95 278.55 206.15 278.55 206.15 279.15 205.5 279.15 205.5 279.75 203.1 279.75 203.1 280.35 201.25 280.35 201.25 280.95 200.65 280.95 200.65 281.65 199.45 281.65 199.45 282.85 197.55 282.85 197.55 282.25 196.95 282.25 196.95 282.85 195.15 282.85 195.15 283.45 193.3 283.45 193.3 284.05 191.5 284.05 191.5 284.65 189.6 284.65 189.6 285.25 188.4 285.25 188.4 285.9 187.8 285.9 187.8 286.5 187.2 286.5 187.2 285.9 186.55 285.9 186.55 286.5 184.75 286.5 184.75 287.1 183.55 287.1 183.55 287.7 180.5 287.7 180.5 288.3 178.6 288.3 178.6 288.9 176.8 288.9 176.8 289.55 175.6 289.55 175.6 290.15 173.75 290.15 173.75 290.8 173.15 290.8 173.15 290.15 172.55 290.15 172.55 290.8 170.05 290.8 170.05 291.4 168.25 291.4 168.25 292 166.4 292 166.4 292.6 163.35 292.6 163.35 293.25 160.25 293.25 160.25 293.85 159.05 293.85 159.05 294.45 156 294.45 156 295.05 153 295.05 153 295.65 150.5 295.65 Z"/>

<path fill="#000000" fill-opacity="0.0784313725490196" stroke="none" d="
M 226.9 268.75
L 226.3 268.75 226.3 269.35 226.9 269.35 226.9 268.75 Z"/>
</g>

<g id="Layer5_0_FILL">
<path fill="#000000" fill-opacity="0.8509803921568627" stroke="none" d="
M 201.25 269.95
L 201.85 269.95 201.85 269.9
Q 201.546484375 269.8810546875 201.25 269.85
L 201.25 269.95
M 202.05 254.7
Q 202.2552734375 254.6818359375 202.4 254.7
L 202.5 254.7
Q 202.533203125 254.5515625 202.55 254.4
L 203.2 254.1 203.5 253.45
Q 205.5333984375 252.15 207.95 250.95
L 207.95 250.4 208.55 250.4 208.55 249.8 209.85 249.8 209.85 249.2 211.65 249.2 211.65 248.6 212.85 248.6 212.85 248 208.55 248 208.55 248.6 207.95 248.6 207.95 249.2 207.35 249.2 207.35 249.8 206.15 249.8 206.15 250.4 204.9 250.4 204.9 251 203.7 251 203.7 251.7 203.1 251.7 203.1 252.3 202.8 252.3
Q 202.2697265625 253.2986328125 201.4 254.25 200.8865234375 254.8001953125 200.05 255.1
L 200.05 255.35 199.45 255.35 199.45 255.95 199.1 255.95 199.1 256 198.85 256.05 198.85 257.15 198.25 257.15 198.25 257.75 200.05 257.75 200.05 256.55 200.65 256.55 200.65 255.95 201.25 255.95 201.25 255.35 201.85 255.35 201.85 254.7 202.05 254.7
M 196.95 259.6
L 196.35 259.6 196.35 260.2 195.75 260.2 195.75 262.6 195.15 262.6 195.15 267.55 194.95 267.55
Q 195.2775390625 268.4095703125 195.5 269.35
L 195.75 269.35 195.75 269.95 196.35 269.95 196.35 271.85 197.55 271.85 197.55 272.45 198.25 272.45 198.25 273.05 200.65 273.05 200.65 273.65 202.5 273.65 202.5 273.05 203.1 273.05 203.1 273.65 210.45 273.65 210.45 273.05 211.65 273.05 211.65 272.45 212.25 272.45 212.25 273.05 212.85 273.05 212.85 272.45 215.3 272.45 215.3 271.85 218.4 271.85 218.4 271.25 220.8 271.25 220.8 270.6 222.5 270.6
Q 222.5751953125 270.538671875 222.65 270.45
L 222.65 269.95 223.3 269.95 223.45 269.6 224.45 269.35 224.45 269.35 224.55 269.35 226 269 226.3 268.35 226.4 268.3 228.2 267.1 228.5 266.45
Q 229.2 266.15 229.7 265.7 230.35 265.3 230.65 265.1 231 265 231.35 264.85 231.5 264.7 231.65 264.55 231.6765625 264.5234375 231.7 264.5
L 230.6 264.5 230.6 265.1 229.4 265.1 229.4 265.7 228.8 265.7 228.8 266.3 226.9 266.3 226.9 266.95 225.7 266.95 225.7 267.55 223.25 267.55 223.25 268.15 222.05 268.15 222.05 268.75 219.6 268.75 219.6 269.35 217.15 269.35 217.15 269.95 215.3 269.95 215.3 270.6 212.85 270.6 212.85 271.25 207.95 271.25 207.95 271.85 202.5 271.85 202.5 271.25 199.45 271.25 199.45 270.6 198.25 270.6 198.25 269.35 198.75 269.35
Q 198.2712890625 269.195703125 197.8 269
L 196.85 268.05 196.85 267.55 196.35 267.55 196.35 262.6 196.95 262.6 196.95 260.8 197.55 260.8 197.55 260.2 198.25 260.2 198.25 259.6 198.85 259.6 198.85 258.35 197.55 258.35 197.55 259 196.95 259 196.95 259.6 Z"/>

<path fill="#000000" fill-opacity="0.6313725490196078" stroke="none" d="
M 225.7 241.25
L 226.3 241.25 226.3 240.65 225.1 240.65 225.1 241.25 223.25 241.25 223.25 241.85 223.85 241.85 223.85 242.45 224.45 242.45 224.45 241.85 225.7 241.85 225.7 241.25 Z"/>

<path fill="#000000" stroke="none" d="
M 222.65 241.85
L 222.65 242.45 223.85 242.45 223.85 241.85 223.25 241.85 222.65 241.85 Z"/>

<path fill="#000000" fill-opacity="0.5411764705882353" stroke="none" d="
M 222.05 242.45
L 222.65 242.45 222.65 241.85 221.45 241.85 221.45 243.05 222.05 243.05 222.05 242.45
M 216.5 244.35
L 215.3 244.35 215.3 244.95 214.1 244.95 214.1 245.55 213.5 245.55 213.5 246.15 214.7 246.15 214.7 245.55 216.5 245.55 216.5 244.95 216.5 244.35 Z"/>

<path fill="#000000" fill-opacity="0.7647058823529411" stroke="none" d="
M 218.4 243.7
L 218.4 244.35 219.6 244.35 219.6 243.05 218.4 243.05 218.4 243.7 Z"/>

<path fill="#000000" fill-opacity="0.9921568627450981" stroke="none" d="
M 216.5 244.35
L 216.5 244.95 217.8 244.95 217.8 244.35 216.5 244.35 Z"/>

<path fill="#000000" fill-opacity="0.6274509803921569" stroke="none" d="
M 216.5 243.7
L 216.5 244.35 217.8 244.35 217.8 244.95 218.4 244.95 218.4 244.35 218.4 243.7 216.5 243.7 Z"/>

<path fill="#000000" fill-opacity="0.4980392156862745" stroke="none" d="
M 212.25 246.15
L 212.25 246.75 213.5 246.75 213.5 246.15 212.25 246.15 Z"/>
</g>

<g id="Layer3_0_FILL">
<path fill="#000000" fill-opacity="0.6235294117647059" stroke="none" d="
M 214.1 206.45
L 214.1 205.4 213.95 206.45 214.1 206.45 Z"/>

<path fill="#000000" fill-opacity="0.8509803921568627" stroke="none" d="
M 270.35 232.05
L 270.35 232.75 269.7 232.75 269.7 233.35 269.1 233.35 269.1 234.55 268.5 234.55 268.5 235.15 268.05 235.15 268.05 236.05 267.1 236.7 266.8 237.65 266.15 237.95 266 238.25 266 238.8 265.4 238.8 265.4 240.65 266.7 240.65 266.7 240 267.3 240 267.3 238.8 267.9 238.8 267.9 238.2 268.5 238.2 268.5 237.6 269.1 237.6 269.1 237 270 237
Q 270.0158203125 236.6990234375 270 236.4 269.9 234.8 270.6 233.85
L 270.95 233.7 270.95 232.05 270.35 232.05
M 262.4 242.45
L 262.4 243.05 261.75 243.05 261.75 244.35 261.15 244.35 261.15 244.95 259.95 244.95 259.95 245.55 259.35 245.55 259.35 246.15 259.15 246.15
Q 259.15 246.3 259.1 246.45 259.05 246.5 259 246.55 258.9 246.8 258.8 247.1 258.7 247.3 258.6 247.5 258.55 247.6 258.5 247.7 258.4 247.75 258.35 247.85 258.3154296875 247.9189453125 258.25 248
L 258.75 248 258.75 247.35 259.35 247.35 259.35 246.75 259.95 246.75 259.95 246.15 261.75 246.15 261.75 245.55 262.4 245.55 262.4 244.95 263 244.95 263 243.7 264.2 243.7 264.2 242.45 264.8 242.45 264.8 241.85 265.4 241.85 265.4 240.65 264.8 240.65 264.8 241.25 264.2 241.25 264.2 241.85 263.6 241.85 263.6 242.45 262.4 242.45 Z"/>

<path fill="#000000" fill-opacity="0.49019607843137253" stroke="none" d="
M 215.3 205.8
L 215.3 205.2 214.7 205.2 214.7 205.8 215.3 205.8
M 270.95 231.45
L 270.95 230.85 270.35 230.85 270.35 231.45 270.95 231.45
M 253.2 206.45
L 253.2 207.05 254.4 207.05 254.4 206.45 253.2 206.45 Z"/>

<path fill="#000000" fill-opacity="0.8196078431372549" stroke="none" d="
M 215.9 205.2
L 215.3 205.2 215.3 205.8 214.7 205.8 214.7 207.05 215.3 207.05 215.3 206.45 215.9 206.45 215.9 205.8 216.5 205.8 216.5 205.2 215.9 205.2 Z"/>

<path fill="#000000" fill-opacity="0.5333333333333333" stroke="none" d="
M 216.5 205.2
L 217.15 205.2 217.15 205.8 219.6 205.8 219.6 205.2 217.8 205.2 217.8 204.6 215.9 204.6 215.9 205.2 216.5 205.2 Z"/>

<path fill="#000000" fill-opacity="0.8745098039215686" stroke="none" d="
M 223.85 205.2
L 223.85 204.6 222.65 204.6 222.65 204 219.6 204 219.6 204.6 217.8 204.6 217.8 205.2 219.6 205.2 223.85 205.2 Z"/>

<path fill="#000000" stroke="none" d="
M 226.9 204
L 225.7 204 225.7 204.6 226.9 204.6 226.9 204 Z"/>

<path fill="#000000" fill-opacity="0.6588235294117647" stroke="none" d="
M 225.7 204
L 226.9 204 226.9 204.6 228.1 204.6 228.1 204 227.5 204 227.5 203.35 223.85 203.35 223.85 204 222.65 204 222.65 204.6 223.85 204.6 223.85 205.2 224.45 205.2 224.45 204.6 225.7 204.6 225.7 204 Z"/>

<path fill="#000000" fill-opacity="0.7254901960784313" stroke="none" d="
M 228.1 204
L 228.8 204 228.8 203.35 227.5 203.35 227.5 204 228.1 204 Z"/>

<path fill="#000000" fill-opacity="0.6039215686274509" stroke="none" d="
M 230 202.75
L 230 203.35 229.4 203.35 229.4 204 229.4 204.6 230.6 204.6 230.6 204 231.2 204 231.2 204.6 231.8 204.6 231.8 204 232.45 204 232.45 203.35 231.2 203.35 231.2 202.75 230 202.75 Z"/>

<path fill="#000000" fill-opacity="0.5137254901960784" stroke="none" d="
M 229.4 204
L 228.8 204 228.8 204.6 229.4 204.6 229.4 204 Z"/>

<path fill="#000000" fill-opacity="0.45098039215686275" stroke="none" d="
M 241 205.2
L 242.8 205.2 242.8 204.6 241 204.6 241 205.2
M 264.2 212.5
L 264.8 212.5 264.8 211.9 264.2 211.9 264.2 212.5 Z"/>

<path fill="#000000" fill-opacity="0.396078431372549" stroke="none" d="
M 233.65 204
L 233.05 204 233.05 204.6 233.65 204.6 233.65 204 Z"/>

<path fill="#000000" fill-opacity="0.9137254901960784" stroke="none" d="
M 233.65 203.35
L 233.05 203.35 233.05 204 233.65 204 233.65 203.35 Z"/>

<path fill="#000000" fill-opacity="0.5764705882352941" stroke="none" d="
M 233.05 203.35
L 233.65 203.35 233.65 204 234.25 204 234.25 203.35 234.25 202.75 232.45 202.75 232.45 203.35 233.05 203.35
M 253.8 205.2
L 253.2 205.2 253.2 205.8 253.8 205.8 253.8 205.2 Z"/>

<path fill="#000000" fill-opacity="0.44313725490196076" stroke="none" d="
M 237.95 203.35
L 237.95 202.75 236.1 202.75 236.1 203.35 237.95 203.35
M 270.95 218.05
L 271.55 218.05 271.55 217.4 270.95 217.4 270.95 218.05 Z"/>

<path fill="#000000" fill-opacity="0.48627450980392156" stroke="none" d="
M 238.55 203.35
L 239.8 203.35 239.8 202.75 238.55 202.75 238.55 203.35 Z"/>

<path fill="#000000" fill-opacity="0.4117647058823529" stroke="none" d="
M 271.55 230.25
L 270.95 230.25 270.95 230.85 271.55 230.85 271.55 230.25 Z"/>

<path fill="#000000" fill-opacity="0.5019607843137255" stroke="none" d="
M 272.75 226.6
L 272.15 226.6 272.15 227.8 272.75 227.8 272.75 226.6 Z"/>

<path fill="#000000" fill-opacity="0.5607843137254902" stroke="none" d="
M 271.55 224.15
L 271.55 224.75 272.15 224.75 272.15 224.15 271.55 224.15 Z"/>

<path fill="#000000" fill-opacity="0.5176470588235295" stroke="none" d="
M 251.4 205.2
L 252 205.2 252 204.6 251.4 204.6 251.4 205.2 Z"/>

<path fill="#000000" fill-opacity="0.5294117647058824" stroke="none" d="
M 247.05 205.2
L 247.05 205.8 248.95 205.8 248.95 205.2 247.05 205.2
M 258.1 208.25
L 258.1 207.65 256.85 207.65 256.85 208.25 258.1 208.25 Z"/>

<path fill="#000000" fill-opacity="0.4627450980392157" stroke="none" d="
M 245.25 203.35
L 245.25 204 246.45 204 246.45 203.35 245.25 203.35
M 256.25 206.45
L 256.25 205.8 255.65 205.8 255.65 206.45 256.25 206.45 Z"/>

<path fill="#000000" fill-opacity="0.5490196078431373" stroke="none" d="
M 244.05 204
L 244.05 203.35 243.4 203.35 243.4 204 244.05 204 Z"/>

<path fill="#000000" fill-opacity="0.4549019607843137" stroke="none" d="
M 261.75 209.45
L 261.75 210.1 262.4 210.1 262.4 209.45 261.75 209.45 Z"/>

<path fill="#000000" fill-opacity="0.5725490196078431" stroke="none" d="
M 272.15 221.7
L 272.75 221.7 272.75 221.05 272.15 221.05 272.15 221.7 Z"/>

<path fill="#000000" fill-opacity="0.4392156862745098" stroke="none" d="
M 263.6 211.9
L 264.2 211.9 264.2 211.3 263.6 211.3 263.6 211.9 Z"/>

<path fill="#000000" fill-opacity="0.5098039215686274" stroke="none" d="
M 266 211.9
L 266 211.3 265.4 211.3 265.4 211.9 266 211.9 Z"/>

<path fill="#000000" fill-opacity="0.43137254901960786" stroke="none" d="
M 267.9 213.1
L 267.9 212.5 267.3 212.5 267.3 213.1 267.9 213.1 Z"/>

<path fill="#000000" fill-opacity="0.5215686274509804" stroke="none" d="
M 269.7 216.2
L 270.35 216.2 270.35 215.6 269.7 215.6 269.7 216.2 Z"/>

<path fill="#000000" fill-opacity="0.9019607843137255" stroke="none" d="
M 263.6 210.1
L 263.6 209.45 263 209.45 263 208.85 261.75 208.85 261.75 208.25 261.15 208.25 261.15 207.65 259.35 207.65 259.35 207.05 258.1 207.05 258.1 206.45 256.25 206.45 255.65 206.45 255.65 205.8 255.05 205.8 255.05 205.2 253.8 205.2 253.8 205.8 253.2 205.8 253.2 205.2 252 205.2 251.4 205.2 251.4 204.6 250.15 204.6 250.15 204 246.45 204 245.25 204 245.25 203.35 244.05 203.35 244.05 204 243.4 204 243.4 203.35 239.8 203.35 238.55 203.35 237.95 203.35 236.1 203.35 234.25 203.35 234.25 204 234.25 204.6 241 204.6 242.8 204.6 242.8 205.2 247.05 205.2 248.95 205.2 248.95 205.8 251.4 205.8 251.4 206.45 253.2 206.45 254.4 206.45 254.4 207.05 255.65 207.05 255.65 207.65 256.85 207.65 258.1 207.65 258.1 208.25 258.75 208.25 258.75 208.85 259.35 208.85 259.35 209.45 261.75 209.45 262.4 209.45 262.4 210.1 263 210.1 263 210.7 263.6 210.7 263.6 211.3 264.2 211.3 264.2 211.9 264.8 211.9 264.8 212.5 265.4 212.5 265.4 213.1 266 213.1 266 213.8 266.7 213.8 266.7 214.4 267.3 214.4 267.3 215 267.9 215 267.9 215.6 268.5 215.6 268.5 216.2 269.1 216.2 269.1 216.8 269.7 216.8 269.7 218.05 270.35 218.05 270.35 219.25 270.95 219.25 270.95 221.05 271.55 221.05 271.55 224.15 272.15 224.15 272.15 224.75 271.55 224.75 271.55 227.8 270.95 227.8 270.95 229.65 270.35 229.65 270.35 230.85 270.95 230.85 270.95 230.25 271.55 230.25 271.55 229.65 272.15 229.65 272.15 227.8 272.15 226.6 272.75 226.6 272.75 221.7 272.15 221.7 272.15 221.05 272.15 219.25 271.55 219.25 271.55 218.05 270.95 218.05 270.95 217.4 270.95 216.8 270.35 216.8 270.35 216.2 269.7 216.2 269.7 215.6 269.7 215 269.1 215 269.1 214.4 268.5 214.4 268.5 213.8 267.9 213.8 267.9 213.1 267.3 213.1 267.3 212.5 266.7 212.5 266.7 211.9 266 211.9 265.4 211.9 265.4 211.3 265.4 210.7 264.8 210.7 264.8 210.1 263.6 210.1 Z"/>
</g>

<g id="Mask_1_MASK_0_FILL">
<path fill="#FFFFFF" stroke="none" d="
M 256.25 192.35
L 157.5 192.35 157.5 280.75 256.25 280.75 256.25 192.35 Z"/>
</g>

<g id="Layer1_0_FILL">
<path fill="#000000" fill-opacity="0.8509803921568627" stroke="none" d="
M 167 256.2
L 167 256.55 167.55 256.55 167.45 256.3 167 256.2
M 196.85 267.55
L 196.85 268.05 197.8 269
Q 198.2712890625 269.195703125 198.75 269.35
L 201.25 269.35 201.25 269.85
Q 201.546484375 269.8810546875 201.85 269.9
L 201.85 269.35 203.7 269.35 203.7 268.75 206.15 268.75 206.15 268.15 210.45 268.15 210.45 267.55 211.05 267.55 211.05 266.95 212.85 266.95 212.85 266.3 216.5 266.3 216.5 265.7 218.4 265.7 218.4 265.1 219.6 265.1 219.6 264.5 221.45 264.5 221.45 263.9 222.05 263.9 222.05 263.3 223.85 263.3 223.85 262.6 226.3 262.6 226.3 262 227.5 262 227.5 261.4 228.8 261.4 228.8 260.8 230 260.8 230 260.2 231.2 260.2 231.2 259.6 233.05 259.6 233.05 259 233.65 259 233.65 258.35 234.85 258.35 234.85 257.75 235.45 257.75 235.45 257.15 236.7 257.15 236.7 256.55 238.55 256.55 238.55 255.95 239.15 255.95 239.15 255.35 241 255.35 241 254.7 241.6 254.7 241.6 254.1 241 254.1 241 253.5 239.8 253.5 239.8 254.1 238.55 254.1 238.55 254.7 237.95 254.7 237.95 255.35 236.7 255.35 236.7 255.95 235.45 255.95 235.45 256.55 234.25 256.55 234.25 257.15 233.05 257.15 233.05 257.75 232.45 257.75 232.45 258.35 231.8 258.35 231.8 259 229.4 259 229.4 259.6 228.8 259.6 228.8 260.2 227.5 260.2 227.5 260.8 225.7 260.8 225.7 261.4 223.25 261.4 223.25 262 222.05 262 222.05 262.6 221.45 262.6 221.45 263.3 219.6 263.3 219.6 263.9 216.5 263.9 216.5 264.5 215.3 264.5 215.3 265.1 212.25 265.1 212.25 265.7 209.85 265.7 209.85 266.3 207.35 266.3 207.35 266.95 204.3 266.95 204.3 267.55 196.85 267.55
M 161.55 247.35
L 161.55 251 162.15 251 162.15 252.9 162.05 252.9 162.35 253.45 163 253.75
Q 163 253.9 163.1 254.05 163.15 254.25 163.25 254.45 163.3 254.55 163.4 254.6 163.45 254.7 163.65 254.7
L 164.55 256.55 164.6 256.55 164.6 257.15 165.2 257.15 165.2 258.35 165.8 258.35 165.8 259 166.4 259 166.4 259.6 167 259.6 167 260.2 167.6 260.2 167.6 260.8 168.25 260.8 168.25 261.4 168.85 261.4 168.85 262 169.45 262 169.45 262.6 170.7 262.6 170.7 263.3 172.55 263.3 172.55 263.9 173.75 263.9 173.75 264.5 174.95 264.5 174.95 265.1 176.8 265.1 176.8 265.7 178 265.7 178 266.3 179.2 266.3 179.2 266.95 182.9 266.95 182.9 267.55 184.15 267.55 184.15 268.15 187.2 268.15 187.2 268.75 192.1 268.75 192.1 269.35 193.3 269.35 193.3 268.75 194.55 268.75 194.55 269.35 195.5 269.35
Q 195.2775390625 268.4095703125 194.95 267.55
L 189.6 267.55 189.6 266.95 185.95 266.95 185.95 266.3 183.55 266.3 183.55 265.7 181.1 265.7 181.1 265.1 179.2 265.1 179.2 264.5 177.4 264.5 177.4 263.9 176.2 263.9 176.2 263.3 174.95 263.3 174.95 262.6 173.15 262.6 173.15 262 172.55 262 172.55 261.4 171.3 261.4 171.3 260.8 170.05 260.8 170.05 260.2 169.45 260.2 169.45 259.6 168.85 259.6 168.85 259 168.25 259 168.25 258.35 167.6 258.35 167.6 257.75 167 257.75 167 257.15 166.4 257.15 166.4 256.55 165.8 256.55 165.8 255.95 166.1 255.95 165.85 255.35 165.2 255.05
Q 164.846484375 254.272265625 164.75 253.5
L 164.6 253.5 164.6 252.9 163.95 252.9 163.95 250.4 163.35 250.4 163.35 245.55 163.95 245.55 163.95 244.35 164.6 244.35 164.6 242.45 165.2 242.45 165.2 240.65 165.8 240.65 165.8 239.4 166.4 239.4 166.4 238.2 167 238.2 167 237 167.6 237 167.6 236.4 168.25 236.4 168.25 234.55 168.85 234.55 168.85 233.95 169.45 233.95 169.45 233.35 170.05 233.35 170.05 232.05 171.3 232.05 171.3 230.85 171.95 230.85 171.95 230.25 172.55 230.25 172.55 229.65 173.15 229.65 173.15 229.05 173.75 229.05 173.75 228.4 174.35 228.4 174.35 227.2 174.95 227.2 174.95 226.6 175.6 226.6 175.6 226 176.2 226 176.2 225.4 176.8 225.4 176.8 224.75 178 224.75 178 223.5 179.2 223.5 179.2 222.9 179.9 222.9 179.9 222.3 180.5 222.3 180.5 221.7 181.7 221.7 181.7 221.05 183.55 221.05 183.55 220.45 184.15 220.45 184.15 219.85 185.35 219.85 185.35 218.65 185.95 218.65 185.95 218.05 186.55 218.05 186.55 217.4 187.2 217.4 187.2 216.8 189 216.8 189 215.6 189.6 215.6 189.6 215 192.7 215 192.7 214.4 193.3 214.4 193.3 213.8 193.9 213.8 193.9 213.1 195.75 213.1 195.75 212.5 196.95 212.5 196.95 211.9 199.45 211.9 199.45 211.3 201.25 211.3 201.25 210.7 202.5 210.7 202.5 210.1 203.1 210.1 203.1 209.45 204.9 209.45 204.9 208.85 208.55 208.85 208.55 208.25 209.15 208.25 209.15 207.65 208.55 207.65 208.55 207.05 209.85 207.05 209.85 207.65 211.05 207.65 211.05 206.45 211.65 206.45 211.65 205.8 210.45 205.8 210.45 206.45 207.95 206.45 207.95 207.05 206.15 207.05 206.15 207.65 204.3 207.65 204.3 208.25 203.1 208.25 203.1 208.85 200.65 208.85 200.65 209.45 198.85 209.45 198.85 210.1 197.55 210.1 197.55 210.7 196.35 210.7 196.35 211.3 194.55 211.3 194.55 211.9 193.9 211.9 193.9 212.5 192.7 212.5 192.7 213.1 190.9 213.1 190.9 213.8 189.6 213.8 189.6 214.4 188.4 214.4 188.4 215 187.8 215 187.8 215.6 186.55 215.6 186.55 216.2 185.95 216.2 185.95 216.8 185.35 216.8 185.35 217.4 184.15 217.4 184.15 218.05 183.55 218.05 183.55 218.65 182.3 218.65 182.3 219.25 181.1 219.25 181.1 219.85 180.5 219.85 180.5 220.45 179.9 220.45 179.9 221.05 179.2 221.05 179.2 221.7 178.6 221.7 178.6 222.3 177.4 222.3 177.4 222.9 176.8 222.9 176.8 223.5 176.2 223.5 176.2 224.15 174.95 224.15 174.95 225.4 174.35 225.4 174.35 226 173.75 226 173.75 226.6 173.15 226.6 173.15 227.8 172.55 227.8 172.55 228.4 171.3 228.4 171.3 229.05 170.7 229.05 170.7 230.25 170.05 230.25 170.05 230.85 169.45 230.85 169.45 231.45 168.85 231.45 168.85 232.05 168.25 232.05 168.25 233.35 167.6 233.35 167.6 233.95 167 233.95 167 235.15 166.4 235.15 166.4 236.4 165.8 236.4 165.8 237 165.2 237 165.2 237.6 164.6 237.6 164.6 238.8 163.95 238.8 163.95 240.65 163.35 240.65 163.35 241.85 162.75 241.85 162.75 242.45 163.35 242.45 163.35 243.05 162.75 243.05 162.75 244.35 162.15 244.35 162.15 247.35 161.55 247.35 Z"/>

<path fill="#000000" fill-opacity="0.6235294117647059" stroke="none" d="
M 213.95 206.45
L 214.1 205.4 214.1 205.2 212.85 205.2 212.85 205.8 212.25 205.8 212.25 206.45 213.95 206.45 Z"/>

<path fill="#000000" fill-opacity="0.8588235294117647" stroke="none" d="
M 243.4 252.9
L 243.4 252.3 244.05 252.3 244.05 251.7 242.8 251.7 242.8 252.9 243.4 252.9 Z"/>

<path fill="#000000" fill-opacity="0.8352941176470589" stroke="none" d="
M 247.75 249.8
L 246.45 249.8 246.45 250.4 245.25 250.4 245.25 251.7 245.85 251.7 245.85 251 247.05 251 247.05 250.4 247.75 250.4 247.75 249.8 Z"/>

<path fill="#000000" fill-opacity="0.6980392156862745" stroke="none" d="
M 248.35 249.8
L 248.35 249.2 247.75 249.2 247.75 249.8 248.35 249.8 Z"/>

<path fill="#000000" fill-opacity="0.6745098039215687" stroke="none" d="
M 251.4 245.55
L 251.4 246.15 252.6 246.15 252.6 245.55 251.4 245.55 Z"/>
</g>
</defs>

<g transform="matrix( 1, 0, 0, 1, 0,0) ">
<use xlink:href="#Layer9_0_FILL"/>
</g>

<g transform="matrix( 1, 0, 0, 1, 0,0) ">
<use xlink:href="#Layer7_0_FILL"/>
</g>

<g transform="matrix( 1, 0, 0, 1, 0,0) ">
<use xlink:href="#Layer5_0_FILL"/>
</g>

<g transform="matrix( 1, 0, 0, 1, 0,0) ">
<use xlink:href="#Layer3_0_FILL"/>
</g>

<mask id="Mask_Mask_1">
<g transform="matrix( 1, 0, 0, 1, 0,0) ">
<use xlink:href="#Mask_1_MASK_0_FILL"/>
</g>
</mask>

<g mask="url(#Mask_Mask_1)">
<g transform="matrix( 1, 0, 0, 1, 0,0) ">
<use xlink:href="#Layer1_0_FILL"/>
</g>
</g>
</svg>
