
<svg xmlns="http://www.w3.org/2000/svg" version="1.1" xmlns:xlink="http://www.w3.org/1999/xlink" preserveAspectRatio="none" x="0px" y="0px" width="500px" height="500px" viewBox="0 0 500 500">
<defs>
<g id="Layer9_0_FILL">
<path fill="#000000" fill-opacity="0.6784313725490196" stroke="none" d="
M 274.85 205.85
Q 274.95 206.1 275.4 205.8 276.85 204.9 275.8 204.75
L 275.8 204.4 274.35 204.4 274.35 205.85 274.85 205.85
M 250.7 150.95
L 250.7 150.8
Q 250.45 150.7 250.15 150.7
L 250.15 150.25 245 150.25 245 150.95 246.7 150.95
Q 247.35 151.25 247.95 151.55
L 247.95 151.7 248.3 151.7
Q 248.4 151.75 248.55 151.8 248.9 151.9 249.25 151.9 249.25 151.8 249.25 151.7
L 248.65 151.7 248.65 150.95 250.7 150.95 Z"/>

<path fill="#000000" fill-opacity="0.9333333333333333" stroke="none" d="
M 275.8 202.25
L 275.8 202.95 276.55 202.95 276.55 203.1 276.6 203.15
Q 276.75 203.35 277.2 203.35 277.2 202.95 277.35 202.85 278.55 202.05 277.25 201.9
L 277.25 201.45 275.8 201.45 275.8 202.25 Z"/>

<path fill="#000000" fill-opacity="0.5098039215686274" stroke="none" d="
M 275.1 203.7
L 275.7 203.7
Q 275.95 204.25 277 203.75 277.2 203.7 277.2 203.35 276.75 203.35 276.6 203.15
L 276.55 203.1 276.55 202.95 275.8 202.95 275.8 202.25 275.1 202.25 275.1 203.7 Z"/>

<path fill="#000000" fill-opacity="0.8509803921568627" stroke="none" d="
M 277.95 194.95
L 277.25 194.95 277.25 198.6 277.95 198.6 277.95 198.25
Q 278.1 198.4 278.4 198 279.65 196.2 280.1 193.75 279.7 193.75 279.5 193.55
L 279.45 193.5 279.45 193.45 278.75 193.45 278.75 192.65 277.95 192.65 277.95 194.15 277.95 194.95
M 254.55 152.85
L 254.55 152.45 253.65 152.45 253.1 152.45 253.1 153.15 253.8 153.15 253.8 153.9 254.4 153.9
Q 254.4 153.95 254.4 154.05 254.45 154.05 254.55 154.05
L 254.55 153.9 256.55 153.9
Q 256.5 153.7 256.45 153.65 256.25 153.55 256.05 153.45
L 256.05 153.15 255.35 153.15
Q 254.95 153 254.55 152.85
M 491.6 171.25
Q 491.4 171.2 491.25 171.2
L 491.25 170.75 488.8 170.75
Q 487.4 170.5 486 170.3
L 486 169.95 483.35 169.95
Q 482.9 169.9 482.45 169.9
L 482.45 169.25 475.8 169.25
Q 475.3 169.15 474.8 169.1 473.2 168.95 471.4 168.95
L 471.4 168.5 464.8 168.5 464.8 169.25
Q 464.65 169.25 464.45 169.25
L 454.5 169.25 454.5 169.95 446.55 169.95 446.55 170.75 442.1 170.75 442.1 171.5 439.15 171.5 439.15 172.25
Q 439.1 172.25 439.05 172.25
L 435.5 172.25 435.5 172.95 432.55 172.95 432.55 173.65 428.9 173.65 428.9 174.4 426 174.4 426 175.15 423.8 175.15 423.8 175.9 421.55 175.9 421.55 176.6
Q 421.5 176.6 421.4 176.6
L 418.6 176.6 418.6 177.3 415.75 177.3 415.75 178.05 414.3 178.05 414.3 178.7
Q 414.15 178.75 414.1 178.75
L 410.6 178.75 410.6 179.55 409.1 179.55 409.1 180.25 406.2 180.25 406.2 181 405.5 181 405.5 181.7 401.85 181.7 401.85 182.4 399.55 182.4 399.55 183.15 397.4 183.15 397.4 183.85 394.45 183.85 394.45 184.7 393 184.7 393 185.4 390.8 185.4 390.8 186.15 388.65 186.15 388.65 186.85 386.35 186.85 386.35 187.55 384.95 187.55 384.95 188.3 382.75 188.3 382.75 189.05 381.25 189.05 381.25 189.8
Q 381.2 189.8 381.15 189.8
L 378.4 189.8 378.4 190.5 376.85 190.5 376.85 191.25 375.4 191.25 375.4 191.95 373.2 191.95 373.2 192.65 371.05 192.65 371.05 193.45 368.8 193.45 368.8 194.15 367.35 194.15 367.35 194.95 365.95 194.95 365.95 195.65 363.65 195.65 363.65 196.4 361.5 196.4 361.5 197.1 360.8 197.1 360.8 197.9 358.55 197.9 358.55 198.6 356.4 198.6 356.4 199.3 354.2 199.3 354.2 200.05 351.95 200.05 351.95 200.75 349.75 200.75 349.75 201.45 349.05 201.45 349.05 202.25 346.9 202.25 346.9 202.95 344.65 202.95 344.65 203.7 342.5 203.7 342.5 204.4 340.95 204.4 340.95 205.15 339.5 205.15 339.5 205.85 336.55 205.85 336.55 206.7 335.15 206.7 335.15 207.4 333.7 207.4 333.7 208.1 332.2 208.1 332.2 208.8
Q 332.1 208.8 331.95 208.85
L 330 208.85 330 209.55 327.75 209.55 327.75 210.3 325.6 210.3 325.6 211 324.15 211 324.15 211.8 321.95 211.8 321.95 212.5 319.8 212.5 319.8 213.2 318.25 213.2 318.25 213.95 316.1 213.95 316.1 214.65 313.85 214.65 313.85 215.4 312.4 215.4 312.4 216.15 311 216.15 311 216.85 309.5 216.85 309.5 217.6 306.6 217.6 306.6 218.3 304.35 218.3 304.35 219.1 302.15 219.1 302.15 219.8 300.7 219.8 300.7 220.6 298.5 220.6 298.5 221.3 296.25 221.3 296.25 222.05 295.5 222.05 295.5 222.75 291.85 222.75 291.85 223.45 289.7 223.45 289.7 224.2 286.75 224.2 286.75 224.95 285.35 224.95 285.35 225.7 283.9 225.7 283.9 226.4 280.2 226.4 280.2 227.1 277.95 227.1 277.95 227.85 276.55 227.85 276.55 228.55 274.35 228.55 274.35 229.4 272.8 229.4 272.8 230.1 269.95 230.1 269.95 230.85 267 230.85 267 231.5
Q 266.75 231.1 266.75 230.4 265.4 230.9 264.05 231.4
L 264.05 231.55 263.35 231.55 263.35 232.25 262.6 232.25 262.6 232.95 262.55 233 260.35 233 260.35 233.75 257.45 233.75 257.45 234.5 256.05 234.5 256.05 235.15
Q 255.9 235.15 255.85 235.2
L 255.25 235.2 255.25 234.5 254.55 234.5 254.55 235.2 253.8 235.2 253.8 235.95 250.15 235.95 250.15 236.65 247.95 236.65 247.95 237.35 244.3 237.35 244.3 236.95
Q 241.7 237.6 239.25 238.35 240.4 238.45 241.25 238.85
L 240.65 238.85 240.65 239.6 238.45 239.6 238.45 240.3 236.2 240.3 236.2 241 233.25 241 233.25 241.75 229.65 241.75 229.65 242.5 226.75 242.5 226.75 243.3 223.75 243.3 223.75 244 220.85 244 220.85 244.75 219.35 244.75 219.35 245.45 215.75 245.45 215.75 246.2 213.5 246.2 213.5 246.9 209.85 246.9 209.85 247.65 207.65 247.65 207.65 248.4 204 248.4 204 249.1 200.3 249.1 200.3 249.85 196.65 249.85 196.65 250.55 193.75 250.55 193.75 251.25 192.1 251.25
Q 192.15 251.1 192.25 250.9 190.8 251.35 189.35 251.7 187.35 251.95 185.5 252.45 185.25 252.4 184.95 252.4
L 184.95 252.85 181.3 252.85 181.3 253.55 173.95 253.55 173.95 254.25 168.05 254.25 168.05 255 167.35 255 167.35 254.25 165.9 254.25 165.9 255 141.7 255 141.7 254.55
Q 141 254.45 140.4 254.25
L 139.6 254.25
Q 139.35 254.15 139.2 253.95 137.7 253.65 136.05 253.5
L 135.9 253.2
Q 135.9 253.35 135.8 253.55
L 134.95 253.55
Q 134.75 253.45 134.65 253.25 134.5 253.25 134.45 253.25
L 134.45 252.85 131.45 252.85 131.45 252.1 129 252.1
Q 128.75 252 128.5 251.85
L 128.5 251.25 127.6 251.25
Q 127.45 251.15 127.3 251.05 127.2 250.9 127.1 250.85
L 127.1 250.55 126.65 250.55
Q 126.55 250.5 126.5 250.5 126.4 250.5 126.35 250.45
L 126.35 249.85 125.15 249.85
Q 125.05 249.75 124.9 249.7
L 124.9 249.1 123.85 249.1
Q 123.6 249 123.4 248.85
L 123.4 248.4 122.7 248.4 122.7 247.65 121.5 247.65
Q 121.3 247.6 121.2 247.5
L 121.2 246.9 120.5 246.9 120.5 246.2 119.3 246.2
Q 119.1 246.05 119 245.95
L 119 245.45 118.4 245.45
Q 118.35 245.4 118.25 245.4
L 118.25 244.75 117.55 244.75 117.55 244 116.85 244 116.85 243.3 116.1 243.3 116.1 242.5 115.5 242.5
Q 115.4 242.4 115.35 242.35
L 115.35 241.75 114.9 241.75
Q 114.75 241.55 114.6 241.4
L 114.6 241 114.45 241
Q 114.15 240.6 113.9 240.25
L 113.9 239.6 113.55 239.6
Q 113.35 239.3 113.15 238.95
L 113.15 238.1 112.75 238.1
Q 112.55 237.8 112.45 237.45
L 112.45 236.65 112.15 236.65
Q 111.9 236.1 111.75 235.65
L 111.75 234.5 111.4 234.5
Q 111.15 233.65 110.9 232.75
L 110.9 232.25 110.8 232.25
Q 110.7 232.1 110.7 231.9 110.4 226.45 110.85 220.95 111.2 216.2 112.95 212.25 119.35 197.15 131.35 187.55 135.8 183.9 140.25 180.25 141.15 179.5 142.05 178.75
L 142.4 178.75 142.4 178.45
Q 142.65 178.2 142.9 178.05
L 143.2 178.05 143.2 177.8
Q 143.3 177.7 143.45 177.55 143.6 177.45 143.8 177.3
L 143.9 177.3 143.9 177.25
Q 144.1 177.15 144.25 177.15 145.65 176.85 146.2 176 146.5 175.55 146.85 175.15 147.95 174.05 149.45 173.55 150.25 173.25 151.1 172.95
L 151.25 172.95 151.25 172.9
Q 152.55 172.3 153.6 171.55 156 169.95 158.95 169.05 161.55 168.2 162.95 166.35 163.25 166 163.5 165.6
L 163.7 165.6 163.7 165.2
Q 163.85 164.8 164.05 164.4 164.6 164.7 165.15 164.8
L 165.15 164.85 165.35 164.85
Q 166.7 165.2 167.8 164.7 169.75 163.85 171.5 163.3 174.9 162.3 177.35 160.4
L 177.6 160.4 177.6 160.25
Q 177.95 159.95 178.3 159.65
L 178.3 159.7 179.85 159.7 179.85 159.45
Q 182.65 159.15 184.85 158.25 187.7 157.15 190.65 156.05
L 190.8 156.05 190.8 156
Q 191.65 155.65 192.65 155.35
L 193.05 155.35 193.05 155.25
Q 193.25 155.2 193.35 155.2 195.95 155.5 195.4 153.4
L 195.25 153
Q 195.65 153.1 195.95 153.15 196.3 153.25 196.6 153.15
L 196.65 153.15
Q 197 153 197.05 152.65 197.8 152.65 198.15 152.95
L 198.15 153.9 200.3 153.9
Q 201.1 153.95 201.6 153.6 202.65 153.05 203.65 152.45
L 204 152.45 204 152.2
Q 204.9 151.6 205.8 151 205.9 150.95 205.95 150.95
L 206.2 150.95 206.2 150.85 206.3 150.85
Q 207 151.4 207.65 151.6
L 207.65 151.7 208.1 151.7
Q 208.45 151.75 208.8 151.7
L 209.1 151.7 209.1 151.6
Q 209.7 151.5 210.25 151.1
L 210.55 150.9 210.55 150.95 210.8 150.95
Q 211.15 151.55 212.45 150.95
L 212.75 150.95 212.75 150.85
Q 213.05 150.8 213.3 150.7 214.5 150.55 215.65 150.25
L 217.2 150.25 217.2 149.8
Q 217.9 149.65 218.7 149.5
L 220.85 149.5 220.85 149.4
Q 221.2 149.4 221.6 149.4
L 221.6 149.5 222.9 149.5
Q 223.9 149.65 224.95 149.95 225.1 150 225.25 150.05
L 225.25 150.25 227.45 150.25 227.45 150.2
Q 229.15 149.9 227.95 148.2 227.7 148.2 227.45 148.25
L 227.45 148.1 225.25 148.1 225.25 148.45
Q 225 148.2 224.85 148.2 224.7 148.15 224.5 148.15
L 224.5 147.25 220.15 147.25 220.15 148
Q 219.9 148 219.7 148.1
L 217.2 148.1 217.2 148.4
Q 216.5 148.2 215.75 148.25
L 215.75 148.1 213.5 148.1 213.5 148.8 212.75 148.8 212.75 149.3 212.7 149.2
Q 212 149 211.35 148.85
L 211.35 148.8 210.9 148.8
Q 210.15 148.75 209.4 148.8
L 206.95 148.8 206.95 149.5 205.45 149.5 205.45 149.95
Q 205.4 149.9 205.35 149.9 205.15 149.8 204.75 149.9
L 204.75 149.5 204 149.5 204 150
Q 203.4 150.05 202.5 150.25
L 199.6 150.25 199.6 150.9
Q 199.45 150.9 199.35 150.95
L 195.95 150.95 195.95 151.7 193.75 151.7 193.75 152.4
Q 193.65 152.45 193.6 152.45
L 190.8 152.45 190.8 153.15 188.6 153.15 188.6 153.9 186.4 153.9 186.4 154.55
Q 186.3 154.55 186.1 154.6
L 183.45 154.6 183.45 155.35 181.3 155.35 181.3 156.05 179.85 156.05 179.85 156.65
Q 179.7 156.7 179.55 156.75
L 177.6 156.75 177.6 157.5
Q 177.45 157.5 177.35 157.55
L 175.45 157.55 175.45 158.25 173.95 158.25 173.95 158.85
Q 173.8 158.95 173.65 159
L 171.8 159 171.8 159.7 170.35 159.7 170.35 160.35
Q 170.3 160.35 170.2 160.4
L 168.8 160.4 168.8 161.1
Q 168.65 161.1 168.6 161.15
L 167.35 161.15 167.35 161.75
Q 167.05 161.85 166.75 162
L 165.9 162 165.9 162.4
Q 165.6 162.5 165.35 162.65 165.3 162.65 165.25 162.7
L 164.4 162.7 164.4 163.1
Q 164.15 163.25 163.95 163.4
L 162.25 163.4 162.25 164.75
Q 162.15 164.8 162.05 164.85
L 160.75 164.85 160.75 165.5
Q 160.7 165.6 160.65 165.6
L 159.3 165.6 159.3 166.2
Q 159.1 166.25 158.9 166.35
L 157.15 166.35 157.15 167.1 155.6 167.1 155.6 167.8 154.15 167.8 154.15 168.5 152.7 168.5 152.7 169.25 151.25 169.25 151.25 169.95 150.5 169.95 150.5 170.75 149.05 170.75 149.05 171.5 147.65 171.5 147.65 172.25 146.85 172.25 146.85 172.95 145.35 172.95 145.35 173.65 144.65 173.65 144.65 174.4 143.2 174.4 143.2 175.15 141.7 175.15 141.7 176.5
Q 141.6 176.55 141.45 176.6
L 139.55 176.6 139.55 177.3 138.8 177.3 138.8 178.05 138.05 178.05 138.05 178.75 136.6 178.75 136.6 179.55 135.9 179.55 135.9 180.25 134.45 180.25 134.45 181 133.6 181 133.6 181.7 132.9 181.7 132.9 182.4 132.15 182.4 132.15 183.15 131.45 183.15 131.45 183.85 130 183.85 130 185.3
Q 129.95 185.35 129.9 185.4
L 129.25 185.4 129.25 185.95
Q 129.1 186.05 129.05 186.15
L 128.5 186.15 128.5 186.6
Q 128.35 186.75 128.2 186.85
L 127.1 186.85 127.1 187.55 126.35 187.55 126.35 188.3 125.65 188.3 125.65 189.05 124.9 189.05 124.9 189.8 124.15 189.8 124.15 190.5 123.4 190.5 123.4 191.25 122.7 191.25 122.7 191.95 121.9 191.95 121.9 192.65 121.2 192.65 121.2 193.45 120.5 193.45 120.5 194.35
Q 120.2 194.65 119.95 194.95
L 119.7 194.95 119.7 195.25
Q 119.55 195.4 119.35 195.65
L 119 195.65 119 196.15
Q 118.85 196.25 118.8 196.4
L 118.25 196.4 118.25 197.1
Q 118.2 197.15 118.15 197.2 117.9 197.5 117.65 197.9
L 117.55 197.9 117.55 198.05
Q 117.35 198.3 117.2 198.6
L 116.85 198.6 116.85 199.15
Q 116.75 199.2 116.7 199.3
L 116.1 199.3 116.1 200.2
Q 115.95 200.5 115.8 200.75
L 115.35 200.75 115.35 201.45 114.6 201.45 114.6 202.75
Q 114.55 202.85 114.5 202.95
L 113.9 202.95 113.9 204.05
Q 113.75 204.25 113.7 204.4
L 113.15 204.4 113.15 205.15 112.45 205.15 112.45 206.7 111.75 206.7 111.75 208.1 110.9 208.1 110.9 210.3 110.2 210.3 110.2 212.5 109.45 212.5 109.45 214.3
Q 109.3 214.85 109.1 215.4
L 108.75 215.4 108.75 216.75
Q 108.6 217.15 108.55 217.6
L 108 217.6 108 222.85
Q 107.9 225.3 108 227.6
L 108 232.25 108.5 232.25
Q 108.6 232.95 108.75 233.6
L 108.75 235.95 109.35 235.95
Q 109.4 236.15 109.45 236.4
L 109.45 238.1 110.05 238.1
Q 110.1 238.25 110.2 238.45
L 110.2 239.6 110.7 239.6
Q 110.8 239.8 110.9 240.05
L 110.9 241 111.45 241
Q 111.55 241.3 111.75 241.6
L 111.75 242.5 112.35 242.5
Q 112.4 242.65 112.45 242.75
L 112.45 244 113.15 244 113.15 244.75 113.9 244.75
Q 114.55 245.65 115.35 246.55
L 115.35 246.9 115.7 246.9
Q 117.5 248.8 119.7 250.35
L 119.7 250.55 119.95 250.55
Q 120.95 251.25 122.1 251.95 122.75 252.3 123.4 252.7
L 123.4 252.85 123.7 252.85
Q 124.3 253.2 124.9 253.5
L 124.9 253.55 125.05 253.55
Q 127.15 254.65 129.4 255.6 130.65 256.1 132.15 256.4
L 132.15 256.5 132.55 256.5
Q 133.2 256.6 133.95 256.65 135 256.8 135.9 257
L 135.9 257.2 136.4 257.2
Q 137.2 257.5 137.85 258 138.15 258.05 138.45 258.05 139.7 258.2 141.05 258.4
L 141 258.35 141 257.9 140.7 257.9
Q 140.55 257.8 140.5 257.7 144.85 258.8 150.8 258.45 152.65 258.35 154.15 258.45
L 154.15 258.65 155.6 258.65
Q 155.85 258.65 156 258.7 156.3 258.75 156.75 258.75 164.35 258 172.15 258.1 173.7 258.15 174.2 257.2 174.3 256.95 175.1 256.95 177.95 257 180.1 256.7 180.9 256.3 181.65 255.9 185.25 255.8 188.3 255.35 191.85 254.4 195.7 253.55
L 195.95 253.55 195.95 253.5
Q 197.5 253.15 199.1 252.85
L 200.3 252.85 200.3 252.6
Q 201.6 252.35 202.95 252.1
L 203.3 252.1 203.3 252.05
Q 203.4 252 203.6 252 205.75 251.65 208.15 251.2 217.5 249.45 225.85 246.9 228.05 246.25 230.2 245.45
L 230.4 245.45 230.4 245.4
Q 231.3 245.05 232.2 244.7 233.1 244.3 234.05 244 237.35 242.95 241.15 242.35 243.7 241.9 245.6 241.3
L 246.35 240.35
Q 246.5 240.35 246.6 240.25 247 240.1 247.3 240.35 248.1 240.35 248.35 239.75 248.35 239.65 248.7 239.65 249.15 239.65 249.75 239.65 249.9 239.6 250.15 239.6 250.05 239.45 250 239.3 251.3 239.15 252.55 238.95 252.55 238.75 252.55 238.65
L 253.8 238.65
Q 255.75 238.15 257.4 237.35
L 257.45 237.35
Q 257.75 237.2 258 237.05 259.15 236.45 259.8 236.6 259.95 236.4 260.1 236.25 260.3 236.25 260.4 236.15 260.45 236.05 260.55 236 260.85 235.85 261.15 235.7 261.3 235.7 261.55 235.65 262.4 235.25 263.3 235.05 263.6 234.85 263.95 234.85
L 265.7 233.45 267.7 233.45
Q 267.8 233.6 267.9 233.75 271.35 232.75 274.8 231.55 276.85 230.85 279.05 230.1
L 279.45 230.1 279.45 230
Q 280.4 229.7 281.45 229.4
L 281.6 229.4 281.6 229.35
Q 282.65 229.05 283.7 228.75 284 228.7 284.3 228.55
L 284.6 228.55 284.6 228.5
Q 292.55 226.2 300.1 223.6 301.35 223.1 302.3 222.8 310.7 219.95 318.35 216.75 326.25 213.45 334.55 210.9 335.2 210.65 335.6 210.3 337.1 208.9 339.55 208.55 340.15 208.4 340.65 208.3 340.85 208.25 340.95 208.2 341.8 207.7 342.7 207.4 344.35 206.75 346.05 206.15 348.45 205.2 350.7 204.3 354.8 202.65 358.75 201.35 359.4 201.1 360 200.8 363.7 199.15 367.6 197.7 375.8 194.7 383.75 191.75 384.4 191.6 385.05 191.3 387.8 190.15 390.7 189.05
L 390.8 189.05 390.8 189
Q 395.85 187.15 401.3 185.65 406.75 184.15 412.1 182.4 415.15 181.4 418.15 180.3 418.55 180.2 418.9 180.2 422.25 180.2 423.95 178.9 425.55 177.6 428.45 177.25 428.85 177.2 429.25 177.2 432.25 176.95 434.35 176.3 436.5 175.6 438.55 175.15
L 439.15 175.15 439.15 175.05
Q 439.3 175 439.4 174.95 440.5 174.65 441.7 174.4
L 442.8 174.4 442.8 174.2
Q 445.05 173.8 447.65 173.65
L 449.4 173.65 449.4 173.6
Q 450.65 173.55 452.05 173.45 455.8 173.15 459.7 172.95 466.35 172.65 473.25 172.75 473.45 172.75 473.6 172.75
L 473.6 172.95 475.05 172.95 475.05 172.85
Q 475.65 172.85 476.25 172.85 476.35 172.85 476.5 172.85
L 476.5 172.95 477.2 172.95
Q 478.7 173.15 480.85 173.45
L 480.85 173.65 483.1 173.65
Q 484.05 173.8 485.05 173.9 485.2 173.9 485.3 173.95
L 485.3 174.4 487.35 174.4
Q 487.8 174.5 488.25 174.7
L 488.25 175.15 489.4 175.15
Q 489.45 175.15 489.5 175.25 489.6 175.3 489.7 175.35
L 489.7 175.9 491.25 175.9
Q 493.55 176.35 494.6 173.9 493.85 171.75 491.6 171.25
M 172.5 161.15
L 171.05 161.15 171.05 160.4 172.5 160.4 172.5 161.15 Z"/>

<path fill="#000000" fill-opacity="0.5529411764705883" stroke="none" d="
M 277.25 194.95
L 277.95 194.95 277.95 194.15 277.25 194.15 277.25 194.95 Z"/>

<path fill="#000000" fill-opacity="0.5764705882352941" stroke="none" d="
M 279.45 191.6
L 279.45 191.25 278.75 191.25 278.75 192.65 278.75 193.45 279.45 193.45 279.45 193.5 279.5 193.55
Q 279.7 193.75 280.1 193.75 280.1 193.4 280.2 193.1 280.6 191.55 279.45 191.6 Z"/>

<path fill="#000000" fill-opacity="0.6274509803921569" stroke="none" d="
M 280.2 188.3
L 278.75 188.3 278.75 190.5 279.45 190.5 279.45 190.1
Q 281.75 189.5 280.2 188.9
L 280.2 188.3 Z"/>

<path fill="#000000" fill-opacity="0.40784313725490196" stroke="none" d="
M 279.45 186.15
L 278.75 186.15 278.75 186.85 279.45 186.85 279.45 186.15 Z"/>

<path fill="#000000" fill-opacity="0.5607843137254902" stroke="none" d="
M 278.75 183.15
L 278.75 184.7 279.45 184.7 279.45 183.15 278.75 183.15 Z"/>

<path fill="#000000" fill-opacity="0.7803921568627451" stroke="none" d="
M 279.45 181
L 279.45 182.4 279.45 183.15 279.45 184.7 279.45 186.15 279.45 186.85 279.45 187.55 280.2 187.55 280.2 187.35
Q 280.8 188.7 281 186.45 281.4 182.95 280.2 181.4
L 280.2 181 279.45 181 Z"/>

<path fill="#000000" fill-opacity="0.4" stroke="none" d="
M 279.45 181
L 278.75 181 278.75 182.4 279.45 182.4 279.45 181 Z"/>

<path fill="#000000" fill-opacity="0.8431372549019608" stroke="none" d="
M 278.75 175.45
L 278.75 175.15 277.95 175.15 277.95 175.9 278.75 175.9 278.75 175.75
Q 280.2 175.75 278.75 175.45 Z"/>

<path fill="#000000" fill-opacity="0.9647058823529412" stroke="none" d="
M 278.6 174.25
L 278.6 173.9
Q 278.3 173.9 277.95 173.9
L 277.95 173.65 277.25 173.65 277.25 174.4 277.95 174.4 277.95 173.95
Q 278.3 174.25 278.6 174.25 Z"/>

<path fill="#000000" fill-opacity="0.5019607843137255" stroke="none" d="
M 277.95 173.2
L 277.95 172.95 277.25 172.95 277.25 173.65 277.95 173.65 277.95 173.9
Q 278.3 173.9 278.6 173.9 278.6 173.55 278.45 173.35 278.25 173.2 277.95 173.2 Z"/>

<path fill="#000000" stroke="none" d="
M 276.4 169.95
Q 276.4 169.75 276.4 169.55 276.1 169.55 275.8 169.55
L 275.8 169.25 275.1 169.25 275.1 169.3 275.1 169.95 276.4 169.95
M 234.05 148.45
L 234.05 148.1 231.1 148.1 231.1 148.8 234.05 148.8 234.05 148.5
Q 234.35 148.45 234.05 148.45 Z"/>

<path fill="#000000" fill-opacity="0.6509803921568628" stroke="none" d="
M 276.55 169.95
L 276.4 169.95 275.1 169.95 275.1 170.75 275.8 170.75 275.8 172.25 277.25 172.25 277.25 171.75
Q 277.3 171.65 277.45 171.45 277.55 171.35 277.2 170.95 276.85 170.65 276.55 170.35
L 276.55 169.95 Z"/>

<path fill="#000000" fill-opacity="0.6431372549019608" stroke="none" d="
M 272.1 167.1
L 272.8 167.1 272.8 167.8 273.6 167.8 273.6 168.5 274.35 168.5 274.35 169.25 275.05 169.25 275.1 169.3 275.1 169.25 275.8 169.25 275.8 169.55
Q 276.1 169.55 276.4 169.55 276.4 169.15 276.25 169 276.05 168.75 275.8 168.55
L 275.8 168.5 275.75 168.5
Q 275.45 168.2 275.1 167.9
L 275.1 167.8 274.95 167.8
Q 274.65 167.55 274.35 167.3
L 274.35 167.1 274.15 167.1
Q 273.85 166.9 273.6 166.7
L 273.6 166.35 273.45 166.35 272.1 166.35 272.1 167.1 Z"/>

<path fill="#000000" fill-opacity="0.47058823529411764" stroke="none" d="
M 272.8 164.85
L 272.15 164.85 272.1 164.85 272.1 165.6 272.8 165.6 272.8 165.45
Q 272.85 165.6 272.95 165.65 273.1 165.8 273.45 165.8 273.45 165.45 273.3 165.3 273.1 165.1 272.8 165.1
L 272.8 164.85 Z"/>

<path fill="#000000" fill-opacity="0.8666666666666667" stroke="none" d="
M 267.7 160.4
L 267.6 160.4 265.55 160.4 265.55 161.15 266.3 161.15 266.3 162 267 162 267 162.7 268.4 162.7
Q 268.4 162.75 268.45 162.8
L 268.45 163.4 269.15 163.4 269.15 164.15 269.9 164.15
Q 269.9 164.2 269.95 164.2
L 269.95 164.85 270.65 164.85 270.65 165.6 271.35 165.6 271.35 166.35 272.1 166.35 273.45 166.35
Q 273.45 166.1 273.45 165.8 273.1 165.8 272.95 165.65 272.85 165.6 272.8 165.45
L 272.8 165.6 272.1 165.6 272.1 164.85 272.15 164.85
Q 270.6 162.75 268.45 161.3
L 268.45 161.15 268.25 161.15
Q 267.95 160.95 267.7 160.85
L 267.7 160.4 Z"/>

<path fill="#000000" fill-opacity="0.5215686274509804" stroke="none" d="
M 265.55 159.7
L 265.55 160.4 267.6 160.4
Q 267.55 160.3 267.5 160.25 267.25 160.15 267 160.05
L 267 159.7 265.55 159.7 Z"/>

<path fill="#000000" fill-opacity="0.5647058823529412" stroke="none" d="
M 245 149.8
L 245 149.5 243.55 149.5 243.55 150.25 245 150.25 245 150.05
Q 246.05 150 245 149.8 Z"/>

<path fill="#000000" fill-opacity="0.8862745098039215" stroke="none" d="
M 250.9 150.95
L 250.7 150.95 248.65 150.95 248.65 151.7 249.25 151.7
Q 249.25 151.8 249.25 151.9 249.8 151.75 250.15 151.8
L 250.15 152.45 250.9 152.45 252.4 152.45 252.4 151.7 251.9 151.7
Q 251.35 151.45 250.9 151.25
L 250.9 150.95 Z"/>

<path fill="#000000" fill-opacity="0.5058823529411764" stroke="none" d="
M 261 156.3
Q 261 155.95 260.85 155.75 260.65 155.55 260.35 155.55
L 260.35 155.35 259.65 155.35 259.65 156.05 260.35 156.05 260.35 155.95
Q 260.4 156.05 260.45 156.1 260.65 156.3 261 156.3 Z"/>

<path fill="#000000" fill-opacity="0.5843137254901961" stroke="none" d="
M 254.4 154.05
Q 254.4 153.95 254.4 153.9
L 253.8 153.9
Q 254 154.05 254.4 154.05
M 253.8 153.9
L 253.8 153.15 253.1 153.15 253.1 153.4 253.1 153.9 253.8 153.9 Z"/>

<path fill="#000000" fill-opacity="0.5686274509803921" stroke="none" d="
M 253.65 152.45
Q 253.6 152.2 253.45 152.1 253.35 152 253.1 151.9
L 253.1 151.7 252.4 151.7 252.4 152.45 250.9 152.45 250.9 153.15 251.55 153.15
Q 251.8 153.7 253 153.4 253.05 153.4 253.1 153.4
L 253.1 153.15 253.1 152.45 253.65 152.45 Z"/>

<path fill="#000000" fill-opacity="0.596078431372549" stroke="none" d="
M 258.65 154.45
Q 258.45 154.35 258.2 154.3
L 258.2 153.9 256.55 153.9 254.55 153.9 254.55 154.05 254.55 154.6 255.95 154.6
Q 256.35 154.85 256.75 155.1
L 256.75 155.35 257.3 155.35
Q 257.35 155.4 257.4 155.4 257.7 155.55 258.05 155.55 258.05 155.45 258.05 155.35
L 257.45 155.35 257.45 154.6 258.8 154.6
Q 258.75 154.45 258.65 154.45 Z"/>

<path fill="#000000" fill-opacity="0.9294117647058824" stroke="none" d="
M 264.65 159.25
Q 264.65 159.1 264.65 159
L 264.05 159 264.05 158.25 263.95 158.25
Q 263.65 158.1 263.35 157.9
L 263.35 157.55 262.75 157.55
Q 262.3 157.25 261.9 157
L 261.9 156.75 261.65 156.75
Q 261.3 156.55 261 156.3 260.65 156.3 260.45 156.1 260.4 156.05 260.35 155.95
L 260.35 156.05 259.65 156.05 259.65 155.35 259.5 155.35
Q 259.15 155.2 258.9 154.95
L 258.9 154.6 258.8 154.6 257.45 154.6 257.45 155.35 258.05 155.35
Q 258.05 155.45 258.05 155.55 258.15 155.65 258.2 155.7
L 258.2 156.05 258.6 156.05
Q 258.75 156.25 258.9 156.35
L 258.9 156.75 259.45 156.75
Q 259.5 156.85 259.65 156.95
L 259.65 157.55 260.35 157.55 260.35 158.25 261.85 158.25
Q 262.2 158.45 262.6 158.65
L 262.6 159 263.6 159
Q 263.75 159.05 263.95 159.1 264.3 159.25 264.65 159.25 Z"/>

<path fill="#000000" fill-opacity="0.5568627450980392" stroke="none" d="
M 264.65 159.25
L 265 159.25
Q 265 158.95 264.8 158.65
L 264.8 158.25 264.05 158.25 264.05 159 264.65 159
Q 264.65 159.1 264.65 159.25 Z"/>

<path fill="#000000" fill-opacity="0.5372549019607843" stroke="none" d="
M 242.05 148.8
L 242.05 149.5 243.55 149.5 243.55 149.35
Q 244.55 149.3 243.55 149.15
L 243.55 148.8 242.05 148.8 Z"/>

<path fill="#000000" fill-opacity="0.6470588235294118" stroke="none" d="
M 239.45 148.1
Q 238.95 148 238.45 148.1
L 236.9 148.1 236.9 148.75 236.9 149.5 237.5 149.5
Q 237.5 149.65 237.5 149.7 238.9 149.7 240.35 149.5
L 241.35 149.5 241.35 149.35
Q 241.55 149.3 241.45 149.2 241.4 149.1 241.35 149.05
L 241.35 148.1 239.45 148.1 Z"/>

<path fill="#000000" fill-opacity="0.5450980392156862" stroke="none" d="
M 234.75 148.15
L 234.75 147.25 228.95 147.25 228.95 148.8 230.2 148.8
Q 230.55 149.15 231.1 149.35
L 231.1 149.5 231.8 149.5
Q 232.05 149.6 232.35 149.6 234.95 149.7 237.5 149.7 237.5 149.65 237.5 149.5
L 236.9 149.5 236.9 148.75
Q 236.55 148.55 236.2 148.55
L 236.2 148.1 235.5 148.1 235.5 148.4
Q 235.25 148.2 235.1 148.2 234.95 148.15 234.75 148.15
M 234.05 148.1
L 234.05 148.45
Q 234.35 148.45 234.05 148.5
L 234.05 148.8 231.1 148.8 231.1 148.1 234.05 148.1 Z"/>

<path fill="#000000" fill-opacity="0.10196078431372549" stroke="none" d="
M 171.05 161.15
L 172.5 161.15 172.5 160.4 171.05 160.4 171.05 161.15 Z"/>
</g>

<g id="Layer7_0_FILL">
<path fill="#000000" fill-opacity="0.8509803921568627" stroke="none" d="
M 206.85 275.8
Q 207 275.7 207.2 275.65 206.65 275.8 206.1 275.85 205.9 276 205.65 276.15 206.25 275.95 206.85 275.8
M 161.55 295.25
L 157.9 295.25 157.9 295.95 155.6 295.95 155.6 296.7 153.45 296.7 153.45 297.45 152 297.45 152 298.2 149.8 298.2 149.8 298.95 149.05 298.95 149.05 298.2 148.35 298.2 148.35 298.95 145.35 298.95 145.35 299.7 143.2 299.7 143.2 300.4 141 300.4 141 301.15 137.3 301.15 137.3 301.9 133.6 301.9 133.6 302.65 132.15 302.65 132.15 303.35 128.5 303.35 128.5 304.05 124.9 304.05 124.9 304.8 121.9 304.8 121.9 305.5 118.25 305.5 118.25 306.3 116.1 306.3 116.1 307 113.15 307 113.15 307.7 110.2 307.7 110.2 308.45 108 308.45 108 309.15 105.1 309.15 105.1 309.9 102.95 309.9 102.95 310.7 101.45 310.7 101.45 311.45 98.55 311.45 98.55 312.15 95.55 312.15 95.55 312.85 93.4 312.85 93.4 313.6 91.2 313.6 91.2 314.3 88.2 314.3 88.2 315.05 86.75 315.05 86.75 315.8 84.6 315.8 84.6 316.55 82.35 316.55 82.35 317.25 80.2 317.25 80.2 317.95 78.7 317.95 78.7 318.7 77.3 318.7 77.3 319.4 75 319.4 75 320.2 72.15 320.2 72.15 320.9 70.7 320.9 70.7 321.6 69.2 321.6 69.2 322.35 67.05 322.35 67.05 323.1 65.55 323.1 65.55 323.85 63.3 323.85 63.3 324.6 62.6 324.6 62.6 325.35 60.4 325.35 60.4 326.05 58.95 326.05 58.95 326.75 56.7 326.75 56.7 327.5 55.3 327.5 55.3 328.2 53.85 328.2 53.85 329 52.3 329 52.3 329.7 50.85 329.7 50.85 330.45 49.4 330.45 49.4 331.15 47.9 331.15 47.9 331.85 46.5 331.85 46.5 332.6 45.05 332.6 45.05 333.45 43.6 333.45 43.6 334.15 42.1 334.15 42.1 334.85 40.6 334.85 40.6 335.6 39.15 335.6 39.15 336.3 37.65 336.3 37.65 337 36.25 337 36.25 337.8 34.8 337.8 34.8 338.5 33.3 338.5 33.3 339.25 31.85 339.25 31.85 339.95 30.4 339.95 30.4 340.7 28.85 340.7 28.85 341.4 27.4 341.4 27.4 342.1 26 342.1 26 342.9 24.5 342.9 24.5 343.6 23.05 343.6 23.05 344.35 22.35 344.35 22.35 345.05 20.1 345.05 20.1 345.75 18.65 345.75 18.65 346.55 17.15 346.55 17.15 347.35 15.7 347.35 15.7 348.05 14.25 348.05 14.25 348.75 12.8 348.75 12.8 349.5 11.3 349.5 11.3 350.2 10.6 350.2 10.6 351 10.5 351
Q 10.05 352.9 11.95 352.4 13.45 352.05 14.4 351.35 14.9 351 15.5 350.7 18.95 349 22.5 347.35
L 23.05 347.35 23.05 347.1
Q 33.75 341.9 44.4 336.55 47.1 335.15 49.3 333.45
L 49.4 333.45 49.4 333.3
Q 49.85 332.95 50.25 332.85 53.9 331.85 56.7 330.3 60.25 328.4 64.2 326.95 64.85 326.7 65.45 326.4 67.25 325.45 69.35 324.85 70.7 324.5 71.65 324.15 75.7 322.5 79.55 320.85 87.25 317.55 95.6 314.75 96.1 314.6 96.45 314.6 96.8 314.6 97.15 314.6 99.65 314.5 101.65 313.75 102.35 313.45 102.8 313.1 104.4 311.9 106.75 311.6 112.05 311.05 115.7 309.4 116.3 309.1 116.85 308.75 117.05 308.55 117.35 308.45
L 117.55 308.45 117.55 308.3
Q 120.65 306.65 125.8 306.5 126.2 306.5 126.6 306.5 130.05 306.7 131.8 305.55 133.65 304.4 135.95 303.6 136.9 303.2 138.15 303.65 139.1 303.9 140.45 303.6 142.55 303.05 144.4 302.2 146.6 301.2 149.3 300.75 151.9 300.3 154.5 299.7 155.25 299.5 155.7 299.2 157.45 298.15 159.65 297.7 164 296.95 167.35 295.25 167.8 295 168.25 294.8 168.5 294.65 168.7 294.55
L 168.8 294.55
Q 171.2 293.4 174.3 293 175.1 292.9 175.3 292.55 176.05 291.65 177.25 291.65 179.7 291.7 180.95 290.8 182.05 290 183.2 289.55 187.5 288.1 191.15 286.15 191.55 285.95 191.95 285.9 194.9 285.6 196.6 284.45 197.05 284.1 197.5 283.75 198.1 283.25 198.75 282.8
L 198.85 282.8 198.85 282.75
Q 201.45 280.95 205.05 279.95 205.15 279.95 205.35 279.9
L 205.45 279.9
Q 206.5 279.6 207.45 279.15 211.25 277.35 214.8 275.55 217.6 274.15 219.85 272.3 220.25 272 220.7 271.9 225.3 270.8 227.35 267.25 227.55 266.85 228 266.8 229.95 266.65 230.55 265.6
L 230.85 265
Q 232.85 265.15 232.95 264.25 233.1 263.55 233.45 263.2 233.8 262.85 234.4 262.55 235.25 262.05 236.15 261.6
L 236.2 261.6 236.2 261.5
Q 241.3 258.6 245.65 254.85 248.85 252.1 251.2 248.7 251.8 247.85 252.5 247.3
L 252.55 247.25
Q 252.3 245.45 251.9 243.65 251.4 242.4 250.9 241.2
L 250.9 241 250.8 241
Q 250.45 240.3 250.15 239.6 250.05 239.45 250 239.3 250.35 239.25 250.7 239.25 250.65 239 250.6 238.7
L 249.45 237.55
Q 248.7 237.05 248 236.65
L 247.95 236.65 247.95 237.35 244.3 237.35 244.3 236.65 239.2 236.65 239.2 235.95 235.65 235.95
Q 235.55 235.95 235.5 235.85 235.3 235.8 234.75 235.8
L 234.75 235.2 234.05 235.2 234.05 235.85
Q 233.7 235.85 233.25 235.95
L 224.5 235.95 224.5 236.65 220.15 236.65 220.15 237.35 215.75 237.35 215.75 238.1 213.6 238.1 213.6 238.85 214.2 238.85 214.2 239.6 214.9 239.6 214.9 239.45
Q 215.2 239.65 215.45 239.65 215.8 239.65 216.25 239.45 219.35 238.1 224.25 238.2 225 238.2 225.75 238.15 228.3 237.85 230.8 237.35
L 231.8 237.35 231.8 237.25
Q 232.55 237.25 233.25 237.3
L 233.25 237.35 233.6 237.35
Q 234.75 237.55 235.95 238.05 236.4 238.2 236.75 238.2 238.1 238.15 239.25 238.35 240.35 238.45 241.1 238.8 241.146875 238.846875 241.25 238.85
L 240.65 238.85 240.65 239.6 238.45 239.6 238.45 239.95
Q 242.95 240.25 247.2 240.9
L 247.35 241.75 248 241.75
Q 248.3 242.05 248.65 242.4
L 248.65 243.3 249.4 243.3 249.4 244.75 248.65 244.75 248.65 246.9 247.95 246.9 247.95 247.65 247.2 247.65 247.2 249.1 246.45 249.1 246.45 249.85 245.75 249.85 245.75 250.55 245 250.55 245 251.25 244.3 251.25 244.3 252.1 243.55 252.1 243.55 252.85 242.85 252.85 242.85 253.55 241.35 253.55 241.35 254.25 240.65 254.25 240.65 255 239.9 255 239.9 255.7 238.45 255.7 238.45 256.5 237.65 256.5 237.65 257.2 236.9 257.2 236.9 257.9 236.2 257.9 236.2 258.65 234.75 258.65 234.75 259.35 233.25 259.35 233.25 260.1 231.8 260.1 231.8 261.6 230.4 261.6 230.4 260.85 229.65 260.85 229.65 261.6 228.95 261.6 228.95 262.3 228.15 262.3 228.15 262.95
Q 228.1 262.95 228.05 263
L 226.75 263 226.75 263.75 225.25 263.75 225.25 264.45 224.55 264.45 224.25 265 223.15 265.55 223 265.75 223 266 222.9 266 222.6 266.65 220.85 267.35 220.85 267.45 220.55 267.45 219.8 267.75 219.25 268.9 208.05 274.45 207.5 275.55
Q 208.25 275.25 209 274.9 210.3 274.2 211.35 274.15
L 211.35 274.75 209.85 274.75 209.85 275.55 207.65 275.55 207.65 276.25 206.95 276.25 206.95 277 204.75 277 204.75 277.7 204 277.7 204 278.4 202.6 278.4 202.6 279.2 199.6 279.2 199.6 279.9 198.85 279.9 198.85 280.65 197.45 280.65 197.45 281.35 195.95 281.35 195.95 282.05 194.5 282.05 194.5 282.8 191.5 282.8 191.5 283.55 190.8 283.55 190.8 284.3 188.6 284.3 188.6 285 187.85 285 187.85 285.75 184.95 285.75 184.95 286.45 182.75 286.45 182.75 287.15 182.05 287.15 182.05 288 180.6 288 180.6 289.45 178.3 289.45 178.3 288.7 177.6 288.7 177.6 289.45 175.45 289.45 175.45 290.15 173.2 290.15 173.2 290.9 171.05 290.9 171.05 291.6 168.8 291.6 168.8 292.3 167.35 292.3 167.35 293.1 166.65 293.1 166.65 293.8 165.9 293.8 165.9 293.1 165.15 293.1 165.15 293.8 162.95 293.8 162.95 294.55 161.55 294.55 161.55 295.25
M 216.95 238.15
Q 216.7 238.2 216.5 238.2
L 216.5 238.1 217.5 238.1
Q 217.2 238.15 216.95 238.15
M 212.75 272.55
L 213.5 272.55 213.5 273.25 212.75 273.25 212.75 272.55 Z"/>

<path fill="#000000" fill-opacity="0.0784313725490196" stroke="none" d="
M 213.5 272.55
L 212.75 272.55 212.75 273.25 213.5 273.25 213.5 272.55 Z"/>
</g>

<g id="Layer5_0_FILL">
<path fill="#000000" fill-opacity="0.8509803921568627" stroke="none" d="
M 210 274.75
L 209.85 274.75 209.85 274.9
Q 209.95 274.8 210 274.75
M 179.85 261.6
L 179.85 260.1 178.3 260.1 178.3 260.85 177.6 260.85 177.6 261.6 176.85 261.6 176.85 262.3 176.15 262.3 176.15 265.15 175.45 265.15 175.45 271.1 175.15 271.1
Q 175.35 272.55 175.9 273.9 176.55 274.15 176.75 274.7 176.8 274.9 176.85 275.05
L 176.85 275.8
Q 177 276 177.15 276.25
L 177.45 276.25
Q 178.25 277.5 179.45 278.25 182.95 279.15 184.7 278.8 185.3 278.6 186.1 278.8 187.5 278.95 188.8 279.05 191.9 279.2 194.25 278.55 196.35 277.9 198.55 277.45 200 277.15 201.55 277 203.95 276.6 206 276.1 206.2 275.95 206.35 275.9 206.6 275.7 206.95 275.7 207.05 275.7 207.15 275.65
L 207.35 275.5
Q 207.55 275.5 207.65 275.5 208.35 275.2 209 274.9 210.3 274.2 211.35 274.15 212.25 273.7 213.15 273.25
L 212.75 273.25 212.75 272.55 213.5 272.55 213.5 273.1
Q 216.1 271.8 219 270.35 224.05 267.85 228 264.35 229.6 262.9 230.4 261.35
L 230.4 260.85 229.65 260.85 229.65 261.6 228.95 261.6 228.95 262.3 228.15 262.3 228.15 262.95
Q 228.1 262.95 228.05 263
L 226.75 263 226.75 263.75 225.25 263.75 225.25 264.45 223.75 264.45 223.75 265.15 223 265.15 223 266 221.6 266 221.6 266.75 220.85 266.75 220.85 267.45 217.9 267.45 217.9 268.15 216.5 268.15 216.5 268.9 215.75 268.9 215.75 269.6 213.5 269.6 213.5 270.4 212.05 270.4 212.05 271.1 209.1 271.1 209.1 271.8 207.65 271.8 207.65 272.55 204.75 272.55 204.75 273.25 201.8 273.25 201.8 274 199.6 274 199.6 274.75 196.65 274.75 196.65 275.55 190.8 275.55 190.8 276.25 184.25 276.25 184.25 275.55 180.9 275.55
Q 180.7 275.5 180.6 275.5
L 180.6 274.75 179.85 274.75
Q 179.65 274.35 180 274.15 179.65 274 179.25 274
L 178.55 273 178.2 271.7 177.85 271.4
Q 177.75 271.3 177.75 271.1
L 177.65 271.1
Q 176.4 269.75 177.25 266.5 178 264.2 179.05 262.3
L 179.15 262.3 179.15 262
Q 179.25 261.8 179.4 261.6
L 179.85 261.6
M 196.7 248.5
Q 196.45 248.45 196.25 248.4
L 196.65 248.4 196.65 247.65 191.5 247.65 191.5 248.4 190.8 248.4 190.8 249.1 190.05 249.1 190.05 249.85 188.6 249.85 188.6 250.55 187.1 250.55 187.1 251.25 185.7 251.25 185.7 252.1 184.95 252.1 184.95 252.85 183.9 252.85
Q 182.5 253.95 181.3 255.4 180.9 255.95 180.6 256.05 180.3 256.35 180 256.7 180.05 256.7 180.1 256.7 180.25 256.65 180.3 256.65 180.45 256.65 180.6 256.6
L 180.6 257.2 180.25 257.2 179.85 257.4 179.85 258.65 179.15 258.65 179.15 259.35 179.85 259.35
Q 179.15 259.9 181.05 259.35
L 181.3 259.35 181.3 259.3
Q 181.35 259.25 181.5 259.25 181.65 259.1 181.95 258.65 182.65 257.5 183.8 256.85 184.8 254.95 187.2 253.35 187.95 252.9 188.4 252.55
L 192.05 250.55
Q 192.35 250.5 192.65 250.45 193.45 249.55 195.65 249.6 196 249.25 196.35 248.85
L 196.7 248.5 Z"/>

<path fill="#000000" fill-opacity="0.0784313725490196" stroke="none" d="
M 213.5 272.55
L 212.75 272.55 212.75 273.25 213.15 273.25
Q 213.3 273.2 213.5 273.1
L 213.5 272.55 Z"/>

<path fill="#000000" fill-opacity="0.5411764705882353" stroke="none" d="
M 201 244
L 201 243.3 199.6 243.3 199.6 244 198.15 244 198.15 244.75 197.45 244.75 197.45 245.45 198.35 245.45
Q 199.35 245.75 201.3 244.85 201.5 244.8 201.5 244.45 201.5 244.25 201.5 244
L 201 244
M 208.4 241
L 208.4 240.3 206.95 240.3 206.95 241.75 207.5 241.75
Q 207.65 242.8 208.4 241.7 208.45 241.5 208.85 241.5 208.85 241.25 208.85 241
L 208.4 241 Z"/>

<path fill="#000000" fill-opacity="0.4980392156862745" stroke="none" d="
M 196.35 246.2
L 196.35 246.3
Q 198.45 246.3 197.45 246.1
L 197.45 245.45 195.95 245.45 195.95 246.2 196.35 246.2 Z"/>

<path fill="#000000" fill-opacity="0.9921568627450981" stroke="none" d="
M 202.6 244
L 202.6 243.3 201 243.3 201 244 201.5 244
Q 201.5 244.25 201.5 244.45 201.85 244.45 202.2 244.45 202.6 244.45 202.95 244.45 202.95 244.1 202.8 244
L 202.6 244 Z"/>

<path fill="#000000" fill-opacity="0.6274509803921569" stroke="none" d="
M 203.7 243.3
L 203.3 243.3 203.3 242.5 201 242.5 201 243.3 202.6 243.3 202.6 244 202.8 244
Q 202.95 244.1 202.95 244.45 203.35 244.45 203.55 244.25 203.7 244.1 203.7 243.7 203.7 243.55 203.7 243.3 Z"/>

<path fill="#000000" fill-opacity="0.7647058823529411" stroke="none" d="
M 204.75 242.4
L 204.75 241.75 203.3 241.75 203.3 242.5 203.3 243.3 203.7 243.3
Q 203.7 243.55 203.7 243.7 204.1 243.7 204.4 243.55 205.9 242.7 204.75 242.4 Z"/>

<path fill="#000000" fill-opacity="0.6313725490196078" stroke="none" d="
M 209.1 239.6
L 209.1 240.3 209.85 240.3 209.85 241 210.2 241
Q 210.3 241.2 210.3 241.5 210.65 241.5 210.9 241.3 213.35 239.75 212.55 239.6
L 212.75 239.6 212.75 238.85 211.35 238.85 211.35 239.6 209.1 239.6 Z"/>

<path fill="#000000" stroke="none" d="
M 208.4 240.3
L 208.4 241 208.85 241
Q 208.85 241.25 208.85 241.5 209.25 241.5 209.6 241.5 209.95 241.5 210.3 241.5 210.3 241.2 210.2 241
L 209.85 241 209.85 240.3 209.1 240.3 208.4 240.3 Z"/>
</g>

<g id="Layer3_0_FILL">
<path fill="#000000" fill-opacity="0.8509803921568627" stroke="none" d="
M 262.15 233.95
L 261.6 234.2 259.55 236.25
Q 259.55 236.4 259.55 236.6 259.7 236.6 259.8 236.6 259.95 236.6 260.05 236.65
L 259.65 236.65 259.65 238.85 259.75 238.85
Q 259.7 238.95 259.65 239
L 259.65 238.85 258.9 238.85 258.9 239.6 258.2 239.6 258.2 240.3 257.45 240.3 257.45 241 256.05 241 256.05 241.75 255.25 241.75 255.25 243.3 254.55 243.3 254.55 244 253.1 244 253.1 244.75 252.6 244.75 252.4 245.45 251.9 245.95 251.9 247.85
Q 252.2 247.55 252.5 247.3
L 252.55 247.25
Q 253.4 246.55 254.45 246.2 255.15 245.95 255.45 245.6 256.05 244.8 256.7 244
L 256.75 244 256.75 243.95
Q 257.35 243.25 258 242.5
L 258.2 242.5 258.2 242.3
Q 260.75 239.35 263.6 236.65
L 263.65 236.45 263.75 236.4
Q 264.05 236.1 264.35 235.85
L 264.65 235.2 265.2 234.95 265.75 234.2 265.75 233.4 266.45 230.85
Q 266.65 230.85 266.8 230.8 266.75 230.6 266.75 230.4 266.75 229.8 266.9 229.05 266.5 229.2 266.3 229.45
L 266.3 228.55 265.55 228.55 265.55 229.4 264.8 229.4 264.8 230.1 264.35 230.1
Q 264.25 230.5 264.05 230.85
L 264.05 231.55 263.7 231.55
Q 263.5 231.85 263.35 232.2
L 263.35 232.25 263.3 232.25
Q 262.8 233.1 262.15 233.95
M 253.1 245.5
L 253.1 245.45 253.2 245.45
Q 253.1484375 245.4515625 253.1 245.5
M 256.75 242.5
L 256.8 242.5 256.75 242.6 256.75 242.5 Z"/>

<path fill="#000000" fill-opacity="0.9019607843137255" stroke="none" d="
M 266.9 227.1
L 266.3 227.1 266.3 227.55
Q 266.6 227.55 266.9 227.55 266.9 227.35 266.9 227.1
M 222.3 195.25
L 222.3 195.65 223.5 195.65
Q 225.1 196.45 227.95 196.15 229.2 196 230.4 195.95
L 230.4 195.65 232.55 195.65 232.55 196.4 233.1 196.4
Q 233.1 196.45 233.1 196.7 235.3 196.7 237.5 196.7 237.6 196.7 237.65 196.7
L 237.65 196.4 239.9 196.4 239.9 197.1 240.4 197.1
Q 240.45 197.2 240.45 197.45 241.75 197.45 242.85 197.6
L 242.85 197.9 244.35 197.9
Q 244.6 197.95 244.9 198.05 244.95 198.05 245 198.1
L 245 197.9 246.45 197.9 246.45 198.6 247 198.6
Q 247.05 198.7 247.05 198.9 247.5 198.9 247.95 199
L 247.95 199.3 249.15 199.3
Q 249.25 199.4 249.4 199.45
L 249.4 199.3 250.9 199.3 250.9 200.05 251.4 200.05
Q 251.4 200.15 251.4 200.4 251.55 200.5 251.65 200.7
L 251.65 200.75 251.8 200.75
Q 252 201 252.4 201.25
L 252.4 201.45 253 201.45
Q 253.9 201.85 255.15 201.85 255.2 201.85 255.25 201.85
L 255.25 201.45 256.05 201.45 256.05 202.25 256.55 202.25
Q 256.55 202.35 256.55 202.55 256.7 202.6 256.75 202.65
L 256.75 202.95 257.25 202.95
Q 257.35 203.05 257.45 203.15
L 257.45 203.7 258.2 203.7 258.2 204.4 258.9 204.4 258.9 205.15 259.45 205.15
Q 259.5 205.25 259.5 205.5 259.55 205.55 259.65 205.55
L 259.65 205.85 260.1 205.85
Q 260.25 205.9 260.35 206.05
L 260.35 206.7 261.2 206.7 261.2 207.4 261.9 207.4 261.9 208.1 262.6 208.1 262.6 208.85 263.35 208.85 263.35 209.55 264.05 209.55 264.05 210.3 264.65 210.3
Q 264.7 210.4 264.8 210.45
L 264.8 211.8 265.55 211.8 265.55 213.2 266.2 213.2
Q 266.2 213.35 266.3 213.45
L 266.3 215.4 266.95 215.4
Q 266.95 215.55 267 215.75
L 267 219.1 267.7 219.1 267.7 219.8 267 219.8 267 223.45 266.3 223.45 266.3 225.7 265.55 225.7 265.55 227.1 266.3 227.1 266.3 226.4 267 226.4 267 226.8
Q 267.3 226.8 267.6 226.8 267.6 226.45 267.6 226.1 267.95 226.15 268.15 226.05 268.55 225.85 268.55 225.2 268.5 224.95 268.45 224.6 268.3 224.25 268.3 223.9 268.3 223.7 268.3 223.45
L 267.7 223.45 267.7 222.05 268.45 222.05 268.45 222.4
Q 268.8 222.4 269.1 222.4 269.1 222.05 269.1 221.65 269.1 219.1 269.1 216.5 268.75 216.5 268.5 216.35
L 268.45 216.25 268.45 216.15 267.7 216.15 267.7 215.4 268.3 215.4
Q 268.25 215.25 268.25 215.1 267.95 213.6 267.6 212.15 267.25 212.15 267.05 211.95
L 267 211.9 267 211.8 266.3 211.8 266.3 211 266.8 211
Q 266.75 210.8 266.7 210.7 266.5 210.3 266.15 209.9 265.8 209.9 265.55 209.75
L 265.55 209.55 264.8 209.55 264.8 208.85 265.3 208.85
Q 265.3 208.8 265.25 208.7 265 208.55 264.8 208.4
L 264.8 208.1 264.5 208.1
Q 264.25 207.95 264.05 207.7
L 264.05 207.4 263.8 207.4
Q 263.45 206.85 263.2 206.25 262.8 206.25 262.6 206.1
L 262.6 205.85 261.9 205.85 261.9 205.15 261.45 205.15
Q 261.3 205 261.2 204.95
L 261.2 204.4 260.95 204.4 259.65 204.4 259.65 203.7 260 203.7
Q 259.8 203.5 259.65 203.35
L 259.65 202.95 259.25 202.95
Q 259.1 202.8 258.9 202.6
L 258.9 202.25 258.55 202.25
Q 257.7 201.55 256.75 200.85
L 256.75 200.75 256.55 200.75
Q 255.95 200.35 255.3 199.95 254.95 199.75 254.55 199.6
L 254.55 199.3 253.95 199.3
Q 253.2 199 252.4 198.8
L 252.4 198.6 251.7 198.6
Q 251.3 198.5 250.9 198.4
L 250.9 197.9 249.25 197.9 247.95 197.9 247.95 197.1 248.05 197.1
Q 247.8 196.6 247.2 196.55
L 247.2 196.4 245.75 196.4 245.75 197.1 245 197.1 245 196.4 244.1 196.4 242.85 196.4 242.85 195.65 242.35 195.65
Q 241.9 195.5 241.35 195.35
L 241.35 194.95 237.5 194.95 235.5 194.95 235.5 194.15 234.05 194.15 234.05 194.95 233.25 194.95 233.25 194.15 229.35 194.15 227.45 194.15 227.15 194.15 224.5 194.15 222.75 194.15 222.3 194.15 222.3 195.25 Z"/>

<path fill="#000000" fill-opacity="0.4117647058823529" stroke="none" d="
M 267.4 227.35
Q 267.6 227.2 267.6 226.8 267.3 226.8 267 226.8
L 267 226.4 266.3 226.4 266.3 227.1 266.9 227.1
Q 266.9 227.35 266.9 227.55 267.25 227.55 267.4 227.35 Z"/>

<path fill="#000000" fill-opacity="0.49019607843137253" stroke="none" d="
M 265.55 227.1
L 265.55 227.85 266.3 227.85 266.3 227.65
Q 266.6 227.9 266.9 227.9
L 266.9 227.55
Q 266.6 227.55 266.3 227.55
L 266.3 227.1 265.55 227.1
M 246.45 197.9
L 245 197.9 245 198.1 245 198.6 246.1 198.6
Q 246.25 198.7 246.4 198.8 246.7 198.9 247.05 198.9 247.05 198.7 247 198.6
L 246.45 198.6 246.45 197.9
M 199.6 197.1
L 199.6 196.4 198.85 196.4 198.85 197.1 199.6 197.1 Z"/>

<path fill="#000000" fill-opacity="0.5294117647058824" stroke="none" d="
M 251.4 200.4
Q 251.4 200.15 251.4 200.05
L 250.9 200.05 250.9 199.3 249.4 199.3 249.4 199.45 249.4 200.05 250.5 200.05
Q 250.65 200.15 250.75 200.2 251.05 200.4 251.4 200.4
M 237.65 196.7
L 237.65 197.1 238.3 197.1
Q 238.45 197.9 239.75 197.5 240.05 197.45 240.45 197.45 240.45 197.2 240.4 197.1
L 239.9 197.1 239.9 196.4 237.65 196.4 237.65 196.7 Z"/>

<path fill="#000000" fill-opacity="0.45098039215686275" stroke="none" d="
M 258.2 204.55
L 258.2 205.15 258.85 205.15
Q 258.9 205.25 258.95 205.3 259.15 205.5 259.5 205.5 259.5 205.25 259.45 205.15
L 258.9 205.15 258.9 204.4 258.2 204.4 258.2 204.55
M 230.4 196.4
L 230.9 196.4
Q 231.1 197.1 232.35 196.8 232.7 196.7 233.1 196.7 233.1 196.45 233.1 196.4
L 232.55 196.4 232.55 195.65 230.4 195.65 230.4 195.95 230.4 196.4 Z"/>

<path fill="#000000" fill-opacity="0.43137254901960786" stroke="none" d="
M 263.05 205.65
Q 262.85 205.55 262.6 205.5
L 262.6 205.15 261.9 205.15 261.9 205.85 262.6 205.85 262.6 206.1
Q 262.8 206.25 263.2 206.25 263.2 205.9 263.05 205.65 Z"/>

<path fill="#000000" fill-opacity="0.4392156862745098" stroke="none" d="
M 257.45 204.4
L 258.15 204.4
Q 258.15 204.45 258.2 204.55
L 258.2 204.4 258.2 203.7 257.45 203.7 257.45 204.4 Z"/>

<path fill="#000000" fill-opacity="0.4549019607843137" stroke="none" d="
M 255.25 201.45
L 255.25 201.85 255.25 202.25 255.95 202.25
Q 255.95 202.3 256.05 202.35 256.2 202.55 256.55 202.55 256.55 202.35 256.55 202.25
L 256.05 202.25 256.05 201.45 255.25 201.45 Z"/>

<path fill="#000000" fill-opacity="0.5098039215686274" stroke="none" d="
M 260.35 203.7
L 260 203.7 259.65 203.7 259.65 204.4 260.95 204.4
Q 260.9 204.3 260.85 204.25 260.65 204.05 260.35 204.05
L 260.35 203.7 Z"/>

<path fill="#000000" fill-opacity="0.5019607843137255" stroke="none" d="
M 269.1 222.4
Q 268.8 222.4 268.45 222.4
L 268.45 222.05 267.7 222.05 267.7 223.45 268.3 223.45
Q 268.3 223.7 268.3 223.9 268.75 223.55 268.9 223.05 269.1 222.8 269.1 222.4 Z"/>

<path fill="#000000" fill-opacity="0.5607843137254902" stroke="none" d="
M 267 219.1
L 267 219.8 267.7 219.8 267.7 219.1 267 219.1 Z"/>

<path fill="#000000" fill-opacity="0.44313725490196076" stroke="none" d="
M 267 211.8
L 267 211.9 267.05 211.95
Q 267.25 212.15 267.6 212.15 267.6 211.8 267.4 211.6 267.3 211.4 267 211.35
L 267 211 266.8 211 266.3 211 266.3 211.8 267 211.8
M 226.75 194
L 226.75 193.45 224.5 193.45 224.5 194.15 227.15 194.15
Q 227.15 194.1 227.1 194.1 226.9 194.05 226.75 194 Z"/>

<path fill="#000000" fill-opacity="0.5725490196078431" stroke="none" d="
M 268.9 215.95
Q 268.75 215.8 268.45 215.8
L 268.45 215.4 268.3 215.4 267.7 215.4 267.7 216.15 268.45 216.15 268.45 216.25 268.5 216.35
Q 268.75 216.5 269.1 216.5 269.1 216.15 268.9 215.95 Z"/>

<path fill="#000000" fill-opacity="0.5215686274509804" stroke="none" d="
M 265.55 209.55
L 265.55 209.75
Q 265.8 209.9 266.15 209.9 266.15 209.55 266 209.4 265.85 209.25 265.55 209.2
L 265.55 208.85 265.3 208.85 264.8 208.85 264.8 209.55 265.55 209.55 Z"/>

<path fill="#000000" fill-opacity="0.4627450980392157" stroke="none" d="
M 248.05 197.1
L 247.95 197.1 247.95 197.9 249.25 197.9
Q 249.2 197.75 249.1 197.65 248.95 197.5 248.65 197.45
L 248.65 197.1 248.05 197.1
M 237.35 194.75
Q 237.15 194.7 236.9 194.65
L 236.9 194.15 235.5 194.15 235.5 194.95 237.5 194.95
Q 237.45 194.8 237.35 194.75 Z"/>

<path fill="#000000" fill-opacity="0.5764705882352941" stroke="none" d="
M 245 196.4
L 245 197.1 245.75 197.1 245.75 196.4 245 196.4
M 220.85 194.15
L 221.6 194.15 221.6 194.95 222.05 194.95
Q 222.05 195.05 222.05 195.25 222.2 195.25 222.3 195.25
L 222.3 194.15 222.75 194.15 222.7 194.1
Q 222.55 194.05 222.3 194
L 222.3 193.45 220.15 193.45 220.15 194.15 220.75 194.15
Q 220.75 194.2 220.8 194.3 220.8 194.35 220.85 194.35
L 220.85 194.15 Z"/>

<path fill="#000000" fill-opacity="0.5176470588235295" stroke="none" d="
M 242.85 195.65
L 242.85 196.4 244.1 196.4
Q 244.05 196.25 243.95 196.15 243.8 196 243.55 195.95
L 243.55 195.65 242.85 195.65 Z"/>

<path fill="#000000" fill-opacity="0.5490196078431373" stroke="none" d="
M 234.05 194.15
L 233.25 194.15 233.25 194.95 234.05 194.95 234.05 194.15 Z"/>

<path fill="#000000" fill-opacity="0.48627450980392156" stroke="none" d="
M 227.45 193.45
L 227.45 194.15 229.35 194.15
Q 229.3 194.05 229.25 194.05 229.15 194 228.95 193.9
L 228.95 193.45 227.45 193.45 Z"/>

<path fill="#000000" fill-opacity="0.396078431372549" stroke="none" d="
M 222.05 195.6
L 222.05 195.25
Q 221.8 195.25 221.6 195.25
L 221.6 194.95 220.85 194.95 220.85 195.65 221.6 195.65 221.6 195.5
Q 221.8 195.6 222.05 195.6 Z"/>

<path fill="#000000" fill-opacity="0.9137254901960784" stroke="none" d="
M 222.05 194.95
L 221.6 194.95 221.6 195.25
Q 221.8 195.25 222.05 195.25 222.05 195.05 222.05 194.95
M 221.6 194.15
L 220.85 194.15 220.85 194.35 220.85 194.95 221.6 194.95 221.6 194.15 Z"/>

<path fill="#000000" fill-opacity="0.5137254901960784" stroke="none" d="
M 216.9 195.65
L 216.5 195.65 216.5 194.95 215.95 194.95 215.75 194.95 215.75 195.25 215.75 195.65 216.3 195.65
Q 216.3 195.7 216.35 195.8 216.55 195.95 216.9 195.95 216.9 195.85 216.9 195.65 Z"/>

<path fill="#000000" fill-opacity="0.7254901960784313" stroke="none" d="
M 215.75 194.4
L 215.75 194.15 214.2 194.15 214.2 194.95 214.9 194.95 214.9 195.05
Q 215.1 195.25 215.45 195.25 215.65 195.25 215.75 195.25
L 215.75 194.95 215.95 194.95
Q 216.05 194.5 215.75 194.4 Z"/>

<path fill="#000000" fill-opacity="0.6039215686274509" stroke="none" d="
M 217.2 193.45
L 217.2 194.15 216.5 194.15 216.5 194.95 216.5 195.65 216.9 195.65
Q 216.9 195.85 216.9 195.95 217.25 195.95 217.55 195.85 218.05 195.6 218.4 195.6 218.5 195.6 218.65 195.6
L 218.65 195.65 219.35 195.65 219.35 195.6
Q 219.6 195.6 219.85 195.6 220.25 195.6 220.15 195.4 220 195.2 219.9 194.95
L 220.15 194.95 220.15 194.15 219.25 194.15
Q 218.95 194 218.65 194
L 218.65 193.45 217.2 193.45 Z"/>

<path fill="#000000" stroke="none" d="
M 212.55 195.65
Q 212.55 195.85 212.55 195.95 212.9 195.95 213.25 195.95 213.6 195.95 213.95 195.95 213.95 195.8 213.95 195.65
L 213.5 195.65 213.5 194.95 212.05 194.95 212.05 195.65 212.55 195.65 Z"/>

<path fill="#000000" fill-opacity="0.6588235294117647" stroke="none" d="
M 209.85 194.95
L 208.4 194.95 208.4 195.65 209.85 195.65 209.85 196.4 210.3 196.4 210.3 196.7
Q 211.05 196.3 211.8 196.1 212.15 195.95 212.55 195.95 212.55 195.85 212.55 195.65
L 212.05 195.65 212.05 194.95 213.5 194.95 213.5 195.65 213.95 195.65
Q 213.95 195.8 213.95 195.95 214.75 195.95 215.3 195.65 215.45 195.6 215.45 195.25 215.1 195.25 214.9 195.05
L 214.9 194.95 214.2 194.95 214.2 194.15 209.85 194.15 209.85 194.95 Z"/>

<path fill="#000000" fill-opacity="0.8745098039215686" stroke="none" d="
M 204.75 196.75
Q 204.9 196.7 205.15 196.7 207.35 196.7 209.6 196.7 209.95 196.7 210.3 196.7
L 210.3 196.4 209.85 196.4 209.85 195.65 208.4 195.65 208.4 194.95 204.75 194.95 204.75 195.65
Q 204.6 195.65 204.5 195.65
L 202.6 195.65 202.6 196.4 204.75 196.4 204.75 196.75 Z"/>

<path fill="#000000" fill-opacity="0.5333333333333333" stroke="none" d="
M 201.8 197.1
L 202.2 197.1
Q 203.35 197.5 205.1 197.1 205.15 197.05 205.15 196.7 204.9 196.7 204.75 196.75
L 204.75 196.4 202.6 196.4 202.6 195.65 200.3 195.65 200.3 196.4 201 196.4 201 196.7
Q 201.25 196.7 201.5 196.7 201.6 196.8 201.8 196.9
L 201.8 197.1 Z"/>

<path fill="#000000" fill-opacity="0.8196078431372549" stroke="none" d="
M 199.6 196.4
L 199.6 197.1 198.85 197.1 198.85 198.6 199.6 198.6 199.6 198.5
Q 200.05 198.95 201.3 197.3 201.5 197.05 201.5 196.7 201.25 196.7 201 196.7
L 201 196.4 200.3 196.4 199.6 196.4 Z"/>

<path fill="#000000" fill-opacity="0.6235294117647059" stroke="none" d="
M 195.95 197.9
L 196.55 197.9
Q 197 198.2 197.35 197.9
L 198.15 197.9 198.15 196.4 196.65 196.4 196.65 197.1 195.95 197.1 195.95 197.9 Z"/>
</g>

<g id="Mask_1_MASK_0_FILL">
<path fill="#FFFFFF" stroke="none" d="
M 245.9 184.4
L 133.9 184.4 133.9 284.7 245.9 284.7 245.9 184.4 Z"/>
</g>

<g id="Layer1_0_FILL">
<path fill="#000000" fill-opacity="0.8588235294117647" stroke="none" d="
M 234.05 252.6
L 234.05 252.1 232.55 252.1 232.55 253.55 232.95 253.55
Q 233.1 253.85 233.5 253.55 234.9 252.7 234.05 252.6 Z"/>

<path fill="#000000" fill-opacity="0.8352941176470589" stroke="none" d="
M 238.45 250.55
L 238.45 249.85 236.9 249.85 236.9 250.55 235.5 250.55 235.5 252.1 236.2 252.1 236.2 251.75
Q 236.75 253.15 238.35 251.15 238.7 250.65 238.4 250.55
L 238.45 250.55
M 237.65 250.55
L 237.8 250.55
Q 237.69765625 250.55234375 237.65 250.6
L 237.65 250.55 Z"/>

<path fill="#000000" fill-opacity="0.6980392156862745" stroke="none" d="
M 239.2 249.65
L 239.2 249.1 238.45 249.1 238.45 249.85 238.95 249.85 238.95 249.95
Q 240.5 249.95 239.2 249.65 Z"/>

<path fill="#000000" fill-opacity="0.6745098039215687" stroke="none" d="
M 243.4 245.45
L 243.4 245.6
Q 245.65 245.6 244.3 245.35
L 244.3 244.75 242.85 244.75 242.85 245.45 243.4 245.45 Z"/>

<path fill="#000000" fill-opacity="0.6235294117647059" stroke="none" d="
M 196.65 196.4
L 196.65 197.1 195.95 197.1 195.95 197.9 196.55 197.9
Q 197 198.2 197.35 197.9
L 198.15 197.9
Q 198.15 197.8 198.15 197.75
L 198.15 196.4 196.65 196.4 Z"/>

<path fill="#000000" fill-opacity="0.8509803921568627" stroke="none" d="
M 193.75 197.1
L 193.75 197.8
Q 193.65 197.8 193.45 197.9
L 190.8 197.9 190.8 198.6 188.6 198.6 188.6 199.15
Q 188.25 199.2 187.95 199.3
L 186.4 199.3 186.4 199.8
Q 186.15 199.9 185.9 199.95 185.85 200.05 185.8 200.05
L 184.95 200.05 184.95 200.4
Q 184.5 200.55 184 200.75
L 182.05 200.75 182.05 201.45 179.85 201.45 179.85 202.25 178.3 202.25 178.3 202.95 176.85 202.95 176.85 203.7 174.7 203.7 174.7 204.4 173.95 204.4 173.95 205.15 172.5 205.15 172.5 205.85 170.35 205.85 170.35 206.7 168.8 206.7 168.8 207.4 167.35 207.4 167.35 208.1 166.65 208.1 166.65 208.85 165.15 208.85 165.15 209.55 164.4 209.55 164.4 210.3 163.7 210.3 163.7 210.9
Q 163.65 210.95 163.5 211
L 162.25 211 162.25 211.8 161.55 211.8 161.55 212.4
Q 161.4 212.45 161.35 212.5
L 160.05 212.5 160.05 213.2 158.6 213.2 158.6 213.95 157.9 213.95 157.9 214.65 157.15 214.65 157.15 215.4 156.3 215.4 156.3 216.15 155.6 216.15 155.6 216.85 154.15 216.85 154.15 217.6 153.45 217.6 153.45 218.3 152.7 218.3 152.7 219.1 151.25 219.1 151.25 220.6 150.5 220.6 150.5 221.3 149.8 221.3 149.8 222.05 149.05 222.05 149.05 223.1
Q 148.9 223.3 148.75 223.45
L 148.35 223.45 148.35 223.9
Q 148.25 224 148.1 224.2
L 146.85 224.2 146.85 224.95 146.15 224.95 146.15 226.4 145.35 226.4 145.35 227.1 144.65 227.1 144.65 227.85 143.9 227.85 143.9 228.55 143.2 228.55 143.2 230.1 142.4 230.1 142.4 230.85 141.7 230.85 141.7 232.25 141 232.25 141 233.45
Q 140.85 233.6 140.8 233.75
L 140.25 233.75 140.25 234.5 139.55 234.5 139.55 235.2 138.8 235.2 138.8 236.65 138.05 236.65 138.05 238.85 137.3 238.85 137.3 240.3 136.6 240.3 136.6 241 137.3 241 137.3 241.6
Q 137.25 241.7 137.25 241.75
L 136.6 241.75 136.6 243.2
Q 136.6 243.25 136.55 243.3
L 135.9 243.3 135.9 245.8
Q 135.75 246.35 135.75 246.9
L 135.15 246.9 135.15 251.25 135.75 251.25
Q 135.75 251.55 135.75 251.8 135.9 252.45 135.9 252.95 136 253.05 136.1 253.15 136.65 255.45 137.6 257.8 137.75 257.9 137.85 258 138.1 258.15 138.35 258.4 138.95 259 139.55 259.6
L 139.55 260.1 140 260.1
Q 140.15 260.2 140.25 260.4
L 140.25 260.85 140.7 260.85
Q 140.8 261.05 141 261.2
L 141 261.6 141.3 261.6
Q 141.5 261.8 141.7 262.1
L 141.7 262.3 141.9 262.3
Q 142.1 262.65 142.4 263 142.6 263.25 142.8 263.5 143.1 263.9 143.55 264.15 143.75 264.25 143.9 264.4
L 143.9 264.45 144.1 264.45
Q 144.35 264.65 144.65 264.8
L 144.65 265.15 145.35 265.15
Q 145.7 265.4 146.15 265.65
L 146.15 266 146.85 266
Q 151.25 268.3 155.9 270.2 156.15 270.25 156.3 270.4
L 156.45 270.4
Q 156.9 270.5 157.4 270.5 159.35 270.55 160.75 270.95
L 160.75 271.1 161.4 271.1
Q 161.65 271.2 161.95 271.35 162.05 271.4 162.25 271.5
L 162.25 271.8 163.05 271.8
Q 166.5 273.25 171.35 273.45 173.5 273.5 175.1 273.7 175.55 273.75 175.9 273.9 175.95 273.9 176.1 274 176.2 273.85 176.35 273.75 178.05 274 179.95 274.2 179.95 274.15 180 274.15 180.55 273.75 183.05 274.35 184.3 274.65 187 273.5 189.2 272.55 191.95 272.25 194.5 271.95 196.3 270.85 198.15 269.75 201.5 269.8 201.85 269.8 202.3 269.6 204.45 268.7 206.6 267.75 207.75 267.2 208.95 266.85 211.65 265.95 213.9 264.85 217.2 263.3 220.55 261.6
L 220.85 261.6 220.85 261.45
Q 222.05 260.8 223.3 260.15 223.9 259.9 224.5 259.6 226.75 258.65 228.6 257.55 229.05 257.3 229.45 257.25 231.4 257.1 231.65 255.45 231.35 255.35 231.1 255.3
L 231.1 255 230.4 255 230.4 254.25 228.95 254.25 228.95 255 227.45 255 227.45 255.7 226.75 255.7 226.75 256.2
Q 226.55 256.3 226.35 256.5
L 225.25 256.5 225.25 257.2 223.75 257.2 223.75 257.9 222.3 257.9 222.3 258.65 220.85 258.65 220.85 259.35 220.15 259.35 220.15 260.1 219.35 260.1 219.35 260.8
Q 219.25 260.8 219.2 260.85
L 216.5 260.85 216.5 261.6 215.75 261.6 215.75 262.3 214.2 262.3 214.2 262.9
Q 214.1 262.95 213.95 263
L 212.05 263 212.05 263.65
Q 212 263.75 211.85 263.75
L 209.1 263.75 209.1 264.45 207.65 264.45 207.65 265.15 206.95 265.15 206.95 266 204.75 266 204.75 266.75 201 266.75 201 267.45 199.6 267.45 199.6 268.15 195.95 268.15 195.95 268.9 193.05 268.9 193.05 269.6 190.05 269.6 190.05 270.4 186.4 270.4 186.4 271.1 177.65 271.1
Q 177.4 270.85 177.3 270.65 176.35 270.5 175.45 270.45
L 175.45 271.1 168.8 271.1 168.8 270.4 164.9 270.4
Q 164.65 270.35 164.4 270.35
L 164.4 269.6 161.55 269.6 161.55 268.9 158.9 268.9
Q 158.8 268.85 158.6 268.85
L 158.6 268.15 156.6 268.15
Q 156.45 268.1 156.3 268.1
L 156.3 267.45 154.5 267.45
Q 154.35 267.4 154.15 267.35
L 154.15 266.75 152.7 266.75 152.7 266 151.25 266 151.25 265.15 149.05 265.15 149.05 264.45 148.35 264.45 148.35 263.75 146.85 263.75 146.85 263 145.65 263
Q 145.45 262.9 145.35 262.85
L 145.35 262.3 144.7 262.3
Q 144.65 262.3 144.65 262.25
L 144.65 261.6 143.9 261.6 143.9 260.85 143.2 260.85 143.2 260.1 142.4 260.1 142.4 259.35 141.75 259.35
Q 141.7 259.35 141.7 259.3
L 141.7 258.65 141.2 258.65
Q 141.1 258.5 141.05 258.4
L 141 258.35 141 257.9 140.7 257.9
Q 140.55 257.8 140.5 257.7 140.85 257.8 141.2 257.85
L 138.9 253.85
Q 138.9 253.8 138.9 253.75
L 138.8 253.75 138.8 253.55 138.65 253.55
Q 138.45 253.45 138.35 253.25 138.15 252.45 138.05 251.7
L 138.05 250.55 138 250.55
Q 137.85 249.05 138.05 247.45 138.3 245.3 138.8 243.3
L 138.8 243.25
Q 139.1 242.1 139.5 241
L 139.55 241 139.55 240.8
Q 139.65 240.4 139.8 240.05 140 239.45 140.25 238.85
L 140.25 238.8
Q 140.55 238.05 141 237.35
L 141 237.3
Q 141.3 236.7 141.65 236.15 142.35 234.95 143.15 233.75
L 143.2 233.75 143.2 233.65
Q 143.85 232.5 144.55 231.45 144.95 230.85 145.35 230.3 145.65 229.75 146 229.4 146.45 229.05 146.6 228.7 146.65 228.6 146.75 228.55
L 146.85 228.55 146.85 228.4
Q 147.5 227.35 148.3 226.4
L 148.35 226.4 148.35 226.35
Q 148.6 226 148.9 225.7
L 149.05 225.7 149.05 225.45
Q 149.25 225.2 149.5 224.95
L 149.8 224.95 149.8 224.6
Q 149.95 224.35 150.15 224.2
L 150.5 224.2 150.5 223.8
Q 151.65 222.55 152.85 221.45 153.75 220.6 154.75 219.8
L 154.9 219.8 154.9 219.7
Q 155.4 219.25 156 218.85 158.6 217 161.4 215.4
L 161.55 215.4 161.55 215.3
Q 162.15 214.95 162.75 214.6 163.25 214.35 163.5 214 163.5 213.95 163.55 213.95
L 163.7 213.95 163.7 213.7
Q 164.85 212 166.45 211 167 210.65 167.15 210.35 167.15 210.3 167.2 210.3
L 168.05 210.3 168.05 209.45
Q 169.3 208.5 171.35 208.4 172.1 208.4 172.3 208.1
L 172.5 208.1 172.5 207.95
Q 172.8 207.65 173.1 207.4
L 173.2 207.4 173.2 207.35
Q 174.05 206.7 175.1 206.4 179.4 205.05 183.2 203.55 183.9 203.35 184.25 202.95 185.8 201.55 188.25 201.65 191.45 201.75 192.15 200.05
L 192.2 200.05 192.2 199.8
Q 192.25 199.7 192.25 199.55
L 192.35 199.25
Q 194.55 200.25 195.65 198.2 195.45 198 195.15 197.9
L 195.2 197.9 195.2 197.1 193.75 197.1 Z"/>
</g>
</defs>

<g transform="matrix( 1, 0, 0, 1, 0,0) ">
<use xlink:href="#Layer9_0_FILL"/>
</g>

<g transform="matrix( 1, 0, 0, 1, 0,0) ">
<use xlink:href="#Layer7_0_FILL"/>
</g>

<g transform="matrix( 1, 0, 0, 1, 0,0) ">
<use xlink:href="#Layer5_0_FILL"/>
</g>

<g transform="matrix( 1, 0, 0, 1, 0,0) ">
<use xlink:href="#Layer3_0_FILL"/>
</g>

<mask id="Mask_Mask_1">
<g transform="matrix( 1, 0, 0, 1, 0,0) ">
<use xlink:href="#Mask_1_MASK_0_FILL"/>
</g>
</mask>

<g mask="url(#Mask_Mask_1)">
<g transform="matrix( 1, 0, 0, 1, 0,0) ">
<use xlink:href="#Layer1_0_FILL"/>
</g>
</g>
</svg>
