
<svg xmlns="http://www.w3.org/2000/svg" version="1.1" xmlns:xlink="http://www.w3.org/1999/xlink" preserveAspectRatio="none" x="0px" y="0px" width="500px" height="500px" viewBox="0 0 500 500">
<defs>
<g id="Layer9_0_FILL">
<path fill="#000000" fill-opacity="0.6784313725490196" stroke="none" d="
M 278.55 213.05
Q 279.7375 212.322265625 278.9 212.2
L 278.9 211.9 277.7 211.9 277.7 213.1 278.1 213.1
Q 278.1865234375 213.2923828125 278.55 213.05
M 257.5 166.7
L 253.2 166.7 253.2 167.3 254.6 167.3
Q 255.1271484375 167.5423828125 255.65 167.75
L 255.65 167.9 255.9 167.9
Q 256.0376953125 167.9505859375 256.15 168 256.45 168.1 256.75 168.1 256.75 167.9978515625 256.75 167.9
L 256.25 167.9 256.25 167.3 257.95 167.3 257.95 167.15
Q 257.725 167.1185546875 257.5 167.1
L 257.5 166.7 Z"/>

<path fill="#000000" fill-opacity="0.5098039215686274" stroke="none" d="
M 278.9 210.1
L 278.3 210.1 278.3 211.3 278.75 211.3
Q 278.9982421875 211.7408203125 279.9 211.35 280.05 211.3 280.05 211 279.7 211 279.55 210.85 279.5224609375 210.8224609375 279.5 210.8
L 279.5 210.7 278.9 210.7 278.9 210.1 Z"/>

<path fill="#000000" fill-opacity="0.9333333333333333" stroke="none" d="
M 280.1 209.8
L 280.1 209.45 278.9 209.45 278.9 210.1 278.9 210.7 279.5 210.7 279.5 210.8
Q 279.5224609375 210.8224609375 279.55 210.85 279.7 211 280.05 211 280.05 210.7 280.2 210.6 281.19453125 209.9634765625 280.1 209.8 Z"/>

<path fill="#000000" fill-opacity="0.8509803921568627" stroke="none" d="
M 280.7 203.35
L 280.7 204 280.1 204 280.1 207.05 280.7 207.05 280.7 206.75
Q 280.821875 206.87578125 281.05 206.55 282.1 205.05 282.5 203 282.15 203 282 202.85 281.9724609375 202.8224609375 281.95 202.8
L 281.95 202.75 281.35 202.75 281.35 202.1 280.7 202.1 280.7 203.35
M 261 169.75
Q 261.05 169.81953125 261.05 169.9 261.1 169.9 261.15 169.9
L 261.15 169.75 262.85 169.75
Q 262.8216796875 169.5857421875 262.75 169.55 262.5771484375 169.4634765625 262.4 169.35
L 262.4 169.15 261.85 169.15
Q 261.507421875 169.0146484375 261.15 168.9
L 261.15 168.55 260.4 168.55 259.95 168.55 259.95 169.15 260.55 169.15 260.55 169.75 261 169.75
M 373.05 196.65
L 373.05 197.25 371.15 197.25 371.15 197.85 369.95 197.85 369.95 198.45 368.15 198.45 368.15 199.1 366.9 199.1 366.9 199.65
Q 366.85 199.681640625 366.8 199.7
L 364.5 199.7 364.5 200.3 363.2 200.3 363.2 200.9 362 200.9 362 201.45
Q 361.9658203125 201.4875 361.9 201.5
L 360.15 201.5 360.15 202.1 358.35 202.1 358.35 202.75 356.5 202.75 356.5 203.35 355.3 203.35 355.3 204 354.1 204 354.1 204.6 352.2 204.6 352.2 205.2 350.4 205.2 350.4 205.8 349.8 205.8 349.8 206.45 347.95 206.45 347.95 207.05 346.15 207.05 346.15 207.65 344.3 207.65 344.3 208.25 342.45 208.25 342.45 208.85 340.6 208.85 340.6 209.45 340 209.45 340 210.1 338.2 210.1 338.2 210.7 336.35 210.7 336.35 211.3 334.55 211.3 334.55 211.9 333.25 211.9 333.25 212.5 332.05 212.5 332.05 213.1 329.6 213.1 329.6 213.8 328.4 213.8 328.4 214.4 327.2 214.4 327.2 215 325.95 215 325.95 215.5
Q 325.8375 215.5595703125 325.7 215.6
L 324.1 215.6 324.1 216.2 322.25 216.2 322.25 216.8 320.45 216.8 320.45 217.4 319.25 217.4 319.25 218
Q 319.217578125 218.0375 319.15 218.05
L 317.4 218.05 317.4 218.65 315.6 218.65 315.6 219.25 314.3 219.25 314.3 219.85 312.5 219.85 312.5 220.45 310.65 220.45 310.65 221.05 309.45 221.05 309.45 221.7 308.25 221.7 308.25 222.3 307 222.3 307 222.9 304.6 222.9 304.6 223.5 302.7 223.5 302.7 224.15 300.9 224.15 300.9 224.75 299.65 224.75 299.65 225.4 297.85 225.4 297.85 226 295.95 226 295.95 226.6 295.35 226.6 295.35 227.2 292.3 227.2 292.3 227.8 290.5 227.8 290.5 228.4 288.05 228.4 288.05 229.05 286.85 229.05 286.85 229.65 285.65 229.65 285.65 230.25 282.55 230.25 282.55 230.85 280.7 230.85 280.7 231.45 279.5 231.45 279.5 232.05 277.7 232.05 277.7 232.75 276.4 232.75 276.4 233.35 274 233.35 274 233.95 271.55 233.95 271.55 234.5
Q 271.3470703125 234.16640625 271.35 233.55 270.2173828125 233.9978515625 269.1 234.35
L 269.1 234.55 268.5 234.55 268.5 235.15 267.9 235.15 267.9 235.7
Q 267.8625 235.7310546875 267.8 235.75
L 266 235.75 266 236.4 263.6 236.4 263.6 237 262.4 237 262.4 237.55
Q 262.321484375 237.5705078125 262.25 237.6
L 261.75 237.6 261.75 237 261.15 237 261.15 237.6 260.55 237.6 260.55 238.2 257.5 238.2 257.5 238.8 255.65 238.8 255.65 239.4 252.6 239.4 252.6 239.05
Q 250.467578125 239.6248046875 248.35 240.15 249.355859375 240.3044921875 250.05 240.65
L 249.55 240.65 249.55 241.25 247.75 241.25 247.75 241.85 245.85 241.85 245.85 242.45 243.4 242.45 243.4 243.05 240.4 243.05 240.4 243.7 237.95 243.7 237.95 244.35 235.45 244.35 235.45 244.95 233.05 244.95 233.05 245.55 231.8 245.55 231.8 246.15 228.8 246.15 228.8 246.75 226.9 246.75 226.9 247.35 223.85 247.35 223.85 248 222.05 248 222.05 248.6 219 248.6 219 249.2 215.9 249.2 215.9 249.8 212.85 249.8 212.85 250.4 210.45 250.4 210.45 251 209.05 251
Q 209.0994140625 250.844921875 209.15 250.7 207.9611328125 251.047265625 206.75 251.35 205.1 251.55 203.55 252 203.325390625 251.971484375 203.1 251.95
L 203.1 252.3 200.05 252.3 200.05 252.9 193.9 252.9 193.9 253.5 189 253.5 189 254.1 188.4 254.1 188.4 253.5 187.2 253.5 187.2 254.1 167 254.1 167 253.7
Q 166.4060546875 253.67109375 165.9 253.5
L 165.2 253.5
Q 165.04375 253.3810546875 164.85 253.25 163.65390625 252.9962890625 162.3 252.85
L 162.1 252.6
Q 162.1275390625 252.773046875 162.1 252.9
L 161.3 252.9
Q 161.2203125 252.792578125 161.1 252.65 161.024609375 252.65 160.95 252.65
L 160.95 252.3 158.45 252.3 158.45 251.7 156.35 251.7
Q 156.1818359375 251.6048828125 156 251.5
L 156 251 155.25 251
Q 155.119921875 250.903125 155 250.8 154.9048828125 250.7048828125 154.8 250.6
L 154.8 250.4 154.4 250.4
Q 154.36171875 250.373046875 154.3 250.35 154.2498046875 250.32578125 154.2 250.3
L 154.2 249.8 153.2 249.8
Q 153.0974609375 249.750390625 153 249.7
L 153 249.2 152.1 249.2
Q 151.9224609375 249.1009765625 151.75 249
L 151.75 248.6 151.15 248.6 151.15 248 150.1 248
Q 150.0123046875 247.9271484375 149.9 247.85
L 149.9 247.35 149.3 247.35 149.3 246.75 148.3 246.75
Q 148.1740234375 246.65703125 148.05 246.55
L 148.05 246.15 147.55 246.15
Q 147.4998046875 246.108984375 147.45 246.05
L 147.45 245.55 146.85 245.55 146.85 244.95 146.25 244.95 146.25 244.35 145.65 244.35 145.65 244.3 145.65 243.7 145.1 243.7
Q 145.062109375 243.6201171875 145 243.55
L 145 243.05 144.6 243.05
Q 144.5111328125 242.8875 144.4 242.7
L 144.4 242.45 144.2 242.45
Q 144.00625 242.116015625 143.8 241.75
L 143.8 241.25 143.5 241.25
Q 143.3462890625 240.9765625 143.2 240.7
L 143.2 240 142.85 240
Q 142.721875 239.7267578125 142.6 239.45
L 142.6 238.8 142.3 238.8
Q 142.15546875 238.368359375 142 237.9
L 142 237 141.7 237
Q 141.483203125 236.2923828125 141.3 235.55
L 141.3 235.15 141.2 235.15
Q 141.171484375 235 141.15 234.85 140.9 230.3 141.25 225.7 141.55 221.75 143 218.45 148.35 205.85 158.35 197.85 162.086328125 194.8095703125 165.75 191.75
L 165.8 191.75 165.8 191.7
Q 166.5341796875 191.114453125 167.25 190.5
L 167.6 190.5 167.6 190.2
Q 167.7890625 190.061328125 167.95 189.9
L 168.25 189.9 168.25 189.65
Q 168.350390625 189.5837890625 168.45 189.5 168.590234375 189.3798828125 168.7 189.3
L 168.85 189.3 168.85 189.25
Q 169.0013671875 189.17109375 169.15 189.15 170.3 188.9 170.75 188.2 171.0033203125 187.8201171875 171.3 187.5 172.18046875 186.5607421875 173.45 186.15 174.1701171875 185.9216796875 174.8 185.65
L 174.95 185.65 174.95 185.6
Q 176.059375 185.1142578125 176.95 184.5 178.95 183.15 181.4 182.4 183.5515625 181.7169921875 184.75 180.15 184.982421875 179.841796875 185.15 179.5
L 185.35 179.5 185.35 179.15
Q 185.516015625 178.853515625 185.65 178.5 186.1150390625 178.7326171875 186.55 178.85
L 186.55 178.9 186.7 178.9
Q 187.870703125 179.1974609375 188.8 178.75 190.4 178.05 191.85 177.6 194.7244140625 176.7376953125 196.75 175.2
L 196.95 175.2 196.95 175.05
Q 197.2603515625 174.81015625 197.55 174.55
L 197.55 174.6 198.85 174.6 198.85 174.4
Q 201.1458984375 174.1416015625 203 173.4 205.3787109375 172.43359375 207.8 171.55
L 207.95 171.55 207.95 171.5
Q 208.722265625 171.22109375 209.5 170.95
L 209.85 170.95 209.85 170.85
Q 209.985546875 170.85 210.1 170.85 212.25 171.1 211.8 169.35
L 211.7 169
Q 212.005859375 169.101953125 212.25 169.15 212.5546875 169.1974609375 212.75 169.15
L 212.85 169.15 212.85 169.1
Q 213.135546875 169.021875 213.2 168.7 213.7984375 168.7 214.1 168.95
L 214.1 169.75 215.9 169.75
Q 216.5263671875 169.789453125 217 169.5 217.855859375 169.0373046875 218.65 168.55
L 219 168.55 219 168.35
Q 219.76953125 167.858984375 220.5 167.35 220.5546875 167.32265625 220.6 167.3
L 220.8 167.3 220.8 167.2 220.9 167.2
Q 221.475 167.6705078125 222.05 167.8
L 222.05 167.9 222.35 167.9
Q 222.69140625 167.9466796875 223 167.9
L 223.25 167.9 223.25 167.85
Q 223.725 167.7310546875 224.2 167.4
L 224.45 167.2 224.45 167.3 224.6 167.3
Q 224.9501953125 167.783984375 226.05 167.3
L 226.3 167.3 226.3 167.2
Q 226.525 167.1322265625 226.75 167.1 227.7498046875 166.9333984375 228.7 166.7
L 230 166.7 230 166.35
Q 230.612109375 166.191796875 231.2 166.1
L 233.05 166.1 233.05 165.95
Q 233.3490234375 165.976953125 233.65 166
L 233.65 166.1 234.7 166.1
Q 235.5763671875 166.216015625 236.45 166.45 236.575 166.4857421875 236.7 166.5
L 236.7 166.7 238.55 166.7 238.55 166.6
Q 239.92578125 166.4095703125 238.95 165 238.748828125 165 238.55 165
L 238.55 164.9 236.7 164.9 236.7 165.2
Q 236.4822265625 165 236.4 165 236.24921875 164.9673828125 236.1 164.95
L 236.1 164.2 232.45 164.2 232.45 164.8
Q 232.2630859375 164.8587890625 232.05 164.9
L 230 164.9 230 165.1
Q 229.3755859375 164.9908203125 228.8 165
L 228.8 164.9 226.9 164.9 226.9 165.5 226.3 165.5 226.3 165.85
Q 226.27265625 165.8650390625 226.25 165.85 225.6712890625 165.6384765625 225.1 165.55
L 225.1 165.5 224.75 165.5
Q 224.108203125 165.4251953125 223.45 165.5
L 221.45 165.5 221.45 166.1 220.2 166.1 220.2 166.4
Q 220.148828125 166.4162109375 220.1 166.4 219.96015625 166.3650390625 219.6 166.4
L 219.6 166.1 219 166.1 219 166.45
Q 218.48515625 166.5529296875 217.75 166.7
L 215.3 166.7 215.3 167.25
Q 215.1931640625 167.2748046875 215.05 167.3
L 212.25 167.3 212.25 167.9 210.45 167.9 210.45 168.5
Q 210.35859375 168.525 210.25 168.55
L 207.95 168.55 207.95 169.15 206.15 169.15 206.15 169.7
Q 206.1080078125 169.7375 206.05 169.75
L 204.3 169.75 204.3 170.25
Q 204.18046875 170.3123046875 204.05 170.35
L 201.85 170.35 201.85 170.95 200.05 170.95 200.05 171.55 198.85 171.55 198.85 172.05
Q 198.7076171875 172.1 198.55 172.15
L 196.95 172.15 196.95 172.7
Q 196.848828125 172.7625 196.75 172.8
L 195.15 172.8 195.15 173.4 193.9 173.4 193.9 173.9
Q 193.775390625 173.9498046875 193.65 174
L 192.1 174 192.1 174.6 190.9 174.6 190.9 175.15
Q 190.842578125 175.1748046875 190.75 175.2
L 189.6 175.2 189.6 175.7
Q 189.5125 175.7607421875 189.4 175.8
L 188.4 175.8 188.4 176.25
Q 188.153125 176.3875 187.9 176.5
L 187.2 176.5 187.2 176.8
Q 186.9744140625 176.94140625 186.75 177.05 186.6943359375 177.0748046875 186.65 177.1
L 185.95 177.1 185.95 177.45
Q 185.7376953125 177.570703125 185.55 177.7
L 184.15 177.7 184.15 178.75
Q 184.0640625 178.83984375 183.95 178.9
L 182.9 178.9 182.9 179.45
Q 182.8423828125 179.475 182.75 179.5
L 181.7 179.5 181.7 179.95
Q 181.5115234375 180.064453125 181.3 180.15
L 179.9 180.15 179.9 180.75 178.6 180.75 178.6 181.35 177.4 181.35 177.4 181.95 176.2 181.95 176.2 182.55 174.95 182.55 174.95 183.15 174.35 183.15 174.35 183.8 173.15 183.8 173.15 184.45 171.95 184.45 171.95 185.05 171.3 185.05 171.3 185.65 170.05 185.65 170.05 186.25 169.45 186.25 169.45 186.85 168.25 186.85 168.25 187.5 167 187.5 167 188.55
Q 166.9041015625 188.6373046875 166.8 188.7
L 165.2 188.7 165.2 189.3 164.6 189.3 164.6 189.9 163.95 189.9 163.95 190.5 162.75 190.5 162.75 191.15 162.15 191.15 162.15 191.75 160.95 191.75 160.95 192.35 160.25 192.35 160.25 192.95 159.65 192.95 159.65 193.55 159.05 193.55 159.05 194.15 158.45 194.15 158.45 194.75 157.25 194.75 157.25 195.95
Q 157.1904296875 195.9998046875 157.1 196.05
L 156.6 196.05 156.6 196.5
Q 156.5126953125 196.575 156.4 196.65
L 156 196.65 156 197
Q 155.8705078125 197.1373046875 155.75 197.25
L 154.8 197.25 154.8 197.85 154.2 197.85 154.2 198.45 153.6 198.45 153.6 199.1 153 199.1 153 199.7 152.35 199.7 152.35 200.3 151.75 200.3 151.75 200.9 151.15 200.9 151.15 201.5 150.5 201.5 150.5 202.1 149.9 202.1 149.9 202.75 149.3 202.75 149.3 203.45
Q 149.073046875 203.7333984375 148.85 204
L 148.65 204 148.65 204.25
Q 148.5 204.4181640625 148.35 204.6
L 148.05 204.6 148.05 204.95
Q 147.9623046875 205.088671875 147.85 205.2
L 147.45 205.2 147.45 205.75
Q 147.3998046875 205.8328125 147.35 205.9 147.1501953125 206.17265625 146.95 206.45
L 146.85 206.45 146.85 206.6
Q 146.6927734375 206.8224609375 146.5 207.05
L 146.25 207.05 146.25 207.45
Q 146.1873046875 207.556640625 146.1 207.65
L 145.65 207.65 145.65 208.4
Q 145.511328125 208.6263671875 145.35 208.85
L 145 208.85 145 209.45 144.4 209.45 144.4 210.45
Q 144.3373046875 210.5904296875 144.25 210.7
L 143.8 210.7 143.8 211.6
Q 143.724609375 211.7546875 143.65 211.9
L 143.2 211.9 143.2 212.5 142.6 212.5 142.6 213.8 142 213.8 142 215 141.3 215 141.3 216.8 140.7 216.8 140.7 218.65 140.1 218.65 140.1 220.15
Q 139.9412109375 220.5875 139.8 221.05
L 139.5 221.05 139.5 222.2
Q 139.4201171875 222.5400390625 139.35 222.9
L 138.9 222.9 138.9 227.25
Q 138.8125 229.3380859375 138.9 231.2
L 138.9 235.15 139.3 235.15
Q 139.3892578125 235.709765625 139.5 236.25
L 139.5 238.2 139.95 238.2
Q 140.0357421875 238.40703125 140.1 238.6
L 140.1 240 140.6 240
Q 140.6439453125 240.1384765625 140.7 240.25
L 140.7 241.25 141.1 241.25
Q 141.210546875 241.4359375 141.3 241.6
L 141.3 242.45 141.7 242.45
Q 141.8658203125 242.6876953125 142 242.9
L 142 243.7 142.45 243.7
Q 142.537109375 243.7984375 142.6 243.9
L 142.6 244.95 143.2 244.95 143.2 245.55 143.75 245.55
Q 144.35390625 246.3158203125 145 247
L 145 247.35 145.3 247.35
Q 146.8234375 248.95078125 148.65 250.25
L 148.65 250.4 148.85 250.4
Q 149.721875 251.010546875 150.65 251.55 151.1927734375 251.8736328125 151.75 252.15
L 151.75 252.3 151.95 252.3
Q 152.480078125 252.5837890625 153 252.85
L 153 252.9 153.1 252.9
Q 154.855078125 253.8130859375 156.75 254.6 157.820703125 255.072265625 159.05 255.3
L 159.05 255.35 159.3 255.35
Q 159.9154296875 255.4546875 160.55 255.5 161.4236328125 255.591015625 162.15 255.8
L 162.15 255.95 162.55 255.95
Q 163.2669921875 256.2134765625 163.8 256.6 164.0498046875 256.6322265625 164.3 256.65 165.34375 256.7892578125 166.4 256.95 166.415234375 256.9224609375 166.4 256.9
L 166.4 256.55 166.15 256.55
Q 166.0685546875 256.4505859375 166 256.35 169.65 257.3 174.6 257 176.1361328125 256.9095703125 177.4 257
L 177.4 257.15 178.6 257.15
Q 178.778515625 257.1666015625 178.95 257.2 179.2 257.25 179.55 257.25 185.9 256.6 192.4 256.7 193.7 256.75 194.1 255.95 194.2 255.75 194.85 255.75 197.2517578125 255.798046875 199.05 255.5 199.7173828125 255.1794921875 200.35 254.85 203.35390625 254.805078125 205.85 254.4 208.860546875 253.588671875 212 252.9
L 212.25 252.9 212.25 252.85
Q 213.5462890625 252.5634765625 214.85 252.3
L 215.9 252.3 215.9 252.1
Q 216.9955078125 251.89453125 218.1 251.7
L 218.4 251.7 218.4 251.65
Q 218.5248046875 251.621484375 218.65 251.6 220.45 251.3 222.45 250.95 230.25 249.5 237.2 247.35 239.030859375 246.8076171875 240.8 246.15
L 241 246.15 241 246.05
Q 241.7505859375 245.802734375 242.5 245.5 243.254296875 245.2072265625 244.05 244.95 246.784375 244.0537109375 250 243.55 252.0888671875 243.2099609375 253.7 242.65
L 254.3 241.9
Q 254.45 241.9 254.55 241.8 254.85 241.7 255.1 241.9 255.8 241.9 256 241.4 256 241.3 256.3 241.3 256.65 241.3 257.15 241.3 257.3123046875 241.2712890625 257.45 241.25 257.414453125 241.126171875 257.35 241 258.4712890625 240.8833984375 259.5 240.65 259.521875 240.569921875 259.5 240.45
L 260.5 240.45
Q 262.1478515625 240.0447265625 263.55 239.4
L 263.6 239.4 263.6 239.35
Q 263.828125 239.262890625 264.05 239.15 265.015234375 238.6673828125 265.55 238.75 265.65 238.6 265.8 238.45 265.95 238.45 266.05 238.4 266.1 238.3 266.15 238.25 266.4 238.15 266.65 238 266.8 238 267 237.95 267.7 237.65 268.45 237.45 268.7 237.3 269 237.3
L 270.45 236.15 272.15 236.15
Q 272.2095703125 236.269140625 272.25 236.35 275.19609375 235.5548828125 278.05 234.55 279.758984375 233.930859375 281.6 233.35
L 281.95 233.35 281.95 233.25
Q 282.7525390625 232.992578125 283.55 232.75
L 283.75 232.75 283.75 232.7
Q 284.6115234375 232.4443359375 285.5 232.2 285.7537109375 232.1275390625 286 232.05
L 286.25 232.05 286.25 231.95
Q 292.8568359375 230.0765625 299.15 227.9 300.2 227.5 301 227.25 308 224.85 314.4 222.2 321 219.45 327.9 217.3 328.45 217.1 328.8 216.8 330.05 215.65 332.1 215.35 332.5958984375 215.2736328125 333 215.15 333.1314453125 215.0974609375 333.25 215.05 333.95 214.65 334.7 214.4 336.1208984375 213.872265625 337.5 213.35 339.49921875 212.572265625 341.4 211.8 344.8 210.45 348.1 209.35 348.65 209.15 349.15 208.9 352.25 207.5 355.5 206.3 362.35 203.8 368.95 201.35 369.5 201.2 370.05 200.95 372.3275390625 199.981640625 374.7 199.1
L 374.85 199.1 374.85 199.05
Q 379.0556640625 197.5123046875 383.6 196.25 388.1708984375 195.012109375 392.6 193.55 395.1486328125 192.712890625 397.65 191.8 398 191.7 398.3 191.7 401.1 191.7 402.5 190.6 403.85 189.55 406.25 189.25 406.6 189.2 406.95 189.2 409.45 189 411.2 188.45 413.0150390625 187.844921875 414.7 187.5
L 415.2 187.5 415.2 187.35
Q 415.2955078125 187.341796875 415.4 187.3 416.2943359375 187.046484375 417.25 186.85
L 418.25 186.85 418.25 186.65
Q 420.118359375 186.3703125 422.3 186.25
L 423.75 186.25 423.75 186.15
Q 424.81171875 186.1375 425.95 186.05 429.123046875 185.7931640625 432.35 185.65 437.9197265625 185.405078125 443.65 185.5 443.8 185.5060546875 443.95 185.5
L 443.95 185.65 445.15 185.65 445.15 185.55
Q 445.65 185.55 446.15 185.55 446.2529296875 185.55 446.35 185.55
L 446.35 185.65 446.95 185.65 446.95 185.6
Q 448.187109375 185.7935546875 450 186
L 450 186.25 451.85 186.25
Q 452.6396484375 186.3447265625 453.5 186.45 453.60078125 186.4640625 453.7 186.45
L 453.7 186.85 455.4 186.85
Q 455.7896484375 186.9638671875 456.15 187.1
L 456.15 187.5 457.1 187.5
Q 457.1509765625 187.5248046875 457.2 187.55 457.27578125 187.590234375 457.35 187.6
L 457.35 188.1 458.65 188.1
Q 460.5896484375 188.507421875 461.45 186.45 460.85 184.65 458.95 184.25 458.799609375 184.21875 458.65 184.2
L 458.65 183.8 456.6 183.8
Q 455.465625 183.5919921875 454.3 183.4
L 454.3 183.15 452.05 183.15
Q 451.68125 183.1103515625 451.3 183.05
L 451.3 182.55 445.75 182.55
Q 445.348828125 182.5017578125 444.95 182.45 443.6166015625 182.2771484375 442.1 182.25
L 442.1 181.95 436.6 181.95 436.6 182.5
Q 436.45 182.5439453125 436.3 182.55
L 428 182.55 428 183.15 421.35 183.15 421.35 183.8 417.65 183.8 417.65 184.45 415.2 184.45 415.2 185
Q 415.134375 185.0375 415.05 185.05
L 412.15 185.05 412.15 185.65 409.7 185.65 409.7 186.25 406.65 186.25 406.65 186.85 404.2 186.85 404.2 187.5 402.4 187.5 402.4 188.1 400.5 188.1 400.5 188.65
Q 400.4501953125 188.6875 400.4 188.7
L 398.05 188.7 398.05 189.3 395.65 189.3 395.65 189.9 394.45 189.9 394.45 190.45
Q 394.3673828125 190.4751953125 394.25 190.5
L 391.35 190.5 391.35 191.15 390.1 191.15 390.1 191.75 387.7 191.75 387.7 192.35 387.1 192.35 387.1 192.95 384.05 192.95 384.05 193.55 382.15 193.55 382.15 194.15 380.35 194.15 380.35 194.75 377.9 194.75 377.9 195.45 376.7 195.45 376.7 196.05 374.85 196.05 374.85 196.65 373.05 196.65
M 192.7 175.2
L 192.7 175.8 191.5 175.8 191.5 175.2 192.7 175.2 Z"/>

<path fill="#000000" fill-opacity="0.5529411764705883" stroke="none" d="
M 280.7 204
L 280.7 203.35 280.1 203.35 280.1 204 280.7 204 Z"/>

<path fill="#000000" fill-opacity="0.5764705882352941" stroke="none" d="
M 281.95 200.9
L 281.35 200.9 281.35 202.1 281.35 202.75 281.95 202.75 281.95 202.8
Q 281.9724609375 202.8224609375 282 202.85 282.15 203 282.5 203 282.5 202.7 282.55 202.45 282.8828125 201.1666015625 281.95 201.2
L 281.95 200.9 Z"/>

<path fill="#000000" fill-opacity="0.6274509803921569" stroke="none" d="
M 282.55 198.45
L 281.35 198.45 281.35 200.3 281.95 200.3 281.95 199.9
Q 283.8431640625 199.4404296875 282.55 198.9
L 282.55 198.45 Z"/>

<path fill="#000000" fill-opacity="0.40784313725490196" stroke="none" d="
M 281.9 197.25
L 281.95 197.3 281.95 196.65 281.35 196.65 281.35 197.25 281.9 197.25 Z"/>

<path fill="#000000" fill-opacity="0.5607843137254902" stroke="none" d="
M 281.95 194.15
L 281.35 194.15 281.35 195.45 281.95 195.45 281.95 194.15 Z"/>

<path fill="#000000" fill-opacity="0.4" stroke="none" d="
M 281.95 193.55
L 281.95 192.35 281.35 192.35 281.35 193.55 281.95 193.55 Z"/>

<path fill="#000000" fill-opacity="0.7803921568627451" stroke="none" d="
M 281.95 192.35
L 281.95 193.55 281.95 194.15 281.95 195.45 281.95 196.65 281.95 197.3 281.95 197.85 282.55 197.85 282.55 197.6
Q 283.0591796875 198.807421875 283.25 196.9 283.5427734375 194.021484375 282.55 192.65
L 282.55 192.35 281.95 192.35 Z"/>

<path fill="#000000" fill-opacity="0.8431372549019608" stroke="none" d="
M 281.35 188.1
L 281.35 188
Q 282.5498046875 187.9892578125 281.35 187.7
L 281.35 187.5 280.7 187.5 280.7 188.1 281.35 188.1 Z"/>

<path fill="#000000" fill-opacity="0.9647058823529412" stroke="none" d="
M 281.25 186.75
L 281.25 186.45
Q 280.975 186.45 280.7 186.45
L 280.7 186.25 280.1 186.25 280.1 186.85 280.7 186.85 280.7 186.5
Q 280.975 186.75 281.25 186.75 Z"/>

<path fill="#000000" fill-opacity="0.5019607843137255" stroke="none" d="
M 281.25 186.45
Q 281.25 186.15 281.1 186 280.962890625 185.862890625 280.7 185.85
L 280.7 185.65 280.1 185.65 280.1 186.25 280.7 186.25 280.7 186.45
Q 280.975 186.45 281.25 186.45 Z"/>

<path fill="#000000" fill-opacity="0.5215686274509804" stroke="none" d="
M 272 175.2
Q 272 175.1 271.95 175.05 271.757421875 174.9537109375 271.55 174.9
L 271.55 174.6 270.35 174.6 270.35 175.2 272 175.2 Z"/>

<path fill="#000000" stroke="none" d="
M 278.3 182.6
L 278.3 183.15 279.4 183.15
Q 279.4 182.975 279.4 182.8 279.15 182.8 278.9 182.8
L 278.9 182.55 278.3 182.55 278.3 182.6
M 241.6 164.9
L 241.6 165.5 244.05 165.5 244.05 165.25
Q 244.299609375 165.223828125 244.05 165.15
L 244.05 164.9 241.6 164.9 Z"/>

<path fill="#000000" fill-opacity="0.6509803921568628" stroke="none" d="
M 278.3 183.15
L 278.3 183.8 278.9 183.8 278.9 185.05 280.1 185.05 280.1 184.6
Q 280.1740234375 184.5251953125 280.25 184.4 280.35 184.3 280.05 184 279.757421875 183.74921875 279.5 183.5
L 279.5 183.15 279.4 183.15 278.3 183.15 Z"/>

<path fill="#000000" fill-opacity="0.6431372549019608" stroke="none" d="
M 277.7 180.75
L 277.45 180.75
Q 277.26875 180.584375 277.05 180.4
L 277.05 180.15 276.95 180.15 275.8 180.15 275.8 180.75 276.4 180.75 276.4 181.35 277.05 181.35 277.05 181.95 277.65 181.95 277.7 181.95 277.7 182.55 278.25 182.55
Q 278.2751953125 182.5751953125 278.3 182.6
L 278.3 182.55 278.9 182.55 278.9 182.8
Q 279.15 182.8 279.4 182.8 279.4 182.5 279.25 182.35 279.078125 182.169921875 278.9 182
L 278.9 181.95 278.85 181.95
Q 278.5814453125 181.6908203125 278.3 181.45
L 278.3 181.35 278.2 181.35
Q 277.95546875 181.133203125 277.7 180.9
L 277.7 180.75 Z"/>

<path fill="#000000" fill-opacity="0.47058823529411764" stroke="none" d="
M 276.4 179.1
L 276.4 178.9 275.85 178.9 275.8 178.9 275.8 179.5 276.4 179.5 276.4 179.4
Q 276.4365234375 179.4865234375 276.5 179.55 276.65 179.7 276.95 179.7 276.95 179.4 276.8 179.25 276.662890625 179.112890625 276.4 179.1 Z"/>

<path fill="#000000" fill-opacity="0.8666666666666667" stroke="none" d="
M 274.55 178.9
L 274.6 178.9 274.6 179.5 275.2 179.5 275.2 180.15 275.8 180.15 276.95 180.15
Q 276.95 179.9365234375 276.95 179.7 276.65 179.7 276.5 179.55 276.4365234375 179.4865234375 276.4 179.4
L 276.4 179.5 275.8 179.5 275.8 178.9 275.85 178.9
Q 274.5263671875 177.165234375 272.75 175.9
L 272.75 175.8 272.55 175.8
Q 272.3638671875 175.6591796875 272.15 175.5
L 272.15 175.2 272 175.2 270.35 175.2 270.35 175.8 270.95 175.8 270.95 176.5 271.55 176.5 271.55 177.1 272.65 177.1
Q 272.709765625 177.1375 272.75 177.15
L 272.75 177.7 273.3 177.7 273.35 177.7 273.35 178.3 273.95 178.3
Q 273.9740234375 178.3251953125 274 178.35
L 274 178.9 274.55 178.9 Z"/>

<path fill="#000000" fill-opacity="0.5568627450980392" stroke="none" d="
M 269.6 174
Q 269.6 174.1 269.6 174.2
L 269.9 174.2
Q 269.9 173.955078125 269.7 173.7
L 269.7 173.4 269.1 173.4 269.1 174 269.6 174 Z"/>

<path fill="#000000" fill-opacity="0.5843137254901961" stroke="none" d="
M 259.95 169.15
L 259.95 169.3 259.95 169.75 260.55 169.75 260.55 169.15 259.95 169.15
M 261.05 169.9
Q 261.05 169.81953125 261 169.75
L 260.55 169.75
Q 260.7 169.9 261.05 169.9 Z"/>

<path fill="#000000" fill-opacity="0.5686274509803921" stroke="none" d="
M 258.1 168.55
L 258.1 169.15 258.6 169.15
Q 258.8736328125 169.603125 259.85 169.35 259.8990234375 169.340234375 259.95 169.3
L 259.95 169.15 259.95 168.55 260.4 168.55
Q 260.359765625 168.359765625 260.25 168.25 260.140234375 168.140234375 259.95 168.1
L 259.95 167.9 259.35 167.9 259.35 168.55 258.1 168.55 Z"/>

<path fill="#000000" fill-opacity="0.8862745098039215" stroke="none" d="
M 258.1 167.5
L 258.1 167.3 257.95 167.3 256.25 167.3 256.25 167.9 256.75 167.9
Q 256.75 167.9978515625 256.75 168.1 257.1873046875 167.9654296875 257.5 167.95
L 257.5 168.55 258.1 168.55 259.35 168.55 259.35 167.9 258.95 167.9
Q 258.512109375 167.723828125 258.1 167.5 Z"/>

<path fill="#000000" fill-opacity="0.5372549019607843" stroke="none" d="
M 252 166.1
L 252 165.95
Q 252.799609375 165.903125 252 165.75
L 252 165.5 250.75 165.5 250.75 166.1 252 166.1 Z"/>

<path fill="#000000" fill-opacity="0.5647058823529412" stroke="none" d="
M 252 166.1
L 252 166.7 253.2 166.7 253.2 166.55
Q 254.0498046875 166.5001953125 253.2 166.35
L 253.2 166.1 252 166.1 Z"/>

<path fill="#000000" fill-opacity="0.9294117647058824" stroke="none" d="
M 265.4 171.55
L 265.4 170.95 265.25 170.95
Q 265.015625 170.8318359375 264.8 170.65
L 264.8 170.35 264.7 170.35 263.6 170.35 263.6 170.95 264.1 170.95
Q 264.1 171.05 264.1 171.15 264.149609375 171.20078125 264.2 171.25
L 264.2 171.55 264.5 171.55
Q 264.655078125 171.6783203125 264.8 171.8
L 264.8 172.15 265.2 172.15
Q 265.315234375 172.2134765625 265.4 172.25
L 265.4 172.8 266 172.8 266 173.4 267.25 173.4
Q 267.5646484375 173.5578125 267.9 173.7
L 267.9 174 268.7 174
Q 268.848828125 174.0513671875 269 174.1 269.3 174.2 269.6 174.2 269.6 174.1 269.6 174
L 269.1 174 269.1 173.4 269 173.4
Q 268.7498046875 173.256640625 268.5 173.1
L 268.5 172.8 268 172.8
Q 267.64921875 172.56953125 267.3 172.3
L 267.3 172.15 267.05 172.15
Q 266.805078125 171.951953125 266.55 171.75 266.25 171.75 266.1 171.6 266.0365234375 171.5365234375 266 171.45
L 266 171.55 265.4 171.55 Z"/>

<path fill="#000000" fill-opacity="0.5058823529411764" stroke="none" d="
M 265.4 170.95
L 265.4 171.55 266 171.55 266 171.45
Q 266.0365234375 171.5365234375 266.1 171.6 266.25 171.75 266.55 171.75 266.55 171.45 266.4 171.3 266.262890625 171.162890625 266 171.15
L 266 170.95 265.4 170.95 Z"/>

<path fill="#000000" fill-opacity="0.596078431372549" stroke="none" d="
M 264.2 170.05
L 264.2 169.75 262.85 169.75 261.15 169.75 261.15 169.9 261.15 170.35 262.3 170.35
Q 262.6576171875 170.5509765625 263 170.7
L 263 170.95 263.45 170.95
Q 263.4958984375 170.9755859375 263.55 171 263.8 171.15 264.1 171.15 264.1 171.05 264.1 170.95
L 263.6 170.95 263.6 170.35 264.7 170.35
Q 264.6654296875 170.2 264.6 170.2 264.4044921875 170.1267578125 264.2 170.05 Z"/>

<path fill="#000000" fill-opacity="0.6470588235294118" stroke="none" d="
M 250.15 164.9
L 248.5 164.9
Q 248.1541015625 164.868359375 247.7 164.9
L 246.45 164.9 246.45 165.4 246.45 166.1 246.95 166.1
Q 246.95 166.175 246.95 166.25 248.1109375 166.25 249.25 166.1
L 250.15 166.1 250.15 165.95
Q 250.28203125 165.9140625 250.25 165.85 250.203515625 165.7693359375 250.15 165.7
L 250.15 164.9 Z"/>

<path fill="#000000" fill-opacity="0.5450980392156862" stroke="none" d="
M 239.8 164.2
L 239.8 165.5 240.85 165.5
Q 241.1552734375 165.790234375 241.6 165.95
L 241.6 166.1 242.15 166.1
Q 242.4005859375 166.1375 242.65 166.15 244.8 166.25 246.95 166.25 246.95 166.175 246.95 166.1
L 246.45 166.1 246.45 165.4
Q 246.144140625 165.32421875 245.85 165.3
L 245.85 164.9 245.25 164.9 245.25 165.15
Q 245.059765625 165 244.95 165 244.800390625 164.9609375 244.65 164.9
L 244.65 164.2 239.8 164.2
M 241.6 165.5
L 241.6 164.9 244.05 164.9 244.05 165.15
Q 244.299609375 165.223828125 244.05 165.25
L 244.05 165.5 241.6 165.5 Z"/>

<path fill="#000000" fill-opacity="0.10196078431372549" stroke="none" d="
M 192.7 175.8
L 192.7 175.2 191.5 175.2 191.5 175.8 192.7 175.8 Z"/>
</g>

<g id="Layer7_0_FILL">
<path fill="#000000" fill-opacity="0.8509803921568627" stroke="none" d="
M 220.75 271.5
Q 220.5380859375 271.6365234375 220.3 271.75 220.835546875 271.616015625 221.3 271.45 221.4828125 271.394921875 221.6 271.35 221.1861328125 271.4296875 220.75 271.5
M 147.45 296.9
L 145.65 296.9 145.65 297.5 143.2 297.5 143.2 298.1 140.7 298.1 140.7 298.7 138.9 298.7 138.9 299.3 136.45 299.3 136.45 299.9 134.65 299.9 134.65 300.6 133.4 300.6 133.4 301.2 131 301.2 131 301.8 128.5 301.8 128.5 302.4 126.7 302.4 126.7 303 124.85 303 124.85 303.6 122.35 303.6 122.35 304.2 121.15 304.2 121.15 304.85 119.35 304.85 119.35 305.45 117.5 305.45 117.5 306.05 115.7 306.05 115.7 306.65 114.45 306.65 114.45 307.25 113.25 307.25 113.25 307.85 111.35 307.85 111.35 308.5 108.95 308.5 108.95 309.1 107.75 309.1 107.75 309.7 106.5 309.7 106.5 310.3 104.7 310.3 104.7 310.95 103.45 310.95 103.45 311.55 101.6 311.55 101.6 312.2 101 312.2 101 312.8 99.15 312.8 99.15 313.4 97.95 313.4 97.95 314 96.1 314 96.1 314.6 94.9 314.6 94.9 315.2 93.7 315.2 93.7 315.85 92.4 315.85 92.4 316.45 91.2 316.45 91.2 317.05 90 317.05 90 317.65 88.75 317.65 88.75 318.25 87.55 318.25 87.55 318.85 86.35 318.85 86.35 319.55 85.15 319.55 85.15 320.15 83.9 320.15 83.9 320.75 82.65 320.75 82.65 321.35 81.45 321.35 81.45 321.95 80.2 321.95 80.2 322.55 79 322.55 79 323.2 77.8 323.2 77.8 323.8 76.55 323.8 76.55 324.4 75.35 324.4 75.35 325 74.15 325 74.15 325.6 72.85 325.6 72.85 326.2 71.65 326.2 71.65 326.8 70.45 326.8 70.45 327.45 69.2 327.45 69.2 328.05 68 328.05 68 328.65 67.4 328.65 67.4 329.25 65.55 329.25 65.55 329.85 64.35 329.85 64.35 330.5 63.1 330.5 63.1 331.15 61.85 331.15 61.85 331.75 60.65 331.75 60.65 332.35 59.45 332.35 59.45 332.95 58.2 332.95 58.2 333.55 57.6 333.55 57.6 334.15
Q 57.575 334.1880859375 57.55 334.2 57.15 335.8 58.75 335.4 60 335.1 60.8 334.5 61.2 334.2 61.7 333.95 64.6205078125 332.555859375 67.5 331.15
L 68 331.15 68 330.9
Q 76.95703125 326.5900390625 85.8 322.15 88.0712890625 320.990234375 89.85 319.55
L 90 319.55 90 319.45
Q 90.35 319.15 90.7 319.05 93.75 318.25 96.1 316.95 99.05 315.35 102.35 314.15 102.9 313.95 103.4 313.7 104.9 312.9 106.65 312.4 107.75 312.1 108.55 311.8 111.95 310.45 115.15 309.05 121.55 306.3 128.55 303.95 128.95 303.85 129.25 303.85 129.55 303.85 129.85 303.85 131.9 303.75 133.6 303.15 134.15 302.9 134.55 302.6 135.9 301.6 137.85 301.35 142.25 300.9 145.3 299.5 145.8 299.25 146.25 298.95 146.4517578125 298.8193359375 146.65 298.7
L 146.85 298.7 146.85 298.6
Q 149.462109375 297.1892578125 153.75 297.1 154.05 297.1 154.4 297.1 157.3 297.25 158.75 296.3 160.3 295.35 162.2 294.65 163 294.35 164.05 294.7 164.85 294.9 165.95 294.65 167.7 294.2 169.25 293.5 171.1 292.65 173.35 292.3 175.5 291.9 177.7 291.4 178.3 291.25 178.7 291 180.15 290.1 182 289.75 185.605078125 289.090625 188.4 287.7 188.7818359375 287.5052734375 189.15 287.3 189.3513671875 287.1970703125 189.55 287.1
L 189.6 287.1 189.6 287.05
Q 191.6041015625 286.1580078125 194.2 285.8 194.85 285.75 195.05 285.45 195.65 284.7 196.65 284.7 198.7 284.75 199.75 284 200.65 283.3 201.65 282.95 205.2 281.75 208.25 280.1 208.6 279.95 208.95 279.9 211.4 279.65 212.8 278.7 213.2 278.4 213.55 278.1 214.041796875 277.678515625 214.6 277.3
L 214.7 277.3 214.7 277.2
Q 216.8498046875 275.7681640625 219.85 274.95 219.97109375 274.926953125 220.1 274.9
L 220.2 274.9 220.2 274.85
Q 221.0595703125 274.666015625 221.85 274.25 225.05 272.75 228 271.25 230.35 270.1 232.2 268.55 232.55 268.3 232.9 268.2 236.75 267.3 238.45 264.35 238.65 264 239 263.95 240.65 263.85 241.15 262.95
L 241.4 262.45
Q 243.05 262.6 243.15 261.85 243.25 261.25 243.55 260.95 243.85 260.65 244.35 260.4 245.065625 260.0140625 245.75 259.6
L 245.85 259.6 245.85 259.55
Q 250.08984375 257.1068359375 253.75 254 256.4 251.7 258.35 248.85 258.82890625 248.166015625 259.45 247.65
L 259.45 247.65
Q 259.295703125 246.1373046875 258.95 244.65 258.55390625 243.5767578125 258.1 242.55
L 258.1 242.45 258.05 242.45
Q 257.7705078125 241.837109375 257.45 241.25 257.414453125 241.126171875 257.35 241 257.652734375 240.9685546875 257.95 240.9 257.8978515625 240.726953125 257.85 240.5
L 256.9 239.55
Q 256.3119140625 239.169921875 255.7 238.8
L 255.65 238.8 255.65 239.4 252.6 239.4 252.6 238.8 248.35 238.8 248.35 238.2 245.35 238.2
Q 245.3166015625 238.175390625 245.25 238.15 245.0779296875 238.092578125 244.65 238.1
L 244.65 237.6 244.05 237.6 244.05 238.1
Q 243.746484375 238.1546875 243.35 238.2
L 236.1 238.2 236.1 238.8 232.45 238.8 232.45 239.4 228.8 239.4 228.8 240 227 240 227 240.65 227.5 240.65 227.5 241.25 228.1 241.25 228.1 241.1
Q 228.325 241.3 228.55 241.3 228.85 241.3 229.2 241.15 231.8 240 235.9 240.1 236.5 240.1 237.15 240.05 239.25 239.8 241.35 239.4
L 242.2 239.4 242.2 239.3
Q 242.7888671875 239.2787109375 243.4 239.35
L 243.4 239.4 243.65 239.4
Q 244.6376953125 239.55390625 245.65 239.95 246 240.1 246.3 240.1 247.4662109375 240.040625 248.35 240.15 249.2943359375 240.2962890625 249.95 240.6 250.0064453125 240.6283203125 250.05 240.65
L 249.55 240.65 249.55 241.25 247.75 241.25 247.75 241.5
Q 251.4947265625 241.79453125 255.05 242.35
L 255.1 243.05 255.7 243.05
Q 255.969921875 243.319921875 256.25 243.6
L 256.25 244.35 256.85 244.35 256.85 245.55 256.25 245.55 256.25 247.35 255.65 247.35 255.65 248 255.05 248 255.05 249.2 254.4 249.2 254.4 249.8 253.8 249.8 253.8 250.4 253.2 250.4 253.2 251 252.6 251 252.6 251.7 252 251.7 252 252.3 251.4 252.3 251.4 252.9 250.15 252.9 250.15 253.5 249.55 253.5 249.55 254.1 248.95 254.1 248.95 254.7 247.75 254.7 247.75 255.35 247.05 255.35 247.05 255.95 246.45 255.95 246.45 256.55 245.85 256.55 245.85 257.15 244.65 257.15 244.65 257.75 243.4 257.75 243.4 258.35 242.2 258.35 242.2 259.6 241 259.6 241 259 240.4 259 240.4 259.6 239.8 259.6 239.8 260.2 239.15 260.2 239.15 260.7
Q 239.1005859375 260.7615234375 239.05 260.8
L 237.95 260.8 237.95 261.4 236.7 261.4 236.7 262 236.1 262 235.9 262.45 234.95 262.9 234.85 263.1 234.85 263.3 234.75 263.3 234.5 263.85 233.05 264.4 233.05 264.5 232.8 264.5 232.15 264.75 231.7 265.7 222.35 270.35 221.85 271.25
Q 222.5435546875 270.99140625 223.15 270.7 224.2513671875 270.1611328125 225.1 270.05
L 225.1 270.6 223.85 270.6 223.85 271.25 222.05 271.25 222.05 271.85 221.45 271.85 221.45 272.45 219.6 272.45 219.6 273.05 219 273.05 219 273.65 217.8 273.65 217.8 274.3 215.3 274.3 215.3 274.9 214.7 274.9 214.7 275.45 214.65 275.5 213.5 275.5 213.5 276.1 212.25 276.1 212.25 276.7 211.05 276.7 211.05 277.3 208.55 277.3 208.55 277.95 207.95 277.95 207.95 278.55 206.15 278.55 206.15 279.15 205.5 279.15 205.5 279.75 203.1 279.75 203.1 280.35 201.25 280.35 201.25 280.95 200.65 280.95 200.65 281.65 199.45 281.65 199.45 282.85 197.55 282.85 197.55 282.25 196.95 282.25 196.95 282.85 195.15 282.85 195.15 283.45 193.3 283.45 193.3 284.05 191.5 284.05 191.5 284.65 189.6 284.65 189.6 285.25 188.4 285.25 188.4 285.9 187.8 285.9 187.8 286.5 187.2 286.5 187.2 285.9 186.55 285.9 186.55 286.5 184.75 286.5 184.75 287.1 183.55 287.1 183.55 287.7 180.5 287.7 180.5 288.3 178.6 288.3 178.6 288.9 176.8 288.9 176.8 289.55 175.6 289.55 175.6 290.15 173.75 290.15 173.75 290.8 173.15 290.8 173.15 290.15 172.55 290.15 172.55 290.8 170.05 290.8 170.05 291.4 168.25 291.4 168.25 292 166.4 292 166.4 292.6 163.35 292.6 163.35 293.25 160.25 293.25 160.25 293.85 159.05 293.85 159.05 294.45 156 294.45 156 295.05 153 295.05 153 295.65 150.5 295.65 150.5 296.25 147.45 296.25 147.45 296.9
M 229.4 240.1
L 229.4 240 230.2 240
Q 230.013671875 240.0251953125 229.8 240.05 229.6 240.078515625 229.4 240.1
M 226.3 268.75
L 226.9 268.75 226.9 269.35 226.3 269.35 226.3 268.75 Z"/>

<path fill="#000000" fill-opacity="0.0784313725490196" stroke="none" d="
M 226.9 268.75
L 226.3 268.75 226.3 269.35 226.9 269.35 226.9 268.75 Z"/>
</g>

<g id="Layer5_0_FILL">
<path fill="#000000" fill-opacity="0.8509803921568627" stroke="none" d="
M 223.85 270.6
L 223.85 270.65
Q 223.9279296875 270.6359375 224 270.6
L 223.85 270.6
M 199.1 255.95
L 199.1 256 198.85 256.05 198.85 257.15 198.25 257.15 198.25 257.75 198.8 257.75
Q 198.2462890625 258.203125 199.85 257.75
L 200.05 257.75 200.05 257.7
Q 200.1234375 257.6728515625 200.2 257.65 200.35 257.55 200.6 257.15 201.165625 256.207421875 202.1 255.65 202.9720703125 254.053515625 204.95 252.75 205.6 252.35 205.95 252.05
L 209 250.4
Q 209.2337890625 250.3541015625 209.45 250.3 210.2064453125 249.5685546875 212 249.6 212.3 249.3 212.6 249
L 212.9 248.7
Q 212.6953125 248.640234375 212.5 248.6
L 212.85 248.6 212.85 248 208.55 248 208.55 248.6 207.95 248.6 207.95 249.2 207.35 249.2 207.35 249.8 206.15 249.8 206.15 250.4 204.9 250.4 204.9 251 203.7 251 203.7 251.7 203.1 251.7 203.1 252.3 202.2 252.3
Q 201.0361328125 253.27421875 200.05 254.45 199.7 254.9 199.45 255 199.2 255.272265625 198.95 255.55 198.996484375 255.533203125 199.05 255.5 199.12734375 255.51171875 199.2 255.5 199.3326171875 255.476171875 199.45 255.45
L 199.45 255.95 199.1 255.95
M 196.95 259.6
L 196.35 259.6 196.35 260.2 195.75 260.2 195.75 262.6 195.15 262.6 195.15 267.5
Q 195.1376953125 267.5265625 195.1 267.55
L 194.9 267.55
Q 195.1046875 268.764453125 195.55 269.85 196.1181640625 270.08828125 196.25 270.55 196.2978515625 270.6904296875 196.35 270.8
L 196.35 271.45
Q 196.4705078125 271.65625 196.6 271.85
L 196.85 271.85
Q 197.4955078125 272.916796875 198.5 273.5 201.4 274.25 202.9 273.95 203.4 273.8 204.05 273.95 205.2166015625 274.120703125 206.25 274.15 208.9181640625 274.3224609375 210.85 273.75 212.6 273.2 214.45 272.85 215.65 272.6 216.95 272.45 218.957421875 272.1712890625 220.65 271.65 220.7849609375 271.5994140625 220.95 271.55 221.1267578125 271.417578125 221.45 271.4 221.5322265625 271.37578125 221.6 271.35
L 221.8 271.2
Q 221.925 271.19375 222.05 271.15 222.6224609375 270.953515625 223.15 270.7 224.2513671875 270.1611328125 225.1 270.05 225.83828125 269.72265625 226.6 269.35
L 226.3 269.35 226.3 268.75 226.9 268.75 226.9 269.2
Q 229.09296875 268.13359375 231.5 266.9 235.7 264.85 239 261.9 240.34375 260.7201171875 241 259.4
L 241 259 240.4 259 240.4 259.6 239.8 259.6 239.8 260.2 239.15 260.2 239.15 260.7
Q 239.1005859375 260.7615234375 239.05 260.8
L 237.95 260.8 237.95 261.4 236.7 261.4 236.7 262 235.45 262 235.45 262.6 234.85 262.6 234.85 263.3 233.65 263.3 233.65 263.9 233.05 263.9 233.05 264.5 230.6 264.5 230.6 265.1 229.4 265.1 229.4 265.7 228.8 265.7 228.8 266.3 226.9 266.3 226.9 266.95 225.7 266.95 225.7 267.55 223.25 267.55 223.25 268.15 222.05 268.15 222.05 268.75 219.6 268.75 219.6 269.35 217.15 269.35 217.15 269.95 215.3 269.95 215.3 270.6 212.85 270.6 212.85 271.25 207.95 271.25 207.95 271.85 202.5 271.85 202.5 271.25 199.65 271.25
Q 199.5669921875 271.213671875 199.45 271.15
L 199.45 270.6 198.8 270.6
Q 198.6736328125 270.2435546875 198.9 270.05 198.6353515625 269.95 198.35 269.95
L 197.75 269.15 197.45 268.05 197.15 267.8
Q 197.10546875 267.675 197.05 267.55
L 196.95 267.55
Q 195.964453125 266.414453125 196.65 263.7 197.284375 261.7970703125 198.1 260.2
L 198.25 260.2 198.25 259.95
Q 198.348046875 259.77890625 198.45 259.6
L 198.85 259.6 198.85 258.35 197.55 258.35 197.55 259 196.95 259 196.95 259.6 Z"/>

<path fill="#000000" fill-opacity="0.0784313725490196" stroke="none" d="
M 226.9 268.75
L 226.3 268.75 226.3 269.35 226.6 269.35
Q 226.749609375 269.27734375 226.9 269.2
L 226.9 268.75 Z"/>

<path fill="#000000" fill-opacity="0.6313725490196078" stroke="none" d="
M 225.1 241.25
L 223.25 241.25 223.25 241.85 223.85 241.85 223.85 242.45 224.15 242.45
Q 224.25 242.5962890625 224.25 242.85 224.55 242.85 224.75 242.7 226.78359375 241.3927734375 226.05 241.25
L 226.3 241.25 226.3 240.65 225.1 240.65 225.1 241.25 Z"/>

<path fill="#000000" fill-opacity="0.5411764705882353" stroke="none" d="
M 222.65 242.45
L 222.65 241.85 221.45 241.85 221.45 243.05 221.85 243.05
Q 222.051171875 243.9357421875 222.65 243 222.7 242.85 223.05 242.85 223.05 242.65 223.05 242.45
L 222.65 242.45
M 216.5 244.35
L 215.3 244.35 215.3 244.95 214.1 244.95 214.1 245.55 213.5 245.55 213.5 246.15 214.25 246.15
Q 215.0876953125 246.4232421875 216.75 245.65 216.9 245.6 216.9 245.3 216.9 245.125 216.9 244.95
L 216.5 244.95 216.5 244.35 Z"/>

<path fill="#000000" stroke="none" d="
M 222.65 241.85
L 222.65 242.45 223.05 242.45
Q 223.05 242.65 223.05 242.85 223.35 242.85 223.65 242.85 223.95 242.85 224.25 242.85 224.25 242.5962890625 224.15 242.45
L 223.85 242.45 223.85 241.85 223.25 241.85 222.65 241.85 Z"/>

<path fill="#000000" fill-opacity="0.7647058823529411" stroke="none" d="
M 219.6 243.6
L 219.6 243.05 218.4 243.05 218.4 243.7 218.4 244.35 218.75 244.35
Q 218.75 244.525 218.75 244.7 219.05 244.7 219.3 244.55 220.5435546875 243.8716796875 219.6 243.6 Z"/>

<path fill="#000000" fill-opacity="0.9921568627450981" stroke="none" d="
M 216.5 244.95
L 216.9 244.95
Q 216.9 245.125 216.9 245.3 217.2 245.3 217.5 245.3 217.8 245.3 218.1 245.3 218.1 245 218 244.95
L 217.8 244.95 217.8 244.35 216.5 244.35 216.5 244.95 Z"/>

<path fill="#000000" fill-opacity="0.6274509803921569" stroke="none" d="
M 216.5 243.7
L 216.5 244.35 217.8 244.35 217.8 244.95 218 244.95
Q 218.1 245 218.1 245.3 218.45 245.3 218.6 245.15 218.75 245 218.75 244.7 218.75 244.525 218.75 244.35
L 218.4 244.35 218.4 243.7 216.5 243.7 Z"/>

<path fill="#000000" fill-opacity="0.4980392156862745" stroke="none" d="
M 212.6 246.75
L 212.6 246.85
Q 214.3431640625 246.85 213.5 246.65
L 213.5 246.15 212.25 246.15 212.25 246.75 212.6 246.75 Z"/>
</g>

<g id="Layer3_0_FILL">
<path fill="#000000" fill-opacity="0.6235294117647059" stroke="none" d="
M 214.1 206.45
L 214.1 205.2 212.85 205.2 212.85 205.8 212.25 205.8 212.25 206.45 212.75 206.45
Q 213.158984375 206.6771484375 213.45 206.45
L 214.1 206.45 Z"/>

<path fill="#000000" fill-opacity="0.8509803921568627" stroke="none" d="
M 262.4 242.45
L 262.4 243.05 261.75 243.05 261.75 244.35 261.15 244.35 261.15 244.95 259.95 244.95 259.95 245.55 259.55 245.55 259.35 246.15 258.95 246.55 258.95 248.1
Q 259.1873046875 247.8826171875 259.45 247.65
L 259.45 247.65
Q 260.1978515625 247.068359375 261.1 246.75 261.65 246.55 261.9 246.25 262.42265625 245.593359375 262.95 244.95
L 263 244.95 263 244.9
Q 263.5068359375 244.29140625 264 243.7
L 264.2 243.7 264.2 243.5
Q 266.3486328125 241.0337890625 268.65 238.75
L 268.75 238.65 268.85 238.6
Q 269.101171875 238.3603515625 269.35 238.1
L 269.6 237.6 270.05 237.4 270.5 236.75 270.5 236.1 271.1 233.95
Q 271.2556640625 233.95 271.35 233.85 271.34921875 233.736328125 271.35 233.55 271.3306640625 233.0966796875 271.45 232.45 271.15859375 232.595703125 270.95 232.8
L 270.95 232.05 270.35 232.05 270.35 232.75 269.7 232.75 269.7 233.35 269.35 233.35
Q 269.230078125 233.6408203125 269.1 233.9
L 269.1 234.55 268.8 234.55
Q 268.660546875 234.8130859375 268.5 235.05
L 268.5 235.15 268.45 235.15
Q 268.02890625 235.873046875 267.5 236.55
L 267.05 236.75 265.35 238.45
Q 265.35 238.6130859375 265.3 238.75 265.4474609375 238.7341796875 265.55 238.75 265.6591796875 238.761328125 265.75 238.8
L 265.4 238.8 265.4 240.65 265.45 240.65
Q 265.437890625 240.7048828125 265.4 240.75
L 265.4 240.65 264.8 240.65 264.8 241.25 264.2 241.25 264.2 241.85 263.6 241.85 263.6 242.45 262.4 242.45
M 263 243.7
L 263 243.7 263 243.7 263 243.7
M 259.95 246.15
L 260.05 246.15
Q 260.001171875 246.1666015625 259.95 246.15
L 259.95 246.15 Z"/>

<path fill="#000000" fill-opacity="0.49019607843137253" stroke="none" d="
M 215.3 205.8
L 215.3 205.2 214.7 205.2 214.7 205.8 215.3 205.8
M 270.95 231.2
L 270.95 230.85 270.35 230.85 270.35 231.45 270.95 231.45 270.95 231.3
Q 271.2 231.5 271.45 231.5
L 271.45 231.2
Q 271.2 231.2 270.95 231.2
M 253.2 206.45
L 253.2 206.6 253.2 207.05 254.1 207.05
Q 254.229296875 207.1310546875 254.35 207.2 254.6 207.3 254.9 207.3 254.9 207.1388671875 254.85 207.05
L 254.4 207.05 254.4 206.45 253.2 206.45 Z"/>

<path fill="#000000" fill-opacity="0.8196078431372549" stroke="none" d="
M 216.9 205.45
Q 216.7 205.45 216.5 205.45
L 216.5 205.2 215.9 205.2 215.3 205.2 215.3 205.8 214.7 205.8 214.7 207.05 215.3 207.05 215.3 206.9
Q 215.709765625 207.32578125 216.75 205.95 216.9 205.75 216.9 205.45 Z"/>

<path fill="#000000" fill-opacity="0.5333333333333333" stroke="none" d="
M 216.5 205.45
Q 216.7 205.45 216.9 205.45 217.01796875 205.550390625 217.15 205.6
L 217.15 205.8 217.5 205.8
Q 218.4291015625 206.1677734375 219.9 205.8 219.95 205.75 219.95 205.45 219.765625 205.45 219.6 205.5
L 219.6 205.2 217.8 205.2 217.8 204.6 215.9 204.6 215.9 205.2 216.5 205.2 216.5 205.45 Z"/>

<path fill="#000000" fill-opacity="0.8745098039215686" stroke="none" d="
M 223.65 205.45
Q 223.95 205.45 224.25 205.45
L 224.25 205.2 223.85 205.2 223.85 204.6 222.65 204.6 222.65 204 219.6 204 219.6 204.55
Q 219.4869140625 204.580859375 219.35 204.6
L 217.8 204.6 217.8 205.2 219.6 205.2 219.6 205.5
Q 219.765625 205.45 219.95 205.45 221.8 205.45 223.65 205.45 Z"/>

<path fill="#000000" stroke="none" d="
M 226.9 204
L 225.7 204 225.7 204.6 226.1 204.6
Q 226.1 204.725 226.1 204.85 226.4 204.85 226.7 204.85 227 204.85 227.3 204.85 227.3 204.6888671875 227.25 204.6
L 226.9 204.6 226.9 204 Z"/>

<path fill="#000000" fill-opacity="0.6039215686274509" stroke="none" d="
M 230 202.75
L 230 203.35 229.4 203.35 229.4 204 229.4 204.6 229.75 204.6
Q 229.75 204.725 229.75 204.85 230.05 204.85 230.3 204.75 230.7 204.55 231 204.55 231.1 204.55 231.2 204.55
L 231.2 204.6 231.8 204.6 231.8 204.55
Q 232 204.55 232.2 204.55 232.55 204.55 232.45 204.4 232.356640625 204.18046875 232.25 204
L 232.45 204 232.45 203.35 231.65 203.35
Q 231.44765625 203.2125 231.2 203.15
L 231.2 202.75 230 202.75 Z"/>

<path fill="#000000" fill-opacity="0.6588235294117647" stroke="none" d="
M 228.1 204.1
L 228.1 204 227.5 204 227.5 203.35 223.85 203.35 223.85 203.95
Q 223.8064453125 203.9873046875 223.75 204
L 222.65 204 222.65 204.6 223.85 204.6 223.85 205.2 224.25 205.2 224.25 205.45
Q 224.85 205.15 225.5 204.95 225.8 204.85 226.1 204.85 226.1 204.725 226.1 204.6
L 225.7 204.6 225.7 204 226.9 204 226.9 204.6 227.25 204.6
Q 227.3 204.6888671875 227.3 204.85 227.95 204.85 228.4 204.6 228.55 204.55 228.55 204.25 228.25 204.25 228.1 204.1 Z"/>

<path fill="#000000" fill-opacity="0.5137254901960784" stroke="none" d="
M 228.95 204
L 228.8 204 228.8 204.2 228.8 204.6 229.2 204.6
Q 229.2564453125 204.6564453125 229.3 204.7 229.45 204.85 229.75 204.85 229.75 204.725 229.75 204.6
L 229.4 204.6 229.4 204 228.95 204 Z"/>

<path fill="#000000" fill-opacity="0.7254901960784313" stroke="none" d="
M 228.95 204
Q 229.040625 203.6486328125 228.8 203.55
L 228.8 203.35 227.5 203.35 227.5 204 228.1 204 228.1 204.1
Q 228.25 204.25 228.55 204.25 228.7111328125 204.25 228.8 204.2
L 228.8 204 228.95 204 Z"/>

<path fill="#000000" fill-opacity="0.396078431372549" stroke="none" d="
M 233.65 204
L 233.05 204 233.05 204.6 233.65 204.6 233.65 204.4
Q 233.85 204.55 234.05 204.55
L 234.05 204.25
Q 233.85 204.25 233.65 204.25
L 233.65 204 Z"/>

<path fill="#000000" fill-opacity="0.9137254901960784" stroke="none" d="
M 233.65 204
L 233.65 203.35 233.05 203.35 233.05 203.5 233.05 204 233.65 204
M 234 204
L 233.65 204 233.65 204.25
Q 233.85 204.25 234.05 204.25 234.05 204.108203125 234 204 Z"/>

<path fill="#000000" fill-opacity="0.5764705882352941" stroke="none" d="
M 233.65 204
L 234 204
Q 234.05 204.108203125 234.05 204.25 234.15 204.25 234.25 204.25
L 234.25 203.35 234.6 203.35 234.6 203.3
Q 234.4259765625 203.238671875 234.25 203.2
L 234.25 202.75 232.45 202.75 232.45 203.35 232.9 203.35
Q 232.9564453125 203.4064453125 233 203.45 233.023046875 203.480859375 233.05 203.5
L 233.05 203.35 233.65 203.35 233.65 204
M 253.8 205.2
L 253.2 205.2 253.2 205.8 253.8 205.8 253.8 205.2 Z"/>

<path fill="#000000" fill-opacity="0.44313725490196076" stroke="none" d="
M 237.95 203.2
L 237.95 202.75 236.1 202.75 236.1 203.35 238.3 203.35
Q 238.2876953125 203.3 238.25 203.3 238.1025390625 203.2447265625 237.95 203.2
M 271.9 217.9
Q 271.776171875 217.7349609375 271.55 217.7
L 271.55 217.4 271.4 217.4 270.95 217.4 270.95 218.05 271.55 218.05 271.55 218.15
Q 271.5724609375 218.1724609375 271.6 218.2 271.75 218.35 272.05 218.35 272.05 218.05 271.9 217.9 Z"/>

<path fill="#000000" fill-opacity="0.48627450980392156" stroke="none" d="
M 238.55 202.75
L 238.55 203.35 240.15 203.35
Q 240.1150390625 203.2716796875 240.05 203.25 239.9279296875 203.1890625 239.8 203.15
L 239.8 202.75 238.55 202.75 Z"/>

<path fill="#000000" fill-opacity="0.9019607843137255" stroke="none" d="
M 270.95 230.85
L 270.95 231.2
Q 271.2 231.2 271.45 231.2 271.45 231.025 271.45 230.85
L 270.95 230.85
M 264.8 210.1
L 264.45 210.1
Q 263.782421875 209.4904296875 263 208.95
L 263 208.85 262.85 208.85
Q 262.34453125 208.511328125 261.8 208.2 261.486328125 208.0240234375 261.15 207.85
L 261.15 207.65 260.65 207.65
Q 260.0330078125 207.396484375 259.35 207.2
L 259.35 207.05 258.75 207.05
Q 258.4490234375 206.9685546875 258.1 206.9
L 258.1 206.45 256.7 206.45 255.65 206.45 255.65 205.8 255.7 205.8
Q 255.5544921875 205.3931640625 255.05 205.35
L 255.05 205.2 253.8 205.2 253.8 205.8 253.2 205.8 253.2 205.2 252.4 205.2 251.4 205.2 251.4 204.6 250.95 204.6
Q 250.5923828125 204.4337890625 250.15 204.3
L 250.15 204 246.9 204 245.25 204 245.25 203.35 244.05 203.35 244.05 204 243.4 204 243.4 203.35 240.15 203.35 238.55 203.35 238.3 203.35 236.1 203.35 234.6 203.35 234.25 203.35 234.25 204.25 234.25 204.6 235.2 204.6
Q 236.6005859375 205.24296875 238.95 205 239.9923828125 204.875 241 204.85
L 241 204.6 242.8 204.6 242.8 205.2 243.2 205.2
Q 243.25 205.2720703125 243.25 205.45 245.1 205.45 246.95 205.45 247 205.45 247.05 205.45
L 247.05 205.2 248.95 205.2 248.95 205.8 249.35 205.8
Q 249.4 205.8822265625 249.4 206.1 250.475 206.075 251.4 206.2
L 251.4 206.45 252.6 206.45
Q 252.869921875 206.518359375 253.1 206.6 253.1490234375 206.61953125 253.2 206.6
L 253.2 206.45 254.4 206.45 254.4 207.05 254.85 207.05
Q 254.9 207.1388671875 254.9 207.3 255.2994140625 207.3166015625 255.65 207.35
L 255.65 207.65 256.65 207.65
Q 256.750390625 207.696875 256.85 207.75
L 256.85 207.65 258.1 207.65 258.1 208.25 258.5 208.25
Q 258.55 208.351953125 258.55 208.55 258.644921875 208.669921875 258.75 208.75
L 258.75 208.85 258.8 208.85
Q 259.0625 209.06640625 259.35 209.2
L 259.35 209.45 259.8 209.45
Q 260.5865234375 209.75 261.65 209.75 261.7 209.75 261.75 209.75
L 261.75 209.45 262.4 209.45 262.4 210.1 262.8 210.1
Q 262.85 210.208203125 262.85 210.35 262.9265625 210.3912109375 263 210.4
L 263 210.7 263.4 210.7
Q 263.507421875 210.7736328125 263.6 210.85
L 263.6 211.3 264.2 211.3 264.2 211.9 264.8 211.9 264.8 212.5 265.25 212.5
Q 265.3 212.62421875 265.3 212.8 265.350390625 212.8287109375 265.4 212.85
L 265.4 213.1 265.8 213.1
Q 265.9009765625 213.163671875 266 213.2
L 266 213.8 266.7 213.8 266.7 214.4 267.3 214.4 267.3 215 267.9 215 267.9 215.6 268.5 215.6 268.5 216.2 269.1 216.2 269.1 216.8 269.6 216.8
Q 269.6505859375 216.876953125 269.7 216.95
L 269.7 218.05 270.3 218.05
Q 270.3376953125 218.074609375 270.35 218.1
L 270.35 219.25 270.85 219.25
Q 270.9130859375 219.3455078125 270.95 219.45
L 270.95 221.05 271.45 221.05
Q 271.513671875 221.1853515625 271.55 221.3
L 271.55 224.15 272.15 224.15 272.15 224.75 271.55 224.75 271.55 227.8 270.95 227.8 270.95 229.65 270.35 229.65 270.35 230.85 270.95 230.85 270.95 230.25 271.55 230.25 271.55 230.6
Q 271.8 230.6 272.05 230.6 272.05 230.3 272.05 230 272.3259765625 230.0275390625 272.5 229.95 272.8375 229.7912109375 272.8 229.25 272.81171875 229.0279296875 272.75 228.75 272.65 228.45 272.65 228.15 272.65 227.975 272.65 227.8
L 272.15 227.8 272.15 226.6 272.75 226.6 272.75 226.9
Q 273.043359375 226.9 273.3 226.9 273.3 226.6 273.3 226.3 273.3 224.15 273.3 222 273 222 272.8 221.85 272.77265625 221.82265625 272.75 221.8
L 272.75 221.7 272.15 221.7 272.15 221.05 272.6 221.05
Q 272.6208984375 220.925 272.6 220.8 272.35 219.55 272.05 218.35 271.75 218.35 271.6 218.2 271.5724609375 218.1724609375 271.55 218.15
L 271.55 218.05 270.95 218.05 270.95 217.4 271.4 217.4
Q 271.371484375 217.2693359375 271.3 217.15 271.15 216.8 270.85 216.5 270.55 216.5 270.35 216.35
L 270.35 216.2 269.7 216.2 269.7 215.6 270.15 215.6
Q 270.1365234375 215.5365234375 270.1 215.5 269.8876953125 215.3673828125 269.7 215.2
L 269.7 215 269.45 215
Q 269.258984375 214.8341796875 269.1 214.65
L 269.1 214.4 268.9 214.4
Q 268.599609375 213.9689453125 268.4 213.45 268.05 213.45 267.9 213.3
L 267.9 213.1 267.3 213.1 267.3 212.5 266.9 212.5
Q 266.796875 212.4248046875 266.7 212.35
L 266.7 211.9 266.5 211.9 265.4 211.9 265.4 211.3 265.65 211.3
Q 265.5451171875 211.1466796875 265.4 211
L 265.4 210.7 265.1 210.7
Q 264.95390625 210.5470703125 264.8 210.4
L 264.8 210.1 Z"/>

<path fill="#000000" fill-opacity="0.4117647058823529" stroke="none" d="
M 271.55 230.25
L 270.95 230.25 270.95 230.85 271.45 230.85
Q 271.45 231.025 271.45 231.2 271.75 231.2 271.9 231.05 272.05 230.9 272.05 230.6 271.8 230.6 271.55 230.6
L 271.55 230.25 Z"/>

<path fill="#000000" fill-opacity="0.5019607843137255" stroke="none" d="
M 272.75 226.6
L 272.15 226.6 272.15 227.8 272.65 227.8
Q 272.65 227.975 272.65 228.15 273 227.85 273.15 227.45 273.3 227.25 273.3 226.9 273.043359375 226.9 272.75 226.9
L 272.75 226.6 Z"/>

<path fill="#000000" fill-opacity="0.5607843137254902" stroke="none" d="
M 272.15 224.15
L 271.55 224.15 271.55 224.75 272.15 224.75 272.15 224.15 Z"/>

<path fill="#000000" fill-opacity="0.5176470588235295" stroke="none" d="
M 252.4 205.2
Q 252.3791015625 205.0791015625 252.3 205 252.190234375 204.890234375 252 204.85
L 252 204.6 251.4 204.6 251.4 205.2 252.4 205.2 Z"/>

<path fill="#000000" fill-opacity="0.45098039215686275" stroke="none" d="
M 243.25 205.45
Q 243.25 205.2720703125 243.2 205.2
L 242.8 205.2 242.8 204.6 241 204.6 241 204.85 241 205.2 241.4 205.2
Q 241.6119140625 205.7896484375 242.65 205.55 242.95 205.45 243.25 205.45
M 264.2 212
L 264.2 212.5 264.75 212.5
Q 264.787890625 212.587890625 264.85 212.65 265 212.8 265.3 212.8 265.3 212.62421875 265.25 212.5
L 264.8 212.5 264.8 211.9 264.2 211.9 264.2 212 Z"/>

<path fill="#000000" fill-opacity="0.5294117647058824" stroke="none" d="
M 247.05 205.2
L 247.05 205.45 247.05 205.8 247.55 205.8
Q 247.7482421875 206.433203125 248.8 206.15 249.05 206.1 249.4 206.1 249.4 205.8822265625 249.35 205.8
L 248.95 205.8 248.95 205.2 247.05 205.2
M 256.85 207.65
L 256.85 207.75 256.85 208.25 257.75 208.25
Q 257.879296875 208.3310546875 258 208.4 258.25 208.55 258.55 208.55 258.55 208.351953125 258.5 208.25
L 258.1 208.25 258.1 207.65 256.85 207.65 Z"/>

<path fill="#000000" fill-opacity="0.4627450980392157" stroke="none" d="
M 245.25 203.35
L 245.25 204 246.9 204
Q 246.875 203.9 246.8 203.85 246.630859375 203.7822265625 246.45 203.75
L 246.45 203.35 245.25 203.35
M 256.25 205.8
L 255.7 205.8 255.65 205.8 255.65 206.45 256.7 206.45
Q 256.6791015625 206.3291015625 256.6 206.25 256.484375 206.134375 256.25 206.1
L 256.25 205.8 Z"/>

<path fill="#000000" fill-opacity="0.5490196078431373" stroke="none" d="
M 244.05 203.35
L 243.4 203.35 243.4 204 244.05 204 244.05 203.35 Z"/>

<path fill="#000000" fill-opacity="0.4549019607843137" stroke="none" d="
M 261.75 209.75
L 261.75 210.1 262.3 210.1
Q 262.3564453125 210.1564453125 262.4 210.2 262.55 210.35 262.85 210.35 262.85 210.208203125 262.8 210.1
L 262.4 210.1 262.4 209.45 261.75 209.45 261.75 209.75 Z"/>

<path fill="#000000" fill-opacity="0.5725490196078431" stroke="none" d="
M 272.75 221.05
L 272.6 221.05 272.15 221.05 272.15 221.7 272.75 221.7 272.75 221.8
Q 272.77265625 221.82265625 272.8 221.85 273 222 273.3 222 273.3 221.7 273.15 221.55 273.0224609375 221.4224609375 272.75 221.4
L 272.75 221.05 Z"/>

<path fill="#000000" fill-opacity="0.4392156862745098" stroke="none" d="
M 264.2 211.9
L 264.2 211.3 263.6 211.3 263.6 211.9 264.15 211.9
Q 264.1712890625 211.94921875 264.2 212
L 264.2 211.9 Z"/>

<path fill="#000000" fill-opacity="0.43137254901960786" stroke="none" d="
M 268.25 212.95
Q 268.10234375 212.8392578125 267.9 212.8
L 267.9 212.5 267.3 212.5 267.3 213.1 267.9 213.1 267.9 213.3
Q 268.05 213.45 268.4 213.45 268.4 213.15 268.25 212.95 Z"/>

<path fill="#000000" fill-opacity="0.5098039215686274" stroke="none" d="
M 266 211.6
L 266 211.3 265.65 211.3 265.4 211.3 265.4 211.9 266.5 211.9
Q 266.462109375 211.812109375 266.4 211.75 266.262890625 211.612890625 266 211.6 Z"/>

<path fill="#000000" fill-opacity="0.5215686274509804" stroke="none" d="
M 270.15 215.6
L 269.7 215.6 269.7 216.2 270.35 216.2 270.35 216.35
Q 270.55 216.5 270.85 216.5 270.85 216.2 270.7 216.05 270.584375 215.934375 270.35 215.9
L 270.35 215.6 270.15 215.6 Z"/>
</g>

<g id="Mask_1_MASK_0_FILL">
<path fill="#FFFFFF" stroke="none" d="
M 157.5 192.35
L 157.5 280.75 256.25 280.75 256.25 192.35 157.5 192.35 Z"/>
</g>

<g id="Layer1_0_FILL">
<path fill="#000000" fill-opacity="0.6235294117647059" stroke="none" d="
M 214.1 205.2
L 212.85 205.2 212.85 205.8 212.25 205.8 212.25 206.45 212.75 206.45
Q 213.158984375 206.6771484375 213.45 206.45
L 214.05 206.45
Q 214.0908203125 206.3876953125 214.1 206.3
L 214.1 205.2 Z"/>

<path fill="#000000" fill-opacity="0.8588235294117647" stroke="none" d="
M 243.6 252.9
Q 244.7630859375 252.209375 244.05 252.05
L 244.05 251.7 242.8 251.7 242.8 252.9 243.15 252.9
Q 243.240234375 253.13125 243.6 252.9 Z"/>

<path fill="#000000" fill-opacity="0.8352941176470589" stroke="none" d="
M 247.75 249.8
L 246.45 249.8 246.45 250.4 245.25 250.4 245.25 251.7 245.85 251.7 245.85 251.35
Q 246.31484375 252.5689453125 247.65 250.9 247.9560546875 250.4919921875 247.65 250.4
L 247.75 250.4 247.75 249.8
M 247.05 250.4
L 247.15 250.4
Q 247.115625 250.4091796875 247.05 250.4
L 247.05 250.4 Z"/>

<path fill="#000000" fill-opacity="0.6980392156862745" stroke="none" d="
M 248.35 249.65
L 248.35 249.2 247.75 249.2 247.75 249.8 248.15 249.8 248.15 249.9
Q 249.4416015625 249.9 248.35 249.65 Z"/>

<path fill="#000000" fill-opacity="0.6745098039215687" stroke="none" d="
M 251.85 246.25
Q 253.7314453125 246.25 252.6 246
L 252.6 245.55 251.4 245.55 251.4 246.15 251.85 246.15 251.85 246.25 Z"/>

<path fill="#000000" fill-opacity="0.8509803921568627" stroke="none" d="
M 161.55 247.35
L 161.55 251 162 251
Q 162.05 251.2376953125 162.05 251.45 162.1294921875 252.0076171875 162.1 252.4 162.2314453125 252.480859375 162.35 252.55 162.7845703125 254.5052734375 163.6 256.45 163.7009765625 256.5283203125 163.8 256.6 164.012890625 256.7703125 164.2 256.95 164.706640625 257.4439453125 165.2 257.95
L 165.2 258.35 165.55 258.35
Q 165.6849609375 258.474609375 165.8 258.6
L 165.8 259 166.15 259
Q 166.27109375 259.14921875 166.4 259.3
L 166.4 259.6 166.65 259.6
Q 166.8291015625 259.816796875 167 260
L 167 260.2 167.1 260.2
Q 167.369921875 260.496875 167.6 260.8 167.751171875 260.9986328125 167.9 261.2 168.15 261.55 168.55 261.75 168.6998046875 261.837890625 168.85 261.9
L 168.85 262 168.95 262
Q 169.21171875 262.1369140625 169.45 262.25
L 169.45 262.6 170 262.6
Q 170.361328125 262.78671875 170.7 262.95
L 170.7 263.3 171.3 263.3
Q 174.926171875 265.2162109375 178.85 266.8 179.026953125 266.86796875 179.2 266.9
L 179.2 266.95 179.3 266.95
Q 179.7095703125 267.05 180.1 267.05 181.7466796875 267.08359375 182.9 267.4
L 182.9 267.55 183.4 267.55
Q 183.6748046875 267.6416015625 183.9 267.75 184.0234375 267.8126953125 184.15 267.85
L 184.15 268.15 184.75 268.15
Q 187.6755859375 269.369921875 191.75 269.5 193.55 269.55 194.85 269.7 195.25859375 269.751171875 195.55 269.85 195.615625 269.899609375 195.65 269.9 195.8078125 269.8421875 195.9 269.75 197.3626953125 269.9740234375 198.85 270.1 198.892578125 270.0966796875 198.9 270.05 199.4150390625 269.77109375 201.5 270.25 202.55 270.5 204.8 269.55 206.65 268.75 208.95 268.5 211.05 268.25 212.55 267.35 214.1 266.4 216.9 266.45 217.2 266.45 217.55 266.3 219.35 265.55 221.15 264.75 222.1 264.3 223.1 264 225.35 263.25 227.25 262.35 230.016015625 261.037890625 232.8 259.6
L 233.05 259.6 233.05 259.45
Q 234.0732421875 258.9458984375 235.1 258.4 235.6 258.2 236.1 257.95 237.95 257.15 239.5 256.25 239.9 256.05 240.2 256 241.85 255.85 242.05 254.5 241.8244140625 254.4087890625 241.6 254.35
L 241.6 254.1 241 254.1 241 253.5 239.8 253.5 239.8 254.1 238.55 254.1 238.55 254.7 237.95 254.7 237.95 255.1
Q 237.7841796875 255.21484375 237.6 255.35
L 236.7 255.35 236.7 255.95 235.45 255.95 235.45 256.55 234.25 256.55 234.25 257.15 233.05 257.15 233.05 257.75 232.45 257.75 232.45 258.35 231.8 258.35 231.8 258.9
Q 231.716015625 258.9625 231.6 259
L 229.4 259 229.4 259.6 228.8 259.6 228.8 260.2 227.5 260.2 227.5 260.7
Q 227.3873046875 260.75625 227.25 260.8
L 225.7 260.8 225.7 261.35
Q 225.628125 261.376953125 225.55 261.4
L 223.25 261.4 223.25 262 222.05 262 222.05 262.6 221.45 262.6 221.45 263.3 219.6 263.3 219.6 263.9 216.5 263.9 216.5 264.5 215.3 264.5 215.3 265.1 212.25 265.1 212.25 265.7 209.85 265.7 209.85 266.3 207.35 266.3 207.35 266.95 204.3 266.95 204.3 267.55 196.95 267.55
Q 196.80546875 267.3595703125 196.65 267.1 195.9119140625 267.073828125 195.15 267
L 195.15 267.5
Q 195.1376953125 267.5265625 195.1 267.55
L 189.6 267.55 189.6 266.95 186.35 266.95
Q 186.149609375 266.90703125 185.95 266.85
L 185.95 266.3 183.55 266.3 183.55 265.7 181.35 265.7
Q 181.2294921875 265.662890625 181.1 265.6
L 181.1 265.1 179.45 265.1
Q 179.3248046875 265.05859375 179.2 265
L 179.2 264.5 177.7 264.5
Q 177.5498046875 264.4447265625 177.4 264.4
L 177.4 263.9 176.2 263.9 176.2 263.3 174.95 263.3 174.95 262.6 173.15 262.6 173.15 262 172.55 262 172.55 261.4 171.3 261.4 171.3 260.8 170.25 260.8
Q 170.1619140625 260.7162109375 170.05 260.6
L 170.05 260.2 169.5 260.2
Q 169.4748046875 260.179296875 169.45 260.15
L 169.45 259.6 168.85 259.6 168.85 259 168.25 259 168.25 258.35 167.6 258.35 167.6 257.75 167.05 257.75
Q 167.020703125 257.7251953125 167 257.7
L 167 257.15 166.55 257.15
Q 166.502734375 257.049609375 166.4 256.95 166.415234375 256.9224609375 166.4 256.9
L 166.4 256.55 166.15 256.55
Q 166.0685546875 256.4505859375 166 256.35 166.301171875 256.4283203125 166.6 256.5
L 164.65 253.15
Q 164.64609375 253.1056640625 164.65 253.05 164.6208984375 253.043359375 164.6 253
L 164.6 252.9 164.45 252.9
Q 164.3244140625 252.780078125 164.2 252.65 164.0380859375 252.00234375 163.95 251.3
L 163.95 250.4 163.85 250.4
Q 163.796484375 249.156640625 163.95 247.8 164.1685546875 246.023828125 164.55 244.35
L 164.6 244.35 164.6 244.25
Q 164.8322265625 243.346875 165.1 242.45
L 165.2 242.45 165.2 242.2
Q 165.2966796875 241.93515625 165.4 241.65 165.5818359375 241.132421875 165.75 240.65
L 165.8 240.65 165.8 240.6
Q 166.0685546875 239.96875 166.35 239.4
L 166.4 239.4 166.4 239.35
Q 166.659765625 238.8515625 166.95 238.4 167.55390625 237.39375 168.15 236.4
L 168.25 236.4 168.25 236.25
Q 168.8173828125 235.3587890625 169.4 234.45 169.7 233.95 170.05 233.5 170.3 233.05 170.6 232.75 170.95 232.45 171.1 232.15 171.134375 232.0998046875 171.15 232.05
L 171.3 232.05 171.3 231.85
Q 171.8744140625 231.0412109375 172.5 230.25
L 172.55 230.25 172.55 230.15
Q 172.7599609375 229.9103515625 172.95 229.65
L 173.15 229.65 173.15 229.45
Q 173.3150390625 229.248046875 173.45 229.05
L 173.75 229.05 173.75 228.7
Q 173.9001953125 228.5666015625 174.05 228.4
L 174.35 228.4 174.35 228.05
Q 175.2859375 227.044140625 176.3 226.1 177.059375 225.4013671875 177.85 224.75
L 178 224.75 178 224.65
Q 178.466015625 224.295703125 178.95 223.95 181.1205078125 222.382421875 183.4 221.05
L 183.55 221.05 183.55 220.95
Q 184.046875 220.6775390625 184.55 220.4 185 220.2 185.2 219.9 185.215625 219.8748046875 185.2 219.85
L 185.35 219.85 185.35 219.65
Q 186.3111328125 218.2310546875 187.65 217.4 188.1 217.1 188.25 216.85 188.2677734375 216.8248046875 188.25 216.8
L 189 216.8 189 216.05
Q 190.0529296875 215.2853515625 191.75 215.25 192.3431640625 215.25 192.55 215
L 192.7 215 192.7 214.85
Q 192.9314453125 214.605859375 193.2 214.4
L 193.3 214.4 193.3 214.3
Q 193.9771484375 213.80859375 194.85 213.55 198.45 212.45 201.65 211.2 202.2 211 202.5 210.7 203.8 209.5 205.85 209.6 208.5044921875 209.6884765625 209.05 208.25
L 209.15 208.25 209.15 208.05
Q 209.1802734375 207.9541015625 209.2 207.85
L 209.25 207.6
Q 211.1 208.45 212 206.7 211.8251953125 206.5361328125 211.55 206.45
L 211.65 206.45 211.65 205.8 210.45 205.8 210.45 206.4
Q 210.3328125 206.42109375 210.2 206.45
L 207.95 206.45 207.95 207.05 206.15 207.05 206.15 207.5
Q 205.862109375 207.5732421875 205.55 207.65
L 204.3 207.65 204.3 208.05
Q 204.09609375 208.12578125 203.9 208.2 203.8361328125 208.225 203.75 208.25
L 203.1 208.25 203.1 208.5
Q 202.6892578125 208.68671875 202.25 208.85
L 200.65 208.85 200.65 209.45 198.85 209.45 198.85 210.1 197.55 210.1 197.55 210.7 196.35 210.7 196.35 211.3 194.55 211.3 194.55 211.9 193.9 211.9 193.9 212.5 192.7 212.5 192.7 213.1 190.9 213.1 190.9 213.8 189.6 213.8 189.6 214.4 188.4 214.4 188.4 215 187.8 215 187.8 215.6 186.55 215.6 186.55 216.2 185.95 216.2 185.95 216.8 185.35 216.8 185.35 217.3
Q 185.275 217.35 185.2 217.4
L 184.15 217.4 184.15 218.05 183.55 218.05 183.55 218.5
Q 183.4615234375 218.5869140625 183.35 218.65
L 182.3 218.65 182.3 219.25 181.1 219.25 181.1 219.85 180.5 219.85 180.5 220.45 179.9 220.45 179.9 221.05 179.2 221.05 179.2 221.7 178.6 221.7 178.6 222.3 177.4 222.3 177.4 222.9 176.8 222.9 176.8 223.5 176.2 223.5 176.2 224.15 174.95 224.15 174.95 225.4 174.35 225.4 174.35 226 173.75 226 173.75 226.6 173.15 226.6 173.15 227.5
Q 173.010546875 227.649609375 172.85 227.8
L 172.55 227.8 172.55 228.15
Q 172.437109375 228.2748046875 172.3 228.4
L 171.3 228.4 171.3 229.05 170.7 229.05 170.7 230.25 170.05 230.25 170.05 230.85 169.45 230.85 169.45 231.45 168.85 231.45 168.85 232.05 168.25 232.05 168.25 233.35 167.6 233.35 167.6 233.95 167 233.95 167 235.15 166.4 235.15 166.4 236.1
Q 166.3123046875 236.2650390625 166.2 236.4
L 165.8 236.4 165.8 237 165.2 237 165.2 237.6 164.6 237.6 164.6 238.8 163.95 238.8 163.95 240.65 163.35 240.65 163.35 241.85 162.75 241.85 162.75 242.45 163.35 242.45 163.35 242.95
Q 163.3232421875 243.0037109375 163.3 243.05
L 162.75 243.05 162.75 244.2
Q 162.72578125 244.2873046875 162.7 244.35
L 162.15 244.35 162.15 246.4
Q 162.0734375 246.8751953125 162 247.35
L 161.55 247.35 Z"/>
</g>
</defs>

<g transform="matrix( 1, 0, 0, 1, 0,0) ">
<use xlink:href="#Layer9_0_FILL"/>
</g>

<g transform="matrix( 1, 0, 0, 1, 0,0) ">
<use xlink:href="#Layer7_0_FILL"/>
</g>

<g transform="matrix( 1, 0, 0, 1, 0,0) ">
<use xlink:href="#Layer5_0_FILL"/>
</g>

<g transform="matrix( 1, 0, 0, 1, 0,0) ">
<use xlink:href="#Layer3_0_FILL"/>
</g>

<mask id="Mask_Mask_1">
<g transform="matrix( 1, 0, 0, 1, 0,0) ">
<use xlink:href="#Mask_1_MASK_0_FILL"/>
</g>
</mask>

<g mask="url(#Mask_Mask_1)">
<g transform="matrix( 1, 0, 0, 1, 0,0) ">
<use xlink:href="#Layer1_0_FILL"/>
</g>
</g>
</svg>
