
<svg xmlns="http://www.w3.org/2000/svg" version="1.1" xmlns:xlink="http://www.w3.org/1999/xlink" preserveAspectRatio="none" x="0px" y="0px" width="500px" height="500px" viewBox="0 0 500 500">
<defs>
<g id="Layer7_0_FILL">
<path fill="#000000" fill-opacity="0.9137254901960784" stroke="none" d="
M 154.75 310.45
Q 152 312.45 149.2 314.4 138.3 322.4 128.3 331.2 126.95 332.4 125.6 333.6 115.5 342.35 106.95 352.65 106.65 353 106.3 353.3 105.95 353.6 105.75 353.9 98.1 365.25 91.25 377.25 89.55 380.35 88.5 384.2 88.4 384.6 88.4 384.9 88.4 387.75 87.15 389.05 86.85 389.4 86.5 389.7 86.15 390 85.9 390.3 83.15 393.55 86.15 396.4 88.8 398.2 89.4 395.1 89.85 392.4 90.55 390 91.95 384.9 94 380.5 99.8 367.5 107.8 356.75 111.95 351.25 116.8 346.55 126.35 337.3 136.65 328.7 146.95 320.15 157.65 311.95 158.7 311.15 159.85 310.5 160.3 310.2 160.65 309.9 163.35 307.8 166.15 305.9 171.9 302 177.7 298.35 178.15 298.05 178.5 297.75 179.8 296.5 181.45 295.7 188.05 292.65 192.85 287.85 193.2 287.5 193.55 287.45 196.65 286.85 198.6 285.25 198.9 284.95 199.3 284.85 199.9 284.65 200.25 284.3 202.75 282.05 205.35 279.8 205.65 279.5 205.95 279.2 206.25 278.85 206.8 278.65 208.5 277.9 210.05 276.85 210.45 276.65 210.8 276.4 213.8 274.6 217 272.95 220.2 271.35 222.75 269.1 224.2 267.8 226.15 266.95 226.7 266.7 227.15 266.45 230.15 264.8 232.5 262.3 232.8 262 233.15 261.7 234.75 260.75 236.75 259.95 237.95 259.4 239 258.7 241.2 257.3 243.35 255.9 243.44609375 255.869921875 243.55 255.85 247.3271484375 253.0349609375 252 251.05 253.426171875 250.4484375 254.75 249.75 254.5390625 249.816796875 254.3 249.9 251.8 250.8 251 248.85 253.55 247.3 255.2 244.85 255.45 244.4 255.55 244.4 258.65 244.05 259.55 241.95 260.3 240.3 261.5 238.95 261.85 238.65 262.1 238.45 264.6 236.95 265.7 234.15 266.8 232.75 266.7 230.35 266.65 229.05 266.65 227.8 266.65 227.45 266.55 227.3 265.7 224.9 264.4 222.65 262.95 221.25 260.6 220.65 258.1 220 256.1 220.7 254.15 221.35 252.2 221.9 250.65 222.35 249.5 223.05 248.498828125 223.765234375 247.45 224.4
L 248.45 229.25
Q 249.6162109375 228.65 250.9 228.15 252.15 227.65 253.15 226.85 253.55 226.5 254.05 226.25 254.8 225.85 256.05 225.6 256.4 225.55 256.75 225.55 257.35 225.55 258.05 225.55 258.65 225.55 259.3 225.55 259.9 225.55 260.6 225.85 262.9 229.15 260.25 232.5 259.9 232.9 259.6 233.3 257.6 236 255.65 238.95 255.45 239.25 254.95 239.55 254.05 240.1 253.6 241.65 253.55 241.85 253.05 242.1 252.25 242.5 251.6 243.1 248.9 245.85 245.7 247.95 245.560546875 248.0275390625 245.4 248.05 244.996484375 248.875390625 244.35 249.45 242.1 251.4 240.65 252.6 237.65 255.15 234.95 258 234.5 258.55 234 259.05 231.442578125 260.00859375 228.85 260.95 224.6484375 263.903515625 220.3 266.65 208.7 273.95 197.3 281.35 195.7 282.4 194.2 283.5 192.85 284.55 191.15 285.6 183.9 290.1 176.9 294.9 165.75 302.6 154.75 310.45 Z"/>
</g>

<g id="Layer5_0_FILL">
<path fill="#000000" fill-opacity="0.9137254901960784" stroke="none" d="
M 248.45 229.25
L 247.45 224.4
Q 246.3509765625 225.1458984375 245.2 225.8 239.1 229.35 235.65 235.45 234.8 243.6 238.25 247.55 238.55 247.9 238.6 248.25 238.85 249.5 239.6 249.9 241.7 251.1 240.75 252.05 239.9517578125 252.2009765625 239.25 252.3 239.7412109375 252.6400390625 240.25 252.95 240.4517578125 252.768359375 240.65 252.6 242.1 251.4 244.35 249.45 244.996484375 248.875390625 245.4 248.05 245.0486328125 248.1689453125 244.6 248.1 242 247.65 240.8 245.65 239.6 243.65 238.85 241.2 239.8 239.65 240.35 237.45 240.75 235.75 241.7 234.55 244.443359375 231.304296875 248.45 229.25
M 408.65 97.35
Q 410.55 94.25 408.1 92.35 406.85 91.1 406.15 93.6 405.55 95.55 404.95 97.45 404.5 99 403.7 100 402.5 101.45 402 103.8 401.75 104.8 401.35 105.9 401.1 106.4 400.75 106.8 399.15 108.9 398.45 112.15 398.2 113.45 397.65 114.35 396.65 116 395.65 117.75 392.4 123.95 389.05 130.1 382.35 142.25 374.4 153.1 370.3 158.65 366.05 163.95 364.85 165.35 363.75 166.85 359.65 172.25 355.45 177.6 354.3 179.1 353.05 180.4 345.2 188.8 337.2 197.1 336.9 197.45 336.65 197.8 334.75 200.75 331.55 202.35 331.15 202.55 331.1 202.9 330.85 204.15 330.1 204.65 327.3 206.7 324.9 209.05 315.65 218.6 304.8 226.75 300.85 229.7 296.75 232.6 291.1 236.55 284.7 239.7 284.2 239.95 283.9 240.25 283.55 240.55 283.4 240.6 281 241.2 279.7 242.45 279.05 243.1 278 243.55 271.45 246.3 263.75 248.15 259.6 249.1 256.7 249.4 255.709765625 249.479296875 254.75 249.75 253.426171875 250.4484375 252 251.05 248.02890625 252.7369140625 244.7 255 245.180078125 255.1935546875 245.65 255.35 248.280078125 254.8822265625 251.6 254.95 251.95 254.95 252.3 254.9 254.15 254.65 256 254.2 258.65 253.65 260.1 254.2 260.25 254.25 260.6 254.2 262.8 253.95 264.95 253.65 268.11015625 253.1802734375 272 253.05 276.7705078125 251.1595703125 281.6 249.15 279.0662109375 249.2958984375 277.05 249.8 276.85 249.85 276.65 249.9 274.25 250.7 272.75 249.5 273.05 249.15 273.4 249.05 274 248.85 274.3 248.55 276.05 246.75 279.1 246.35 279.7 246.3 279.95 246 280.6 245.2 281.65 245.1 282.25 245.05 282.65 244.75 283.7 243.85 284.9 243.25 288.65 241.45 291.7 239 294.3 236.95 297.55 235.4 300.8 233.85 303.45 231.7 304.3 230.95 305.4 230.55 307.25 229.75 308.3 228.25 310.25 225.45 313.15 223.6 313.6 223.3 313.95 223 316.5 220.8 319.1 218.55 324.2 214.15 329.25 209.65 334.3 205.1 338.8 200 340.65 197.95 342.4 195.85 342.95 195.2 343.75 194.85 345.55 193.95 346.75 192.6 347.9 191.2 349.05 189.7 352.5 184.95 357 181.1 357.35 180.8 357.55 180.45 359.25 177.3 361.35 174.65 365.7 169.15 370.5 164 371.75 162.65 372.65 160.85 375 156.35 378.75 153 379.05 152.7 379.25 152.35 380.25 149.75 381.95 147.95 384.3 145.45 385.85 142.25 386.7 140.55 387.75 139.05 391.7 133.35 395 127 401.5 114.75 407.05 101.4 407.5 100.35 407.8 99.3 408.15 98.1 408.65 97.35 Z"/>
</g>

<g id="Layer3_0_FILL">
<path fill="#000000" fill-opacity="0.6901960784313725" stroke="none" d="
M 424.9 126.7
Q 424.75 126.55 424.75 126.25 424.45 126.25 424.1 126.25 423.65 127.9 425.25 127.2 425.35 127.15 425.35 126.85 425.05 126.85 424.9 126.7 Z"/>

<path fill="#000000" fill-opacity="0.8784313725490196" stroke="none" d="
M 435.85 104.3
Q 437.2 101.95 436.2 100.65 434.7 102 434.45 104.5 434.25 107.25 433.1 109.05 432.4 110.25 432.15 111.6
L 432.1 111.85
Q 431.8 112.15 431.45 112.45 431.1 112.8 430.95 113.35 429.1 120.65 424.75 125.55 424.75 125.85 424.75 126.25 424.75 126.55 424.9 126.7 425.05 126.85 425.35 126.85 428.2 124.55 430.5 121.8 430.8 121.45 430.85 121.05 431.3 119.3 432.15 118.15 433.7 116.1 433.4 114.65 433.35 114.4 433.65 114.1 435.6 112.15 435.3 108.3 435.1 105.6 435.85 104.3 Z"/>

<path fill="#000000" fill-opacity="0.9137254901960784" stroke="none" d="
M 400.65 164.05
Q 399.2 165.8 397.8 167.65 395.8 170.4 393.75 173.05 393.4 173.45 393.1 173.8 390.85 176.4 388.3 178.6 388 178.95 387.85 179.3 386.4 182.75 383.9 185 383.2 185.6 382.45 186.05 381.2 186.8 381.05 188.2
L 381 188.5
Q 380.65 188.8 380.5 189.1 380 190.05 379.25 190.45 378.75 190.7 378.7 190.9 378.25 192.5 377.3 193 376.85 193.25 376.6 193.55 375.1 195.7 372.9 197.05 371.3 197.95 370.05 199.35 369.8 199.7 369.5 200 364.7 204.8 359.55 209.25 358.15 210.4 356.75 211.4 351.2 215.55 346.35 220.3 343.45 223.15 339.85 225.35 338.35 226.3 336.85 227.5 334.2 229.55 331.3 231.3 328.25 233.15 325.75 235.45 325.4 235.75 325 235.95 321.65 237.45 319.35 239.9 319 240.25 318.65 240.45 312.2 243.65 307.2 248.2 306.5373046875 248.2 305.85 248.2 305.713671875 248.3802734375 305.55 248.55 304.25 249.95 302 252.05 299.4771484375 252.85859375 296.9 253.7 293.8373046875 255.8447265625 290.55 257.7 285.4 260.6 280.35 263.45 268.3 270.3 255.95 276.65 254.15 277.6 252.45 278.6 249.55 280.35 246.4 281.8 239.85 285 233.6 288.2 231.8 289.1 230.1 290.1 226.5 292.05 222.85 294.1 210.7 300.85 199.1 308.1 187.5 315.4 176.3 323.1 170.7 326.95 165.4 331.25 163.95 332.4 162.6 333.5 152 341.8 143 351.7 138.45 356.7 134.4 362.15 134.05 362.55 133.75 362.95 129.35 368.05 126.25 374.6 125.8 375.7 125.35 376.7 123.9 380.15 121.8 382.85 119.25 385.95 121.3 389.4 121.05 391.25 123.15 390.5 124.45 389.95 124.95 388.25 125.65 385.8 126.75 383.15 127.45 381.45 128 379.25 128.5 377.4 129.45 375.9 131 373.2 132.5 370.7 136 364.5 140.7 359.55 145.35 354.6 149.5 349.2 149.75 348.85 150.15 348.6 153.2 346.85 154.9 343.9 155.2 343.4 155.4 343.3 158.85 341.65 161 339 161.55 338.3 162.3 337.8 163.8 336.7 165.15 335.5 170.1 330.85 175.85 327.15 178.85 325.25 181.5 323.2 182.65 322.3 183.6 321.35 183.9 321.05 184.2 320.75 184.6 320.4 185.15 320.2 188.55 318.95 190.4 316 190.6 315.6 191 315.45 196.1 313.4 199.9 310.15 200.2 309.9 200.6 309.75 202.7 309.15 204 307.95 204.35 307.65 204.6 307.35 205.55 306.25 206.95 305.85 207.55 305.7 207.95 305.4 210.5 303.25 214 302.05 214.55 301.85 215 301.55 220.6 297.7 227.45 295.1 228 294.85 228.15 294.55 228.65 293.6 229.4 293.15 232.5 291.35 236.15 290.05 236.9 289.75 237.7 289.4 241.35 288.1 243.9 285.85 244.6 285.3 245.8 284.95 249.35 283.95 252.4 282.35 252.9 282.05 253.35 281.75 254.8 280.8 256.3 279.9 258.05 278.85 259.8 278 261 277.4 262.3 276.65 264.5 275.5 266.95 274.4 270.3 272.95 272.7 270.6 273.05 270.25 273.4 270.2 274.6 269.95 275.75 269.55 277.45 268.9 278.5 267.45 278.8 267.1 279.15 266.9 282.55 265.45 285.45 263.5 285.8 263.25 286.2 263.05 289.3 261.3 292.35 259.5 294.5 258.2 296.6 256.95 298.25 255.9 300 254.95 303.05 253.3 305.25 250.75 307.2677734375 251.45390625 310.55 250.65 312.209375 249.2892578125 314 248 311.151171875 248.012890625 309.75 246.95 313 245.7 315.5 243.7 315.85 243.4 316.2 243.35 317.1 243.1 317.8 242.7 321.65 240.65 325.75 238.6 326.35 238.3 326.55 237.85 327.15 236.25 328.95 236.1 329.55 236.05 330 235.8 331.5 234.8 332.95 233.9 336.1 232.1 338.5 229.7 338.85 229.4 339.2 229.25 340.4 228.7 341.05 227.75 341.8 226.6 343.05 226.15 345.05 225.4 346.3 224.05 348.65 221.6 351.25 219.45 351.6 219.2 352 218.95 354.3 217.75 354 216.9 353.45 215.25 355.1 215.25 357.25 215.25 358.4 213.75 358.65 213.4 359 213.15 362.95 210.1 366.05 206.1 366.3 205.75 366.65 205.65 367.85 205.4 368.35 204.65 369.35 203.05 370.7 201.95 372.2 200.75 373.4 199.45 380 192 387.7 185.6 387.7 184.4 388.35 183.75 390.35 182.1 389.6 180.5 392.6 179.4 394.05 176.65 394.55 175.55 395.95 175.4 395.95 175.1 395.85 174.85 395.65 174.45 395.7 174.3 396.5 172.4 397.25 170.3 399.35 170.1 399.9 168.4 400.5 166.85 401.75 165.75 402.05 165.5 402.35 165.5 403.75 165.55 404 164.65 404.4 162.9 403.7 162 404 162 404.15 161.85 405.95 160.15 408.1 158.8 408.1 158.15 407.9 157.55
L 407.8 157.2
Q 409.55 155.7 410.05 153.05 410.35 152.7 410.7 152.5 411.95 151.8 412.9 150.8 413.2 150.45 413.55 150.15
L 413.9 149.85
Q 413.7 147.3 415.15 144.75 415.35 143.3 417.05 143.7
L 417.4 143.8
Q 417.7 143.45 417.9 142.9 418.7 140.6 419.9 138.75 419.95 138.7 420 138.45 420.6 136.8 421.2 135.05 422.1 132.5 424.2 131.55 424.75 131.35 425.05 131 425.35 130.65 425.3 130.65 422.65 130.35 424.1 128.8
L 424.45 128.4
Q 423 128 422.7 129.4 422 132.4 420.15 134.4 418.95 135.7 418.45 137.75 418.35 138.35 418 138.65 416.65 139.85 415.65 141.5 414.1 144 412.5 146.6
L 412.3 147
Q 413.55 148.05 412.6 149.2 411.7 150.2 410.25 150.9 409.1 151.5 408.4 152.6 408.1 153.05 407.8 153.45 406.65 155.35 405.75 157.6 405.55 158.15 405.25 158.35 404.3 159.15 403.7 160.05 402.25 162.15 400.65 164.05 Z"/>
</g>

<g id="Mask_1_MASK_0_FILL">
<path fill="#FFFFFF" stroke="none" d="
M 471 291.05
L 471 226.05 46 226.05 46 291.05 471 291.05 Z"/>
</g>

<g id="Layer1_0_FILL">
<path fill="#000000" fill-opacity="0.9137254901960784" stroke="none" d="
M 281.6 249.15
Q 276.7705078125 251.1595703125 272 253.05 272.6642578125 253.0146484375 273.35 253 276.75 252.9 281 252.8 283.55 252.7 286.1 252.35 287.5 252.2 289.25 252.4 290.45 252.55 293.2 252.2 295.55 251.85 297.6 251.35 299.85 250.85 300.15 251.4 298.5619140625 252.604296875 296.9 253.7 299.4771484375 252.85859375 302 252.05 304.25 249.95 305.55 248.55 305.713671875 248.3802734375 305.85 248.2 302.3953125 248.2638671875 298.95 248.6 293.2 249.2 286.15 249.15 285.5 249.15 284.8 249.15 283.1166015625 249.09453125 281.6 249.15
M 243.55 255.85
Q 244.5451171875 255.5484375 245.65 255.35 245.180078125 255.1935546875 244.7 255 244.1173828125 255.4271484375 243.55 255.85
M 104.05 269.65
Q 104.4 269.65 104.75 269.55 108.95 268.75 113.05 268.35 113.3 268.35 113.45 268.3 116.05 266.9 120.65 267.1 121 267.1 121.3 267.1 125.3 266.85 128.25 265.9 128.65 265.8 128.85 265.85 129.65 266.1 130.85 265.85 131.2 265.8 131.55 265.75 135.65 265.4 139.1 264.6 139.55 264.55 139.85 264.55 140.15 264.55 140.35 264.4 143.7 263.3 148.75 263.35 151.15 263.35 153.25 263.05 156.35 262.55 157.1 262.6 157.4 262.6 157.75 262.55 161.25 262 162.2 262.05 166.8 262.15 171.1 261.35 171.45 261.3 171.8 261.25 177.85 260.05 185.2 260.05 185.5 260.05 185.85 260 188.4 259.75 190.85 259.25 195.25 258.5 198.6 258.75 198.9 258.75 199.25 258.7 202.1 258.45 205 258.2 206.25 258.1 207.6 258 212 257.5 216.45 256.85 216.8 256.8 217 256.95 217.8 257.15 218.95 256.8 219.55 256.6 222.2 256.8 222.6 256.8 222.65 256.75 223.7 256.05 226.1 256.2 228.45 256.35 230.55 255.95 233.55 255.4 235.05 256.5 231.991015625 258.7888671875 228.85 260.95 231.442578125 260.00859375 234 259.05 234.5 258.55 234.95 258 237.4716796875 255.33828125 240.25 252.95 239.7412109375 252.6400390625 239.25 252.3 238.3390625 252.4431640625 237.6 252.5 235.05 252.7 232.5 253 228.15 253.5 222.9 253.6 221.6 253.65 220.3 253.75 217.5 253.95 214.6 254.3 212 254.7 206.9 254.9 206.6 254.95 206.25 255 203.7 255.25 201.25 255.65 199.35 256 196.7 256.1 193.55 256.25 192.95 256.3 191.05 256.6 188.4 256.7 183.9 256.8 179.45 257.45 179.1 257.5 178.8 257.5 178.5 257.5 178.25 257.55 176.1 258 173.05 258.1 172.75 258.1 172.5 258.1 171.3 257.95 168.6 258.6 167.2 258.95 165.4 258.8 165.1 258.75 164.85 258.8 161 259.5 157.75 259.7 148.65 260.25 139.9 261.25 139.55 261.3 139.3 261.25 137.2 260.85 134.8 261.8 134.45 262 134.05 262 129.5 262.45 125.15 262.85 120.7 263.25 116.85 264.15 114.75 264.7 112.4 264.95 103.8 265.85 95.8 267.6 94.4 267.9 92.6 267.75 92.25 267.7 92.15 267.75 90.65 268.65 88.1 268.95 87.75 268.95 87.55 268.9 86.05 268.5 83.6 269.25 80.9 270.15 77.95 270.9 74.4 271.85 70.25 272.7 67.95 273.15 65.7 273.55 61.5 274.25 57.55 275.45 56.8 275.65 55.65 275.25 54.2 274.75 52.3 276.3 52.3 276.95 52.3 277.6 52.3 278.25 52.6 278.4 53.55 278.9 54.35 279.35 56.05 280.5 58.7 279.45 59.35 279.2 60 279.15 62.35 279 63.45 277.95 63.85 277.6 64.15 277.3
L 64.45 276.95
Q 65.5 277.25 67.65 276.85 71.15 276.3 74.65 275.45 75 275.4 75.3 275.35 77.45 275.3 78.55 274.45 81.35 272.45 86.85 273.05 87.45 273.15 87.8 272.8 89.6 271.1 93.85 271.5 94.2 271.5 94.55 271.45 95.75 271.2 96.95 270.85 99.9 269.95 104.05 269.65
M 454.8 244.95
Q 452.95 244.25 450.3 244.05 449.95 244.05 449.75 244.1 449 244.4 447.75 244.2 446.5 244.05 445.15 243.9 440.45 243.35 435.6 242.85 434.95 242.8 434.35 242.8 430.9 242.9 426 242.8 425.7 242.8 425.35 242.8 425.05 242.8 424.75 242.8 414.85 242.5 404.95 242.6 399.45 242.65 396.65 242.8 396.35 242.8 396.1 242.75 395 242.5 392.1 242.75 391.85 242.8 391.5 242.7 390.2 242.5 389.15 242.9 387.5 243.55 384.5 243.5 375.05 243.25 366 244 365.65 244.05 365.3 244.05 362.9 243.95 362.2 244.1 360.3 244.5 357.65 244.45 355.1 244.4 352.6 244.75 348.7 245.3 343.6 245.35 343.3 245.35 342.95 245.35 342.65 245.35 342.4 245.4 340.25 245.85 337.25 245.95 336.9 246 336.75 245.9 335.8 245.5 334.1 245.9 331.45 246.55 327.6 246.6 324.8 246.65 320 247.25 319.65 247.3 319.35 247.3 319 247.3 318.85 247.35 317.1 247.9 314.2 248 314.098828125 248.0017578125 314 248 312.209375 249.2892578125 310.55 250.65 310.778515625 250.6083984375 311 250.55 311.35 250.45 311.65 250.5 315.3 250.8 319.35 250.2 321.8 249.85 323.2 249.75 327 249.5 330.8 249.1 334.85 248.7 339.75 249.05 343.8 249.3 346.25 248.4 346.8 248.2 347.15 247.9 349.05 246.3 350.85 247.25 352.55 248.1 356.35 247.35 356.7 247.3 357 247.3 360.35 247.45 362.25 246.55 362.75 246.3 363.3 246.55 364.85 247.4 367.9 247.3 372.8 247.1 376.8 246.1 378.2 245.8 380 245.95 380.35 246 380.65 246 386.4 246.3 392.15 245.95 395.15 245.75 398.55 245.95 398.9 246 399.15 245.95 403.35 245.65 408.1 245.35 410.85 245.15 412 245.35 413.9 245.65 415.75 245.9 418.45 246.2 423.4 246 423.8 246 424 246.05 424.75 246.25 425.95 246.05 426.35 246 426.55 246.05 429.15 246.7 433.05 246.6 433.35 246.6 433.65 246.6 438.95 246.5 442.7 247.3 446.9 248.1 450.95 248.7 452.2 248.85 452.95 249.3 455.95 251.2 456.7 247.6 456.5 245.5 454.8 244.95 Z"/>
</g>
</defs>

<g transform="matrix( 1, 0, 0, 1, 0,0) ">
<use xlink:href="#Layer7_0_FILL"/>
</g>

<g transform="matrix( 1, 0, 0, 1, 0,0) ">
<use xlink:href="#Layer5_0_FILL"/>
</g>

<g transform="matrix( 1, 0, 0, 1, 0,0) ">
<use xlink:href="#Layer3_0_FILL"/>
</g>

<mask id="Mask_Mask_1">
<g transform="matrix( 1, 0, 0, 1, 0,0) ">
<use xlink:href="#Mask_1_MASK_0_FILL"/>
</g>
</mask>

<g mask="url(#Mask_Mask_1)">
<g transform="matrix( 1, 0, 0, 1, 0,0) ">
<use xlink:href="#Layer1_0_FILL"/>
</g>
</g>
</svg>
