
<svg xmlns="http://www.w3.org/2000/svg" version="1.1" xmlns:xlink="http://www.w3.org/1999/xlink" preserveAspectRatio="none" x="0px" y="0px" width="500px" height="500px" viewBox="0 0 500 500">
<defs>
<g id="Mask_5_MASK_0_FILL">
<path fill="#FFFFFF" stroke="none" d="
M 481.05 288.05
L 481.05 235.05 -1 235.05 -1 288.05 481.05 288.05 Z"/>
</g>

<g id="Layer5_0_FILL">
<path fill="#000000" fill-opacity="0.6549019607843137" stroke="none" d="
M 221.15 278.75
L 221.15 279.05
Q 222.7 279.05 221.15 278.75 Z"/>

<path fill="#000000" fill-opacity="0.4392156862745098" stroke="none" d="
M 45.6 262.9
Q 47.1 262.9 45.6 262.6
L 45.6 262.9
M 16.65 251.8
Q 17 251.8 17.35 251.8 17.35 251.45 17.2 251.3 17 251.15 16.65 251.15 16.65 251.45 16.65 251.8
M 35 260.4
Q 35.15 260.55 35.5 260.55 35.5 260.2 35.35 260.05 35.15 259.85 34.85 259.85 34.85 260.2 35 260.4
M 25.45 254.5
Q 25.45 254.8 25.6 255 25.75 255.15 26.1 255.15 26.1 254.8 25.9 254.65 25.75 254.5 25.45 254.5 Z"/>

<path fill="#000000" fill-opacity="0.7490196078431373" stroke="none" d="
M 64.35 265.9
Q 64.25 265.85 64.1 265.85
L 64.1 265.95
Q 64.2984375 265.95 64.5 265.95 64.446875 265.9484375 64.35 265.9
M 63.95 265.95
Q 63.9 265.85 63.9 265.8 63.75 265 61.05 264.35 60.85 264.3 60.7 264.3 60.5 264.25 60.25 264.2 58.5 263.8 59.75 264.2 60.2 264.3 61.05 264.55 60.75 264.55 60.4 264.55 60.1 264.55 58.5 264.35 58.25 264.3 57.9 264.25 58.15 264.3 58.3 264.4 59.5 264.95 57.85 265.2 57.75625 265.246875 57.6 265.25 57.762109375 265.25 57.95 265.25 58.3 265.5 59.1 265.3 61.3 265.55 62.1 266.25
L 62.45 266.05
Q 62.7 265.95 63.8 265.95 63.9 266.15 64.05 266.5 64 266.2 63.95 265.95 Z"/>

<path fill="#000000" fill-opacity="0.49411764705882355" stroke="none" d="
M 64.1 265.85
Q 64.25 265.85 64.35 265.9 64.3 265.75 64.1 265.35
L 64.1 265.85 Z"/>

<path fill="#000000" fill-opacity="0.5803921568627451" stroke="none" d="
M 58.5 264.35
Q 60.1 264.55 60.4 264.55 60.75 264.55 61.05 264.55 60.2 264.3 59.75 264.2 59.1 264.2 58.5 264.35
M 57.7 264.55
Q 57.65 265 57.85 265.2 59.5 264.95 58.3 264.4 57.95 264.45 57.7 264.55 Z"/>

<path fill="#000000" fill-opacity="0.42745098039215684" stroke="none" d="
M 51.65 264.55
Q 51.65 264.95 51.8 265.1 52 265.25 52.35 265.25 52.35 264.95 52.15 264.75 52 264.55 51.65 264.55 Z"/>

<path fill="#000000" fill-opacity="0.6274509803921569" stroke="none" d="
M 51.65 263.9
Q 51.65 263.6 51.65 263.2 51.35 263.2 50.95 263.2 50.95 263.9 51.25 264.45 51.35 264.55 51.65 264.55 51.65 264.25 51.65 263.9 Z"/>

<path fill="#000000" fill-opacity="0.403921568627451" stroke="none" d="
M 56.35 264.95
L 56.35 264.55
Q 56.05 264.55 55.65 264.55 56.05 264.95 56.35 264.95 Z"/>

<path fill="#000000" fill-opacity="0.8196078431372549" stroke="none" d="
M 57.7 263.9
Q 57.4 263.9 57.05 263.9 56.7 263.9 56.45 263.75 53.45 261.65 51.65 263.9 51.65 264.25 51.65 264.55 52 264.55 52.15 264.75 52.35 264.95 52.35 265.25 54.1 265.4 55.15 264.75 55.35 264.55 55.65 264.55 56.05 264.55 56.35 264.55 57.05 264.55 57.6 264.3 57.7 264.25 57.7 263.9
M 53 263.6
L 53 263.2
Q 54.5 263.6 53 263.6 Z"/>

<path fill="#000000" fill-opacity="0.5215686274509804" stroke="none" d="
M 53 263.2
L 53 263.6
Q 54.5 263.6 53 263.2 Z"/>

<path fill="#000000" fill-opacity="0.6039215686274509" stroke="none" d="
M 57.05 263.2
Q 57.05 263.6 57.05 263.9 57.4 263.9 57.7 263.9 57.7 263.6 57.55 263.4 57.4 263.2 57.05 263.2 Z"/>

<path fill="#000000" fill-opacity="0.45098039215686275" stroke="none" d="
M 44.9 262.9
L 44.9 262.6
Q 44.6 262.6 44.25 262.6 44.6 262.9 44.9 262.9 Z"/>

<path fill="#000000" fill-opacity="0.396078431372549" stroke="none" d="
M 46.25 261.25
L 46.25 261.2 45.75 261
Q 45.8 261.1 45.9 261.15 46 261.25 46.2 261.25
L 46.25 261.25 Z"/>

<path fill="#000000" fill-opacity="0.4588235294117647" stroke="none" d="
M 9.25 249.8
Q 9.6 249.8 9.75 249.65 9.9 249.45 9.9 249.1 9.6 249.1 9.25 249.1 9.25 249.45 9.25 249.8 Z"/>

<path fill="#000000" fill-opacity="0.9215686274509803" stroke="none" d="
M 9.45 248.3
Q 9.25 248.1 9.25 247.75 8.95 247.75 8.6 247.75 8.25 247.75 7.95 247.75 7.55 247.75 7.25 247.75 6.9 247.75 6.6 247.75 7.25 248.75 8.6 249.05 8.95 249.1 9.25 249.1 9.6 249.1 9.9 249.1 9.9 248.75 9.9 248.45 9.6 248.45 9.45 248.3 Z"/>

<path fill="#000000" fill-opacity="0.5254901960784314" stroke="none" d="
M 9.75 247.9
Q 9.6 247.75 9.25 247.75 9.25 248.1 9.45 248.3 9.6 248.45 9.9 248.45 9.9 248.1 9.75 247.9 Z"/>

<path fill="#000000" fill-opacity="0.47843137254901963" stroke="none" d="
M 11.35 251
Q 11.65 251.15 11.95 251.15 11.95 250.8 11.85 250.7 11.3 250.45 10.6 250.45 10.95 250.8 11.35 251 Z"/>

<path fill="#000000" fill-opacity="0.4627450980392157" stroke="none" d="
M 10.6 249.1
Q 10.6 248.75 10.45 248.6 10.3 248.45 9.9 248.45 9.9 248.75 9.9 249.1 10.3 249.1 10.6 249.1 Z"/>

<path fill="#000000" fill-opacity="0.4" stroke="none" d="
M 14.45 249.95
Q 14.3 249.8 14 249.8 14 250.1 14.15 250.25 14.3 250.45 14.65 250.45 14.65 250.1 14.45 249.95 Z"/>

<path fill="#000000" fill-opacity="0.5058823529411764" stroke="none" d="
M 22.05 253.15
Q 22.05 253.5 22.2 253.65 22.4 253.8 22.7 253.8 22.7 253.5 22.55 253.3 22.4 253.15 22.05 253.15 Z"/>

<path fill="#000000" fill-opacity="0.4196078431372549" stroke="none" d="
M 20.9 253
Q 21.05 253.15 21.35 253.15 21.35 252.8 21.2 252.6 21.05 252.45 20.75 252.45 20.75 252.8 20.9 253 Z"/>

<path fill="#000000" fill-opacity="0.8627450980392157" stroke="none" d="
M 35.5 258.15
Q 32.8 257.85 31.25 256.8 30.8 256.55 30.4 256.15 28.95 255 26.1 255.15 25.75 255.15 25.6 255 25.45 254.8 25.45 254.5 25.05 254.5 24.75 254.5 23.45 254.45 22.7 253.8 22.4 253.8 22.2 253.65 22.05 253.5 22.05 253.15 21.7 253.15 21.35 253.15 21.05 253.15 20.9 253 20.75 252.8 20.75 252.45 20.35 252.45 20.05 252.5 18.2 252.6 17.35 251.8 17 251.8 16.65 251.8 16.35 251.8 16.3 251.65 15.8 250.65 14.65 250.45 14.3 250.45 14.15 250.25 14 250.1 14 249.8 13.65 249.8 13.4 249.65 12.45 249 10.6 249.1 10.3 249.1 9.9 249.1 9.9 249.45 9.75 249.65 9.6 249.8 9.25 249.8 9.6 250.1 10 250.3 10.3 250.45 10.6 250.45 11.3 250.45 11.85 250.7 11.95 250.8 11.95 251.15 14.65 252.5 17.45 253.35 19 253.8 20.65 254.05 21.05 254.2 21.4 254.45 24.05 256.55 28.75 256.8 29.15 256.85 29.5 257.15 30.55 258.1 32.2 258.45 33.85 258.85 34.85 259.85 35.15 259.85 35.35 260.05 35.5 260.2 35.5 260.55 37.65 261.4 40.9 261.5 41.55 261.55 42.25 261.55 42.9 261.55 43.65 261.4 44.65 261.15 44.25 262.6 44.6 262.6 44.9 262.6 47.35 261.6 50.35 263.1 50.65 263.2 50.95 263.2 51.35 263.2 51.65 263.2 51.65 262.9 51.5 262.8 49.75 261.7 47.3 261.4 46.95 261.3 46.55 261.3 46.4 261.25 46.25 261.25
L 46.2 261.25
Q 46 261.25 45.9 261.15 42.65 260.1 41.55 260.05 38.15 259.9 36.2 258.45 35.8 258.2 35.5 258.15 Z"/>

<path fill="#000000" fill-opacity="0.5294117647058824" stroke="none" d="
M 7.8 247.4
Q 7.25 247.1 6.6 247.1 6.6 247.45 6.6 247.75 6.9 247.75 7.25 247.75 7.55 247.75 7.95 247.75 7.95 247.45 7.8 247.4 Z"/>

<path fill="#000000" fill-opacity="0.803921568627451" stroke="none" d="
M 103.45 271.6
Q 103.15 271.6 102.95 271.55 101.4 271.05 98.75 271 98.05 271 97.4 271 97.1 271 96.85 270.9 93.8 269.85 89.4 269.5 87.3 269.25 85.2 268.9 82.75 268.45 80.55 268.1 79.2 267.95 78 267.6 74.2 266.6 69.85 265.75 67.5 265.3 65.8 265.95 66.1 266.25 66.1 266.6 66 268.4 67.65 267.6 68.6 267.2 70.65 268.3 71.2 268.6 71.5 268.3 72.05 267.8 73.8 268.75 78.7 271.35 84.65 270.1 85.3 269.95 85.4 270.25 85.65 270.65 85.75 271.2 86 271.95 87.15 271.55 88.15 271.15 90.6 272.15 91 272.3 91.3 272.25 93.55 272.15 96 272.25 96.4 272.3 96.6 272.25 98.25 271.8 100.15 273.3 101.6 274.5 104.8 274.35 105.1 274.35 105.3 274.3 106.2 274.05 107.5 273.95 110.3 273.9 112.3 274.45 115.15 275.35 116.25 274.65 115.75 272.8 112.85 272.8 110.7 272.8 108.2 272.35 106.65 272.1 104.85 271.8 104.15 271.6 103.45 271.6
M 86.65 269.95
Q 88.15 270.3 86.65 270.3
L 86.65 269.95 Z"/>

<path fill="#000000" fill-opacity="0.23137254901960785" stroke="none" d="
M 86.65 270.3
Q 88.15 270.3 86.65 269.95
L 86.65 270.3 Z"/>

<path fill="#000000" fill-opacity="0.8784313725490196" stroke="none" d="
M 460 243.65
Q 457.1 244.5 454.7 245.9 451.55 247.7 447.85 248.95 447.25 249.1 446.75 249.4 442.25 252.25 436.45 253.65 435.8 253.8 435.3 254.1 432.35 256.1 428.35 257.05 427.7 257.15 427.2 257.45 420.15 260.4 412.2 262.35 404 264.4 396.1 266.5 392.05 267.55 387.45 268.3 384.95 268.7 380.05 269.6 376 270.4 371.2 270.6 370.55 270.65 370 270.9 366.65 272.5 361.1 272.3 360.8 272.3 360.4 272.35 355.6 272.85 351.65 273.7 347.35 274.65 342.95 275.35 339.85 275.9 336.25 276.35 335.9 276.4 335.6 276.4 330.15 276.65 327.5 277.3 325.3 277.9 322.8 277.7 322.45 277.7 322.2 277.75 320.15 278.15 317.45 278.35 315.55 278.5 314 278.65 309.55 278.9 307.95 278.95 305.9 279 304.6 279.05 299.25 279.4 293.9 279.7 293.5 279.7 293.3 279.65 290.55 279 286.5 279.55 283.55 279.9 282.4 279.75 279.4 279.4 276.35 279.35 271.45 279.2 266.9 278.8 265.6 278.75 264.4 278.3 262.6 277.65 260.25 277.35 255.7 276.8 252.8 274.65 253.15 273.95 253.55 273.4 253.8 273 253.85 273.05 255.85 274.3 256.95 272.05 257.2 271.6 257.4 271.75 259.3 272.1 259.85 271.6 260.25 271.3 260.55 271 260.9 270.65 260.95 270.65 263 270.45 263.65 269.35 263.95 268.95 264.3 268.85 265.25 268.6 266.15 268.35 269.1 267.45 271.6 265.85 272.95 264.95 273.95 263.6 274.7 262.6 275.65 261.85 277.7 260.2 276.35 258.5 275.95 256.55 274.25 256.2 274 256.15 273.6 256.25 270.5 256.7 267.65 257.45 267.3 257.5 266.85 257.65 261.4 259.35 256.95 262.1 250.7 265.85 247.45 272.65 245.05 272.65 243.5 273.5 242.85 273.85 240.05 274.3 235.6 274.9 232.6 275.25 229.25 275.7 225.9 275.95 224.85 276 224 276.4 220.55 277.7 215.15 277.6 213.05 277.6 211.75 277.9 208.2 278.7 204.3 278.4 204.05 278.35 203.7 278.35 191.25 278.75 178.8 278.5 173.3 278.45 170.05 278.35 169.7 278.35 169.4 278.35 166.4 278.05 163.4 277.7 159.1 277.25 153.9 277.3 148.9 277.35 144.5 276.6 143.15 276.4 141.8 276.3 132.15 275.65 123 274.4 122.6 274.35 122.3 274.35 121.95 274.35 121.8 274.3 120.1 273.5 116.95 273.95 117.25 274.35 117.65 274.6 118.6 275.35 119.55 276.05 119.95 276.4 120.15 276.3 120.95 276 121.75 275.65
L 122.3 275.35
Q 121.4 276.4 122.35 276.5 123.6 276.7 124.9 276.95 127.15 277.55 130.35 277.7
L 130.7 277.7
Q 131.7 276.4 134.4 276.7 135.95 277 134.5 277.55
L 134.05 277.7
Q 136.2 277.55 137.3 278.35 137.75 278.75 138.15 278.35 139.45 277.1 140.8 278.35 141.1 278.75 141.2 278.5 142 276.3 143.2 278 143.5 278.35 143.9 278.45 146.55 279.05 149.2 279.35 153.75 279.9 156.7 279 159.4 278.2 160.65 279.4 160.95 279.7 161.4 279.85 163.5 280.55 166 280.45 166.4 280.4 166.7 280.4
L 167 280.4
Q 167.95 279.25 170 279.65 170.4 279.7 170.7 279.7 171.9 279.55 174.75 280.25 176.2 280.6 178.05 280.25 180.85 279.75 182.1 280.75 182.5 281.1 182.9 281.2 183.5 281.4 183.95 281.1 186 279.55 187.5 280.75 187.9 281.1 188 281 189.7 280.2 192.2 280.35 192.6 280.4 192.9 280.4 193.3 280.4 193.55 280.45 195.05 280.6 196.95 280.45 197.3 280.4 197.75 280.3 200.5 279.55 201.75 279.85 205.35 280.75 209.7 280.45 210.1 280.4 210.4 280.45 216.5 281.1 218.5 278.05 218.8 278.05 218.95 278.15
L 219.2 278.75
Q 221.15 277.2 223.2 279.4 223.55 279.05 223.9 279 226.95 278.8 228.55 277.35 228.95 277 229.05 277.1 230.2 277.7 231.95 277.7 232.3 277.7 232.7 277.65 239.6 277.25 244.6 275.15 246.45 274.35 248.8 273.95 249.45 278.05 252.9 279.1 253.8 279.4 254.6 279.8 258.15 281.8 264.25 281.75 266.3 281.75 268.25 281.75 268.95 281.75 269.6 281.8 273.9 282.2 279 282.5 280.9 282.6 282.35 282.25 283.45 282.05 286.5 282.4 286.8 282.45 287.15 282.4 289.85 282.05 292.45 282.45 293.7 282.6 296.55 282.25 302.45 281.65 303.95 281.9 305.3 282.05 306.5 281.7 307.3 281.4 308.55 281.8 309.7 282.05 312.75 281.5 313.35 281.4 313.65 281.1 314.55 279.9 316.65 280.45 321.05 281.5 325.4 279.9 325.8 279.7 326 279.8 329.3 281.1 331.5 278.75 331.9 278.35 332.15 278.4 333.7 278.6 335.6 278.45 340.1 278.2 344.9 277.6 346.95 277.35 349.05 276.95 351.5 276.55 353.7 276.05 356.85 275.45 360.45 275.3 362.35 275.2 363.85 274.9 365.7 274.55 367.2 274.25 368.55 273.95 369.7 273.6 371.8 272.9 374.6 273 374.9 273 375.3 273 375.6 273 376 272.9 380.3 272 384.6 271.1 385 271 385.35 271 388.75 271.05 390.75 270.05 392.65 269.2 395.4 269 395.75 268.95 396.2 268.9 399.4 268.25 400.15 268.3 400.5 268.3 400.9 268.2 405.25 267.35 408.95 266.05 411.65 265.05 412.25 265.05 413.6 264.95 415 264.65 415.65 264.55 415.85 264.25 416.5 263.45 417.6 263.55 418 263.6 418.2 263.5 419.3 263.2 420.45 262.95 428.5 260.65 435.25 257.45 435.8 257.15 435.95 256.9 437.2 254.25 439.4 255.4 439.5 255.5 439.85 255.45 442.7 255.35 443.95 253.9 444.55 253.15 445.7 252.75 449.05 251.3 452.6 249.75 459.6 246.65 467.35 244.2 467.75 244.05 468.05 244.05 473.8 244.4 474.15 239.65 473.8 239.35 473.45 239.05 472.75 238.4 471.55 238.7 469.95 239.2 468.55 240.05 468.1 240.35 467.6 240.65 464.1 242.4 460 243.65
M 147.15 278.35
L 147.15 278.05
Q 148.7 278.35 147.15 278.35
M 272.95 260.55
Q 271.25 262.85 268.5 264.3 267.95 264.55 267.4 265.05 265.9 266.2 263.65 266.85 263.25 266.9 262.85 267.15 259 268.75 255.35 270.3 253.35 271.1 252.8 269.95 257.5 265.55 263.6 262.7 265.2 261.9 267.55 261.6 267.95 261.55 268.3 261.3 269.9 260.15 272.95 260.55
M 252.15 270.65
Q 253.65 271 252.15 271
L 252.15 270.65
M 252.15 272.65
Q 253.65 273 252.15 273
L 252.15 272.65
M 215.15 278.05
Q 218.75 278.35 215.15 278.35
L 215.15 278.05 Z"/>

<path fill="#000000" fill-opacity="0.24705882352941178" stroke="none" d="
M 215.15 278.35
Q 218.75 278.35 215.15 278.05
L 215.15 278.35 Z"/>

<path fill="#000000" fill-opacity="0.22745098039215686" stroke="none" d="
M 252.15 273
Q 253.65 273 252.15 272.65
L 252.15 273 Z"/>

<path fill="#000000" fill-opacity="0.2901960784313726" stroke="none" d="
M 147.15 278.05
L 147.15 278.35
Q 148.7 278.35 147.15 278.05 Z"/>
</g>

<g id="Layer3_0_FILL">
<path fill="#000000" fill-opacity="0.43529411764705883" stroke="none" d="
M 217.1 251.05
Q 217.1 251.35 217.25 251.5 217.4 251.65 217.75 251.65 217.75 251.35 217.55 251.2 217.4 251.05 217.1 251.05
M 213.95 251.65
Q 214.25 251.65 214.45 251.5 214.6 251.35 214.6 251.05 214.25 251.05 213.95 251.05 213.95 251.35 213.95 251.65
M 299.95 248.05
Q 299.75 247.9 299.45 247.9 299.45 248.2 299.6 248.35 299.75 248.5 300.1 248.5 300.1 248.2 299.95 248.05
M 155.5 249.15
Q 155.8 249.15 155.95 249 156.1 248.85 156.1 248.5 155.8 248.5 155.5 248.5 155.5 248.85 155.5 249.15 Z"/>

<path fill="#000000" fill-opacity="0.43137254901960786" stroke="none" d="
M 212.7 251.95
L 212.7 251.65
Q 212.4 251.65 212.05 251.65 212.4 251.95 212.7 251.95
M 231.55 249.75
Q 231.55 250.1 231.7 250.25 231.85 250.4 232.2 250.4 232.2 250.1 232.05 249.95 231.85 249.75 231.55 249.75
M 138.5 257.95
Q 138.85 257.95 139 257.8 139.15 257.65 139.15 257.3 138.85 257.3 138.5 257.3 138.5 257.65 138.5 257.95
M 343.95 241.15
Q 343.75 240.95 343.45 240.95 343.45 241.3 343.45 241.6 343.75 241.6 344.1 241.6 344.1 241.3 343.95 241.15
M 406.8 243
Q 406.65 242.85 406.3 242.85 406.3 243.15 406.5 243.35 406.65 243.5 406.95 243.5 406.95 243.15 406.8 243 Z"/>

<path fill="#000000" fill-opacity="0.42745098039215684" stroke="none" d="
M 216.45 249.15
Q 216.8 249.15 217.1 249.15 217.4 249.15 217.75 249.15 217.75 248.85 217.6 248.75 217.1 248.5 216.45 248.5 216.45 248.85 216.45 249.15
M 240.35 245.35
Q 240.35 245.7 240.35 246 240.7 246 241 246 241 245.7 240.85 245.55 240.7 245.35 240.35 245.35
M 388.7 234.7
Q 388.4 234.7 388.1 234.7 388.4 235 388.7 235
L 388.7 234.7
M 414.35 243.65
Q 414.2 243.5 413.85 243.5 413.85 243.8 414 243.95 414.2 244.1 414.5 244.1 414.5 243.8 414.35 243.65 Z"/>

<path fill="#000000" fill-opacity="0.396078431372549" stroke="none" d="
M 222.75 251.65
Q 223.05 251.65 223.25 251.5 223.4 251.35 223.4 251.05 223.05 251.05 222.75 251.05 222.75 251.35 222.75 251.65
M 176.85 242.25
Q 176.55 242.25 176.25 242.25 176.55 242.55 176.85 242.55
L 176.85 242.25
M 304.5 247.9
Q 304.15 247.9 303.85 247.9 304.15 248.2 304.5 248.2
L 304.5 247.9
M 341.55 240.05
L 341.55 239.7
Q 341.25 239.7 340.95 239.7 341.25 240.05 341.55 240.05 Z"/>

<path fill="#000000" fill-opacity="0.403921568627451" stroke="none" d="
M 224 249.15
Q 224.35 249.15 224.5 249 224.65 248.85 224.65 248.5 224.35 248.5 224 248.5 224 248.85 224 249.15
M 274.95 234.05
Q 274.95 234.35 275.1 234.55 275.25 234.7 275.55 234.7 275.55 234.35 275.4 234.2 275.25 234.05 274.95 234.05
M 352.25 239.7
Q 352.25 240.05 352.25 240.35 352.55 240.35 352.75 240.2 352.9 240.05 352.9 239.7 352.55 239.7 352.25 239.7 Z"/>

<path fill="#000000" fill-opacity="0.4392156862745098" stroke="none" d="
M 234.55 250.25
Q 234.7 250.1 234.7 249.75 234.4 249.75 234.05 249.75 234.05 250.1 234.05 250.4 234.4 250.4 234.55 250.25
M 268 236.55
Q 268.35 236.55 268.5 236.4 268.65 236.25 268.65 235.95 268.35 235.95 268 235.95 268 236.25 268 236.55
M 414.5 246.65
Q 414.8 246.65 414.95 246.45 415.15 246.3 415.15 246 414.8 246 414.5 246 414.5 246.3 414.5 246.65 Z"/>

<path fill="#000000" fill-opacity="0.4" stroke="none" d="
M 187.55 244.75
Q 187.55 245.05 187.7 245.2 187.85 245.35 188.2 245.35 188.2 245.05 188.05 244.9 187.85 244.75 187.55 244.75
M 284.35 241.6
Q 284.35 241.9 284.35 242.25 284.7 242.25 285 242.25 285 241.9 284.85 241.75 284.7 241.6 284.35 241.6 Z"/>

<path fill="#000000" fill-opacity="0.40784313725490196" stroke="none" d="
M 185.05 244.1
Q 185.05 244.45 185.2 244.6 185.35 244.75 185.65 244.75 185.65 244.45 185.5 244.25 185.35 244.1 185.05 244.1
M 173.7 242.25
Q 173.7 241.9 173.6 241.85 173.1 241.6 172.45 241.6 172.8 241.9 173.15 242.1 173.4 242.25 173.7 242.25
M 365.45 234.7
Q 365.15 234.7 364.85 234.7 364.85 235 364.85 235.3 365.15 235.3 365.3 235.15 365.45 235 365.45 234.7 Z"/>

<path fill="#000000" fill-opacity="0.4117647058823529" stroke="none" d="
M 178.75 242.85
Q 178.75 242.55 178.6 242.4 178.45 242.25 178.15 242.25 178.15 242.55 178.3 242.7 178.45 242.85 178.75 242.85
M 168.7 241.6
Q 168.7 241.9 168.7 242.25 169 242.25 169.3 242.25 169.3 241.9 169.15 241.75 169 241.6 168.7 241.6
M 280.45 242.4
Q 280.3 242.25 279.95 242.25 279.95 242.55 280.1 242.7 280.3 242.85 280.6 242.85 280.6 242.55 280.45 242.4
M 256.1 242.85
Q 256.4 242.85 256.55 242.7 256.7 242.55 256.7 242.25 256.4 242.25 256.1 242.25 256.1 242.55 256.1 242.85
M 137.75 262.2
Q 137.9 262.05 137.9 261.7 137.6 261.7 137.25 261.7 137.25 262.05 137.25 262.35 137.6 262.35 137.75 262.2
M 338.45 240.35
Q 338.1 240.35 337.8 240.35 337.8 240.65 337.8 240.95 338.1 240.95 338.25 240.8 338.45 240.65 338.45 240.35 Z"/>

<path fill="#000000" fill-opacity="0.4235294117647059" stroke="none" d="
M 181.1 243
Q 180.95 242.85 180.65 242.85 180.65 243.15 180.8 243.35 180.95 243.5 181.25 243.5 181.25 243.15 181.1 243
M 257.35 239.1
Q 257.35 239.4 257.35 239.7 257.65 239.7 257.8 239.55 257.95 239.4 257.95 239.1 257.65 239.1 257.35 239.1
M 359.8 235.95
Q 360.45 235.95 360.95 235.7 361.05 235.65 361.05 235.3 360.75 235.3 360.45 235.3 360.1 235.3 359.8 235.3 359.8 235.65 359.8 235.95
M 373 234.05
Q 373 234.35 373 234.7 373.3 234.7 373.5 234.55 373.65 234.35 373.65 234.05 373.3 234.05 373 234.05 Z"/>

<path fill="#000000" fill-opacity="0.4588235294117647" stroke="none" d="
M 234.05 247.25
Q 233.75 247.25 233.45 247.25 233.45 247.55 233.45 247.9 233.75 247.9 233.9 247.75 234.05 247.55 234.05 247.25
M 284.2 244.25
Q 284.05 244.1 283.75 244.1 283.75 244.45 283.9 244.6 284.05 244.75 284.35 244.75 284.35 244.45 284.2 244.25
M 374.25 236.55
Q 374.25 236.9 374.25 237.2 374.6 237.2 374.9 237.2 374.9 236.9 374.75 236.75 374.6 236.55 374.25 236.55 Z"/>

<path fill="#000000" fill-opacity="0.4470588235294118" stroke="none" d="
M 281.7 243
Q 281.55 242.85 281.2 242.85 281.2 243.15 281.4 243.35 281.55 243.5 281.85 243.5 281.85 243.15 281.7 243
M 256.7 239.7
Q 256.4 239.7 256.1 239.7 256.1 240.05 256.1 240.35 256.4 240.35 256.55 240.2 256.7 240.05 256.7 239.7
M 313.9 245.35
Q 314.25 245.35 314.4 245.2 314.55 245.05 314.55 244.75 314.25 244.75 313.9 244.75 313.9 245.05 313.9 245.35
M 288.15 246
Q 288.15 246.3 288.3 246.45 288.45 246.65 288.75 246.65 288.75 246.3 288.6 246.15 288.45 246 288.15 246
M 354.75 236.55
Q 354.75 236.9 354.75 237.2 355.1 237.2 355.25 237.05 355.4 236.9 355.4 236.55 355.1 236.55 354.75 236.55
M 336.55 241.3
L 336.55 240.95
Q 336.25 240.95 335.9 240.95 336.25 241.3 336.55 241.3 Z"/>

<path fill="#000000" fill-opacity="0.4549019607843137" stroke="none" d="
M 247.3 246
Q 247.3 246.3 247.3 246.65 247.6 246.65 247.75 246.45 247.9 246.3 247.9 246 247.6 246 247.3 246
M 349.6 238.3
Q 349.75 238.15 349.75 237.85 349.45 237.85 349.1 237.85 349.1 238.15 349.1 238.45 349.45 238.45 349.6 238.3
M 377.4 234.05
Q 377.4 234.35 377.4 234.7 377.7 234.7 378.05 234.7 378.05 234.35 377.9 234.2 377.7 234.05 377.4 234.05 Z"/>

<path fill="#000000" fill-opacity="0.44313725490196076" stroke="none" d="
M 245.4 246.65
Q 245.4 246.95 245.4 247.25 245.7 247.25 245.85 247.1 246 246.95 246 246.65 245.7 246.65 245.4 246.65 Z"/>

<path fill="#000000" fill-opacity="0.4196078431372549" stroke="none" d="
M 321.45 246.65
Q 321.75 246.65 321.95 246.45 322.1 246.3 322.1 246 321.75 246 321.45 246 321.45 246.3 321.45 246.65
M 318.3 246.65
Q 318 246.65 317.7 246.65 317.7 246.95 317.7 247.25 318 247.25 318.15 247.1 318.3 246.95 318.3 246.65
M 293 244.25
Q 292.85 244.1 292.55 244.1 292.55 244.45 292.7 244.6 292.85 244.75 293.15 244.75 293.15 244.45 293 244.25
M 145.9 255.25
Q 146.05 255.1 146.05 254.8 145.75 254.8 145.45 254.8 145.45 255.1 145.45 255.45 145.75 255.45 145.9 255.25
M 149.85 248.5
Q 149.85 248.85 149.85 249.15 150.15 249.15 150.3 249 150.45 248.85 150.45 248.5 150.15 248.5 149.85 248.5 Z"/>

<path fill="#000000" fill-opacity="0.45098039215686275" stroke="none" d="
M 293.15 247.25
Q 292.85 247.25 292.55 247.25 292.85 247.55 293.15 247.55
L 293.15 247.25
M 153.6 249.75
Q 153.9 249.75 154.1 249.6 154.25 249.45 154.25 249.15 153.9 249.15 153.6 249.15 153.6 249.45 153.6 249.75
M 325.85 242.85
Q 325.85 243.15 325.85 243.5 326.15 243.5 326.35 243.35 326.5 243.15 326.5 242.85 326.15 242.85 325.85 242.85 Z"/>

<path fill="#000000" fill-opacity="0.47058823529411764" stroke="none" d="
M 134.9 260.95
Q 135.05 261.1 135.4 261.1 135.4 260.75 135.4 260.45 135.05 260.45 134.75 260.45 134.75 260.75 134.9 260.95 Z"/>

<path fill="#000000" fill-opacity="0.41568627450980394" stroke="none" d="
M 358.4 238.95
Q 358.55 238.75 358.55 238.45 358.25 238.45 357.9 238.45 357.9 238.75 357.9 239.1 358.25 239.1 358.4 238.95
M 414.5 247.25
Q 414.2 247.25 413.85 247.25 413.85 247.55 413.85 247.9 414.2 247.9 414.35 247.75 414.5 247.55 414.5 247.25 Z"/>

<path fill="#000000" fill-opacity="0.9176470588235294" stroke="none" d="
M 406.3 242.85
Q 406.65 242.85 406.8 243 406.95 243.15 406.95 243.5 409.7 244.8 411.7 246.95 412 247.25 412.55 247.45 412.9 247.55 413.3 247.75 413.55 247.9 413.85 247.9 413.85 247.55 413.85 247.25 414.2 247.25 414.5 247.25 414.5 246.95 414.5 246.65 414.5 246.3 414.5 246 414.8 246 415.15 246 415.15 245.7 415.05 245.4 414.8 244.75 414.5 244.1 414.2 244.1 414 243.95 413.85 243.8 413.85 243.5 413.55 243.5 413.35 243.35 403.3 236.8 388.7 234.7
L 388.7 235
Q 388.4 235 388.1 234.7 387.15 234.7 386.25 234.45 385.9 234.35 385.55 234.3 381.1 233.65 378.05 234.7 377.7 234.7 377.4 234.7 377.1 234.7 376.8 234.6 375.4 234.2 373.65 234.05 373.65 234.35 373.5 234.55 373.3 234.7 373 234.7 370.8 234.7 368.65 235.1 367.65 235.3 365.45 234.7 365.45 235 365.3 235.15 365.15 235.3 364.85 235.3 364.5 235.3 364.2 235.3 362.65 235.3 361.05 235.3 361.05 235.65 360.95 235.7 360.45 235.95 359.8 235.95 359.5 235.95 359.3 236.1 358.05 237 355.4 236.55 355.4 236.9 355.25 237.05 355.1 237.2 354.75 237.2 354.45 237.2 354.15 237.25 352.1 237.65 349.75 237.85 349.75 238.15 349.6 238.3 349.45 238.45 349.1 238.45 348.8 238.45 348.5 238.5 344.65 238.7 341.55 239.7
L 341.55 240.05
Q 341.25 240.05 340.95 239.7 340.65 239.7 340.55 239.85 340.15 240.8 338.45 240.35 338.45 240.65 338.25 240.8 338.1 240.95 337.8 240.95 337.5 240.95 337.15 240.95 336.85 240.95 336.55 240.95
L 336.55 241.3
Q 336.25 241.3 335.9 240.95 335.6 240.95 335.3 241.05 331.4 242.4 326.5 242.85 326.5 243.15 326.35 243.35 326.15 243.5 325.85 243.5 322.5 243.25 320.15 244 317.7 244.75 314.55 244.75 314.55 245.05 314.4 245.2 314.25 245.35 313.9 245.35 312.05 245.35 310.15 245.6 309.5 245.7 308.9 245.7 307.65 245.7 306.35 245.7 305.1 245.7 303.85 245.7 303.25 245.7 302.65 245.7 299.95 245.85 298.8 245.75 295.65 245.4 293.15 244.75 292.85 244.75 292.7 244.6 292.55 244.45 292.55 244.1 292.2 244.1 291.9 244.1 287.85 243.75 285 242.25 284.7 242.25 284.35 242.25 283.1 241.3 281.75 240.5 277.9 238.3 275.55 234.7 275.25 234.7 275.1 234.55 274.95 234.35 274.95 234.05 274.6 233.75 274.55 233.35 274.3 232.5 274.05 231.6 272.95 227.5 269.95 230.3 268.65 231.55 267.3 232.7 263.1 236.35 257.95 239.1 257.95 239.4 257.8 239.55 257.65 239.7 257.35 239.7 257 239.7 256.7 239.7 256.7 240.05 256.55 240.2 256.4 240.35 256.1 240.35 254.5 240.95 252.9 241.55 251.05 242.25 249.25 243 248.85 243.15 248.45 243.25 244.2 244.2 241 246 240.7 246 240.35 246 240.05 246 239.75 246.05 237.05 246.75 234.05 247.25 234.05 247.55 233.9 247.75 233.75 247.9 233.45 247.9 232.2 247.9 231 248.15
L 230.6 248.2
Q 230.4 247.5 229.1 248 227.25 248.6 224.65 248.5 224.65 248.85 224.5 249 224.35 249.15 224 249.15 223.7 248.85 223.3 248.7 222.75 248.5 222.25 248.75 220.7 249.6 217.75 249.15 217.4 249.15 217.1 249.15 216.8 249.15 216.45 249.15 214.25 249.15 212.1 248.85 211.75 248.85 211.7 248.85 210.65 249.6 208.35 248.9 208 248.85 207.85 248.9 207.4 249.1 205.15 248.55 203.1 248.05 200.8 247.75 199.5 247.55 198.25 247.5 194.4 247.3 191.9 246.1 190.4 245.35 188.2 245.35 187.85 245.35 187.7 245.2 187.55 245.05 187.55 244.75 187.25 244.75 186.95 244.75 186.3 244.75 185.65 244.75 185.35 244.75 185.2 244.6 185.05 244.45 185.05 244.1 184.75 244.1 184.45 244 183.05 243.6 181.25 243.5 180.95 243.5 180.8 243.35 180.65 243.15 180.65 242.85 180.35 242.85 180 242.85 179.4 242.85 178.75 242.85 178.45 242.85 178.3 242.7 178.15 242.55 178.15 242.25 177.8 242.25 177.5 242.25 177.2 242.25 176.85 242.25
L 176.85 242.55
Q 176.55 242.55 176.25 242.25 175.9 242.25 175.6 242.25 174.65 242.25 173.7 242.25 173.4 242.25 173.15 242.1 172.8 241.9 172.45 241.6 172.15 241.6 171.95 241.75 171 242.4 169.3 242.25 169 242.25 168.7 242.25 166.55 242.85 165.45 242.6 165.25 242.55 164.85 242.65 161.6 243.6 158.7 244.9 158.3 245.05 158 245.1 155.3 245.55 153.75 246.8 152.4 247.95 150.45 248.5 150.45 248.85 150.3 249 150.15 249.15 149.85 249.15 149.5 249.15 149.35 249.3 144.6 253.35 139.15 256.7 139.15 257 139.15 257.3 139.15 257.65 139 257.8 138.85 257.95 138.5 257.95 138.2 257.95 138 258.1 136.8 259.05 135.4 259.85 135.4 260.15 135.4 260.45 135.4 260.75 135.4 261.1 134.95 262.75 136.65 262.4 136.95 262.35 137.25 262.35 137.25 262.05 137.25 261.7 137.6 261.7 137.9 261.7 141.75 258.95 144.95 255.6 145.1 255.45 145.45 255.45 145.45 255.1 145.45 254.8 145.75 254.8 146.05 254.8 146.05 254.5 146.05 254.15 149.85 252.3 153.1 249.95 153.3 249.75 153.6 249.75 153.6 249.45 153.6 249.15 153.9 249.15 154.25 249.15 154.55 249.15 154.85 249.15 155.2 249.15 155.5 249.15 155.5 248.85 155.5 248.5 155.8 248.5 156.1 248.5 159 248.6 160.3 246.95 160.5 246.65 161.05 246.4 161.95 245.85 163.65 245.85 165.05 245.85 165.85 245.05 166.2 244.75 166.65 245 168.35 245.95 169.3 243.5 172.2 245.3 177.5 245.1 178.75 245.05 180 245.35 183.8 246.3 187.5 247.45 187.85 247.55 188.2 247.6 191.75 248.05 194.4 249.35 196.2 250.25 199.5 250.1 199.8 250.1 200.15 250.1 202.35 250.35 203.85 251.15 204.2 251.35 204.55 251.35 205.8 251.35 207.05 251.35 207.65 251.35 208.25 251.3 210.55 251.1 210.95 251.4 211.45 251.65 212.05 251.65 212.4 251.65 212.7 251.65 213 251.65 213.35 251.65 213.65 251.65 213.95 251.65 213.95 251.35 213.95 251.05 214.25 251.05 214.6 251.05 215.55 251.05 216.45 251.05 216.8 251.05 217.1 251.05 217.4 251.05 217.55 251.2 217.75 251.35 217.75 251.65 219.95 251.65 222.15 251.65 222.45 251.65 222.75 251.65 222.75 251.35 222.75 251.05 223.05 251.05 223.4 251.05 224.5 251.55 227.1 250.8 229.15 250.2 231.55 249.75 231.85 249.75 232.05 249.95 232.2 250.1 232.2 250.4 232.8 250.4 233.45 250.4 233.75 250.4 234.05 250.4 234.05 250.1 234.05 249.75 234.4 249.75 234.7 249.75 236.85 249.45 238.55 248.85 239 248.7 241.6 247.8 243.15 247.25 245.4 247.25 245.4 246.95 245.4 246.65 245.7 246.65 246 246.65 246.35 246.65 246.65 246.65 246.95 246.65 247.3 246.65 247.3 246.3 247.3 246 247.6 246 247.9 246 250.35 245.6 252.35 244.95 254.65 244.25 256.1 242.85 256.1 242.55 256.1 242.25 256.4 242.25 256.7 242.25 262.7 240.05 267.5 236.75 267.7 236.55 268 236.55 268 236.25 268 235.95 268.35 235.95 268.65 235.95 269.8 233.95 271.5 235.65 273.5 237.7 275.65 239.65 277.45 241.3 279.95 242.25 280.3 242.25 280.45 242.4 280.6 242.55 280.6 242.85 280.9 242.85 281.2 242.85 281.55 242.85 281.7 243 281.85 243.15 281.85 243.5 282.5 243.8 283.15 244 283.4 244.1 283.75 244.1 284.05 244.1 284.2 244.25 284.35 244.45 284.35 244.75 286.4 244.95 287.65 245.85 287.8 246 288.15 246 288.45 246 288.6 246.15 288.75 246.3 288.75 246.65 290.55 246.75 291.95 247.15 292.2 247.25 292.55 247.25 292.85 247.25 293.15 247.25 295.3 248.25 298.85 247.9 299.15 247.9 299.45 247.9 299.75 247.9 299.95 248.05 300.1 248.2 300.1 248.5 302.2 248.75 303.3 248.05 303.55 247.9 303.85 247.9 304.15 247.9 304.5 247.9 307 248.2 309.5 248.2 310.75 248.2 312.05 247.95 314.75 247.45 317.7 247.25 317.7 246.95 317.7 246.65 318 246.65 318.3 246.65 319.55 246.65 320.85 246.65 321.15 246.65 321.45 246.65 321.45 246.3 321.45 246 321.75 246 322.1 246 323.45 245.5 325.25 245.45 328.3 245.3 330.4 244.35 330.9 244.1 331.35 243.85 333.3 242.75 334.2 243.1 335.75 243.65 336.7 243.25 337.8 242.85 339.05 242.7 340.3 242.55 341.5 242.05 341.9 241.9 342.25 241.8 342.85 241.6 343.45 241.6 343.45 241.3 343.45 240.95 343.75 240.95 343.95 241.15 344.1 241.3 344.1 241.6 345.45 240.8 347.9 241.25 348.15 241.3 348.5 241 349.8 240.05 352.25 240.35 352.25 240.05 352.25 239.7 352.55 239.7 352.9 239.7 353.85 239.1 356.05 239.35 356.35 239.4 356.7 239.25 357.3 239.1 357.9 239.1 357.9 238.75 357.9 238.45 358.25 238.45 358.55 238.45 361.95 237.5 366.7 237.5 367.05 237.5 367.4 237.3 369.3 236.4 372.4 237 373.3 237.2 374.25 237.2 374.25 236.9 374.25 236.55 374.6 236.55 374.75 236.75 374.9 236.9 374.9 237.2 379 237.25 382.45 236.9 382.75 236.9 383.05 236.9 383.7 236.9 384.35 236.8 388.15 236.5 390.75 237.5 391.55 237.85 392.45 238 394.4 238.45 396.15 239.35 397.3 239.95 399.4 240.05 399.7 240.05 400.1 240.1 403.75 241.05 406.3 242.85 Z"/>
</g>

<g id="Layer1_0_FILL">
<path fill="#000000" fill-opacity="0.5803921568627451" stroke="none" d="
M 297.9 214.8
Q 297.9 215.1 298.05 215.35 298.25 215.5 298.55 215.5 298.55 215.1 298.4 214.95 298.25 214.8 297.9 214.8 Z"/>

<path fill="#000000" fill-opacity="0.7568627450980392" stroke="none" d="
M 297.1 211.35
Q 297.2 211.1 297.2 210.8 296.9 210.8 296.5 210.8 296.5 211.1 296.5 211.4 296.5 211.75 296.5 212.1 296.9 211.75 297.1 211.35 Z"/>

<path fill="#000000" fill-opacity="0.4588235294117647" stroke="none" d="
M 300.6 214.15
Q 300.9 214.15 301.05 213.95 301.3 213.8 301.3 213.45 300.9 213.45 300.6 213.45 300.6 213.8 300.6 214.15
M 312.65 204.7
Q 312.35 204.7 312.05 204.7 312.05 205.05 312.05 205.4 312.35 205.4 312.5 205.2 312.65 205.05 312.65 204.7
M 413.45 210.25
Q 413.25 210.1 412.95 210.1 412.95 210.4 413.1 210.55 413.25 210.8 413.6 210.8 413.6 210.4 413.45 210.25
M 436.35 216.3
Q 436.1 216.15 435.8 216.15 435.8 216.5 435.95 216.65 436.1 216.85 436.5 216.85 436.5 216.5 436.35 216.3 Z"/>

<path fill="#000000" fill-opacity="0.4392156862745098" stroke="none" d="
M 299.25 214.8
Q 299.25 215.1 299.25 215.5 299.55 215.5 299.7 215.35 299.9 215.1 299.9 214.8 299.55 214.8 299.25 214.8
M 310.7 205.4
Q 310.3 205.4 310 205.4 310 205.7 310 206.05 310.3 206.05 310.5 205.85 310.7 205.7 310.7 205.4 Z"/>

<path fill="#000000" fill-opacity="0.5215686274509804" stroke="none" d="
M 303.1 212.6
Q 303.25 212.45 303.25 212.1 302.95 212.1 302.6 212.1 302.6 212.45 302.6 212.75 302.95 212.75 303.1 212.6 Z"/>

<path fill="#000000" fill-opacity="0.4745098039215686" stroke="none" d="
M 301.75 213.3
Q 301.9 213.15 301.9 212.75 301.6 212.75 301.3 212.75 301.3 213.15 301.3 213.45 301.6 213.45 301.75 213.3
M 305.75 207.9
Q 306 207.75 306 207.4 305.6 207.4 305.3 207.4 305.3 207.75 305.3 208.05 305.6 208.05 305.75 207.9
M 406.85 210.15
Q 407.25 210.1 407.55 210.1 407.55 209.75 407.5 209.7 406.2 209.4 404.85 209.4 405.1 210.55 406.85 210.15
M 426.4 214.15
Q 426.4 214.45 426.55 214.65 426.7 214.8 427.1 214.8 427.1 214.45 426.9 214.3 426.7 214.15 426.4 214.15
M 470.1 214.8
Q 470.1 215.1 470.1 215.5 470.45 215.5 470.65 215.35 470.8 215.1 470.8 214.8 470.45 214.8 470.1 214.8 Z"/>

<path fill="#000000" fill-opacity="0.43137254901960786" stroke="none" d="
M 302.6 208.75
Q 302.25 208.75 301.9 208.75 301.9 209.05 301.9 209.4 302.25 209.4 302.45 209.25 302.6 209.05 302.6 208.75
M 372.55 202
Q 372.95 202 373.25 202 373.25 201.7 373.1 201.5 372.95 201.35 372.55 201.35 372.55 201.7 372.55 202
M 459.35 216.85
Q 459 216.85 458.7 216.85 457.7 216.85 456.65 216.85 456.65 217.15 456.65 217.45 458 217.45 459.3 217.2 459.35 217.15 459.35 216.85
M 445.9 219.8
L 445.9 219.5
Q 445.55 219.5 445.2 219.5 445.55 219.8 445.9 219.8 Z"/>

<path fill="#000000" fill-opacity="0.5254901960784314" stroke="none" d="
M 299.9 210.1
Q 299.55 210.1 299.25 210.1 299.25 210.4 299.25 210.8 299.55 210.8 299.7 210.55 299.9 210.4 299.9 210.1
M 408.8 210.35
Q 408.25 210.1 407.55 210.1 407.85 210.4 408.3 210.6 408.55 210.8 408.9 210.8 408.9 210.4 408.8 210.35 Z"/>

<path fill="#000000" fill-opacity="0.4117647058823529" stroke="none" d="
M 300.6 209.4
Q 300.6 209.75 300.6 210.1 300.9 210.1 301.05 209.9 301.3 209.75 301.3 209.4 300.9 209.4 300.6 209.4
M 412.25 210.1
Q 412.25 209.75 412.1 209.6 411.95 209.4 411.55 209.4 411.55 209.75 411.75 209.9 411.95 210.1 412.25 210.1
M 474.8 213.45
Q 474.5 213.45 474.15 213.45 474.15 213.8 474.15 214.15 474.5 214.15 474.65 213.95 474.8 213.8 474.8 213.45 Z"/>

<path fill="#000000" fill-opacity="0.4980392156862745" stroke="none" d="
M 303.95 211.4
Q 303.95 211.75 303.95 212.1 304.25 212.1 304.45 211.95 304.6 211.75 304.6 211.4 304.25 211.4 303.95 211.4
M 420.4 214.7
Q 420.65 214.8 421 214.8 421 214.45 420.85 214.4 420.35 214.15 419.65 214.15 420 214.45 420.4 214.7
M 476.15 212.75
Q 476.15 213.15 476.15 213.45 476.5 213.45 476.7 213.3 476.85 213.15 476.85 212.75 476.5 212.75 476.15 212.75
M 468.1 215.5
Q 467.75 215.5 467.4 215.5 467.35 216.55 468.65 215.85 468.75 215.8 468.75 215.5 468.45 215.5 468.1 215.5 Z"/>

<path fill="#000000" fill-opacity="0.45098039215686275" stroke="none" d="
M 311.35 208.05
Q 311.35 208.45 311.35 208.75 311.65 208.75 311.85 208.6 312.05 208.45 312.05 208.05 311.65 208.05 311.35 208.05
M 416.1 212.95
Q 415.95 212.75 415.65 212.75 415.65 213.15 415.8 213.3 415.95 213.45 416.25 213.45 416.25 213.15 416.1 212.95
M 428.4 216.85
Q 428.4 217.15 428.6 217.3 428.75 217.45 429.05 217.45 429.05 217.15 428.9 217 428.75 216.85 428.4 216.85 Z"/>

<path fill="#000000" fill-opacity="0.4823529411764706" stroke="none" d="
M 307.95 210.1
Q 307.65 210.1 307.3 210.1 307.3 210.4 307.3 210.8 307.65 210.8 307.8 210.55 307.95 210.4 307.95 210.1
M 487.6 208.75
Q 487.6 209.05 487.6 209.4 487.9 209.4 488.15 209.25 488.3 209.05 488.3 208.75 487.9 208.75 487.6 208.75
M 396.1 206.05
Q 396.1 206.4 396.25 206.55 396.45 206.7 396.8 206.7 396.8 206.4 396.65 206.25 396.45 206.05 396.1 206.05
M 448.65 218.2
Q 448.9 218.15 449.3 218.15 449.3 217.85 449.2 217.8 448.25 217.45 447.25 217.45 447.2 218.6 448.65 218.2 Z"/>

<path fill="#000000" fill-opacity="0.47058823529411764" stroke="none" d="
M 307.3 206.7
Q 306.95 206.7 306.65 206.7 306.65 207.05 306.65 207.4 306.95 207.4 307.15 207.25 307.3 207.05 307.3 206.7
M 492.85 203.2
Q 493 203 493 202.7 492.7 202.7 492.3 202.7 492.3 203 492.3 203.35 492.7 203.35 492.85 203.2
M 436.5 218.15
Q 436.5 218.5 436.65 218.65 436.8 218.85 437.15 218.85 437.15 218.5 437 218.3 436.8 218.15 436.5 218.15 Z"/>

<path fill="#000000" fill-opacity="0.5529411764705883" stroke="none" d="
M 321.95 205.85
Q 322.1 205.7 322.1 205.4 321.75 205.4 321.45 205.4 321.45 205.7 321.45 206.05 321.75 206.05 321.95 205.85
M 492.3 205.4
Q 492.3 205.7 492.3 206.05 492.7 206.05 492.85 205.85 493 205.7 493 205.4 492.7 205.4 492.3 205.4 Z"/>

<path fill="#000000" fill-opacity="0.4549019607843137" stroke="none" d="
M 317.4 206.7
Q 317.05 206.7 316.75 206.7 316.75 207.05 316.75 207.4 317.05 207.4 317.2 207.25 317.4 207.05 317.4 206.7
M 457.3 219.5
Q 457 219.5 456.65 219.5 457 219.8 457.3 219.8
L 457.3 219.5 Z"/>

<path fill="#000000" fill-opacity="0.596078431372549" stroke="none" d="
M 318.7 206.05
Q 318.7 206.4 318.7 206.7 319.1 206.7 319.25 206.55 319.4 206.4 319.4 206.05 319.1 206.05 318.7 206.05 Z"/>

<path fill="#000000" fill-opacity="0.6039215686274509" stroke="none" d="
M 316.75 204.05
Q 316.35 204.05 316.05 204.05 316.05 204.35 316.05 204.7 316.35 204.7 316.6 204.5 316.75 204.35 316.75 204.05
M 349.55 199.8
Q 349.7 199.65 349.7 199.35 349.35 199.35 349 199.35 349 199.65 349 199.95 349.35 199.95 349.55 199.8 Z"/>

<path fill="#000000" fill-opacity="0.5058823529411764" stroke="none" d="
M 321.45 203.35
Q 322.1 203.35 322.65 203.05 322.8 203 322.8 202.7 322.45 202.7 322.1 202.7 321.75 202.7 321.45 202.7 321.45 203 321.45 203.35
M 387.55 204.5
Q 387.7 204.7 388 204.7 388 204.35 387.85 204.2 387.7 204.05 387.35 204.05 387.35 204.35 387.55 204.5
M 412.25 212.1
Q 412.25 211.75 412.1 211.6 411.95 211.4 411.55 211.4 411.55 211.75 411.75 211.95 411.95 212.1 412.25 212.1
M 478.2 212.1
Q 477.85 212.1 477.55 212.1 477.55 212.45 477.55 212.75 477.85 212.75 478 212.6 478.2 212.45 478.2 212.1 Z"/>

<path fill="#000000" fill-opacity="0.43529411764705883" stroke="none" d="
M 494.65 204.05
Q 494.65 203.7 494.35 203.35 494.35 203.7 494.35 204.05
L 494.65 204.05
M 344.3 201.35
Q 344.3 201.7 344.45 201.85 344.6 202 345 202 345 201.7 344.85 201.5 344.6 201.35 344.3 201.35 Z"/>

<path fill="#000000" fill-opacity="0.5686274509803921" stroke="none" d="
M 494.35 202
Q 494.35 201.7 494.2 201.5 494 201.35 493.65 201.35 493.65 201.7 493.65 202 494 202 494.35 202
M 368.4 199.7
Q 368.55 199.65 368.55 199.35 368.2 199.35 367.85 199.35 367.5 199.35 367.2 199.35 367.1 200.45 368.4 199.7
M 472.85 214.15
Q 472.45 214.15 472.15 214.15 472.15 214.45 472.15 214.8 472.85 214.8 473.35 214.55 473.45 214.45 473.45 214.15 473.15 214.15 472.85 214.15 Z"/>

<path fill="#000000" fill-opacity="0.4666666666666667" stroke="none" d="
M 324.65 205.1
Q 324.8 205.05 324.8 204.7 324.45 204.7 324.1 204.7 323.8 204.7 323.45 204.7 323.45 205.05 323.45 205.4 324.1 205.4 324.65 205.1
M 466.55 215.95
Q 466.75 215.8 466.75 215.5 466.4 215.5 466.1 215.5 466.1 215.8 466.1 216.15 466.4 216.15 466.55 215.95 Z"/>

<path fill="#000000" fill-opacity="0.4235294117647059" stroke="none" d="
M 328.65 203.5
Q 328.5 203.35 328.15 203.35 328.15 203.7 328.15 204.05 328.5 204.05 328.85 204.05 328.85 203.7 328.65 203.5
M 328.15 202
Q 328.15 201.7 328 201.5 327.8 201.35 327.5 201.35 327.5 201.7 327.5 202 327.8 202 328.15 202
M 340.1 202.15
Q 339.9 202 339.6 202 339.6 202.35 339.75 202.55 339.9 202.7 340.3 202.7 340.3 202.35 340.1 202.15
M 354.4 201.35
Q 354.75 201.7 355.05 201.7
L 355.05 201.35
Q 354.75 201.35 354.4 201.35
M 417.7 214
Q 418 214.15 418.3 214.15 418.3 213.8 418.2 213.7 417.65 213.45 416.95 213.45 417.3 213.8 417.7 214 Z"/>

<path fill="#000000" fill-opacity="0.5098039215686274" stroke="none" d="
M 331.5 203.35
Q 331.2 203.35 330.85 203.35 331.2 203.7 331.5 203.7
L 331.5 203.35 Z"/>

<path fill="#000000" fill-opacity="0.403921568627451" stroke="none" d="
M 335.6 203.35
Q 335.9 203.35 336.05 203.2 336.2 203 336.2 202.7 335.9 202.7 335.6 202.7 335.6 203 335.6 203.35 Z"/>

<path fill="#000000" fill-opacity="0.4" stroke="none" d="
M 338.25 199.95
Q 338.25 200.35 338.25 200.65 338.55 200.65 338.95 200.65 338.95 200.35 338.75 200.2 338.55 199.95 338.25 199.95
M 413.6 212.1
Q 413.6 212.45 413.75 212.6 413.9 212.75 414.3 212.75 414.3 212.45 414.15 212.3 413.9 212.1 413.6 212.1 Z"/>

<path fill="#000000" fill-opacity="0.5176470588235295" stroke="none" d="
M 340.95 199.95
Q 340.6 199.95 340.3 199.95 340.3 200.35 340.3 200.65 340.6 200.65 340.75 200.5 340.95 200.35 340.95 199.95
M 359.75 202
Q 359.75 201.7 359.6 201.5 359.45 201.35 359.1 201.35 359.1 201.7 359.3 201.85 359.45 202 359.75 202 Z"/>

<path fill="#000000" fill-opacity="0.5137254901960784" stroke="none" d="
M 352.4 199.35
Q 352.6 200.45 354.25 199.7 354.4 199.65 354.4 199.35 354.05 199.35 353.7 199.35 353.05 199.35 352.4 199.35
M 402 208.2
Q 401.8 208.05 401.5 208.05 401.5 208.45 401.65 208.6 401.8 208.75 402.15 208.75 402.15 208.45 402 208.2
M 407.7 208.6
Q 407.85 208.75 408.25 208.75 408.25 208.45 408.05 208.2 407.85 208.05 407.55 208.05 407.55 208.45 407.7 208.6
M 439.7 217.1
Q 439.15 216.85 438.45 216.85 438.85 217.15 439.2 217.35 439.5 217.45 439.85 217.45 439.85 217.15 439.7 217.1
M 457.3 218.85
Q 457.3 219.2 457.3 219.5 457.7 219.5 457.85 219.35 458 219.2 458 218.85 458 218.5 457.85 218.3 457.7 218.15 457.3 218.15 457.3 218.5 457.3 218.85 Z"/>

<path fill="#000000" fill-opacity="0.5294117647058824" stroke="none" d="
M 357.8 201.35
Q 357.4 201.35 357.1 201.35 356.75 201.35 356.4 201.35 356.35 202.45 357.6 201.75 357.8 201.7 357.8 201.35 Z"/>

<path fill="#000000" fill-opacity="0.5333333333333333" stroke="none" d="
M 361 199.7
Q 361.1 199.65 361.1 199.35 360.8 199.35 360.45 199.35 360.15 199.35 359.75 199.35 359.7 200.45 361 199.7
M 371.9 202
Q 371.9 201.7 371.75 201.5 371.55 201.35 371.2 201.35 371.2 201.7 371.2 202 371.55 202 371.9 202
M 463.4 218.15
Q 463.75 218.5 464.05 218.5
L 464.05 218.15
Q 463.75 218.15 463.4 218.15 Z"/>

<path fill="#000000" fill-opacity="0.5372549019607843" stroke="none" d="
M 365.15 201.35
Q 365.15 201 365 200.95 364.45 200.65 363.85 200.65 363.85 201 363.85 201.35 364.15 201.35 364.45 201.35 364.85 201.35 365.15 201.35
M 430.45 215.5
Q 430.75 215.8 431.1 215.8
L 431.1 215.5
Q 430.75 215.5 430.45 215.5 Z"/>

<path fill="#000000" fill-opacity="0.4196078431372549" stroke="none" d="
M 376.8 200.5
Q 376.95 200.65 377.25 200.65 377.25 200.35 377.1 200.2 376.95 199.95 376.6 199.95 376.6 200.35 376.8 200.5
M 390.75 204.7
Q 390.35 204.7 390.05 204.7 389.75 204.7 389.4 204.7 389.3 205.8 390.6 205.1 390.75 205.05 390.75 204.7
M 425.05 216.15
Q 425.05 215.8 424.9 215.65 424.7 215.5 424.35 215.5 424.35 215.8 424.5 215.95 424.7 216.15 425.05 216.15
M 482.25 211.4
Q 481.85 211.4 481.55 211.4 481.55 211.75 481.55 212.1 481.85 212.1 482.05 211.95 482.25 211.75 482.25 211.4 Z"/>

<path fill="#000000" fill-opacity="0.48627450980392156" stroke="none" d="
M 384.5 203.5
Q 384.3 203.35 384 203.35 384 203.7 384.15 203.9 384.3 204.05 384.7 204.05 384.7 203.7 384.5 203.5 Z"/>

<path fill="#000000" fill-opacity="0.4627450980392157" stroke="none" d="
M 383.3 203.35
Q 383.3 203 383.15 202.85 383 202.7 382.65 202.7 382.65 203 382.8 203.2 383 203.35 383.3 203.35 Z"/>

<path fill="#000000" fill-opacity="0.592156862745098" stroke="none" d="
M 384.7 202
Q 384.7 201.7 384.5 201.5 384.3 201.35 384 201.35 384 201.7 384.15 201.85 384.3 202 384.7 202 Z"/>

<path fill="#000000" fill-opacity="0.49019607843137253" stroke="none" d="
M 380 202.7
Q 380 202.35 379.9 202.35 378.3 202 376.6 202 377.15 203.2 379.3 202.75 379.6 202.7 380 202.7
M 468.1 216.85
Q 467.75 216.85 467.4 216.85 467.4 217.15 467.4 217.45 467.75 217.45 467.9 217.3 468.1 217.15 468.1 216.85 Z"/>

<path fill="#000000" fill-opacity="0.4470588235294118" stroke="none" d="
M 391.4 205.4
Q 391.4 205.7 391.55 205.85 391.75 206.05 392.1 206.05 392.1 205.7 391.9 205.55 391.75 205.4 391.4 205.4 Z"/>

<path fill="#000000" fill-opacity="0.5450980392156862" stroke="none" d="
M 388.7 202.7
Q 388.7 203 388.85 203.2 389.05 203.35 389.4 203.35 389.4 203 389.2 202.85 389.05 202.7 388.7 202.7
M 386.7 202
Q 386.7 202.35 386.85 202.55 387.05 202.7 387.35 202.7 387.35 202.35 387.2 202.15 387.05 202 386.7 202
M 451.1 218
Q 451.25 217.85 451.25 217.45 450.95 217.45 450.6 217.45 450.6 217.85 450.6 218.15 450.95 218.15 451.1 218
M 484.75 209.25
Q 484.9 209.05 484.9 208.75 484.6 208.75 484.25 208.75 484.25 209.05 484.25 209.4 484.6 209.4 484.75 209.25 Z"/>

<path fill="#000000" fill-opacity="0.47843137254901963" stroke="none" d="
M 404.2 209.4
Q 404.2 209.05 404 208.9 403.85 208.75 403.55 208.75 403.55 209.05 403.7 209.25 403.85 209.4 404.2 209.4
M 419 212.1
Q 419 212.45 419.15 212.6 419.3 212.75 419.65 212.75 419.65 212.45 419.5 212.3 419.3 212.1 419 212.1
M 434.45 218.15
Q 434.45 217.85 434.35 217.8 433.45 217.45 432.45 217.45 432.35 218.6 433.8 218.2 434.15 218.15 434.45 218.15
M 470.8 216.15
Q 470.45 216.15 470.1 216.15 470.1 216.5 470.1 216.85 470.45 216.85 470.65 216.65 470.8 216.5 470.8 216.15 Z"/>

<path fill="#000000" fill-opacity="0.42745098039215684" stroke="none" d="
M 402.15 206.7
Q 402.15 206.4 402 206.25 401.8 206.05 401.5 206.05 401.5 206.4 401.65 206.55 401.8 206.7 402.15 206.7
M 462 218.85
Q 462.4 218.85 462.55 218.65 462.7 218.5 462.7 218.15 462.4 218.15 462 218.15 462 218.5 462 218.85 Z"/>

<path fill="#000000" fill-opacity="0.5411764705882353" stroke="none" d="
M 397.45 206.7
Q 397.8 207.05 398.2 207.25 398.45 207.4 398.8 207.4 398.8 207.05 398.65 207 398.15 206.7 397.45 206.7
M 447.9 219.5
Q 447.9 219.8 447.9 220.2 450.6 220.2 453.25 219.8 453.3 219.8 453.3 219.5 453 219.5 452.6 219.5 450.25 219.5 447.9 219.5
M 472.85 216.15
Q 473.15 216.15 473.3 215.95 473.45 215.8 473.45 215.5 473.15 215.5 472.85 215.5 472.85 215.8 472.85 216.15 Z"/>

<path fill="#000000" fill-opacity="0.49411764705882355" stroke="none" d="
M 423.55 215.85
Q 423.7 215.8 423.7 215.5 423.35 215.5 423 215.5 422.7 215.5 422.35 215.5 422.25 216.55 423.55 215.85
M 461.9 217.2
Q 462 217.15 462 216.85 461.7 216.85 461.4 216.85 460.7 216.85 460.05 216.85 460.2 217.95 461.9 217.2 Z"/>

<path fill="#000000" fill-opacity="0.5019607843137255" stroke="none" d="
M 423.15 213.95
Q 423.35 214.15 423.7 214.15 423.7 213.8 423.55 213.6 423.35 213.45 423 213.45 423 213.8 423.15 213.95
M 441.85 219.5
Q 441.85 219.8 442 220.05 442.2 220.2 442.55 220.2 442.55 219.8 442.4 219.65 442.2 219.5 441.85 219.5 Z"/>

<path fill="#000000" fill-opacity="0.41568627450980394" stroke="none" d="
M 421.2 215.35
Q 421.35 215.5 421.65 215.5 421.65 215.1 421.5 214.95 421.35 214.8 421 214.8 421 215.1 421.2 215.35 Z"/>

<path fill="#000000" fill-opacity="0.5568627450980392" stroke="none" d="
M 421.65 213.45
Q 421.65 213.15 421.5 212.95 421.35 212.75 421 212.75 421 213.15 421.2 213.3 421.35 213.45 421.65 213.45 Z"/>

<path fill="#000000" fill-opacity="0.5647058823529412" stroke="none" d="
M 431.1 217.45
Q 431.1 217.85 431.1 218.15 431.4 218.15 431.65 218 431.8 217.85 431.8 217.45 431.4 217.45 431.1 217.45
M 452.6 217.45
Q 452.3 217.45 451.95 217.45 452.3 217.85 452.6 217.85
L 452.6 217.45 Z"/>

<path fill="#000000" fill-opacity="0.5490196078431373" stroke="none" d="
M 464.75 216.15
Q 464.35 216.15 464.05 216.15 464.05 216.5 464.05 216.85 464.35 216.85 464.6 216.65 464.75 216.5 464.75 216.15 Z"/>

<path fill="#000000" fill-opacity="0.9333333333333333" stroke="none" d="
M 484.9 208.75
Q 484.9 209.05 484.75 209.25 484.6 209.4 484.25 209.4 483.9 209.4 483.65 209.55 480.95 210.9 478.2 212.1 478.2 212.45 478 212.6 477.85 212.75 477.55 212.75 477.15 212.75 476.85 212.75 476.85 213.15 476.7 213.3 476.5 213.45 476.15 213.45 475.8 213.45 475.5 213.45 475.2 213.45 474.8 213.45 474.8 213.8 474.65 213.95 474.5 214.15 474.15 214.15 473.8 214.15 473.45 214.15 473.45 214.45 473.35 214.55 472.85 214.8 472.15 214.8 471.8 214.8 471.45 214.8 471.1 214.8 470.8 214.8 470.8 215.1 470.65 215.35 470.45 215.5 470.1 215.5 469.8 215.5 469.45 215.5 469.1 215.5 468.75 215.5 468.75 215.8 468.65 215.85 467.35 216.55 467.4 215.5 467.1 215.5 466.75 215.5 466.75 215.8 466.55 215.95 466.4 216.15 466.1 216.15 465.75 216.15 465.4 216.15 465.05 216.15 464.75 216.15 464.75 216.5 464.6 216.65 464.35 216.85 464.05 216.85 463.75 216.85 463.4 216.85 462.7 216.85 462 216.85 462 217.15 461.9 217.2 460.2 217.95 460.05 216.85 459.65 216.85 459.35 216.85 459.35 217.15 459.3 217.2 458 217.45 456.65 217.45 456.35 217.45 455.95 217.45 454.3 217.45 452.6 217.45
L 452.6 217.85
Q 452.3 217.85 451.95 217.45 451.65 217.45 451.25 217.45 451.25 217.85 451.1 218 450.95 218.15 450.6 218.15 450.25 218.15 449.95 218.15 449.6 218.15 449.3 218.15 448.9 218.15 448.65 218.2 447.2 218.6 447.25 217.45 446.95 217.45 446.55 217.45 443.2 217.45 439.85 217.45 439.5 217.45 439.2 217.35 438.85 217.15 438.45 216.85 438.15 216.85 437.85 216.85 437.15 216.85 436.5 216.85 436.1 216.85 435.95 216.65 435.8 216.5 435.8 216.15 435.5 216.15 435.15 216.15 432.75 216.15 431.1 215.5
L 431.1 215.8
Q 430.75 215.8 430.45 215.5 430.05 215.5 429.75 215.5 427.95 215.65 427.1 214.8 426.7 214.8 426.55 214.65 426.4 214.45 426.4 214.15 426.05 214.15 425.75 214.15 424.7 214.15 423.7 214.15 423.35 214.15 423.15 213.95 423 213.8 423 213.45 422.7 213.45 422.35 213.45 422 213.45 421.65 213.45 421.35 213.45 421.2 213.3 421 213.15 421 212.75 420.65 212.75 420.35 212.75 420 212.75 419.65 212.75 419.3 212.75 419.15 212.6 419 212.45 419 212.1 418.6 212.1 418.35 212 416.2 211.2 413.6 210.8 413.25 210.8 413.1 210.55 412.95 210.4 412.95 210.1 412.6 210.1 412.25 210.1 411.95 210.1 411.75 209.9 411.55 209.75 411.55 209.4 411.25 209.4 410.9 209.35 409.6 209.05 408.25 208.75 407.85 208.75 407.7 208.6 407.55 208.45 407.55 208.05 407.25 208.05 406.85 208.05 404.3 207.7 402.15 206.7 401.8 206.7 401.65 206.55 401.5 206.4 401.5 206.05 398.3 205.6 395.45 204.65 392.7 203.7 389.4 203.35 389.05 203.35 388.85 203.2 388.7 203 388.7 202.7 388.4 202.7 388 202.7 387.7 202.7 387.35 202.7 387.05 202.7 386.85 202.55 386.7 202.35 386.7 202 386.35 202 386.05 202 385.35 202 384.7 202 384.3 202 384.15 201.85 384 201.7 384 201.35 383.7 201.35 383.35 201.25 380.7 200.6 377.25 200.65 376.95 200.65 376.8 200.5 376.6 200.35 376.6 199.95 376.25 199.95 375.9 199.95 371.45 199.9 368.55 199.35 368.55 199.65 368.4 199.7 367.1 200.45 367.2 199.35 366.85 199.35 366.5 199.35 363.85 199.35 361.1 199.35 361.1 199.65 361 199.7 359.7 200.45 359.75 199.35 359.45 199.35 359.1 199.35 356.75 199.35 354.4 199.35 354.4 199.65 354.25 199.7 352.6 200.45 352.4 199.35 352.05 199.35 351.7 199.35 350.7 199.35 349.7 199.35 349.7 199.65 349.55 199.8 349.35 199.95 349 199.95 348.7 199.95 348.35 199.95 344.6 199.95 340.95 199.95 340.95 200.35 340.75 200.5 340.6 200.65 340.3 200.65 339.9 200.65 339.6 200.65 339.25 200.65 338.95 200.65 338.55 200.65 338.25 200.65 337.95 200.65 337.55 200.7 332.8 201.25 328.15 202 327.8 202 327.5 202 327.2 202 326.8 202.05 324.8 202.35 322.8 202.7 322.8 203 322.65 203.05 322.1 203.35 321.45 203.35 321.05 203.35 320.75 203.35 318.35 203.35 316.75 204.05 316.75 204.35 316.6 204.5 316.35 204.7 316.05 204.7 315.7 204.7 315.4 204.7 314 204.7 312.65 204.7 312.65 205.05 312.5 205.2 312.35 205.4 312.05 205.4 311.65 205.4 311.35 205.4 311 205.4 310.7 205.4 310.7 205.7 310.5 205.85 310.3 206.05 310 206.05 309.7 206.05 309.55 206.2 309.15 207.2 307.3 206.7 307.3 207.05 307.15 207.25 306.95 207.4 306.65 207.4 306.3 207.4 306 207.4 306 207.75 305.75 207.9 305.6 208.05 305.3 208.05 304.95 208.05 304.7 208.2 303.9 208.7 302.6 208.75 302.6 209.05 302.45 209.25 302.25 209.4 301.9 209.4 301.6 209.4 301.3 209.4 301.3 209.75 301.05 209.9 300.9 210.1 300.6 210.1 300.25 210.1 299.9 210.1 299.9 210.4 299.7 210.55 299.55 210.8 299.25 210.8 298.9 210.8 298.55 210.8 297.9 210.8 297.2 210.8 297.2 211.1 297.1 211.35 296.9 211.75 296.5 212.1 296.4 213.95 297.8 214.4 297.9 214.45 297.9 214.8 298.25 214.8 298.4 214.95 298.55 215.1 298.55 215.5 298.9 215.5 299.25 215.5 299.25 215.1 299.25 214.8 299.55 214.8 299.9 214.8 299.9 214.45 299.9 214.15 300.25 214.15 300.6 214.15 300.6 213.8 300.6 213.45 300.9 213.45 301.3 213.45 301.3 213.15 301.3 212.75 301.6 212.75 301.9 212.75 302.25 212.75 302.6 212.75 302.6 212.45 302.6 212.1 302.95 212.1 303.25 212.1 303.65 212.1 303.95 212.1 303.95 211.75 303.95 211.4 304.25 211.4 304.6 211.4 305.95 211.4 306.75 210.95 306.95 210.8 307.3 210.8 307.3 210.4 307.3 210.1 307.65 210.1 307.95 210.1 309.55 209.65 310.75 208.85 311 208.75 311.35 208.75 311.35 208.45 311.35 208.05 311.65 208.05 312.05 208.05 313.65 207.35 316.05 207.4 316.35 207.4 316.75 207.4 316.75 207.05 316.75 206.7 317.05 206.7 317.4 206.7 317.75 206.7 318.1 206.7 318.4 206.7 318.7 206.7 318.7 206.4 318.7 206.05 319.1 206.05 319.4 206.05 320.1 206.05 320.75 206.05 321.05 206.05 321.45 206.05 321.45 205.7 321.45 205.4 321.75 205.4 322.1 205.4 322.45 205.4 322.8 205.4 323.1 205.4 323.45 205.4 323.45 205.05 323.45 204.7 323.8 204.7 324.1 204.7 324.45 204.7 324.8 204.7 326.95 205.15 327.7 204.2 327.8 204.05 328.15 204.05 328.15 203.7 328.15 203.35 328.5 203.35 328.65 203.5 328.85 203.7 328.85 204.05 329.55 203.7 330.25 203.45 330.5 203.35 330.85 203.35 331.2 203.35 331.5 203.35 333.2 203.35 334.9 203.35 335.2 203.35 335.6 203.35 335.6 203 335.6 202.7 335.9 202.7 336.2 202.7 337.55 201.4 338.55 202.35
L 339 202.15
Q 339.25 202 339.6 202 339.9 202 340.1 202.15 340.3 202.35 340.3 202.7 342.1 202.15 343.7 201.45 344 201.35 344.3 201.35 344.6 201.35 344.85 201.5 345 201.7 345 202 348.65 201 353.7 201.3 354.05 201.35 354.4 201.35 354.75 201.35 355.05 201.35 355.45 201.35 355.75 201.35 356.05 201.35 356.4 201.35 356.75 201.35 357.1 201.35 357.4 201.35 357.8 201.35 358.1 201.35 358.4 201.35 358.75 201.35 359.1 201.35 359.45 201.35 359.6 201.5 359.75 201.7 359.75 202 361.25 201.45 363.15 201.35 363.5 201.35 363.85 201.35 363.85 201 363.85 200.65 364.45 200.65 365 200.95 365.15 201 365.15 201.35 368.1 201.4 370.55 201.95 370.9 202 371.2 202 371.2 201.7 371.2 201.35 371.55 201.35 371.75 201.5 371.9 201.7 371.9 202 372.25 202 372.55 202 372.55 201.7 372.55 201.35 372.95 201.35 373.1 201.5 373.25 201.7 373.25 202 374.6 202 375.9 202 376.25 202 376.6 202 378.3 202 379.9 202.35 380 202.35 380 202.7 380.95 202.7 381.95 202.7 382.35 202.7 382.65 202.7 383 202.7 383.15 202.85 383.3 203 383.3 203.35 383.7 203.35 384 203.35 384.3 203.35 384.5 203.5 384.7 203.7 384.7 204.05 385.65 204.05 386.7 204.05 387.05 204.05 387.35 204.05 387.7 204.05 387.85 204.2 388 204.35 388 204.7 388.4 204.7 388.7 204.7 389.05 204.7 389.4 204.7 389.75 204.7 390.05 204.7 390.35 204.7 390.75 204.7 391.05 204.7 391.25 204.9 391.4 205.05 391.4 205.4 391.75 205.4 391.9 205.55 392.1 205.7 392.1 206.05 393.75 206.05 395.45 206.05 395.75 206.05 396.1 206.05 396.45 206.05 396.65 206.25 396.8 206.4 396.8 206.7 397.1 206.7 397.45 206.7 398.15 206.7 398.65 207 398.8 207.05 398.8 207.4 399 208.55 400.8 208.15 401.2 208.05 401.5 208.05 401.8 208.05 402 208.2 402.15 208.45 402.15 208.75 402.5 208.75 402.85 208.75 403.15 208.75 403.55 208.75 403.85 208.75 404 208.9 404.2 209.05 404.2 209.4 404.5 209.4 404.85 209.4 406.2 209.4 407.5 209.7 407.55 209.75 407.55 210.1 408.25 210.1 408.8 210.35 408.9 210.4 408.9 210.8 410.7 210.3 411.2 211.3 411.25 211.4 411.55 211.4 411.95 211.4 412.1 211.6 412.25 211.75 412.25 212.1 412.6 212.1 412.95 212.1 413.25 212.1 413.6 212.1 413.9 212.1 414.15 212.3 414.3 212.45 414.3 212.75 414.6 212.75 414.95 212.75 415.3 212.75 415.65 212.75 415.95 212.75 416.1 212.95 416.25 213.15 416.25 213.45 416.65 213.45 416.95 213.45 417.65 213.45 418.2 213.7 418.3 213.8 418.3 214.15 418.6 214.15 419 214.15 419.3 214.15 419.65 214.15 420.35 214.15 420.85 214.4 421 214.45 421 214.8 421.35 214.8 421.5 214.95 421.65 215.1 421.65 215.5 422 215.5 422.35 215.5 422.7 215.5 423 215.5 423.35 215.5 423.7 215.5 424.05 215.5 424.35 215.5 424.7 215.5 424.9 215.65 425.05 215.8 425.05 216.15 427.2 215.65 427.95 216.65 428.1 216.85 428.4 216.85 428.75 216.85 428.9 217 429.05 217.15 429.05 217.45 429.75 217.85 430.45 218.05 430.75 218.15 431.1 218.15 431.1 217.85 431.1 217.45 431.4 217.45 431.8 217.45 432.1 217.45 432.45 217.45 433.45 217.45 434.35 217.8 434.45 217.85 434.45 218.15 435.15 218.15 435.8 218.15 436.1 218.15 436.5 218.15 436.8 218.15 437 218.3 437.15 218.5 437.15 218.85 439.15 219.2 441.2 219.45 441.5 219.5 441.85 219.5 442.2 219.5 442.4 219.65 442.55 219.8 442.55 220.2 443.85 220.15 444.65 219.65 444.9 219.5 445.2 219.5 445.55 219.5 445.9 219.5 446.55 219.8 447.25 220.1 447.55 220.2 447.9 220.2 447.9 219.8 447.9 219.5 450.25 219.5 452.6 219.5 453 219.5 453.3 219.5 454.65 219.5 455.95 219.5 456.35 219.5 456.65 219.5 457 219.5 457.3 219.5 457.3 219.2 457.3 218.85 457.3 218.5 457.3 218.15 457.7 218.15 457.85 218.3 458 218.5 458 218.85 459.65 218.85 461.4 218.85 461.7 218.85 462 218.85 462 218.5 462 218.15 462.4 218.15 462.7 218.15 463.05 218.15 463.4 218.15 463.75 218.15 464.05 218.15 465.95 218.3 466.85 217.7 467.1 217.45 467.4 217.45 467.4 217.15 467.4 216.85 467.75 216.85 468.1 216.85 468.75 216.85 469.45 216.85 469.8 216.85 470.1 216.85 470.1 216.5 470.1 216.15 470.45 216.15 470.8 216.15 471.45 216.15 472.15 216.15 472.45 216.15 472.85 216.15 472.85 215.8 472.85 215.5 473.15 215.5 473.45 215.5 477.45 214.05 481.45 212.5 481.55 212.45 481.55 212.1 481.55 211.75 481.55 211.4 481.85 211.4 482.25 211.4 485.3 211.15 487.05 209.6 487.3 209.4 487.6 209.4 487.6 209.05 487.6 208.75 487.9 208.75 488.3 208.75 490.6 208.05 491.9 206.25 492 206.05 492.3 206.05 492.3 205.7 492.3 205.4 492.7 205.4 493 205.4 493.65 205.05 494.2 204.5 494.35 204.35 494.35 204.05 494.35 203.7 494.35 203.35 494.35 203 494.35 202.7 494.35 202.35 494.35 202 494 202 493.65 202 493.3 202 493 202 493 202.35 493 202.7 493 203 492.85 203.2 492.7 203.35 492.3 203.35 492.3 203.7 492.2 203.75 488.15 205.9 484.9 208.75 Z"/>
</g>
</defs>

<mask id="Mask_Mask_1">
<g transform="matrix( 1, 0, 0, 1, 0,0) ">
<use xlink:href="#Mask_5_MASK_0_FILL"/>
</g>
</mask>

<g mask="url(#Mask_Mask_1)">
<g transform="matrix( 1, 0, 0, 1, 0,0) ">
<use xlink:href="#Layer5_0_FILL"/>
</g>
</g>

<g transform="matrix( 1, 0, 0, 1, 0,0) ">
<use xlink:href="#Layer3_0_FILL"/>
</g>

<g transform="matrix( 1, 0, 0, 1, 0,0) ">
<use xlink:href="#Layer1_0_FILL"/>
</g>
</svg>
