
<svg xmlns="http://www.w3.org/2000/svg" version="1.1" xmlns:xlink="http://www.w3.org/1999/xlink" preserveAspectRatio="none" x="0px" y="0px" width="500px" height="500px" viewBox="0 0 500 500">
<defs>
<g id="Mask_5_MASK_0_FILL">
<path fill="#FFFFFF" stroke="none" d="
M 465 288.05
L 465 235.05 15 235.05 15 288.05 465 288.05 Z"/>
</g>

<g id="Layer5_0_FILL">
<path fill="#000000" fill-opacity="0.6549019607843137" stroke="none" d="
M 224.3 276.4
Q 225.75 276.4 224.3 276.1
L 224.3 276.4 Z"/>

<path fill="#000000" fill-opacity="0.4392156862745098" stroke="none" d="
M 60.45 261
L 60.45 261.35
Q 61.85 261.35 60.45 261
M 42.1 253.65
Q 41.95 253.5 41.6 253.5 41.6 253.8 41.75 253.95 41.95 254.1 42.25 254.1 42.25 253.8 42.1 253.65
M 51.05 259.15
Q 51.05 258.85 50.85 258.65 50.7 258.5 50.4 258.5 50.4 258.85 50.55 259 50.7 259.15 51.05 259.15
M 33.9 250.5
Q 33.75 250.35 33.45 250.35 33.45 250.65 33.45 251 33.75 251 34.1 251 34.1 250.65 33.9 250.5 Z"/>

<path fill="#000000" fill-opacity="0.5803921568627451" stroke="none" d="
M 73.65 262.9
Q 73.95 262.9 74.25 262.9 74.55 262.9 74.9 262.9 74.9 262.6 74.85 262.6 73.15 262.4 71.75 262.9 71.65 263.95 73.05 263.6 73.3 263.55 73.65 263.55 73.65 263.2 73.65 262.9 Z"/>

<path fill="#000000" fill-opacity="0.49411764705882355" stroke="none" d="
M 77.4 263.55
Q 77.1 263.55 76.75 263.55 76.75 263.85 76.75 264.15 78.1 264.55 77.75 263.65 77.7 263.55 77.4 263.55 Z"/>

<path fill="#000000" fill-opacity="0.7490196078431373" stroke="none" d="
M 76.75 263.55
Q 77.1 263.55 77.4 263.55 77.4 263.2 77.35 263.2 76.15 262.9 74.9 262.9 74.55 262.9 74.25 262.9 73.95 262.9 73.65 262.9 73.65 263.2 73.65 263.55 75 263.7 75.85 264.5
L 76.2 264.3
Q 76.45 264.15 76.75 264.15 76.75 263.85 76.75 263.55 Z"/>

<path fill="#000000" fill-opacity="0.45098039215686275" stroke="none" d="
M 59.8 261.35
L 59.8 261
Q 59.5 261 59.2 261 59.5 261.35 59.8 261.35 Z"/>

<path fill="#000000" fill-opacity="0.6039215686274509" stroke="none" d="
M 71.1 262.3
Q 71.45 262.3 71.75 262.3 71.75 261.95 71.6 261.8 71.45 261.65 71.1 261.65 71.1 261.95 71.1 262.3 Z"/>

<path fill="#000000" fill-opacity="0.42745098039215684" stroke="none" d="
M 66.75 263.55
Q 66.75 263.2 66.55 263.05 66.4 262.9 66.1 262.9 66.1 263.2 66.25 263.4 66.4 263.55 66.75 263.55 Z"/>

<path fill="#000000" fill-opacity="0.6274509803921569" stroke="none" d="
M 66.1 262.3
Q 66.1 261.95 66.1 261.65 65.8 261.65 65.45 261.65 65.45 262.3 65.7 262.8 65.8 262.9 66.1 262.9 66.1 262.6 66.1 262.3 Z"/>

<path fill="#000000" fill-opacity="0.403921568627451" stroke="none" d="
M 70.5 262.9
Q 70.2 262.9 69.85 262.9 70.2 263.2 70.5 263.2
L 70.5 262.9 Z"/>

<path fill="#000000" fill-opacity="0.8196078431372549" stroke="none" d="
M 69.85 262.9
Q 70.2 262.9 70.5 262.9 71.1 262.9 71.6 262.65 71.75 262.6 71.75 262.3 71.45 262.3 71.1 262.3 70.8 262.3 70.6 262.1 67.8 260.2 66.1 262.3 66.1 262.6 66.1 262.9 66.4 262.9 66.55 263.05 66.75 263.2 66.75 263.55 68.4 263.7 69.35 263.05 69.55 262.9 69.85 262.9
M 67.35 261.65
Q 68.75 261.95 67.35 261.95
L 67.35 261.65 Z"/>

<path fill="#000000" fill-opacity="0.5215686274509804" stroke="none" d="
M 67.35 261.95
Q 68.75 261.95 67.35 261.65
L 67.35 261.95 Z"/>

<path fill="#000000" fill-opacity="0.396078431372549" stroke="none" d="
M 61.1 259.75
Q 61.1 259.45 60.9 259.3 60.75 259.15 60.45 259.15 60.45 259.45 60.6 259.6 60.75 259.75 61.1 259.75 Z"/>

<path fill="#000000" fill-opacity="0.4588235294117647" stroke="none" d="
M 27 248.95
Q 27.15 248.8 27.15 248.45 26.85 248.45 26.55 248.45 26.55 248.8 26.55 249.1 26.85 249.1 27 248.95 Z"/>

<path fill="#000000" fill-opacity="0.4627450980392157" stroke="none" d="
M 27.15 247.85
Q 27.15 248.15 27.15 248.45 27.5 248.45 27.8 248.45 27.8 248.15 27.65 248 27.5 247.85 27.15 247.85 Z"/>

<path fill="#000000" fill-opacity="0.47843137254901963" stroke="none" d="
M 28.5 250.2
Q 28.75 250.35 29.05 250.35 29.05 250.05 28.95 249.95 28.45 249.7 27.8 249.7 28.1 250.05 28.5 250.2 Z"/>

<path fill="#000000" fill-opacity="0.4" stroke="none" d="
M 31.4 249.25
Q 31.25 249.1 30.95 249.1 30.95 249.4 31.1 249.55 31.25 249.7 31.55 249.7 31.55 249.4 31.4 249.25 Z"/>

<path fill="#000000" fill-opacity="0.5058823529411764" stroke="none" d="
M 38.65 252.7
Q 38.8 252.85 39.1 252.85 39.1 252.55 38.95 252.4 38.8 252.25 38.45 252.25 38.45 252.55 38.65 252.7 Z"/>

<path fill="#000000" fill-opacity="0.8627450980392157" stroke="none" d="
M 37.85 252.25
Q 37.55 252.25 37.4 252.1 37.2 251.9 37.2 251.6 36.9 251.6 36.6 251.65 34.9 251.75 34.1 251 33.75 251 33.45 251 33.15 251 33.05 250.85 32.65 249.9 31.55 249.7 31.25 249.7 31.1 249.55 30.95 249.4 30.95 249.1 30.65 249.1 30.4 248.95 29.5 248.35 27.8 248.45 27.5 248.45 27.15 248.45 27.15 248.8 27 248.95 26.85 249.1 26.55 249.1 26.85 249.4 27.25 249.6 27.5 249.7 27.8 249.7 28.45 249.7 28.95 249.95 29.05 250.05 29.05 250.35 31.55 251.65 34.2 252.4 35.65 252.85 37.2 253.1 37.55 253.2 37.9 253.45 40.35 255.35 44.7 255.65 45.05 255.7 45.4 255.95 46.4 256.85 47.9 257.2 49.5 257.55 50.4 258.5 50.7 258.5 50.85 258.65 51.05 258.85 51.05 259.15 53.05 259.95 56.05 260.05 56.7 260.1 57.3 260.1 57.95 260.1 58.6 259.9 59.55 259.7 59.2 261 59.5 261 59.8 261 62.1 260.15 64.9 261.55 65.15 261.65 65.45 261.65 65.8 261.65 66.1 261.65 66.1 261.35 65.95 261.25 63.95 260.05 61.1 259.75 60.75 259.75 60.6 259.6 60.45 259.45 60.45 259.15 58.15 258.75 56.7 258.7 53.5 258.55 51.7 257.2 51.35 256.95 51 256.9 48.5 256.65 47.1 255.65 46.65 255.35 46.25 255.05 44.9 253.95 42.25 254.1 41.95 254.1 41.75 253.95 41.6 253.8 41.6 253.5 41.3 253.5 41 253.5 39.75 253.45 39.1 252.85 38.8 252.85 38.65 252.7 38.45 252.55 38.45 252.25 38.15 252.25 37.85 252.25 Z"/>

<path fill="#000000" fill-opacity="0.4196078431372549" stroke="none" d="
M 37.4 252.1
Q 37.55 252.25 37.85 252.25 37.85 251.9 37.7 251.75 37.55 251.6 37.2 251.6 37.2 251.9 37.4 252.1 Z"/>

<path fill="#000000" fill-opacity="0.5294117647058824" stroke="none" d="
M 25.3 247.2
Q 25.3 246.9 25.15 246.85 24.65 246.6 24.05 246.6 24.05 246.9 24.05 247.2 24.35 247.2 24.65 247.2 25 247.2 25.3 247.2 Z"/>

<path fill="#000000" fill-opacity="0.5254901960784314" stroke="none" d="
M 27 247.35
Q 26.85 247.2 26.55 247.2 26.55 247.5 26.7 247.7 26.85 247.85 27.15 247.85 27.15 247.5 27 247.35 Z"/>

<path fill="#000000" fill-opacity="0.9215686274509803" stroke="none" d="
M 26.55 247.2
Q 26.25 247.2 25.9 247.2 25.6 247.2 25.3 247.2 25 247.2 24.65 247.2 24.35 247.2 24.05 247.2 24.65 248.15 25.9 248.4 26.25 248.45 26.55 248.45 26.85 248.45 27.15 248.45 27.15 248.15 27.15 247.85 26.85 247.85 26.7 247.7 26.55 247.5 26.55 247.2 Z"/>

<path fill="#000000" fill-opacity="0.803921568627451" stroke="none" d="
M 102.45 269.95
Q 102.85 270.15 103.1 270.1 105.2 269.95 107.5 270.1 107.85 270.15 108.05 270.05 109.6 269.6 111.35 271.05 112.7 272.15 115.7 272 116 272 116.2 271.95 117 271.75 118.2 271.65 120.8 271.6 122.65 272.15 125.4 272.95 126.35 272.3 125.9 270.6 123.25 270.6 121.2 270.6 118.85 270.2 117.45 269.95 115.75 269.6 115.05 269.5 114.45 269.5 114.15 269.5 113.95 269.45 112.55 268.9 110.05 268.85 109.4 268.85 108.8 268.85 108.5 268.85 108.3 268.8 105.45 267.85 101.3 267.45 99.35 267.3 97.45 266.9 95.15 266.5 93.05 266.2 91.85 266.05 90.7 265.75 87.15 264.8 83.1 264 80.9 263.6 79.3 264.15 79.6 264.5 79.6 264.8 79.5 266.45 81 265.75 81.9 265.3 83.85 266.4 84.3 266.65 84.65 266.35 85.1 265.9 86.75 266.8 91.35 269.25 96.9 268.05 97.5 267.95 97.6 268.2 97.8 268.55 97.95 269.05 98.15 269.8 99.2 269.4 100.15 269.05 102.45 269.95
M 98.75 268.25
L 98.75 267.95
Q 100.15 268.25 98.75 268.25 Z"/>

<path fill="#000000" fill-opacity="0.23137254901960785" stroke="none" d="
M 98.75 267.95
L 98.75 268.25
Q 100.15 268.25 98.75 267.95 Z"/>

<path fill="#000000" fill-opacity="0.8784313725490196" stroke="none" d="
M 454.05 243.9
Q 454.4 243.75 454.7 243.8 460.05 244.05 460.4 239.7 460.05 239.35 459.75 239.05 459.1 238.45 457.95 238.75 456.45 239.2 455.15 240 454.75 240.3 454.25 240.55 451 242.2 447.15 243.4 444.45 244.15 442.25 245.45 439.3 247.15 435.85 248.3 435.25 248.45 434.85 248.75 430.65 251.4 425.2 252.7 424.6 252.85 424.15 253.15 421.4 255 417.65 255.85 417.05 256 416.55 256.2 410 259 402.6 260.85 394.95 262.75 387.5 264.7 383.75 265.65 379.45 266.35 377.15 266.7 372.55 267.6 368.8 268.3 364.3 268.55 363.7 268.55 363.2 268.8 360.1 270.3 354.9 270.15 354.6 270.15 354.25 270.15 349.75 270.65 346.05 271.45 342.05 272.3 337.95 273 335.05 273.5 331.7 273.85 331.35 273.9 331.05 273.9 326 274.15 323.5 274.75 321.45 275.3 319.15 275.2 318.8 275.15 318.55 275.2 316.7 275.55 314.15 275.8 312.35 275.95 310.95 276.05 306.8 276.3 305.3 276.3 303.35 276.35 302.15 276.4 297.15 276.7 292.15 277 291.8 277.05 291.6 276.95 289.1 276.35 285.25 276.85 282.55 277.2 281.4 277.05 278.6 276.7 275.8 276.65 271.25 276.55 267 276.2 265.75 276.1 264.6 275.7 262.95 275.1 260.75 274.85 256.5 274.35 253.8 272.3 254.15 271.7 254.5 271.15 254.75 270.75 254.85 270.8 256.65 272 257.7 269.9 257.9 269.5 258.1 269.55 259.9 269.95 260.4 269.5 260.75 269.2 261.05 268.85 261.35 268.55 261.4 268.55 263.35 268.35 263.95 267.35 264.2 267 264.55 266.9 265.45 266.65 266.3 266.4 269.05 265.55 271.35 264.05 272.65 263.2 273.55 262 274.25 261 275.15 260.35 277.05 258.85 275.8 257.25 275.691796875 256.678515625 275.45 256.25 270.8423828125 256.4392578125 266.2 256.75 266.103125 256.7533203125 266 256.75 261.4626953125 258.287890625 257.7 260.6 251.9 264.1 248.8 270.45 246.55 270.4 245.15 271.25 244.5 271.55 241.9 271.95 237.8 272.55 235 272.9 231.85 273.25 228.7 273.5 227.75 273.6 226.95 273.9 223.7 275.15 218.65 275.1 216.7 275.1 215.5 275.35 212.25 276.05 208.6 275.8 208.3 275.8 208 275.8 196.4 276.1 184.75 275.95 179.6 275.85 176.6 275.8 176.3 275.8 175.95 275.75 173.15 275.45 170.35 275.15 166.35 274.7 161.55 274.75 156.8 274.85 152.75 274.1 151.5 273.9 150.25 273.8 141.2 273.2 132.7 272.05 132.35 272 132 272 131.7 272 131.55 271.95 130 271.25 127 271.7 127.3 272 127.65 272.25 128.55 272.95 129.5 273.65 129.8 273.9 130 273.85 130.75 273.6 131.5 273.2
L 132 272.95
Q 131.15 273.9 132.05 274 133.3 274.2 134.45 274.5 136.55 275 139.55 275.15
L 139.85 275.15
Q 140.8 273.9 143.3 274.2 144.75 274.5 143.4 275
L 143 275.15
Q 145 275 146.05 275.8 146.45 276.1 146.8 275.8 148.05 274.6 149.3 275.8 149.6 276.1 149.65 275.9 150.4 273.85 151.55 275.45 151.8 275.8 152.2 275.85 154.6 276.4 157.15 276.7 161.35 277.2 164.15 276.35 166.7 275.6 167.8 276.7 168.1 277.05 168.5 277.15 170.5 277.8 172.8 277.7 173.15 277.65 173.45 277.65
L 173.75 277.65
Q 174.6 276.6 176.55 276.95 176.9 277.05 177.2 277 178.3 276.85 180.95 277.5 182.35 277.85 184.05 277.55 186.65 277.05 187.85 278 188.2 278.3 188.6 278.4 189.15 278.6 189.55 278.3 191.5 276.9 192.9 278 193.25 278.3 193.35 278.25 194.95 277.45 197.3 277.65 197.65 277.65 197.95 277.65 198.25 277.65 198.55 277.7 199.95 277.85 201.7 277.7 202.05 277.65 202.4 277.55 205 276.85 206.15 277.15 209.55 278 213.6 277.7 213.95 277.65 214.25 277.7 219.95 278.3 221.8 275.45 222.1 275.45 222.2 275.6
L 222.45 276.1
Q 224.3 274.65 226.2 276.7 226.5 276.4 226.85 276.35 229.7 276.15 231.2 274.8 231.55 274.5 231.65 274.6 232.75 275.2 234.35 275.15 234.65 275.15 235 275.1 241.45 274.7 246.2 272.75 247.9 272.05 250.05 271.7 250.7 275.45 253.9 276.45 254.75 276.7 255.5 277.15 258.8 278.95 264.5 278.9 266.4 278.9 268.25 278.9 268.9 278.9 269.5 279 273.45 279.35 278.3 279.6 280.05 279.7 281.35 279.4 282.4 279.25 285.25 279.5 285.55 279.55 285.85 279.5 288.35 279.25 290.85 279.6 291.95 279.75 294.65 279.4 300.15 278.8 301.55 279.05 302.8 279.25 303.9 278.85 304.7 278.65 305.85 278.95 306.9 279.25 309.75 278.75 310.35 278.6 310.6 278.3 311.45 277.2 313.35 277.7 317.55 278.7 321.55 277.2 321.95 277.05 322.1 277.1 325.25 278.3 327.3 276.1 327.6 275.8 327.9 275.8 329.3 275.95 331.05 275.85 335.3 275.6 339.75 275.1 341.7 274.85 343.65 274.45 345.95 274.05 348 273.65 350.9 273.05 354.3 272.9 356.05 272.85 357.45 272.55 359.15 272.2 360.6 271.9 361.8 271.7 362.95 271.3 364.85 270.65 367.45 270.75 367.8 270.75 368.1 270.75 368.4 270.75 368.8 270.7 372.8 269.8 376.8 268.95 377.2 268.85 377.5 268.85 380.7 268.95 382.55 268 384.3 267.2 386.9 267 387.25 267 387.6 266.9 390.65 266.35 391.3 266.35 391.65 266.35 392 266.3 396.1 265.5 399.5 264.25 402.1 263.35 402.6 263.3 403.9 263.2 405.15 263 405.75 262.9 406 262.6 406.6 261.85 407.6 261.95 407.95 261.95 408.2 261.9 409.2 261.65 410.25 261.35 417.8 259.25 424.1 256.25 424.6 256 424.7 255.75 425.9 253.25 427.95 254.35 428.05 254.45 428.35 254.4 431.05 254.25 432.2 252.9 432.8 252.25 433.8 251.85 437 250.5 440.25 249.05 446.8 246.15 454.05 243.9
M 155.25 275.8
L 155.25 275.45
Q 156.65 275.8 155.25 275.8
M 268.3 259.85
Q 269.8 258.8 272.65 259.15 271.05 261.3 268.45 262.65 267.95 262.9 267.45 263.3 266.05 264.45 263.95 265 263.55 265.1 263.2 265.25 259.6 266.8 256.2 268.2 254.3 269 253.8 267.95 258.2 263.85 263.9 261.1 265.4 260.35 267.6 260.1 267.95 260.1 268.3 259.85
M 253.2 268.85
L 253.2 268.55
Q 254.6 268.85 253.2 268.85
M 253.2 270.75
L 253.2 270.45
Q 254.6 270.75 253.2 270.75
M 218.65 275.8
L 218.65 275.45
Q 222.05 275.8 218.65 275.8 Z"/>

<path fill="#000000" fill-opacity="0.24705882352941178" stroke="none" d="
M 218.65 275.45
L 218.65 275.8
Q 222.05 275.8 218.65 275.45 Z"/>

<path fill="#000000" fill-opacity="0.22745098039215686" stroke="none" d="
M 253.2 270.45
L 253.2 270.75
Q 254.6 270.75 253.2 270.45 Z"/>

<path fill="#000000" fill-opacity="0.2901960784313726" stroke="none" d="
M 155.25 275.45
L 155.25 275.8
Q 156.65 275.8 155.25 275.45 Z"/>
</g>

<g id="Layer3_0_FILL">
<path fill="#000000" fill-opacity="0.43137254901960786" stroke="none" d="
M 213 251.9
L 213 251.6
Q 212.7 251.6 212.4 251.6 212.7 251.9 213 251.9
M 231.85 249.7
Q 231.85 250.05 232 250.2 232.15 250.35 232.5 250.35 232.5 250.05 232.3 249.9 232.15 249.7 231.85 249.7
M 138.95 257.25
Q 138.95 257.55 138.95 257.9 139.25 257.9 139.4 257.75 139.55 257.55 139.55 257.25 139.25 257.25 138.95 257.25
M 344.05 241.1
Q 343.9 240.95 343.6 240.95 343.6 241.25 343.6 241.55 343.9 241.55 344.25 241.55 344.25 241.25 344.05 241.1
M 406.85 242.95
Q 406.7 242.8 406.4 242.8 406.4 243.15 406.55 243.3 406.7 243.45 407 243.45 407 243.15 406.85 242.95 Z"/>

<path fill="#000000" fill-opacity="0.43529411764705883" stroke="none" d="
M 214.25 251.6
Q 214.6 251.6 214.75 251.45 214.9 251.3 214.9 251 214.6 251 214.25 251 214.25 251.3 214.25 251.6
M 218.05 251.6
Q 218.05 251.3 217.9 251.15 217.7 251 217.4 251 217.4 251.3 217.55 251.45 217.7 251.6 218.05 251.6
M 300.3 248.45
Q 300.3 248.15 300.15 248 299.95 247.85 299.65 247.85 299.65 248.15 299.8 248.3 299.95 248.45 300.3 248.45
M 156.35 248.95
Q 156.5 248.8 156.5 248.45 156.2 248.45 155.9 248.45 155.9 248.8 155.9 249.1 156.2 249.1 156.35 248.95 Z"/>

<path fill="#000000" fill-opacity="0.42745098039215684" stroke="none" d="
M 218.05 249.1
Q 218.05 248.8 217.9 248.7 217.4 248.45 216.8 248.45 216.8 248.8 216.8 249.1 217.1 249.1 217.4 249.1 217.7 249.1 218.05 249.1
M 241.25 245.95
Q 241.25 245.65 241.1 245.5 240.95 245.35 240.65 245.35 240.65 245.65 240.65 245.95 240.95 245.95 241.25 245.95
M 388.2 234.65
Q 388.5 234.95 388.8 234.95
L 388.8 234.65
Q 388.5 234.65 388.2 234.65
M 414.1 243.9
Q 414.25 244.05 414.55 244.05 414.55 243.75 414.4 243.6 414.25 243.45 413.9 243.45 413.9 243.75 414.1 243.9 Z"/>

<path fill="#000000" fill-opacity="0.396078431372549" stroke="none" d="
M 223.05 251
Q 223.05 251.3 223.05 251.6 223.35 251.6 223.55 251.45 223.7 251.3 223.7 251 223.35 251 223.05 251
M 177.25 242.5
L 177.25 242.2
Q 176.9 242.2 176.6 242.2 176.9 242.5 177.25 242.5
M 304.05 247.85
Q 304.35 248.15 304.7 248.15
L 304.7 247.85
Q 304.35 247.85 304.05 247.85
M 341.7 240
L 341.7 239.7
Q 341.4 239.7 341.1 239.7 341.4 240 341.7 240 Z"/>

<path fill="#000000" fill-opacity="0.403921568627451" stroke="none" d="
M 224.95 248.45
Q 224.65 248.45 224.3 248.45 224.3 248.8 224.3 249.1 224.65 249.1 224.8 248.95 224.95 248.8 224.95 248.45
M 275.65 234.2
Q 275.5 234.05 275.15 234.05 275.15 234.35 275.35 234.5 275.5 234.65 275.8 234.65 275.8 234.35 275.65 234.2
M 352.85 240.15
Q 353 240 353 239.7 352.7 239.7 352.4 239.7 352.4 240 352.4 240.3 352.7 240.3 352.85 240.15 Z"/>

<path fill="#000000" fill-opacity="0.4392156862745098" stroke="none" d="
M 234.35 249.7
Q 234.35 250.05 234.35 250.35 234.65 250.35 234.85 250.2 235 250.05 235 249.7 234.65 249.7 234.35 249.7
M 268.9 235.9
Q 268.6 235.9 268.25 235.9 268.25 236.2 268.25 236.55 268.6 236.55 268.75 236.4 268.9 236.2 268.9 235.9
M 414.55 245.95
Q 414.55 246.25 414.55 246.6 414.85 246.6 415 246.45 415.2 246.25 415.2 245.95 414.85 245.95 414.55 245.95 Z"/>

<path fill="#000000" fill-opacity="0.4" stroke="none" d="
M 188.05 245.15
Q 188.2 245.35 188.55 245.35 188.55 245 188.35 244.85 188.2 244.7 187.9 244.7 187.9 245 188.05 245.15
M 285.2 242.2
Q 285.2 241.85 285.05 241.7 284.9 241.55 284.6 241.55 284.6 241.85 284.6 242.2 284.9 242.2 285.2 242.2 Z"/>

<path fill="#000000" fill-opacity="0.40784313725490196" stroke="none" d="
M 186 244.7
Q 186 244.4 185.85 244.25 185.7 244.05 185.4 244.05 185.4 244.4 185.55 244.55 185.7 244.7 186 244.7
M 173.95 241.8
Q 173.45 241.55 172.85 241.55 173.15 241.85 173.5 242.05 173.75 242.2 174.1 242.2 174.1 241.85 173.95 241.8
M 365.6 234.65
Q 365.25 234.65 364.95 234.65 364.95 234.95 364.95 235.3 365.25 235.3 365.4 235.1 365.6 234.95 365.6 234.65 Z"/>

<path fill="#000000" fill-opacity="0.4117647058823529" stroke="none" d="
M 178.65 242.65
Q 178.8 242.8 179.1 242.8 179.1 242.5 178.95 242.35 178.8 242.2 178.5 242.2 178.5 242.5 178.65 242.65
M 169.55 241.7
Q 169.4 241.55 169.05 241.55 169.05 241.85 169.05 242.2 169.4 242.2 169.7 242.2 169.7 241.85 169.55 241.7
M 280.35 242.65
Q 280.5 242.8 280.8 242.8 280.8 242.5 280.65 242.35 280.5 242.2 280.2 242.2 280.2 242.5 280.35 242.65
M 256.95 242.2
Q 256.65 242.2 256.35 242.2 256.35 242.5 256.35 242.8 256.65 242.8 256.8 242.65 256.95 242.5 256.95 242.2
M 137.65 262.3
Q 138 262.3 138.15 262.1 138.3 261.95 138.3 261.65 138 261.65 137.65 261.65 137.65 261.95 137.65 262.3
M 337.95 240.95
Q 338.25 240.95 338.4 240.8 338.6 240.6 338.6 240.3 338.25 240.3 337.95 240.3 337.95 240.6 337.95 240.95 Z"/>

<path fill="#000000" fill-opacity="0.4235294117647059" stroke="none" d="
M 181.45 242.95
Q 181.3 242.8 181 242.8 181 243.15 181.15 243.3 181.3 243.45 181.6 243.45 181.6 243.15 181.45 242.95
M 257.6 239.7
Q 257.9 239.7 258.05 239.5 258.2 239.35 258.2 239.05 257.9 239.05 257.6 239.05 257.6 239.35 257.6 239.7
M 359.95 235.3
Q 359.95 235.6 359.95 235.9 360.55 235.9 361.05 235.65 361.2 235.6 361.2 235.3 360.85 235.3 360.55 235.3 360.25 235.3 359.95 235.3
M 373.75 234.05
Q 373.45 234.05 373.1 234.05 373.1 234.35 373.1 234.65 373.45 234.65 373.6 234.5 373.75 234.35 373.75 234.05 Z"/>

<path fill="#000000" fill-opacity="0.4588235294117647" stroke="none" d="
M 234.35 247.2
Q 234.05 247.2 233.75 247.2 233.75 247.5 233.75 247.85 234.05 247.85 234.2 247.7 234.35 247.5 234.35 247.2
M 284.45 244.25
Q 284.25 244.05 283.95 244.05 283.95 244.4 284.1 244.55 284.25 244.7 284.6 244.7 284.6 244.4 284.45 244.25
M 374.35 236.55
Q 374.35 236.85 374.35 237.15 374.7 237.15 375 237.15 375 236.85 374.85 236.7 374.7 236.55 374.35 236.55 Z"/>

<path fill="#000000" fill-opacity="0.4470588235294118" stroke="none" d="
M 281.6 243.3
Q 281.75 243.45 282.1 243.45 282.1 243.15 281.9 242.95 281.75 242.8 281.45 242.8 281.45 243.15 281.6 243.3
M 256.35 239.7
Q 256.35 240 256.35 240.3 256.65 240.3 256.8 240.15 256.95 240 256.95 239.7 256.65 239.7 256.35 239.7
M 314.55 245.15
Q 314.7 245 314.7 244.7 314.4 244.7 314.1 244.7 314.1 245 314.1 245.35 314.4 245.35 314.55 245.15
M 288.35 245.95
Q 288.35 246.25 288.5 246.45 288.65 246.6 289 246.6 289 246.25 288.8 246.1 288.65 245.95 288.35 245.95
M 354.9 236.55
Q 354.9 236.85 354.9 237.15 355.2 237.15 355.4 237 355.55 236.85 355.55 236.55 355.2 236.55 354.9 236.55
M 336.7 241.25
L 336.7 240.95
Q 336.4 240.95 336.05 240.95 336.4 241.25 336.7 241.25 Z"/>

<path fill="#000000" fill-opacity="0.4549019607843137" stroke="none" d="
M 247.55 246.6
Q 247.85 246.6 248 246.45 248.15 246.25 248.15 245.95 247.85 245.95 247.55 245.95 247.55 246.25 247.55 246.6
M 349.7 238.25
Q 349.9 238.1 349.9 237.8 349.55 237.8 349.25 237.8 349.25 238.1 349.25 238.4 349.55 238.4 349.7 238.25
M 378.15 234.65
Q 378.15 234.35 378 234.2 377.8 234.05 377.5 234.05 377.5 234.35 377.5 234.65 377.8 234.65 378.15 234.65 Z"/>

<path fill="#000000" fill-opacity="0.44313725490196076" stroke="none" d="
M 245.65 246.6
Q 245.65 246.9 245.65 247.2 245.95 247.2 246.15 247.05 246.3 246.9 246.3 246.6 245.95 246.6 245.65 246.6 Z"/>

<path fill="#000000" fill-opacity="0.4196078431372549" stroke="none" d="
M 322.25 245.95
Q 321.95 245.95 321.65 245.95 321.65 246.25 321.65 246.6 321.95 246.6 322.1 246.45 322.25 246.25 322.25 245.95
M 317.85 246.6
Q 317.85 246.9 317.85 247.2 318.2 247.2 318.35 247.05 318.5 246.9 318.5 246.6 318.2 246.6 317.85 246.6
M 293.2 244.25
Q 293.05 244.05 292.75 244.05 292.75 244.4 292.9 244.55 293.05 244.7 293.4 244.7 293.4 244.4 293.2 244.25
M 146.45 254.75
Q 146.15 254.75 145.85 254.75 145.85 255.05 145.85 255.35 146.15 255.35 146.3 255.2 146.45 255.05 146.45 254.75
M 150.25 249.1
Q 150.55 249.1 150.7 248.95 150.85 248.8 150.85 248.45 150.55 248.45 150.25 248.45 150.25 248.8 150.25 249.1 Z"/>

<path fill="#000000" fill-opacity="0.45098039215686275" stroke="none" d="
M 293.4 247.2
Q 293.05 247.2 292.75 247.2 293.05 247.5 293.4 247.5
L 293.4 247.2
M 154.45 249.55
Q 154.6 249.4 154.6 249.1 154.3 249.1 154 249.1 154 249.4 154 249.7 154.3 249.7 154.45 249.55
M 326.5 243.3
Q 326.65 243.15 326.65 242.8 326.35 242.8 326 242.8 326 243.15 326 243.45 326.35 243.45 326.5 243.3 Z"/>

<path fill="#000000" fill-opacity="0.47058823529411764" stroke="none" d="
M 135.8 261
Q 135.8 260.7 135.8 260.4 135.5 260.4 135.15 260.4 135.15 260.7 135.3 260.85 135.5 261 135.8 261 Z"/>

<path fill="#000000" fill-opacity="0.41568627450980394" stroke="none" d="
M 358.5 238.9
Q 358.65 238.75 358.65 238.4 358.35 238.4 358.05 238.4 358.05 238.75 358.05 239.05 358.35 239.05 358.5 238.9
M 414.55 247.2
Q 414.25 247.2 413.9 247.2 413.9 247.5 413.9 247.85 414.25 247.85 414.4 247.7 414.55 247.5 414.55 247.2 Z"/>

<path fill="#000000" fill-opacity="0.9176470588235294" stroke="none" d="
M 406.4 242.8
Q 406.7 242.8 406.85 242.95 407 243.15 407 243.45 409.8 244.75 411.75 246.9 412.05 247.2 412.6 247.4 413 247.5 413.35 247.7 413.6 247.85 413.9 247.85 413.9 247.5 413.9 247.2 414.25 247.2 414.55 247.2 414.55 246.9 414.55 246.6 414.55 246.25 414.55 245.95 414.85 245.95 415.2 245.95 415.2 245.65 415.1 245.35 414.85 244.7 414.55 244.05 414.25 244.05 414.1 243.9 413.9 243.75 413.9 243.45 413.6 243.45 413.4 243.3 403.35 236.75 388.8 234.65
L 388.8 234.95
Q 388.5 234.95 388.2 234.65 387.25 234.65 386.35 234.45 386 234.35 385.65 234.3 381.2 233.6 378.15 234.65 377.8 234.65 377.5 234.65 377.2 234.65 376.9 234.55 375.5 234.15 373.75 234.05 373.75 234.35 373.6 234.5 373.45 234.65 373.1 234.65 370.9 234.65 368.8 235.05 367.75 235.25 365.6 234.65 365.6 234.95 365.4 235.1 365.25 235.3 364.95 235.3 364.65 235.3 364.3 235.3 362.75 235.3 361.2 235.3 361.2 235.6 361.05 235.65 360.55 235.9 359.95 235.9 359.6 235.9 359.4 236.05 358.15 237 355.55 236.55 355.55 236.85 355.4 237 355.2 237.15 354.9 237.15 354.6 237.15 354.3 237.25 352.25 237.65 349.9 237.8 349.9 238.1 349.7 238.25 349.55 238.4 349.25 238.4 348.95 238.4 348.65 238.45 344.8 238.65 341.7 239.7
L 341.7 240
Q 341.4 240 341.1 239.7 340.8 239.7 340.7 239.8 340.3 240.75 338.6 240.3 338.6 240.6 338.4 240.8 338.25 240.95 337.95 240.95 337.65 240.95 337.3 240.95 337 240.95 336.7 240.95
L 336.7 241.25
Q 336.4 241.25 336.05 240.95 335.75 240.95 335.45 241.05 331.55 242.4 326.65 242.8 326.65 243.15 326.5 243.3 326.35 243.45 326 243.45 322.65 243.2 320.35 243.95 317.9 244.75 314.7 244.7 314.7 245 314.55 245.15 314.4 245.35 314.1 245.35 312.2 245.35 310.35 245.6 309.7 245.65 309.05 245.65 307.8 245.65 306.55 245.65 305.3 245.65 304.05 245.65 303.4 245.65 302.85 245.65 300.15 245.85 299 245.7 295.85 245.35 293.4 244.7 293.05 244.7 292.9 244.55 292.75 244.4 292.75 244.05 292.45 244.05 292.1 244.05 288.05 243.75 285.2 242.2 284.9 242.2 284.6 242.2 283.35 241.25 282 240.45 278.15 238.25 275.8 234.65 275.5 234.65 275.35 234.5 275.15 234.35 275.15 234.05 274.85 233.7 274.75 233.35 274.55 232.45 274.3 231.6 273.15 227.5 270.2 230.3 268.9 231.5 267.55 232.7 263.35 236.3 258.2 239.05 258.2 239.35 258.05 239.5 257.9 239.7 257.6 239.7 257.3 239.7 256.95 239.7 256.95 240 256.8 240.15 256.65 240.3 256.35 240.3 254.75 240.95 253.15 241.5 251.3 242.2 249.5 242.95 249.1 243.15 248.75 243.2 244.45 244.15 241.25 245.95 240.95 245.95 240.65 245.95 240.3 245.95 240.05 246 237.3 246.7 234.35 247.2 234.35 247.5 234.2 247.7 234.05 247.85 233.75 247.85 232.5 247.85 231.3 248.1
L 230.9 248.15
Q 230.7 247.45 229.35 247.95 227.55 248.55 224.95 248.45 224.95 248.8 224.8 248.95 224.65 249.1 224.3 249.1 224 248.8 223.6 248.65 223.05 248.45 222.55 248.7 221 249.55 218.05 249.1 217.7 249.1 217.4 249.1 217.1 249.1 216.8 249.1 214.6 249.1 212.4 248.8 212.05 248.8 212 248.8 210.95 249.55 208.7 248.85 208.3 248.8 208.15 248.85 207.7 249.05 205.5 248.5 203.45 248 201.1 247.7 199.85 247.5 198.55 247.45 194.75 247.25 192.25 246.05 190.7 245.3 188.55 245.35 188.2 245.35 188.05 245.15 187.9 245 187.9 244.7 187.6 244.7 187.25 244.7 186.65 244.7 186 244.7 185.7 244.7 185.55 244.55 185.4 244.4 185.4 244.05 185.05 244.05 184.8 244 183.4 243.55 181.6 243.45 181.3 243.45 181.15 243.3 181 243.15 181 242.8 180.7 242.8 180.35 242.8 179.75 242.8 179.1 242.8 178.8 242.8 178.65 242.65 178.5 242.5 178.5 242.2 178.15 242.2 177.85 242.2 177.55 242.2 177.25 242.2
L 177.25 242.5
Q 176.9 242.5 176.6 242.2 176.3 242.2 175.95 242.2 175.05 242.2 174.1 242.2 173.75 242.2 173.5 242.05 173.15 241.85 172.85 241.55 172.5 241.55 172.3 241.7 171.4 242.35 169.7 242.2 169.4 242.2 169.05 242.2 166.9 242.8 165.85 242.55 165.6 242.5 165.25 242.65 161.95 243.55 159.1 244.85 158.7 245 158.35 245.1 155.7 245.5 154.15 246.75 152.8 247.9 150.85 248.45 150.85 248.8 150.7 248.95 150.55 249.1 150.25 249.1 149.9 249.1 149.75 249.25 145 253.3 139.55 256.65 139.55 256.95 139.55 257.25 139.55 257.55 139.4 257.75 139.25 257.9 138.95 257.9 138.6 257.9 138.45 258.05 137.2 259 135.8 259.75 135.8 260.1 135.8 260.4 135.8 260.7 135.8 261 135.4 262.7 137.05 262.35 137.35 262.3 137.65 262.3 137.65 261.95 137.65 261.65 138 261.65 138.3 261.65 142.15 258.9 145.35 255.55 145.5 255.35 145.85 255.35 145.85 255.05 145.85 254.75 146.15 254.75 146.45 254.75 146.45 254.45 146.45 254.1 150.25 252.25 153.5 249.9 153.7 249.7 154 249.7 154 249.4 154 249.1 154.3 249.1 154.6 249.1 154.95 249.1 155.25 249.1 155.55 249.1 155.9 249.1 155.9 248.8 155.9 248.45 156.2 248.45 156.5 248.45 159.4 248.55 160.7 246.9 160.9 246.6 161.4 246.35 162.35 245.85 164.05 245.8 165.4 245.8 166.25 245 166.55 244.7 167 244.95 168.7 245.9 169.7 243.45 172.6 245.25 177.85 245.1 179.1 245 180.35 245.35 184.15 246.25 187.85 247.4 188.2 247.5 188.55 247.55 192.1 248.05 194.7 249.3 196.55 250.2 199.85 250.05 200.15 250.05 200.5 250.05 202.65 250.3 204.15 251.1 204.55 251.3 204.85 251.3 206.1 251.3 207.35 251.3 208 251.3 208.6 251.25 210.85 251.05 211.3 251.3 211.75 251.6 212.4 251.6 212.7 251.6 213 251.6 213.35 251.6 213.65 251.6 213.95 251.6 214.25 251.6 214.25 251.3 214.25 251 214.6 251 214.9 251 215.85 251 216.8 251 217.1 251 217.4 251 217.7 251 217.9 251.15 218.05 251.3 218.05 251.6 220.25 251.6 222.45 251.6 222.75 251.6 223.05 251.6 223.05 251.3 223.05 251 223.35 251 223.7 251 224.8 251.5 227.4 250.75 229.45 250.15 231.85 249.7 232.15 249.7 232.3 249.9 232.5 250.05 232.5 250.35 233.1 250.35 233.75 250.35 234.05 250.35 234.35 250.35 234.35 250.05 234.35 249.7 234.65 249.7 235 249.7 237.15 249.4 238.85 248.8 239.3 248.65 241.85 247.75 243.45 247.2 245.65 247.2 245.65 246.9 245.65 246.6 245.95 246.6 246.3 246.6 246.6 246.6 246.9 246.6 247.25 246.6 247.55 246.6 247.55 246.25 247.55 245.95 247.85 245.95 248.15 245.95 250.6 245.6 252.65 244.9 254.9 244.2 256.35 242.8 256.35 242.5 256.35 242.2 256.65 242.2 256.95 242.2 262.95 240 267.75 236.7 267.95 236.55 268.25 236.55 268.25 236.2 268.25 235.9 268.6 235.9 268.9 235.9 270.05 233.9 271.7 235.6 273.7 237.65 275.85 239.6 277.7 241.25 280.2 242.2 280.5 242.2 280.65 242.35 280.8 242.5 280.8 242.8 281.15 242.8 281.45 242.8 281.75 242.8 281.9 242.95 282.1 243.15 282.1 243.45 282.7 243.75 283.35 244 283.65 244.05 283.95 244.05 284.25 244.05 284.45 244.25 284.6 244.4 284.6 244.7 286.6 244.9 287.85 245.8 288.05 245.95 288.35 245.95 288.65 245.95 288.8 246.1 289 246.25 289 246.6 290.75 246.7 292.15 247.1 292.45 247.2 292.75 247.2 293.05 247.2 293.4 247.2 295.5 248.2 299.05 247.85 299.35 247.85 299.65 247.85 299.95 247.85 300.15 248 300.3 248.15 300.3 248.45 302.4 248.7 303.5 248 303.75 247.85 304.05 247.85 304.35 247.85 304.7 247.85 307.2 248.15 309.7 248.15 310.95 248.15 312.2 247.9 314.9 247.4 317.85 247.2 317.85 246.9 317.85 246.6 318.2 246.6 318.5 246.6 319.75 246.6 321 246.6 321.3 246.6 321.65 246.6 321.65 246.25 321.65 245.95 321.95 245.95 322.25 245.95 323.65 245.45 325.4 245.4 328.45 245.25 330.55 244.3 331.05 244.05 331.5 243.8 333.45 242.7 334.35 243.05 335.9 243.6 336.85 243.2 337.95 242.8 339.2 242.65 340.45 242.5 341.65 242.05 342.05 241.85 342.4 241.75 343 241.55 343.6 241.55 343.6 241.25 343.6 240.95 343.9 240.95 344.05 241.1 344.25 241.25 344.25 241.55 345.6 240.8 348.05 241.2 348.3 241.25 348.65 240.95 349.9 240 352.4 240.3 352.4 240 352.4 239.7 352.7 239.7 353 239.7 354 239.1 356.2 239.35 356.45 239.35 356.85 239.25 357.4 239.05 358.05 239.05 358.05 238.75 358.05 238.4 358.35 238.4 358.65 238.4 362.1 237.45 366.85 237.5 367.15 237.5 367.5 237.3 369.4 236.35 372.5 237 373.45 237.15 374.35 237.15 374.35 236.85 374.35 236.55 374.7 236.55 374.85 236.7 375 236.85 375 237.15 379.1 237.2 382.55 236.9 382.85 236.85 383.15 236.85 383.8 236.85 384.45 236.8 388.25 236.45 390.8 237.5 391.65 237.8 392.55 238 394.45 238.4 396.2 239.3 397.4 239.9 399.5 240 399.8 240 400.15 240.1 403.8 241 406.4 242.8 Z"/>
</g>

<g id="Layer1_0_FILL">
<path fill="#000000" fill-opacity="0.5803921568627451" stroke="none" d="
M 296.05 216.9
Q 296.2 217.05 296.5 217.05 296.5 216.75 296.35 216.6 296.2 216.45 295.9 216.45 295.9 216.75 296.05 216.9 Z"/>

<path fill="#000000" fill-opacity="0.4392156862745098" stroke="none" d="
M 297.75 216.45
Q 297.45 216.45 297.15 216.45 297.15 216.75 297.15 217.05 297.45 217.05 297.6 216.9 297.75 216.75 297.75 216.45
M 307.2 207.65
Q 307.2 207.95 307.2 208.3 307.5 208.3 307.65 208.15 307.8 207.95 307.8 207.65 307.5 207.65 307.2 207.65 Z"/>

<path fill="#000000" fill-opacity="0.7568627450980392" stroke="none" d="
M 295.25 212.7
Q 294.95 212.7 294.65 212.7 294.65 213 294.65 213.3 294.65 213.6 294.65 213.95 294.95 213.6 295.15 213.25 295.25 213 295.25 212.7 Z"/>

<path fill="#000000" fill-opacity="0.5254901960784314" stroke="none" d="
M 297.15 212.05
Q 297.15 212.35 297.15 212.7 297.45 212.7 297.6 212.5 297.75 212.35 297.75 212.05 297.45 212.05 297.15 212.05
M 399.35 212.3
Q 398.85 212.05 398.25 212.05 398.55 212.35 398.9 212.55 399.15 212.7 399.5 212.7 399.5 212.35 399.35 212.3 Z"/>

<path fill="#000000" fill-opacity="0.4588235294117647" stroke="none" d="
M 298.85 215.65
Q 299.05 215.5 299.05 215.2 298.7 215.2 298.4 215.2 298.4 215.5 298.4 215.8 298.7 215.8 298.85 215.65
M 309.7 207.05
Q 309.4 207.05 309.05 207.05 309.05 207.35 309.05 207.65 309.4 207.65 309.55 207.5 309.7 207.35 309.7 207.05
M 403.9 212.7
Q 403.9 212.35 403.7 212.2 403.55 212.05 403.25 212.05 403.25 212.35 403.4 212.5 403.55 212.7 403.9 212.7
M 425.05 217.85
Q 424.9 217.7 424.6 217.7 424.6 218 424.75 218.15 424.9 218.35 425.2 218.35 425.2 218 425.05 217.85 Z"/>

<path fill="#000000" fill-opacity="0.4745098039215686" stroke="none" d="
M 299.65 214.55
Q 299.35 214.55 299.05 214.55 299.05 214.9 299.05 215.2 299.35 215.2 299.5 215.05 299.65 214.9 299.65 214.55
M 302.8 210.15
Q 303.1 210.15 303.25 210 303.4 209.85 303.4 209.55 303.1 209.55 302.8 209.55 302.8 209.85 302.8 210.15
M 397.6 212.1
Q 397.9 212.05 398.25 212.05 398.25 211.75 398.15 211.7 396.95 211.4 395.7 211.4 395.9 212.5 397.6 212.1
M 415.8 215.8
Q 415.8 216.15 415.95 216.3 416.1 216.45 416.45 216.45 416.45 216.15 416.3 216 416.1 215.8 415.8 215.8
M 457.25 216.45
Q 456.95 216.45 456.6 216.45 456.6 216.75 456.6 217.05 456.95 217.05 457.1 216.9 457.25 216.75 457.25 216.45 Z"/>

<path fill="#000000" fill-opacity="0.5215686274509804" stroke="none" d="
M 300.3 213.95
Q 300.3 214.25 300.3 214.55 300.6 214.55 300.75 214.4 300.9 214.25 300.9 213.95 300.6 213.95 300.3 213.95 Z"/>

<path fill="#000000" fill-opacity="0.4117647058823529" stroke="none" d="
M 298.85 211.9
Q 299.05 211.75 299.05 211.4 298.7 211.4 298.4 211.4 298.4 211.75 298.4 212.05 298.7 212.05 298.85 211.9
M 402.45 211.6
Q 402.3 211.4 402 211.4 402 211.75 402.15 211.9 402.3 212.05 402.6 212.05 402.6 211.75 402.45 211.6
M 460.85 215.65
Q 461 215.5 461 215.2 460.7 215.2 460.4 215.2 460.4 215.5 460.4 215.8 460.7 215.8 460.85 215.65 Z"/>

<path fill="#000000" fill-opacity="0.43137254901960786" stroke="none" d="
M 300.3 210.8
Q 299.95 210.8 299.65 210.8 299.65 211.1 299.65 211.4 299.95 211.4 300.15 211.25 300.3 211.1 300.3 210.8
M 366.05 204.05
Q 365.9 203.9 365.6 203.9 365.6 204.2 365.6 204.5 365.9 204.5 366.2 204.5 366.2 204.2 366.05 204.05
M 433.4 220.85
Q 433.7 221.15 434 221.15
L 434 220.85
Q 433.7 220.85 433.4 220.85
M 446.55 218.35
Q 446.25 218.35 445.95 218.35 445 218.35 444.05 218.35 444.05 218.65 444.05 218.95 445.3 218.95 446.5 218.7 446.55 218.65 446.55 218.35 Z"/>

<path fill="#000000" fill-opacity="0.4980392156862745" stroke="none" d="
M 302.15 213.3
Q 301.85 213.3 301.55 213.3 301.55 213.6 301.55 213.95 301.85 213.95 302 213.8 302.15 213.6 302.15 213.3
M 410.2 216.3
Q 410.45 216.45 410.8 216.45 410.8 216.15 410.65 216.05 410.15 215.8 409.55 215.8 409.85 216.15 410.2 216.3
M 462.75 215.05
Q 462.9 214.9 462.9 214.55 462.6 214.55 462.25 214.55 462.25 214.9 462.25 215.2 462.6 215.2 462.75 215.05
M 455.25 217.45
Q 455.35 217.4 455.35 217.05 455.05 217.05 454.75 217.05 454.4 217.05 454.1 217.05 454.05 218.1 455.25 217.45 Z"/>

<path fill="#000000" fill-opacity="0.4823529411764706" stroke="none" d="
M 305.15 212.5
Q 305.3 212.35 305.3 212.05 305 212.05 304.7 212.05 304.7 212.35 304.7 212.7 305 212.7 305.15 212.5
M 387.55 208.3
Q 387.55 208.6 387.7 208.75 387.85 208.9 388.2 208.9 388.2 208.6 388 208.45 387.85 208.3 387.55 208.3
M 437.15 219.6
Q 437.15 219.25 437.05 219.25 436.2 218.95 435.25 218.95 435.2 220 436.55 219.65 436.85 219.6 437.15 219.6
M 472.95 210.8
Q 472.95 211.1 472.95 211.4 473.25 211.4 473.4 211.25 473.55 211.1 473.55 210.8 473.25 210.8 472.95 210.8 Z"/>

<path fill="#000000" fill-opacity="0.45098039215686275" stroke="none" d="
M 309.05 210.15
Q 308.75 210.15 308.45 210.15 308.45 210.5 308.45 210.8 308.75 210.8 308.9 210.65 309.05 210.5 309.05 210.15
M 417.85 218.8
Q 418 218.95 418.3 218.95 418.3 218.65 418.15 218.5 418 218.35 417.7 218.35 417.7 218.65 417.85 218.8
M 405.75 214.55
Q 405.75 214.9 405.9 215.05 406.05 215.2 406.4 215.2 406.4 214.9 406.25 214.7 406.05 214.55 405.75 214.55 Z"/>

<path fill="#000000" fill-opacity="0.6039215686274509" stroke="none" d="
M 312.85 206.4
Q 312.85 206.7 312.85 207.05 313.15 207.05 313.3 206.85 313.45 206.7 313.45 206.4 313.15 206.4 312.85 206.4
M 343.6 202
Q 343.6 202.3 343.6 202.65 343.9 202.65 344.05 202.5 344.25 202.3 344.25 202 343.9 202 343.6 202 Z"/>

<path fill="#000000" fill-opacity="0.47058823529411764" stroke="none" d="
M 304.5 209.4
Q 304.7 209.25 304.7 208.9 304.35 208.9 304.05 208.9 304.05 209.25 304.05 209.55 304.35 209.55 304.5 209.4
M 425.85 220.2
Q 425.85 219.9 425.7 219.75 425.55 219.6 425.2 219.6 425.2 219.9 425.4 220.05 425.55 220.2 425.85 220.2
M 477.95 205.15
Q 477.65 205.15 477.35 205.15 477.35 205.45 477.35 205.75 477.65 205.75 477.8 205.6 477.95 205.45 477.95 205.15 Z"/>

<path fill="#000000" fill-opacity="0.4666666666666667" stroke="none" d="
M 320.35 207.05
Q 320.05 207.05 319.75 207.05 319.75 207.35 319.75 207.65 320.35 207.65 320.9 207.4 321 207.35 321 207.05 320.7 207.05 320.35 207.05
M 453.3 217.55
Q 453.5 217.4 453.5 217.05 453.15 217.05 452.85 217.05 452.85 217.4 452.85 217.7 453.15 217.7 453.3 217.55 Z"/>

<path fill="#000000" fill-opacity="0.5529411764705883" stroke="none" d="
M 318.35 208.15
Q 318.5 207.95 318.5 207.65 318.2 207.65 317.85 207.65 317.85 207.95 317.85 208.3 318.2 208.3 318.35 208.15
M 477.95 207.65
Q 477.65 207.65 477.35 207.65 477.35 207.95 477.35 208.3 477.65 208.3 477.8 208.15 477.95 207.95 477.95 207.65 Z"/>

<path fill="#000000" fill-opacity="0.4549019607843137" stroke="none" d="
M 313.95 209.4
Q 314.1 209.25 314.1 208.9 313.8 208.9 313.45 208.9 313.45 209.25 313.45 209.55 313.8 209.55 313.95 209.4
M 444.05 220.85
Q 444.35 221.15 444.7 221.15
L 444.7 220.85
Q 444.35 220.85 444.05 220.85 Z"/>

<path fill="#000000" fill-opacity="0.596078431372549" stroke="none" d="
M 315.8 208.75
Q 316 208.6 316 208.3 315.65 208.3 315.35 208.3 315.35 208.6 315.35 208.9 315.65 208.9 315.8 208.75 Z"/>

<path fill="#000000" fill-opacity="0.5058823529411764" stroke="none" d="
M 318.5 205.15
Q 318.2 205.15 317.85 205.15 317.85 205.45 317.85 205.75 318.5 205.75 319 205.5 319.1 205.45 319.1 205.15 318.8 205.15 318.5 205.15
M 379.4 206.4
Q 379.4 206.7 379.55 206.85 379.7 207.05 380 207.05 380 206.7 379.85 206.55 379.7 206.4 379.4 206.4
M 402.45 213.45
Q 402.3 213.3 402 213.3 402 213.6 402.15 213.8 402.3 213.95 402.6 213.95 402.6 213.6 402.45 213.45
M 464 214.4
Q 464.15 214.25 464.15 213.95 463.85 213.95 463.5 213.95 463.5 214.25 463.5 214.55 463.85 214.55 464 214.4 Z"/>

<path fill="#000000" fill-opacity="0.4235294117647059" stroke="none" d="
M 324.15 204.5
Q 324.15 204.2 324 204.05 323.85 203.9 323.5 203.9 323.5 204.2 323.5 204.5 323.85 204.5 324.15 204.5
M 324.15 205.75
Q 324.15 206.1 324.15 206.4 324.45 206.4 324.75 206.4 324.75 206.1 324.6 205.95 324.45 205.75 324.15 205.75
M 335.45 205.15
Q 335.45 204.85 335.3 204.65 335.15 204.5 334.8 204.5 334.8 204.85 334.95 205 335.15 205.15 335.45 205.15
M 349.25 203.9
Q 348.95 203.9 348.65 203.9 348.95 204.2 349.25 204.2
L 349.25 203.9
M 407.7 215.7
Q 407.95 215.8 408.25 215.8 408.25 215.5 408.15 215.45 407.65 215.2 407 215.2 407.35 215.5 407.7 215.7 Z"/>

<path fill="#000000" fill-opacity="0.403921568627451" stroke="none" d="
M 331.5 205.6
Q 331.65 205.45 331.65 205.15 331.35 205.15 331.05 205.15 331.05 205.45 331.05 205.75 331.35 205.75 331.5 205.6 Z"/>

<path fill="#000000" fill-opacity="0.5098039215686274" stroke="none" d="
M 327.3 205.75
Q 326.95 205.75 326.65 205.75 326.95 206.1 327.3 206.1
L 327.3 205.75 Z"/>

<path fill="#000000" fill-opacity="0.4" stroke="none" d="
M 333.55 202.65
Q 333.55 202.95 333.55 203.25 333.85 203.25 334.2 203.25 334.2 202.95 334.05 202.8 333.85 202.65 333.55 202.65
M 404.5 214.55
Q 404.5 214.25 404.35 214.1 404.2 213.95 403.9 213.95 403.9 214.25 404.05 214.4 404.2 214.55 404.5 214.55 Z"/>

<path fill="#000000" fill-opacity="0.5176470588235295" stroke="none" d="
M 336.05 202.65
Q 335.75 202.65 335.45 202.65 335.45 202.95 335.45 203.25 335.75 203.25 335.9 203.1 336.05 202.95 336.05 202.65
M 353.5 204.05
Q 353.35 203.9 353 203.9 353 204.2 353.2 204.35 353.35 204.5 353.65 204.5 353.65 204.2 353.5 204.05 Z"/>

<path fill="#000000" fill-opacity="0.43529411764705883" stroke="none" d="
M 339.7 204.05
Q 339.5 203.9 339.2 203.9 339.2 204.2 339.35 204.35 339.5 204.5 339.85 204.5 339.85 204.2 339.7 204.05
M 479.2 206.4
L 479.55 206.4
Q 479.55 206.1 479.2 205.75 479.2 206.1 479.2 206.4 Z"/>

<path fill="#000000" fill-opacity="0.5137254901960784" stroke="none" d="
M 348.65 202
Q 348.3 202 348 202 347.35 202 346.75 202 346.95 203.05 348.5 202.4 348.65 202.3 348.65 202
M 393.05 210.35
Q 392.9 210.15 392.55 210.15 392.55 210.5 392.75 210.65 392.9 210.8 393.2 210.8 393.2 210.5 393.05 210.35
M 398.7 210.35
Q 398.55 210.15 398.25 210.15 398.25 210.5 398.4 210.65 398.55 210.8 398.85 210.8 398.85 210.5 398.7 210.35
M 445.3 220.2
Q 445.3 219.9 445.15 219.75 445 219.6 444.7 219.6 444.7 219.9 444.7 220.2 444.7 220.55 444.7 220.85 445 220.85 445.15 220.7 445.3 220.55 445.3 220.2
M 427.8 218.85
Q 428.05 218.95 428.35 218.95 428.35 218.65 428.25 218.6 427.75 218.35 427.1 218.35 427.4 218.65 427.8 218.85 Z"/>

<path fill="#000000" fill-opacity="0.5294117647058824" stroke="none" d="
M 351.15 203.9
Q 350.8 203.9 350.5 203.9 350.45 204.95 351.65 204.25 351.75 204.2 351.75 203.9 351.45 203.9 351.15 203.9 Z"/>

<path fill="#000000" fill-opacity="0.5333333333333333" stroke="none" d="
M 354.8 202.4
Q 354.9 202.3 354.9 202 354.6 202 354.3 202 353.95 202 353.65 202 353.6 203.05 354.8 202.4
M 364.95 204.5
Q 364.95 204.2 364.8 204.05 364.65 203.9 364.3 203.9 364.3 204.2 364.3 204.5 364.65 204.5 364.95 204.5
M 450.95 219.9
L 450.95 219.6
Q 450.65 219.6 450.35 219.6 450.65 219.9 450.95 219.9 Z"/>

<path fill="#000000" fill-opacity="0.5372549019607843" stroke="none" d="
M 358.65 203.9
Q 358.65 203.6 358.55 203.5 358.05 203.25 357.4 203.25 357.4 203.6 357.4 203.9 357.75 203.9 358.05 203.9 358.35 203.9 358.65 203.9
M 420.2 217.4
L 420.2 217.05
Q 419.9 217.05 419.55 217.05 419.9 217.4 420.2 217.4 Z"/>

<path fill="#000000" fill-opacity="0.5686274509803921" stroke="none" d="
M 360.55 202
Q 360.5 203.05 361.7 202.4 361.8 202.3 361.8 202 361.5 202 361.2 202 360.85 202 360.55 202
M 459.65 216.2
Q 459.75 216.15 459.75 215.8 459.45 215.8 459.15 215.8 458.8 215.8 458.5 215.8 458.5 216.15 458.5 216.45 459.15 216.45 459.65 216.2
M 479.05 204.05
Q 478.9 203.9 478.6 203.9 478.6 204.2 478.6 204.5 478.9 204.5 479.2 204.5 479.2 204.2 479.05 204.05 Z"/>

<path fill="#000000" fill-opacity="0.49019607843137253" stroke="none" d="
M 371.85 205.2
Q 372.15 205.15 372.5 205.15 372.5 204.85 372.4 204.85 370.9 204.5 369.35 204.5 369.85 205.6 371.85 205.2
M 454.1 218.35
Q 454.1 218.65 454.1 218.95 454.4 218.95 454.55 218.8 454.75 218.65 454.75 218.35 454.4 218.35 454.1 218.35 Z"/>

<path fill="#000000" fill-opacity="0.4196078431372549" stroke="none" d="
M 369.95 203.25
Q 369.95 202.95 369.8 202.8 369.65 202.65 369.35 202.65 369.35 202.95 369.5 203.1 369.65 203.25 369.95 203.25
M 381.9 207.05
Q 381.6 207.05 381.25 207.05 381.2 208.05 382.4 207.4 382.55 207.35 382.55 207.05 382.2 207.05 381.9 207.05
M 414.4 217.25
Q 414.25 217.05 413.9 217.05 413.9 217.4 414.1 217.55 414.25 217.7 414.55 217.7 414.55 217.4 414.4 217.25
M 467.9 213.3
Q 467.6 213.3 467.3 213.3 467.3 213.6 467.3 213.95 467.6 213.95 467.75 213.8 467.9 213.6 467.9 213.3 Z"/>

<path fill="#000000" fill-opacity="0.4470588235294118" stroke="none" d="
M 383.3 208.15
Q 383.45 208.3 383.8 208.3 383.8 207.95 383.65 207.8 383.45 207.65 383.15 207.65 383.15 207.95 383.3 208.15 Z"/>

<path fill="#000000" fill-opacity="0.5450980392156862" stroke="none" d="
M 380.65 205.15
Q 380.65 205.45 380.8 205.6 380.95 205.75 381.25 205.75 381.25 205.45 381.1 205.3 380.95 205.15 380.65 205.15
M 378.9 205
Q 379.1 205.15 379.4 205.15 379.4 204.85 379.25 204.65 379.1 204.5 378.75 204.5 378.75 204.85 378.9 205
M 439.05 218.95
Q 438.7 218.95 438.4 218.95 438.4 219.25 438.4 219.6 438.7 219.6 438.9 219.45 439.05 219.25 439.05 218.95
M 469.8 210.8
Q 469.8 211.1 469.8 211.4 470.1 211.4 470.25 211.25 470.45 211.1 470.45 210.8 470.1 210.8 469.8 210.8 Z"/>

<path fill="#000000" fill-opacity="0.48627450980392156" stroke="none" d="
M 376.25 205.75
Q 376.25 206.1 376.4 206.25 376.55 206.4 376.9 206.4 376.9 206.1 376.7 205.95 376.55 205.75 376.25 205.75 Z"/>

<path fill="#000000" fill-opacity="0.4627450980392157" stroke="none" d="
M 375.45 205.3
Q 375.3 205.15 375 205.15 375 205.45 375.15 205.6 375.3 205.75 375.6 205.75 375.6 205.45 375.45 205.3 Z"/>

<path fill="#000000" fill-opacity="0.592156862745098" stroke="none" d="
M 376.7 204.05
Q 376.55 203.9 376.25 203.9 376.25 204.2 376.4 204.35 376.55 204.5 376.9 204.5 376.9 204.2 376.7 204.05 Z"/>

<path fill="#000000" fill-opacity="0.47843137254901963" stroke="none" d="
M 394.45 210.8
Q 394.45 211.1 394.6 211.25 394.75 211.4 395.1 211.4 395.1 211.1 394.95 210.95 394.75 210.8 394.45 210.8
M 423.35 219.6
Q 423.35 219.25 423.25 219.25 422.4 218.95 421.45 218.95 421.4 220 422.75 219.65 423 219.6 423.35 219.6
M 408.9 213.95
Q 408.9 214.25 409.05 214.4 409.2 214.55 409.55 214.55 409.55 214.25 409.35 214.1 409.2 213.95 408.9 213.95
M 457.25 217.7
Q 456.95 217.7 456.6 217.7 456.6 218 456.6 218.35 456.95 218.35 457.1 218.15 457.25 218 457.25 217.7 Z"/>

<path fill="#000000" fill-opacity="0.42745098039215684" stroke="none" d="
M 393.2 208.9
Q 393.2 208.6 393.05 208.45 392.9 208.3 392.55 208.3 392.55 208.6 392.75 208.75 392.9 208.9 393.2 208.9
M 449.7 219.6
Q 449.4 219.6 449.1 219.6 449.1 219.9 449.1 220.2 449.4 220.2 449.55 220.05 449.7 219.9 449.7 219.6 Z"/>

<path fill="#000000" fill-opacity="0.5411764705882353" stroke="none" d="
M 388.8 208.9
Q 389.1 209.25 389.5 209.4 389.75 209.55 390.05 209.55 390.05 209.25 389.95 209.15 389.45 208.9 388.8 208.9
M 435.9 220.85
Q 435.9 221.15 435.9 221.45 438.4 221.45 440.9 221.15
L 440.9 220.85
Q 440.6 220.85 440.3 220.85 438.1 220.85 435.9 220.85
M 459.15 217.05
Q 459.15 217.4 459.15 217.7 459.45 217.7 459.6 217.55 459.75 217.4 459.75 217.05 459.45 217.05 459.15 217.05 Z"/>

<path fill="#000000" fill-opacity="0.5647058823529412" stroke="none" d="
M 420.85 218.95
Q 420.5 218.95 420.2 218.95 420.2 219.25 420.2 219.6 420.5 219.6 420.65 219.45 420.85 219.25 420.85 218.95
M 440.3 219.25
L 440.3 218.95
Q 440 218.95 439.65 218.95 440 219.25 440.3 219.25 Z"/>

<path fill="#000000" fill-opacity="0.41568627450980394" stroke="none" d="
M 411.4 217.05
Q 411.4 216.75 411.25 216.6 411.1 216.45 410.8 216.45 410.8 216.75 410.95 216.9 411.1 217.05 411.4 217.05 Z"/>

<path fill="#000000" fill-opacity="0.49411764705882355" stroke="none" d="
M 413.15 217.45
Q 413.3 217.4 413.3 217.05 413 217.05 412.65 217.05 412.35 217.05 412.05 217.05 411.95 218.1 413.15 217.45
M 448.95 218.7
Q 449.1 218.65 449.1 218.35 448.75 218.35 448.45 218.35 447.8 218.35 447.2 218.35 447.4 219.4 448.95 218.7 Z"/>

<path fill="#000000" fill-opacity="0.5019607843137255" stroke="none" d="
M 412.8 215.65
Q 413 215.8 413.3 215.8 413.3 215.5 413.15 215.35 413 215.2 412.65 215.2 412.65 215.5 412.8 215.65
M 430.4 221.3
Q 430.55 221.45 430.85 221.45 430.85 221.15 430.7 221 430.55 220.85 430.25 220.85 430.25 221.15 430.4 221.3 Z"/>

<path fill="#000000" fill-opacity="0.5568627450980392" stroke="none" d="
M 410.8 214.55
Q 410.8 214.9 410.95 215.05 411.1 215.2 411.4 215.2 411.4 214.9 411.25 214.7 411.1 214.55 410.8 214.55 Z"/>

<path fill="#000000" fill-opacity="0.5490196078431373" stroke="none" d="
M 451.6 217.7
Q 451.3 217.7 450.95 217.7 450.95 218 450.95 218.35 451.3 218.35 451.45 218.15 451.6 218 451.6 217.7 Z"/>

<path fill="#000000" fill-opacity="0.9333333333333333" stroke="none" d="
M 479.2 204.5
Q 478.9 204.5 478.6 204.5 478.25 204.5 477.95 204.5 477.95 204.85 477.95 205.15 477.95 205.45 477.8 205.6 477.65 205.75 477.35 205.75 477.35 206.1 477.2 206.15 473.45 208.15 470.45 210.8 470.45 211.1 470.25 211.25 470.1 211.4 469.8 211.4 469.5 211.4 469.25 211.55 466.75 212.75 464.15 213.95 464.15 214.25 464 214.4 463.85 214.55 463.5 214.55 463.2 214.55 462.9 214.55 462.9 214.9 462.75 215.05 462.6 215.2 462.25 215.2 461.95 215.2 461.65 215.2 461.3 215.2 461 215.2 461 215.5 460.85 215.65 460.7 215.8 460.4 215.8 460.05 215.8 459.75 215.8 459.75 216.15 459.65 216.2 459.15 216.45 458.5 216.45 458.2 216.45 457.85 216.45 457.55 216.45 457.25 216.45 457.25 216.75 457.1 216.9 456.95 217.05 456.6 217.05 456.3 217.05 456 217.05 455.65 217.05 455.35 217.05 455.35 217.4 455.25 217.45 454.05 218.1 454.1 217.05 453.8 217.05 453.5 217.05 453.5 217.4 453.3 217.55 453.15 217.7 452.85 217.7 452.55 217.7 452.2 217.7 451.9 217.7 451.6 217.7 451.6 218 451.45 218.15 451.3 218.35 450.95 218.35 450.65 218.35 450.35 218.35 449.7 218.35 449.1 218.35 449.1 218.65 448.95 218.7 447.4 219.4 447.2 218.35 446.9 218.35 446.55 218.35 446.55 218.65 446.5 218.7 445.3 218.95 444.05 218.95 443.75 218.95 443.45 218.95 441.85 218.95 440.3 218.95
L 440.3 219.25
Q 440 219.25 439.65 218.95 439.35 218.95 439.05 218.95 439.05 219.25 438.9 219.45 438.7 219.6 438.4 219.6 438.1 219.6 437.8 219.6 437.45 219.6 437.15 219.6 436.85 219.6 436.55 219.65 435.2 220 435.25 218.95 434.95 218.95 434.65 218.95 431.5 218.95 428.35 218.95 428.05 218.95 427.8 218.85 427.4 218.65 427.1 218.35 426.8 218.35 426.5 218.35 425.85 218.35 425.2 218.35 424.9 218.35 424.75 218.15 424.6 218 424.6 217.7 424.3 217.7 423.95 217.7 421.75 217.7 420.2 217.05
L 420.2 217.4
Q 419.9 217.4 419.55 217.05 419.25 217.05 418.95 217.1 417.25 217.2 416.45 216.45 416.1 216.45 415.95 216.3 415.8 216.15 415.8 215.8 415.5 215.8 415.2 215.8 414.25 215.8 413.3 215.8 413 215.8 412.8 215.65 412.65 215.5 412.65 215.2 412.35 215.2 412.05 215.2 411.7 215.2 411.4 215.2 411.1 215.2 410.95 215.05 410.8 214.9 410.8 214.55 410.45 214.55 410.15 214.55 409.85 214.55 409.55 214.55 409.2 214.55 409.05 214.4 408.9 214.25 408.9 213.95 408.6 213.95 408.3 213.85 406.3 213.1 403.9 212.7 403.55 212.7 403.4 212.5 403.25 212.35 403.25 212.05 402.95 212.05 402.6 212.05 402.3 212.05 402.15 211.9 402 211.75 402 211.4 401.7 211.4 401.35 211.35 400.1 211.1 398.85 210.8 398.55 210.8 398.4 210.65 398.25 210.5 398.25 210.15 397.9 210.15 397.6 210.15 395.2 209.8 393.2 208.9 392.9 208.9 392.75 208.75 392.55 208.6 392.55 208.3 389.55 207.85 386.95 206.95 384.4 206.1 381.25 205.75 380.95 205.75 380.8 205.6 380.65 205.45 380.65 205.15 380.35 205.15 380 205.15 379.7 205.15 379.4 205.15 379.1 205.15 378.9 205 378.75 204.85 378.75 204.5 378.45 204.5 378.15 204.5 377.5 204.5 376.9 204.5 376.55 204.5 376.4 204.35 376.25 204.2 376.25 203.9 375.95 203.9 375.65 203.85 373.15 203.25 369.95 203.25 369.65 203.25 369.5 203.1 369.35 202.95 369.35 202.65 369.05 202.65 368.7 202.65 364.55 202.55 361.8 202 361.8 202.3 361.7 202.4 360.5 203.05 360.55 202 360.25 202 359.95 202 357.4 202 354.9 202 354.9 202.3 354.8 202.4 353.6 203.05 353.65 202 353.35 202 353 202 350.8 202 348.65 202 348.65 202.3 348.5 202.4 346.95 203.05 346.75 202 346.45 202 346.1 202 345.15 202 344.25 202 344.25 202.3 344.05 202.5 343.9 202.65 343.6 202.65 343.3 202.65 343 202.65 339.5 202.65 336.05 202.65 336.05 202.95 335.9 203.1 335.75 203.25 335.45 203.25 335.15 203.25 334.8 203.25 334.5 203.25 334.2 203.25 333.85 203.25 333.55 203.25 333.25 203.25 332.95 203.3 328.45 203.8 324.15 204.5 323.85 204.5 323.5 204.5 323.2 204.5 322.9 204.55 321 204.85 319.1 205.15 319.1 205.45 319 205.5 318.5 205.75 317.85 205.75 317.55 205.75 317.25 205.75 315 205.75 313.45 206.4 313.45 206.7 313.3 206.85 313.15 207.05 312.85 207.05 312.55 207.05 312.2 207.05 310.95 207.05 309.7 207.05 309.7 207.35 309.55 207.5 309.4 207.65 309.05 207.65 308.75 207.65 308.45 207.65 308.15 207.65 307.8 207.65 307.8 207.95 307.65 208.15 307.5 208.3 307.2 208.3 306.85 208.3 306.8 208.4 306.35 209.35 304.7 208.9 304.7 209.25 304.5 209.4 304.35 209.55 304.05 209.55 303.75 209.55 303.4 209.55 303.4 209.85 303.25 210 303.1 210.15 302.8 210.15 302.5 210.15 302.25 210.35 301.5 210.75 300.3 210.8 300.3 211.1 300.15 211.25 299.95 211.4 299.65 211.4 299.35 211.4 299.05 211.4 299.05 211.75 298.85 211.9 298.7 212.05 298.4 212.05 298.1 212.05 297.75 212.05 297.75 212.35 297.6 212.5 297.45 212.7 297.15 212.7 296.85 212.7 296.5 212.7 295.9 212.7 295.25 212.7 295.25 213 295.15 213.25 294.95 213.6 294.65 213.95 294.5 215.65 295.8 216.1 295.9 216.15 295.9 216.45 296.2 216.45 296.35 216.6 296.5 216.75 296.5 217.05 296.85 217.05 297.15 217.05 297.15 216.75 297.15 216.45 297.45 216.45 297.75 216.45 297.75 216.15 297.75 215.8 298.1 215.8 298.4 215.8 298.4 215.5 298.4 215.2 298.7 215.2 299.05 215.2 299.05 214.9 299.05 214.55 299.35 214.55 299.65 214.55 299.95 214.55 300.3 214.55 300.3 214.25 300.3 213.95 300.6 213.95 300.9 213.95 301.2 213.95 301.55 213.95 301.55 213.6 301.55 213.3 301.85 213.3 302.15 213.3 303.4 213.3 304.15 212.85 304.35 212.7 304.7 212.7 304.7 212.35 304.7 212.05 305 212.05 305.3 212.05 306.8 211.65 307.9 210.9 308.15 210.8 308.45 210.8 308.45 210.5 308.45 210.15 308.75 210.15 309.05 210.15 310.6 209.5 312.85 209.55 313.15 209.55 313.45 209.55 313.45 209.25 313.45 208.9 313.8 208.9 314.1 208.9 314.4 208.9 314.7 208.9 315.05 208.9 315.35 208.9 315.35 208.6 315.35 208.3 315.65 208.3 316 208.3 316.6 208.3 317.25 208.3 317.55 208.3 317.85 208.3 317.85 207.95 317.85 207.65 318.2 207.65 318.5 207.65 318.8 207.65 319.1 207.65 319.45 207.65 319.75 207.65 319.75 207.35 319.75 207.05 320.05 207.05 320.35 207.05 320.7 207.05 321 207.05 323 207.45 323.7 206.55 323.85 206.4 324.15 206.4 324.15 206.1 324.15 205.75 324.45 205.75 324.6 205.95 324.75 206.1 324.75 206.4 325.4 206.1 326.05 205.85 326.35 205.75 326.65 205.75 326.95 205.75 327.3 205.75 328.85 205.75 330.4 205.75 330.75 205.75 331.05 205.75 331.05 205.45 331.05 205.15 331.35 205.15 331.65 205.15 332.95 203.95 333.85 204.85
L 334.25 204.65
Q 334.5 204.5 334.8 204.5 335.15 204.5 335.3 204.65 335.45 204.85 335.45 205.15 337.15 204.65 338.65 204 338.9 203.9 339.2 203.9 339.5 203.9 339.7 204.05 339.85 204.2 339.85 204.5 343.25 203.55 348 203.85 348.3 203.9 348.65 203.9 348.95 203.9 349.25 203.9 349.55 203.9 349.9 203.9 350.2 203.9 350.5 203.9 350.8 203.9 351.15 203.9 351.45 203.9 351.75 203.9 352.1 203.9 352.4 203.9 352.7 203.9 353 203.9 353.35 203.9 353.5 204.05 353.65 204.2 353.65 204.5 355.05 204 356.8 203.9 357.1 203.9 357.4 203.9 357.4 203.6 357.4 203.25 358.05 203.25 358.55 203.5 358.65 203.6 358.65 203.9 361.45 203.95 363.7 204.45 364 204.5 364.3 204.5 364.3 204.2 364.3 203.9 364.65 203.9 364.8 204.05 364.95 204.2 364.95 204.5 365.25 204.5 365.6 204.5 365.6 204.2 365.6 203.9 365.9 203.9 366.05 204.05 366.2 204.2 366.2 204.5 367.45 204.5 368.7 204.5 369.05 204.5 369.35 204.5 370.9 204.5 372.4 204.85 372.5 204.85 372.5 205.15 373.45 205.15 374.35 205.15 374.7 205.15 375 205.15 375.3 205.15 375.45 205.3 375.6 205.45 375.6 205.75 375.95 205.75 376.25 205.75 376.55 205.75 376.7 205.95 376.9 206.1 376.9 206.4 377.8 206.4 378.75 206.4 379.1 206.4 379.4 206.4 379.7 206.4 379.85 206.55 380 206.7 380 207.05 380.35 207.05 380.65 207.05 380.95 207.05 381.25 207.05 381.6 207.05 381.9 207.05 382.2 207.05 382.55 207.05 382.85 207.05 383 207.2 383.15 207.35 383.15 207.65 383.45 207.65 383.65 207.8 383.8 207.95 383.8 208.3 385.35 208.3 386.9 208.3 387.25 208.3 387.55 208.3 387.85 208.3 388 208.45 388.2 208.6 388.2 208.9 388.5 208.9 388.8 208.9 389.45 208.9 389.95 209.15 390.05 209.25 390.05 209.55 390.25 210.6 391.95 210.25 392.25 210.15 392.55 210.15 392.9 210.15 393.05 210.35 393.2 210.5 393.2 210.8 393.5 210.8 393.85 210.8 394.15 210.8 394.45 210.8 394.75 210.8 394.95 210.95 395.1 211.1 395.1 211.4 395.4 211.4 395.7 211.4 396.95 211.4 398.15 211.7 398.25 211.75 398.25 212.05 398.85 212.05 399.35 212.3 399.5 212.35 399.5 212.7 401.2 212.25 401.6 213.2 401.7 213.3 402 213.3 402.3 213.3 402.45 213.45 402.6 213.6 402.6 213.95 402.95 213.95 403.25 213.95 403.55 213.95 403.9 213.95 404.2 213.95 404.35 214.1 404.5 214.25 404.5 214.55 404.8 214.55 405.15 214.55 405.45 214.55 405.75 214.55 406.05 214.55 406.25 214.7 406.4 214.9 406.4 215.2 406.7 215.2 407 215.2 407.65 215.2 408.15 215.45 408.25 215.5 408.25 215.8 408.6 215.8 408.9 215.8 409.2 215.8 409.55 215.8 410.15 215.8 410.65 216.05 410.8 216.15 410.8 216.45 411.1 216.45 411.25 216.6 411.4 216.75 411.4 217.05 411.7 217.05 412.05 217.05 412.35 217.05 412.65 217.05 413 217.05 413.3 217.05 413.6 217.05 413.9 217.05 414.25 217.05 414.4 217.25 414.55 217.4 414.55 217.7 416.55 217.25 417.25 218.15 417.35 218.35 417.7 218.35 418 218.35 418.15 218.5 418.3 218.65 418.3 218.95 418.95 219.25 419.6 219.5 419.9 219.6 420.2 219.6 420.2 219.25 420.2 218.95 420.5 218.95 420.85 218.95 421.15 218.95 421.45 218.95 422.4 218.95 423.25 219.25 423.35 219.25 423.35 219.6 423.95 219.6 424.6 219.6 424.9 219.6 425.2 219.6 425.55 219.6 425.7 219.75 425.85 219.9 425.85 220.2 427.75 220.55 429.6 220.8 429.95 220.85 430.25 220.85 430.55 220.85 430.7 221 430.85 221.15 430.85 221.45 432.1 221.45 432.85 221 433.05 220.85 433.4 220.85 433.7 220.85 434 220.85 434.65 221.15 435.3 221.4 435.6 221.45 435.9 221.45 435.9 221.15 435.9 220.85 438.1 220.85 440.3 220.85 440.6 220.85 440.9 220.85 442.15 220.85 443.45 220.85 443.75 220.85 444.05 220.85 444.35 220.85 444.7 220.85 444.7 220.55 444.7 220.2 444.7 219.9 444.7 219.6 445 219.6 445.15 219.75 445.3 219.9 445.3 220.2 446.9 220.2 448.45 220.2 448.75 220.2 449.1 220.2 449.1 219.9 449.1 219.6 449.4 219.6 449.7 219.6 450 219.6 450.35 219.6 450.65 219.6 450.95 219.6 452.7 219.7 453.55 219.1 453.8 218.95 454.1 218.95 454.1 218.65 454.1 218.35 454.4 218.35 454.75 218.35 455.35 218.35 456 218.35 456.3 218.35 456.6 218.35 456.6 218 456.6 217.7 456.95 217.7 457.25 217.7 457.85 217.7 458.5 217.7 458.8 217.7 459.15 217.7 459.15 217.4 459.15 217.05 459.45 217.05 459.75 217.05 463.45 215.75 467.2 214.3 467.3 214.25 467.3 213.95 467.3 213.6 467.3 213.3 467.6 213.3 467.9 213.3 470.8 213.05 472.45 211.6 472.6 211.4 472.95 211.4 472.95 211.1 472.95 210.8 473.25 210.8 473.55 210.8 475.75 210.15 476.9 208.45 477 208.3 477.35 208.3 477.35 207.95 477.35 207.65 477.65 207.65 477.95 207.65 478.6 207.35 479.05 206.85 479.2 206.7 479.2 206.4 479.2 206.1 479.2 205.75 479.2 205.45 479.2 205.15 479.2 204.85 479.2 204.5 Z"/>
</g>
</defs>

<mask id="Mask_Mask_1">
<g transform="matrix( 1, 0, 0, 1, 0,0) ">
<use xlink:href="#Mask_5_MASK_0_FILL"/>
</g>
</mask>

<g mask="url(#Mask_Mask_1)">
<g transform="matrix( 1, 0, 0, 1, 0,0) ">
<use xlink:href="#Layer5_0_FILL"/>
</g>
</g>

<g transform="matrix( 1, 0, 0, 1, 0,0) ">
<use xlink:href="#Layer3_0_FILL"/>
</g>

<g transform="matrix( 1, 0, 0, 1, 0,0) ">
<use xlink:href="#Layer1_0_FILL"/>
</g>
</svg>
