
<svg xmlns="http://www.w3.org/2000/svg" version="1.1" xmlns:xlink="http://www.w3.org/1999/xlink" preserveAspectRatio="none" x="0px" y="0px" width="500px" height="500px" viewBox="0 0 500 500">
<defs>
<g id="Mask_5_MASK_0_FILL">
<path fill="#FFFFFF" stroke="none" d="
M 19 213.05
L 9.05 213.05 9.05 282.05 19 282.05 19 213.05 Z"/>
</g>

<g id="Layer5_0_FILL">
<path fill="#000000" fill-opacity="0.6549019607843137" stroke="none" d="
M 224 276.5
Q 225.45 276.5 224 276.2
L 224 276.5 Z"/>

<path fill="#000000" fill-opacity="0.4392156862745098" stroke="none" d="
M 59.95 261.1
L 59.95 261.4
Q 61.35 261.4 59.95 261.1
M 50.05 259.05
Q 50.2 259.2 50.5 259.2 50.5 258.9 50.35 258.75 50.2 258.55 49.9 258.55 49.9 258.9 50.05 259.05
M 41.7 254.15
Q 41.7 253.85 41.55 253.7 41.4 253.55 41.1 253.55 41.1 253.85 41.25 254 41.4 254.15 41.7 254.15
M 32.9 251.05
Q 33.2 251.05 33.55 251.05 33.55 250.7 33.4 250.55 33.2 250.4 32.9 250.4 32.9 250.7 32.9 251.05 Z"/>

<path fill="#000000" fill-opacity="0.5803921568627451" stroke="none" d="
M 71.75 262.75
Q 71.5126953125 262.8560546875 71.25 262.95 71.210546875 263.36328125 71.4 263.55 72.940234375 263.292578125 71.75 262.75
M 73.75 262.95
Q 74.1 262.95 74.4 262.95 73.584765625 262.724609375 73.15 262.6 72.54765625 262.6099609375 71.95 262.7 73.4923828125 262.95 73.75 262.95 Z"/>

<path fill="#000000" fill-opacity="0.7490196078431373" stroke="none" d="
M 77.1 264.25
Q 77.0705078125 264.1599609375 77.05 264.05 76.895703125 263.341015625 74.4 262.75 74.214453125 262.715625 74 262.65 73.825390625 262.6318359375 73.65 262.6 72.0064453125 262.2494140625 73.15 262.6 73.584765625 262.724609375 74.4 262.95 74.1 262.95 73.75 262.95 73.4923828125 262.95 71.95 262.7 71.7330078125 262.6923828125 71.45 262.65 71.6345703125 262.7205078125 71.75 262.75 72.940234375 263.292578125 71.4 263.55 71.28515625 263.580859375 71.15 263.6 71.3166015625 263.603125 71.45 263.6 71.7841796875 263.8416015625 72.55 263.65 74.58984375 263.879296875 75.35 264.55
L 75.7 264.35
Q 75.892578125 264.273046875 76.9 264.25 77.0525390625 264.4673828125 77.2 264.75 77.14375 264.4783203125 77.1 264.25
M 77.6 264.25
Q 77.5265625 264.2302734375 77.45 264.2 77.3357421875 264.1685546875 77.2 264.1
L 77.2 264.25
Q 77.39921875 264.25 77.6 264.25 Z"/>

<path fill="#000000" fill-opacity="0.49411764705882355" stroke="none" d="
M 77.45 264.2
Q 77.3765625 264.0435546875 77.25 263.7
L 77.2 264.1
Q 77.3357421875 264.1685546875 77.45 264.2 Z"/>

<path fill="#000000" fill-opacity="0.45098039215686275" stroke="none" d="
M 59.3 261.1
Q 59 261.1 58.7 261.1 59 261.4 59.3 261.4
L 59.3 261.1 Z"/>

<path fill="#000000" fill-opacity="0.396078431372549" stroke="none" d="
M 60.55 259.85
Q 60.55 259.8072265625 60.55 259.75 60.0306640625 259.5806640625 60.1 259.65 60.1451171875 259.71015625 60.2 259.75 60.32421875 259.838671875 60.5 259.85
L 60.55 259.85 Z"/>

<path fill="#000000" fill-opacity="0.6274509803921569" stroke="none" d="
M 65.6 261.7
Q 65.3 261.7 64.95 261.7 64.95 262.35 65.2 262.85 65.3 262.95 65.6 262.95 65.6 262.65 65.6 262.35 65.6 262.05 65.6 261.7 Z"/>

<path fill="#000000" fill-opacity="0.42745098039215684" stroke="none" d="
M 66.25 263.6
Q 66.25 263.3 66.05 263.15 65.9 262.95 65.6 262.95 65.6 263.3 65.75 263.45 65.9 263.6 66.25 263.6 Z"/>

<path fill="#000000" fill-opacity="0.403921568627451" stroke="none" d="
M 70 262.95
Q 69.7 262.95 69.35 262.95 69.7 263.3 70 263.3
L 70 262.95 Z"/>

<path fill="#000000" fill-opacity="0.8196078431372549" stroke="none" d="
M 69.35 262.95
Q 69.7 262.95 70 262.95 70.65 262.95 71.15 262.7 71.25 262.65 71.25 262.35 70.95 262.35 70.65 262.35 70.3 262.35 70.1 262.2 67.3 260.25 65.6 262.35 65.6 262.65 65.6 262.95 65.9 262.95 66.05 263.15 66.25 263.3 66.25 263.6 67.9 263.75 68.85 263.15 69.05 262.95 69.35 262.95
M 66.85 262.05
L 66.85 261.7
Q 68.25 262.05 66.85 262.05 Z"/>

<path fill="#000000" fill-opacity="0.5215686274509804" stroke="none" d="
M 66.85 261.7
L 66.85 262.05
Q 68.25 262.05 66.85 261.7 Z"/>

<path fill="#000000" fill-opacity="0.6039215686274509" stroke="none" d="
M 70.65 261.7
Q 70.65 262.05 70.65 262.35 70.95 262.35 71.25 262.35 71.25 262.05 71.1 261.85 70.95 261.7 70.65 261.7 Z"/>

<path fill="#000000" fill-opacity="0.4588235294117647" stroke="none" d="
M 26 248.5
Q 26 248.85 26 249.15 26.3 249.15 26.45 249 26.6 248.85 26.6 248.5 26.3 248.5 26 248.5 Z"/>

<path fill="#000000" fill-opacity="0.4627450980392157" stroke="none" d="
M 26.6 248.5
Q 26.95 248.5 27.25 248.5 27.25 248.2 27.1 248.05 26.95 247.9 26.6 247.9 26.6 248.2 26.6 248.5 Z"/>

<path fill="#000000" fill-opacity="0.47843137254901963" stroke="none" d="
M 28.5 250.4
Q 28.5 250.1 28.4 250 27.9 249.75 27.25 249.75 27.55 250.1 27.95 250.3 28.2 250.4 28.5 250.4 Z"/>

<path fill="#000000" fill-opacity="0.4" stroke="none" d="
M 30.85 249.3
Q 30.7 249.15 30.4 249.15 30.4 249.45 30.55 249.6 30.7 249.75 31 249.75 31 249.45 30.85 249.3 Z"/>

<path fill="#000000" fill-opacity="0.5058823529411764" stroke="none" d="
M 38.55 252.9
Q 38.55 252.6 38.4 252.45 38.25 252.3 37.95 252.3 37.95 252.6 38.1 252.75 38.25 252.9 38.55 252.9 Z"/>

<path fill="#000000" fill-opacity="0.4196078431372549" stroke="none" d="
M 37.3 252.3
Q 37.3 251.95 37.15 251.8 37 251.65 36.7 251.65 36.7 251.95 36.85 252.15 37 252.3 37.3 252.3 Z"/>

<path fill="#000000" fill-opacity="0.8627450980392157" stroke="none" d="
M 36.65 253.15
Q 37 253.25 37.35 253.5 39.8 255.45 44.2 255.7 44.55 255.75 44.9 256.05 45.9 256.9 47.4 257.25 48.95 257.6 49.9 258.55 50.2 258.55 50.35 258.75 50.5 258.9 50.5 259.2 52.5 260 55.55 260.1 56.15 260.15 56.8 260.15 57.4 260.15 58.1 260 59.05 259.75 58.7 261.1 59 261.1 59.3 261.1 61.6 260.2 64.4 261.6 64.65 261.7 64.95 261.7 65.3 261.7 65.6 261.7 65.6 261.4 65.45 261.3 63.805859375 260.3134765625 61.55 259.95 61.200390625 259.916796875 60.8 259.85 60.693359375 259.8623046875 60.55 259.85
L 60.5 259.85
Q 60.32421875 259.838671875 60.2 259.75 57.221484375 258.7869140625 56.15 258.75 53 258.6 51.15 257.25 50.8 257 50.5 256.95 48 256.7 46.55 255.7 46.1 255.45 45.75 255.1 44.4 254 41.7 254.15 41.4 254.15 41.25 254 41.1 253.85 41.1 253.55 40.75 253.55 40.45 253.55 39.25 253.5 38.55 252.9 38.25 252.9 38.1 252.75 37.95 252.6 37.95 252.3 37.6 252.3 37.3 252.3 37 252.3 36.85 252.15 36.7 251.95 36.7 251.65 36.35 251.65 36.05 251.7 34.35 251.8 33.55 251.05 33.2 251.05 32.9 251.05 32.6 251.05 32.55 250.9 32.1 249.95 31 249.75 30.7 249.75 30.55 249.6 30.4 249.45 30.4 249.15 30.1 249.15 29.85 249 28.95 248.4 27.25 248.5 26.95 248.5 26.6 248.5 26.6 248.85 26.45 249 26.3 249.15 26 249.15 26.3 249.45 26.7 249.65 26.95 249.75 27.25 249.75 27.9 249.75 28.4 250 28.5 250.1 28.5 250.4 31 251.7 33.65 252.5 35.1 252.9 36.65 253.15 Z"/>

<path fill="#000000" fill-opacity="0.9215686274509803" stroke="none" d="
M 24.75 247.25
Q 24.4 247.25 24.1 247.25 23.8 247.25 23.5 247.25 24.1 248.2 25.35 248.45 25.7 248.5 26 248.5 26.3 248.5 26.6 248.5 26.6 248.2 26.6 247.9 26.3 247.9 26.15 247.75 26 247.55 26 247.25 25.7 247.25 25.35 247.25 25.05 247.25 24.75 247.25 Z"/>

<path fill="#000000" fill-opacity="0.5254901960784314" stroke="none" d="
M 26.45 247.4
Q 26.3 247.25 26 247.25 26 247.55 26.15 247.75 26.3 247.9 26.6 247.9 26.6 247.55 26.45 247.4 Z"/>

<path fill="#000000" fill-opacity="0.5294117647058824" stroke="none" d="
M 24.75 247.25
Q 24.75 246.95 24.6 246.9 24.1 246.65 23.5 246.65 23.5 246.95 23.5 247.25 23.8 247.25 24.1 247.25 24.4 247.25 24.75 247.25 Z"/>

<path fill="#000000" fill-opacity="0.803921568627451" stroke="none" d="
M 102 270.05
Q 102.35 270.2 102.65 270.15 104.75 270.05 107.05 270.15 107.4 270.2 107.6 270.15 109.15 269.7 110.9 271.1 112.25 272.25 115.25 272.1 115.55 272.1 115.75 272.05 116.55 271.8 117.8 271.75 120.4 271.7 122.25 272.2 124.95 273.05 125.95 272.4 125.5 270.65 122.8 270.65 120.75 270.65 118.45 270.25 117 270 115.3 269.7 114.65 269.55 114 269.55 113.7 269.55 113.55 269.5 112.1 269 109.6 268.95 108.95 268.95 108.35 268.95 108.05 268.95 107.85 268.9 105 267.9 100.85 267.55 98.9 267.35 96.95 267 94.65 266.6 92.6 266.25 91.35 266.1 90.2 265.8 86.65 264.85 82.6 264.05 80.4 263.65 78.8 264.25 79.1 264.55 79.1 264.85 79 266.55 80.55 265.8 81.45 265.4 83.35 266.45 83.85 266.75 84.15 266.45 84.65 266 86.3 266.85 90.85 269.3 96.45 268.15 97.05 268 97.15 268.25 97.35 268.65 97.45 269.15 97.7 269.85 98.75 269.5 99.7 269.1 102 270.05
M 98.3 268.3
L 98.3 268
Q 99.7 268.3 98.3 268.3 Z"/>

<path fill="#000000" fill-opacity="0.23137254901960785" stroke="none" d="
M 98.3 268
L 98.3 268.3
Q 99.7 268.3 98.3 268 Z"/>

<path fill="#000000" fill-opacity="0.8784313725490196" stroke="none" d="
M 454.05 243.95
Q 454.4 243.8 454.7 243.8 460.05 244.1 460.4 239.7 460.05 239.4 459.75 239.1 459.1 238.5 457.95 238.8 456.45 239.25 455.15 240.05 454.75 240.35 454.25 240.6 451 242.25 447.15 243.4 444.45 244.2 442.2 245.5 439.25 247.2 435.8 248.35 435.25 248.5 434.8 248.8 430.6 251.45 425.15 252.75 424.55 252.9 424.1 253.2 421.35 255.05 417.6 255.95 417 256.05 416.5 256.3 409.95 259.05 402.5 260.9 394.85 262.8 387.45 264.75 383.65 265.75 379.35 266.45 377.05 266.8 372.45 267.65 368.65 268.4 364.2 268.6 363.6 268.65 363.05 268.9 359.95 270.35 354.75 270.2 354.45 270.2 354.1 270.25 349.6 270.7 345.9 271.5 341.9 272.4 337.8 273.05 334.9 273.55 331.55 273.95 331.2 274 330.9 274 325.85 274.25 323.35 274.85 321.3 275.4 318.95 275.25 318.65 275.25 318.4 275.3 316.5 275.65 313.95 275.85 312.2 276 310.75 276.1 306.6 276.35 305.1 276.4 303.15 276.45 301.95 276.5 296.95 276.8 291.95 277.1 291.6 277.1 291.4 277.05 288.85 276.45 285.05 276.95 282.3 277.3 281.2 277.15 278.4 276.8 275.55 276.75 271 276.65 266.75 276.25 265.5 276.2 264.4 275.8 262.7 275.2 260.5 274.9 256.25 274.4 253.55 272.4 253.9 271.75 254.25 271.2 254.5 270.85 254.55 270.9 256.4 272.05 257.45 269.95 257.65 269.55 257.85 269.65 259.65 270 260.15 269.55 260.5 269.25 260.8 268.95 261.1 268.65 261.15 268.65 263.1 268.45 263.7 267.45 263.95 267.05 264.3 266.95 265.2 266.75 266.05 266.5 268.8 265.65 271.1 264.15 272.4 263.3 273.3 262.05 274 261.1 274.9 260.4 276.8 258.9 275.55 257.3 275.2 255.45 273.6 255.15 273.35 255.1 273 255.2 270.1 255.6 267.45 256.3 267.1 256.35 266.7 256.5 261.6 258.1 257.45 260.65 251.6 264.15 248.55 270.5 246.3 270.5 244.85 271.3 244.25 271.65 241.65 272.05 237.5 272.6 234.7 272.95 231.55 273.35 228.4 273.6 227.45 273.65 226.65 274 223.4 275.25 218.35 275.15 216.4 275.15 215.2 275.4 211.9 276.15 208.25 275.9 208 275.85 207.65 275.85 196.05 276.2 184.4 276 179.25 275.95 176.25 275.85 175.9 275.85 175.6 275.85 172.8 275.55 170 275.25 166 274.8 161.15 274.85 156.45 274.9 152.35 274.2 151.1 274 149.85 273.9 140.8 273.3 132.25 272.15 131.9 272.1 131.6 272.1 131.3 272.1 131.15 272.05 129.55 271.3 126.6 271.75 126.9 272.1 127.25 272.35 128.15 273.05 129.05 273.7 129.4 274 129.6 273.9 130.35 273.65 131.1 273.3
L 131.6 273.05
Q 130.75 274 131.65 274.1 132.85 274.3 134.05 274.55 136.15 275.1 139.15 275.25
L 139.45 275.25
Q 140.4 274 142.9 274.3 144.35 274.6 143 275.1
L 142.6 275.25
Q 144.6 275.1 145.65 275.85 146.05 276.2 146.4 275.85 147.65 274.65 148.9 275.85 149.2 276.2 149.25 276 150 273.9 151.15 275.5 151.4 275.85 151.8 275.95 154.25 276.5 156.75 276.75 161 277.3 163.75 276.45 166.3 275.7 167.45 276.8 167.75 277.1 168.15 277.25 170.1 277.9 172.45 277.8 172.8 277.75 173.1 277.75
L 173.4 277.75
Q 174.25 276.7 176.2 277.05 176.55 277.1 176.85 277.1 177.95 276.95 180.6 277.6 182 277.95 183.7 277.6 186.3 277.15 187.5 278.1 187.85 278.4 188.25 278.5 188.8 278.7 189.2 278.4 191.15 276.95 192.55 278.1 192.9 278.4 193 278.3 194.6 277.55 196.95 277.7 197.3 277.75 197.6 277.75 197.95 277.75 198.2 277.8 199.6 277.95 201.35 277.8 201.7 277.75 202.1 277.65 204.7 276.95 205.85 277.25 209.2 278.1 213.3 277.8 213.65 277.75 213.95 277.8 219.65 278.4 221.5 275.55 221.8 275.55 221.9 275.65
L 222.15 276.2
Q 224 274.75 225.9 276.8 226.2 276.5 226.55 276.45 229.4 276.25 230.9 274.9 231.25 274.6 231.35 274.65 232.45 275.25 234.05 275.25 234.4 275.25 234.75 275.2 241.2 274.8 245.9 272.85 247.6 272.1 249.8 271.75 250.4 275.55 253.65 276.55 254.5 276.8 255.25 277.2 258.55 279.05 264.25 279 266.15 279 268 279 268.65 279 269.25 279.05 273.25 279.45 278.05 279.7 279.8 279.8 281.15 279.5 282.2 279.3 285.05 279.6 285.3 279.65 285.65 279.6 288.15 279.3 290.6 279.65 291.75 279.8 294.45 279.5 299.95 278.9 301.35 279.15 302.6 279.3 303.75 278.95 304.5 278.7 305.65 279.05 306.7 279.3 309.55 278.8 310.15 278.7 310.4 278.4 311.25 277.3 313.2 277.8 317.35 278.8 321.4 277.3 321.75 277.1 321.95 277.2 325.05 278.4 327.1 276.2 327.45 275.85 327.7 275.9 329.15 276.05 330.9 275.95 335.15 275.7 339.6 275.15 341.55 274.9 343.5 274.55 345.8 274.15 347.85 273.7 350.8 273.15 354.15 273 355.9 272.9 357.3 272.6 359.05 272.3 360.45 272 361.7 271.75 362.8 271.4 364.75 270.75 367.35 270.85 367.65 270.85 368 270.85 368.3 270.85 368.65 270.75 372.7 269.9 376.7 269.05 377.1 268.95 377.4 268.95 380.6 269 382.45 268.1 384.25 267.3 386.8 267.1 387.15 267.05 387.55 267 390.55 266.4 391.25 266.45 391.55 266.45 391.95 266.35 396 265.55 399.45 264.35 402 263.4 402.55 263.4 403.8 263.3 405.1 263.05 405.7 262.95 405.9 262.65 406.5 261.9 407.55 262 407.9 262.05 408.1 261.95 409.15 261.7 410.2 261.45 417.75 259.3 424.05 256.3 424.55 256.05 424.7 255.8 425.85 253.3 427.9 254.4 428 254.5 428.35 254.45 431 254.35 432.15 253 432.75 252.3 433.8 251.9 436.95 250.55 440.25 249.1 446.8 246.2 454.05 243.95
M 154.85 275.85
L 154.85 275.55
Q 156.3 275.85 154.85 275.85
M 267.2 263.4
Q 265.8 264.5 263.7 265.1 263.3 265.15 262.95 265.35 259.35 266.85 255.95 268.3 254.05 269.05 253.55 268 257.95 263.9 263.65 261.2 265.15 260.45 267.35 260.2 267.7 260.15 268.05 259.9 269.55 258.85 272.4 259.2 270.8 261.35 268.2 262.7 267.7 262.95 267.2 263.4
M 252.95 270.85
L 252.95 270.5
Q 254.35 270.85 252.95 270.85
M 252.95 268.95
L 252.95 268.65
Q 254.35 268.95 252.95 268.95
M 218.35 275.85
L 218.35 275.55
Q 221.75 275.85 218.35 275.85 Z"/>

<path fill="#000000" fill-opacity="0.24705882352941178" stroke="none" d="
M 218.35 275.55
L 218.35 275.85
Q 221.75 275.85 218.35 275.55 Z"/>

<path fill="#000000" fill-opacity="0.22745098039215686" stroke="none" d="
M 252.95 270.5
L 252.95 270.85
Q 254.35 270.85 252.95 270.5 Z"/>

<path fill="#000000" fill-opacity="0.2901960784313726" stroke="none" d="
M 154.85 275.55
L 154.85 275.85
Q 156.3 275.85 154.85 275.55 Z"/>
</g>

<g id="Mask_3_MASK_0_FILL">
<path fill="#FFFFFF" stroke="none" d="
M 435 204.05
L 420 204.05 420 265.05 435 265.05 435 204.05 Z"/>
</g>

<g id="Layer3_0_FILL">
<path fill="#000000" fill-opacity="0.43529411764705883" stroke="none" d="
M 217.1 251.05
Q 217.1 251.35 217.25 251.5 217.4 251.65 217.75 251.65 217.75 251.35 217.55 251.2 217.4 251.05 217.1 251.05
M 214.45 251.5
Q 214.6 251.35 214.6 251.05 214.25 251.05 213.95 251.05 213.95 251.35 213.95 251.65 214.25 251.65 214.45 251.5
M 299.95 248.05
Q 299.75 247.9 299.45 247.9 299.45 248.2 299.6 248.35 299.75 248.5 300.1 248.5 300.1 248.2 299.95 248.05
M 155.95 249
Q 156.1 248.85 156.1 248.5 155.8 248.5 155.5 248.5 155.5 248.85 155.5 249.15 155.8 249.15 155.95 249 Z"/>

<path fill="#000000" fill-opacity="0.43137254901960786" stroke="none" d="
M 212.7 251.95
L 212.7 251.65
Q 212.4 251.65 212.05 251.65 212.4 251.95 212.7 251.95
M 231.55 249.75
Q 231.55 250.1 231.7 250.25 231.85 250.4 232.2 250.4 232.2 250.1 232.05 249.95 231.85 249.75 231.55 249.75
M 138.5 257.95
Q 138.85 257.95 139 257.8 139.15 257.65 139.15 257.3 138.85 257.3 138.5 257.3 138.5 257.65 138.5 257.95
M 343.95 241.15
Q 343.75 240.95 343.45 240.95 343.45 241.3 343.45 241.6 343.75 241.6 344.1 241.6 344.1 241.3 343.95 241.15
M 406.8 243
Q 406.65 242.85 406.3 242.85 406.3 243.15 406.5 243.35 406.65 243.5 406.95 243.5 406.95 243.15 406.8 243 Z"/>

<path fill="#000000" fill-opacity="0.42745098039215684" stroke="none" d="
M 217.6 248.75
Q 217.1 248.5 216.45 248.5 216.45 248.85 216.45 249.15 216.8 249.15 217.1 249.15 217.4 249.15 217.75 249.15 217.75 248.85 217.6 248.75
M 241 246
Q 241 245.7 240.85 245.55 240.7 245.35 240.35 245.35 240.35 245.7 240.35 246 240.7 246 241 246
M 388.7 234.7
Q 388.4 234.7 388.1 234.7 388.4 235 388.7 235
L 388.7 234.7
M 414.5 244.1
Q 414.5 243.8 414.35 243.65 414.2 243.5 413.85 243.5 413.85 243.8 414 243.95 414.2 244.1 414.5 244.1 Z"/>

<path fill="#000000" fill-opacity="0.396078431372549" stroke="none" d="
M 222.75 251.65
Q 223.05 251.65 223.25 251.5 223.4 251.35 223.4 251.05 223.05 251.05 222.75 251.05 222.75 251.35 222.75 251.65
M 176.85 242.25
Q 176.55 242.25 176.25 242.25 176.55 242.55 176.85 242.55
L 176.85 242.25
M 304.5 247.9
Q 304.15 247.9 303.85 247.9 304.15 248.2 304.5 248.2
L 304.5 247.9
M 341.55 239.7
Q 341.25 239.7 340.95 239.7 341.25 240.05 341.55 240.05
L 341.55 239.7 Z"/>

<path fill="#000000" fill-opacity="0.403921568627451" stroke="none" d="
M 224.5 249
Q 224.65 248.85 224.65 248.5 224.35 248.5 224 248.5 224 248.85 224 249.15 224.35 249.15 224.5 249
M 274.95 234.05
Q 274.95 234.35 275.1 234.55 275.25 234.7 275.55 234.7 275.55 234.35 275.4 234.2 275.25 234.05 274.95 234.05
M 352.9 239.7
Q 352.55 239.7 352.25 239.7 352.25 240.05 352.25 240.35 352.55 240.35 352.75 240.2 352.9 240.05 352.9 239.7 Z"/>

<path fill="#000000" fill-opacity="0.4392156862745098" stroke="none" d="
M 234.05 249.75
Q 234.05 250.1 234.05 250.4 234.4 250.4 234.55 250.25 234.7 250.1 234.7 249.75 234.4 249.75 234.05 249.75
M 268.5 236.4
Q 268.65 236.25 268.65 235.95 268.35 235.95 268 235.95 268 236.25 268 236.55 268.35 236.55 268.5 236.4
M 414.5 246.65
Q 414.8 246.65 414.95 246.45 415.15 246.3 415.15 246 414.8 246 414.5 246 414.5 246.3 414.5 246.65 Z"/>

<path fill="#000000" fill-opacity="0.4" stroke="none" d="
M 187.7 245.2
Q 187.85 245.35 188.2 245.35 188.2 245.05 188.05 244.9 187.85 244.75 187.55 244.75 187.55 245.05 187.7 245.2
M 285 242.25
Q 285 241.9 284.85 241.75 284.7 241.6 284.35 241.6 284.35 241.9 284.35 242.25 284.7 242.25 285 242.25 Z"/>

<path fill="#000000" fill-opacity="0.40784313725490196" stroke="none" d="
M 185.2 244.6
Q 185.35 244.75 185.65 244.75 185.65 244.45 185.5 244.25 185.35 244.1 185.05 244.1 185.05 244.45 185.2 244.6
M 172.45 241.6
Q 172.8 241.9 173.15 242.1 173.4 242.25 173.7 242.25 173.7 241.9 173.6 241.85 173.1 241.6 172.45 241.6
M 365.45 234.7
Q 365.15 234.7 364.85 234.7 364.85 235 364.85 235.3 365.15 235.3 365.3 235.15 365.45 235 365.45 234.7 Z"/>

<path fill="#000000" fill-opacity="0.4117647058823529" stroke="none" d="
M 178.75 242.85
Q 178.75 242.55 178.6 242.4 178.45 242.25 178.15 242.25 178.15 242.55 178.3 242.7 178.45 242.85 178.75 242.85
M 168.7 242.25
Q 169 242.25 169.3 242.25 169.3 241.9 169.15 241.75 169 241.6 168.7 241.6 168.7 241.9 168.7 242.25
M 280.6 242.85
Q 280.6 242.55 280.45 242.4 280.3 242.25 279.95 242.25 279.95 242.55 280.1 242.7 280.3 242.85 280.6 242.85
M 256.55 242.7
Q 256.7 242.55 256.7 242.25 256.4 242.25 256.1 242.25 256.1 242.55 256.1 242.85 256.4 242.85 256.55 242.7
M 137.25 262.35
Q 137.6 262.35 137.75 262.2 137.9 262.05 137.9 261.7 137.6 261.7 137.25 261.7 137.25 262.05 137.25 262.35
M 338.25 240.8
Q 338.45 240.65 338.45 240.35 338.1 240.35 337.8 240.35 337.8 240.65 337.8 240.95 338.1 240.95 338.25 240.8 Z"/>

<path fill="#000000" fill-opacity="0.4235294117647059" stroke="none" d="
M 181.1 243
Q 180.95 242.85 180.65 242.85 180.65 243.15 180.8 243.35 180.95 243.5 181.25 243.5 181.25 243.15 181.1 243
M 257.35 239.1
Q 257.35 239.4 257.35 239.7 257.65 239.7 257.8 239.55 257.95 239.4 257.95 239.1 257.65 239.1 257.35 239.1
M 359.8 235.95
Q 360.45 235.95 360.95 235.7 361.05 235.65 361.05 235.3 360.75 235.3 360.45 235.3 360.1 235.3 359.8 235.3 359.8 235.65 359.8 235.95
M 373.65 234.05
Q 373.3 234.05 373 234.05 373 234.35 373 234.7 373.3 234.7 373.5 234.55 373.65 234.35 373.65 234.05 Z"/>

<path fill="#000000" fill-opacity="0.4588235294117647" stroke="none" d="
M 234.05 247.25
Q 233.75 247.25 233.45 247.25 233.45 247.55 233.45 247.9 233.75 247.9 233.9 247.75 234.05 247.55 234.05 247.25
M 284.2 244.25
Q 284.05 244.1 283.75 244.1 283.75 244.45 283.9 244.6 284.05 244.75 284.35 244.75 284.35 244.45 284.2 244.25
M 374.25 236.55
Q 374.25 236.9 374.25 237.2 374.6 237.2 374.9 237.2 374.9 236.9 374.75 236.75 374.6 236.55 374.25 236.55 Z"/>

<path fill="#000000" fill-opacity="0.4470588235294118" stroke="none" d="
M 281.85 243.5
Q 281.85 243.15 281.7 243 281.55 242.85 281.2 242.85 281.2 243.15 281.4 243.35 281.55 243.5 281.85 243.5
M 256.7 239.7
Q 256.4 239.7 256.1 239.7 256.1 240.05 256.1 240.35 256.4 240.35 256.55 240.2 256.7 240.05 256.7 239.7
M 313.9 245.35
Q 314.25 245.35 314.4 245.2 314.55 245.05 314.55 244.75 314.25 244.75 313.9 244.75 313.9 245.05 313.9 245.35
M 288.15 246
Q 288.15 246.3 288.3 246.45 288.45 246.65 288.75 246.65 288.75 246.3 288.6 246.15 288.45 246 288.15 246
M 354.75 236.55
Q 354.75 236.9 354.75 237.2 355.1 237.2 355.25 237.05 355.4 236.9 355.4 236.55 355.1 236.55 354.75 236.55
M 336.55 240.95
Q 336.25 240.95 335.9 240.95 336.25 241.3 336.55 241.3
L 336.55 240.95 Z"/>

<path fill="#000000" fill-opacity="0.4549019607843137" stroke="none" d="
M 247.9 246
Q 247.6 246 247.3 246 247.3 246.3 247.3 246.65 247.6 246.65 247.75 246.45 247.9 246.3 247.9 246
M 349.6 238.3
Q 349.75 238.15 349.75 237.85 349.45 237.85 349.1 237.85 349.1 238.15 349.1 238.45 349.45 238.45 349.6 238.3
M 378.05 234.7
Q 378.05 234.35 377.9 234.2 377.7 234.05 377.4 234.05 377.4 234.35 377.4 234.7 377.7 234.7 378.05 234.7 Z"/>

<path fill="#000000" fill-opacity="0.44313725490196076" stroke="none" d="
M 245.4 246.65
Q 245.4 246.95 245.4 247.25 245.7 247.25 245.85 247.1 246 246.95 246 246.65 245.7 246.65 245.4 246.65 Z"/>

<path fill="#000000" fill-opacity="0.4196078431372549" stroke="none" d="
M 321.95 246.45
Q 322.1 246.3 322.1 246 321.75 246 321.45 246 321.45 246.3 321.45 246.65 321.75 246.65 321.95 246.45
M 318.3 246.65
Q 318 246.65 317.7 246.65 317.7 246.95 317.7 247.25 318 247.25 318.15 247.1 318.3 246.95 318.3 246.65
M 293 244.25
Q 292.85 244.1 292.55 244.1 292.55 244.45 292.7 244.6 292.85 244.75 293.15 244.75 293.15 244.45 293 244.25
M 145.9 255.25
Q 146.05 255.1 146.05 254.8 145.75 254.8 145.45 254.8 145.45 255.1 145.45 255.45 145.75 255.45 145.9 255.25
M 149.85 248.5
Q 149.85 248.85 149.85 249.15 150.15 249.15 150.3 249 150.45 248.85 150.45 248.5 150.15 248.5 149.85 248.5 Z"/>

<path fill="#000000" fill-opacity="0.45098039215686275" stroke="none" d="
M 293.15 247.25
Q 292.85 247.25 292.55 247.25 292.85 247.55 293.15 247.55
L 293.15 247.25
M 154.1 249.6
Q 154.25 249.45 154.25 249.15 153.9 249.15 153.6 249.15 153.6 249.45 153.6 249.75 153.9 249.75 154.1 249.6
M 326.5 242.85
Q 326.15 242.85 325.85 242.85 325.85 243.15 325.85 243.5 326.15 243.5 326.35 243.35 326.5 243.15 326.5 242.85 Z"/>

<path fill="#000000" fill-opacity="0.47058823529411764" stroke="none" d="
M 135.4 260.45
Q 135.05 260.45 134.75 260.45 134.75 260.75 134.9 260.95 135.05 261.1 135.4 261.1 135.4 260.75 135.4 260.45 Z"/>

<path fill="#000000" fill-opacity="0.41568627450980394" stroke="none" d="
M 358.55 238.45
Q 358.25 238.45 357.9 238.45 357.9 238.75 357.9 239.1 358.25 239.1 358.4 238.95 358.55 238.75 358.55 238.45
M 414.5 247.25
Q 414.2 247.25 413.85 247.25 413.85 247.55 413.85 247.9 414.2 247.9 414.35 247.75 414.5 247.55 414.5 247.25 Z"/>

<path fill="#000000" fill-opacity="0.9176470588235294" stroke="none" d="
M 406.3 242.85
Q 406.65 242.85 406.8 243 406.95 243.15 406.95 243.5 409.7 244.8 411.7 246.95 412 247.25 412.55 247.45 412.9 247.55 413.3 247.75 413.55 247.9 413.85 247.9 413.85 247.55 413.85 247.25 414.2 247.25 414.5 247.25 414.5 246.95 414.5 246.65 414.5 246.3 414.5 246 414.8 246 415.15 246 415.15 245.7 415.05 245.4 414.8 244.75 414.5 244.1 414.2 244.1 414 243.95 413.85 243.8 413.85 243.5 413.55 243.5 413.35 243.35 403.3 236.8 388.7 234.7
L 388.7 235
Q 388.4 235 388.1 234.7 387.15 234.7 386.25 234.45 385.9 234.35 385.55 234.3 381.1 233.65 378.05 234.7 377.7 234.7 377.4 234.7 377.1 234.7 376.8 234.6 375.4 234.2 373.65 234.05 373.65 234.35 373.5 234.55 373.3 234.7 373 234.7 370.8 234.7 368.65 235.1 367.65 235.3 365.45 234.7 365.45 235 365.3 235.15 365.15 235.3 364.85 235.3 364.5 235.3 364.2 235.3 362.65 235.3 361.05 235.3 361.05 235.65 360.95 235.7 360.45 235.95 359.8 235.95 359.5 235.95 359.3 236.1 358.05 237 355.4 236.55 355.4 236.9 355.25 237.05 355.1 237.2 354.75 237.2 354.45 237.2 354.15 237.25 352.1 237.65 349.75 237.85 349.75 238.15 349.6 238.3 349.45 238.45 349.1 238.45 348.8 238.45 348.5 238.5 344.65 238.7 341.55 239.7
L 341.55 240.05
Q 341.25 240.05 340.95 239.7 340.65 239.7 340.55 239.85 340.15 240.8 338.45 240.35 338.45 240.65 338.25 240.8 338.1 240.95 337.8 240.95 337.5 240.95 337.15 240.95 336.85 240.95 336.55 240.95
L 336.55 241.3
Q 336.25 241.3 335.9 240.95 335.6 240.95 335.3 241.05 331.4 242.4 326.5 242.85 326.5 243.15 326.35 243.35 326.15 243.5 325.85 243.5 322.5 243.25 320.15 244 317.7 244.75 314.55 244.75 314.55 245.05 314.4 245.2 314.25 245.35 313.9 245.35 312.05 245.35 310.15 245.6 309.5 245.7 308.9 245.7 307.65 245.7 306.35 245.7 305.1 245.7 303.85 245.7 303.25 245.7 302.65 245.7 299.95 245.85 298.8 245.75 295.65 245.4 293.15 244.75 292.85 244.75 292.7 244.6 292.55 244.45 292.55 244.1 292.2 244.1 291.9 244.1 287.85 243.75 285 242.25 284.7 242.25 284.35 242.25 283.1 241.3 281.75 240.5 277.9 238.3 275.55 234.7 275.25 234.7 275.1 234.55 274.95 234.35 274.95 234.05 274.6 233.75 274.55 233.35 274.3 232.5 274.05 231.6 272.95 227.5 269.95 230.3 268.65 231.55 267.3 232.7 263.1 236.35 257.95 239.1 257.95 239.4 257.8 239.55 257.65 239.7 257.35 239.7 257 239.7 256.7 239.7 256.7 240.05 256.55 240.2 256.4 240.35 256.1 240.35 254.5 240.95 252.9 241.55 251.05 242.25 249.25 243 248.85 243.15 248.45 243.25 244.2 244.2 241 246 240.7 246 240.35 246 240.05 246 239.75 246.05 237.05 246.75 234.05 247.25 234.05 247.55 233.9 247.75 233.75 247.9 233.45 247.9 232.2 247.9 231 248.15
L 230.6 248.2
Q 230.4 247.5 229.1 248 227.25 248.6 224.65 248.5 224.65 248.85 224.5 249 224.35 249.15 224 249.15 223.7 248.85 223.3 248.7 222.75 248.5 222.25 248.75 220.7 249.6 217.75 249.15 217.4 249.15 217.1 249.15 216.8 249.15 216.45 249.15 214.25 249.15 212.1 248.85 211.75 248.85 211.7 248.85 210.65 249.6 208.35 248.9 208 248.85 207.85 248.9 207.4 249.1 205.15 248.55 203.1 248.05 200.8 247.75 199.5 247.55 198.25 247.5 194.4 247.3 191.9 246.1 190.4 245.35 188.2 245.35 187.85 245.35 187.7 245.2 187.55 245.05 187.55 244.75 187.25 244.75 186.95 244.75 186.3 244.75 185.65 244.75 185.35 244.75 185.2 244.6 185.05 244.45 185.05 244.1 184.75 244.1 184.45 244 183.05 243.6 181.25 243.5 180.95 243.5 180.8 243.35 180.65 243.15 180.65 242.85 180.35 242.85 180 242.85 179.4 242.85 178.75 242.85 178.45 242.85 178.3 242.7 178.15 242.55 178.15 242.25 177.8 242.25 177.5 242.25 177.2 242.25 176.85 242.25
L 176.85 242.55
Q 176.55 242.55 176.25 242.25 175.9 242.25 175.6 242.25 174.65 242.25 173.7 242.25 173.4 242.25 173.15 242.1 172.8 241.9 172.45 241.6 172.15 241.6 171.95 241.75 171 242.4 169.3 242.25 169 242.25 168.7 242.25 166.55 242.85 165.45 242.6 165.25 242.55 164.85 242.65 161.6 243.6 158.7 244.9 158.3 245.05 158 245.1 155.3 245.55 153.75 246.8 152.4 247.95 150.45 248.5 150.45 248.85 150.3 249 150.15 249.15 149.85 249.15 149.5 249.15 149.35 249.3 144.6 253.35 139.15 256.7 139.15 257 139.15 257.3 139.15 257.65 139 257.8 138.85 257.95 138.5 257.95 138.2 257.95 138 258.1 136.8 259.05 135.4 259.85 135.4 260.15 135.4 260.45 135.4 260.75 135.4 261.1 134.95 262.75 136.65 262.4 136.95 262.35 137.25 262.35 137.25 262.05 137.25 261.7 137.6 261.7 137.9 261.7 141.75 258.95 144.95 255.6 145.1 255.45 145.45 255.45 145.45 255.1 145.45 254.8 145.75 254.8 146.05 254.8 146.05 254.5 146.05 254.15 149.85 252.3 153.1 249.95 153.3 249.75 153.6 249.75 153.6 249.45 153.6 249.15 153.9 249.15 154.25 249.15 154.55 249.15 154.85 249.15 155.2 249.15 155.5 249.15 155.5 248.85 155.5 248.5 155.8 248.5 156.1 248.5 159 248.6 160.3 246.95 160.5 246.65 161.05 246.4 161.95 245.85 163.65 245.85 165.05 245.85 165.85 245.05 166.2 244.75 166.65 245 168.35 245.95 169.3 243.5 172.2 245.3 177.5 245.1 178.75 245.05 180 245.35 183.8 246.3 187.5 247.45 187.85 247.55 188.2 247.6 191.75 248.05 194.4 249.35 196.2 250.25 199.5 250.1 199.8 250.1 200.15 250.1 202.35 250.35 203.85 251.15 204.2 251.35 204.55 251.35 205.8 251.35 207.05 251.35 207.65 251.35 208.25 251.3 210.55 251.1 210.95 251.4 211.45 251.65 212.05 251.65 212.4 251.65 212.7 251.65 213 251.65 213.35 251.65 213.65 251.65 213.95 251.65 213.95 251.35 213.95 251.05 214.25 251.05 214.6 251.05 215.55 251.05 216.45 251.05 216.8 251.05 217.1 251.05 217.4 251.05 217.55 251.2 217.75 251.35 217.75 251.65 219.95 251.65 222.15 251.65 222.45 251.65 222.75 251.65 222.75 251.35 222.75 251.05 223.05 251.05 223.4 251.05 224.5 251.55 227.1 250.8 229.15 250.2 231.55 249.75 231.85 249.75 232.05 249.95 232.2 250.1 232.2 250.4 232.8 250.4 233.45 250.4 233.75 250.4 234.05 250.4 234.05 250.1 234.05 249.75 234.4 249.75 234.7 249.75 236.85 249.45 238.55 248.85 239 248.7 241.6 247.8 243.15 247.25 245.4 247.25 245.4 246.95 245.4 246.65 245.7 246.65 246 246.65 246.35 246.65 246.65 246.65 246.95 246.65 247.3 246.65 247.3 246.3 247.3 246 247.6 246 247.9 246 250.35 245.6 252.35 244.95 254.65 244.25 256.1 242.85 256.1 242.55 256.1 242.25 256.4 242.25 256.7 242.25 262.7 240.05 267.5 236.75 267.7 236.55 268 236.55 268 236.25 268 235.95 268.35 235.95 268.65 235.95 269.8 233.95 271.5 235.65 273.5 237.7 275.65 239.65 277.45 241.3 279.95 242.25 280.3 242.25 280.45 242.4 280.6 242.55 280.6 242.85 280.9 242.85 281.2 242.85 281.55 242.85 281.7 243 281.85 243.15 281.85 243.5 282.5 243.8 283.15 244 283.4 244.1 283.75 244.1 284.05 244.1 284.2 244.25 284.35 244.45 284.35 244.75 286.4 244.95 287.65 245.85 287.8 246 288.15 246 288.45 246 288.6 246.15 288.75 246.3 288.75 246.65 290.55 246.75 291.95 247.15 292.2 247.25 292.55 247.25 292.85 247.25 293.15 247.25 295.3 248.25 298.85 247.9 299.15 247.9 299.45 247.9 299.75 247.9 299.95 248.05 300.1 248.2 300.1 248.5 302.2 248.75 303.3 248.05 303.55 247.9 303.85 247.9 304.15 247.9 304.5 247.9 307 248.2 309.5 248.2 310.75 248.2 312.05 247.95 314.75 247.45 317.7 247.25 317.7 246.95 317.7 246.65 318 246.65 318.3 246.65 319.55 246.65 320.85 246.65 321.15 246.65 321.45 246.65 321.45 246.3 321.45 246 321.75 246 322.1 246 323.45 245.5 325.25 245.45 328.3 245.3 330.4 244.35 330.9 244.1 331.35 243.85 333.3 242.75 334.2 243.1 335.75 243.65 336.7 243.25 337.8 242.85 339.05 242.7 340.3 242.55 341.5 242.05 341.9 241.9 342.25 241.8 342.85 241.6 343.45 241.6 343.45 241.3 343.45 240.95 343.75 240.95 343.95 241.15 344.1 241.3 344.1 241.6 345.45 240.8 347.9 241.25 348.15 241.3 348.5 241 349.8 240.05 352.25 240.35 352.25 240.05 352.25 239.7 352.55 239.7 352.9 239.7 353.85 239.1 356.05 239.35 356.35 239.4 356.7 239.25 357.3 239.1 357.9 239.1 357.9 238.75 357.9 238.45 358.25 238.45 358.55 238.45 361.95 237.5 366.7 237.5 367.05 237.5 367.4 237.3 369.3 236.4 372.4 237 373.3 237.2 374.25 237.2 374.25 236.9 374.25 236.55 374.6 236.55 374.75 236.75 374.9 236.9 374.9 237.2 379 237.25 382.45 236.9 382.75 236.9 383.05 236.9 383.7 236.9 384.35 236.8 388.15 236.5 390.75 237.5 391.55 237.85 392.45 238 394.4 238.45 396.15 239.35 397.3 239.95 399.4 240.05 399.7 240.05 400.1 240.1 403.75 241.05 406.3 242.85 Z"/>
</g>

<g id="Mask_1_MASK_0_FILL">
<path fill="#FFFFFF" stroke="none" d="
M 287 186.05
L 277 186.05 277 240.05 287 240.05 287 186.05 Z"/>
</g>

<g id="Layer1_0_FILL">
<path fill="#000000" fill-opacity="0.5803921568627451" stroke="none" d="
M 295.85 216.95
Q 296 217.1 296.3 217.1 296.3 216.75 296.15 216.6 296 216.45 295.7 216.45 295.7 216.75 295.85 216.95 Z"/>

<path fill="#000000" fill-opacity="0.4588235294117647" stroke="none" d="
M 298.2 215.2
Q 298.2 215.5 298.2 215.85 298.5 215.85 298.65 215.65 298.85 215.5 298.85 215.2 298.5 215.2 298.2 215.2
M 309.5 207
Q 309.2 207 308.9 207 308.9 207.35 308.9 207.65 309.2 207.65 309.35 207.5 309.5 207.35 309.5 207
M 403.35 212.5
Q 403.5 212.7 403.8 212.7 403.8 212.35 403.65 212.2 403.5 212.05 403.2 212.05 403.2 212.35 403.35 212.5
M 424.55 217.7
Q 424.55 218.05 424.7 218.2 424.85 218.35 425.2 218.35 425.2 218.05 425.05 217.85 424.85 217.7 424.55 217.7 Z"/>

<path fill="#000000" fill-opacity="0.4392156862745098" stroke="none" d="
M 297.55 216.45
Q 297.25 216.45 296.95 216.45 296.95 216.75 296.95 217.1 297.25 217.1 297.4 216.95 297.55 216.75 297.55 216.45
M 307.45 208.1
Q 307.65 207.95 307.65 207.65 307.3 207.65 307 207.65 307 207.95 307 208.3 307.3 208.3 307.45 208.1 Z"/>

<path fill="#000000" fill-opacity="0.7568627450980392" stroke="none" d="
M 295.05 212.7
Q 294.75 212.7 294.4 212.7 294.4 213 294.4 213.3 294.4 213.6 294.4 213.95 294.75 213.6 294.95 213.25 295.05 213 295.05 212.7 Z"/>

<path fill="#000000" fill-opacity="0.5254901960784314" stroke="none" d="
M 296.95 212.05
Q 296.95 212.35 296.95 212.7 297.25 212.7 297.4 212.5 297.55 212.35 297.55 212.05 297.25 212.05 296.95 212.05
M 399.3 212.3
Q 398.8 212.05 398.15 212.05 398.45 212.35 398.85 212.55 399.1 212.7 399.4 212.7 399.4 212.35 399.3 212.3 Z"/>

<path fill="#000000" fill-opacity="0.4117647058823529" stroke="none" d="
M 298.2 211.4
Q 298.2 211.75 298.2 212.05 298.5 212.05 298.65 211.9 298.85 211.75 298.85 211.4 298.5 211.4 298.2 211.4
M 401.9 211.4
Q 401.9 211.75 402.1 211.9 402.25 212.05 402.55 212.05 402.55 211.75 402.4 211.6 402.25 211.4 401.9 211.4
M 460.85 215.65
Q 461 215.5 461 215.2 460.7 215.2 460.4 215.2 460.4 215.5 460.4 215.85 460.7 215.85 460.85 215.65 Z"/>

<path fill="#000000" fill-opacity="0.4745098039215686" stroke="none" d="
M 299.45 214.55
Q 299.15 214.55 298.85 214.55 298.85 214.9 298.85 215.2 299.15 215.2 299.3 215.05 299.45 214.9 299.45 214.55
M 302.6 209.55
Q 302.6 209.85 302.6 210.15 302.9 210.15 303.05 210 303.25 209.85 303.25 209.55 302.9 209.55 302.6 209.55
M 397.5 212.1
Q 397.85 212.05 398.15 212.05 398.15 211.75 398.1 211.7 396.9 211.4 395.65 211.4 395.85 212.5 397.5 212.1
M 415.75 215.85
Q 415.75 216.15 415.9 216.3 416.05 216.45 416.4 216.45 416.4 216.15 416.25 216 416.05 215.85 415.75 215.85
M 457.25 216.45
Q 456.95 216.45 456.6 216.45 456.6 216.75 456.6 217.1 456.95 217.1 457.1 216.95 457.25 216.75 457.25 216.45 Z"/>

<path fill="#000000" fill-opacity="0.5215686274509804" stroke="none" d="
M 300.1 213.95
Q 300.1 214.25 300.1 214.55 300.4 214.55 300.55 214.4 300.7 214.25 300.7 213.95 300.4 213.95 300.1 213.95 Z"/>

<path fill="#000000" fill-opacity="0.43137254901960786" stroke="none" d="
M 300.1 210.8
Q 299.75 210.8 299.45 210.8 299.45 211.1 299.45 211.4 299.75 211.4 299.95 211.25 300.1 211.1 300.1 210.8
M 365.95 204.05
Q 365.8 203.9 365.45 203.9 365.45 204.2 365.45 204.5 365.8 204.5 366.1 204.5 366.1 204.2 365.95 204.05
M 434 220.85
Q 433.65 220.85 433.35 220.85 433.65 221.15 434 221.15
L 434 220.85
M 446.55 218.35
Q 446.25 218.35 445.95 218.35 445 218.35 444.05 218.35 444.05 218.65 444.05 218.95 445.3 218.95 446.5 218.7 446.55 218.65 446.55 218.35 Z"/>

<path fill="#000000" fill-opacity="0.4980392156862745" stroke="none" d="
M 301.95 213.3
Q 301.65 213.3 301.35 213.3 301.35 213.6 301.35 213.95 301.65 213.95 301.8 213.8 301.95 213.6 301.95 213.3
M 410.7 216.45
Q 410.7 216.15 410.6 216.1 410.1 215.85 409.45 215.85 409.8 216.15 410.15 216.35 410.4 216.45 410.7 216.45
M 462.9 214.55
Q 462.6 214.55 462.25 214.55 462.25 214.9 462.25 215.2 462.6 215.2 462.75 215.05 462.9 214.9 462.9 214.55
M 455.25 217.45
Q 455.35 217.4 455.35 217.1 455.05 217.1 454.75 217.1 454.4 217.1 454.1 217.1 454.05 218.1 455.25 217.45 Z"/>

<path fill="#000000" fill-opacity="0.4823529411764706" stroke="none" d="
M 305.1 212.05
Q 304.8 212.05 304.5 212.05 304.5 212.35 304.5 212.7 304.8 212.7 304.95 212.5 305.1 212.35 305.1 212.05
M 387.6 208.75
Q 387.8 208.9 388.1 208.9 388.1 208.6 387.95 208.45 387.8 208.3 387.45 208.3 387.45 208.6 387.6 208.75
M 437.15 219.6
Q 437.15 219.3 437.05 219.25 436.2 218.95 435.25 218.95 435.2 220 436.55 219.65 436.8 219.6 437.15 219.6
M 472.95 210.8
Q 472.95 211.1 472.95 211.4 473.25 211.4 473.45 211.25 473.6 211.1 473.6 210.8 473.25 210.8 472.95 210.8 Z"/>

<path fill="#000000" fill-opacity="0.45098039215686275" stroke="none" d="
M 308.9 210.15
Q 308.55 210.15 308.25 210.15 308.25 210.5 308.25 210.8 308.55 210.8 308.75 210.65 308.9 210.5 308.9 210.15
M 418.25 218.95
Q 418.25 218.65 418.1 218.5 417.95 218.35 417.65 218.35 417.65 218.65 417.8 218.8 417.95 218.95 418.25 218.95
M 406.15 214.75
Q 406 214.55 405.7 214.55 405.7 214.9 405.85 215.05 406 215.2 406.3 215.2 406.3 214.9 406.15 214.75 Z"/>

<path fill="#000000" fill-opacity="0.4549019607843137" stroke="none" d="
M 313.3 209.55
Q 313.6 209.55 313.75 209.4 313.9 209.2 313.9 208.9 313.6 208.9 313.3 208.9 313.3 209.2 313.3 209.55
M 444.65 220.85
Q 444.35 220.85 444.05 220.85 444.35 221.15 444.65 221.15
L 444.65 220.85 Z"/>

<path fill="#000000" fill-opacity="0.6039215686274509" stroke="none" d="
M 312.65 207
Q 312.95 207 313.15 206.85 313.3 206.7 313.3 206.4 312.95 206.4 312.65 206.4 312.65 206.7 312.65 207
M 343.95 202.45
Q 344.1 202.3 344.1 202 343.75 202 343.45 202 343.45 202.3 343.45 202.6 343.75 202.6 343.95 202.45 Z"/>

<path fill="#000000" fill-opacity="0.47058823529411764" stroke="none" d="
M 304.5 208.9
Q 304.15 208.9 303.85 208.9 303.85 209.2 303.85 209.55 304.15 209.55 304.35 209.4 304.5 209.2 304.5 208.9
M 425.35 220.05
Q 425.5 220.25 425.8 220.25 425.8 219.9 425.65 219.75 425.5 219.6 425.2 219.6 425.2 219.9 425.35 220.05
M 478 205.15
Q 477.7 205.15 477.35 205.15 477.35 205.45 477.35 205.75 477.7 205.75 477.85 205.6 478 205.45 478 205.15 Z"/>

<path fill="#000000" fill-opacity="0.4666666666666667" stroke="none" d="
M 320.2 207
Q 319.9 207 319.55 207 319.55 207.35 319.55 207.65 320.2 207.65 320.7 207.4 320.85 207.35 320.85 207 320.5 207 320.2 207
M 453.3 217.55
Q 453.45 217.4 453.45 217.1 453.15 217.1 452.85 217.1 452.85 217.4 452.85 217.7 453.15 217.7 453.3 217.55 Z"/>

<path fill="#000000" fill-opacity="0.5529411764705883" stroke="none" d="
M 318.3 207.65
Q 318 207.65 317.7 207.65 317.7 207.95 317.7 208.3 318 208.3 318.15 208.1 318.3 207.95 318.3 207.65
M 478 207.65
Q 477.7 207.65 477.35 207.65 477.35 207.95 477.35 208.3 477.7 208.3 477.85 208.1 478 207.95 478 207.65 Z"/>

<path fill="#000000" fill-opacity="0.596078431372549" stroke="none" d="
M 315.15 208.9
Q 315.5 208.9 315.65 208.75 315.8 208.6 315.8 208.3 315.5 208.3 315.15 208.3 315.15 208.6 315.15 208.9 Z"/>

<path fill="#000000" fill-opacity="0.5058823529411764" stroke="none" d="
M 318.3 205.15
Q 318 205.15 317.7 205.15 317.7 205.45 317.7 205.75 318.3 205.75 318.8 205.5 318.95 205.45 318.95 205.15 318.65 205.15 318.3 205.15
M 379.3 206.4
Q 379.3 206.7 379.45 206.85 379.6 207 379.9 207 379.9 206.7 379.75 206.55 379.6 206.4 379.3 206.4
M 402.4 213.45
Q 402.25 213.3 401.9 213.3 401.9 213.6 402.1 213.8 402.25 213.95 402.55 213.95 402.55 213.6 402.4 213.45
M 464 214.4
Q 464.15 214.25 464.15 213.95 463.85 213.95 463.55 213.95 463.55 214.25 463.55 214.55 463.85 214.55 464 214.4 Z"/>

<path fill="#000000" fill-opacity="0.4235294117647059" stroke="none" d="
M 323.8 204.05
Q 323.65 203.9 323.35 203.9 323.35 204.2 323.35 204.5 323.65 204.5 323.95 204.5 323.95 204.2 323.8 204.05
M 324.6 206.4
Q 324.6 206.1 324.45 205.9 324.3 205.75 323.95 205.75 323.95 206.1 323.95 206.4 324.3 206.4 324.6 206.4
M 335.3 205.15
Q 335.3 204.8 335.15 204.65 334.95 204.5 334.65 204.5 334.65 204.8 334.8 205 334.95 205.15 335.3 205.15
M 349.1 203.9
Q 348.8 203.9 348.5 203.9 348.8 204.2 349.1 204.2
L 349.1 203.9
M 407.65 215.7
Q 407.9 215.85 408.2 215.85 408.2 215.5 408.1 215.45 407.6 215.2 406.95 215.2 407.25 215.5 407.65 215.7 Z"/>

<path fill="#000000" fill-opacity="0.403921568627451" stroke="none" d="
M 331.35 205.6
Q 331.5 205.45 331.5 205.15 331.2 205.15 330.9 205.15 330.9 205.45 330.9 205.75 331.2 205.75 331.35 205.6 Z"/>

<path fill="#000000" fill-opacity="0.5098039215686274" stroke="none" d="
M 327.1 205.75
Q 326.8 205.75 326.5 205.75 326.8 206.1 327.1 206.1
L 327.1 205.75 Z"/>

<path fill="#000000" fill-opacity="0.4" stroke="none" d="
M 333.4 202.6
Q 333.4 202.95 333.4 203.25 333.7 203.25 334.05 203.25 334.05 202.95 333.85 202.8 333.7 202.6 333.4 202.6
M 403.95 214.4
Q 404.1 214.55 404.45 214.55 404.45 214.25 404.3 214.1 404.1 213.95 403.8 213.95 403.8 214.25 403.95 214.4 Z"/>

<path fill="#000000" fill-opacity="0.43529411764705883" stroke="none" d="
M 339.2 204.35
Q 339.35 204.5 339.7 204.5 339.7 204.2 339.55 204.05 339.35 203.9 339.05 203.9 339.05 204.2 339.2 204.35
M 479.25 206.4
L 479.55 206.4
Q 479.55 206.1 479.25 205.75 479.25 206.1 479.25 206.4 Z"/>

<path fill="#000000" fill-opacity="0.5176470588235295" stroke="none" d="
M 335.75 203.1
Q 335.9 202.95 335.9 202.6 335.6 202.6 335.3 202.6 335.3 202.95 335.3 203.25 335.6 203.25 335.75 203.1
M 353.35 204.05
Q 353.2 203.9 352.9 203.9 352.9 204.2 353.05 204.35 353.2 204.5 353.5 204.5 353.5 204.2 353.35 204.05 Z"/>

<path fill="#000000" fill-opacity="0.5137254901960784" stroke="none" d="
M 348.5 202
Q 348.15 202 347.85 202 347.25 202 346.6 202 346.8 203.05 348.35 202.35 348.5 202.3 348.5 202
M 392.95 210.3
Q 392.8 210.15 392.5 210.15 392.5 210.5 392.65 210.65 392.8 210.8 393.1 210.8 393.1 210.5 392.95 210.3
M 398.6 210.3
Q 398.45 210.15 398.15 210.15 398.15 210.5 398.3 210.65 398.45 210.8 398.8 210.8 398.8 210.5 398.6 210.3
M 445.15 220.7
Q 445.3 220.55 445.3 220.25 445.3 219.9 445.15 219.75 445 219.6 444.65 219.6 444.65 219.9 444.65 220.25 444.65 220.55 444.65 220.85 445 220.85 445.15 220.7
M 428.35 218.95
Q 428.35 218.65 428.2 218.6 427.7 218.35 427.05 218.35 427.4 218.65 427.75 218.85 428 218.95 428.35 218.95 Z"/>

<path fill="#000000" fill-opacity="0.5294117647058824" stroke="none" d="
M 351 203.9
Q 350.7 203.9 350.35 203.9 350.3 204.9 351.5 204.25 351.65 204.2 351.65 203.9 351.3 203.9 351 203.9 Z"/>

<path fill="#000000" fill-opacity="0.5333333333333333" stroke="none" d="
M 354.65 202.35
Q 354.75 202.3 354.75 202 354.45 202 354.15 202 353.85 202 353.5 202 353.45 203.05 354.65 202.35
M 364.85 204.5
Q 364.85 204.2 364.7 204.05 364.5 203.9 364.2 203.9 364.2 204.2 364.2 204.5 364.5 204.5 364.85 204.5
M 450.95 219.9
L 450.95 219.6
Q 450.65 219.6 450.35 219.6 450.65 219.9 450.95 219.9 Z"/>

<path fill="#000000" fill-opacity="0.5372549019607843" stroke="none" d="
M 358.55 203.9
Q 358.55 203.55 358.4 203.5 357.9 203.25 357.3 203.25 357.3 203.55 357.3 203.9 357.6 203.9 357.9 203.9 358.25 203.9 358.55 203.9
M 419.55 217.1
Q 419.85 217.4 420.15 217.4
L 420.15 217.1
Q 419.85 217.1 419.55 217.1 Z"/>

<path fill="#000000" fill-opacity="0.5686274509803921" stroke="none" d="
M 361.05 202
Q 360.75 202 360.45 202 360.35 203.05 361.55 202.35 361.7 202.3 361.7 202 361.4 202 361.05 202
M 459.65 216.2
Q 459.75 216.15 459.75 215.85 459.45 215.85 459.15 215.85 458.8 215.85 458.5 215.85 458.5 216.15 458.5 216.45 459.15 216.45 459.65 216.2
M 479.1 204.05
Q 478.95 203.9 478.6 203.9 478.6 204.2 478.6 204.5 478.95 204.5 479.25 204.5 479.25 204.2 479.1 204.05 Z"/>

<path fill="#000000" fill-opacity="0.49019607843137253" stroke="none" d="
M 371.75 205.2
Q 372.05 205.15 372.4 205.15 372.4 204.8 372.3 204.8 370.8 204.5 369.25 204.5 369.75 205.6 371.75 205.2
M 454.1 218.35
Q 454.1 218.65 454.1 218.95 454.4 218.95 454.55 218.8 454.75 218.65 454.75 218.35 454.4 218.35 454.1 218.35 Z"/>

<path fill="#000000" fill-opacity="0.4196078431372549" stroke="none" d="
M 369.85 203.25
Q 369.85 202.95 369.7 202.8 369.55 202.6 369.25 202.6 369.25 202.95 369.4 203.1 369.55 203.25 369.85 203.25
M 381.8 207
Q 381.5 207 381.2 207 381.1 208.05 382.3 207.4 382.45 207.35 382.45 207 382.1 207 381.8 207
M 413.85 217.1
Q 413.85 217.4 414 217.55 414.2 217.7 414.5 217.7 414.5 217.4 414.35 217.25 414.2 217.1 413.85 217.1
M 467.95 213.3
Q 467.6 213.3 467.3 213.3 467.3 213.6 467.3 213.95 467.6 213.95 467.75 213.8 467.95 213.6 467.95 213.3 Z"/>

<path fill="#000000" fill-opacity="0.4470588235294118" stroke="none" d="
M 383.2 208.1
Q 383.4 208.3 383.7 208.3 383.7 207.95 383.55 207.8 383.4 207.65 383.05 207.65 383.05 207.95 383.2 208.1 Z"/>

<path fill="#000000" fill-opacity="0.5450980392156862" stroke="none" d="
M 380.55 205.15
Q 380.55 205.45 380.7 205.6 380.85 205.75 381.2 205.75 381.2 205.45 381 205.3 380.85 205.15 380.55 205.15
M 379.3 205.15
Q 379.3 204.8 379.15 204.65 379 204.5 378.65 204.5 378.65 204.8 378.8 205 379 205.15 379.3 205.15
M 439 218.95
Q 438.7 218.95 438.4 218.95 438.4 219.3 438.4 219.6 438.7 219.6 438.85 219.45 439 219.3 439 218.95
M 470.45 210.8
Q 470.15 210.8 469.8 210.8 469.8 211.1 469.8 211.4 470.15 211.4 470.3 211.25 470.45 211.1 470.45 210.8 Z"/>

<path fill="#000000" fill-opacity="0.48627450980392156" stroke="none" d="
M 376.6 205.9
Q 376.45 205.75 376.15 205.75 376.15 206.1 376.3 206.25 376.45 206.4 376.8 206.4 376.8 206.1 376.6 205.9 Z"/>

<path fill="#000000" fill-opacity="0.4627450980392157" stroke="none" d="
M 375.35 205.3
Q 375.2 205.15 374.9 205.15 374.9 205.45 375.05 205.6 375.2 205.75 375.5 205.75 375.5 205.45 375.35 205.3 Z"/>

<path fill="#000000" fill-opacity="0.592156862745098" stroke="none" d="
M 376.6 204.05
Q 376.45 203.9 376.15 203.9 376.15 204.2 376.3 204.35 376.45 204.5 376.8 204.5 376.8 204.2 376.6 204.05 Z"/>

<path fill="#000000" fill-opacity="0.47843137254901963" stroke="none" d="
M 394.85 210.95
Q 394.7 210.8 394.4 210.8 394.4 211.1 394.55 211.25 394.7 211.4 395 211.4 395 211.1 394.85 210.95
M 423.3 219.6
Q 423.3 219.3 423.2 219.25 422.35 218.95 421.4 218.95 421.35 220 422.7 219.65 423 219.6 423.3 219.6
M 409.3 214.1
Q 409.15 213.95 408.85 213.95 408.85 214.25 409 214.4 409.15 214.55 409.45 214.55 409.45 214.25 409.3 214.1
M 457.1 218.2
Q 457.25 218.05 457.25 217.7 456.95 217.7 456.6 217.7 456.6 218.05 456.6 218.35 456.95 218.35 457.1 218.2 Z"/>

<path fill="#000000" fill-opacity="0.42745098039215684" stroke="none" d="
M 392.65 208.75
Q 392.8 208.9 393.1 208.9 393.1 208.6 392.95 208.45 392.8 208.3 392.5 208.3 392.5 208.6 392.65 208.75
M 449.7 219.6
Q 449.4 219.6 449.05 219.6 449.05 219.9 449.05 220.25 449.4 220.25 449.55 220.05 449.7 219.9 449.7 219.6 Z"/>

<path fill="#000000" fill-opacity="0.5411764705882353" stroke="none" d="
M 388.7 208.9
Q 389.05 209.2 389.4 209.4 389.65 209.55 390 209.55 390 209.2 389.85 209.15 389.35 208.9 388.7 208.9
M 435.85 220.85
Q 435.85 221.15 435.85 221.5 438.4 221.5 440.85 221.15 440.9 221.15 440.9 220.85 440.6 220.85 440.25 220.85 438.05 220.85 435.85 220.85
M 459.15 217.7
Q 459.45 217.7 459.6 217.55 459.75 217.4 459.75 217.1 459.45 217.1 459.15 217.1 459.15 217.4 459.15 217.7 Z"/>

<path fill="#000000" fill-opacity="0.5647058823529412" stroke="none" d="
M 420.15 218.95
Q 420.15 219.3 420.15 219.6 420.45 219.6 420.65 219.45 420.8 219.3 420.8 218.95 420.45 218.95 420.15 218.95
M 440.25 219.3
L 440.25 218.95
Q 439.95 218.95 439.65 218.95 439.95 219.3 440.25 219.3 Z"/>

<path fill="#000000" fill-opacity="0.41568627450980394" stroke="none" d="
M 410.9 216.95
Q 411.05 217.1 411.35 217.1 411.35 216.75 411.2 216.6 411.05 216.45 410.7 216.45 410.7 216.75 410.9 216.95 Z"/>

<path fill="#000000" fill-opacity="0.49411764705882355" stroke="none" d="
M 413.25 217.1
Q 412.9 217.1 412.6 217.1 412.3 217.1 412 217.1 411.9 218.1 413.1 217.45 413.25 217.4 413.25 217.1
M 448.95 218.7
Q 449.05 218.65 449.05 218.35 448.75 218.35 448.45 218.35 447.8 218.35 447.2 218.35 447.35 219.4 448.95 218.7 Z"/>

<path fill="#000000" fill-opacity="0.5019607843137255" stroke="none" d="
M 412.75 215.65
Q 412.9 215.85 413.25 215.85 413.25 215.5 413.1 215.35 412.9 215.2 412.6 215.2 412.6 215.5 412.75 215.65
M 430.85 221.5
Q 430.85 221.15 430.7 221 430.55 220.85 430.2 220.85 430.2 221.15 430.35 221.35 430.55 221.5 430.85 221.5 Z"/>

<path fill="#000000" fill-opacity="0.5568627450980392" stroke="none" d="
M 410.7 214.55
Q 410.7 214.9 410.9 215.05 411.05 215.2 411.35 215.2 411.35 214.9 411.2 214.75 411.05 214.55 410.7 214.55 Z"/>

<path fill="#000000" fill-opacity="0.5490196078431373" stroke="none" d="
M 451.6 217.7
Q 451.25 217.7 450.95 217.7 450.95 218.05 450.95 218.35 451.25 218.35 451.45 218.2 451.6 218.05 451.6 217.7 Z"/>

<path fill="#000000" fill-opacity="0.9333333333333333" stroke="none" d="
M 479.25 206.4
Q 479.25 206.1 479.25 205.75 479.25 205.45 479.25 205.15 479.25 204.8 479.25 204.5 478.95 204.5 478.6 204.5 478.3 204.5 478 204.5 478 204.8 478 205.15 478 205.45 477.85 205.6 477.7 205.75 477.35 205.75 477.35 206.1 477.25 206.15 473.45 208.15 470.45 210.8 470.45 211.1 470.3 211.25 470.15 211.4 469.8 211.4 469.5 211.4 469.25 211.55 466.75 212.8 464.15 213.95 464.15 214.25 464 214.4 463.85 214.55 463.55 214.55 463.2 214.55 462.9 214.55 462.9 214.9 462.75 215.05 462.6 215.2 462.25 215.2 461.95 215.2 461.65 215.2 461.35 215.2 461 215.2 461 215.5 460.85 215.65 460.7 215.85 460.4 215.85 460.05 215.85 459.75 215.85 459.75 216.15 459.65 216.2 459.15 216.45 458.5 216.45 458.2 216.45 457.85 216.45 457.55 216.45 457.25 216.45 457.25 216.75 457.1 216.95 456.95 217.1 456.6 217.1 456.3 217.1 456 217.1 455.65 217.1 455.35 217.1 455.35 217.4 455.25 217.45 454.05 218.1 454.1 217.1 453.8 217.1 453.45 217.1 453.45 217.4 453.3 217.55 453.15 217.7 452.85 217.7 452.55 217.7 452.2 217.7 451.9 217.7 451.6 217.7 451.6 218.05 451.45 218.2 451.25 218.35 450.95 218.35 450.65 218.35 450.35 218.35 449.7 218.35 449.05 218.35 449.05 218.65 448.95 218.7 447.35 219.4 447.2 218.35 446.85 218.35 446.55 218.35 446.55 218.65 446.5 218.7 445.3 218.95 444.05 218.95 443.75 218.95 443.4 218.95 441.85 218.95 440.25 218.95
L 440.25 219.3
Q 439.95 219.3 439.65 218.95 439.35 218.95 439 218.95 439 219.3 438.85 219.45 438.7 219.6 438.4 219.6 438.05 219.6 437.75 219.6 437.45 219.6 437.15 219.6 436.8 219.6 436.55 219.65 435.2 220 435.25 218.95 434.95 218.95 434.6 218.95 431.45 218.95 428.35 218.95 428 218.95 427.75 218.85 427.4 218.65 427.05 218.35 426.75 218.35 426.45 218.35 425.8 218.35 425.2 218.35 424.85 218.35 424.7 218.2 424.55 218.05 424.55 217.7 424.25 217.7 423.95 217.7 421.7 217.7 420.15 217.1
L 420.15 217.4
Q 419.85 217.4 419.55 217.1 419.2 217.1 418.9 217.1 417.2 217.25 416.4 216.45 416.05 216.45 415.9 216.3 415.75 216.15 415.75 215.85 415.45 215.85 415.15 215.85 414.2 215.85 413.25 215.85 412.9 215.85 412.75 215.65 412.6 215.5 412.6 215.2 412.3 215.2 412 215.2 411.65 215.2 411.35 215.2 411.05 215.2 410.9 215.05 410.7 214.9 410.7 214.55 410.4 214.55 410.1 214.55 409.8 214.55 409.45 214.55 409.15 214.55 409 214.4 408.85 214.25 408.85 213.95 408.5 213.95 408.25 213.85 406.25 213.1 403.8 212.7 403.5 212.7 403.35 212.5 403.2 212.35 403.2 212.05 402.85 212.05 402.55 212.05 402.25 212.05 402.1 211.9 401.9 211.75 401.9 211.4 401.6 211.4 401.3 211.35 400.05 211.1 398.8 210.8 398.45 210.8 398.3 210.65 398.15 210.5 398.15 210.15 397.85 210.15 397.5 210.15 395.1 209.8 393.1 208.9 392.8 208.9 392.65 208.75 392.5 208.6 392.5 208.3 389.5 207.85 386.85 206.95 384.3 206.1 381.2 205.75 380.85 205.75 380.7 205.6 380.55 205.45 380.55 205.15 380.25 205.15 379.9 205.15 379.6 205.15 379.3 205.15 379 205.15 378.8 205 378.65 204.8 378.65 204.5 378.35 204.5 378.05 204.5 377.4 204.5 376.8 204.5 376.45 204.5 376.3 204.35 376.15 204.2 376.15 203.9 375.85 203.9 375.55 203.8 373.05 203.2 369.85 203.25 369.55 203.25 369.4 203.1 369.25 202.95 369.25 202.6 368.9 202.6 368.6 202.6 364.4 202.55 361.7 202 361.7 202.3 361.55 202.35 360.35 203.05 360.45 202 360.1 202 359.8 202 357.3 202 354.75 202 354.75 202.3 354.65 202.35 353.45 203.05 353.5 202 353.2 202 352.9 202 350.7 202 348.5 202 348.5 202.3 348.35 202.35 346.8 203.05 346.6 202 346.3 202 345.95 202 345.05 202 344.1 202 344.1 202.3 343.95 202.45 343.75 202.6 343.45 202.6 343.15 202.6 342.85 202.6 339.35 202.6 335.9 202.6 335.9 202.95 335.75 203.1 335.6 203.25 335.3 203.25 334.95 203.25 334.65 203.25 334.35 203.25 334.05 203.25 333.7 203.25 333.4 203.25 333.1 203.25 332.75 203.3 328.3 203.8 323.95 204.5 323.65 204.5 323.35 204.5 323.05 204.5 322.7 204.55 320.85 204.8 318.95 205.15 318.95 205.45 318.8 205.5 318.3 205.75 317.7 205.75 317.35 205.75 317.05 205.75 314.8 205.75 313.3 206.4 313.3 206.7 313.15 206.85 312.95 207 312.65 207 312.35 207 312.05 207 310.75 207 309.5 207 309.5 207.35 309.35 207.5 309.2 207.65 308.9 207.65 308.55 207.65 308.25 207.65 307.95 207.65 307.65 207.65 307.65 207.95 307.45 208.1 307.3 208.3 307 208.3 306.7 208.3 306.6 208.4 306.2 209.35 304.5 208.9 304.5 209.2 304.35 209.4 304.15 209.55 303.85 209.55 303.55 209.55 303.25 209.55 303.25 209.85 303.05 210 302.9 210.15 302.6 210.15 302.3 210.15 302.05 210.3 301.3 210.75 300.1 210.8 300.1 211.1 299.95 211.25 299.75 211.4 299.45 211.4 299.15 211.4 298.85 211.4 298.85 211.75 298.65 211.9 298.5 212.05 298.2 212.05 297.9 212.05 297.55 212.05 297.55 212.35 297.4 212.5 297.25 212.7 296.95 212.7 296.65 212.7 296.3 212.7 295.7 212.7 295.05 212.7 295.05 213 294.95 213.25 294.75 213.6 294.4 213.95 294.3 215.65 295.6 216.1 295.7 216.15 295.7 216.45 296 216.45 296.15 216.6 296.3 216.75 296.3 217.1 296.65 217.1 296.95 217.1 296.95 216.75 296.95 216.45 297.25 216.45 297.55 216.45 297.55 216.15 297.55 215.85 297.9 215.85 298.2 215.85 298.2 215.5 298.2 215.2 298.5 215.2 298.85 215.2 298.85 214.9 298.85 214.55 299.15 214.55 299.45 214.55 299.75 214.55 300.1 214.55 300.1 214.25 300.1 213.95 300.4 213.95 300.7 213.95 301.05 213.95 301.35 213.95 301.35 213.6 301.35 213.3 301.65 213.3 301.95 213.3 303.2 213.3 303.95 212.85 304.15 212.7 304.5 212.7 304.5 212.35 304.5 212.05 304.8 212.05 305.1 212.05 306.6 211.65 307.7 210.9 307.95 210.8 308.25 210.8 308.25 210.5 308.25 210.15 308.55 210.15 308.9 210.15 310.4 209.5 312.65 209.55 312.95 209.55 313.3 209.55 313.3 209.2 313.3 208.9 313.6 208.9 313.9 208.9 314.25 208.9 314.55 208.9 314.85 208.9 315.15 208.9 315.15 208.6 315.15 208.3 315.5 208.3 315.8 208.3 316.45 208.3 317.05 208.3 317.35 208.3 317.7 208.3 317.7 207.95 317.7 207.65 318 207.65 318.3 207.65 318.65 207.65 318.95 207.65 319.25 207.65 319.55 207.65 319.55 207.35 319.55 207 319.9 207 320.2 207 320.5 207 320.85 207 322.85 207.45 323.55 206.55 323.65 206.4 323.95 206.4 323.95 206.1 323.95 205.75 324.3 205.75 324.45 205.9 324.6 206.1 324.6 206.4 325.25 206.1 325.9 205.85 326.15 205.75 326.5 205.75 326.8 205.75 327.1 205.75 328.7 205.75 330.25 205.75 330.55 205.75 330.9 205.75 330.9 205.45 330.9 205.15 331.2 205.15 331.5 205.15 332.75 203.95 333.7 204.8
L 334.1 204.65
Q 334.35 204.5 334.65 204.5 334.95 204.5 335.15 204.65 335.3 204.8 335.3 205.15 337 204.65 338.5 204 338.75 203.9 339.05 203.9 339.35 203.9 339.55 204.05 339.7 204.2 339.7 204.5 343.1 203.55 347.85 203.85 348.15 203.9 348.5 203.9 348.8 203.9 349.1 203.9 349.45 203.9 349.75 203.9 350.05 203.9 350.35 203.9 350.7 203.9 351 203.9 351.3 203.9 351.65 203.9 351.95 203.9 352.25 203.9 352.55 203.9 352.9 203.9 353.2 203.9 353.35 204.05 353.5 204.2 353.5 204.5 354.9 204 356.65 203.9 357 203.9 357.3 203.9 357.3 203.55 357.3 203.25 357.9 203.25 358.4 203.5 358.55 203.55 358.55 203.9 361.3 203.95 363.6 204.45 363.9 204.5 364.2 204.5 364.2 204.2 364.2 203.9 364.5 203.9 364.7 204.05 364.85 204.2 364.85 204.5 365.15 204.5 365.45 204.5 365.45 204.2 365.45 203.9 365.8 203.9 365.95 204.05 366.1 204.2 366.1 204.5 367.35 204.5 368.6 204.5 368.9 204.5 369.25 204.5 370.8 204.5 372.3 204.8 372.4 204.8 372.4 205.15 373.3 205.15 374.25 205.15 374.6 205.15 374.9 205.15 375.2 205.15 375.35 205.3 375.5 205.45 375.5 205.75 375.85 205.75 376.15 205.75 376.45 205.75 376.6 205.9 376.8 206.1 376.8 206.4 377.7 206.4 378.65 206.4 379 206.4 379.3 206.4 379.6 206.4 379.75 206.55 379.9 206.7 379.9 207 380.25 207 380.55 207 380.85 207 381.2 207 381.5 207 381.8 207 382.1 207 382.45 207 382.75 207 382.9 207.2 383.05 207.35 383.05 207.65 383.4 207.65 383.55 207.8 383.7 207.95 383.7 208.3 385.25 208.3 386.85 208.3 387.15 208.3 387.45 208.3 387.8 208.3 387.95 208.45 388.1 208.6 388.1 208.9 388.4 208.9 388.7 208.9 389.35 208.9 389.85 209.15 390 209.2 390 209.55 390.15 210.6 391.85 210.25 392.2 210.15 392.5 210.15 392.8 210.15 392.95 210.3 393.1 210.5 393.1 210.8 393.45 210.8 393.75 210.8 394.05 210.8 394.4 210.8 394.7 210.8 394.85 210.95 395 211.1 395 211.4 395.3 211.4 395.65 211.4 396.9 211.4 398.1 211.7 398.15 211.75 398.15 212.05 398.8 212.05 399.3 212.3 399.4 212.35 399.4 212.7 401.1 212.25 401.55 213.2 401.6 213.3 401.9 213.3 402.25 213.3 402.4 213.45 402.55 213.6 402.55 213.95 402.85 213.95 403.2 213.95 403.5 213.95 403.8 213.95 404.1 213.95 404.3 214.1 404.45 214.25 404.45 214.55 404.75 214.55 405.05 214.55 405.4 214.55 405.7 214.55 406 214.55 406.15 214.75 406.3 214.9 406.3 215.2 406.65 215.2 406.95 215.2 407.6 215.2 408.1 215.45 408.2 215.5 408.2 215.85 408.5 215.85 408.85 215.85 409.15 215.85 409.45 215.85 410.1 215.85 410.6 216.1 410.7 216.15 410.7 216.45 411.05 216.45 411.2 216.6 411.35 216.75 411.35 217.1 411.65 217.1 412 217.1 412.3 217.1 412.6 217.1 412.9 217.1 413.25 217.1 413.55 217.1 413.85 217.1 414.2 217.1 414.35 217.25 414.5 217.4 414.5 217.7 416.5 217.25 417.2 218.2 417.35 218.35 417.65 218.35 417.95 218.35 418.1 218.5 418.25 218.65 418.25 218.95 418.9 219.3 419.55 219.5 419.85 219.6 420.15 219.6 420.15 219.3 420.15 218.95 420.45 218.95 420.8 218.95 421.1 218.95 421.4 218.95 422.35 218.95 423.2 219.25 423.3 219.3 423.3 219.6 423.95 219.6 424.55 219.6 424.85 219.6 425.2 219.6 425.5 219.6 425.65 219.75 425.8 219.9 425.8 220.25 427.7 220.55 429.6 220.8 429.9 220.85 430.2 220.85 430.55 220.85 430.7 221 430.85 221.15 430.85 221.5 432.05 221.45 432.8 221 433.05 220.85 433.35 220.85 433.65 220.85 434 220.85 434.6 221.15 435.25 221.4 435.55 221.5 435.85 221.5 435.85 221.15 435.85 220.85 438.05 220.85 440.25 220.85 440.6 220.85 440.9 220.85 442.15 220.85 443.4 220.85 443.75 220.85 444.05 220.85 444.35 220.85 444.65 220.85 444.65 220.55 444.65 220.25 444.65 219.9 444.65 219.6 445 219.6 445.15 219.75 445.3 219.9 445.3 220.25 446.85 220.25 448.45 220.25 448.75 220.25 449.05 220.25 449.05 219.9 449.05 219.6 449.4 219.6 449.7 219.6 450 219.6 450.35 219.6 450.65 219.6 450.95 219.6 452.7 219.75 453.55 219.15 453.8 218.95 454.1 218.95 454.1 218.65 454.1 218.35 454.4 218.35 454.75 218.35 455.35 218.35 456 218.35 456.3 218.35 456.6 218.35 456.6 218.05 456.6 217.7 456.95 217.7 457.25 217.7 457.85 217.7 458.5 217.7 458.8 217.7 459.15 217.7 459.15 217.4 459.15 217.1 459.45 217.1 459.75 217.1 463.45 215.75 467.2 214.3 467.3 214.25 467.3 213.95 467.3 213.6 467.3 213.3 467.6 213.3 467.95 213.3 470.8 213.05 472.45 211.6 472.65 211.4 472.95 211.4 472.95 211.1 472.95 210.8 473.25 210.8 473.6 210.8 475.75 210.15 476.95 208.45 477.05 208.3 477.35 208.3 477.35 207.95 477.35 207.65 477.7 207.65 478 207.65 478.6 207.35 479.1 206.85 479.25 206.7 479.25 206.4 Z"/>
</g>
</defs>

<mask id="Mask_Mask_1">
<g transform="matrix( 1, 0, 0, 1, 0,0) ">
<use xlink:href="#Mask_5_MASK_0_FILL"/>
</g>
</mask>

<g mask="url(#Mask_Mask_1)">
<g transform="matrix( 1, 0, 0, 1, 0,0) ">
<use xlink:href="#Layer5_0_FILL"/>
</g>
</g>

<mask id="Mask_Mask_2">
<g transform="matrix( 1, 0, 0, 1, 0,0) ">
<use xlink:href="#Mask_3_MASK_0_FILL"/>
</g>
</mask>

<g mask="url(#Mask_Mask_2)">
<g transform="matrix( 1, 0, 0, 1, 0,0) ">
<use xlink:href="#Layer3_0_FILL"/>
</g>
</g>

<mask id="Mask_Mask_3">
<g transform="matrix( 1, 0, 0, 1, 0,0) ">
<use xlink:href="#Mask_1_MASK_0_FILL"/>
</g>
</mask>

<g mask="url(#Mask_Mask_3)">
<g transform="matrix( 1, 0, 0, 1, 0,0) ">
<use xlink:href="#Layer1_0_FILL"/>
</g>
</g>
</svg>
