<?xml version="1.0" encoding="UTF-8"?>
<svg id="Capa_2" data-name="Capa 2" xmlns="http://www.w3.org/2000/svg" viewBox="0 0 572.57 127.81">
  <defs>
    <style>
      .cls-1 {
        fill: #1d1d1b;
      }
    </style>
  </defs>
  <g id="Calque_1" data-name="Calque 1">
    <g>
      <path class="cls-1" d="M82.29,0H33.76C15.19,0,0,15.19,0,33.76v51.71c0,18.57,15.19,33.76,33.76,33.76h48.53c18.57,0,33.76-15.19,33.76-33.76V33.76C116.05,15.19,100.86,0,82.29,0Zm24.84,85.47c0,6.6-2.59,12.83-7.3,17.54s-10.94,7.3-17.54,7.3H33.76c-6.6,0-12.83-2.59-17.54-7.3s-7.3-10.94-7.3-17.54V33.76c0-6.6,2.59-12.83,7.3-17.54s10.94-7.3,17.54-7.3h48.53c6.6,0,12.83,2.59,17.54,7.3s7.3,10.94,7.3,17.54v51.71Z"/>
      <path class="cls-1" d="M58.21,27.2c-17.65,0-31.96,14.31-31.96,31.96s14.31,31.96,31.96,31.96,31.96-14.31,31.96-31.96-14.31-31.96-31.96-31.96Zm-.15,52.91c-11.56,0-20.93-9.37-20.93-20.93s9.37-20.93,20.93-20.93,20.93,9.37,20.93,20.93-9.37,20.93-20.93,20.93Z"/>
      <circle class="cls-1" cx="90.68" cy="26.7" r="7.57" transform="translate(7.68 71.94) rotate(-45)"/>
    </g>
    <g>
      <path class="cls-1" d="M187.08,13.76c-.54-1.86-6.09-3.34-7.74-3.34-11.03,0-24.87,18.24-24.87,32.67,0,6.17,4.86,12.43,9.79,14.47,2.02,.84,3.4,.83,3.91,.12,.49-.68,.24-1.96-.95-3.71-2.12-3.12-2.85-8.93-2.92-12.29-.16-7.03,4.7-19.51,10.14-23.69,.49-.38,1.36-1,1.36,.18v62.97c0,3.3-.8,8.2-1.46,11.87-.21,1.18-2.68,7.33-.72,7.33,1.81,0,5.63-2.6,7-4.05,2.65-2.82,4.53-6.53,5.57-10.39,.62-2.31,.94-7.73,.94-9.99V13.9h0s0-.07-.03-.14Z"/>
      <path class="cls-1" d="M572.02,71.1c-.34-.3-.76-.51-1.24-.51-.92,0-1.51,.52-1.7,1.28-.37,1.5-.9,3.92-1.42,5.59-.9,2.91-2.26,5.7-4.54,5.7-4.21,0-5.15-8.1-5.35-10.72-.25-3.24-.27-6.92-.35-9.76v-10.17l.41-5.33c.1-1.31,.31-2.31-.03-3.58-.29-1.08-.93-2.02-1.79-2.68-1.81-1.38-6.71-3.09-8.57-3.09-1.04,0-1.98,.42-2.66,1.1-.74,.74-1.31,2.1-1.69,3.02-.96,2.31-1.79,4.39-2.5,6.36-.88,2.42-2.05,6.3-3.01,10.06-.66,2.6-1.1,4.93-1.5,7.5-.06,.38-.06,.49-.12,.87,0,.01-.03,.26-.07,.34-.09,.23-.37,.17-.41-.07-.05-.31-.08-.57-.1-.88-.51-5.98-1.04-12.2-.89-18.23,.04-1.55,.08-3.4-.22-4.53-.26-.96-.74-1.83-1.39-2.54-1.55-1.71-4.23-2.52-6.4-2.81-1.07-.14-2.35-.38-3.3,.18-.9,.53-1.62,1.98-2.04,2.82-2.73,5.47-4.92,12.77-6.94,18.84l.07-17.54c0-.4,.03-1.09-.07-1.49-.13-.5-.43-.94-.83-1.24-.14-.1-.66-.35-1.09-.47-1.79-.5-3.47-.86-5.33-1.13-.41-.06-1.03-.16-1.44-.16-.68,0-1.24,.4-1.52,.97-.54,1.06-.51,20.91-.46,29.08-.27,2.22-.69,5.13-1.52,7.87-.7,2.31-3.06,7.05-5.85,7.6-2.95,.59-4.65-2.47-5.31-7.2-.86-7.74-.49-22.29-.01-30.48,.23-3.97,.97-5.47-3.23-6.54-2.85-.73-4.57-.84-5.75-.67-1.22,.18-1.79,1.65-1.59,4.25-3.63-5.56-8.86-6.35-12.51-5.96-8.57,.93-14.68,13.47-15.73,22.99-.64,5.8-.09,11.08,.62,15.47-.21,2.94-.66,8.26-5.94,7.97-4.36-.24-6.86-7.4-6.09-16.99,.49-6.09,2.49-14.67,3.08-17.52,1.28-6.26-2.38-7.46-7.52-6.78-2.7,.36-6.42,1.14-10.52,1.83,.86-3.15,.53-6.52-1.91-7.68-2.23-1.06-6.09-.85-8.26,1.55-3.09,3.4-3.9,9.47,.79,12.54-.57,4.73-5.94,17.59-12.75,26.6,.11-5.17,.64-28.42,.37-34.62-.1-2.24-2.09-3.11-3.91-3.5-.28-.06-2.62-.28-2.62-.31-1.24-.1-2.41,.06-3.24,.73-1.06,.85-1.01,1.84-.87,3.73-3.88-5.94-9.32-6.43-13.21-5.65-8.17,1.63-13.91,13.27-14.94,22.64-.41,3.77-.44,7.48-.22,10.84,.09,1.34,.21,2.61,.39,3.83-1.3,4.69-3.49,8.35-6.26,8.95-2.94,.64-4.65-2.47-5.31-7.2-.86-7.74-.49-22.29-.01-30.48,.23-3.97,.97-5.47-3.23-6.54-2.85-.73-4.57-.84-5.75-.67-1.22,.18-1.79,1.65-1.59,4.25-3.63-5.56-8.86-6.35-12.51-5.96-8.57,.93-14.68,13.47-15.73,22.99-.37,3.35-.34,6.53-.11,9.46-.66,2.03-1.71,4.58-2.52,6.1-5.18,9.77-10.95,8.61-11.86-3.27-.28-3.65-.35-7.5-.35-11.17,.29-8.46,.59-16.93,.88-25.39,4.66,.04,9.38,.01,14.27-.14,1.98-.06,3.26-6.55,1.42-6.68-5.15-.36-10.28-.69-15.42-.98l.47-13.57s0-.08-.03-.18c-.27-.94-1-1.32-1.89-1.62-1.05-.34-2.72-.87-4.32-1.27-2.3-.57-5.42-1.37-5.66,2.12-.18,2.62-.37,7.92-.54,13.89-3.58-.17-7.18-.32-10.81-.46-2.12-.08-4.6,8.32-1.21,8.4,4,.09,7.92,.19,11.82,.28-.12,5.63-.59,17.8-.58,28.31-2.03,5.27-4.85,10.33-8.28,13.03,.98-3.44,.63-10.07-6.93-15.91-2.68-2.07-5.89-4.52-10.39-7.9,2.81-3.44,5.85-8.31,5.92-12.05,.04-2.31-1.73-4.5-5.7-4.47-7.17,.05-11.97,6.73-11.95,12.24,.01,3.47,2.22,5.92,3.18,7.2-11.57,21.66-14.13,24.31-16.35,24.31-1.44,0-2.1-3.14-1.99-12.82,.1-8.66,.7-14.5,.71-21.53,0-2.94-1.84-4.62-3.73-5.7-1.05-.6-5.6-2.29-6.96-2.33-1.99-.06-4.85,1.77-7.23,4.43-5.55,6.19-8.64,15.64-11.26,23.51l.07-23.27c0-.4,.03-1.09-.07-1.49-.25-1-.98-1.45-1.91-1.71-1.76-.49-4.94-1.29-6.77-1.29-.68,0-1.14,.47-1.35,1.04-.18,.49-.04,11.51-.1,23.02-.04,7.59-.1,14.9,.04,19.68,.15,5.06,.25,8.26,6.72,8.29,3.02,.01,3.69,.09,4.11-2.44,1.46-8.63,6.22-29.58,16.66-40.73,.33-.31,.93-.12,.89,.58-.7,11.17-1.51,24.43-.02,35.27,.42,3.08,2.26,7.77,6.02,7.77,5.05,0,8.73-1.15,18.35-16.61,2.35-3.78,5.02-8.35,8.25-13.97,1.97,1.8,3.98,3.56,5.92,5.39,3.56,3.34,5.53,6.86,5.61,10.08,.09,3.97-1.95,7.34-5.18,7.33-4.54-.02-6.81-4.42-9.54-4.41-2.87,0-5.17,5.04-5.15,7.21,.03,2.48,6.52,5.35,14.87,5.33,6.33,0,11.34-2.46,15.65-6.29,3.39-3.02,6.82-8.91,8.73-13.7,.32,8.34,4.87,19.16,12.68,19.16,3.71,0,7.3-2.49,10.07-6.01,1.86-2.36,2.93-4.23,4.05-6.98,.71,2.34,1.71,4.92,2.5,6.11,2.33,3.54,5.44,6.73,10.05,7.03,5.25,.34,8.76-1.56,11.49-4.19,2.09-2.01,3.27-3.73,4.79-6.38,.58,5.42,5.68,10.61,11.84,10.49,5.73-.11,8.51-4.56,10.11-9.7,.55,1.29,1.25,2.53,2.14,3.73,6.74,9.13,17.7,7.37,24.65-1.78,.04,2.12,.08,4.18,.09,4.77-6.12,5.87-13.07,11.29-18.19,17.75-3.22,4.07-4.55,8.59-4.36,11.9,.39,6.63,7.56,11.21,13.99,11.21,12.64,0,16.62-9.48,18.5-22.68,1.01-7.07,.21-14.3,.37-20.72,7.68-8.9,16.99-23.1,19.7-34.32l7.48-.19c.36,0,.85,.04,1.11,.3,.21,.21-.01,.82-.16,1.59-1.96,9.93-4.61,21.5,.35,30.63,2.38,4.38,6.09,7.48,11.27,7.57,4.8,.08,9.12-3.95,11.36-7.91,2.39,3.88,5.62,7.6,10.62,7.92,5.25,.34,8.76-1.56,11.49-4.19,2.09-2.01,3.27-3.73,4.79-6.38,.32,1.03,.61,2.67,1.08,3.58,2.06,3.91,5.9,6.82,9.49,6.96,7.38,.29,9.18-4.58,10.97-8.26,.03,1.51,.23,4.59,.47,5.7,.12,.56,.52,.97,1.03,1.22,1.84,.92,4.31,1.22,6.6,1.21,1.4,0,3.35,.19,4.22-1.11,.5-.74,.47-2.36,.51-3.25,.17-3.51,.29-9.43,.52-11.74,.75-6.37,1.61-9.83,3.28-13.93,1.03-2.54,1.92-5.21,3.99-8.71,.1-.17,.28-.3,.49-.3,.39,0,.55,.34,.55,.62,.06,2.88,.11,5.51,.24,7.97,.35,6.81,.91,12.34,1.96,18.28,.19,1.1,.39,2.35,.74,3.42,.95,2.9,3.68,4.99,6.89,4.99,.98,0,1.91-.19,2.76-.54,.25-.1,.48-.22,.7-.37,.44-.29,.67-.58,.78-1.1,.07-.33,.06-.73,.07-1.08,0-.29,.02-.58,.03-.87,.19-5.14,.66-9.43,1.71-13.88,1.67-7.11,3.77-13.76,6.01-17.78,.08-.15,.16-.34,.35-.34,.16,0,.26,.11,.28,.27,.02,.14,0,.36,0,.46-.25,2.22-.32,4.48-.33,6.73-.01,3.43-.01,6.86,.18,10.29,.23,4.07,.68,8.03,1.51,11.01,.41,1.49,.92,2.8,1.51,3.96,2.03,3.95,5.63,7,10.28,7,5.52,0,8.99-4.16,10.43-9.05,.34-1.16,.65-2.28,.87-3.51,.23-1.29,.81-5.33-.17-6.19Zm-229.34-5.68c-.38,13.06-6.21,18.42-10.55,17.61-5.27-.98-6.97-7.96-6.13-20.49,.76-11.36,4.82-17.49,9.37-17.51,7.13-.02,8.03,12.55,7.3,20.38Zm50.22,0c-.38,13.06-6.21,18.42-10.55,17.61-5.27-.98-6.97-7.96-6.13-20.49,1.09-16.34,10.85-21.9,15.27-14.2,1.86,3.25,1.65,8.92,1.41,17.08Zm-4.84,56.75c-4.9,2.62-10.36-1.49-8.48-8,1.76-6.09,10.24-14.81,14.69-19.86,.1,6.7,.62,24.2-6.21,27.86Zm91.76-56.75c-.38,13.06-6.21,18.42-10.54,17.61-5.27-.98-6.97-7.96-6.13-20.49,.76-11.36,4.82-17.49,9.37-17.51,7.13-.02,8.03,12.55,7.3,20.38Z"/>
    </g>
  </g>
</svg>