<?xml version="1.0" encoding="UTF-8"?>
<svg width="365px" height="49px" viewBox="0 0 365 49" version="1.1" xmlns="http://www.w3.org/2000/svg" xmlns:xlink="http://www.w3.org/1999/xlink">
    <title>Roth logo</title>
    <defs>
        <polygon id="path-1" points="0.133725 0.410813333 8.6415 0.410813333 8.6415 10.8263467 0.133725 10.8263467"></polygon>
        <polygon id="path-3" points="0.2613 0.63855437 0.7613 0.63855437 0.7613 48.9430894 0.2613 48.9430894"></polygon>
    </defs>
    <g id="Symbols" stroke="none" stroke-width="1" fill="none" fill-rule="evenodd">
        <g id="HEADER-1.0" transform="translate(-60.000000, -24.000000)">
            <g id="Roth-logo" transform="translate(60.000000, 24.000000)">
                <path d="M158.408917,28.1583426 L158.408917,28.2366071 C158.408917,28.2995257 158.629408,28.3309849 159.069695,28.3309849 L159.886277,28.3309849 C160.534534,28.3309849 160.859359,28.2887835 160.859359,28.2051479 C160.859359,27.9810965 160.657648,27.2912946 160.255617,26.1372768 C159.85289,24.9824916 159.64631,24.4054827 159.63379,24.4054827 C159.622661,24.4054827 159.415386,24.9840262 159.012659,26.1411133 C158.610628,27.2982003 158.408917,27.9703544 158.408917,28.1583426 M159.808374,22 L160.014259,22 C160.364123,22 160.757112,22.4128069 161.19253,23.2384208 C161.344161,23.5253906 161.571607,24.1208147 161.87487,25.0246931 C162.177436,25.9285714 162.438269,26.6774554 162.656674,27.2728795 C162.873687,27.8683036 163.112263,28.5780552 163.369618,29.4005999 C163.628365,30.2231445 163.814774,30.7686942 163.930931,31.0380162 C164.047089,31.3065709 164.254365,31.5636161 164.552758,31.8091518 C164.851151,32.0554548 165,32.2679967 165,32.4483119 C165,32.6286272 164.898449,32.7467913 164.694651,32.8043387 C164.363567,32.8933454 163.54142,32.9378488 162.230298,32.9378488 C161.633512,32.9378488 161.335119,32.7966657 161.335119,32.5142997 C161.335119,32.4414062 161.382416,32.2626256 161.477012,31.9779576 C161.571607,31.6932896 161.618905,31.4830497 161.618905,31.3472377 C161.618905,30.7050084 161.479794,30.1640625 161.200181,29.7251674 C161.086805,29.5479213 160.728594,29.4589146 160.12833,29.4589146 C159.024484,29.4589146 158.40057,29.4980469 158.25659,29.5763114 C158.111915,29.6545759 157.965153,29.8533064 157.815608,30.1717355 C157.667455,30.4909319 157.592335,30.7863421 157.592335,31.0571987 C157.592335,31.3288225 157.659804,31.6211635 157.794742,31.9349888 C157.929679,32.2480469 157.997148,32.4935826 157.997148,32.671596 C157.997148,32.8902762 157.783613,33 157.357933,33 C156.344509,33 155.667733,32.9478237 155.326911,32.843471 C155.108507,32.7759487 155,32.6056083 155,32.3339844 C155,32.2979213 155.215622,32.0708008 155.646171,31.6526228 C155.883355,31.4232003 156.072546,31.1231864 156.21444,30.7518136 C157.236906,28.0616629 157.88725,26.1119559 158.164082,24.9034598 C158.440913,23.6941964 158.676706,22.9077148 158.870766,22.5447824 C159.064826,22.1818499 159.37713,22 159.808374,22" id="Fill-1" fill="#FFFFFF"></path>
                <path d="M177.798458,23.0532327 L177.583541,23.0532327 C177.268647,23.0532327 177.077533,23.1020941 177.010202,23.1998167 C176.94355,23.2975393 176.909544,23.5519284 176.909544,23.9637594 L176.909544,26.8388211 C176.909544,27.0497779 176.948991,27.2002397 177.027885,27.2902066 C177.106779,27.3801734 177.280209,27.4243813 177.548855,27.4243813 L177.819542,27.4243813 L177.875312,27.4166255 L178.035139,27.4088698 C178.071866,27.4042163 178.106552,27.401114 178.139197,27.401114 C178.467694,27.401114 178.78871,27.2227314 179.101564,26.8667419 C179.413738,26.5099767 179.569485,26.0438553 179.569485,25.4683776 L179.569485,25.0883452 C179.569485,24.5182966 179.412378,24.0366636 179.097484,23.6434464 C178.782589,23.2502291 178.349354,23.0532327 177.798458,23.0532327 M177.472682,22 L177.944684,22 C179.130129,22 180.05577,22.2590425 180.722285,22.776352 C181.389481,23.2936614 181.722739,24.0227032 181.722739,24.9619262 C181.722739,25.4955228 181.625482,25.9624198 181.430968,26.3633928 C181.236454,26.7643658 181.03922,27.0683917 180.840626,27.2739195 C180.386987,27.7446944 180.159828,27.999859 180.159828,28.0425157 C180.159828,28.2379609 180.244842,28.4970035 180.413512,28.8180921 C180.582861,29.1407319 180.775334,29.5261933 180.992972,29.9744765 C181.21061,30.4235352 181.366357,30.7190298 181.458853,30.8617359 C181.699615,31.2309102 181.96078,31.487626 182.243029,31.6295565 C182.747676,31.8785165 183,32.0623281 183,32.1840936 C183,32.5222449 182.875538,32.7332017 182.625255,32.8177395 C182.268873,32.939505 181.851961,33 181.375198,33 C180.898436,33 180.514169,32.8293732 180.222399,32.4888952 C179.930628,32.1484171 179.592609,31.5233025 179.208343,30.6120003 C178.824076,29.7014736 178.576513,29.1671015 178.464974,29.0081083 C178.233734,28.6653035 177.931081,28.4939011 177.555656,28.4939011 C177.352301,28.4939011 177.214237,28.6086865 177.142825,28.8382571 C177.070732,29.0678277 177.035366,29.6394275 177.035366,30.5530565 C177.035366,30.7748713 177.134663,31.1231051 177.333258,31.5985335 L177.591022,32.1290277 C177.715484,32.3927237 177.778055,32.5408588 177.778055,32.5718818 C177.778055,32.8464359 177.400589,32.9837129 176.646339,32.9837129 C175.330991,32.9837129 174.561097,32.9472608 174.337338,32.8728055 C174.112219,32.7991257 174,32.6509906 174,32.4299514 C174,32.2081365 174.141465,31.9995065 174.424394,31.8040612 C174.705962,31.6086159 174.877352,31.3774942 174.937202,31.1114715 C174.997733,30.8446732 175.027658,29.6859621 175.027658,27.6345625 C175.027658,25.5831629 174.992972,24.3810195 174.92428,24.0273567 C174.854228,23.6736939 174.729766,23.3968131 174.548855,23.1959388 C174.224439,22.8368469 174.062571,22.6072763 174.062571,22.5064514 C174.062571,22.2954946 174.255724,22.1582176 174.642711,22.0946203 C175.029018,22.0317986 175.972342,22 177.472682,22" id="Fill-3" fill="#FFFFFF"></path>
                <path d="M202.862522,24.0980082 C202.862522,24.6177885 202.713896,24.8769231 202.41516,24.8769231 C202.283626,24.8769231 201.970027,24.676717 201.474362,24.2755495 C200.978697,23.8743819 200.566262,23.5956044 200.2378,23.4384615 C199.907852,23.2820742 199.531831,23.2035027 199.106762,23.2035027 L199.084469,23.2035027 C198.674263,23.2035027 198.281892,23.3138049 197.9081,23.5351648 C196.855834,24.1569368 196.3297,25.4941621 196.3297,27.5460852 C196.3297,28.1323489 196.421105,28.7035027 196.603171,29.2587912 C197.133763,30.8997253 198.151102,31.7194368 199.65296,31.7194368 L199.668566,31.7194368 C200.355957,31.7194368 201.069358,31.4572802 201.808026,30.932967 C202.283626,30.598283 202.556354,30.4313187 202.627694,30.4313187 C202.875898,30.4313187 203,30.5499313 203,30.7864011 L203,30.9790522 C203,31.0976648 202.881843,31.3371566 202.646272,31.696772 C202.411444,32.0563874 202.096359,32.3291209 201.701759,32.514217 C201.013624,32.8383242 200.20436,33 199.273966,33 L199.016101,33 C198.272232,33 197.589299,32.8617445 196.966559,32.5837225 C195.727768,32.0284341 194.867971,31.1105082 194.387169,29.8299451 C194.129304,29.1462225 194,28.4798764 194,27.8316621 L194,27.2914835 C194,26.6485577 194.124102,25.993544 194.371563,25.3249313 C194.882834,23.9408654 195.757493,22.9768544 196.997027,22.4313874 C197.649492,22.143544 198.295269,22 198.932128,22 L199.182561,22 C200.781026,22 201.838494,22.1541209 202.354223,22.4623626 C202.693089,22.6633242 202.862522,23.2087912 202.862522,24.0980082" id="Fill-5" fill="#FFFFFF"></path>
                <path d="M216.201756,27.8851347 C215.607873,27.8851347 215.253326,27.9897866 215.13743,28.1990906 C215.057194,28.3460651 215.018105,28.7700595 215.018105,29.4726128 C215.018105,30.1743966 215.056508,30.670724 215.133315,30.961595 C215.210122,31.2516964 215.347963,31.5364113 215.546153,31.8134313 C215.745028,32.0919902 215.844466,32.3105282 215.844466,32.4698146 C215.844466,32.6298706 215.663421,32.7452956 215.302016,32.81532 C214.939926,32.8868835 214.102592,32.921511 212.791387,32.921511 C212.520505,32.921511 212.342203,32.881497 212.255795,32.79993 C212.169387,32.7183631 212.125497,32.5498426 212.125497,32.2928297 C212.125497,32.1989507 212.244137,32.0435117 212.479358,31.8257433 C212.715951,31.6079748 212.861336,31.3871284 212.916884,31.1616649 C212.973118,30.936971 213.001234,29.6965373 213.001234,27.4411333 C213.001234,25.1864988 212.969689,23.9445261 212.906597,23.7167541 C212.843506,23.4889822 212.651488,23.2627492 212.329173,23.0372858 C212.109724,22.8803078 212,22.6471494 212,22.3378104 L212.161158,22.1731375 C212.352489,22.0577125 213.211082,22 214.737622,22 C215.447401,22 215.801948,22.133893 215.801948,22.4009094 C215.801948,22.5263379 215.718283,22.7848898 215.550267,23.1750262 C215.382252,23.5651626 215.271156,23.8791186 215.217666,24.1176635 C215.163489,24.3562085 215.13743,24.8810073 215.13743,25.6928297 C215.13743,26.1014341 215.223152,26.381532 215.395968,26.533893 C215.498834,26.6231549 216.044027,26.6670164 217.03086,26.6670164 C218.018379,26.6670164 218.586888,26.612382 218.735702,26.5023435 C218.885201,26.392305 218.959951,26.0244841 218.959951,25.3988807 C218.959951,24.7725079 218.926348,24.3192725 218.859141,24.0391745 C218.790564,23.7590766 218.663695,23.4643582 218.477164,23.1550192 C218.289947,22.8456803 218.197367,22.6571529 218.197367,22.5894369 C218.197367,22.3901364 218.360582,22.2462399 218.687011,22.156978 C218.864628,22.1100385 219.342614,22.086184 220.123028,22.086184 C220.902071,22.086184 221.392402,22.1131165 221.592648,22.1654425 C221.854615,22.2331584 221.984913,22.4293809 221.984913,22.7541098 C221.984913,22.8641483 221.862845,23.0465198 221.617336,23.3004547 C221.372514,23.5543896 221.231244,23.7336831 221.194212,23.8383351 C221.109861,24.0853445 221.068029,25.0833858 221.068029,26.8324589 L221.047456,28.741588 L221.039912,29.1186429 L221.039912,29.8812172 C221.039912,30.8392445 221.093403,31.4286814 221.20107,31.6487583 C221.243588,31.7380203 221.386915,31.8596013 221.631738,32.0142707 C221.87656,32.1689402 222,32.3820916 222,32.6544946 C222,32.8853445 221.665341,33 220.99808,33 L220.675765,32.992305 L220.011247,32.98461 C219.081333,32.98461 218.537512,32.898426 218.379098,32.7252886 L218.294747,32.5521511 C218.294747,32.3636236 218.392813,32.0835257 218.588945,31.7118573 C218.785077,31.3401889 218.915375,31.006226 218.977781,30.7099685 C219.040872,30.4137111 219.072418,29.9466247 219.072418,29.3071703 C219.072418,28.6684855 218.987382,28.2714236 218.816623,28.1175236 C218.645865,27.9628541 217.774242,27.8851347 216.201756,27.8851347" id="Fill-7" fill="#FFFFFF"></path>
                <path d="M232.102027,32.9364475 C231.389961,32.9364475 231.033519,32.8287184 231.033519,32.61171 C231.033519,32.3954766 231.21828,32.1652927 231.589438,31.9196083 C231.95896,31.6746988 232.186233,31.3987881 232.269621,31.0926513 C232.353009,30.7872895 232.393885,29.5774678 232.393885,27.4639611 C232.393885,25.3512295 232.371812,24.2127105 232.326848,24.0491792 C232.227109,23.6748397 232.037443,23.3950539 231.759483,23.2105968 C231.253434,22.8734587 231,22.6091735 231,22.4192912 L231,22.3084619 C231,22.1185796 231.701439,22.0232509 233.104317,22.0232509 L233.671681,22 L234.239045,22 L234.431164,22.0077503 L234.623283,22.0077503 C235.257685,22.0077503 235.64274,22.0302262 235.779267,22.0751779 C235.915795,22.1201296 235.984467,22.2557599 235.984467,22.4820686 C235.984467,22.620024 235.777632,22.8463327 235.365598,23.1633199 C235.143231,23.3369267 234.992806,23.5857113 234.915141,23.9065737 C234.837475,24.2289861 234.798234,25.4713591 234.798234,27.6344677 C234.798234,29.7975763 234.8293,30.9973226 234.890615,31.2352568 C234.951112,31.472416 235.151406,31.7289509 235.491498,32.0025365 C235.830772,32.2768971 236,32.5039808 236,32.6830128 C236,32.8945959 235.777632,33 235.332897,33 L234.748365,33 L234.556246,32.9922497 L234.163833,32.9922497 L233.596468,32.9759741 L232.84516,32.9604735 L232.47809,32.9441978 C232.355461,32.9395477 232.230379,32.9364475 232.102027,32.9364475" id="Fill-9" fill="#FFFFFF"></path>
                <path d="M249.750627,23.2492431 C249.351536,23.2492431 248.931996,23.4498345 248.490599,23.8502429 C247.784785,24.4938393 247.412488,24.8152503 247.374412,24.8152503 C247.124804,24.8152503 247,24.6440893 247,24.3009927 L247,24.0562557 C247,23.4862353 247.043717,22.9727522 247.12974,22.5142576 C247.172751,22.2764909 247.270056,22.1339858 247.42095,22.0867422 C247.572548,22.0394987 249.015904,22.0154897 251.751724,22.0154897 L254.451583,22 L254.926825,22 C255.44508,22 255.753917,22.0921636 255.851927,22.2764909 C255.949937,22.4615926 256,22.8643244 256,23.4862353 L256,23.992748 C256,24.5511512 255.882247,24.83074 255.646741,24.83074 C255.440849,24.83074 255.191241,24.6487362 254.897916,24.2855031 C254.605296,23.9214955 254.33665,23.6597198 254.091977,23.4986271 C253.847305,23.3375343 253.525776,23.256988 253.12739,23.256988 C252.810091,23.256988 252.625353,23.4862353 252.572469,23.9455045 C252.553432,24.1034993 252.544265,25.2807153 252.544265,27.4763782 C252.544265,29.6720411 252.570354,30.8887559 252.623237,31.1257481 C252.675415,31.3627403 252.872846,31.6175456 253.213413,31.8893896 C253.554685,32.1604591 253.724616,32.3897064 253.724616,32.5771316 C253.724616,32.7645568 253.638593,32.8815039 253.465841,32.9287474 C253.29309,32.975991 252.733234,33 251.787684,33 L250.578424,33 C250.103181,33 249.778126,32.9814124 249.603259,32.9450116 C249.427687,32.9078364 249.339549,32.8025065 249.339549,32.6282476 C249.339549,32.4539886 249.503134,32.2061536 249.829599,31.8847427 C250.156064,31.5633317 250.347853,31.2829684 250.405672,31.0428783 C250.462786,30.8027881 250.491695,29.6069844 250.491695,27.4562416 C250.491695,25.3054988 250.472657,24.1205379 250.434582,23.9021334 C250.395801,23.6829543 250.329521,23.5195381 250.236446,23.4111103 C250.142667,23.303457 249.981197,23.2492431 249.750627,23.2492431" id="Fill-11" fill="#FFFFFF"></path>
                <path d="M271.685296,23.3994931 C271.685296,23.7526579 271.645187,23.9834542 271.565585,24.091882 C271.485367,24.1995353 271.363805,24.2537492 271.199665,24.2537492 L271.086125,24.1824967 L270.954073,24.0717454 L270.802891,23.9609942 C270.65603,23.8556643 270.373413,23.7108357 269.955659,23.525734 C269.537288,23.3414067 269.14792,23.2492431 268.786936,23.2492431 C268.425335,23.2492431 268.161848,23.4126593 267.995857,23.7394917 C267.829866,24.066324 267.747179,24.7385764 267.747179,25.7562487 C267.747179,26.0459058 267.818142,26.2782511 267.961301,26.4517355 C268.103843,26.6259945 268.301305,26.7127367 268.553685,26.7127367 C268.805448,26.7127367 269.083745,26.6019855 269.388575,26.380483 C269.692789,26.1589805 269.909379,26.0490037 270.037112,26.0490037 C270.165462,26.0490037 270.277768,26.1558826 270.374647,26.3688657 C270.47091,26.5826234 270.519041,26.8366542 270.519041,27.1325072 C270.519041,27.9279026 270.450547,28.4181511 270.31109,28.6032528 L270.141396,28.7217489 C269.893336,28.7217489 269.695874,28.6504964 269.549013,28.5079913 C269.22567,28.1974231 268.988717,28.0417517 268.837535,28.0417517 C268.358075,28.0417517 268.036583,28.1679927 267.873061,28.421249 C267.793459,28.54749 267.75335,28.9812012 267.75335,29.7223826 C267.75335,30.4627896 267.873061,31.0258396 268.112482,31.4107583 C268.238364,31.6159966 268.515427,31.719003 268.944288,31.719003 C269.372532,31.719003 269.91987,31.5354503 270.585684,31.1691192 C271.250882,30.8027881 271.632846,30.6200099 271.729108,30.6200099 C271.909908,30.6200099 272,30.832993 272,31.2597339 L272,31.5447441 C272,31.6926706 271.957422,31.8979089 271.874118,32.1612335 C271.78958,32.4253327 271.659996,32.6313455 271.483516,32.7784975 C271.307035,32.926424 271.017013,33 270.613452,33 L266.045927,33 C265.348642,33 265,32.8869253 265,32.6600014 L265,32.4067451 C265,32.2278392 265.128967,32.0481588 265.386901,31.869253 C265.645451,31.6903471 265.79725,31.4959516 265.841061,31.2883898 C265.88549,31.0800535 265.907087,29.8687601 265.907087,27.6537351 C265.907087,25.4394846 265.877468,24.1855946 265.818847,23.8897416 C265.760226,23.5946631 265.613364,23.3235936 265.377645,23.0749842 C265.142542,22.8271492 265.0253,22.5824122 265.0253,22.3399986 C265.0253,22.1657396 265.176481,22.0673801 265.478843,22.0433711 C265.781206,22.0193621 266.774683,22.0077448 268.459274,22.0077448 L270.097585,22 L270.361689,22 C270.785614,22 271.084274,22.0758995 271.257052,22.2292473 C271.542137,22.4817292 271.685296,22.8728438 271.685296,23.3994931" id="Fill-13" fill="#FFFFFF"></path>
                <path d="M292.862522,24.0980082 C292.862522,24.6177885 292.713896,24.8769231 292.41516,24.8769231 C292.283626,24.8769231 291.970027,24.676717 291.474362,24.2755495 C290.978697,23.8743819 290.566262,23.5956044 290.2378,23.4384615 C289.907852,23.2820742 289.531831,23.2035027 289.106762,23.2035027 L289.084469,23.2035027 C288.674263,23.2035027 288.281892,23.3138049 287.9081,23.5351648 C286.855834,24.1569368 286.3297,25.4941621 286.3297,27.5460852 C286.3297,28.1323489 286.421105,28.7035027 286.603171,29.2587912 C287.133763,30.8997253 288.151102,31.7194368 289.65296,31.7194368 L289.668566,31.7194368 C290.355957,31.7194368 291.069358,31.4572802 291.808026,30.932967 C292.283626,30.598283 292.556354,30.4313187 292.627694,30.4313187 C292.875898,30.4313187 293,30.5499313 293,30.7864011 L293,30.9790522 C293,31.0976648 292.881843,31.3371566 292.646272,31.696772 C292.411444,32.0563874 292.096359,32.3291209 291.701759,32.514217 C291.013624,32.8383242 290.20436,33 289.273966,33 L289.016101,33 C288.272232,33 287.589299,32.8617445 286.966559,32.5837225 C285.727768,32.0284341 284.867971,31.1105082 284.387169,29.8299451 C284.129304,29.1462225 284,28.4798764 284,27.8316621 L284,27.2914835 C284,26.6485577 284.124102,25.993544 284.371563,25.3249313 C284.882834,23.9408654 285.757493,22.9768544 286.997027,22.4313874 C287.649492,22.143544 288.295269,22 288.932128,22 L289.182561,22 C290.781026,22 291.838494,22.1541209 292.354223,22.4623626 C292.693089,22.6633242 292.862522,23.2087912 292.862522,24.0980082" id="Fill-15" fill="#FFFFFF"></path>
                <path d="M303.750627,23.2492431 C303.351536,23.2492431 302.931996,23.4498345 302.490599,23.8502429 C301.784785,24.4938393 301.412488,24.8152503 301.373707,24.8152503 C301.124099,24.8152503 301,24.6440893 301,24.3009927 L301,24.0562557 C301,23.4862353 301.043717,22.9727522 301.12974,22.5142576 C301.172751,22.2764909 301.270056,22.1339858 301.42095,22.0867422 C301.572548,22.0394987 303.015904,22.0154897 305.751724,22.0154897 L308.451583,22 L308.926825,22 C309.44508,22 309.753917,22.0921636 309.851927,22.2764909 C309.949937,22.4615926 310,22.8643244 310,23.4862353 L310,23.992748 C310,24.5511512 309.882247,24.83074 309.646741,24.83074 C309.440144,24.83074 309.190536,24.6487362 308.897916,24.2855031 C308.605296,23.9214955 308.33665,23.6597198 308.091977,23.4986271 C307.847305,23.3375343 307.525776,23.256988 307.12739,23.256988 C306.810091,23.256988 306.625353,23.4862353 306.572469,23.9455045 C306.553432,24.1034993 306.544265,25.2807153 306.544265,27.4763782 C306.544265,29.6720411 306.570354,30.8887559 306.623237,31.1257481 C306.675415,31.3627403 306.872846,31.6175456 307.213413,31.8893896 C307.55398,32.1604591 307.724616,32.3897064 307.724616,32.5771316 C307.724616,32.7645568 307.638593,32.8815039 307.465841,32.9287474 C307.292385,32.975991 306.733234,33 305.787684,33 L304.578424,33 C304.103181,33 303.778126,32.9814124 303.603259,32.9450116 C303.427687,32.9078364 303.339549,32.8025065 303.339549,32.6282476 C303.339549,32.4539886 303.503134,32.2061536 303.829599,31.8847427 C304.156064,31.5633317 304.347853,31.2829684 304.405672,31.0428783 C304.462786,30.8027881 304.491695,29.6069844 304.491695,27.4562416 C304.491695,25.3054988 304.472657,24.1205379 304.434582,23.9021334 C304.395801,23.6829543 304.329521,23.5195381 304.236446,23.4111103 C304.142667,23.303457 303.981197,23.2492431 303.750627,23.2492431" id="Fill-17" fill="#FFFFFF"></path>
                <path d="M321.630811,33 C320.941327,33 320.328373,32.8442424 319.793367,32.5319636 C318.780045,31.9394739 318.201105,30.9652252 318.056548,29.6084542 L318.035289,29.2893038 C318.02962,29.1801208 318.027494,28.9648088 318.027494,28.6418408 L318.048753,27.0751024 L318.048753,25.3289373 C318.048753,24.3722496 318.025368,23.8332061 317.977183,23.7110432 C317.928288,23.5888804 317.753968,23.440758 317.452806,23.2666759 C317.150935,23.0925939 317,22.8994239 317,22.6856389 L317,22.4359686 C317,22.259596 317.178571,22.1527035 317.535714,22.1168182 C318.259212,22.0389394 319.071995,22 319.974065,22 C320.553005,22 320.842829,22.1168182 320.842829,22.3504546 C320.842829,22.3611439 320.757086,22.5558409 320.584892,22.9353092 C320.414116,23.3147775 320.295777,23.724023 320.230584,24.1630457 C320.165391,24.6020684 320.132795,25.6572499 320.132795,27.3285903 C320.132795,28.9991671 320.25326,30.1001596 320.494898,30.630041 C320.8322,31.3737072 321.440193,31.7447768 322.318878,31.7447768 C323.196145,31.7447768 323.830357,31.3912681 324.221514,30.6842507 C324.505669,30.1696398 324.648101,28.9602277 324.648101,27.0552509 C324.648101,25.1502742 324.529762,23.9072673 324.293793,23.3247033 L324.19246,23.1300062 L324.069161,22.9505796 C323.924603,22.7062539 323.852324,22.5405706 323.852324,22.4520025 C323.852324,22.2542514 323.960743,22.1320886 324.177579,22.085514 C324.2697,22.064899 324.649518,22.0542098 325.317744,22.0542098 C325.985969,22.0542098 326.480584,22.1213993 326.804422,22.256542 C326.934099,22.3092247 327,22.4504755 327,22.6818213 C327,22.9131672 326.90788,23.1040466 326.724348,23.2552232 C326.343821,23.5667384 326.131944,23.7996113 326.08801,23.9530784 C326.044785,24.1057819 326.023526,24.8219615 326.023526,26.1000902 L326.03699,27.0277643 L326.044785,27.340043 C326.044785,28.587631 325.986678,29.5175956 325.871173,30.1307004 C325.75496,30.7445686 325.528203,31.2668147 325.190901,31.6982023 C324.495748,32.5663219 323.412982,33 321.941893,33 L321.630811,33 Z" id="Fill-19" fill="#FFFFFF"></path>
                <path d="M341.798458,23.0532327 L341.583541,23.0532327 C341.268647,23.0532327 341.077533,23.1020941 341.010202,23.1998167 C340.94355,23.2975393 340.909544,23.5519284 340.909544,23.9637594 L340.909544,26.8388211 C340.909544,27.0497779 340.948991,27.2002397 341.027885,27.2902066 C341.106779,27.3801734 341.280209,27.4243813 341.548175,27.4243813 L341.819542,27.4243813 L341.875312,27.4166255 L342.035139,27.4088698 C342.071866,27.4042163 342.106552,27.401114 342.139197,27.401114 C342.467694,27.401114 342.78803,27.2227314 343.100884,26.8667419 C343.413058,26.5099767 343.569485,26.0438553 343.569485,25.4683776 L343.569485,25.0883452 C343.569485,24.5182966 343.412378,24.0366636 343.097484,23.6434464 C342.782589,23.2502291 342.349354,23.0532327 341.798458,23.0532327 M341.472682,22 L341.944684,22 C343.130129,22 344.05577,22.2590425 344.722285,22.776352 C345.388801,23.2936614 345.722739,24.0227032 345.722739,24.9619262 C345.722739,25.4955228 345.624802,25.9624198 345.430968,26.3633928 C345.236454,26.7643658 345.03922,27.0683917 344.840626,27.2739195 C344.386307,27.7446944 344.159828,27.999859 344.159828,28.0425157 C344.159828,28.2379609 344.244842,28.4970035 344.413512,28.8180921 C344.582181,29.1407319 344.775334,29.5261933 344.992972,29.9744765 C345.21061,30.4235352 345.366357,30.7190298 345.458173,30.8617359 C345.698934,31.2309102 345.96078,31.487626 346.243029,31.6295565 C346.747676,31.8785165 347,32.0623281 347,32.1840936 C347,32.5222449 346.874858,32.7332017 346.625255,32.8177395 C346.268873,32.939505 345.851961,33 345.375198,33 C344.898436,33 344.514169,32.8293732 344.222399,32.4888952 C343.930628,32.1484171 343.592609,31.5233025 343.208343,30.6120003 C342.824076,29.7014736 342.576513,29.1671015 342.464974,29.0081083 C342.233734,28.6653035 341.930401,28.4939011 341.555656,28.4939011 C341.352301,28.4939011 341.214237,28.6086865 341.142825,28.8382571 C341.070732,29.0678277 341.034686,29.6394275 341.034686,30.5530565 C341.034686,30.7748713 341.133983,31.1231051 341.333258,31.5985335 L341.590342,32.1290277 C341.714804,32.3927237 341.778055,32.5408588 341.778055,32.5718818 C341.778055,32.8464359 341.400589,32.9837129 340.646339,32.9837129 C339.330991,32.9837129 338.561097,32.9472608 338.337338,32.8728055 C338.112219,32.7991257 338,32.6509906 338,32.4299514 C338,32.2081365 338.141465,31.9995065 338.423713,31.8040612 C338.705962,31.6086159 338.877352,31.3774942 338.937202,31.1114715 C338.997733,30.8446732 339.027658,29.6859621 339.027658,27.6345625 C339.027658,25.5831629 338.992972,24.3810195 338.9236,24.0273567 C338.853548,23.6736939 338.729766,23.3968131 338.548175,23.1959388 C338.224439,22.8368469 338.062571,22.6072763 338.062571,22.5064514 C338.062571,22.2954946 338.255724,22.1582176 338.642711,22.0946203 C339.029018,22.0317986 339.972342,22 341.472682,22" id="Fill-21" fill="#FFFFFF"></path>
                <g id="Group-25" transform="translate(356.000000, 22.000000)">
                    <mask id="mask-2" fill="white">
                        <use xlink:href="#path-1"></use>
                    </mask>
                    <g id="Clip-24"></g>
                    <path d="M8.259225,1.73594667 C8.259225,2.07034667 8.210475,2.28888 8.113725,2.39154667 C8.016225,2.49348 7.868475,2.54481333 7.668975,2.54481333 L7.531725,2.47734667 L7.370475,2.37248 L7.186725,2.26761333 C7.008225,2.16788 6.664725,2.03074667 6.156975,1.85548 C5.648475,1.68094667 5.175225,1.59368 4.736475,1.59368 C4.296975,1.59368 3.977475,1.74841333 3.774975,2.05788 C3.573225,2.36734667 3.472725,3.00388 3.472725,3.96748 C3.472725,4.24174667 3.558975,4.46174667 3.732975,4.62601333 C3.906225,4.79101333 4.146975,4.87314667 4.452975,4.87314667 C4.758975,4.87314667 5.097225,4.76828 5.467725,4.55854667 C5.837475,4.34881333 6.100725,4.24468 6.256725,4.24468 C6.411975,4.24468 6.548475,4.34588 6.666225,4.54754667 C6.783225,4.74994667 6.842475,4.99048 6.842475,5.27061333 C6.842475,6.02374667 6.758475,6.48794667 6.588975,6.66321333 L6.382725,6.77541333 C6.081225,6.77541333 5.841225,6.70794667 5.662725,6.57301333 C5.269725,6.27894667 4.981725,6.13154667 4.797975,6.13154667 C4.215975,6.13154667 3.824475,6.25108 3.625725,6.49088 C3.528975,6.61041333 3.480225,7.02108 3.480225,7.72288 C3.480225,8.42394667 3.625725,8.95708 3.916725,9.32154667 C4.070475,9.51588 4.407225,9.61341333 4.927725,9.61341333 C5.448225,9.61341333 6.113475,9.43961333 6.922725,9.09274667 C7.731975,8.74588 8.195475,8.57281333 8.312475,8.57281333 C8.532225,8.57281333 8.641725,8.77448 8.641725,9.17854667 L8.641725,9.44841333 C8.641725,9.58848 8.590725,9.78281333 8.488725,10.0321467 C8.385975,10.2822133 8.228475,10.47728 8.013975,10.6166133 C7.799475,10.75668 7.446975,10.8263467 6.957225,10.8263467 L1.404975,10.8263467 C0.557475,10.8263467 0.133725,10.71928 0.133725,10.5044133 L0.133725,10.2646133 C0.133725,10.0952133 0.290475,9.92508 0.604725,9.75568 C0.918975,9.58628 1.102725,9.40221333 1.155975,9.20568 C1.209975,9.00841333 1.236225,7.86148 1.236225,5.76414667 C1.236225,3.66754667 1.200975,2.48028 1.128975,2.20014667 C1.057725,1.92074667 0.879225,1.66408 0.593475,1.42868 C0.306975,1.19401333 0.164475,0.96228 0.164475,0.732746667 C0.164475,0.567746667 0.348225,0.474613333 0.715725,0.45188 C1.083225,0.429146667 2.290725,0.418146667 4.338225,0.418146667 L6.329475,0.410813333 L6.650475,0.410813333 C7.165725,0.410813333 7.528725,0.48268 7.738725,0.62788 C8.085225,0.866946667 8.259225,1.23728 8.259225,1.73594667" id="Fill-23" fill="#FFFFFF" mask="url(#mask-2)"></path>
                </g>
                <g id="Group-28" transform="translate(126.000000, 0.000000)">
                    <mask id="mask-4" fill="white">
                        <use xlink:href="#path-3"></use>
                    </mask>
                    <g id="Clip-27"></g>
                    <path d="M0.5113,48.9430894 C0.4078,48.9430894 0.3238,48.8146138 0.3238,48.6563135 L0.3238,0.925330285 C0.3238,0.76702998 0.4078,0.63855437 0.5113,0.63855437 C0.6148,0.63855437 0.6988,0.76702998 0.6988,0.925330285 L0.6988,48.6563135 C0.6988,48.8146138 0.6148,48.9430894 0.5113,48.9430894" id="Fill-26" fill="#FFFFFF" mask="url(#mask-4)"></path>
                </g>
                <path d="M4.07058185,26.5494676 C4.07058185,14.6388855 16,15.6595677 16,15.6595677 L16,11 C5.10433445,11.1534565 0,17.2468583 0,25.2226594 L0,43 L4.07058185,43 L4.07058185,26.5494676 Z" id="Fill-29" fill="#FFFFFF"></path>
                <path d="M49,26.9984531 C49,18.1650795 42.0624864,11 33.4996253,11 C24.9412604,11 18,18.1650795 18,26.9984531 C18,35.8364673 24.9412604,43 33.4996253,43 C42.0624864,43 49,35.8364673 49,26.9984531 M44.7751456,26.9265239 C44.7751456,33.3939672 39.6960284,38.6362933 33.4306848,38.6362933 C27.169088,38.6362933 22.0892214,33.3939672 22.0892214,26.9265239 C22.0892214,20.459854 27.169088,15.2175279 33.4306848,15.2175279 C39.6960284,15.2175279 44.7751456,20.459854 44.7751456,26.9265239" id="Fill-31" fill="#FFFFFF"></path>
                <path d="M75,3 L75,41.9691887 L79.3411162,41.9691887 L79.3411162,14.5218475 C79.3411162,14.5218475 91.8008969,13.4395017 91.8008969,25.3697964 L91.8008969,42 L96,42 L96,24.0417502 C96,16.0537223 90.5952805,9.94834397 79.3411162,9.79428745 L79.3411162,3" id="Fill-33" fill="#FFFFFF"></path>
                <polyline id="Fill-35" fill="#FFFFFF" points="55 3 55 42 58.691369 42 58.691369 15.0891619 65 14.9737258 65 10.0344849 58.691369 10.0344849 58.691369 3"></polyline>
            </g>
        </g>
    </g>
</svg>