<svg id="Capa_1" data-name="Capa 1" xmlns="http://www.w3.org/2000/svg" viewBox="0 0 541.43 315.37"><defs><style>.cls-1{fill:#1d1d1b;}</style></defs><title>ROTH-ARCHITECTURE 600x600</title><polygon class="cls-1" points="240.01 238.93 240.01 314.94 248.83 314.94 248.83 262.49 263.93 262.27 263.93 252.65 248.83 252.65 248.83 238.93 240.01 238.93"/><polygon class="cls-1" points="211.83 314.94 220.65 314.94 220.65 252.2 211.83 252.19 211.83 314.94"/><path class="cls-1" d="M39.25,399.18v9.1s21.09-1.68,24.58,16c0,0-36.82.32-36.82,37.36h8.54S35,433.16,64.31,433.16V461.7h8.54V427c0-15.6-10.7-27.5-33.6-27.8" transform="translate(-27.01 -146.71)"/><path class="cls-1" d="M186.15,398.89V385.64h-8.82v76h8.82V408.12S211.5,406,211.5,429.26V461.7H220v-35c0-15.58-11-27.49-33.89-27.79" transform="translate(-27.01 -146.71)"/><path class="cls-1" d="M88.23,426.84v34.81h8.54V429.43c0-23.31,25-21.31,25-21.31V399c-22.87.3-33.58,12.23-33.58,27.85" transform="translate(-27.01 -146.71)"/><path class="cls-1" d="M127.9,431.51c0,32.32,34.31,30.56,34.31,30.56v-8.13s-25.08,1.35-25.08-22.43,25.08-23.31,25.08-23.31v-9.52s-34.31.51-34.31,32.83" transform="translate(-27.01 -146.71)"/><path class="cls-1" d="M100.55,244c0-51.8,56.4-47.36,56.4-47.36V176.36c-51.51.66-75.64,27.17-75.64,61.85v77.32h19.24Z" transform="translate(-27.01 -146.71)"/><path class="cls-1" d="M286.47,245.33a51.81,51.81,0,1,1-51.82-51.81,51.82,51.82,0,0,1,51.82,51.81m19.29.32A70.8,70.8,0,1,0,235,316.46a70.79,70.79,0,0,0,70.79-70.81" transform="translate(-27.01 -146.71)"/><path class="cls-1" d="M435.82,146.71v29.43c51.53.67,76.28,27.12,76.28,61.72v77.8H492.87v-72c0-51.69-57.05-47-57.05-47V315.53H415.94V146.71Z" transform="translate(-27.01 -146.71)"/><path class="cls-1" d="M488.67,426.84v34.81h8.54V429.43c0-23.31,25.05-21.31,25.05-21.31V399c-22.88.3-33.59,12.23-33.59,27.85" transform="translate(-27.01 -146.71)"/><path class="cls-1" d="M475,398.91l-8.82,0v36.83s.79,17.42-12.4,17.42S441,435.72,441,435.72V398.91l-8.83,0v38.28S431.64,462,453.78,462,475,437.17,475,437.17Z" transform="translate(-27.01 -146.71)"/><polygon class="cls-1" points="369.84 238.93 369.84 314.94 378.66 314.94 378.66 262.49 393.75 262.27 393.75 252.65 378.66 252.65 378.66 238.93 369.84 238.93"/><path class="cls-1" d="M347.29,431.51c0,32.32,34.28,30.56,34.28,30.56v-8.13s-25.06,1.35-25.06-22.43,25.06-23.31,25.06-23.31v-9.52s-34.28.51-34.28,32.83" transform="translate(-27.01 -146.71)"/><polygon class="cls-1" points="305.6 0 305.6 168.82 325.48 168.82 325.48 52.33 359.45 51.83 359.45 30.45 325.48 30.45 325.48 0 305.6 0"/><path class="cls-1" d="M330.51,408.4C322.77,424.61,309.25,425,309.25,425c3.72-17,21.26-16.63,21.26-16.63m10-9.51s-41-2.6-41,32.56c0,31.95,31.89,30.57,31.89,30.57v-8s-21,.87-22.68-19.91c15-1.8,31.8-13.37,31.8-35.19" transform="translate(-27.01 -146.71)"/><path class="cls-1" d="M558.46,408.4C550.73,424.61,537.2,425,537.2,425c3.72-17,21.26-16.63,21.26-16.63m10-9.51s-41-2.6-41,32.56c0,31.95,31.89,30.57,31.89,30.57v-8s-21,.87-22.68-19.91c15-1.8,31.8-13.37,31.8-35.19" transform="translate(-27.01 -146.71)"/></svg>