<?xml version="1.0" encoding="UTF-8"?><svg id="Layer_1" xmlns="http://www.w3.org/2000/svg" viewBox="0 0 50 50"><defs><style>.cls-1{fill:#010101;}</style></defs><path class="cls-1" d="M9.31,14.21c-.83-.83-1.25-1.82-1.25-2.97s.42-2.14,1.25-2.97c.83-.83,1.82-1.25,2.97-1.25s2.14,.42,2.97,1.25c.83,.83,1.25,1.82,1.25,2.97s-.42,2.13-1.25,2.97c-.83,.83-1.82,1.25-2.97,1.25s-2.14-.42-2.97-1.25Zm-.7,27.81V18.67h7.27v23.36h-7.27Zm27.19,0v-11.41c0-1.88-.16-3.23-.47-4.06-.57-1.41-1.69-2.11-3.36-2.11s-2.84,.62-3.52,1.88c-.52,.94-.78,2.32-.78,4.14v11.56h-7.19V18.67h6.95v3.2h.08c.52-1.04,1.35-1.9,2.5-2.58,1.25-.83,2.71-1.25,4.38-1.25,3.39,0,5.76,1.07,7.11,3.2,1.04,1.72,1.56,4.38,1.56,7.97v12.81h-7.27Z"/></svg>