<?xml version="1.0" encoding="UTF-8"?><svg id="Layer_1" xmlns="http://www.w3.org/2000/svg" viewBox="0 0 50 50"><defs><style>.cls-1{fill:#fff;}</style></defs><path class="cls-1" d="M41.83,18.71c0,3.75-.91,7.37-2.73,10.86-1.88,3.7-4.51,6.64-7.89,8.83-3.7,2.45-7.94,3.67-12.73,3.67s-8.78-1.22-12.58-3.67c.57,.05,1.22,.08,1.95,.08,3.8,0,7.21-1.17,10.23-3.52-1.82,0-3.42-.53-4.8-1.6-1.38-1.07-2.33-2.41-2.85-4.02,.52,.05,1.02,.08,1.48,.08,.73,0,1.46-.08,2.19-.23-1.88-.42-3.44-1.38-4.69-2.89s-1.88-3.23-1.88-5.16v-.16c1.15,.68,2.37,1.04,3.67,1.09-1.09-.78-1.98-1.77-2.66-2.97-.68-1.2-1.02-2.51-1.02-3.95s.39-2.8,1.17-4.1c2.03,2.55,4.52,4.58,7.46,6.09,2.94,1.51,6.08,2.34,9.41,2.5-.1-.62-.16-1.25-.16-1.88,0-1.46,.36-2.83,1.09-4.1,.73-1.28,1.72-2.28,2.97-3.01s2.6-1.09,4.06-1.09c1.2,0,2.3,.23,3.32,.7s1.91,1.09,2.7,1.88c1.88-.36,3.62-1.02,5.23-1.95-.62,1.93-1.82,3.44-3.59,4.53,1.56-.21,3.12-.65,4.69-1.33-1.15,1.67-2.53,3.1-4.14,4.3,.05,.21,.08,.55,.08,1.02Z"/></svg>