<?xml version="1.0" encoding="UTF-8"?><svg id="Layer_2" xmlns="http://www.w3.org/2000/svg" xmlns:xlink="http://www.w3.org/1999/xlink" viewBox="0 0 48.42 48.42"><defs><style>.cls-1{fill:none;}.cls-2{clip-path:url(#clippath);}</style><clipPath id="clippath"><rect class="cls-1" width="48.42" height="48.42"/></clipPath></defs><g id="Layer_1-2"><g id="Grupo_2"><g class="cls-2"><g id="Grupo_1"><path id="Trazado_1" d="M24.21,48.42C10.84,48.42,0,37.58,0,24.21S10.84,0,24.21,0s24.21,10.84,24.21,24.21h0c-.01,13.36-10.84,24.2-24.21,24.21m0-46.26C12.03,2.16,2.16,12.03,2.16,24.21s9.87,22.05,22.05,22.05,22.05-9.87,22.05-22.05h0c-.01-12.17-9.88-22.03-22.05-22.05"/><path id="Trazado_2" d="M29.82,11.74h-11.22c-3.81,0-6.89,3.07-6.9,6.88,0,0,0,0,0,.01v11.22c0,3.81,3.08,6.89,6.89,6.89h11.23c3.81,0,6.89-3.08,6.89-6.89h0v-11.23c0-3.81-3.09-6.89-6.89-6.89m4.87,18.09c0,2.7-2.2,4.9-4.9,4.9h-11.17c-2.7,0-4.9-2.2-4.9-4.9v-11.17c0-2.7,2.2-4.9,4.9-4.9h11.17c2.7,0,4.9,2.2,4.9,4.9v11.17h0Z"/><path id="Trazado_3" d="M24.21,17.65c-3.64,0-6.59,2.95-6.59,6.59s2.95,6.59,6.59,6.59,6.59-2.95,6.59-6.59c0-3.64-2.95-6.59-6.59-6.59m0,10.89c-2.37,0-4.3-1.93-4.3-4.3s1.93-4.3,4.3-4.3,4.3,1.93,4.3,4.3h0c0,2.37-1.93,4.3-4.3,4.3"/><path id="Trazado_4" d="M32.5,17.43c0,.82-.66,1.48-1.48,1.48s-1.48-.66-1.48-1.48c0-.82,.66-1.48,1.48-1.48,.82,0,1.48,.66,1.48,1.48h0"/></g></g></g></g></svg>