<?xml version="1.0" encoding="UTF-8"?><svg id="Layer_2" xmlns="http://www.w3.org/2000/svg" viewBox="0 0 28 19.02"><defs><style>.cls-1{fill:#a58e20;}</style></defs><g id="Layer_1-2"><path id="_" class="cls-1" d="M4.48,17.79l.68,1.23c2.33-.91,4.34-2.48,5.77-4.53,1.87-2.8,2.42-6.28,1.51-9.52-.24-.91-.64-1.78-1.18-2.55C10.05,.76,8.07-.14,6.03,.02,4.45-.04,2.92,.48,1.71,1.49,.59,2.43-.04,3.83,0,5.29c-.08,1.47,.52,2.89,1.61,3.87,1.18,.97,2.67,1.47,4.19,1.4,1.58,.05,3.12-.54,4.27-1.63,.13,.41,.19,.84,.18,1.27,0,.54-.07,1.07-.18,1.6-.29,1.31-.95,2.52-1.9,3.47-1.02,1.11-2.29,1.98-3.69,2.53h0Zm15.13,0l.68,1.23c2.33-.91,4.34-2.49,5.77-4.53,1.87-2.8,2.42-6.28,1.51-9.52-.24-.91-.64-1.78-1.18-2.55C25.18,.76,23.2-.14,21.15,.02c-1.57-.06-3.11,.46-4.32,1.47-1.12,.94-1.74,2.34-1.7,3.8-.08,1.47,.52,2.89,1.61,3.87,1.18,.97,2.67,1.47,4.19,1.4,1.58,.05,3.12-.54,4.27-1.63,.13,.41,.19,.84,.18,1.27,0,.54-.07,1.07-.18,1.6-.29,1.31-.95,2.52-1.9,3.47-1.02,1.11-2.29,1.98-3.69,2.53h0Z"/></g></svg>