<?xml version="1.0" encoding="UTF-8"?><svg id="Layer_2" xmlns="http://www.w3.org/2000/svg" viewBox="0 0 493.87 446.58"><defs><style>.cls-1{fill:#fff;}</style></defs><g id="Layer_1-2"><g><path class="cls-1" d="M362.49,213.32c-1.16,.64-2.11,1.89-3.05,2.79-1.13,1.06-2.25,2.13-3.38,3.19-2.61,2.47-5.22,4.93-7.83,7.4-.03,.02-.05,.04-.07,.06-.09,.09-.1,.17-.05,.22,.5,1.95,2.74,1.67,4.35,1.67,3.43,0,6.89,.1,10.32-.04,1.57-.06,3.93,.03,4.93-1.47,1.21-1.82-.11-5.04-.32-6.95-.24-2.19-.89-9.1-4.9-6.87h0Zm4.83,12.89c-.39,.89-1.99,1.58-2.89,1.76-.5,.1-1.06,.08-1.57,.1-2.24,.09-4.5,.03-6.74,.04-1.74,0-6.51,.79-7.2-1.23,3.06-2.9,6.13-5.79,9.19-8.69l2.25-2.13c.38-.35,.75-.71,1.13-1.06,.78-.74,.77-.79,2.01-.91,1.14-.11,1.31-.18,1.92,.69,.26,.37,.44,.82,.58,1.25,.24,.74,.34,1.52,.43,2.28,.19,1.77,.36,3.52,.69,5.28,.14,.74,.51,1.91,.2,2.62h0Z"/><path class="cls-1" d="M367.91,203.25c-1.31,0-2.43,.53-3.68,.78-.19-.15-.7-.02-.7,.23v.02c-.09,.11-.11,.24,0,.3-.01,1.63-.02,3.26-.03,4.88,0,.91-.11,1.85,.69,2.44,1.55,1.15,2.82,.52,3.54-.99,.71-1.52,1.45-3.03,2.11-4.57,.27-.63,.93-1.83,.55-2.5-.37-.63-1.9-.59-2.48-.59h0Zm1.62,1.89c-.07,.47-.34,.95-.53,1.38-.38,.87-.79,1.72-1.19,2.58-.29,.63-.59,1.87-1.08,2.34-1.19,1.14-2.41-.25-2.46-1.41-.07-1.84,.01-3.7,.03-5.54,1.5-.36,3.12-1.2,4.61-.61,.62,.26,.72,.53,.62,1.26Z"/><path class="cls-1" d="M403.51,194.46c.61-.24,.54-.92,.66-1.47,.19-.97,.53-1.89,.98-2.77,.06-.11-.14-.14-.35-.1,.12-.13,.23-.27,.34-.41,.2-.26-.57-.19-.72,0-.52,.67-1.11,1.26-1.82,1.72-.56,.37-1.22,.56-1.77,.93-.07,.05-.16,.11-.15,.21,.06,.62,1.24,1.23,1.71,1.58,.38,.28,.66,.49,1.12,.31h0Zm-2.03-2.01c.61-.37,1.31-.6,1.9-1.03,.28-.2,.54-.43,.79-.66-.39,.84-.68,1.72-.83,2.64-.01,.03-.03,.54,.01,.64-.11-.07-.58-.45-.62-.48-.29-.23-1.1-.7-1.25-1.11h0Z"/><path class="cls-1" d="M392.78,318.83c.52-.43,.57-1.74,.61-2.33,.08-1.33-.1-2.75-.62-3.99-.89-2.11-2.85-2.86-5.02-2.76-.24-.01-.68,.2-.64,.26,1.88,2.4,3.41,4.66,3.92,7.71,.14,.84,.76,1.92,1.75,1.11Zm-4.7-8.77c1.95,.12,3.43,1.19,4.08,3.13,.25,.75,.4,1.54,.45,2.33,.04,.56-.01,3.22-.52,2.7-.46-.47-.37-1.47-.54-2.13-.2-.75-.49-1.46-.84-2.15-.72-1.39-1.66-2.64-2.63-3.88Z"/><path class="cls-1" d="M383,299.58c-.58-.31-1.27,.29-1.69,.6-1,.74-1.96,1.51-2.82,2.41-.07,.07-.08,.12-.07,.17-.05,.09-.01,.17,.21,.17,2.3,.07,3.81,.93,5.26,2.69,.17,.2,.68,.02,.74-.2,.37-1.16-.28-2.37-.64-3.46-.2-.6-.37-2.05-.99-2.38h0Zm-3.64,2.92c.46-.46,.94-.9,1.45-1.31,.35-.28,.75-.68,1.15-.88,.54-.27,.49-.24,.75,.31,.34,.71,.52,1.57,.77,2.32,.18,.54,.4,1.08,.46,1.63-1.28-1.28-2.71-1.94-4.58-2.07Z"/><path class="cls-1" d="M351.05,311.35c-1.02,.18-1.95,.85-2.82,1.39-1.19,.73-2.41,2.31-3.7,2.75-.17,.04-.32,.13-.33,.25-.21,1.93,.07,3.73,.87,5.5,.1,.23,.57,.12,.7-.03,1.42-1.64,1.86-3.58,2.94-5.41,.53-.9,3.08-3.32,2.67-4.33-.05-.12-.22-.14-.33-.12h0Zm-.97,1.47c-.71,1.32-1.85,2.38-2.53,3.74-.66,1.34-1.1,2.7-1.95,3.91-.6-1.52-.81-3.04-.64-4.7,.71-.32,1.16-.82,1.79-1.37,.77-.67,1.63-1.22,2.51-1.74,.7-.4,1.44-.99,.82,.16Z"/><path class="cls-1" d="M383.11,368.07c.58-.93,.81-2.1,1.06-3.16,.32-1.39,.76-2.81,1.03-4.21,.24-1.23-.15-2.38-.38-3.59-.12-.63-.06-1.39-.8-1.61-1.13-.34-2.66,1.36-3.44,1.97-2.31,1.83-4.43,3.9-6.63,5.87-1.33,1.19-2.66,1.99-4.3,2.69-.97,.41-1.84,.86-2.65,1.56-.1,.09-.1,.15-.05,.18-.68,1.5,2.5,.94,3.03,.85,1.5-.25,2.94-.82,4.44-1.05,2.31-.36,3.98,.29,6.06,1.16,1.19,.49,1.9,.52,2.63-.66h0Zm-1.24-.13c-1.09,.59-1.51-.05-2.63-.43-1.42-.47-2.91-.6-4.39-.41-.8,.1-1.58,.3-2.36,.5-.37,.1-5.29,1.21-4.77,.07,.01-.02,0-.03,0-.04,1.47-1.21,3.39-1.56,4.96-2.62,1.31-.88,2.44-2.06,3.61-3.12,1.52-1.38,3.03-2.79,4.63-4.08,.75-.6,2.36-2.46,3.02-1.21,.31,.59,.46,2.09,.52,2.73,.18,1.82-.66,3.9-1.07,5.67-.28,1.25-.37,2.32-1.52,2.94h0Z"/><path class="cls-1" d="M351.17,374.62c-.97-.02-2.36-.06-2.78,1.03-.01,.04,.01,.06,.04,.08-.22,.72-.83,2.12,.48,1.73,.5-.15,.92-.55,1.33-.86,.68-.54,1.4-.74,2.14-1.13,.2-.1,.53-.31,.39-.58-.2-.39-1.23-.26-1.6-.27h0Zm-.53,1.21c-.46,.25-.85,.7-1.31,.93-.07,.05-.13,.1-.2,.16-.3,.03-.37-.08-.2-.32-.01-.3,.22-.76,.3-1.04,.01-.03,0-.06-.02-.08,.28-.57,1-.47,1.51-.46,.11,0,1.08-.03,1.12,.05,.12,.32-.99,.65-1.2,.76h0Z"/><path class="cls-1" d="M260.81,376.18c-1.48-.09-2.92,.1-4.41-.16-1.3-.23-2.5-.73-3.83-.8-.15-.01-.37,.1-.47,.21-.12,.07-.19,.16-.12,.24,.53,.56,1.96,1.55,1.97,2.41,0,1.23-1.15,1.81-1.77,2.66-.07,.1,0,.19,.12,.2,.91,.1,1.7,.04,2.6-.14,1.55-.31,2.92-.52,4.46-.11,.42,.11,.81,.28,1.25,.3,1.29,.05,1.67-.71,2.05-1.84,.28-.82,.72-1.87-.01-2.51-.4-.37-1.35-.43-1.84-.46h0Zm.07,3.76c-1.17,.49-1.69-.02-2.9-.04-.76-.02-1.45,.23-2.19,.31-.49,.21-.98,.21-1.47,0-.93,.03-1.06-.12-.4-.46,.11-.26,.56-.48,.71-.78,.63-1.3-.65-2.4-1.56-3.26,1.07,.19,2.11,.58,3.19,.74,1.03,.16,2.03,.15,3.07,.14,1.2-.01,2.67-.31,2.84,1.68,.08,.94-.55,1.36-1.29,1.67Z"/><path class="cls-1" d="M274.63,385.86c2.25-.06,4.38-4.37,3.77-6.25-.46-1.44-2.42-2.08-3.62-2.71-2.22-1.16-4.45-2.3-6.66-3.47-.08-.04-.16-.04-.25-.03-.04,.01-.09,.03-.13,.05t-.02,.01c-.96,.55-3.58,1.41-3.93,2.54-.37,1.21,1.85,2.7,2.62,3.16,1.89,1.12,4.04,1.74,5.19,3.76,.72,1.24,1.29,2.98,3.03,2.94h0Zm-6.08-6.38c-.98-.5-2.77-1.17-3.34-2.23-.87-1.6,1.37-2.5,2.65-3.19,2.26,1.19,4.54,2.35,6.8,3.54,.59,.31,1.81,.7,2.22,1.25,.62,.83,.62,2.51,.25,3.43-.22,.56-.5,1.45-.95,1.87-2.31,2.18-3.01,.09-3.6-1.05-.95-1.83-2.23-2.69-4.03-3.62h0Z"/><path class="cls-1" d="M264.56,379.47c-.26-.2-.82,.11-.67,.38,0,.01-.01,.01-.01,.02-.09,.65-.72,1.74-.46,2.39,.23,.57,1.76,1.05,2.25,1.3,1.27,.66,2.09,1.38,3.15,2.3,.38,.33,.72,.65,1.26,.53,1.78-.37,.49-2.59-.18-3.33-1.47-1.59-3.63-2.3-5.34-3.59Zm5.24,5.56c-.15,1.09-.29,.41-.79-.08-.79-.78-1.74-1.33-2.72-1.84-.47-.24-1.9-.7-2.04-1.19-.08-.27,.14-1.02,.3-1.58,1.02,.68,2.13,1.21,3.15,1.88,.64,.42,1.26,.9,1.75,1.5,.39,.48,.44,.63,.35,1.31h0Z"/><path class="cls-1" d="M279.4,385.89c-.7-.23-1.38-.16-2.04,.14-1.05,.47-1.9,.89-3.14,.57-.69-.18-1.29-.52-2.01-.65-.19-.04-.75,.23-.59,.35-.13,1.27,.09,1.88,.78,2.92,.46,.68,.23,1.37,1.05,1.51,.28,.05,.66-.15,.91-.23,1.53-.5,2.99-1.13,4.65-.88,.73,.11,2,.72,2.72,.1,1.32-1.14-1.31-3.49-2.33-3.83h0Zm1.08,3.53c-.8,.11-1.87-.33-2.73-.3-.66,.02-1.29,.13-1.92,.31-.49,.14-.96,.35-1.45,.5-1.14,.35-.62,.17-.91-.54-.18-.45-.78-.84-.97-1.25-.24-.5-.21-1.09-.15-1.65,1.19,.38,2.33,1.08,3.61,.71,.28-.08,.5-.24,.76-.34,.86-.33,2.12-.57,3.05-.05,.89,.51,2.24,2.41,.71,2.61h0Z"/><path class="cls-1" d="M289.49,385.19c-2.49-2.33-6.13-4.09-9.38-5.02-.15-.09-.74,.03-.74,.26,.01,1.26-.26,3.09,.36,4.21,.73,1.34,2.48,2.61,3.54,3.71,1.19,1.22,2.99,1.99,4.74,1.26,.8-.33,1.38-1.19,1.74-1.95,.48-1.01,.58-1.69-.26-2.47h0Zm-1.95,3.84c-2.7,.99-4.35-1.79-6.01-3.52-.69-.71-1.18-1.15-1.31-2.13-.11-.86-.09-1.79-.08-2.68,1.98,.63,3.82,1.52,5.57,2.67,.99,.65,2.17,1.31,3.06,2.1,1.28,1.14,.11,3.07-1.23,3.56h0Z"/><path class="cls-1" d="M253.57,317.19c-1.2-.83-2.92-.38-4.24-.25-2.84,.29-5.72,.15-8.53-.31-1.21-.2-2.4-.46-3.58-.79-.39-.11-.76-.28-1.14-.34h0c-.1-.07-.3-.06-.47,0-.02,0-.04,0-.06,.01-.11,.02-.44,.18-.31,.35,.03,.04,.06,.08,.09,.11h0c-.07,.92-.2,1.8-.42,2.7,0,.06,.03,.12,.08,.14,2.18,.8,4.49,.36,6.74,.8,2.59,.51,5,1.73,7.18,3.17,1.03,.68,2.56,2.4,3.96,2.21,1.53-.21,1.54-2.04,1.63-3.24,.13-1.43,.41-3.62-.93-4.56h0Zm.1,5.33c-.16,1.29-.52,2.15-1.98,1.42-.64-.32-1.28-.93-1.88-1.34-1.57-1.06-3.23-1.99-5-2.66-1.29-.48-2.62-.82-3.99-.95-1.09-.11-2.28,.08-3.36-.14-1.83-.38-1.48-1.48-1.35-2.9,.61,.14,1.48,.56,1.91,.66,.98,.23,1.98,.42,2.97,.57,1.6,.23,3.21,.36,4.83,.37,1.63,.01,3.22-.19,4.84-.33,3.44-.3,3.33,2.73,3.01,5.3Z"/><path class="cls-1" d="M270.5,333.7c1.33-.91,1.15-4.05,1.16-5.39,.02-2.31-.5-4.01-2.1-5.72-1.45-1.55-3.23-2.78-5.19-3.6-2.59-1.08-5.65-.89-8.01-2.48-.01-.01-.02-.01-.03-.01,0,0-.01,0-.01-.01-.03-.01-.05-.02-.08-.02-.21-.04-.51,.06-.56,.24-.02,.04-.03,.08-.02,.12-.01,1.53-.02,3.06-.03,4.58-.01,.88-.4,2.69,.03,3.47,.3,.55,1.2,.93,1.69,1.23,1.01,.63,2.05,1.22,3.1,1.8,2.26,1.26,4.56,2.49,6.64,4.04,.89,.66,2.13,2.62,3.41,1.75h0Zm-2.05-1.58c-.75-.61-1.54-1.17-2.35-1.7-1.54-1-3.16-1.89-4.77-2.78-1.72-.96-4.41-1.9-4.93-3.97-.23-.9,.01-2.17,.02-3.1,.01-1.07,.01-2.15,.02-3.22,1.07,.56,2.2,.84,3.41,1.06,2.27,.41,4.34,1.01,6.29,2.26,1.75,1.13,3.64,2.79,4.4,4.79,.55,1.45,.77,5.53-.15,6.96-.39,.61-.34,.79-1.18,.35-.25-.14-.52-.46-.76-.65Z"/><path class="cls-1" d="M204.33,351.03c-1.14-.52-2.33-.86-3.57-1.05-.1-.02-.21,.01-.3,.07-.2,.05-.38,.19-.32,.37,.33,1.03,.99,2.42,2,2.95,.34,.18,.73,.12,1.01-.14,.51-.48,.88-1.24,1.27-1.82,.12-.15,.09-.3-.09-.38h0Zm-1.26,1.18c-.05,.07-.35,.6-.43,.62-.15,.04-.39-.33-.48-.43-.47-.52-.82-1.11-1.08-1.75,.86,.17,1.7,.43,2.51,.78-.16,.27-.34,.52-.52,.78Z"/><path class="cls-1" d="M192.48,340.1c-.73-.85-1.02-1.93-1.76-2.76-.14-.16-.74-.04-.74,.2,0,2.13,0,4.26,0,6.39,0,.26,.48,.21,.68,.05,.81,.02,1.98,.15,2.6-.2,.45-.26,.33-.5,.21-1.01-.22-.94-.35-1.93-.98-2.67h0Zm-1.74,3.42v-4.69c.25,.5,.49,1.01,.87,1.44,.45,.52,.64,.97,.8,1.62,.09,.37,.42,1.1,.38,1.56-.64,.11-1.4,.05-2.05,.07Z"/><path class="cls-1" d="M145.43,348.15c-.71-.34-1.51,.17-2.1,.51-.87,.5-1.66,1.05-2.26,1.85-.11,.07-.19,.17-.18,.27-.06,.18,.1,.29,.29,.31,1.49,1.2,3.01,2.34,4.57,3.43,.24,.16,.62,.02,.69-.25,.3-1.14,0-2.38-.13-3.53-.09-.8,0-2.18-.88-2.59Zm-.05,1.43c.19,.68,.18,1.47,.26,2.17,.08,.65,.18,1.27,.13,1.9-1.35-.96-2.68-1.95-3.97-2.99,.85-1.03,3.08-2.89,3.58-1.08h0Z"/><path class="cls-1" d="M149.1,364.21c.65,.21,1.44-.07,2.1-.17,1.09-.17,2.18-.23,3.28-.17,.14,.01,.73-.18,.5-.41-.42-.42-.87-.78-1.4-1.06-.58-.3-1.16-.47-1.61-.98-.14-.16-.53-.07-.69,.09l-.02,.02-.02,.02h0c-.46,.69-1.1,1.15-1.7,1.69-.27,.24-.61,.45-.6,.84,0,.07,.12,.11,.16,.13h0Zm.96-.69c.16-.24,.5-.42,.71-.61,.31-.26,.59-.53,.84-.83,.64,.52,1.44,.8,2.14,1.28-1.12,.02-2.21,.17-3.33,.34-.37,.05-.62,.21-.36-.18h0Z"/><path class="cls-1" d="M137.73,372.14c.3-.03,.5-.18,.64-.44,.33-.63,.55-1.25,.98-1.84,.17-.23,.84-.77,.79-1.05-.04-.27-.51-.18-.7-.15-1,.16-1.84,.71-2.64,1.3-.26,.02-.62,.2-.5,.33,.51,.56,.37,1.97,1.43,1.85h0Zm1.59-3.09s-.38,.45-.42,.5c-.28,.35-.54,.72-.76,1.11-.11,.19-.21,.38-.3,.57-.04,.09-.08,.22-.12,.35-.16-.21-.23-.52-.29-.74-.07-.23-.14-.43-.26-.62,.41-.31,.83-.63,1.29-.88,.12-.06,.79-.4,.86-.29h0Z"/><path class="cls-1" d="M136.44,383.73c.62,.6,1.25,1.2,1.87,1.8,.45,.44,.71,.72,1.31,.76,.86,.06,2.37,.29,3.11-.29,.05-.04,.13-.1,.06-.16-1.6-1.62-3.77-2.41-5.56-3.77-.15-.11-.69,.01-.74,.2-.13,.46-.26,.91-.39,1.37,0,.1,.15,.12,.34,.09h0Zm4.95,2.22c-.57,.07-1.42,.04-1.89-.24-.88-.51-1.69-1.63-2.43-2.34-.03-.03-.08-.04-.13-.04,.05-.19,.11-.38,.16-.57,1.36,.91,2.88,1.58,4.16,2.61,.47,.38,.89,.49,.13,.58h0Z"/><path class="cls-1" d="M119.28,311.08c.7-.61,1.58-.95,2.21-1.64,.16-.18,.01-.37-.19-.4-1.18-.17-2.36-.22-3.54-.19-.19-.16-.64-.05-.69,.2-.05,.08-.06,.17-.02,.24-.05,1.24-.23,2.46-.55,3.67-.09,.34,.51,.25,.65,.15,.79-.59,1.38-1.38,2.13-2.03Zm-1.8,.91c.18-.85,.28-1.71,.33-2.58,.89-.02,1.78,.02,2.67,.13-.6,.5-1.34,.83-1.92,1.37-.37,.35-.71,.72-1.08,1.08Z"/><path class="cls-1" d="M85.49,292c-.49-.12-.97-.28-1.47-.37h-.01c-.08-.02-.18-.02-.28,.01h-.01s-.08,.02-.12,.04c-.01,0-.02,.01-.03,.01-.1,.05-.17,.12-.18,.2-.02,.46,0,.92,.07,1.38,.05,.35,.09,.92,.34,1.2,.41,.48,1.27,.11,1.65-.21,.28-.24,.47-.54,.6-.88,.1-.26,.33-.76,.24-1.04-.1-.29-.54-.28-.8-.34h0Zm-.01,.82c-.04,.26-.15,.55-.26,.78-.1,.19-.23,.43-.43,.53-.34,.17-.37-.25-.43-.51-.11-.47-.17-.94-.18-1.41,.28,.07,.56,.16,.85,.23,.31,.08,.5,.02,.45,.38Z"/><path class="cls-1" d="M67.65,129.49c.08,.25,.65,.04,.74-.1,1.2-1.71,2.39-3.43,3.59-5.14,.51-.72,1.43-1.71,.03-1.77-.06,0-.12,0-.19,.04-.04,0-.08,0-.11,.03-.9,.31-1.77,.69-2.62,1.13-.69,.36-1.67,.75-2.22,1.33-.43,.45-.42,.77-.28,1.38,.26,1.04,.71,2.08,1.06,3.1h0Zm.31-4.72c1.01-.86,2.54-1.42,3.81-1.86,.34,.19-.87,1.87-.93,1.96-.34,.48-.67,.96-1.01,1.44-.54,.78-1.09,1.56-1.63,2.33-.15-.45-.31-.9-.46-1.35-.33-.99-.83-1.64,.22-2.52Z"/><path class="cls-1" d="M60.36,133.43c1.43,1.4,2.8,3.17,4.74,3.84,.13,.05,.67-.04,.7-.22,.28-1.6,.75-3.27,.8-4.89,.06-1.95-.85-3.8-1.55-5.57-.01-.03-.03-.04-.07-.05-.01,0-.04,0-.07,0-.11,0-.27,.02-.4,.08-1.25,.3-2.33,.84-3.49,1.42-.59,.29-3.44,1.2-3.65,2.03-.25,.98,2.37,2.76,2.99,3.37h0Zm-.2-4.64c1.33-.67,2.71-1.5,4.16-1.88,.59,1.48,1.4,3.11,1.5,4.72,.11,1.65-.38,3.43-.7,5.08-2.08-1.01-3.8-3.31-5.38-4.86-.26-.25-1.29-1.03-1.35-1.32-.14-.75,1.28-1.5,1.77-1.74h0Z"/><path class="cls-1" d="M52.94,138.39c.99,.25,2.11-.12,3.09-.28,1.98-.32,3.94-.6,5.95-.4,.15,0,.77-.08,.6-.35-.67-1.05-1.77-1.64-2.72-2.41-1.01-.84-1.94-1.75-2.81-2.73,0-.06-.04-.09-.11-.11-.19-.16-.87,.1-.7,.3-1.14,1.93-2.27,3.85-3.41,5.78-.07,.11,0,.17,.11,.2Zm1.82-2.27c.64-1.08,1.27-2.16,1.91-3.24,.77,.84,1.59,1.63,2.47,2.35,.81,.66,1.74,1.2,2.41,2-2.04-.08-4.02,.24-6.06,.56-.5,.08-1.46,.44-1.61,.02-.14-.4,.67-1.32,.88-1.69Z"/><path class="cls-1" d="M261.72,273.28c-.67-3.58-5.38-5.15-8.6-4.95-4.33,.28-7.37,4.52-10.19,7.34-.09,.09-.09,.15-.05,.2,0,.07,.05,.11,.22,.11,2.74-.1,5.54-.27,8.25,.22,1.56,.28,3,.82,4.4,1.56,.79,.42,1.59,.92,2.49,1.09,3.64,.68,3.99-2.84,3.48-5.57h0Zm-.65,3.7c-.83,2.69-3.36,1.1-4.7,.39-1.25-.66-2.49-1.18-3.87-1.48-2.82-.62-5.74-.5-8.62-.39,2.41-2.49,5.27-6.3,8.82-6.69,3.74-.41,8.07,1.73,8.36,5.71,.05,.67,.22,1.8,.01,2.46h0Z"/><path class="cls-1" d="M253.41,266.53c.64,.35,1.67,.33,2.4,.53,1.06,.29,2.09,.67,3.09,1.12,1.9,.86,3.32,2.13,5.04,3.26,.49,.32,1.06,.7,1.65,.29,1.45-1.03-.38-4.74-1.44-5.51-1.11-.81-2.53-.74-3.84-.78-2.28-.07-4.49-.54-6.69-1.11-.1-.03-.26,.01-.39,.08-.11,.04-.2,.1-.23,.18-.35,.83-.44,1.48,.41,1.94h0Zm10.78,.8c.35,.49,1.57,3.42,.88,3.85-.36,.22-1.86-1.21-2.36-1.56-1.01-.7-2.09-1.31-3.21-1.83-.84-.38-1.7-.71-2.58-.98-1.04-.32-3.51-.41-3.27-1.91,2.09,.53,4.19,.93,6.35,1.01,1.55,.04,3.17-.01,4.19,1.42h0Z"/><path class="cls-1" d="M271.34,294.15c.91-.39,1.64-1.03,2.53-1.44,.7-.32,1.29-.24,2.02-.42,.16-.04,.35-.05,.48-.17,.54-.51-.03-.9-.43-1.24-.88-.74-1.62-1.63-2.52-2.35-.92-.73-2.86-1.7-3.93-.67-.55,.53-.29,1.3-.13,1.95,.36,1.47,.82,2.91,1.33,4.33,.06,.19,.44,.14,.65,.01h0Zm-1.37-5.19c.13-2.79,3.87,1,4.47,1.57,.24,.23,1.53,.99,1.07,1.4-.18,.15-1.14,.13-1.42,.2-1.05,.27-1.8,1.05-2.73,1.56-.25-.71-.49-1.41-.71-2.13-.21-.75-.71-1.82-.68-2.6Z"/><path class="cls-1" d="M266.64,276.89c-.27-.76-1.19-4.26-2.75-3.21-.59,.39-.58,1.56-.75,2.15-.31,1.09-.78,2.11-1.34,3.1-.14,.23-.59,.73-.54,1.1,.12,.8,1.77,1.82,2.32,2.38,1.35,1.37,2.6,2.83,3.78,4.36,.04,.05,.09,.07,.16,.08,.2,.04,.48-.04,.56-.2,.03-.04,.03-.08,.03-.12,.02-3.27-.37-6.55-1.47-9.64h0Zm-3.38,4.18c-.99-.94-1.26-1.14-.57-2.39,.46-.83,.83-1.69,1.12-2.6,.06-.2,.36-1.65,.42-1.67,.36-.14,1,1.14,1.13,1.4,.52,1,.83,2.2,1.11,3.29,.54,2.1,.79,4.24,.83,6.4-1.24-1.55-2.58-3.04-4.04-4.43h0Z"/><path class="cls-1" d="M269,270.6c.28,.04,.69,.02,.91-.19,.26-.24,.22-.66,.3-.98,.19-.69,.55-1.32,.97-1.9,.55-.75,3.13-2.9,.97-3.2-1.99-.28-4.36,.57-6.16,1.4-.1,.03-.19,.07-.24,.12-.01,.01-.03,.02-.03,.03-.01,.01-.01,.03-.01,.04s-.01,.03-.01,.04c.34,1.7,1.26,4.34,3.3,4.64h0Zm1.56-5.87c.44-.06,.87-.06,1.31-.01,.06,.32,.13,.64,.19,.96-.15,.45-.9,1.05-1.2,1.42-.31,.38-.61,.78-.86,1.2-.28,.47-.38,.98-.61,1.46-.21,.45-.1,.45-.59,.19-.21-.12-.4-.28-.58-.44-1.01-.94-1.47-2.33-1.74-3.65,.88-.4,1.79-.72,2.75-.92,.45-.1,.89-.17,1.33-.21h0Z"/><path class="cls-1" d="M269.67,281.48c.5-.41,.36-1.29,.4-1.87,.12-1.42,.23-2.83,.35-4.25,.05-.62,.52-2.1,.09-2.64-.52-.64-2.4-.84-3.16-1.05-.15-.11-.75,.03-.74,.27,.04,.94-.24,2,.11,2.87,.34,.87,1.08,1.45,1.34,2.42,.27,1.01,.02,3.85,.99,4.37,.17,.1,.49-.01,.62-.12h0Zm-1.19-5.46c-.25-.53-.72-.94-.96-1.45-.31-.65-.16-1.57-.14-2.4,.75,.15,1.71,.33,2.06,.66,.66,.64,.22,2.54,.15,3.36-.08,.94-.15,1.89-.23,2.83-.01,.07-.02,.15-.03,.22-.13-1.13-.44-2.35-.85-3.22h0Z"/><path class="cls-1" d="M217.38,111.15c.03-.26-.62-.2-.74,.03-1.11,2.17-3.19,2.9-5,4.31-.68,.53-.89,.88-.1,1.42,.71,.49,2.16,.52,3,.79,1.24,.39,2.44,.89,3.59,1.49,1.93,1.01,3.56,2.73,5.59,3.48,.18,.07,.59-.05,.62-.27,.3-2.02-1.28-3.39-2.44-4.84-1.6-1.99-3.02-4.11-4.29-6.32-.05-.06-.14-.09-.23-.09h0Zm6.2,10.82c-1.61-.78-2.99-2.16-4.56-3.01s-3.25-1.52-4.98-1.98c-.84-.23-2.4-.36-1.45-1.52,.48-.58,1.5-.93,2.12-1.37,.92-.65,1.72-1.37,2.31-2.29,1,1.73,2.09,3.4,3.29,4.99,1.14,1.5,3.2,3.18,3.27,5.18h0Z"/><path class="cls-1" d="M287.63,33.88c2.26,.71,4.23,1.99,5.68,3.88,1.49,1.94,2.11,4.3,3.34,6.37,.64,1.07,.98,1.29,2.17,.73,1.17-.55,1.49-1.34,1.01-2.53-.9-2.24-1.82-4.34-2.3-6.73-.35-1.75,.07-4.08-1.49-5.2-.91-.66-1.83-1.14-2.94-.73-1.72,.63-2.58,3.8-4.51,3.61-.15-.02-.47,.13-.58,.26-.26,.04-.62,.26-.38,.34h0Zm5.07-3.46c1.26-.85,3.05,.08,3.57,1.39,.29,.73,.16,1.86,.27,2.64,.24,1.7,.65,3.37,1.22,4.99,.27,.76,.57,1.5,.9,2.23,.18,.37,.35,.74,.52,1.12-1.04,1.5-1.72,1.68-2.05,.55-1.06-1.21-1.48-3.34-2.34-4.74-1.44-2.35-3.52-4-6.08-4.91,2.01-.14,2.38-2.19,3.99-3.27Z"/><path class="cls-1" d="M294.55,24.25c.72-2.5,1.5-7.04-1.54-8.32-.1-.04-.32,0-.48,.09-2.14-.32-4.18-.95-6.24-1.63-.14-.05-.91,.16-.67,.33,1.75,1.26,3.33,2.69,4.85,4.22,1.55,1.55,3.2,3.16,3.3,5.48,.02,.24,.72,.02,.78-.17h0Zm-6.98-8.9c1.59,.49,3.2,.91,4.87,1.12,.06,0,.14,0,.22-.04,1.98,1.08,1.96,3.86,1.54,6.11-.5-1.31-1.49-2.38-2.53-3.43-1.3-1.33-2.65-2.6-4.1-3.76Z"/><path class="cls-1" d="M270.89,8.44c-1.61-.49-3.22-.68-4.79-1.35-.04-.02-.09-.02-.15,0-.2-.08-.77,.14-.71,.25,.31,.6,.31,1.38,.88,1.76,.35,.24,.9,.18,1.31,.24,.66,.09,1.29,.21,1.92,.43,1.07,.36,2.25,1.54,3.36,.85,.04-.02,.1-.07,.09-.12-.12-1.13-.87-1.73-1.91-2.05Zm-1.78,.78c-.52-.12-1.06-.11-1.57-.24-.79-.19-1.01-.68-1.26-1.26,.87,.31,1.74,.54,2.66,.73,.66,.14,1.51,.23,2.09,.6,.14,.09,.88,.87,.99,1.35-.98-.38-1.87-.94-2.91-1.18h0Z"/><path class="cls-1" d="M248.73,119.88c1.6,1.33,3.71,2.66,4.98,4.33,.04,.06,.12,.09,.21,.09,1.49,.92,2.86,2.01,4.05,3.3,.9,.99,1.67,2.92,2.77,3.6,.38,.24,.81,.31,1.22,.07,1.46-.86,.56-3.21,2.37-4.05,.13-.06,.36-.29,.14-.41-6.21-3.27-11.64-8.26-18.19-10.87-.17-.07-.52,.03-.59,.21-.61,1.48,2.1,2.94,3.04,3.73h0Zm13.64,8.7c-.13,.31-.15,.88-.33,1.14-1.07,1.5-1.52-.08-2-.75-1.53-2.14-3.49-3.86-5.73-5.22-.96-1.19-2.42-2.14-3.57-3.11-.62-.52-3.94-2.63-4.32-3.96,6.13,2.6,11.31,7.25,17.15,10.39-.57,.35-.9,.8-1.2,1.51h0Z"/><path class="cls-1" d="M212.31,110.44c-.03,.07-.04,.14,0,.2,.52,.64,1.29,.06,1.81-.31,1.17-.85,3.11-1.77,3.85-3.07,.9-1.58,.42-4.36-1.62-4.25-.08-.22-.7-.11-.78,.17-.39,1.4-.88,2.76-1.51,4.07-.52,1.07-1.34,2.09-1.76,3.19h0Zm2.82-3.84c.44-1,.79-2.03,1.1-3.07,1.26-.15,1.42,1.48,1.36,2.28-.07,.92-.42,1.56-1.16,2.13-.61,.48-1.25,.91-1.87,1.37-.31,.23-.62,.46-.94,.69-.5,.35-.61,.36-.34,.03,.07-.45,.71-1.15,.93-1.56,.34-.61,.64-1.23,.92-1.87Z"/><path class="cls-1" d="M207.13,116.46s-.07,0-.1,0c-.03,0-.06,0-.1,0-3.45-.16-7.2-.27-10.19,1.77-1.28,.88-2.11,2.09-2.84,3.44-1.23,2.28-2.38,4.62-3.57,6.92-.18,.35,.47,.27,.61,.17,3.89-2.74,7.86-5.34,11.94-7.77,.47-.27,7.39-3.7,4.25-4.51h0Zm-2.47,2.89c-.65,.38-1.3,.75-1.94,1.14-1.4,.83-2.78,1.68-4.16,2.55-2.38,1.5-4.71,3.06-7.02,4.66l1.89-3.66c.75-1.46,1.44-3.18,2.55-4.42,2.69-3,6.99-2.85,10.66-2.68h.05c1.41,.39-1.94,2.36-2.03,2.41h0Z"/><path class="cls-1" d="M226.84,92.83c-.66-1.06-1.75-.99-2.91-.99-3.33-.02-6.55,.93-9.41,2.61-.44,.26,.25,.26,.45,.14,1.49-.88,3.07-1.57,4.76-1.97,1.36-.33,3.67-.82,5.05-.37,1.67,.54,1.93,2.27,1.94,3.8,0,1.39-.32,1.49-1.65,1.61-.62,.06-1.26-.02-1.88-.01-1.65,.02-3.34,.18-4.84,.92-.15,.08-.77,.53-.88,.51-.53-.09-.84-1.03-1-1.46-.39-1.03-.51-2.02-1.16-2.95-.14-.2-.85,.09-.77,.21,.92,1.31,.94,5.06,3.15,4.49,1.4-.36,2.57-1.23,4.08-1.34,1.1-.08,2.2-.01,3.3-.01,.57,0,1.68,.11,2.15-.41,.83-.93,.16-3.9-.38-4.78h0Z"/><path class="cls-1" d="M226.34,99.96c1.52,1.11,2.91,2.36,4.16,3.76,.11,.12,.39,.06,.51,0,.82-.37,.43-1.14,.15-1.81-.52-1.24-1.14-2.43-1.82-3.58,.03-.07,0-.11-.08-.13-.12-.19-.74-.01-.73,.23-.49,.62-1.1,1.01-1.89,1.18-.06,.01-.48,.21-.3,.34h0Zm2.46-1.01c.52,.92,1.63,2.96,1.91,3.93-1.05-1.11-2.19-2.12-3.41-3.04,.57-.19,1.07-.49,1.5-.89Z"/><path class="cls-1" d="M212.07,92.79c.11,.18,.42,.14,.61,.01,1.33,.08,2.22-1.35,3.38-1.87,1.11-.49,2.04-.75,2.41-2.04,.48-1.68-.34-3.67-.84-5.25-.55-1.73-1.17-4.07-2.56-5.37-2.18-2.03-3.84,2.86-4.37,4.36-.64,1.82-1.01,3.81-.9,5.75,.05,.82,.17,1.66,.56,2.39,.43,.84,1.23,1.23,1.71,2.02h0Zm-1.27-7.66c.24-1.34,.66-2.65,1.24-3.89,.28-.59,.59-1.46,1.08-1.92,.26-.73,.8-.82,1.61-.29,.18,.23,.34,.46,.48,.72,1.24,2.09,2.19,5.02,2.53,7.43,.3,2.14-1.27,2.78-2.96,3.58-.51,.24-1.55,1.51-1.98,1.46-.06-.01-.11,0-.17,.02-.66-.97-1.6-1.55-1.92-2.82-.33-1.35-.15-2.93,.09-4.29Z"/><path class="cls-1" d="M225.24,68.07c-.37-1.64,.04-3.36,.08-5.02,.02-.79,.07-2.05-.85-2.37-1.04-.37-1.59,1.01-1.98,1.74-1.17,2.19-2.12,4.5-3.17,6.75-1.12,2.39-2.67,4.39-3.95,6.69-.12,.22,.08,.31,.31,.3,0,0,0,.01,.02,.01,2.88,.5,7.16,1.4,9.54-.96,.71-.71,1.13-1.64,1.83-2.36,.46-.47,2.35-1.11,1.81-2-.31-.51-1.47-.33-1.94-.52-.98-.42-1.47-1.25-1.7-2.26Zm2.59,3.48c-.09,.15-.59,.36-.73,.46-.38,.29-.71,.63-1.01,1.01-.71,.87-1.18,1.92-2.2,2.5-2.14,1.22-5.27,.56-7.6,.14,1.17-2.04,2.56-3.83,3.58-5.97,1.02-2.15,1.94-4.35,3.01-6.48,.23-.46,.83-2.1,1.42-1.77,.47,.26,.23,1.85,.2,2.28-.1,1.55-.39,3.18,0,4.71,.33,1.3,1.14,2.19,2.44,2.55,.55,.14,1.2,.05,.89,.57Z"/><path class="cls-1" d="M224.4,79.62c-.05-.45,.05-.68-.35-.98-.29-.22-1.18-.08-1.48-.07-1.29,.05-2.58,.1-3.87,.16-.19,.01-.59,.24-.51,.33-.12,.06-.2,.15-.14,.23,1.22,1.71,2.23,3.53,2.97,5.5,.35,.94,.61,1.89,.86,2.86,.1,.37,.12,1.03,.44,1.28,.41,.33,1,.21,1.44,.01,.68-.32,1.19-1.01,1.77-1.45,1.05-.8,2.33-1.11,3.39-1.81,.49-.33,.87-.4,.58-1.01-.57-1.2-3.38-1.64-4.26-2.53-.89-.88-.72-1.41-.84-2.52h0Zm4.37,5.32c-.06,.63-1.3,.95-1.8,1.21-.92,.46-1.69,1.28-2.59,1.72-.71,.35-1.09,.83-1.66-.1-.3-.49-.33-1.37-.5-1.93-.75-2.44-1.93-4.69-3.41-6.77,1.7-.14,3.95-.58,4.76,1.24,.3,.68,.18,1.28,.75,1.92,.66,.75,1.56,1.08,2.42,1.51,.33,.17,2.07,.78,2.03,1.2h0Z"/><path class="cls-1" d="M246.87,89.43c1.97,.55,3.94,1.14,5.91,1.66,.96,.25,2.44,.82,3.4,.38,1.09-.5,1.98-2.35,2.67-3.28,.12-.16,.07-.27-.03-.34-.04-.09-.13-.15-.31-.15-4.9,.08-9.8,.01-14.69-.2-.17-.01-.74,.21-.48,.46,.94,.94,2.28,1.12,3.53,1.47h0Zm11.1-1.15c-.52,.8-1.14,1.98-1.83,2.43-1.19,.77-3.39-.29-4.6-.63-1.18-.33-2.35-.66-3.53-.99-.94-.26-2.27-.47-3.25-.97,4.41,.17,8.81,.22,13.21,.16Z"/><path class="cls-1" d="M227.6,88.02c2.31,.02,4.63-.04,6.93,.21,2.49,.28,4.92,.96,7.41,1.26,.09,.01,.79-.17,.61-.3-1.29-1-2.66-1.85-4.17-2.48-1.47-.62-3.36-.77-4.48-1.97,.12-.12,0-.23-.32-.13-2.27,.69-4.25,1.74-6.07,3.27-.11,.08,.02,.14,.09,.14h0Zm1.58-.97c.34-.26,.7-.49,1.07-.69,.93-.56,1.91-.99,2.93-1.33,.89,.95,2.07,1.11,3.27,1.51,1.71,.57,3.26,1.4,4.72,2.44-2.65-.43-5.25-1.09-7.95-1.22-.88-.04-3.39,.36-4.15-.07-.54,.09-.5-.12,.11-.64h0Z"/><path class="cls-1" d="M227.77,74.94c-.05,.22,.34,.19,.44,.16,2.63-.84,4.38-2.94,6.55-4.54,.67-.49,1.48-.96,1.64-1.85,.21-1.12-.7-1.94-1.62-2.36-.06-.03-.16-.02-.25,0-.1-.06-.28-.09-.44-.02-1.55,.61-3.22,1.4-3.46,3.24-.13,1.01,.22,.94-.66,2-.31,.38-.72,.68-1.04,1.06-.6,.7-.97,1.41-1.16,2.31Zm3.45-4.02c.17-.35,.15-.65,.19-1.03,.17-1.77,1.25-2.51,2.78-3.14,1.56,.71,1.84,2.18,.44,3.31-.52,.42-1.07,.78-1.58,1.2-1.41,1.18-2.7,2.5-4.4,3.21,.5-1.53,1.91-2.15,2.57-3.55h0Z"/><path class="cls-1" d="M238.09,66.95c.93-.15,1.66-.93,2.32-1.52,1.24-1.1,2.48-2.21,3.71-3.32,.43-.39,1.51-1.05,1.39-1.8s-.9-.39-1.1-.91c-.12-.31-.68-.2-.77,.06,0,0,0,0,0,.01-1.4,1.02-2.79,2.04-4.19,3.06-.9,.66-2.3,1.33-2.92,2.3-.8,1.26,.21,2.33,1.57,2.12h0Zm1.87-4.05c1.31-.96,2.63-1.92,3.94-2.88,.11,.08,.23,.13,.35,.16,.31,.62,.18,1.06-.4,1.34-.87,1.24-2.58,2.3-3.71,3.32-.25,.22-.5,.44-.74,.66-.59,.72-1.1,.37-1.53-1.06,.11-.42,1.72-1.27,2.09-1.54Z"/><path class="cls-1" d="M264.71,42.36c.19,.13,.47,.02,.62-.11,1.79-1.55,3.54-3.13,5.26-4.75,1.12-1.06,2.18-1.82,.75-3.09-.09-.1-.29-.15-.48-.05-.04,.02-.08,.05-.12,.07,0,0-.01,0-.01,0-2.14,1.22-2.96,3.37-4.83,4.88-.83,.65-2.78,2.02-1.19,3.04Zm3.13-4.15c.98-1.22,1.68-2.4,3.01-3.23,.93,1.31-1.69,3.08-2.55,3.87-1.06,.97-2.13,1.92-3.21,2.86-.56-.94,2.18-2.8,2.75-3.5h0Z"/><path class="cls-1" d="M234.74,33.04c.48,.72,1.65,.78,1.95,1.67,.12,.37-.11,.83,.18,1.15,.2,.22,.44,.16,.7,.13,.12,0,.41-.09,.45-.23,.4-1.44,.62-2.9,.69-4.4,0-.13-.49-.08-.69,.08-.9-.07-4.18,.24-3.28,1.6h0Zm1.96,.6c-.32-.22-.76-.38-1.03-.67-1.05-1.11,1.34-1.27,1.97-1.16,.06,0,.17,0,.28-.05-.06,1.09-.21,2.17-.45,3.23-.03-.29-.04-.59-.08-.67-.15-.29-.43-.5-.69-.68Z"/><path class="cls-1" d="M223.68,19.69c.16-.41,.34-.8,.57-1.17,.21-.34,.61-.71,.78-1.04,.12-.25,.2-.22,.12-.49-.12-.39-.98-.88-1.28-1.16-.57-.53-1.11-1.08-1.64-1.65-.11-.11-.38-.07-.57,.02-.24-.04-.64,.12-.6,.33,.37,1.86,.98,3.62,1.85,5.31,.14,.27,.68,.08,.77-.15Zm-.82-3.83c.25,.24,1.37,.97,1.44,1.3,.09,.38-.51,.91-.69,1.18-.11,.18-.21,.36-.31,.54-.59-1.26-1.04-2.56-1.35-3.92,.31,.31,.61,.61,.91,.9Z"/><path class="cls-1" d="M92.09,209.02c-.59-.22-1.56,.3-2.21,.35-1.24,.08-2.39-.11-3.57-.46-.06-.1-.12-.2-.19-.29-.2-.29-.94,0-.71,.34,.07,.1,.13,.21,.2,.31,.01,.03,.02,.06,.06,.09,.99,1.54,1.66,3.18,2.16,4.95,.39,1.39,.8,2.71,1.61,3.91,.15,.23,.53,.1,.68-.05,.78-.78,.87-2.15,1.13-3.18,.23-.9,.45-1.8,.68-2.69,.14-.56,.86-2.17,.68-2.69-.11-.4-.08-.43-.52-.59Zm-1.27,4.67c-.26,1.01-.41,2.66-.96,3.7-.78-1.37-1.09-2.87-1.56-4.37-.37-1.18-.88-2.28-1.5-3.34,.74,.17,1.49,.28,2.27,.28,.49,0,2.41-.57,2.77-.31,.18,.13-.92,3.65-1.02,4.04Z"/><path class="cls-1" d="M99.46,187.85v-.3c0-.19-.77-.06-.77,.21-.01,3.99-.11,7.98-.31,11.97-.01,.2,.56,.02,.62-.02,4.91-2.68,3.23-8.05,.56-11.81-.02-.02-.06-.04-.1-.05Zm-.29,11.3c.16-3.34,.25-6.69,.28-10.03,2.02,3.23,3.27,7.57-.28,10.03Z"/><path class="cls-1" d="M106.11,186.31c-1.8-.42-3.38,.11-5.03,.82-.09,.04-.13,.07-.15,.09-.2,.06-.38,.17-.35,.22,.62,.83,1.18,1.66,1.59,2.62,.34,.79,.65,1.54,1.19,2.21,.1,.13,.72-.04,.74-.2,.17-1.02,0-2.12,.33-3.1,.34-.99,1.2-1.69,1.73-2.58,.04-.04-.02-.07-.05-.08Zm-2.12,2.14c-.48,.78-.5,1.65-.54,2.53-.23-.47-.42-.96-.65-1.45-.38-.81-.89-1.53-1.42-2.24,.06,0,.11-.02,.14-.04,.62-.27,1.42-.65,2.08-.73,.29-.04,1.51-.21,1.61,.32,.05,.23-1.04,1.31-1.22,1.61h0Z"/><path class="cls-1" d="M86.98,142.56c.96,.34,2.04-.29,3.06-.21,.14,0,.51-.08,.54-.26,.33-1.71,.6-3.43,.78-5.17,.14-1.3,.52-2.87,.04-4.11,0,0-.01,0-.01,0,.1-.26-.61-.17-.72,.03-.86,1.57-1.65,3.18-2.31,4.84-.56,1.39-1.55,3.3-1.46,4.8,.02,.05,.04,.07,.08,.09Zm.95-1.54c.14-.53,.33-1.06,.51-1.58,.66-1.91,1.47-3.75,2.4-5.55,.15,1.24-.19,2.71-.33,3.88-.17,1.4-.39,2.78-.65,4.16-.54,.02-1.03,.12-1.58,.12-.2,.06-.4,.11-.6,.17,.03-.41,.12-.81,.25-1.2Z"/><path class="cls-1" d="M77.38,164.98c.65-1.24,1.22-2.5,1.68-3.82,.34-.95,.87-2.08,.9-3.07,.04-1.32-1.6-1.02-2.43-.59-.06,.03-.1,.06-.14,.1-.03,.02-.05,.03-.08,.05-.85,.86-2.76,2.04-2.55,3.45,.13,.86,.88,1.48,1.16,2.28,.22,.63,.27,1.21,.72,1.73,.19,.2,.62,.09,.74-.13h0Zm-1.05-5.49c.45-.58,1.07-1.08,1.59-1.6,1.94-.97,1.03,1.24,.87,1.78-.19,.64-.4,1.28-.64,1.91-.34,.89-.72,1.77-1.15,2.62-.32-.66-.45-1.44-.83-2.07-.66-1.12-.67-1.58,.16-2.64h0Z"/><path class="cls-1" d="M94.21,169.9c1.98-.84,3.32-2.61,5.23-3.57,.22-.11,.32-.36,.05-.48-1.55-.7-3.52-.67-4.64-2.11-.08-.1-.23-.12-.38-.09-.23-.02-.5,.11-.49,.31,.07,1.93-.04,3.85-.33,5.76-.05,.29,.4,.25,.56,.18h0Zm4.38-3.71c-1.45,.87-2.62,2.15-4.09,2.97,.2-1.48,.29-2.96,.28-4.44,1.07,.82,2.51,.99,3.81,1.47Z"/><path class="cls-1" d="M140.27,153.53c-3.22,.32-6.02,1.7-9.33,1.6-.16-.27-.85-.07-.74,.25,.32,1.01,.67,2,1.08,2.98,.26,.63,.57,1.83,1.04,2.31,.33,.33,.58,.41,1.03,.17,.42-.22,.72-.91,1.01-1.26,.57-.72,1.2-1.4,1.86-2.04,1.37-1.31,3.08-2.22,4.34-3.63,.19-.22-.07-.4-.29-.38h0Zm-5.76,4.9c-.37,.41-.73,1.14-1.17,1.43-.12,.17-.24,.33-.36,.5-.15-.42-.33-.83-.52-1.23-.48-1.14-.93-2.28-1.32-3.44,1.19,.02,2.37-.05,3.55-.28,1.62-.31,3.14-.94,4.76-1.23-1.54,1.51-3.47,2.61-4.94,4.25h0Z"/><path class="cls-1" d="M158.24,140.79s0-.03,0-.04c.18-.3-.34-.5-.6-.26l-5.64,5.22c-.17,.16-.18,.46,.12,.46,2.01,.05,4.2-.59,6.03-1.39,1.73-.74-.02-2.58,.1-3.99h0Zm-1.04,3.73c-1.23,.56-2.77,.99-4.17,1.07,1.48-1.37,2.95-2.74,4.43-4.1,.03,.36,.1,.71,.22,1.08,.1,.31,.38,.69,.38,1.01,0,.53-.38,.73-.86,.94Z"/><path class="cls-1" d="M150.93,109.34c-.9,.09-1.93,.81-2.76,1.15-1.39,.57-2.74,.99-4.25,1.04-.06,0-.12,0-.18,.02-.07,0-.13,.04-.18,.08-.16,.1-.25,.25-.08,.38,1.1,.84,2.88,3,4.46,2.59,1.51-.39,2.87-2.3,3.64-3.54,.54-.87,.57-1.84-.65-1.72h0Zm-1.93,3.88c-1.67,1.32-3.11-.1-4.41-1.2,.79-.08,1.56-.25,2.32-.5,.54-.18,1.06-.38,1.58-.6,.47-.19,1.21-.73,1.7-.75,1.83-.09-.57,2.56-1.19,3.05Z"/><path class="cls-1" d="M149.87,114.63c-.93,.56-2.32,1.09-2.94,2.05-.61,.96-.61,2.35-.63,3.45,0,.21,.62,0,.69-.07,1.01-.9,1.83-1.96,2.65-3.03,.37-.48,1.8-1.72,1.02-2.3-.05-.04-.13-.04-.23-.03,.19-.18-.37-.18-.56-.07h0Zm-2.78,4.65c.03-.76,.11-1.55,.38-2.23,.39-.97,1.53-1.52,2.47-2.04h0c.57,.44-1.64,2.98-2.85,4.27Z"/><path class="cls-1" d="M106.6,116.73c1.9-.54,3.82-.9,5.8-.99,1.67-.08,2.91,.56,4.36,1.23,.12,.05,.82-.06,.7-.28-1.58-2.86-3.16-5.73-4.75-8.59-.07-.12-.29-.11-.48-.05-.17,.04-.33,.12-.35,.23-.56,3.06-3.59,6.1-5.68,8.29-.2,.2,.33,.18,.4,.16h0Zm5.79-7.61c1.23,2.23,2.46,4.46,3.7,6.69-.23-.14-.47-.27-.73-.36-.81-.26-1.82-.15-2.65-.11-1.85,.08-3.66,.39-5.44,.85,1.88-1.98,4.24-4.44,5.12-7.07Z"/><path class="cls-1" d="M114.36,106.07c.99-.03,1.96,.07,2.93,.25,.15,.03,.68-.06,.63-.3-.15-.69-.75-1.27-1.17-1.81-.51-.64-1.03-1.27-1.56-1.89,0-.04-.04-.07-.09-.08-.19-.1-.69,.06-.7,.24-.34,.52-.65,1.07-.89,1.65-.15,.36-.69,1.42-.48,1.81,.2,.35,1.07,.14,1.33,.13Zm.43-3.07c.36,.42,.71,.84,1.05,1.27,.36,.45,.87,.97,1.14,1.52-.29-.04-.59-.08-.88-.1-.32-.02-.64-.04-.96-.04-.26,0-.77,.11-1.01,.03-.65-.23,.13-1.78,.66-2.68h0Z"/><path class="cls-1" d="M143.22,67.24c1.65,.91,2.71,2.45,4.05,3.72,.87,.82,1.77,1.21,2.29-.11,.34-.86,.8-3.29-.1-3.93-.59-.41-1.61-.23-2.29-.24-1.26-.03-2.52-.02-3.79,0-.4,0-.55,.49-.16,.56Zm4.31,.03c.68,.02,1.28,.05,1.57,.81,.07,.19,0,.59,0,.8-.02,.48,.02,1.85-.47,2-.48,.16-.99-.6-1.36-.99-.39-.41-.76-.84-1.15-1.25-.49-.52-1.01-.99-1.58-1.4,1.01,0,2,0,3,.03h0Z"/><path class="cls-1" d="M153.74,75.39c.61-1.5,.87-3.13,1.19-4.71,.28-1.39,.82-2.95,.51-4.36-.02-.11-.39-.05-.61,.05-.03,0-.04,0-.07,.01-1.51,.32-3.73,.23-4.11,2.05-.56,2.71,1.11,4.86,2.33,7.12,.08,.18,.7-.02,.76-.16h0Zm-2.31-7.09c.36-1.25,2.01-1.4,3.17-1.64,.03-.01,.05-.02,.08-.02,.29,1.54-.33,3.31-.65,4.83-.22,1.05-.41,2.11-.73,3.13-.75-1.25-1.65-2.62-1.92-3.96-.13-.69-.15-1.67,.05-2.34h0Z"/><path class="cls-1" d="M175.39,59.29c.13,.1,.86-.02,.75-.25-1.21-2.45-2.48-4.88-3.81-7.27-.13-.24-.87,.03-.77,.21,.02,.03,.03,.06,.05,.09-.88,.68-1.66,1.44-2.38,2.3-.03,.04-.05,.1,0,.14,2.05,1.59,4.1,3.18,6.16,4.78Zm-5.15-5.3c.09-.49,.94-1.11,1.56-1.55,.99,1.8,1.94,3.61,2.86,5.44-.91-.71-1.83-1.42-2.74-2.13-.48-.37-1.81-1.05-1.68-1.76Z"/><path class="cls-1" d="M180.2,55.11c1.33,1.29,2.71,2.53,4.11,3.74,.12,.1,.69-.05,.74-.2,1.25-3.6,.64-7.61,.18-11.31-.32-2.59-.7-5.99-4.08-5.61-.02,0-.04,.01-.07,.02-.21,.02-.45,.1-.48,.2-.79,3.22-2.05,6.69-2.39,9.99-.14,1.5,.99,2.21,1.99,3.17Zm-1.12-3.73c.44-3.13,1.47-6.3,2.24-9.38,3.2,.11,3.12,5.09,3.35,7.42,.28,2.92,.63,5.86-.17,8.7-.94-.82-1.87-1.65-2.77-2.5-.54-.51-1.1-1.01-1.6-1.55-.92-.98-1.23-1.37-1.05-2.69Z"/><path class="cls-1" d="M187.75,52.1c.66-1.06,1.27-2.15,1.78-3.29,.47-1.06,1.47-2.9,1.43-4.11-.07-2.11-3.61-1.66-4.88-2.67-.09-.08-.29-.06-.45,0-.24,.02-.53,.16-.47,.33,1.04,3.21,1.65,6.47,1.85,9.83,0,.28,.66,.04,.74-.09Zm2.35-6.99c-.08,1.9-1.31,4.1-2.4,5.88-.23-2.82-.76-5.56-1.6-8.27,1.59,.6,4.08,.52,4,2.39Z"/><path class="cls-1" d="M191.38,50.91c2.59-1.98,5.63-3.82,7.79-6.28,.15-.17,.02-.34-.18-.36-2.11-.19-4.22-.23-6.34-.15-.28,.01-.46,.25-.38,.4-.08,.05-.14,.12-.14,.21-.06,2.09-.67,4.02-1.36,5.98-.14,.37,.43,.33,.61,.2Zm1.53-6.25s0-.02,0-.02c1.78-.06,3.55-.02,5.33,.12-1.84,1.96-4.23,3.54-6.43,5.15,.58-1.71,1.06-3.42,1.11-5.25h0Z"/><path class="cls-1" d="M191.05,53.45c0-.08-.16-.1-.33-.07-.22-.01-.57,.08-.6,.23-.53,2.23-2.98,4-2.41,6.55,.23,1,.97,1.23,1.79,1.84,1.3,.97,2.42,2.1,3.44,3.35,.12,.15,.77-.03,.75-.24-.23-1.99-1.06-3.85-1.56-5.79-.51-1.92-.85-3.88-1.08-5.87h0Zm-.02,8.92c-.85-.71-2.3-1.25-2.55-2.41-.44-2.09,1.06-3.55,1.93-5.24,.22,1.62,.52,3.23,.94,4.81,.39,1.48,.96,2.91,1.31,4.4-.51-.55-1.04-1.08-1.63-1.56h0Z"/><path class="cls-1" d="M183.04,94.69c1.51-.01,3.29-.25,4.75,.17,1.39,.4,2.32,1.47,3.23,2.53,.14,.17,.74-.02,.75-.25,.06-2.28-.71-4.31-2.24-5.99-.15-.17-.89,.1-.72,.28,.02,.03,.05,.06,.07,.08-1.97,.97-3.93,1.93-5.9,2.9-.24,.12-.18,.28,.06,.28Zm2-.89c1.35-.67,2.71-1.33,4.06-2,1.07,1.3,1.69,2.8,1.85,4.45-1.22-1.22-2.47-1.92-4.4-1.94-.64-.01-1.39,.12-2.01,.01-1.09-.21-.22-.17,.5-.52h0Z"/><path class="cls-1" d="M192.9,99.9c.09,.91,.48,1.89,.78,2.75,0,.03,.04,.04,.07,.05,1.14,.19,2.22-1.13,2.95-1.81,.72-.67,1.39-1.39,2-2.16,.62-.77,1.51-1.75,1.8-2.71,0-.03,0-.05-.02-.06-.78-.66-2.43-.59-3.37-.53-1.22,.08-2.4,.37-3.56,.73-.23,0-.61,.11-.6,.26,.1,1.16-.17,2.32-.05,3.48h0Zm4.5-4.19c.55,.01,1.28,.02,1.79,.24,.56,.24,.43,.28,.28,.71-.5,1.45-2.09,2.92-3.15,3.97-.39,.38-1.15,1.35-1.68,1.47-.11,.03-.17,.05-.2,.08,0-.05-.02-.16-.14-.35-.16-.24-.22-.64-.32-.91-.55-1.51-.14-3.02-.24-4.57,1.18-.36,2.41-.66,3.66-.64h0Z"/><path class="cls-1" d="M202.14,89.29c-.72,.54-1.47,.98-1.72,1.89-.25,.93-.23,2.45,1.05,2.38,.64-.03,1.11-.42,1.55-.84,.84-.8,1.59-1.72,2.36-2.58,.7-.78,1.52-2.46,.26-2.97-.11-.15-.42-.21-.62-.06-.95,.73-1.92,1.46-2.88,2.18Zm1.7,1.6c-.48,.53-2.29,2.96-2.72,1.22-.32-1.29,1.04-2.07,1.9-2.72,.74-.56,1.48-1.12,2.23-1.68,1.23,.45-1.04,2.76-1.41,3.18h0Z"/><path class="cls-1" d="M207.57,84.97c.48-1.14,.96-2.29,1.43-3.43,.26-.63,.72-1.43,.41-2.11-.23-.52-.79-.68-1.28-.88-.98-.4-1.92-.72-2.76-1.36,0-.1,0-.21,0-.31,0-.15-.72-.04-.76,.19-.15,.07-.25,.15-.19,.21,.06,.05,.13,.1,.19,.15,.11,2.73,1.12,5.22,2.2,7.72,.09,.19,.7-.03,.77-.18h0Zm-1.69-6.75c.73,.34,2.22,.6,2.62,1.29,.6,1.03-.51,3.18-1.25,4.65-.85-2-1.6-4.02-1.82-6.18,.14,.09,.29,.17,.45,.24h0Z"/><path class="cls-1" d="M161.2,102.32c1.23-1.49,2.98-4.21,2.77-6.29-.16-1.57-3.04-2.28-4.4-2.54-.2-.04-.6,.17-.62,.32-.13,.06-.22,.16-.19,.27,.77,2.74,2.03,5.34,1.69,8.26-.05,.38,.64,.11,.75-.02h0Zm-1.61-8.26c.73,.2,1.43,.52,2.13,.84,.24,.11,.81,.24,.98,.44,.48,.57,.4,1.57,.24,2.22-.33,1.32-.9,2.53-1.65,3.64,0-2.48-1.02-4.76-1.7-7.14h0Z"/><path class="cls-1" d="M165.12,101.09c1.28-.28,2.34-1.07,3.47-1.72,1.39-.8,2.81-1.56,4.24-2.27,.23-.12,.32-.46-.03-.47-2.38-.08-5.06,.09-7.36-.55-.11-.26-.75-.13-.76,.16-.05,1.55-.05,3.09-.02,4.64,0,.24,.28,.25,.46,.21h0Zm.32-.62c-.02-1.26-.02-2.53,0-3.79,1.97,.46,4.13,.42,6.16,.45-.91,.47-1.81,.94-2.7,1.44-1.11,.64-2.24,1.5-3.47,1.9Z"/><path class="cls-1" d="M159.25,106.35c.2,.14,.54,0,.74-.07,1.09-.37,1.86-1.27,2.71-1.99,.35-.29,1.12-.56,1.32-.98,.23-.46-.51-.84-.79-1.09-.02-.02-.04-.02-.07-.03,.07-.18-.53-.13-.68,0-1,.88-2.43,1.78-3.06,2.99-.14,.27-.49,.94-.17,1.17h0Zm1.03-1.44c.25-.39,.6-.69,.94-1,.47-.43,.96-.85,1.44-1.26,.4,.33,.76,.63,.16,1.01-.33,.21-.63,.45-.92,.71-.54,.47-1.25,1.35-2,1.59-.05-.29,.33-.97,.38-1.05h0Z"/><path class="cls-1" d="M80.26,160.01l-1.05,2.62s0,0-.01,.02c-.4,1.1-.55,2.54-.35,3.37,.04,.16,.16,.63,.63,.74,.04,0,.09,.02,.14,.02h11.38c.11-.02,.27-.06,.44-.21,.13-.12,.21-.28,.21-.46v-.24c.07-.04,.13-.1,.18-.17,.1-.14,.13-.31,.09-.48l-.03-.11c-.05-.18-.18-.32-.34-.39,0-.04-.01-.08-.01-.11v-.02l-.02-.17s-.01-.03-.01-.05h0v-.06c-.59-4.21-.99-8.46-1.37-12.56-.21-2.28-.44-4.64-.68-6.92-.03-.27-.24-.49-.51-.53-.26-.04-.53,.1-.64,.35-1.08,2.47-2.69,5.38-4.24,8.19-1.35,2.39-2.73,4.88-3.81,7.17h0Zm11.48,4.9c.15,.14,.18,.32,.17,.4l-.3-.02c-.01-.07-.01-.15-.02-.21l.15-.17Zm-3.27-17.83c.16,1.59,.31,3.19,.46,4.76,.39,4.11,.79,8.37,1.37,12.59,0,.02,0,.04,.01,.06v.05l.02,.05s0,.03,.01,.04v.12c.05,.28,.07,.52,.09,.82h-10.45c-.07-.52,0-1.57,.34-2.5l1.03-2.57c1.05-2.22,2.42-4.7,3.75-7.09,1.18-2.13,2.38-4.31,3.37-6.33h0Z"/><path class="cls-1" d="M89.88,170.84c-1.7-.54-3.33-.17-4.91,.19-.91,.21-1.86,.42-2.77,.45-.29,0-.57-.07-.86-.15-.29-.07-.59-.15-.91-.16-.06,0-.11,0-.17,.02-.51,.13-1.28,.32-2.57,8.43-.65,4.07-1.1,8.17-1.14,9.04v.08c.38,4.23,4.9,10.31,6.27,12.07,4.65,5.97,5.72,6.96,6.18,7.15,.07,.03,.15,.04,.22,.04,.15,0,.3-.06,.41-.16,.25-.24,6.25-5.91,7.34-14.17,.75-5.69-.54-9.7-3.37-18.52-.65-1.75-1.34-3.56-3.72-4.31h0Zm5.92,22.67c-.9,6.8-5.3,11.76-6.61,13.09-.57-.55-1.98-2.14-5.41-6.54-1.32-1.69-5.65-7.5-6.02-11.4,.11-2.47,1.79-14.74,2.83-16.27,.14,.02,.29,.06,.45,.1,.33,.08,.7,.18,1.16,.19,1.05-.03,2.06-.26,3.04-.48,1.55-.35,2.88-.66,4.27-.22,1.83,.58,2.36,1.97,2.97,3.57,2.77,8.61,4.03,12.54,3.32,17.96h0Z"/><path class="cls-1" d="M106.22,169.22c-.73,0-2.42,0-5.94-1.26-.29-.11-.62,.03-.75,.32-.39,.85-1.04,1.3-1.61,1.69-.63,.43-1.4,.96-1.15,1.94,.05,.21,.21,.38,.49,.68,.02,.03,.05,.06,.08,.09-.02,.06-.04,.13-.04,.22,0,.22,.11,.42,.29,.53,.03,.02,.07,.04,.1,.05l3.03,10.82s.01,.03,.01,.04c.13,.35,.34,.77,.91,.84h.05s.09,0,.12,0l1.95-.2s.07,0,.1-.02c.4-.11,.93-.42,1.19-1.29,.02-.07,1.58-6.85,1.89-8.75,.31-1.93,.42-4.37-.21-5.4-.1-.18-.29-.31-.51-.29h0Zm-.46,5.51c-.29,1.83-1.85,8.6-1.86,8.63-.09,.31-.23,.4-.31,.43l-1.71,.17h0l-3.12-11.14c.01-.12-.02-.24-.06-.33-.01-.02-.02-.04-.03-.05-.1-.2-.28-.4-.52-.66-.07-.07-.15-.16-.21-.23,.02-.11,.16-.24,.67-.59,.54-.37,1.25-.85,1.77-1.7,2.89,1,4.56,1.14,5.46,1.15,.2,.74,.24,2.33-.08,4.32Z"/><path class="cls-1" d="M222.87,25.64c1.27,1.77,10.73,5.49,12.02,5.57h.09q.27-.02,1.6-.75s.04-.02,.05-.03c.1-.07,.36-.24,.49-.55,.02-.04,.1-.24,.08-.48-.64-7.94-.5-8.87,.6-16.12,.03-.21-.05-.42-.21-.55s-.38-.17-.58-.11c-.45,.16-1.29,.51-2.57,1.05q-3.17,1.36-5.86,2.53c-1.2,.53-2.44,1.07-3.11,1.61-.02,.02-.04,.03-.06,.05-.36,.39-4.11,5.57-2.54,7.78h0Zm3.4-6.92c.56-.43,1.75-.96,2.81-1.42q2.69-1.17,5.86-2.53c.6-.25,1.12-.47,1.54-.65-.95,6.29-1.07,7.68-.46,15.28,0,0,0,0-.02,0-.57,.31-.96,.52-1.1,.58-1.55-.21-10.16-3.83-11.04-5.07-.88-1.19,1.73-5.46,2.41-6.2h0Z"/><path class="cls-1" d="M193.38,52c.14,12.29,5.65,18.08,16.46,25.06,.1,.06,.21,.1,.32,.1,.15,0,.31-.06,.42-.17,10.29-10.14,21.78-34.61,22.55-36.57,.58-1.49,1.19-2.46,1.83-2.89,.11-.07,.19-.18,.23-.31l.11-.33c.12-.36,.24-.71,.35-1.08,.1-.35,.28-.93-.39-1.26-2.7-1.37-5.52-2.57-8.26-3.74-2.18-.93-4.43-1.89-6.61-2.93-.06-.03-.12-.05-.18-.05-.02,0-.06,0-.08,0-.38,0-.57,.2-2.05,1.73-3.01,3.13-10.06,10.45-24.47,21.98-.15,.11-.23,.28-.23,.47h0Zm25.55-21.63c.52-.54,.99-1.03,1.25-1.28,2.1,.99,4.25,1.91,6.36,2.81,2.63,1.12,5.34,2.28,7.95,3.59-.11,.34-.22,.67-.33,1.01l-.05,.15c-.78,.61-1.47,1.7-2.1,3.32-.75,1.92-11.86,25.61-21.93,35.81-10.31-6.71-15.29-12.05-15.5-23.51,14.31-11.47,21.34-18.77,24.35-21.9h0Z"/><path class="cls-1" d="M156.16,110.96c-2.24,2.54-3.63,4.25-5.72,7.04-.14,.19-.16,.44-.05,.64,.1,.2,.31,.32,.53,.32h.03c3.31-.15,7.94-.12,12.83-.09,10.5,.07,22.41,.15,27.12-1.48,.13-.05,.25-.14,.32-.26,5.31-8.8,.27-15.62-2.15-18.9-.51-.69-1.14-1.54-1.18-1.82,.02-.18-.04-.36-.16-.49-.13-.13-.31-.2-.5-.18l-11.49,1.29s-.06,.01-.1,.02c-.02,.01-.05,.01-.07,.02,0,0,0,0-.02,.01-.03,.01-.05,.03-.08,.04-1.24,.7-13.93,7.94-19.31,13.84h0Zm19.81-12.73l10.84-1.22c.21,.5,.65,1.1,1.28,1.94,2.42,3.28,6.92,9.36,2.2,17.38-4.67,1.49-16.27,1.41-26.52,1.34-4.32-.03-8.43-.06-11.63,.04,1.68-2.2,2.97-3.77,4.9-5.95,5.3-5.79,17.72-12.85,18.93-13.53h0Z"/><path class="cls-1" d="M116.51,107.97c-.13,.13-.2,.32-.17,.5,.06,.48,.12,.9,.2,1.28,.92,4.71,3.33,6.93,3.8,7.33,.09,.07,.19,.12,.3,.13,5.95,.86,13.19,1.33,20.04,1.33,1.38,0,2.75-.02,4.08-.06,.27,0,.51-.2,.57-.47l.27-1.2s0-.06,.02-.1l.14-1.56c0-.16-.04-.32-.14-.44-2.79-3.28-28.35-6.89-28.6-6.92-.19,0-.38,.05-.51,.18h0Zm28.03,7.37l-.11,1.24-.16,.72c-7.71,.2-16.37-.26-23.28-1.25-.61-.56-2.49-2.54-3.27-6.53-.03-.13-.05-.27-.08-.42,8.95,1.23,24.48,4.18,26.9,6.24h0Z"/><path class="cls-1" d="M187.9,123.05s-.02,0-.04,0c-.08-.04-.17-.06-.27-.05-2.55,.09-5.74,.15-9.48,.18-.18,0-.34,.08-.46,.22-.76,.91-3.94,4.46-7.31,8.22-4.18,4.66-8.49,9.48-9.58,10.8-.18,.22-.18,.53,0,.75,.41,.53,.9,1.16,1.31,1.7,.12,.15,.29,.23,.47,.23,.11,0,.22-.03,.32-.09,1.97-1.23,7.19-5.61,12.73-10.25,5.5-4.61,11.19-9.38,13.14-10.57,.5-.3,.39-.7,.35-.82-.19-.52-.69-.42-1.17-.33h0Zm-13.08,10.78c-4.89,4.1-9.93,8.32-12.14,9.86-.22-.29-.46-.59-.68-.88,1.45-1.71,5.57-6.3,9.24-10.39,3.16-3.52,6.15-6.86,7.16-8.04,3.12-.03,5.86-.08,8.15-.14-2.61,1.95-7.06,5.68-11.73,9.59h0Z"/><path class="cls-1" d="M214.45,101.99v-.07c0-.05,.02-.11,.02-.16,.15-3.61-2.04-7.22-6.51-10.75-.25-.2-.61-.16-.82,.07-4.66,5.3-7.95,9.07-11.02,12.6-.12,.14-.17,.33-.13,.51,.96,4.66,2.77,10.36,5.98,11.04,.21,.04,.43,.07,.66,.07,.12,0,.25,0,.37-.02,.09,0,.19-.04,.27-.09,1.66-1.07,3.42-2.26,5.12-3.67,.03-.02,.05-.05,.08-.08,1.81-2.15,3.8-5.25,5.92-9.22,.03-.06,.05-.14,.06-.23h0Zm-1.18-.28v.07c-2.05,3.81-3.96,6.79-5.69,8.86-1.59,1.31-3.26,2.44-4.83,3.47-.19,0-.37,0-.53-.04-1.95-.41-3.76-3.98-5-9.82,2.92-3.37,6.08-6.98,10.44-11.94,3.85,3.15,5.74,6.32,5.61,9.4Z"/><path class="cls-1" d="M171.85,122.62c-.1-.21-.31-.34-.54-.34-6.72-.02-14.64-.09-23.53-.23-.21,0-.38,.09-.5,.25-5.86,8.28-11.15,18.08-15.73,29.14-.1,.23-.04,.5,.14,.67l.57,.54c.11,.11,.26,.16,.41,.16,.03,0,.06,0,.09,0,5.8-.92,10.07-2.88,17.59-8.04h0c6.31-4.6,13.52-11.83,21.41-21.5,.15-.18,.18-.43,.08-.64h0Zm-22.19,21.16c-7.21,4.96-11.35,6.89-16.8,7.8l-.05-.05c4.47-10.71,9.6-20.22,15.26-28.27,8.22,.12,15.6,.2,21.97,.22-7.51,9.1-14.36,15.92-20.38,20.3h0Z"/><path class="cls-1" d="M155.16,73.47c1.19,4.52,4.38,15.51,8.4,19.84l.05,.05c1.55,1.32,2.55,2.17,4.81,2.17,2.95,0,8.05-1.46,19.35-5.24,.28-.09,.45-.37,.4-.66l-.05-.34c-1.42-8.93-5.81-21.87-18.61-32.81-.23-.19-.56-.19-.79,.01-8.94,7.92-10.46,10.44-13.52,16.57-.07,.12-.08,.27-.04,.41Zm13.97-15.75c12.14,10.56,16.38,22.95,17.78,31.58-18.76,6.27-19.39,5.79-22.5,3.16-3.85-4.18-7.06-15.38-8.04-19.08,2.88-5.74,4.42-8.25,12.76-15.66Z"/><path class="cls-1" d="M193.67,93.87c.05,.16,.17,.29,.32,.36,.08,.04,.17,.06,.25,.06s.16-.02,.23-.05c1.26-.52,3.04-2.22,4.93-4.02,1.88-1.79,4.01-3.82,5.4-4.4,.28-.11,.43-.42,.35-.71-2.45-9.29-8.64-14.54-16.47-21.19-3.83-3.25-8.17-6.93-12.67-11.6-.21-.21-.54-.25-.78-.07-.24,.17-.32,.5-.18,.76,5.74,11.17,16.58,34.39,18.62,40.86Zm-5.76-29.02c7.54,6.39,13.52,11.46,15.96,20.1-1.53,.82-3.44,2.64-5.29,4.41-1.44,1.38-2.93,2.79-3.99,3.47-2.3-6.72-10.91-25.29-16.75-36.97,3.56,3.48,6.98,6.37,10.07,8.99Z"/><path class="cls-1" d="M119,105.17c.07,.05,.15,.09,.24,.11l.11,.02c7.91,1.69,13.95,2.98,17.95,3.84q5.81,1.25,5.91,1.25h.05c10.53-.45,16.03-7.89,16.26-8.21,.05-.07,.09-.15,.1-.24,.36-1.85-7.2-20.71-7.29-20.9q-1.5-3.25-7.71-11.5s-.02-.03-.03-.04c-1.31-1.47-4.06-1.68-5.91-.43-.07,.05-6.88,5.29-11.53,10.89-.3,.37-.23,.76-.17,1.09,.05,.26,.08,.44,0,.6-.52,1.06-1.19,2.07-1.83,3.05-.55,.83-1.12,1.69-1.6,2.59h0c-.07,.14-6.76,13.67-5.1,17.21,.12,.29,.31,.51,.55,.67h0Zm5.6-17.31c.46-.85,1.01-1.69,1.54-2.5,.66-1.01,1.35-2.05,1.91-3.18,.26-.53,.16-1.04,.1-1.35,0-.07-.02-.13-.03-.17,4.49-5.38,11.2-10.57,11.24-10.61,1.33-.9,3.38-.79,4.3,.23q6.12,8.13,7.56,11.25c.98,2.27,7.08,18.1,7.2,20.08-.8,1.03-5.89,7.14-15.16,7.57-.37-.07-2.43-.52-5.71-1.22-4.01-.86-10.04-2.15-17.94-3.84-.03-.03-.06-.07-.09-.13-1.15-2.47,3.73-13.52,5.08-16.13Z"/><path class="cls-1" d="M100.92,163.88h.12c1.92-.2,2.66-.36,4.54-1.2t.02,0l1.12-.54c16.41-7.87,20.82-9.99,37.39-40.66,.1-.18,.1-.41,0-.59s-.3-.29-.51-.3c-12.09-.21-21.61-.44-23.4-.49h-.08l-.07-.05s-4.31-3.07-9.72-2.1c-1.45,.26-2.88,.79-4.24,1.58-.07,.04-.12,.09-.17,.15-3.75,4.81-12.54,16.31-13.18,19.33-.01,.03-.01,.05-.01,.08-.01,.16-.97,16.19,4.03,22.39,1.16,1.44,2.56,2.25,4.17,2.41Zm-7.01-24.66c.46-1.95,5.38-9.1,12.87-18.71,1.21-.69,2.47-1.15,3.74-1.38,4.85-.86,8.77,1.87,8.81,1.89l.22,.16c.1,.07,.22,.11,.34,.11h.27c1.74,.05,10.8,.27,22.42,.48-15.99,29.5-20.01,31.42-36.38,39.28l-1.11,.53c-1.64,.73-2.27,.9-4.11,1.09-1.25-.14-2.37-.8-3.3-1.96-4.53-5.59-3.82-20.61-3.77-21.49h0Z"/><path class="cls-1" d="M68.68,225.89c0-.07-.01-.15-.01-.22,0,.13,0,.22,.01,.22Z"/><path class="cls-1" d="M323.08,72.99c-.21-.25-.42-.48-.62-.72h-.01l.63,.72Z"/><path class="cls-1" d="M319.62,46.84l-.03-.03s.01,.04,.03,.03Z"/><path class="cls-1" d="M182.72,305.44l.1-.06c-.03-.07-.06-.03-.1,.06Z"/><path class="cls-1" d="M290.25,303.99c-.08-.08-.06,.08-.02,.04-.01,.02-.01,.03,.02-.04,.05-.1,.02-.06,0,0Z"/><path class="cls-1" d="M390.17,376.11h.01s.04-.03-.01-.03l-.02,.02h.01s0,.02,.01,.01h0Z"/><path class="cls-1" d="M367.32,200.74s0,0,0,0c-.01,0,0,0,0,0h0s.02-.02,0,0Z"/><path class="cls-1" d="M462.63,282.86c1.1-5.52,9.73-13.74,9.73-13.74v-5.04c-1.87,2.76-22.44,32.6-22.44,32.6l.04,.12c-1.85,2.37-3.74,4.26-5.63,5.55,5.33-14.75,7.57-32.87,8.93-43.8,3.32-26.79,8.31-30.29,10.3-30.55,.09,0,.19-.02,.28-.02,1.29,0,2.34,1.17,2.84,2.4l.97,3.11c.02,.35,.04,.73,.05,1.12,.87,3.18,1.89,7.56,2.55,12.55,.36-2.51,.61-4.41,.66-4.92l.02-.03,.03-.06c.73-2.03,.74-2.06,1.03-3.73,.05-.64,.1-1.24,.15-1.81h0v-.1l.06-.75,.02-.24,.05-.73v-.02c.03-.5,.07-1,.09-1.49h0v-.07c-.01-.18-.16-.32-.34-.33-.12-.01-.22,.06-.3,.15-.01,.02-.03,.03-.04,.05s-.01,.04-.02,.06-.02,.04-.02,.06c-.2,1.2-.29,1.72-.65,2.51l-.59-8.11c-.16-1.76-.17-3.57-.18-5.31-.01-1.06-.01-2.16-.05-3.25l-.33-3.64s0,.02-.01,.03c-.1-.66-.18-1.32-.17-1.92l-.34-3.74c-2.39-5.55-4.7-11.23-6.94-16.73-.28-.69-.57-1.39-.85-2.08,6.87-8.24,20.7-22.83,32.34-22.83l-9.27-2.9s-16.29,10.19-24.96,21.13c-3.37-8.2-6.89-16.5-10.83-24.5l-.42-3.46c4.94-5.19,7.65-8.14,9.15-10.16,.99,4.72,1.65,9.5,2.37,14.28,.05,.33,.93,.12,.94-.18,.1-5.46,.25-11.66-1.4-17-.09-1.4-.31-2.93-1.09-3.53l-.2-.52c-.05-.13-.17-.21-.29-.23-1.23-.91-4.85-3.62-15.34-25.94-.98-2.15-1.81-4.42-2.6-6.61-.91-2.49-.04-22.9-1.21-25.34l-.13-.27s-.02-.03-.03-.05l-.31-.46c-1.06-1.53-1.93-2.77-3.49-4.9-.11-.15-.31-.19-.47-.1s-.23,.29-.16,.46l.13,.31c1.06,2.56,.54,23.47,1.46,26.19-10.39-12.21-13.64-15.94-25.26-27.13l-1.87-2.83-6.18-6.91-20.69-21.38c-.02-.08-.08-.15-.15-.2l-.78-.53c-4.17-2.79-6.23-4.06-9.66-6.17-.06-.04-.12-.05-.18-.05-.75-.45-1.52-.9-2.29-1.35-5.69-7.89-15.56-23.4-12.23-31.83l-5.33,9.5s3.56,9.07,9.42,17.66c-.45-.24-.93-.5-1.48-.8-.1-.05-.21-.05-.31,0-1.32-.7-2.54-1.33-3.63-1.89-.02-.1-.09-.19-.18-.24l-2.05-1.03c-6.82-3.36-11.58-5.52-18.87-8.53-.18-.07-.39,0-.47,.19s0,.39,.17,.48l2.58,1.25c3.5,1.76,10.35,5.58,17.49,11.7-2.21-.06-7.45-2.1-16.77-6.55-.05-.13-4.58-.43-5.76-.29t0,0h-.03c-5.14-.85-26.98-7.38-29.68-9.04q-1.8-1.17-1.64-2.33h0v-.02c.03-.3,.05-.57,.08-.82l-22.09-6.77c-.95-.29-2-.61-3.15-.97h-.01c-3.06-.96-6.85-2.19-11.53-3.78-.25-.08-.53-.03-.72,.15-.2,.18-.28,.45-.22,.71l1.38,5.94c.07,.28,.29,.5,.57,.55,.23,.04,22.76,4.47,26.54,12.87,.01,.02,.77,1.97-.34,3.96,0,0-.01,.02-.01,.03-.07,.12-.14,.23-.22,.35-1.14,1.66-3.95,3.56-10.77,3.98-2.34-.41-5.56-1.88-7.08-3.06-.21-.16-.49-.17-.7-.02l-2.25,1.52c-.14,.09-.23,.24-.26,.4s.01,.33,.11,.46c.02,.03,.04,.05,.06,.07,.02,.13,.06,.26,.1,.39,.01,.02,.02,.05,.02,.07-2.41,3.85-31.55,29.6-41.23,35.11l-.4-.16c7.79-19.69,11.59-28.43,12.27-29.98,.13-.09,.23-.23,.26-.4l.96-5.55c.03-.16,0-.32-.1-.45-.05-.07-.12-.13-.19-.17-.14-.46-.33-2.19-.61-4.86-.27-2.3-.36-4.54-.27-6.65,0-.04,0-.08,0-.12-.66-3.89,.92-8.81,4.68-14.64,.13-.2,.13-.46,0-.66-.11-.16-.28-.26-.47-.27,.35-.28,.79-.56,1.08-.68,.44-.19,.68-.67,.56-1.14s-.58-.77-1.05-.71h-.07c-.55,.08-1.1,.16-1.64,.24-.08,.01-.15,.03-.23,.06l-.29,.12c-3.13,1.45-3.3,3.04-3.2,4.82,.13,2.17-5.86,5.95-8.24,7.08-1.22,.51-4.46,1.88-6.08,.79-.78-.52-1.18-1.63-1.17-3.3,.05-.55,.07-.7,.22-1.23,1.49-2.24,1.85-2.68,9.57-4.85,.5-.14,.79-.64,.68-1.15-.12-.5-.6-.82-1.11-.73l-.47,.09c-.5,.09-1.16,.22-1.69,.32l-4.16,.83-.28,.06c-3.33,.7-4.52,.98-4.59,1l-.93,.26-.12-.06-2.6,5.47v.54c0,.06,0,.12,.02,.18,0,.06,0,.12,.03,.19l.41,1.68c1.3,5.34,1.77,7.29,1.94,7.98-2.15,3.54-7.85,7.93-15.67,13.95-2.37,1.79-3.85,2.88-8.81,6.42-1.45,.12-4.15,.03-6.12-.73-.07-.03-.14-.05-.22-.06-.06-.04-.12-.08-.18-.1-4.68-2.06-6.63-3.36-6.58-7.72l-.11-.18c-.17-4.43-.52-23.27,5.43-31.64,.17-.23,.17-.53,.02-.76-.25-.36-.69-.39-1.78-.09-2.05,.55-7.44,2.69-7.69,5.88-.88,10.87-.6,30.8-.39,31.96,.15,.81-1.05,3.6-2.1,5.65-.55-1.26-.91-5.73-.8-10.55,0-.29-.2-.55-.48-.6-.29-.06-.57,.1-.68,.37l-2.84,7.39c-.07,.19-.04,.39,.06,.54l-.14,.05c.07-.02,.11-.04,.18,0,.06,.07,.13,.12,.21,.16,.05,.05,.12,.1,.19,.18,.4,.38,.39,1.33,.37,2.65-.02,1.73,.08,2.55,.31,3.29l-.71,.57c-3.14,2.51-6.24,5.17-9.24,7.73l.39,.46-.42-.43c-3.1,2.65-6.3,5.39-9.53,7.96-.8,.64-1.48,.94-2.01,1.13-.1-.01-.22,.01-.35,.09-1.52,.24-5.21-.01-7.11-1.19-.23-.14-.41-.27-.55-.37-.05-.09-.13-.16-.22-.21l-.15-.32c-.27-2.23,3.2-12.71,6.96-22.21,.08-.2,.05-.43-.09-.59-.13-.17-.35-.25-.56-.22l-5.45,.82c-.22,.03-.4,.18-.48,.39-.07,.21-.03,.44,.12,.61,.54,.59,.77,1.72,.66,3.26-.26,3.54-2.12,7.98-3.13,9.81-1.11-4.45-6.96-18.39-7.69-20.11-.09-.22-.31-.37-.55-.37h-4.62c-.21,0-.41,.11-.51,.29-.11,.18-.11,.4-.02,.59,5.38,10.11,12.8,27.22,9.79,30.07-.07,.07-.11,.14-.14,.23-.03,.04-.06,.07-.09,.11-.61,.76-1.2,1.25-2.94,2.71-1.46,1.22-3.65,3.07-7.29,6.26,0,0,0,.01-.02,.02l-.14,.12s-.03,.03-.04,.04c-.81,.73-1.58,1.54-2.2,2.2l-3.01,2.58c-.07,.06-.13,.14-.16,.22l-2.52,5.9-.03,.09-.07,.31c-4,13.08-10.64,23.77-14.24,28.97-3.39,4.67-5.89,7.89-10.72,13.76-.04-.17-.07-.34-.11-.5-.06-.29-.26-.54-.54-.67-.27-.13-.59-.12-.85,.02l-.56,.29c-.07,.04-.14,.09-.19,.16l-5.57,7.06c-.05,.06-.08,.13-.11,.21l-.06,.2c-.38,1.3-.86,2.6-1.53,4.07h-.12c-.25-.04-.49,.09-.61,.32l-.1,.19c-1.61-.21-3.46-.49-5.32-.86-6.19-1.26-9.62-3-9.68-4.91-.11-3.9,15.08-18.45,25.33-27.27,.16-.14,.25-.34,.25-.55v-6.29c0-.28-.14-.55-.39-.67-.38-.19-.82-.03-.99,.32-7.34,14.81-27.84,24.14-34.71,26.93,3.24-6.12,29.63-60.62,29.63-60.62l-7.87,2.2-29.69,68.17c-3.26,7.78-5.12,12.89-7.65,21l-3.4,15.48-.62,6.28c.24,6.89,1.41,31.08,5.75,50.43,.82,3.66,.83,3.72-.61,27.82-.56-1.06-1.54-1.6-2.22-3.01-3.08-6.98-8.58-30.11-9.39-44.57l-.84-.87,.05,3.33c-.05,.07-.08,.15-.07,.24l.05,1.14h0v.1c.35,8.23,1.49,18.16,3.31,29.21-3.16-3.8-7.51-7.89-12.99-12.22-6.05-4.78-11.31-8.08-11.37-8.11-.15-.09-.33-.12-.5-.06l-9.27,2.9c-.28,.09-.46,.37-.41,.66,.04,.29,.3,.51,.59,.51,14.93,0,33.95,25.05,36,27.83,1.25,6.54,2.7,13.35,4.32,20.36-.09-.07-.22-.1-.34-.06-.18,.06-.28,.25-.23,.44,.2,.75,.42,1.55,.66,2.39,.23,.81,.5,1.7,.83,2.76l.17,.53c2.73,8.71,6.52,18.61,8.03,22.48,.05,.15,.1,.31,.15,.46,.07,.21,.13,.41,.19,.62,.03,.09,.09,.15,.16,.2,.32,.8,.36,.89,.36,.9,.03,.04,.06,.07,.09,.11,.41,.33,.83,.69,1.31,1.12,.25,.47,.53,1.02,.86,1.7,.63,1.29,1.24,2.53,1.83,3.72,.84-.21,1.65-.37,2.43-.5l1.45-.21c3.21-.39,5.8-.16,7.84,.35l2.89,1.05c2.61,1.28,3.67,2.87,3.67,2.87l.07,.2c3.55,3.37,7.08,7.8,8.42,9.62-7.45,7.59-15.92,18.99-16.42,19.66-.09,.12-.13,.26-.12,.4l1.04,13.44c.02,.28,.23,.5,.51,.55,.03,0,.06,.01,.09,.01,.24,0,.47-.15,.56-.38,9.4-23.65,20.26-32.66,23.53-34.96,.08,0,.16-.01,.24-.01,3.2,0,8.33,1.82,15.34,5.44q3.08,1.59,5.06,5.16c.03,.06,.08,.11,.14,.14,.16,.09,.31,.17,.46,.25-.05,.03-.1,.07-.13,.12-.07,.1-.08,.23-.03,.35,1.57,3.55,2.49,5.87,1.64,8.58-.46,.75-3.44,4.96-5.36,7.16-.03,.03-.05,.06-.08,.09-.31,.38-1.37,2.06-.74,6.39,.14,.12,.19,.18,.21,.21,.36,.66,2.81,11.23,2.91,11.74,.23,1.36,.59,3.99,.74,5.91l-.1-.23s1.62,23.23-7.49,31.1l5.48-1.44s4.69-10.05,4.44-12.05,11.24,22.78,5.75,32.02l6.74-4.12s-4.24-21.41-8.01-31.69l5.97,2.01c5.49,4.86,11.17,9.89,17.7,13.67l11.21,4.12,5.83,.58c6.3,1.7,7.88,1.13,14.02,2.91,4,1.16,8.14,2.37,12.22,3.52,3.39,.94,6.89,1.91,13.13,5.97-10.71-.88-22.17-3.29-22.35-3.33-.27-.06-.54,.07-.66,.31l-2.07,4.05c-.12,.23-.07,.52,.11,.7,.19,.18,.47,.23,.7,.11,8.16-4.27,16.4,.85,18.86,2.62l-4.79,2.43c-.2,.1-.33,.31-.33,.53v5.88c0,.25,.16,.47,.39,.56,.07,.03,.14,.04,.21,.04,.17,0,.34-.07,.45-.21,10.78-12.48,28.23-10.86,28.41-10.84,.13,.01,.26-.02,.36-.08,1.25,0,7.44-.35,2.02-8.15-1.01-1.04-2.19-2.46-2.9-4.07-.73-1.65-.96-3.47-1.19-5.22-.11-.82-.22-1.66-.38-2.5,0,0,9.38-8.46,13.73-10.41,3.2-1.7,6.89-2.7,10.57-1.59,2.52,.76,5.12,1.54,16.59,18.78,.94,1.47,1.41,2.19,1.53,2.46,2.04,1.43,3.75,2.37,4.8,2.44,0,0,5.4-4.13,7.22-7.48,.75-2.05,1.46-4.14,2.14-6.17,1.09-3.23,2.21-6.56,3.53-9.76,.43-1.04,.81-1.09,1.12-1.13,9.29,.09,11.27,.34,12.01,.72-.1,.22-.12,.26-.2,.43-.06,.14-.02,.31,.09,.41,2.16,2.12-.42,7.65-.44,7.68-.21,.34-.6,.76-.87,1.04-.07,.07-.11,.17-.1,.28l.02,.29c-.24,.18-.54,.37-.87,.57,.21,1.04,.38,2.62,.05,4.34,.39,1.19-1.07,5.77-1.34,6.37-.35,.77-.76,1.48-1.27,2.18-1.25,1.73-3.31,3.45-5.43,4.94-.28,.19-.56,.38-.83,.57-3.07,2.06-6.05,3.57-6.67,3.84l-6.32,6.4c-.41,.49-.9,.99-1.43,1.45l1.08,.92c1.78-1.31,3.92-2.86,4.08-2.97,.46-.31,1.18-.72,2.02-.92,3.33-.65,3.65-.71,6.2,1.05-.02,.02-.05,.03-.09,.05-3.61,2.17-7.38,3.87-9.89,4.76l.91,.77c.93-.36,1.94-.77,3.04-1.23,1.35-.51,2.37-.93,3.34-1.38,4.39-2.25,4.96-2.54,5.08-2.55,1.27,.05,3.21,1.01,3.21,1.24-.03,.07-.45,.72-4.35,1.91-3.2,.98-6.96,1.77-9.96,2.32l.99,.84c.36-.06,.74-.12,1.17-.2,3.1-.46,6.17-1.29,9.14-2.09,1.13-.3,2.26-.61,3.39-.89,2.15-.5,3.98-.83,5.67-1.04,2.13,.46,6.63,2.43,9.3,10.82,.06,.2,.22,.35,.42,.4l4.61,1.2s.1,.02,.15,.02c.18,0,.35-.08,.47-.23,.15-.19,.17-.44,.06-.65-.23-.43-5.43-10.21-8.29-13.93,1.23-.48,3.36-1.27,6.99-2.54,1.71-.52,3.46-1.02,5.15-1.5,5.46-1.56,11.08-3.18,16.32-5.69-3.93,2.56-13.19,6.17-15.24,6.91-.18,.07-.28,.27-.22,.45,.06,.19,.25,.29,.44,.24,15.05-4.07,32.54-12.16,41.21-16.55l7.04-2.92,.77-.6s.03-.02,.05-.04c4.61-2.74,9.11-5.79,13.46-8.74,2.36-1.6,4.79-3.25,7.22-4.83l5.77-2.53c3.05-2.2,6.3-4.65,8.51-6.33,.35-.18,.71-.37,1.1-.56,.02-.01,.04-.02,.06-.04l.2-.16c.35-.28,.7-.55,1.06-.84,5.86-3.91,34.02-23.72,35.31-24.63,.22-.15,.31-.43,.22-.69-.09-.25-.34-.42-.6-.4l-6.4,.33c-.16,.01-.31,.08-.42,.2-2.93,3.32-22.63,17.67-28.67,22.04-.96-3.07,1.6-7.7,7.28-14.36l2.72-3.09c6.7-7.39,16.55-16.94,29.17-29.18l13.75-12.13,.33-.61c1.3-2.42,2.83-5.31,4.6-8.98,.86-1.63,1.74-3.53,2.61-5.64,.27-.6,.54-1.22,.82-1.86l.26-.61c.67-1.69,1.72-4.35,3.01-8.11-.42,.1-.83,.21-1.22,.32-3.5,10.75-7.78,20.19-11.71,21.67-.1-.72,2.86-6.79,6.76-17.13,.25-.67,.51-1.35,.76-2.05,4.85-8.52,30.24-22.1,30.24-22.1l2.13-11.34c-9.22,18.74-22.67,15.71-22.67,15.71h0Zm-1.65-86.08c7.71,15.32,7.6,28.03,7.6,28.25l-.55-2.37c-.12-.48-.35-.88-.57-1.28-.12-.22-.24-.44-.34-.66-1.03-2.33-2.13-5.37-3.27-9.05-.82-2.66-.87-2.81-4.91-17.53,.02-.02,.03-.04,.05-.06l1.99,2.7Zm-1.08,20.38c-.12,3.04-.55,4.75-3.94,11.87,.03-5.82-.05-18.79-2.06-33.43-.12-.91-.19-1.42-.2-1.76,4.02,11.41,6.3,20.75,6.2,23.32h0Zm-17.96,80.77c-3.45,9.46-7.17,15.68-8.76,18.34-.72,1.21-2.63,4.2-3.91,5.72-.44,.52-1,.92-1.59,1.34-.72,.51-1.46,1.03-2,1.82-.41,.03-.67-.07-1.19-1.15-1.23-2.56-2.92-6.07-7.17-11.44-1.45-1.82-3.12-3.47-4.74-5.07-1.82-1.79-3.71-3.65-5.25-5.74-.4-.54,.15-1.4,.18-1.44,.05-.07,.12-.16,.19-.23,.04-.05,.08-.09,.08-.1,16.15-15.81,27.01-26.93,40.03-46.47l2.57-2c-.45,10.46-1.4,27.14-8.44,46.42h0Zm14.26-152.87c.12,.15,.33,.19,.48,.09,.05-.03,.09-.07,.14-.1,.05,.19,.09,.37,.14,.56-1.1,1.77-3.34,4.31-9.66,10.93l-1.02-1.63,.22-.15c3.39-2.43,5.16-4.11,7.31-6.92,1.06-1.54,1.78-2.58,.94-5.66,.86,1.73,1.4,2.82,1.45,2.88h0Zm-14.57-27.62c9.28,17.77,10.95,20.97,12.38,25.26,.31,.94,.34,1.04-1.34,3.38,0,0,0,0-.01,0-.01,0-.01,.02-.02,.02-1.87,2.52-3.99,4.51-7.1,6.69-.2,.14-.29,.2-.43,.29l-.02-.03c-.16-.25-.33-.52-.48-.73-.37-.53-.85-.95-1.31-1.35-.44-.39-.86-.76-1.18-1.21-1.09-1.57-2.08-3.24-3.04-4.87-.68-1.15-1.38-2.34-2.11-3.49l-1.55-4.06c3.87-7.99,5.86-12.16,5.98-20.28,.07,.1,.14,.22,.23,.37h0Zm-6.21-32.98c-.44-1.59,.36-4.71,1.81-1.68,1.46,2.73,.75,23.48,1.82,26.32,.44,1.16,.89,2.35,1.36,3.53-.05,.09-.08,.2-.09,.36-.48,5.87-1.31,13.65-5.82,22.04l-1.06-2.61c3.89-5.04,5.14-9.25,5.14-17.21q-.1-1.99-.42-4.72s-.01-.05-.02-.07l-.88-3.43c-.1-.38-.21-.77-.32-1.17,0,0,0-.02-.01-.02h0v-.02s-1.51-21.31-1.51-21.32h0Zm.31,23.32c.8,1.19,.8,1.2,1.12,3.04,.21,2,.24,2.5,.27,4.41-.11,3.74-.34,11.52-6.29,16.95-.04,.04-.36,.09-.7,.15-1.49-4-4.44-16.05-4.69-17.17-3.29-14.66-6.35-22.28-10.89-30.57,11.01,11.01,13.17,13.27,21.18,23.19h0Zm-32.81,89.08c-.44-2.24-2.75-3.99-6.18-4.69-6.93-1.4-16.89,1.59-23.53,11.43-1.7,2.52-4.26,6.33-3.77,11.74,.9,9.91,3.04,19.75,5.11,29.26,1.34,6.18,2.72,12.53,3.76,18.9-1.14-4.54-3.33-13.6-7.7-31.66-.01-.02-.01-.05-.03-.07-.7-1.48-1.41-1.96-2.95-1.96h-.16c-.07,0-.13,.02-.19,.06s-.12,.08-.17,.12l-.03-.03c-.07-.07-.17-.11-.28-.1-19.1,1.2-24.58,.85-28.31,4.31-.72-.42-1.55-.88-1.84-1.11,19.96-16.89,21.48-16.3,24.44-23.24,1.51-3.55,.8-6.77-.11-9.45-.47-4.62-2.02-8.69-3.26-11.31,.02-.84,.13-1.63,.34-2.41,.57-.23,1.27-.5,1.87-.72,.61,2.46,3.84,14.83,6.3,16.58,.05,.03,.1,.06,.16,.06,.06,.03,.13,.05,.19,.05,.08,0,7.97-1.11,12.96-10.69,2.32-.46,2.71-.61,6.28-2.05,4,.72,7.37,1.33,10.34,1.33,9.26,0,14.71-5.89,23.94-32.48l3.49,1.8c-2.25,4.44-4.95,8.74-7.56,12.91-5,7.98-10.18,16.22-12.47,25.81-.14,.58-.41,2.58-.8,5.97,.07-2.63,.11-5.37,.14-8.26,.03-.06,.02-.08,.02-.1h0Zm-21.39,174.49c-1.78-2.37-6.7-2.44-15.04-.19-8.39,2.26-18.3,7.16-21.39,8.74,1.5-3.12,2.16-4.53,2.46-5.5,8.77-1.86,24.61-9.19,32.36-18.26,7.39-5.36,8.03-10.17,9.44-20.68,.86-7.31,1.34-20.64-5.19-27.79-3.01-3.3-7.2-4.89-12.45-4.75-5.35,.44-9.9,2.24-14.75,5.87s0,0-.01,0l-.88,.7c-6.79,5.85-7.65,8.12-14.31,25.78-4.87,12.88-7.26,18.82-10.55,26.17-.18-1.66-.13-3.3,.16-5,2.74-6.31,4.35-10.04,5.56-13.12,1.25-2.3,2.65-5,3.53-7.82,3.1-10.88,2.96-17.3,2.57-20.26,7.5-6.86,13.72-10.97,15.76-12.32,3.41-2.17,5.02-3.01,7.12-4.04-.71,1.76-.82,2.67,.71,3.92,.08,.07,.19,.09,.29,.08l12.11-1.91s.07-.02,.1-.03c1.14-.56,2.23-1.78,3.12-2.76l.21-.24s.03-.03,.04-.05c.3-.49,.69-1.13,1.01-1.67l.69,.27c.85,6.28,1.3,9.45,3.21,10.81,1.17,.83,2.8,.95,5.75,.38,1.01,3.41,1.51,5.6,1.83,10.78l-.76,.52s-.03,.03-.05,.04q-.92,.9-3.6,15.23s-.01,.05-.01,.07c0,.28,.02,.52,.06,.72-.13,.04-.23,.14-.26,.28q-4.02,19.88-3.97,20.21c.21,1.36,.76,2.29,1.64,2.77,.45,.24,.7,.67,.88,1.12-.66,1.11-2.29,4.37-2.45,4.58-.18,.22-.48,.65-.56,1.11-.19,1.16-.45,2.46-.78,3.99-.65,2.08-2.5,5.79-3.56,9.3-1,.93-.55,.49-1.21,1.03,2.04-3.75,2.42-6.41,1.17-8.08h0Zm-168.4,46.23c-1.16,1.39-4.1,1.2-5.68,1.1-.11-.01-.19,.03-.26,.09l-.02-.02c-.07-.06-.16-.1-.25-.1-.02,0-.04,0-.07,.01-1.64,.3-9.66-5.06-13.12-10.99l2.64,.54c4.65,1.68,10.83,3.9,15.49,5.57,.42,.39,1.06,.78,1.66,1.02,.27,1.22,.14,2.15-.39,2.78h0Zm-3.04-8.55c-1.3,.12-3.85,.06-15.39-4.48-.02-.01-.04-.01-.06-.02-.08-.02-.2-.04-.33-.04h-.07c-.05-.06-.09-.12-.14-.18-.03-.04-.07-.07-.11-.1-8.17-4.43-21.86-24.25-22.19-32.13-.05-1.3,.26-2.19,.93-2.66,.06,0,.12-.02,.17-.05,.54-.3,1.05-.67,1.54-1.02,.63-.45,1.22-.87,1.89-1.19,7.16,3.8,16.43,11.92,23.67,20.75,7.53,9.19,11.28,17.05,10.09,21.12h0Zm-79.09-46.61c1.23,1.4,2.63,3.01,4.25,4.85,.51,.47,1.17,.96,1.68,1.24,.11,.06,.24,.06,.35,0,3.65-1.98,8.52-4.62,12.17-6.61,.07-.04,.12-.09,.15-.16,1.72-3.43-8.49-9.2-9.98-10.02-.07-.54-.18-1.19-.29-1.75,8.71-5.28,9.01-5.5,11.4-11.22,.66,.88,1.03,1.32,2.11,2.52l-1.22,1.58c-4.52,5.93-5.73,7.52-3.76,11.66,2.11,4.43,5.96,6.92,9.68,9.33,1.23,.8,2.49,1.61,3.68,2.49-.88-.35-1.91-.66-3.3-.98-7.86-1.77-13.53-.42-16.85,4.03-3.38,4.53-3,10.87-2.57,11.63,1.21,2.16,7.06,5.79,14.4,8.96-4.95-1.79-9.14-2.84-11.56-2.49-.05,.01-.11,.03-.15,.06-.9,.61-1.41,1.47-1.53,2.56-1.43-3.03-3.47-5.65-6.15-7.89,.35-.03,.67-.12,.97-.29,.77-.45,1.28-1.37,1.57-2.83,.96-4.9,1.65-8.34-5.05-16.67h0Zm-58.4-164.19l.08,.59c.02,.15,.1,.29,.22,.39,.59,.48,1.36,1.14,2.46,2.1,9.7,8.47,11.79,18.76,12.24,22.85-.2,2.48-.31,3.51-2.76,4.1-.27,.06-.45,.3-.46,.57,0,.05,.01,.09,.02,.13-1.2,.22-2.79,.34-4.93,.36-4.24-.03-5.44-.04-5.91-1.82l-1.11-29.37c.05,.03,.1,.06,.15,.1h0Zm48.35-30.43c-1.55,.17-2.19,1.04-3.23,2.1-.7,.72-3.17,3.05-4.28,2.79-.93-.22-.59-1.36-.84-2.24-.17-.57-.4-1.05-.78-1.5-.47-.56-1.4-.89-1.78-1.46-.43-.65-.23-.65,.39-1.18,.41-.35,.82-.69,1.24-1.03,1.03-.82,2.09-1.6,3.17-2.36,3.73-2.62,7.64-4.98,11.21-7.82,.55,1.98,1.86,3.79,2.71,5.61,1.27,2.73,1.95,5.56,2.05,8.49-1.18,.73-2.34,1.47-3.46,2.22-1.73-1.97-3.89-3.9-6.4-3.62Zm15.25-5.87c.44-.93,2.31-2.32,13.43-10.07,0,0,.02,0,.02-.02l3.85-2.66,3.43-1.05c-2.01,5.51-3.34,8.36-4.83,10.12-2.12,1.01-5.93,2.46-7.21,3.08-.2,.07-.23,.09-.2,.09-.79,.36-1.56,.73-2.33,1.11-2.78,.28-5.09,.06-6.16-.6h0Zm36.82,200.92c-.52,.38-1.2,.8-1.75,1.07l-.69,.25c-6.87,1.92-15.29-2.22-19.48-7.32-2.28-2.78-3.01-5.53-1.98-7.54,.14-.27,.9-1.55,4.93-6.74l.49,.53c.08,.09,.2,.13,.32,.11,1.72-.27,3.34-.52,9.54,6.55,1.4,1.69,2.76,3.47,4.08,5.19,1.63,2.12,3.31,4.32,5.09,6.39l-.49,.4c-.1,.08-.15,.2-.13,.32l.07,.79Zm-12.65-27.18c-.06-.09-.15-.15-.26-.16-.06-.01-.13-.02-.19-.02,.03-.13-.02-.26-.12-.35q-3.41-2.92-5.56-9.28c-3.58-11.27-1.71-12.83-.6-13.77,0,0,.02,0,.02-.01,2.08-.57,2.45-.58,7.93-.17,10.58,.85,15.9,1.28,19,4.18s4.14,8.41,6.21,19.37c1.44,10.64,.42,15.94-4.39,22.29l-1.25,.07c-1.8-1.38-12.64-10.03-20.79-22.15Zm-9.76-31.94v-.03l-.07-.88,1.08-.83c1.13-.63,2.37-1.32,3.65-2.04,2.77-1.55,5.62-3.16,8.03-4.45l.85,.06,4.54,9.86v.76c-6.02,.5-11.11,.5-16.04,.5-.87-.57-1.54-1.94-2.04-2.95h0Zm32.11,1.71l-.14,.08s0,.01-.02,.01c-1.29,.86-2.29,2.32-3.5,2.38-2.5-.07-5.12-2.48-6.5-6-2.96-7.51,.75-14.87,5.21-19.25,3.18-3.13,10.38-8.54,23.17-10.14,11.46-1.49,18.6,2.88,22.07,4.34l-.41,.35c-.64,.54-1.33,1.12-1.89,1.6q-14.78,12.73-16.7,14.08c-3.85,2.7-8.04,5-12.08,7.23-3.01,1.66-6.12,3.37-9.11,5.25-.04,.03-.07,.05-.1,.07Zm5.98-36.48c-2.61-.06-4.59-1.3-6.6-4.14-2.06-3.05-6.9-11.6-5.6-12.72,.16-.08,.77-.23,1.77-.23,1.57,0,4.08,.36,7.24,1.91,.35,.17,1.15,.58,2.53,1.44,1.35,.83,2.66,1.78,3.92,2.69,.95,.68,1.93,1.39,2.93,2.05,.83,.55,1.73,.99,2.6,1.41,.88,.43,1.79,.87,2.61,1.43,.1,.07,.47,.43,.45,.97-.09,1.43-8.39,5.07-11.85,5.19h0Zm-11.01-.52c.54,3.78-1.43,7.44-5.84,10.88-19.96,15.44-20.16,15.59-20.93,15.97-.1,.05-.17,.14-.2,.26l-.43-.12h0c-3.96,.09-12.55-4.88-21.34-12.38-6.18-5.27-17.79-16.38-26.06-31.48-6.46-12.06-3.26-18.24-1.58-20.33,1.67-2.08,4.11-3.11,6.09-2.56,7.86,2.19,15.32,5.72,22.54,9.12,4.3,2.03,8.75,4.13,13.24,5.93,.17,.07,.37,0,.46-.17,.07-.13,.14-.27,.2-.41,0,.21,.02,.42,.03,.62,0,.14,.1,.27,.23,.32,21.19,8.45,32.5,16.64,33.6,24.35h0Zm-3.73-22.65l-.62,.13c-10.99-1.98-17.84-3.9-29.26-8.2-6.09-2.41-37.15-16.49-38.41-18.3-1.76-20.48,25.15-46.99,32.34-49.68,4.55-1.71,6.48-1.03,8.03-.49,.06,.02,.12,.03,.17,.02,.02,.05,.06,.09,.1,.12,1.57,1.24,8.18,17.3,15.7,38.2,7.21,20.04,12.26,36.2,11.95,38.2h0Zm-53.79-69.35c-.04,.24-.16,.39-.21,.45l-.39,.48c-.2,.24-.17,.59,.05,.81,.01,0,.03,.02,.05,.03-8.69,10.72-11.28,13.91-11.95,14.6,.05-.17,.02-.35-.09-.5q-1.55-2.17-1.15-2.74c1.05-1.33,2.16-2.79,3.34-4.33l.06-.07c2.83-3.7,6.05-7.9,8.82-11.02,.04-.04,.07-.08,.1-.1,1.42,2.08,1.42,2.09,1.37,2.39h0Zm-18.79,30.88c.23,1.42,.37,3.15,.27,5.09-.13,2.54-.74,4.9-1.1,6.08-.22-.07-.47,0-.63,.17-.07,.08-.23,.23-.38,.37-.56,.53-.83,.81-.93,1.1l.33,.11-.33-.11c-.04,.11-.07,.22-.11,.32-.2,.49-.45,.99-.73,1.51-.15,.28-.06,.62,.21,.79,.01,0,.02,0,.03,0-.9,1.54-2.08,3.07-3.54,4.59l-.08-.17s.06-.05,.1-.07c.23-.17,.3-.48,.17-.74l-1.95-3.96c-.28-4.03,.26-7.26,1.79-10.76,.86-1.97,4.09-6.89,5.43-7.63,.19,.46,.5,1.43,.76,2.82,.05,.28,.29,.48,.58,.49,.04,0,.08,0,.11,0h0Zm-15.96,41.52c-4.72-2.37-7.88-4.08-9.25-4.83,1.73-2.41,3.25-3.52,4.54-3.3,2.17,.38,3.65,4.4,4.71,8.13h0Zm-9.64,4.32c.09,.08,.21,.1,.31,.08,2.36,1.56,4.38,2.86,6.84,4.4l.67,.56-.59,.86c-4.2,5.56-5.49,7.26-5.79,7.53-.09-.02-.14-.06-.27-.21q-1.36-1.66-1.43-2.41c-.26-7.7-.35-10.34-.36-11.33,.21,.17,.38,.31,.62,.52h0Zm7.9,16.04c.82-.63,1.81-1.33,2.24-1.33,.03,0,.05,0,.07,.01,.15,.04,.29,.27,.5,.7,6.44,14.16,6.83,15,6.87,15.28,.03,.23,.05,.64-.19,.78-6.94,3.65-8.42,4.42-8.64,4.52-1.31-.39-3.66-10.04-3.81-13.03-.21-3.98,1.47-5.8,2.96-6.93h0Zm5.91-6.92l1.13-12.4c.35-1.75,1.59-6.04,2.36-6.38,1.75,1.34,12.97,24.46,13.08,25.75,.19,4.76-5.3,12.26-6.49,12.91-1.12-.86-8.58-8.57-10.08-19.88Zm15.25,24.75c4.94-7.76,6.61-10.38,6.98-10.52,.01,0,.04,.01,.06,.03,.58,.43,14.9,11.01,21.07,16.71,5.76,5.32,10.26,11.62,10.42,12.29,0,.04,.02,.09,.02,.12,0,.09,.02,.41-.14,.6-.08,.09-.2,.15-.34,.16h-4.19c-2.29,.02-4.59,.02-6.88,.02-11.44-.01-11.47-.03-12.24-.48-.78-.45-1.86-1.08-11.22-13.13-3.82-5-3.86-5.07-3.54-5.8h0Zm38.4,25.67c.11,.06,10.6,6.77,6.14,22.62,0,.01,0,.02,0,.02-.11,.49,0,1.2,.23,1.72-1.27,3.14-4.66,10.11-9.88,10.72-2.84,.33-21.06-5.61-21.89-7.14-.01-.01-.74-1.43-1.9-5.32-2.28-9.64-.69-16.93,4.62-21.07,6.68-5.21,17.47-4.24,22.69-1.55h0Zm-21.97,35.16c.86,.16,12.33,2.64,15.94,4.26,7.26,3.26,10.92,7.52,11.24,7.91,.13,.32,.07,.41,0,.47-2.15,1.19-7.5,4.19-11.37,6.61h-.02c-.26-.05-.47-.11-.92-.59-10.03-12-14.67-17.59-15.01-18.65,.05-.01,.1-.01,.14-.01Zm19.12,33.7c-.51-.46-.79-1.23-.83-2.3-.12-3.13,1.88-7.82,3.62-9.63,1.66-1.72,4.51-3.47,9.28-3.47,1.62,0,3.47,.2,5.57,.68,8.51,1.91,10.89,7.46,12.16,10.44,.7,1.64,1.66,3.19,2.59,4.68,1.86,2.99,3.61,5.81,3.6,9.46,0,.37-.29,2.22-5.87,2.26-11.52-.39-29.98-12.03-30.12-12.12h0Zm45.3-18.41l.68-.82c8.59,1.62,9.61,1.87,12.02,3.78,.67,.53,1.64,1.49,2.48,3.05,.76,1.41,1.36,2.94,1.93,4.41,.39,.99,.79,2.02,1.24,3.01l1.15,3.39c-4.88,1.11-7.97-.38-19.5-16.82h0Zm4.45-6.5c1.9-7.32,2.41-9.29,2.62-9.49,.02-.02,.08-.04,.19-.04,.07,0,.17,.01,.29,.04,1.37,.33,3.91,2.43,4.77,3.94,.37,.65,.63,1.37,.79,2.18,.11,.73,.61,5.83-.31,6.96-.1,.12-.18,.15-.23,.15-.1-.01-.13-.01-.28-.06-7.99-2.87-7.98-2.9-7.84-3.68Zm12.71-.25c-1.47-1.17-2.36-2.85-3.3-4.62-1.42-2.68-2.89-5.45-6.51-6.28-.26-.06-.48-.11-.67-.11-.99,0-1.33,1.21-3.1,7.93-.47-.23-.98-.5-1.41-.73q1.12-13.4,.55-17.24c-.69-3.67-2.79-12.11-4.72-16.77,.34,.12,.68,.26,.97,.43,3.73,9.66,4.76,12.15,6.82,16.56,4.26,8.72,6.66,11.78,10.29,13.11,3.67,1.35,6.75-.07,9.73-1.45l.45-.21c1.62-.43,3.17-.96,4.6-1.59,.4-.07,.75-.1,1.06-.12,.33,.42,.71,.92,1.04,1.35-1.81,1.47-4.14,2.23-6.4,2.97-3.69,1.24-7.51,2.49-9.4,6.77Zm13.48-11.65c-1.65,.28-3.19,.95-4.63,1.6-3.84,1-6.84,1.09-6.86,1.09-4.68,0-7-2.39-11.77-12.18-8.34-17.86-5.6-18.49-3.56-20.99,.19,0,.17-.03,.07-.06,15.72-12.78,22.52-16.92,35.96-21.81,6.19,11.34,8.07,21.62,.51,42.89-1.58,4.12-4.85,7.3-9.72,9.46h0Zm-8.74-84.78c-.05-.03-.13-.09-.17-.05-.29-.16-.59-.34-.84-.49-23.94-14.59-24.38-15.47-26.21-19.18-2.3-4.67-10.3-21.24-16.47-38.26-7.45-20.56-7.58-35.11-4.57-42.06-.03,.02-.06,.05-.09,.07,.07-.12,.14-.23,.21-.35l-.12,.27c.16-.14,.24-.25,.14-.31,0,0-.02,.03-.02,.04,0,0,0-.03,.02-.04,1.72-2.83,3.74-5.48,6.06-8.04l1.97-1.25s.08-.05,.11-.09c9.21-9.4,22.98-17.75,41.42-28.53,1.01-.45,1.98-.44,2.83-.27,.46,.11,.89,.24,1.29,.38,.22,.09,.43,.17,.61,.25,.17,.07,.32,.13,.46,.18,.66,.3,1.27,.62,1.86,.89,3.92,1.81,5.79,4.15,5.8,4.17l2.29,2.39c12.33,16.38,34.1,45.85,36.16,52.17-.56,.58-.47,1.74-.43,2.09,.44,3.74-21.12,56.56-30.11,69.54-5.57,8.09-13.49,11.18-22.2,6.48h0Zm31.08-6.39l23.69-60.57c1.14-.92,4.16-2.89,5.55-1.91,.9,.63,1.89,3.18-1.62,13.09-7.39,20.87-17.79,47.82-18.28,49.08-5.09,7.02-11.14,13.84-12.48,13.11-.37-.2-1.2-1.7,3.14-12.8h0Zm-14.43-140.4c-.27-.94-.47-1.85-.65-2.68-.2-.92-.37-1.74-.61-2.36,.02-.15,0-.3-.08-.44-.04-.08-.1-.14-.17-.19-.79-2.2-1.02-2.93-1.51-4.6l.67-.61c.19,0,.37-.02,.56-.04,.75-.07,1.53-.15,2.97,.77,1.35,.9,2.35,1.81,14.55,12.91,5.56,5.04,6.8,6.13,16.47,14.64l.21,.18c.56,.45,1.56,1.26,2.34,2.32l-.07-.02c1.61,3.65,4.58,12.84,13.2,39.54-3.18,.13-4.75,.71-5.51,1.31-30.37-36.51-37.09-49.71-42.37-60.73h0Zm38.53,9.58c-2.44-.91-6.02-3.23-11.82-7.63-.07-.05-.15-.1-.23-.13l-.62-.52c-9.54-7.41-13.58-11.27-18.73-17.86l-2.13-5.92c19.08,1.4,26.58,3.17,29.48,4.22,.71,.8,1.81,3.59,8.44,20.45,2.13,5.41,2.17,5.51,1.37,7.83-.04,.02-.07,.04-.11,.06-.3,.16-.71,.39-.94,.36-1.97-.33-3.46-.58-4.71-.86h0Zm.55-37.81c-4.8,.64-18.03,1.55-34.84-4.42-.04-.35-.07-.7-.11-1.05,25.71-22.62,25.84-22.73,47.38-43.69l3.39-.37h.13s.09,0,.13-.01c.03,0,.07-.02,.1-.03l.67-.07c.14,0,.26-.08,.35-.17,2.07-.35,4.35,.07,6.53,1.23,3.19,1.69,5.67,4.71,6.65,8.07,.54,1.86,1.32,6.33,.79,15.89h-.01c-.1,.06-.16,.16-.18,.28-.34,3.8-23.26,19.34-30.98,24.34h0Zm6.58,8.64c.18-.25,20.62-24.23,29.09-20.83q33.43,13.43,38.14,42.53c1.33,8.52,1.89,14.6,2.6,22.28l-.44,.88c-15.23,4.58-24.13,4.83-32.77,1.16-28.46-20.01-28.5-20.08-30.64-24.51-4.87-11.43-7.1-19.48-5.98-21.51Zm28.98-27.68c.24-2.87,.9-11.17,.96-17.74,0-.12,0-.13,.15-.19,1.46-.29,1.46-.28,1.93,.18,10.5,11.42,12.12,14.33,20.53,24.11l2.46,2.09c-2.59,.76-5.09,.24-7.02-.34-3.05-.9-5.88-2.42-8.62-3.89-1.55-.83-3.16-1.69-4.79-2.43-.02-.01-.05-.02-.08-.02-1.81-.77-3.2-1.32-5.52-1.77Zm20.71-19.16s.01,.06,.03,.09c4.58,6.71,7.26,12.66,10.17,22.59-.29,.01-.59,.04-.9,.07-.96,.1-1.96,.2-2.42-.24l-22.89-25.14c-2.22-2.59-2.42-3.93-3.23-9.58-.14-.91-.26-1.71-.19-1.92,.16,0,.57,.1,.98,.22,3.68,1.04,7.14,2.8,10.56,5.4,2.82,2.14,5.09,5.11,7.9,8.58-.01-.03-.01-.04-.01-.07Zm75.34,32.4c4.61,2.39,15.66,24.18,20.77,36.22,1.77,4.36,4.42,10.92,3.07,14.08-2.28,.56-3.25,.76-3.91,.16-.75-.69-1.28-2.54-2.2-5.89l.09-.07-2.38-8.53s0,0-.01-.02c-6.5-17.36-7.68-20.52-15.56-34.8l.13-1.15Zm-6.1-9.76l-.5-.57-2.06-2.41-.49-.59c-1.4-1.69-2.76-3.45-4.07-5.16-1.57-2.04-3.2-4.15-4.9-6.15-1.85-2.17-3.15-3.45-4.2-4.49l-.12-.12c1.63,.43,5.23,1.93,11.69,8.82,7.2,7.68,10.7,15.25,11.21,17.25-1.43-1.07-5.35-5.23-6.56-6.58Zm-21.51,131.36c-.09,.03-.05,0,0,0-1.67-2.21-6.26-15.62-2.26-23.47,8.24-9.69,8.83-10.36,9.89-10.57,2.23,3.9,6.76,13.37,4.04,22.02-1.62,5.12-5.55,9.17-11.67,12.02,.01,0,.01,.02,0,0Zm-46.73,123.53l1.95-2.04,2.47-.98c5.08-2.01,10.82-4.29,15.42-6.08l.81,.18c.48,4.59,.62,9.64-2.29,19.96-.99,3.19-1.72,5.29-2.67,7.72-.22,.4-.44,.8-.65,1.2l-5.53,12.31c-.76,1.6-.9,1.88-2.17,4.96-1.88-5.64-2.03-6.61-5.11-26.15-.79-4.69-1.32-7.34-2.23-11.08Zm-.28,59.47s-.49,1.33-1.29,2.65c-4.16,6.85-12.42,8.58-14.44,8.67-2.37-.1-2.43-.12-5.44-4.97q17.42-9.06,19.14-9.54c.49-.13,1.68-.39,2.2,.17,.44,.48,.38,1.52-.17,3.02Zm3.97-68.83h-.14c-5.03-.12-5.13-.12-9.5-6.26,.04-.04,.06-.08,.08-.13,.05-.12,.03-.25-.05-.35-.19-.25-.4-.49-.6-.73-.01-.02-.02-.03-.04-.04,3.58-.61,7.2-1.3,10.71-1.96,6.74-1.28,13.72-2.6,20.64-3.45,.26-.03,.46,.03,.59,.17,.15,.17,.21,.47,.15,.75-.5,.69-8.91,11.41-21.84,12h0Zm21.5-17.58c-5.07-3.74-5.34-16.09-.81-36.71,.04-.2,.16-.44,.28-.68,.04-.08,.07-.15,.1-.22l.72-.29c6.15,5.03,12.49,10.25,17.23,14.44l8.46,7.87,.25,.8c-4.22,6.62-8.68,10.06-12.08,12.3-3.22,1.8-9.93,5.6-14.15,2.49h0Zm26.64-5.95c1.87-1.67,3.64-2,4.74-2,.71,0,1.15,.14,1.15,.14,1.92,.91,3.49,5.87,3.55,6.34-.01,.11-.04,.27-.07,.38-.08,.25-.22,.43-.32,.56q-2.1,2.38-2.42,2.45l-11.44,1.92h-.13c-.23,0-.31-.1-.35-.23-.56-1.59,3.53-7.99,5.29-9.56h0Zm1.91-17.02l-.87,.05q-5.29-5.31-8.12-8.03c-.07-.07-.16-.1-.25-.1-.02,0-.04,0-.07,.01-.1,.02-.19,.08-.24,.17,.01-.12,.03-.25,.04-.37,.01-.11-.03-.23-.11-.3-17.64-16.69-26.5-25.06-25.09-28.96,1.23-3.42,10.46-4.01,27.22-5.09h.01c.57-.04,1.36,.05,1.95,.24,5.12,22.2,5.44,23.61,7.71,39.85-.24,.94-1.46,1.95-2.18,2.53h0Zm-36.12,15.63c-.04,.27-.07,.57-.11,.87-.11,.93-.23,1.98-.5,2.74-2.23,6.33-12.41,8.09-18.27,8.58-6.22,.52-10.09-.15-10.12-.15-.3-.07-.44-.3-.65-.68-.2-.37-.43-.79-.93-.98-1.88-.72-3.84-1.2-5.74-1.67-2-.49-4.07-1-6.01-1.79-.12-.05-.26-.03-.37,.06-.46,.38-.59,.48-1.17,1.03-13.61-6.02-18.9-12.08-18.94-12.12-1.96-2.82-1.67-15.7-1.56-17.56,1.05-1.53,22.85-15.97,25.77-17.87,14.73-9.37,25.56-11.98,32.2-7.75,11.56,7.35,8.21,33.34,6.4,47.29h0Zm-15.7-54.02c-2.04-.18-4.15-.37-5.87-4.78-2.6-6.66-11.04-29.03-10.95-38.58,4.54-3.66,6.32-5.13,6.8-9.01,3.66-.07,37.71-.07,39.82,0l4.82,14.75c.39,.97,.78,1.96,1.12,2.95,.09,.92,.14,1.83,.13,2.69-.02,7.02-4.82,13.44-13.63,20.45-7.92,6.29-15.59,11.32-22.24,11.53Zm21.37-57.15h-2.89q-33.34-.02-34.29-6.86c-.01-.1-.07-.19-.15-.25-.47-.32-1.01-.92-1.32-1.46,6.25-18.69,11.31-33.39,55.57-20.68,3,.92,3.87,1.2,7.2,2.34l1.07,1.6c1.25,4.26-.59,9.46-5.44,15.46-6.28,6.72-11.45,9.3-19.75,9.85h0Zm-6.41-87.67c4.05,2.74,6.61,4.81,10.47,8.45,5.21,5.18,8.3,8.88,13.24,15.83q3.75,5.52,17.04,27.67c-1.29,1.26-2.95,1.72-4.7,2.2-1.55,.43-3.15,.87-4.48,1.92-2.14-.38-3.66-.72-8.26-2.43-.04-.02-.08-.02-.13-.02-.06,0-.12,0-.17,.04-.01,0-.01,0-.02,0-.03-.11-.11-.2-.22-.24q-15.63-6.07-19.3-29.41l-2.69-19.3c.13-1.1,.14-1.18-.78-4.72h0Zm1.9,24.13c1.66,10.74,2.23,16.9,2.33,18.15l-.38,.19-.53-2.26c-.5-4.72-1.1-9.96-2.09-16.19-2.34-14.19-3.6-19.5-4.38-22.04,.54,.99,1.02,2.69,2.28,7.18,1.16,5.54,1.83,9.18,2.77,14.97h0Zm30.96-.15c-.53-1.97-.55-2.03-.92-8.44,2.59,1.38,8.67,4.61,14.18,7.71,.19,.11,.39,.24,.6,.38,.48,.32,.97,.64,1.47,.79,23.07,13.13,23.83,13.88,24.35,16.25-9.76,7.89-17.41,10.89-23.38,9.15-8.49-2.47-12.46-14.36-16.3-25.84Zm20.39,37.92c7.58-3.95,21.3-7.3,27.36-3.33,.1,.06,.23,.18,.33,.28,.01,0,.05,.04,.06,.05,.22,.16,.23,.17,1.56,1.61l-.17,.53c-.77,2.46-.8,4.76-1.15,5.78-7.07,19.92-16.67,30.82-16.74,30.9-1.72,1.49-7.35,1.26-12.02,.26-3.14-.67-4.51-1.41-4.66-1.74q-.09-.19-.25-1.13c-.33-1.88-.06-8.42-2.23-18.26-1.54-6.85-2.19-9.69,7.91-14.95h0Zm16.22-37.86l-.25,5.07c-2.94-1.91-5.06-3.24-8.52-5.35-6.5-3.91-10.56-6.25-21.7-12.52-18.21-10.24-18.98-10.83-20.39-11.89-7.34-5.54-13.75-12.65-20.76-23.02q-2.37-3.66-8.05-14.57c-.6-1.49-.79-1.98-1.15-3.1l2.63,.11h.15c.26-.02,.63,.07,6.83,1.62,12.48,3.57,22.33,6.39,45.14,20.5,9.99,6.13,14.55,8.92,26.07,43.15h0Zm-130.29,14.53c.26,.14,.45,.4,.64,.68,.22,.31,.46,.66,.86,.89,.87,.49,1.8,.82,2.71,1.14,.93,.33,1.89,.68,2.75,1.18,3.1,1.82,5.85,4.21,8.51,6.52,1.58,1.37,3.21,2.79,4.9,4.08,.03,.02,.05,.04,.08,.05l8.02,3.27c.81,.28,.81,1.04,.81,1.14-.01,.09-.04,.23-.06,.3l-.83,2c-2.28,5.53-5.12,12.38-7.39,17.64-.83,0-1.01,.32-1.81,2.1-5.54,.89-9.56,1.53-11.97,1.07-.4-.07-.41-.07-2.56,.9-1.33-.68-2.82-1.52-3.99-4.22-1.92-4.41-3.26-9.09-4.57-13.62-.72-2.5-1.46-5.09-2.3-7.61q-1.52-4.62-3.7-11.08-1.65-4.84-.99-5.28c1.26-.83,5.58-1.49,8.46-1.49,1.11,.02,2.01,.11,2.43,.34h0Zm5.72,58.71q14.26,3.94,16.36,9.8c.04,.12,.14,.2,.26,.23s.25,0,.34-.09l.19-.19c7.24,21,10.65,32.86,10.15,35.23-.85,4-20.73,17.06-32.34,24.15-5.39,3.29-9.15,4.01-14.17,4.18-3.15-.06-5.27-.36-8.77-1.23v-1.7c.99-3.92,11.12-42.37,27.98-70.38h0Zm-17.45,96.64c-7.33-7.68-19.04-7.41-19.18-7.41-4,.36-6.89,1.58-8.98,3.2,6.9-7.76,10.92-12.42,16.28-18.78,15.51,4.1,20.11,.89,39.15-12.44,15.09-10.56,15.73-11.01,17.81-11.13,.21,.76,.44,1.7,.61,2.47-2.08,2.51-4.92,4.01-7.67,5.47-1.43,.76-2.91,1.54-4.27,2.46-26.44,17.23-26.52,18.01-26.7,19.71-1.6,15.23-2.15,20.43,21.05,30.81-.5,.64-1.06,1.41-1.49,2.04-2.75-.19-4.91-1.94-7.19-3.79-3.24-2.63-6.59-5.35-11.74-3.18-.03,.01-.05,.03-.07,.04-.64,.47-1.56,2.7-1.94,5.63-.15-6.22-2.04-11.3-5.67-15.1h0Zm2.08,18.14c-.56,7.29-1.27,7.41-1.86,7.52-8.56,.7-21.64,1.77-22.25,1.81-5.61-.47-5.99-1.96-7.68-15.27-.84-6.59,.47-10.94,4.11-13.69,2.09-1.58,5.05-2.26,8.16-2.26,3.65,0,7.51,.95,10.36,2.51,6.59,3.6,9.84,10.48,9.16,19.38h0Zm5.99-6.9c.09-.08,.27-.17,.31-.19,2.08-.87,2.66-1.12,2.97-1.12,.12,0,.2,.04,.31,.09,.37,.17,9.06,4.17,13.72,8.8-.01,.03-.03,.06-.04,.08,1.25,1.34,.85,4.73,.52,7.07-.62,4.53-.6,5.57-1.58,6.26-.51,.35-.96,.58-1.35,.74l-1.2,.33c-.1,.01-.2,.02-.27,.03-.57-.12-8.92-1.91-11.27-5.84-.28-.47-1.23-2.31-1.74-6.44-1.12-9.16-.67-9.55-.38-9.81h0Zm18.48,28.28c.25,.21,.46,.39,.62,.53l6.28,7.11,.31,3.15c-1.69,22.87-4,34.5-6.44,46.8-.3,.8-.89,.76-1.06,.74-11.81-6.53-19.22-11.27-19.83-12.71-.26-.61-.13-1.9,3.25-34.77,.8-7.76,12.16-9.73,16.87-10.85h0Zm7.02-5.13c-1.17-1.53-1.03-4.62,.47-10.63,3.08-.17,4.93,.23,6.14,1.34,1.59,1.44,2.29,4.2,2.48,9.8-.2,.05-.41,.1-.58,.14-2.75,.63-4.1,.66-4.9,.68-1.8-.05-2.95-.47-3.61-1.33h0Zm10.03,8.7c2.49,1.49,2.53,1.62,4.33,7.36,4.44,14.9,6.23,23.89,7.3,36.82-6.73,3.61-10.84,5.8-22.51,11.99l-.56-.47c-.24-.2-.34-.29-.38-.33-.03-.04-.06-.08-.1-.11-.14-.09-.31-.08-.44,.02l-.05,.04c-.13,.11-.28,.24-.44,.36l1.66-8.3c2.92-13.68,4.41-23.05,6.38-40.1,.55-5.03,.56-5.1,4.81-7.28h0Zm-11.49,81.39c2.53-2.86,5.93-4.59,9.22-6.26,2.55-1.29,5.18-2.62,7.43-4.48,2.6-.64,3.64-.79,5.8-.96,.07-.01,.13-.03,.18-.07,.04-.03,.07-.05,.11-.08,.07,.07,.17,.11,.28,.11,10.06-.55,14.8,1.29,17.41,2.42-3.29,5.22-28.9,22.6-39.64,24.89-1.8,.38-3.08,.31-3.73-.22v-.04c-.34-1.61-.57-3.02-.7-4.3,.36-2.33,1.25-4.6,2.12-6.79,.53-1.36,1.09-2.78,1.52-4.22h0Zm34.55-15.68c-.3,.34-.76,.73-1.15,.95-2.99,.02-5.83,.02-8.84,.02h-3.35l.03-.03c.19-.19,.36-.36,.26-.61-.03-.07-.08-.13-.15-.17,1.69-1.8,3.71-3.26,5.67-4.68,1.1-.8,2.25-1.62,3.32-2.5,2.67-.89,4.49-1.24,7.18-1.35l-2.97,8.37Zm1.49-11.6c-.23,.08-.33,.07-.33,.07,0-.01-.01-.04-.01-.09,.01-.12,0-.26,0-.4-.01-.24-.02-.5,.04-.66,.12-.31,.33-.58,.54-.87,.21-.28,.42-.57,.57-.91,.05-.12,.09-.24,.12-.36,.04-.13,.07-.24,.1-.29,.1-.12,1.15-1.14,1.72-1.55,2.32-1.67,3.93-1.97,6.62-1.97h.12c.98,0,1.68,0,1.94,.05v.03q-.38,1.75-.55,1.99c-.28,.39-.62,.56-.76,.63-.98,.42-2.06,.9-3.17,1.4-2.39,1.08-4.85,2.18-6.95,2.93Zm-.5-12.36c-.4-.15-.86-.24-2.24-.49,1.53-3.99,12.81-33.56,12.93-33.88q5.25-13.83,6.22-15.57c2-3.59,4.31-6.5,6.86-8.66,.07-.06,.15-.11,.23-.17,.2-.14,.41-.29,.56-.5,6.26-4.92,15.67-8.15,22.63-4.29,4.9,2.73,10.3,9.97,8.17,29.02-1.02,7.99-3.89,14.79-8.51,20.23-5.28,3.81-14.14,8.01-28.14,14.53-6.26,1.11-15.28,.07-18.71-.22h0Zm54.89-75.74c.06,.01,.15,.03,.23,.13,.64,.94,1.37,1.98,2.12,3.04,1.63,2.31,3.31,4.7,4.56,6.76,.14,.22,.09,.61-.02,.9-.35,.91-.66,1.11-3.11,1.14-1.17-.03-3.61-.08-4.58-2.72-.75-2.05-.86-8.05,.28-9.03,.18-.15,.37-.23,.52-.22h0Zm.57,61.41c-.24-.7-.09-1.43,3.73-20.09h0c2.73-13.85,2.93-14.88,4.66-16.22,1.07,4.85,2.47,11.28,2.75,16.13-.11,4.01-.39,11.58-1.11,17.29-1.08,2.19-5.18,4.42-7.87,4.28-1.13-.06-1.86-.53-2.16-1.39h0Zm7.35-76.9c-.47-.2-.99-.44-1.44-.66,1.24-6.92,2.34-13,3.29-18.59-.95,9.74-1.67,17.27-1.85,19.25Zm-5.83,2.61c-1.85-.18-6.04-.63-7.57-6-.06-.2-.12-.41-.19-.64-.16-.53-.34-1.13-.43-1.6l-10.29-57.98c-.96-7.28,7.5-15.27,7.87-15.6,4.36-4.07,9.97-5.53,14.53-5.53,2.35,0,4.42,.39,5.9,1.01,1.28,.54,2.02,1.22,2.04,1.85-1.34,63.21-10.58,83.82-11.86,84.49h0Zm28.03-136.82c.6-.85,1.13-1.75,1.64-2.61,.7-1.18,1.36-2.29,2.18-3.32,.22-.28,.7-.85,.98-.78,1.57,.45,6.25,8.91,7.26,11.07-.02,.06-.04,.12-.05,.18-.15,.69-.3,1.37-.45,2.06-4.83-2.82-8.03-4.64-11.56-6.6h0Zm-13.59-72.54c9.78,14.03,13.86,24.18,17.43,43.36,.45,2.52,.55,3.07,1.07,6.08l-.48,.02c-.28-.54-.51-1.04-2.68-5.58l-.36-.74c-3.46-7.03-7.37-13.96-11.16-20.66-4.74-8.38-9.63-17.05-13.67-25.99,3.15,1.03,6.96,2.3,9.85,3.51Zm-6.51-6.13s.04,.05,.06,.07c-6.3-2.16-6.32-2.19-7.05-2.97-6.05-6.39-8.28-8.74-8.98-9.55,2.93,.61,13.92,10.11,15.97,12.45Zm-18.92-20.29c.1-.01,.18-.05,.25-.12,3.79,3.35,11.99,11.95,17.63,17.97-4.31-4.04-13.36-11.68-16.32-11.68h-.02c-.25,.02-.31,.03-.49,.16-.08,.06-.14,.15-.15,.25-.04,.27-.05,.41,.96,1.57-3.79-3.32-6.46-4.86-9.31-5.51-.11-.03-.23,0-.32,.08-.09,.07-.13,.18-.13,.3,.06,1.11,.13,1.18,1.77,2.81l6.69,7.82c-1.27-1.35-2.44-1.97-3.05-1.97h-.03s-.04,0-.06,.01c-1.58,.32-2.35,1.44-3.1,2.53-.4,.58-.77,1.12-1.26,1.54-.02,.01-.03,.03-.05,.05-.11,.14-.23,.38-.19,.74,.11,.95,1.31,2.27,2.08,2.87,2.81,2.16,5.86,4.03,8.81,5.84,1.81,1.11,3.68,2.26,5.48,3.46,.52,.33,.94,.5,1.28,.5,.17,0,.32-.04,.45-.13,.16-.11,.4-.37,.3-.93-.27-1.44-8.23-11.49-10.02-13.72l5.94,6.94,.48,.58c.39,.46,.89,1.05,1.59,1.84l6.73,7.87c-.12-.03-.25,0-.34,.09l-1.16,1.1c-.09,.08-.13,.2-.11,.32,.11,.69,.29,1.39,.52,2.1-3.52-5.13-8.11-7.74-12.55-10.27-21.34-12.91-25.02-14.08-45.47-20.56l12.55,2.99s.05,.01,.08,.01l.58,.02c.12,0,.25-.06,.32-.16l.34-.5c.06-.09,.08-.21,.04-.32-.07-.22-.14-.41-.27-.66,1.53,1.38,3.18,2.66,4.99,3.74,.1,.06,11.23,6.03,13.75,6.27,.08,0,4.2-.34,6.41-4.55,.6-1.14,.61-2.77-3.37-6.91-1.47-1.52-3.24-3.04-5.22-4.53,2.33,1.25,3.26,1.51,3.69,1.51,.18,0,.27-.05,.34-.08,.15-.08,.25-.23,.27-.39,.01-.05,.01-.11,0-.17l.51,.21c2.78,1.98,6.6,4.04,7.6,4.04,.04,0,.07,0,.1-.01,.13-.03,.24-.13,.28-.26,.11-.42-.04-.77-1.31-2.41-.97-1.26-1.03-1.33-1.75-1.96-.15-.13-.27-.24-.4-.34,.84,.18,1.86,.13,3.64,.01h0Zm9.34,27.24c-1.62-1.06-3.29-2.1-4.9-3.11-2.96-1.85-6.02-3.76-8.91-5.82-.48-.34-.95-.95-.95-1.15,.4-.39,.79-.84,1.21-1.32,.84-.97,1.71-1.98,2.65-2.46,.21,0,.88,.52,1.23,.94,6.35,8.36,8.96,11.78,9.67,12.92Zm-22.18-29.41c.99,.85,1.57,1.38,1.9,1.72-.75-.25-2.06-.82-4.07-2.08-1.95-1.21-6.23-3.99-7.93-5.35,1.79,.49,5.64,1.9,10.1,5.71Zm4.05,7.02c2.3,2.42,3.16,4.46,2.58,6.05-.88,2.41-4.88,3.15-5.31,3.22-1.02-.23-11.57-4.73-15.96-8.21-3.23-2.56-5.97-5.7-8.62-8.73-1.98-2.26-4.02-4.61-6.26-6.7-1.01-.94-2.07-1.84-3.1-2.71-1.27-1.08-2.59-2.19-3.79-3.38,1.9,.04,8.43,1.93,16.58,5.5,6.2,2.71,17.53,8.25,23.88,14.96h0Zm-33.61-20.88c5.71,2.75,11.66,5.11,18.04,6.37h0l.63,.3c-.8-.21-1.26-.27-1.27-.27-.08,0-.15,.03-.22,.08l-.09,.07c-.09,.07-.15,.18-.14,.3l-25.23-7.87c-.08,0-.16,.02-.23,.07l-.2,.15c-.12,.09-.17,.25-.13,.4,.1,.33,.16,.51,.36,.75-3.18-2-6.87-3.58-12.34-5.5,6.08,1.98,15.89,4.31,20.82,5.15h0Zm-28.72-6.63q20.45,6.71,34.41,21.82l.13,.15c.71,.77,4.51,5.02,5.49,6.44l-.03,.04-5.3-1.36q-19.01-4.79-20.67-6.11s-.11-.06-.17-.07c-.05-.07-.09-.13-.14-.2-.01-.02-.02-.03-.04-.05-5.71-5.82-11.83-12.23-18.33-21.03-.07-.1-.15-.21-.24-.33-.17-.24-.35-.49-.54-.72,0,0,0,0-.01,0-.03-.04-.06-.08-.08-.12l5.52,1.55Zm-7.91-.34c.65,.75,1.37,1.56,2.12,2.4,2.1,2.37,4.49,5.05,6.14,7.35,.03,.04,.05,.07,.06,.1-.03,0-.07-.02-.14-.05-8.08-3.3-10.8-4.41-10.99-4.77,0-.02,.02-.07,.03-.11,.14-.36,.29-.75,.45-1.15,.55-1.39,1.16-2.95,1.47-4.29,.2,.05,.52,.19,.86,.52Zm-7.71,5.7c1.2-2.46,.3-4.78,.25-4.91-3.83-8.51-23.73-12.94-27.14-13.64l-.98-4.21c12.45,4.2,18.35,5.8,21.13,6.4l10.81,3.94c1.14,1.07,1.51,3.16,1.29,5.39-.36,.1,0,0-1.38,4.38-.06,.2-.19,.45-.32,.69l-.17,.34s-.01,.03-.02,.04c-.37,1.09,1.08,2.27,1.65,2.58q.14,.08,10.72,4.44c.38,.15,.68,.21,.92,.21,.38,0,.61-.14,.73-.26,.2-.2,.28-.48,.22-.8,2.39,2.84,4.9,5.71,7.13,8.07l-.02-.02,.65,.73c-4.65-4.67-8.75-7.14-11.63-8.42-4.01-1.79-6.71-1.79-6.92-1.73-.17,.05-.27,.21-.26,.38q.1,1.23,.31,2.48c1.16,8.55,1.34,9.91,24.99,34.4l1.57,4.67c-12.38-13.93-15.09-18.46-22.31-26.13-.02-.02-.04-.03-.05-.05-1.53-1.12-1.78-1.13-3.66-.79-.06,.01-.13,.04-.18,.08l-.78,.67c-.08,.07-.12,.16-.13,.26-.07,2.39-.37,10.56-1.01,17.22l-1.17-.5,.08-1.09c.77-11.69,.35-19.89-4.15-24.63-2.6-2.74-6.53-4.22-12.21-4.57l-.4-.2c2.52-.15,4.69-.5,6.5-1.06,2.48-.4,4.71-1.39,5.94-4.36h0ZM84.62,141.04c-.05-.09-.12-.17-.21-.22l.16-.31,.14,.02c.25,.03,.5-.11,.61-.34,.78-1.68,1.35-3.16,1.77-4.63l.02-.09,5.41-6.87,.17-.09c.1,.44,.21,.93,.31,1.4,.05,.22,.22,.4,.45,.45,.22,.05,.46-.02,.6-.2,5.37-6.51,7.96-9.83,11.55-14.78,3.65-5.27,10.37-16.08,14.42-29.34l.07-.29,2.44-5.72,2.93-2.51s.03-.03,.05-.04c.62-.66,1.4-1.48,2.2-2.19,0-.01,.02-.02,.04-.03l.07-.06,.02-.02c3.64-3.19,5.83-5.04,7.29-6.26,1.81-1.52,2.42-2.03,3.1-2.88,1.62-2,2.24-3.7,1.74-4.79-.03-.07-.08-.13-.12-.19l-.53,.38c-.68-7.76-7.91-22.12-10.06-26.24h3.23c3.12,7.42,7.62,18.7,7.62,20.34,0,.61,.33,.8,.53,.86,.58,.16,.99-.43,1.34-.99,1.43-2.33,4.67-10.32,3.06-13.94l3.52-.53c-.68,1.76-2.17,5.67-3.56,9.7-2.94,8.58-3.23,11.28-3.07,12.31-.03,.13,0,.26,.04,.38,.02,.05,.09,.17,.25,.34,.07,.09,.15,.17,.24,.23,.21,.18,.5,.4,.92,.66,1.73,1.07,4.48,1.45,6.43,1.45,.6,0,1.12-.04,1.51-.1,.06,0,.13-.01,.19-.02l.07-.02s.02-.01,.02-.01h.02c.6-.19,1.53-.54,2.61-1.4,3.25-2.59,6.46-5.34,9.57-7.99l.03-.03c2.99-2.56,6.09-5.2,9.21-7.7l1.04-.83c.2-.16,.28-.44,.19-.68-.24-.65-.4-1.22-.37-3.27,.02-1.62,.04-2.8-.75-3.54l-.07,.03,1.53-4c.06,3.3,.35,7.61,1.45,8.53,.2,.17,.44,.26,.69,.26,.07,0,.14-.01,.2-.02,.18-.03,.33-.15,.41-.3,.48-.89,2.84-5.4,2.54-7.04-.21-1.14-.47-20.87,.4-31.64,.18-2.25,4.49-4.12,6.58-4.75-2.54,4.21-4.14,10.72-4.76,19.37-.5,6.98-.15,12.85-.15,12.91,0,.1,.04,.18,.08,.26,.19,3.23,1.62,5.21,7.21,7.68,.13,.18,.36,.27,.58,.24,1.59,.59,3.61,.83,5.29,.83,.54,0,1.04-.02,1.47-.07,.1-.01,.2-.05,.29-.11,5.08-3.62,6.57-4.72,8.98-6.54,8.09-6.23,13.93-10.73,16.1-14.51,.08-.13,.1-.29,.06-.44-.1-.41-.5-2.07-1.99-8.22l-.4-1.65s0-.11-.02-.16v-.95l1.53-3.72,1.25-.34c.11-.03,1.34-.32,4.52-.99l1.9-.38c-3.76,1.25-4.38,2.03-5.73,4.05-.03,.05-.06,.11-.08,.17-.19,.69-.22,.9-.29,1.56v.05c0,2.11,.56,3.57,1.71,4.33,2.16,1.44,5.7-.05,7.24-.7,.09-.04,9.16-4.57,8.94-8.25-.09-1.51,0-2.49,2.47-3.65l.24-.09c.17-.02,.34-.05,.52-.07-.61,.42-1.26,.99-1.35,1.54-.06,.39,.12,.6,.23,.7,.08,.07,.2,.14,.4,.18-3.47,5.65-4.91,10.51-4.26,14.47-.08,2.16,0,4.44,.28,6.77,.41,3.78,.54,5.06,.85,5.54l-.85,4.91c-.06,.06-.11,.12-.14,.2-.41,.93-4.26,9.71-12.58,30.76-.06,.15-.06,.31,0,.46s.18,.26,.33,.32l1.23,.47c.17,.06,.35,.05,.51-.03,10.05-5.56,40.31-32.46,42.06-35.91,.14-.27,.05-.54-.04-.83-.01-.03-.02-.07-.03-.1,.01-.06,.01-.11,0-.17l1.44-.97c1.53,1.07,4.13,2.28,6.37,2.85-.21,0-.41,.13-.51,.33-.15,.3-.03,.66,.26,.81h.02l-2.64,.3c-.13,0-.26,.07-.35,.17q-21.74,21.14-47.72,43.99c-.14,.13-.22,.32-.2,.51l.18,1.74c.02,.23,.18,.42,.39,.5,15.54,5.59,28.15,5.37,34.09,4.79-3.35,3.42-3.87,5.81-3.78,7.11-3.84-1.17-12.05-2.75-29.62-4-.21-.02-.4,.07-.52,.24-.12,.16-.16,.37-.09,.57l2.47,6.87c.02,.06,.05,.12,.09,.17,5.25,6.73,9.33,10.63,18.98,18.13l.7,.59c.06,.05,.14,.09,.22,.12,4.81,3.66,8.14,5.9,10.6,7.12v.18c7.05,2.47,8.07,2.29,9.66,.02l4.26,4.39c-5.58-.4-8.68,.16-10,1.79-1.37,1.68-.61,4.18,.27,7.09q2.08,6.17,3.69,11.07c2.32,7.01,6.27,19.83,7.82,24.91-1.07-.06-2.03-.1-2.9-.1-.23-1.43-.93-3.75-2.21-7.95-7.28-22.41-9.97-26.3-10.64-30.41,.04-.13,.04-.28-.02-.41-.01-.03-.03-.06-.05-.1v-.02h-.01c-.87-1.86-2.52-3.2-3.33-3.85l-.17-.14c-9.67-8.5-10.91-9.59-16.47-14.63-12.5-11.38-13.25-12.06-14.69-13.02-1.8-1.15-2.92-1.04-3.74-.96-.23,.02-.44,.04-.62,.03-.16-.01-.33,.04-.45,.15l-1.13,1.02c-.17,.15-.24,.39-.17,.61,.59,2.02,.81,2.72,1.75,5.32-.09,.26,.02,.56,.27,.7,.15,.49,.29,1.13,.44,1.84,.4,1.9,.9,4.25,2.21,6.33v.12c.03,.05,.02,.03,0,0,.24,.49,24.35,42.74,39.29,57.82l-2.85,2.15c-4.37-8.74-21.18-29.04-23.27-31.8-4.99-6.59-8.87-11.74-12.41-16.58l-.3-.41c-.19-.26-.38-.51-.56-.77l-1.42-1.29c-.35-.44-3.51-3.59-9.18-5.46-1.22-.5-3.24-1.2-5.43-.21l-.06,.03c-18.5,10.81-32.33,19.2-41.65,28.69l-9.06,5.74-3.3,1.84c1.18-2.04,2.39-4.99,4.02-9.53,.08-.21,.03-.45-.13-.62-.16-.16-.39-.23-.61-.16l-4.67,1.43c-.06,.02-.11,.05-.17,.08l-3.93,2.71s0,0,0,0c-13.04,9.09-13.7,9.61-14.04,11.15-.05,.21,.02,.42,.17,.57,1.01,.95,2.91,1.25,4.74,1.27-2.33,1.26-4.56,2.6-6.68,3.98-.26,.15-.53,.31-.79,.46-.17-2.6-.77-5.14-1.86-7.59-1-2.23-2.71-4.41-3.08-6.87-.1-.64-1.4-.37-1.54,.24-5.66,4.77-12.4,8.08-17.85,13.12-.08,.08-.27,.27-.11,.38,.82,.6,1.81,1.16,2.46,1.96,.79,.96,.66,1.94,.93,3.06,.46,1.92,2.76,.69,3.97,.11,1.12-.54,2.16-1.23,3.09-2.06,1.16-1.03,1.96-2.55,3.75-1.72,1.53,.71,2.85,2.01,4.02,3.37-1.67,1.17-3.27,2.36-4.79,3.59-.14-.44-.56-1.05-1.61-2.59-.22-.3-.52-.48-.84-.5h-.05c-.36,0-.73,.19-1.05,.55-2.8,3.15-6.03,7.36-8.89,11.1l-.04,.06c-1.18,1.54-2.29,2.99-3.35,4.34-.86,1.22-.58,1.73,.91,3.83-2.25,3.75-3.97,7.66-5.12,11.64-.2-.64-.4-1.1-.54-1.28-.02-.03-.05-.05-.07-.08-.15-.13-.4-.27-.78-.19-2.07,.43-5.93,7.1-6.5,8.42-1.64,3.75-2.19,7.21-1.87,11.55,.01,.13,.07,.25,.17,.35l1.66,3.38c-2.4,1.7-4.56,2.13-6.2,2.09,1.36-.98,1.48-2.48,1.64-4.36v-.11c-.45-4.19-2.59-14.89-12.65-23.68-1-.88-1.73-1.51-2.31-1.98l-.97-7.01c.74-1.21,1.72-4.96,2.84-10.92,.46-2.43,1.67-8.88,.02-13.92-.67-2.06-1.58-4.16-2.83-6.56l4.17-3.85s.08-.03,.12-.06c.47-.31,1.22-1.09,1.01-2.01,.04-.6,2.81-5.71,3.73-7.42l.47-.86c.08-.15,.09-.33,.04-.49-.04-.1-.1-.18-.17-.25l.13-.26c.27,.08,.57-.04,.7-.29,.63-1.17,1.11-2.1,1.53-2.93,.07-.28,.07-.49-.02-.66h0Zm-31.75-4.07c1.26-2.79,2.73-5.74,4.18-8.53,2.06-.78,8.03-3.16,14.66-7,6.91-4,15.87-10.38,21-18.76v3.16c-3.62,3.13-25.74,22.51-25.58,28.2,.12,4.35,9.52,6.31,15.79,7.14-.02,.12,0,.25,.06,.36,.05,.09,.12,.17,.21,.23-.26,.52-.56,1.08-.9,1.72-.28-.09-.59,.03-.72,.3l-.02,.05c-2.27-.89-5.42-2.02-8.89-2.99-9.28-2.58-16.31-2.79-20.88-.61-.4,.19-.78,.41-1.14,.64,.76-1.52,1.53-2.86,2.23-3.91Zm-3.93,7.53c.83-1.26,1.98-2.24,3.47-2.95,7.65-3.65,21.81,1,28.49,3.59-.05,.14-.06,.29,0,.43,.03,.09,.09,.17,.16,.23l-.17,.32c-4.02,7.41-3.96,7.68-3.83,8.23,.04,.19-.18,.47-.38,.64-.09,.03-.17,.07-.24,.14l-4.67,4.31c-.2,.18-.25,.48-.12,.72,1.34,2.51,2.28,4.66,2.97,6.77,1.55,4.75,.38,10.98-.06,13.33-1.75,9.28-2.64,10.48-2.73,10.59-2.48-2.28-12.07-11.99-15.39-28.13-.06-.27-1.36-6.76-1.2-11.26,.1-.98,.25-1.95,.44-2.88,.12-.45-.41-1.62-.5-2.28,.02-.07,.05-.14,.07-.21l-.83-.84c-.24,.74-.5,1.53-.8,2.38-1.28,3.63-1.34,3.8-3.76,6.9-.68,.79-2.88,2.77-4.65,5.28l-.15-3.29c.67-3.67,2.19-8.1,3.88-12.02h0Zm21.84,70.26c-.17,2.13-.34,4.83-.26,7.63-.37-1.2-.49-3.52-.87-10.84-.13-2.65-.48-5.31-1.09-8.12-.34-3.52-.81-4.91-1.97-7.03-1.7-5.03-3.95-9.96-6.12-14.73-3.23-7.1-6.57-14.44-8.17-22.2,0-.02,0-.05-.02-.07l-.47-1.1c-.04-.11-.14-.18-.25-.21l-.94-.23c-.7-1.51-.58-1.67,.23-2.72,1.23-1.6,2.47-3.99,3.51-6.66,.18,.23,.42,.49,.39,.6-.15,.63-.24,1.4-.27,2.31-1.24,11.98,3.48,25.76,12.62,36.86,4.2,5.1,3.56,7.76,3.83,10.54-.02,.16-.38,6.93-.15,15.97Zm-21.15-53.54s.06-.08,.08-.13c.15-.46,.16-.5,.27-1.38,.21-.1,.48-.2,.68-.11,.22,.1,.4,.41,.51,.91,1.17,5.69,2.1,16.66,12.73,35.2,.29,.5,.54,.95,.77,1.37,.8,2.38,1.43,4.62,1.92,6.84,.18,1.92,1.57,4.1,1.74,7.85,.1,1.79,.22,3.57,.34,5.36,.09,1.26,.01,3.91-.01,6.1,0,0-.01,0,0,.02v.13c-.01,.9-.01,1.7,.01,2.29,0-.08,.01-.19,.01-.31v.52h0c-.04,2.4-.3,3.8-1.06,4.58-.95,.97-2.77,1.14-6.25,1.12h-3.34c-2.71-.51-8.58-2.85-10.61-8.79-6.13-17.93-6.16-52.29,2.21-61.57Zm-24.24,78.41c-8.24-8.17-15.57-12.88-21.84-14.05l6.18-1.94c2.07,1.32,17.36,11.3,25.18,21.61,.36,2.11,.74,4.25,1.15,6.43-2.08-2.65-5.95-7.37-10.67-12.05Zm19.19,41.53c-1.01-2.87-1.95-5.68-2.78-8.37-.85-5.5-2.06-11.02-3.22-16.37-.45-2.05-.9-4.13-1.34-6.23,.16,.76,.34,1.52,.58,2.27,.51,1.56,1.16,3.1,1.79,4.58,.64,1.5,1.3,3.06,1.8,4.62l1.96,6.91c0,.1,1.19,9.7,1.61,13.43-.12-.25-.26-.53-.4-.84h0Zm17.91,12.98l-.14,1.84c-.28,2.18-.9,6.41-.4,12.89-8.87-11.64-12.98-19.7-13.25-20.23-.33-1.46-2.03-13.35-1.14-14.42l.43-.52c1.17,1.43,4.23,5.57,14,18.77,0,0,.25,.36,.43,1,.07,.32,.07,.49,.07,.67Zm-.71-9.47c-3.56-.3-14.2-18.33-14.82-19.56-.21-1.48,3-23.15,4.16-24.68,1.47-.31,15.41,.46,16.6,1.21,1.37,.87,3.34,5.96,3.97,11.87,.24,2.23,.45,4.49,.66,6.68,.19,1.97,.37,3.94,.58,5.9,.22,2.11,.31,2.89-1.21,4.99-1.5,2.04-2.87,4.2-4.2,6.3-1.38,2.18-2.81,4.44-4.38,6.54-.39,.53-.72,.71-1.36,.75h0Zm14.73,27.46c-4.92-5.25-7.87-8.83-8.55-10.35-.62-1.4-.65-1.44-1.93-3.13-.06-.18-.26-.89-.29-1.84,.17-3.18,.45-8.47,2.09-11.27,1.17-2,7.07-8.6,8.87-8.76,.15-.01,.18,.03,.2,.05,.55,.66,2.6,8.33,2.99,9.93,3.37,13.73,4.09,31.25,3.79,33.92-.77-.55-2.45-2.31-2.82-2.74q-3.74-5.16-4.35-5.81Zm-9.31,44.16l-.82-10.68c1.13-1.51,9.16-12.17,16.11-19.29,.5,.6,.93,1.18,1.29,1.76s.21,.15,.58,.18c-4.7,4.93-11.12,13.59-17.16,28.03Zm42.48-31.87c-.28,.64-.74,.87-1.76,.92-2.62-.08-18.53-8.35-19.58-9.74-.53-1.53-4.31-16.85-.24-20.49,2.21-1.97,7.75-6.36,11.46-4.43,2.09,1.09,15.12,16.79,15.32,18.43-.05,.91-4.88,14.48-5.2,15.31h0Zm3.88-.5c-.53-.38-.99-.71-1.61-1.14q4.54-13.8,4.01-14.81c-.11-.18-11.3-15.02-14.79-18.01-3.16-2.71-6.08-1.31-7.32-.71-6.68,3.21-12.45,5.98-7.31,24.99-.64-.15-1.13-.31-1.76-.58-.7-13.06-1.69-19.03-4.09-28.98,.16-.13,.28-.22,.4-.3,1.15,3.71,1.82,5.77,2.97,6.37,.38,.2,.79,.22,1.24,.08,.02-.01,.04-.01,.06-.02q9.2-4.84,10.72-4.2l8.25,3.31c12.29,16.06,13.74,16.93,14.91,17.62,1.01,.61,1.1,.66,15.6,.63,.29,.38,.46,.61,.66,.89-6.98-.85-18.72,.07-21.94,14.86h0Zm-.75,35.93c.19-3.18,3.37-9.27,3.85-10.01h.03c1.95,0,16.3,16.18,17.8,20.12,.65,1.71,.2,7.36,.08,8.4-.11,.83-.51,.9-1.02,.97-1.17-.21-16.73-6.76-18.03-9.03-2-3.54-2.91-7.05-2.71-10.45h0Zm27.73,39.74c-.17,.25-.6,.31-1.05,.36-2.81-.08-4.64-3.79-9.08-7.31-.11-.09-11.63-6.99-13.76-10.23-.16-.34-1.41-4.67-1.55-5.2,.03-.76,.18-1.33,1.46-1.35h.03c3.08,0,17,7.14,18.21,8.61,.12,.15,.21,.29,.26,.4,.36,.86,.61,1.78,.85,2.67,.22,.8,.45,1.64,.75,2.44,.48,1.25,1.12,2.44,1.75,3.58,.81,1.48,1.64,3.01,2.1,4.67,.17,.65,.18,1.13,.03,1.36h0Zm48.56,14.34c-9.52-.27-40.84-11.6-41.09-11.7-2.36-1.24-5.93-6.82-6.7-10.48-.23-1.1-.18-1.9,.16-2.32,.26-.32,.81-.6,1.96-.6,2.65,0,8.44,1.46,20.97,7.15,10.77,4.9,21.68,10.73,23.75,11.85,2.06,1.11,4.4,2.37,5.43,3.72,.33,.43,.43,.79,.3,1.07-.4,.85-2.76,1.27-4.78,1.31h0Zm5.85,2.62c3.09-.52,9.34,3.31,10.27,4.12,.06,.06,.1,.13,.15,.2,.02,.03,.04,.07,.07,.1-.25,.93-.74,1.16-1.43,1.2-.69-.09-1.5-.27-2.37-.51-3.28-1.14-7.27-3.68-7.94-4.41,.27-.38,.69-.61,1.25-.7h0Zm-19.99,5.53l1.08-2.11c.88,.18,2.97,.6,5.76,1.08-2.18-.14-4.5,.11-6.84,1.03Zm13.9,11.71v-3.96l5.31-2.69c.18-.09,.3-.27,.32-.46,.02-.2-.05-.4-.21-.53-.06-.05-3.74-3.12-8.89-4.49,1.86,.3,3.88,.59,5.96,.86,3.24,.42,6.17,.7,8.82,.87l.62,.44,3.57,.92s.08,.06,.18,.19c-5.1,1.31-10.9,3.88-15.68,8.85h0Zm39.2-43.03c-.64,.38-1.33,.79-2.05,1.22-2.37,1.41-5.04,2.99-7.2,4.35-.05-.11-1.96,.49-2.01,.38-1.72-2.18-2.49-3.93-2.29-5.22,.11-.73,.36-2.54,1.1-3.03,1.12-.38,2.38-.53,11.09-.39,.23,0,.55,.1,.77,.52,.68,1.6,.75,1.76,.76,1.84,0,.19-.07,.26-.17,.33h0Zm7.63-7.41c-1.36,1.38-3.24,1.38-5.23,1.39-5.16-.04-7.97-.16-15.66-.59l-.85-.05c-.1-.27-.2-.54-.3-.82-.03-.1-.11-.17-.2-.21-1.57-.66-1.7-1.06-2.3-2.95-.03-.1-.1-.18-.2-.22q-1.6-.73-2.62-4.01c-3.87-12.47-4.27-17.7-4.19-18.21,.64-3.82,8.88-6.91,11.98-8.08,6.63-2.49,6.9-2.58,7.25-2.52,.33,.06,.82,.42,4.57,4.73,3.56,4.1,9.57,12.51,9.76,22.81,.08,4.42-.58,7.28-2.01,8.73h0Zm-3.82-47.9c1.18-10.5,3.47-12.62,6.78-12.62,1.87,0,3.37,.77,5.85,2.05l21.75,10.83c3.76,4.43,.85,31.15,.4,34.05-.39,2.2-2.68,3.27-6.83,3.18-6.62-.14-13.05-3.19-18.09-8.61-6.82-7.31-10.41-17.83-9.86-28.88h0Zm10.15,48.04c-.24-.01-.45-.1-.59-.25-.12-.13-.17-.31-.16-.49,.14-.86,.25-1.82,.36-2.82,.25-2.14,.5-4.35,1.05-6.08,.05-.17,.19-.3,.36-.37,.09-.04,.18-.05,.28-.05,.15,0,.3,.04,.44,.12,.66,.38,1.4,.8,2.16,1.22,1.67,.93,3.39,1.89,4.73,2.8,.03,.02,.27,.2,.22,.55-.03,.25-.23,.38-.31,.44-7.41,4.36-8.36,4.92-8.54,4.93h0Zm21.03,29.42c-1.59-1.53-16.61-20.36-17.45-21.53-.49-.76-1.91-3.36,0-5.23,.51-.31,13.02-7.66,24.45,3.69,1.03,1.14,1.01,1.28,.79,2.33q-2.23,10.91-2.86,12.55c-1.97,5.06-4.29,7.8-4.94,8.19h0Zm13.36-22.31s-.07,0-.1,.01q-1.77,.51-7.42,16.39l-.71,.46c1.39-3.64,5.63-15.57,2.99-18.6-5.43-5.41-11.24-6.8-15.79-6.8-2.83,0-5.18,.54-6.64,.99-1.24,.38-1.58,.49-2.2-.18l4.84-3.07s.05-.04,.07-.06c.63-.69,1.08-1.19,.98-1.84-.17-1.1-1.81-2.06-7.9-5.64-.02-.01-.05-.03-.08-.03l-.75-.23c-.17-.87-.18-1.12-.18-3.61,6.73,5.43,16.12,7.81,21.25,5.29,2.49-1.22,3.73-3.45,3.58-6.44-.03-.69-.15-1.57-.24-2.27v-.09l.42-5.62q1.58-20.92-.38-24.03s-.02-.03-.03-.04c-.81-.95-24.46-14.03-29.79-14.03h-.06c-4.12,.26-6.91,2.73-8.09,14.24-.14,1.82-.17,2.46-.16,3.93-1.38-1.07-1.8-1.41-2.81-2.31l.32-.82c.02-.06,.03-.13,.02-.19,0-.08-.03-.15-.05-.22,.13-.02,.24-.11,.28-.24,7.36-20.51,6.01-29.97-.12-44.49,2.22-2.48,6.29-7.21,8.09-9.23-.83,1.36-3.45,5.3-3.79,6.63-.51,2.02,1.17,7.58,1.82,12.82,.48,3.91,1.53,10.86,4.07,12.88,1.2,.95,.4,1.5,3.84,1.5s9.98-.52,22.99-1.58c2.47,1.66,8.32,5.99,10.09,10.7-1.09,2.71-1.47,6.44-1.88,10.61q-3.42,34.45-3.02,35.46c.49,1.22,.88,2.19,20.31,13.31,.31,.18,.63,.25,.92,.25,.85,0,1.55-.56,1.65-.65,.3-.25,.55-.57,.72-.9,.98-1.97,1.34-4.6,1.68-7.13,.15-1.13,.3-2.21,.5-3.17,2.23-12.33,3.58-23.08,4.66-37.1,.17-2.33,.2-2.78,.27-3.92,.56-.43,1.24-.86,1.83-1.18,.11,.71,.04,1.34-.35,5.04-2.93,26.11-5.36,36.44-8.18,48.41-.01,.04-.01,.08-.01,.12,.04,.36,.1,.86,.3,1.26-2.58,2.35-3.82,3.81-5.12,6.01q-11.22-.58-12.64-.6h0Zm12.88,18.96c.33-.68,.67-1.15,1.46-2.01,.28,.04,.57,.07,.85,.1,.11,.01,.22-.03,.3-.1,.29-.29,.59-.58,.88-.87,.45-.44,.91-.89,1.35-1.35,1.64,.82,1.84,1.02,1.63,2.12-.02,.11,.01,.22,.09,.31,.03,.04,.07,.07,.12,.09-.09,.18-.19,.35-.33,.58l-4.45,7.03c-1.63,1.83-5.08,3.46-6.03,3.53,.59-1.46,3.89-8.91,4.13-9.43h0Zm-17.96,18.77c-.01-.5,.03-.52,.35-.71,1.22-.63,2.43-1.28,3.63-1.93,2.39-1.28,4.87-2.61,7.36-3.79-3.82,5.15-4.23,5.69-4.31,5.76-.08,.06-.35,.28-.64,.32l-6.39,.35Zm7.12,2.76c-.25,.08-.62,.25-1.53,.72l.16-.76c.03-.14-.03-.29-.15-.37-.92-.64-1.62-1.04-2.21-1.27,.94-.16,1.89-.3,2.7-.34,.03,0,.07-.01,.1-.02q1.48-.51,6.37-7c.09-.12,.1-.28,.02-.4l-.46-.79c-.1-.17-.31-.23-.48-.14l-2.03,1.04c-2.32,1.18-4.89,2.49-7.12,3.65,.84-.82,2.24-1.93,3.8-3.02,.2-.14,.41-.28,.61-.42,1.93-1.31,4.01-2.54,5.5-3.12l.09,.53c.02,.11,.08,.2,.18,.26l.81,.46c.09,.05,.2,.06,.3,.03,4.12-1.44,5.32-1.86,8.01-5.7-.52,1.54-.74,3.44-.47,6.17-.25,1.67-.22,3.23,.09,4.77,.01,.05,.03,.09,.06,.13,.01,.06,.04,.11,.08,.16,.85,.93,2.71,.96,5.21,.33-1.55,.68-3.69,1.66-5.61,2.69,.84-.67,.96-1.09,.94-1.38-.02-.3-.23-.55-.58-.67-.14-.05-.36-.1-.85-.09-1.42,.07-3.75,.81-5.85,1.69,.99-.53,2.12-1.15,3.4-1.85,0,0,.01,0,.01-.01,.16-.09,.37-.22,.52-.33,.44-.31,.95-.76,.93-1.18-.1-1.56-.57-3.7-1.18-5.33-.01-.03-.02-.05-.04-.07-.12-.19-.29-.36-.75-.36-1.96,.12-6.66,5.37-6.7,5.42-3.08,3.53-3.9,5.7-3.88,6.57h0Zm1.26-.6c.27-1.2,2.55-5.41,7.88-9.56,.5-.39,.84-.61,1.02-.67,1.31,4.75,1.29,4.76,.78,5.12-.07,.05-.18,.11-.24,.15-7.33,3.88-8.97,4.74-9.44,4.96h0Zm3.46,.12c1.45-.88,5.85-2.73,8.06-2.98,.17-.02,.31-.03,.42-.03,.28,0,.36,.05,.39,.04-.01,.05-.17,.58-2.6,1.85-1.75,.91-3.6,1.47-4.39,1.48-.07,.01-.28-.03-1.88-.36h0Zm14.89,13.64c-2.02-6.11-5.02-8.97-7.46-10.31,.75,.07,1.19-.02,3.53-.59,2.25,3.22,5.51,9.13,6.89,11.67l-2.96-.77Zm12.75-19.73c-1.6,.82-17.23,6.21-20.91,6.83,1.6-1.93,8.26-4.51,14.2-6.81,3.55-1.38,5.97-2.07,7.2-2.07,.31,0,.55,.04,.71,.13,.08,.04,.11,.09,.13,.14-.01,.2-.15,1.18-1.33,1.78h0Zm38.55-11.61c.08-.04,.17-.08,.24-.12-.04,.03-.13,.08-.24,.12Zm7.22-6.32c-7.04,4.59-16.17,8.94-19.17,10.37-5.26,2.46-9.34,4.17-12.01,5.25,2.54-1.47,6.59-3.74,12.38-6.81,2.17-1.15,6.2-3.3,11.78-6.54,1.75-1.02,3.48-2.12,5.15-3.18,2.17-1.38,4.42-2.81,6.72-4.06,.1-.06,.24-.11,.35-.11,.04,0,.07,.01,.11,.02,.12,.05,.19,.21,.22,.29-.04,.32-.56,1.53-5.53,4.77h0Zm-4.46-1.18c-10.85,6.66-19.66,11.3-26.18,13.8-1.76,.61-3.17,1.07-4.29,1.43-1.69,.46-3.15,.72-4.33,.76-.42-.01-.52-.01-.66-.06-.74-1.84-.71-1.86,.53-2.88,.14-.11,16.08-12.49,25.16-17.78,1.91-1.11,4.18-2.18,6.74-3.17,2.44-.94,4.99-1.7,7.46-2.44,2.92-.87,5.93-1.77,8.81-2.98,4.42-1.86,6.59-2.77,7.64-3.21-1.05,1.34-3.65,4.03-7.09,6.88-4.74,3.94-9.97,7.24-13.79,9.65h0Zm21.42-10.89c-1.37,1.29-2.78,2.63-4.1,4.01-1.12,.83-2.22,1.61-3,2.15,.23-1.1,1.31-6.5,9.53-9.09,.26,.08,.33,.16,.35,.25-.91,.91-1.86,1.81-2.78,2.68Zm2.07-10.16c-.72,.43-20.31,11.79-38.84,11.82-.5-.06-1.18-.13-1.48-.56-.2-.29-.24-.73-.11-1.28,.25-.66,3.87-9.07,4.58-9.68,2.82-2.41,11.26-6.6,19.21-9.53,7.09-2.61,12.92-3.98,16.77-3.98,1.52,0,2.74,.21,3.61,.65,1.17,.58,1.7,1.55,1.61,2.96-.21,3.26-4.43,8.66-5.35,9.6h0Zm11.81,3.4c-.05,.1-.38,.46-.87,.87-.54,.45-4.09,2.95-5.56,3.79,.21-.46,.62-1.22,1.15-2.19,.79-1.49,2.95-3.12,4.19-3.96h.01c.81-.5,1.2-.64,1.37-.67,.07,.43-.14,1.68-.29,2.16Zm35.75-26.5l4.07-.21c-5.5,3.87-22.89,16.08-30.7,21.45l-.46,.19c-.49,.19-1.12,.43-1.67,.63,5.94-4.28,25.19-18.29,28.76-22.06h0Zm-41.52,26.39c-1.9,1.26-2.74,.84-3.54,.16l3.61-3.89s.05-.02,.07-.07l-.07,.07s.06-.07,.08-.11c0,.02-.01,.03-.01,.04l8.36-7.75s-.02-.03,.02-.02c2.3-2.15,3.25-2.45,4.23-3.27l.32-.33s.03,.13,.03,.23c-6.34,7.68-10.53,12.59-13.1,14.94h0Zm17.58-27.6c-.19,.17-.45,.41-.48,.81-.1,1.17-1.13,2.8-1.47,3.34-1.54,2.44-6.62,8.43-6.66,8.48-5.39,5.87-5.45,5.93-6.06,6.22-.7,.28-1.11,.45-1.36,.55,1-3.32,1.95-6.99,2.65-10.14,.98-3.14,1.52-4.67,1.98-5.58,2.78-2.3,9.04-4.93,11.05-4.63,.22,.03,.38,.1,.44,.19,.09,.14,.12,.4,.13,.54-.06,.07-.14,.14-.22,.22Zm1.08-67.88c-1.08-1.41-3.79-6.79-3.39-14.71,.38-7.48,1.72-14.95,3.02-22.19,1.12-6.22,2.28-12.65,2.82-19.07,.39-4.64,.49-9.38,.58-13.96,.15-7.4,.31-15.05,1.71-22.48,1.83-9.68,7.12-17.78,12.23-25.61,2.7-4.14,5.49-8.41,7.76-12.89l2.64-2.05c13.79,11.71,29.21,25.26,24.34,73.99-.58,5.81-8.84,20.68-25.59,39.61-14.78,16.7-20.2,21.87-22.97,21.87h-.08c-1.18-.05-1.97-1.08-3.07-2.51h0Zm2.98,62.58c-2.93-4.24-1.75-8.28-.49-12.56,.65-2.2,1.31-4.48,1.35-6.77,.06-19.83,.07-25.3,.18-26.56,2.66,1.88,18.16,15.16,16.27,26.14-.01,.05-.01,.11,.01,.16-.04,.04-.07,.08-.09,.13-1.34,3.46-10.15,17.19-17.23,19.46Zm43.36-33.82c-.93,.69-3.72,3.41-14.85,14.23-6.49,6.25-13.68,13.29-20.23,20.06l.09-.76c1.08-1.19,2.44-2.71,4.19-4.65,1.22-1.61,1.25-1.65,1.94-3.88l1.52-2.71c2.47-.11,4.41-.37,11.51-7.54,7.55-7.84,10.95-11.38,13.17-15.47-.11,.67-.03,1,.11,1.39,.06,.17,.3,.27,.47,.23l2.08-.9Zm3.69-19.45c-2.96,13.28-7.93,20.8-20.64,33.68-4.08,3.99-6.23,5.56-8.46,6.08l2.3-4.09c.27-.46,.63-1.08,.9-1.55,9.66-16.22,16.39-27.02,25.9-34.12h0Z"/></g></g></svg>