<?xml version="1.0" encoding="UTF-8"?><svg id="Layer_2" xmlns="http://www.w3.org/2000/svg" viewBox="0 0 206.55 37.97"><defs><style>.cls-1{fill:#fff;}</style></defs><g id="Capa_1"><g><g><rect class="cls-1" x="71.75" width=".34" height="37.97"/><g><path class="cls-1" d="M2.54,20.62c0-6.83,7.44-6.25,7.44-6.25v-2.67c-6.79,.09-9.98,3.58-9.98,8.16v10.2H2.54v-9.44Z"/><path class="cls-1" d="M27.06,20.8c0,3.77-3.06,6.83-6.83,6.83s-6.83-3.06-6.83-6.83,3.06-6.83,6.83-6.83,6.83,3.06,6.83,6.83m2.54,.04c0-5.16-4.18-9.34-9.34-9.34s-9.34,4.18-9.34,9.34,4.18,9.34,9.34,9.34,9.34-4.18,9.34-9.34"/><path class="cls-1" d="M44.13,7.79V30.06h2.62V14.37s7.52-.62,7.52,6.2v9.5h2.54v-10.26c0-4.56-3.26-8.05-10.06-8.14v-3.88h-2.62Z"/><polygon class="cls-1" points="33.14 7.79 33.14 30.06 35.76 30.06 35.76 14.69 40.24 14.63 40.24 11.81 35.76 11.81 35.76 7.79 33.14 7.79"/></g></g><g><path class="cls-1" d="M89.24,15.85h.13c.22,0,.46,.23,.73,.7,.09,.16,.23,.5,.42,1,.19,.51,.35,.93,.48,1.26,.14,.33,.28,.73,.44,1.2,.16,.46,.28,.77,.35,.92,.07,.15,.2,.3,.39,.43s.28,.26,.28,.36-.06,.17-.19,.2c-.21,.05-.72,.08-1.53,.08-.37,0-.55-.08-.55-.24,0-.04,.03-.14,.09-.3,.06-.16,.09-.28,.09-.35,0-.36-.09-.66-.26-.91-.07-.1-.29-.15-.66-.15-.68,0-1.07,.02-1.16,.07-.09,.04-.18,.16-.27,.33-.09,.18-.14,.35-.14,.5s.04,.32,.13,.49c.08,.18,.13,.31,.13,.41,0,.12-.13,.18-.4,.18-.63,0-1.05-.03-1.26-.09-.14-.04-.2-.13-.2-.29,0-.02,.13-.15,.4-.38,.15-.13,.26-.3,.35-.51,.63-1.51,1.04-2.61,1.21-3.29,.17-.68,.32-1.12,.44-1.32,.12-.2,.31-.31,.58-.31Zm-.87,3.46v.04s.14,.05,.41,.05h.51c.4,0,.6-.02,.6-.07,0-.13-.12-.51-.37-1.16s-.38-.97-.39-.97c0,0-.14,.33-.39,.98s-.37,1.03-.37,1.13Z"/><path class="cls-1" d="M99.76,15.87h.3c.75,0,1.34,.14,1.76,.43s.63,.69,.63,1.22c0,.3-.06,.56-.18,.78-.12,.22-.25,.39-.37,.51-.29,.26-.43,.4-.43,.43,0,.11,.05,.25,.16,.43s.23,.39,.37,.64c.14,.25,.24,.41,.3,.49,.15,.21,.32,.35,.5,.43,.32,.14,.48,.24,.48,.31,0,.19-.08,.31-.24,.35-.23,.07-.49,.1-.79,.1s-.55-.09-.73-.28-.4-.54-.64-1.04c-.24-.51-.4-.8-.47-.89-.15-.19-.34-.29-.58-.29-.13,0-.22,.06-.26,.19s-.07,.45-.07,.95c0,.12,.06,.32,.19,.58l.16,.29c.08,.15,.12,.23,.12,.25,0,.15-.24,.23-.72,.23-.83,0-1.32-.02-1.46-.06-.14-.04-.21-.12-.21-.25s.09-.24,.27-.35c.18-.11,.29-.24,.33-.39,.04-.15,.06-.79,.06-1.93s-.02-1.81-.07-2.01-.12-.35-.24-.46c-.21-.2-.31-.33-.31-.38,0-.12,.12-.19,.37-.23,.24-.04,.84-.05,1.79-.05Zm.21,.59h-.14c-.2,0-.32,.03-.36,.08-.04,.05-.06,.2-.06,.42v1.6c0,.12,.02,.2,.08,.25,.05,.05,.16,.08,.33,.08h.31s.05-.01,.07-.01c.21,0,.41-.1,.61-.3s.3-.46,.3-.78v-.21c0-.32-.1-.58-.3-.8-.2-.22-.47-.33-.82-.33Z"/><path class="cls-1" d="M113.41,16.99c0,.3-.09,.44-.26,.44-.08,0-.26-.11-.55-.34-.29-.23-.53-.39-.72-.48-.19-.09-.41-.13-.66-.13h-.01c-.24,0-.47,.06-.68,.19-.61,.36-.92,1.12-.92,2.29,0,.33,.05,.66,.16,.98,.31,.94,.9,1.4,1.77,1.4h0c.4,0,.81-.15,1.24-.45,.28-.19,.43-.29,.48-.29,.14,0,.22,.07,.22,.2v.11c0,.07-.07,.2-.2,.41-.14,.21-.32,.36-.55,.47-.4,.18-.87,.28-1.41,.28h-.15c-.43,0-.83-.08-1.19-.24-.72-.32-1.22-.84-1.5-1.57-.15-.39-.22-.77-.22-1.14v-.31c0-.37,.07-.74,.22-1.12,.3-.79,.8-1.34,1.52-1.65,.38-.16,.75-.25,1.12-.25h.15c.93,0,1.54,.09,1.84,.26,.2,.11,.3,.43,.3,.93Z"/><path class="cls-1" d="M121.41,19.14c-.37,0-.6,.06-.67,.18-.05,.08-.08,.32-.08,.71s.02,.67,.07,.83c.05,.16,.13,.32,.26,.48,.12,.16,.19,.28,.19,.37s-.11,.15-.34,.19-.75,.06-1.58,.06c-.17,0-.28-.02-.34-.07s-.08-.14-.08-.28c0-.05,.07-.14,.22-.26,.15-.12,.24-.25,.27-.37s.05-.82,.05-2.09-.02-1.96-.06-2.09-.16-.25-.36-.38c-.14-.09-.21-.22-.21-.39l.1-.09c.12-.06,.66-.1,1.62-.1,.45,0,.67,.08,.67,.22,0,.07-.05,.21-.16,.43-.11,.22-.18,.39-.21,.53-.03,.13-.05,.43-.05,.88,0,.23,.05,.39,.16,.47,.06,.05,.41,.07,1.03,.07s.98-.03,1.07-.09c.09-.06,.14-.27,.14-.62s-.02-.6-.06-.76c-.04-.16-.12-.32-.24-.5-.12-.17-.18-.28-.18-.32,0-.11,.1-.19,.31-.24,.11-.03,.41-.04,.9-.04s.8,.01,.92,.04c.16,.04,.25,.15,.25,.33,0,.06-.08,.16-.23,.31-.15,.14-.24,.24-.27,.3-.05,.14-.08,.7-.08,1.68v1.07l-.02,.21v.43c0,.54,.03,.87,.1,.99,.03,.05,.12,.12,.27,.2,.15,.09,.23,.21,.23,.36,0,.13-.21,.19-.63,.19h-.62c-.58,0-.93-.06-1.03-.15l-.05-.1c0-.11,.06-.26,.18-.47,.12-.21,.2-.4,.24-.56,.04-.17,.06-.43,.06-.79s-.05-.58-.16-.67-.66-.13-1.64-.13Z"/><path class="cls-1" d="M130.96,21.91c-.38,0-.56-.06-.56-.18s.1-.25,.29-.39,.32-.29,.36-.46c.04-.17,.07-.84,.07-2.02s-.01-1.81-.04-1.9c-.05-.21-.15-.36-.3-.47-.27-.19-.4-.33-.4-.44v-.06c0-.11,.37-.16,1.11-.16h.8c.33,0,.54,0,.61,.03,.07,.03,.11,.1,.11,.23,0,.08-.11,.2-.33,.38-.12,.1-.2,.23-.24,.41-.04,.18-.06,.87-.06,2.07s.02,1.87,.05,2,.14,.27,.32,.43,.27,.28,.27,.38c0,.12-.12,.18-.35,.18h-.92l-.4-.02h-.19c-.06-.01-.13-.01-.2-.01Z"/><path class="cls-1" d="M139.82,16.54c-.24,0-.5,.11-.77,.33-.43,.36-.66,.54-.68,.54-.15,0-.23-.1-.23-.29v-.14c0-.32,.03-.6,.08-.86,.03-.13,.09-.21,.18-.24,.09-.03,.98-.04,2.65-.04h1.94c.32,0,.51,.04,.57,.15,.06,.1,.09,.33,.09,.67v.28c0,.31-.07,.47-.22,.47-.13,0-.28-.1-.46-.3-.18-.2-.34-.35-.49-.44s-.35-.13-.59-.13c-.19,0-.31,.13-.34,.38-.01,.09-.02,.74-.02,1.97s.02,1.9,.05,2.03,.15,.27,.36,.43c.21,.15,.31,.28,.31,.38s-.05,.17-.16,.2c-.11,.03-.45,.04-1.03,.04h-.74c-.29,0-.49-.01-.6-.03-.11-.02-.16-.08-.16-.18s.1-.23,.3-.41,.32-.34,.35-.47c.04-.13,.05-.8,.05-2s-.01-1.86-.04-1.98-.06-.21-.12-.27c-.06-.06-.16-.09-.3-.09Z"/><path class="cls-1" d="M153.41,16.63c0,.2-.03,.33-.08,.39-.06,.06-.14,.09-.26,.09l-.08-.04-.09-.06-.11-.06c-.1-.06-.3-.14-.59-.24-.29-.1-.56-.15-.82-.15s-.44,.09-.55,.27c-.12,.18-.17,.56-.17,1.12,0,.16,.05,.29,.15,.39s.24,.15,.41,.15,.37-.06,.58-.18c.21-.12,.36-.18,.45-.18s.17,.06,.24,.18c.07,.12,.1,.26,.1,.43,0,.44-.05,.72-.15,.82l-.12,.07c-.17,0-.31-.04-.41-.12-.23-.17-.39-.26-.5-.26-.33,0-.56,.07-.67,.21-.06,.07-.08,.31-.08,.72s.08,.73,.25,.94c.09,.11,.28,.17,.58,.17s.68-.1,1.15-.31,.73-.31,.8-.31c.13,0,.19,.12,.19,.36v.16c0,.08-.03,.2-.09,.34-.06,.15-.15,.26-.27,.34-.12,.08-.33,.12-.61,.12h-3.19c-.49,0-.73-.06-.73-.19v-.14c0-.1,.09-.2,.27-.3,.18-.1,.29-.21,.32-.32s.05-.79,.05-2.02-.02-1.93-.06-2.1c-.04-.16-.14-.32-.31-.45-.16-.14-.25-.27-.25-.41,0-.1,.11-.15,.32-.17s.91-.02,2.08-.02h1.33c.3,0,.5,.04,.63,.12,.2,.14,.3,.36,.3,.65Z"/><path class="cls-1" d="M163.96,16.99c0,.3-.09,.44-.26,.44-.08,0-.26-.11-.55-.34-.29-.23-.53-.39-.72-.48-.19-.09-.41-.13-.66-.13h-.01c-.24,0-.47,.06-.68,.19-.61,.36-.92,1.12-.92,2.29,0,.33,.05,.66,.16,.98,.31,.94,.9,1.4,1.77,1.4h0c.4,0,.81-.15,1.24-.45,.28-.19,.43-.29,.48-.29,.14,0,.22,.07,.22,.2v.11c0,.07-.07,.2-.2,.41-.14,.21-.32,.36-.55,.47-.4,.18-.87,.28-1.41,.28h-.15c-.43,0-.83-.08-1.19-.24-.72-.32-1.22-.84-1.5-1.57-.15-.39-.22-.77-.22-1.14v-.31c0-.37,.07-.74,.22-1.12,.3-.79,.8-1.34,1.52-1.65,.38-.16,.75-.25,1.12-.25h.15c.93,0,1.54,.09,1.84,.26,.2,.11,.3,.43,.3,.93Z"/><path class="cls-1" d="M170.8,16.54c-.24,0-.5,.11-.77,.33-.43,.36-.66,.54-.68,.54-.15,0-.23-.1-.23-.29v-.14c0-.32,.03-.6,.08-.86,.03-.13,.09-.21,.18-.24,.09-.03,.98-.04,2.65-.04h1.94c.32,0,.51,.04,.57,.15,.06,.1,.09,.33,.09,.67v.28c0,.31-.07,.47-.22,.47-.13,0-.28-.1-.46-.3-.18-.2-.34-.35-.49-.44s-.35-.13-.59-.13c-.19,0-.31,.13-.34,.38-.01,.09-.02,.74-.02,1.97s.02,1.9,.05,2.03,.15,.27,.36,.43c.21,.15,.31,.28,.31,.38s-.05,.17-.16,.2c-.11,.03-.45,.04-1.03,.04h-.74c-.29,0-.49-.01-.6-.03-.11-.02-.16-.08-.16-.18s.1-.23,.3-.41,.32-.34,.35-.47c.04-.13,.05-.8,.05-2s-.01-1.86-.04-1.98-.06-.21-.12-.27c-.06-.06-.16-.09-.3-.09Z"/><path class="cls-1" d="M182.42,22.04c-.42,0-.79-.09-1.12-.26-.62-.33-.97-.88-1.06-1.65v-.18c-.02-.06-.02-.18-.02-.37v-1.87c.01-.54,0-.84-.03-.91-.03-.07-.14-.15-.32-.25-.18-.1-.27-.21-.27-.33v-.14c0-.1,.11-.16,.33-.18,.44-.04,.93-.07,1.48-.07,.35,0,.53,.07,.53,.2,0,0-.05,.12-.16,.33-.1,.21-.18,.45-.22,.69s-.06,.84-.06,1.79,.07,1.57,.22,1.86c.21,.42,.58,.63,1.11,.63s.92-.2,1.16-.6c.17-.29,.26-.97,.26-2.05s-.07-1.78-.22-2.11l-.06-.11-.07-.1c-.09-.14-.13-.23-.13-.28,0-.11,.07-.18,.2-.21,.06-.01,.29-.02,.69-.02s.71,.04,.9,.11c.08,.03,.12,.11,.12,.24s-.06,.24-.17,.32c-.23,.18-.36,.31-.39,.39-.03,.09-.04,.49-.04,1.21v.7c.01,.7-.02,1.23-.09,1.58-.07,.35-.21,.64-.41,.88-.42,.49-1.08,.74-1.98,.74h-.19Z"/><path class="cls-1" d="M193.07,15.87h.3c.75,0,1.34,.14,1.76,.43s.63,.69,.63,1.22c0,.3-.06,.56-.18,.78-.12,.22-.25,.39-.37,.51-.29,.26-.43,.4-.43,.43,0,.11,.05,.25,.16,.43s.23,.39,.37,.64c.14,.25,.24,.41,.3,.49,.15,.21,.32,.35,.5,.43,.32,.14,.48,.24,.48,.31,0,.19-.08,.31-.24,.35-.23,.07-.49,.1-.79,.1s-.55-.09-.73-.28-.4-.54-.64-1.04c-.24-.51-.4-.8-.47-.89-.15-.19-.34-.29-.58-.29-.13,0-.22,.06-.26,.19s-.07,.45-.07,.95c0,.12,.06,.32,.19,.58l.16,.29c.08,.15,.12,.23,.12,.25,0,.15-.24,.23-.72,.23-.83,0-1.32-.02-1.46-.06-.14-.04-.21-.12-.21-.25s.09-.24,.27-.35c.18-.11,.29-.24,.33-.39,.04-.15,.06-.79,.06-1.93s-.02-1.81-.07-2.01-.12-.35-.24-.46c-.21-.2-.31-.33-.31-.38,0-.12,.12-.19,.37-.23,.24-.04,.84-.05,1.79-.05Zm.21,.59h-.14c-.2,0-.32,.03-.36,.08-.04,.05-.06,.2-.06,.42v1.6c0,.12,.02,.2,.08,.25,.05,.05,.16,.08,.33,.08h.31s.05-.01,.07-.01c.21,0,.41-.1,.61-.3s.3-.46,.3-.78v-.21c0-.32-.1-.58-.3-.8-.2-.22-.47-.33-.82-.33Z"/><path class="cls-1" d="M206.33,16.63c0,.2-.03,.33-.08,.39-.06,.06-.14,.09-.26,.09l-.08-.04-.09-.06-.11-.06c-.1-.06-.3-.14-.59-.24-.29-.1-.56-.15-.82-.15s-.44,.09-.55,.27c-.12,.18-.17,.56-.17,1.12,0,.16,.05,.29,.15,.39s.24,.15,.41,.15,.37-.06,.58-.18c.21-.12,.36-.18,.45-.18s.17,.06,.24,.18c.07,.12,.1,.26,.1,.43,0,.44-.05,.72-.15,.82l-.12,.07c-.17,0-.31-.04-.41-.12-.23-.17-.39-.26-.5-.26-.33,0-.56,.07-.67,.21-.06,.07-.08,.31-.08,.72s.08,.73,.25,.94c.09,.11,.28,.17,.58,.17s.68-.1,1.15-.31,.73-.31,.8-.31c.13,0,.19,.12,.19,.36v.16c0,.08-.03,.2-.09,.34-.06,.15-.15,.26-.27,.34-.12,.08-.33,.12-.61,.12h-3.19c-.49,0-.73-.06-.73-.19v-.14c0-.1,.09-.2,.27-.3,.18-.1,.29-.21,.32-.32s.05-.79,.05-2.02-.02-1.93-.06-2.1c-.04-.16-.14-.32-.31-.45-.16-.14-.25-.27-.25-.41,0-.1,.11-.15,.32-.17s.91-.02,2.08-.02h1.33c.3,0,.5,.04,.63,.12,.2,.14,.3,.36,.3,.65Z"/></g></g></g></svg>