<svg xmlns="http://www.w3.org/2000/svg" viewBox="0 0 1920 1080" style="enable-background:new 0 0 1920 1080" xml:space="preserve"><path d="m984.4 551.2-.5-.2c-1.3.9-2.7 1.9-4.1 3.1-4.9 3.6-10.8 8.1-16.1 9.7l2 .2-.1.2 18.8-12.3v-.7zm-4.5-101.1h-.2l-.4 9c2.3.3 3.9 1.3 5.6 2.2 1.8 1 3.8 2.1 6.6 2.3l-1.8-1.8v-.1c-1.7-3.7-6.5-9-9.8-11.6zm52.5 76.3c0-.1-.1-.2-.1-.4l-.1-.2c-.3.1-.7.1-1 .2.4.1.9.3 1.2.4.1.1.1.1 0 0zm-70.1 38.8.5 1.6 1.1-2c-.1 0-.2 0-.3-.1l-1.3.5zm12.7 17.6c-1.2-.4-2.5-1-3.7-1.7.2.1.3.2.5.3 1 .8 2 1.5 3 1.8l.2-.4zm44-129.1c0 .4-.1.7-.2 1 .2-.1.5-.2.8-.2l-.6-.8zm5.4 7.8c-1.3-2.2-3-4.5-4.5-5.4l-1.4 1.6.2.4 5.7 3.4zm6.5 6.9 4.4 9.2 5.1 15.1 1.4-.2v-.4c.4-2-1.4-7.2-4.8-13.7-2.2-4.2-4.5-7.9-6.1-10zm-5-4.3c.9.6 1.7 1.3 2.5 1.9.1-.2.2-.4.2-.5 0 0 0-.1.1-.1 0 0-.1-.2-.3-.4l-1.2-1.4c0 .1.1.3.1.4l.1.6-.6-.1c-.3-.2-.6-.3-.9-.4zm7.9 62h-.1l.1.1zm-73.5 42.1c-.4-.2-.7-.4-1-.7-.3-.2-.5-.3-.8-.5.2.2.3.4.4.6.4.5.7 1.1.7 1.9l.7-1.3zm-3 3.9c.6.3 1.2.6 1.8 1l-.8-.8.1-.1h-1.1zm5.1-4.5.1-.1-.2-.1c-.1-.1-.2-.2-.3-.2l.1.2-.1.2h.4zm-6.7-1.8c0-.1 0-.1 0 0 0-.1 0 0 0 0zm-2 3.9v.3l.1-.3 4.3 1.4.4-.7c0-1.5-.4-2.1-1-3-1.6-.6-2.5-.7-4.3-.4l-.6.4-1.9 2.1 3 .2zm-8 14.7c.3 2.1 1 3.6 1.8 4.1.4.3 3.1.5 6.8.3 3.8-.2 6.2-.7 6.6-1.1 2.1-4 1.1-7 0-8.9-2.1-3.4-6.5-5.5-11.1-5.4l-3.2 1.7c-1 1.6-1.5 5.8-.9 9.3zm13.9-18.9-1.9-.2c.7.3 1.2.6 1.7.9.4.3.8.5 1.2.7-.2-.7-.5-1-1-1.4zm1.7 2.6-.4.5-.3-.2c-.1 0-.2-.1-.3-.1l.2.2c.3.2.6.5.9.9v-1.1l-.1-.2zm-.7 2.1-.5 1.6.7.2h-.8l-.1.2 1.6 1.6c0-1.4-.4-2.7-.9-3.6zm11.7 22.1 1.5-.9c0-.5.1-1 .2-1.6.2-1.5.5-3 0-4.1-.9-1.9-4.9-4.5-7.7-4.9l-1 .5c-.1 7.4 1.6 9.2 7 11zm-10.7-24.6-.1.1v.2c.1 0 .1-.1.1-.3zm-68.8 58-.1.1h.1zm60.4-3.7 2.9.4c-2.3-.4-4.5-1.6-6.1-2.5v.8c1.3.3 2.7 1.1 3.7 2.1l-.5-.8zm-80.5-45.5c1.6.3 4.3 3.2 5.5 4.5-2.1-2.9-4.5-5.5-7.6-4.9-.4.1-.7.2-1 .4.9-.3 1.9-.3 3.1 0zm19.8 49.7-.2.3.4.3v-.4l-.2-.2zm67.3-3.3v-.1l1.6-1c-1.3.7-2.7.9-4 .8l2.4.3zm36.5-181.7c3.9 4.8 10 10.9 18.6 14.4 1.4-.5 1.9-.7 2.5-1.9-1.6-3.8-8.4-8.2-14.4-10.7-2.4-.5-4.7-1.1-6.7-1.8zm-17.4-4.2-.6 2.1 3.5 1.4zM866.8 579.1c0 .1 0 .1 0 0 .3-.5.6-1 1-1.4l.3-.3c-.6.3-1.2.7-1.9.9l.8.1-.1.4c-.1.1-.1.2-.1.3zm95.8 47.8-.1-.2-1.5-.7s.1.1.1.2c.7.2 1.1.4 1.5.7zm-11.8-59.2.2-.2zm9.3 56c0 .3-.1.5-.1.7l.2.1c.4.1.7.2 1 .3-.3-.4-.7-.8-1.1-1.1zm73.9-96.2zm-54.8 60.4c-.6 1.6-.8 3.9 0 5.3 1.3.2 2.5 0 3.9-.2-.2-3.5-.9-5.1-3.9-5.1zm62.5-74.6c.9-1.3 1.6-2.5 2.3-3.8l-.1-.3-1-.3c-.3 1.4-.7 2.9-1.2 4.4zM866.2 580l.1.3c.1-.2.1-.3.2-.5-.1 0-.2.1-.3.2zm123.4 40.9c-.3-6-2.8-20.3-5.9-22.7l-1.7 1.3c-.8 10.4-2.8 19.9-4.4 27.2 2.2-.2 4.5-1.6 6.8-3 1.7-1.1 3.4-2.2 5.2-2.8zm-112.4-81c3.1 4.1 27 12.5 35.2 13.9v-.6c-2.9-9-6.3-19.3-10.1-29-.3-.8-.6-1.8-.9-2.8-.8-2.7-1.8-6-3.6-7.1l-1.6-.4c-.6.3-1.2.5-1.8.7-1 .3-1.9.6-2.8 1.3-3.9 2.8-16.8 17.1-14.4 24zm84.8-14.3h-.3l-1.6.8-9.9 25.4c-.4 1.1-.9 2.2-1.5 3.3-1.4 2.9-2.8 5.9-3 9.5 6.1-3.9 9.1-13.3 11.7-21.7.7-2.3 1.4-4.5 2.2-6.5.2-.6.5-1.3.9-2 1.1-2.5 2.6-5.8 1.8-8.1l-.3-.7zm16.4-76.8c-.3-.1-.4-.1-.4-.2-.1 0-.2-.1-.3-.2l-.2-.2c-.2-.2-.4-.5-.6-.7.4 1.2.7 2.6.8 4.1.1-1 .3-1.9.7-2.6v-.2zm-13 147c-.3-.3-.6-.7-.9-1.2-1.1-1.5-2.4-3.3-3.8-3.8-2-.7-4.1-.3-6.4.2-.5.1-.9.2-1.4.3 1.4.2 2.3.5 2.5.8v-.9l.5.1c4.1.7 6.6 1.9 7.9 3.8 1 1.5 1.2 3.4.6 5.7v.2l-.8.4-3.6-2.6.4-.7 2.9 1.8c1-4.5-1.8-5.5-5.3-6.7-.4-.1-.8-.3-1.3-.5 0 1.8.2 2.9.6 3.8l.5.8-2.1-.5-.1-2.8v2.3l-1.3.2c.3.1.6.3.9.4 3.4 1.5 7.6 3.9 8.3 5.4.4.9.5 2.8.5 5.1.1-1.1.3-2.2.4-3.3.4-2.9.8-5.6 1-8.3zm50.1-63.3-1.1-.1v.2l-.2.1c-.2.1-.4.3-.4.6-.2.7 0 1.8.3 2.4l.6-.1.8-3.1zm-16 15.1c1.8-.7 4.5-1.4 7.5-1.9-.7-.1-1.4-.2-1.9-.3h-.2l-.4-1.4.7-.3.7-.8c-2.3 1.9-4.7 3.5-6.5 4.6l.1.1zm4.3 42.5h.3l.9-.9c-.4.2-.8.5-1.2.9z"/><path d="M1007.1 544.6c2.4.5 6.4-.3 7.6-1l-1-5.4-1.3-.2-2.3 2.1-4.1 3.9c.1.3.7.5 1.1.6zm3.5-21.4-.2.1c-.2 1.5.3 3 1 4.6.5 1.3 1 2.5 1.1 3.9l1.2-.2c-.6-1.1-1-2.4-1.4-3.8-.4-1.6-1-3.3-1.7-4.6zm1.7 45.8c-2.7-2.9-5.5-5.8-8.7-7-2.8 11.4-2.5 18 1 19.4 2.2.6 4.5-.3 6-1.2 2.9-1.7 5.6-4.6 6.3-6.8-1.5-1.2-3-2.7-4.6-4.4zm.3-36.8s0 .1 0 0c0 .1 0 0 0 0zM966 578.3l-2-1.4c.1.6.3 1 .4 1.4.1.2.2.4.2.7l1.4-.7zm34.5 13c-1.3.8-2.8 1.3-4.3 1.8-2.1.7-4.3 1.4-5.5 2.8l3.6 18.1c.7-2.9 1.8-5.4 2.8-7.8 1.8-4.1 3.7-8.4 3.8-14.9h-.4zm1.5 7.6c.6-1.7 1.3-3.4 2.1-5-.3.3-.6.5-.8.6l-.5.2v-.9c-.1-.1-.1-.2-.2-.3-.1 2-.3 3.8-.6 5.4zm7.5-58.8-.3-.3 3.3-3.3.4.1c-.3-.7-.4-1.6-.5-2.5-.5 2.2-1.9 4.2-3.7 6.1h.8zm-29.2-91.4c-.2-.3-.3-.6-.5-.9v.1l-1.1.8h1.6zm42.7 168.5c.3-1.3.5-2.6.3-4.1-1.3.5-2.3 1.5-3.3 2.5-1 .9-1.9 1.9-3.2 2.6.8.1 1.8.1 2.6.1 1.2 0 2.3.1 3 .2l.4-.4c.1-.4.1-.6.2-.9zm.8-28c-1.6-2.4-3.9-3.6-7-3.6-1 .5-2 .8-2.9 1.1-1.5.5-2.9 1-4.2 2-4.6 3.6-8.3 14.5-11.2 23.3-.9 2.7-1.7 5.2-2.5 7.2 12 1.2 24.7-4.2 28-11.8 2.2-5.2 2.9-13.4-.2-18.2zm7.1-91.5c2.3-1 4.7-2.1 6.1-3.8v-.1c-5.6-4-12.3-8-20.6-12.2.7 6.2 2.9 13.5 7.2 16 2.1 1.3 4.6 1.3 7.3.1zm-30.3-8.4c-.3-3-.8-6.4-1.4-9.1l1.4 9.1zm5.9 132.7 1.8.2c2.9-1.2 5.9-2.2 8.4-2.8h-2.3l.2-.5-.9.3.5-.4c-2.7 1.5-5.3 2.6-7.7 3.2zm9.7-76.4c-.2-.8-.3-1.5-.4-2.3-.1.8-.4 1.5-1 1.9-.1.1-.2.1-.4.2.7 0 1.3.1 1.8.2zm-1.5-8c.2.7.5 1.5.7 2.4-.1-1.4 0-2.7.2-3.8 0-.2.1-.3.1-.5-.3.5-.7.9-1.1 1.2l-.1.1h-.7l.7.2.2.4zm-11.5 46.7h-.5l-15 3c.8 1.1 1.4 2 2.4 3 5.4.1 11.5-2.1 13.1-6zm-6 41.5c.2-.1.3-.1.5-.2 1.7-.7 3.6-1.4 4.5-2.7h-1.7l-.3.2c-1.5.7-2.3 1.2-3 2.7zm18.2-78.5h-3.2c-1.9.7-3.8.8-5.8 1-2.1.2-4.1.3-5.7 1.2l-.2 1c6.2 8.1 12 14.1 17.7 18.4l1-.5.1-.2c-.5-4.3-1.4-8.5-2.3-12.4-.5-2.9-1.1-5.7-1.6-8.5zm11.7 42c.2.6.5 1.3.8 2 .1-.8-.2-1.4-.8-2zm1.2-1.8c-1.6 0-2.5-.2-3.5-.7l-.1-.1-.1-.3h-.6c.3.3.6.7.8 1.1l.4.1-.7-.6 2.2.9.8.2-.2.1 1 .4c.1-.5.1-.8 0-1.1zm-64-21.4c.1-.2.2-.4.4-.6l-.3.1c0 .2 0 .4-.1.5zm40.4 56.3-.7 1.6c.1 0 .2-.1.3-.1l-.2-.1.6-1.4zm1 .5c.1.2.1.3.1.5 0 0 .1 0 .1-.1v-.3c-.1-.1-.2-.1-.2-.1zM963.9 567c-.2.3-.5.6-.8.8l.5.1.3-.9zm.6 12.9c.1-.1.2-.1.2-.2.1-.1.2-.1.3-.1l-.4.1s-.1.1-.1.2zm31.3 52.3 1.3-3.8c-.4.2-.9.3-1.3.5-2.6 1-4.5 1.7-6.1 3.7h.2c2.1 0 4.6.1 5.9-.4zM964 580.5c0-.1.1-.2.2-.2h-.2v.2zm-1.4-11.8c0 .4.1.7.2 1l-.1-1h-.1zm59.5 12.2-1.4-3.2h-1.6c-1.7 1.4-3.2 2.8-3.7 5.2 1.7-.1 4.8-.5 6.5-1.7l.2-.3zm-15.5 9c.9-1.1 1.9-2.1 3.1-2.9.6-.4 2.5-1.7 5-2.5-.3-.1-.6-.3-.8-.5l-.1-.1v-.9c-2.7 1.4-4.9 3.1-7.1 4.9-.3.2-.6.4-.8.7h1.1l-.1.5c-.1.1-.2.4-.3.8zm-1.6.1-.2.1h.2zm16.2-69.1c.5-3.1-.4-5.8-2.5-7.8-2.2 2.1-5.7 6.6-5.8 11.2 0 2.2.7 4.1 2.2 5.7 3-1.6 5.5-5.3 6.1-9.1zm-20.8 82.8c-.3.6-.7 1.3-1.1 1.9-1.4 2.4-3.1 5.4-3 7.8 1.8-2.9 3-6.3 4.1-9.7zm3.3-12.6v1.5l1.2-2.3zm-4-117.6c.1 1 .2 2.1.4 3.4.6 6.5 1.6 16.3 4 19.6 1.1 1.5 2.9 2.1 4.8 2.8.5.2 1.1.4 1.6.6 4 1.7 6.3 1.7 9.7 0-.7-1.1-1.3-2.3-2-3.5-4.9-8.4-10.3-18-18.5-22.9zm22.9 110-.4.2c.2.2.4.3.7.5l-.3-.7zm.3-1.3.5.2-.1-.6zm-2.3 1.8c-.2 0-.3.1-.5.1.1 0 .2 0 .3.1l.2-.2zM907.8 474.6l.2.1c-.1-.1-.2-.1-.2-.1zm5.3.8 4.3-.6-1.4-.6c-1 .4-2.1.7-3.2 1h.2l-.2.3c.1-.1.2-.1.3-.1zm76.4 27.6c-5.9 3.6-7.2 11.2-5.3 14.7 3 .8 6.8.8 11 .8h.1c10.6 0 15-1.1 18.9-7 .7-1.1 2.1-3.2 1.5-4.9l-.6-1.6c-.9-.2-1.8-.5-2.7-.7-5.4-1.4-10.4-2.8-17.7-2.8l-5.2 1.5zm-85.3-25.1c-.4-1-.7-2-1.1-3.1-1.7-5.1-3.5-10.3-7-13.2h-1.3c-.6.7-1.3 1.4-2 2.1-4 4.1-8.1 8.3-8.4 15.5 1.7.2 3.4.6 5 .9 5.8 1.3 11.2 2.4 14.8-2.2zm-20.7 2.5-.3.6c1.7.1 3.6.3 5.5.6l-3.9-.9c-.4-.1-.8-.2-1.3-.3zm7.8 1.8c1.8.4 3.5 1 5 1.6v-.8h.4c1-.1 1.8-.3 2.4-.6-2.4.5-5 .3-7.8-.2zm30 3.4c1.1-3.4.6-7.8-2.3-9.4l-5.3.7c-4.2 1.5-9.1 5.9-11.6 9.4 1.3 0 2.7.1 4.1.1 5.3.1 11.2.3 15.1-.8zM907 478l.2.3h.1l.3-.3-.2-.1.1-.8c-.2.4-.3.6-.5.9zm-.4-2.7-.7-.3.4 1.3zm-6.6 7.8-2 .7.1.2.3.1h.8zm10-7h-1.4c0 .3 0 .6.1.8v.2l1.3-1zm-2.3 2.4c.1-.1.2-.1.3-.2l-.3.2zm-28.6 6.5h2.3l-1.1-2.2c-.2.7-.7 1.5-1.2 2.2zm21.1-.5.2.2.2.2c.2.1.2.2.3.4.7-1.2 1.8-2.4 2.8-3.4l.8-.9v-.6l1-1.3-.1-.3c-1.3 1.6-2.9 2.7-4.6 3.2l1 .2-.4 1.2-1.2 1.1zm-31.9 26.7-1-7.5c-1.1 1.4-3.2 4.5-3.6 7.7h4.6v-.2zm-6.5-1.2c.3-.8.4-1.2.2-1.6l-.7 1.1.4.9c0-.2.1-.3.1-.4zm38.7-50c.4-.3.9-.6 1.6-.7h.1l.1-.5c-1 .4-2.2.7-3.4.7l1.7.1v.4zm-26.9 49.9c11.1-.3 18.6-14.3 21.9-20.7L884 489c-.5-.1-1-.3-1.4-.5-.8-.3-1.6-.7-2.9-.8-3.6 1.9-8 7.5-8.9 13.1-.5 3.6.4 6.7 2.8 9.1zm44.6-36c.9 0 1.9.2 2.9.5l-.6-1.7h-.2c-.8.2-2 .6-3.2 1-.4.1-.7.3-1.1.4l1.5-.2c.2.1.5 0 .7 0zm-36.3 5.9-.2-.2-.1.2zm16.2 6.4.9-.9c-.3 0-.5-.1-.7-.2l-.2 1.1zm24.8-6.7.3-.4h-.4c0 .1.1.2.1.4zM910 455.6c-.7.9-1.5 1.8-2.2 2.6-1.4 1.6-2.8 3-3.8 5.1.2.6.4 1.2.5 1.8 1 3.7 2.1 7.4 5.2 8.8 3.4-.3 6.7-1.4 9.5-2.6-.2-2.5-1.5-6.1-3.4-9.4-1.9-3.3-4.1-5.6-5.8-6.3zm13-7-.3 1.4c.7-.4 1.3-.8 1.8-1.4H923zm-5.9-1.2-.2-.1-1 5 2.2 2.1c.3-2.6.2-6.1-1-7zm16.3 25.2c.5.1 1.3-.6 1.9-1.2l.1-.1c0-2.1-.5-3.7-1.5-4.7-1.3 2.2-1.7 4-1.1 5.4.2.3.4.5.6.6zm-7.7 2.8-.8-.2.1-.8 2.3.3-.1.5c0 .2-.1.3-.1.4l1.8-2.1c-.5.4-1 .6-1.7.8h-.2l-.5-.5v-.2c0-.5.1-.9.2-1.1l-2.9 2.3-.8-.4v-.2c-.4-2-1.7-4.8-3.3-7.8.6 1.8 1 3.6 1.1 5.3l.6.5c.8.8 1.3 1.6 1.4 2.8l.2-.5.5.4c.4.4.8 1.7 1.1 2.7l1.5-1.9v-.3zm-2.5 15.3h.2l.2-.5h.5l.2-.5h.6l1.4-1.1h.4l.2-.5h.8l.9-.9h.5l.6-.6c-4.2.2-5.3 1.5-6.5 4.1zm-55 7.6-.3.7h.2z"/><path d="m924 472.8 4.1-3.7c-2.3-5.6-7.3-9.9-12.1-13.5l8 17.2zm-2.8-16.1.7.4-.6-2.4c-.4.6-.4 1.2-.1 2zM825.8 543l-1.6.5c4.8 1.2 7.6 4.5 10.4 7.7 1.7 1.6 3.1 3.1 4.2 4.4.2.1.3.3.5.4-2.3-5.9-8.3-10.9-13.5-13zm101.8-70.2 1.3-1.1.1-.2-1.4 1zm-6.4-20.8.7-3.5-.7 1.8-.8-.2.4-2.1-.2-.2-.9-.2.6 2.9.6.3-1.6 2.9v-1.9l-.1-.5c.1 1.4 0 2.9-.3 4.4v.1c.2.2.4.3.6.5l1.7-4.3zm1.6 26.3c-.3-.6-.4-1.3-.4-2h-.5l-.1-.1c-.3-.2-.7-.4-1-.5.9.9 1.5 2.1 1.9 3.3v-.7zm-26 7.6v-.4c-.8-.2-1.7-.4-2.5-.7-3.3-.9-6.8-1.9-10.6-2.1l1.4 2.8 11.7.4zm4.1-21.8c-.1-.1-.1-.3-.2-.5-.2-.4-.3-.8-.5-1.3l-.7.4c2.4 3 3.9 7.8 5.1 11.8l-.2-1.3 2.8.8c-2.7-2.2-4-7.5-4.5-10 0 .1-.1.3-.1.4l-.1.3h-.6l-.9-.6h-.1zm-1.8-3.6h-.6l.7.9zm28.6 23.8c2.4-.9 5.1-3.9 5.4-7-.5-1.4-1.2-2.9-2.6-3.4l-4.9 5.8c.3 2.1 1 3.7 2.1 4.6zm-25.6-23.9-.8.4.5 2zm22.3 18.2.2-.2-.2.2c0-.1 0 0 0 0zm-30-18.3.1-.1 2 .3h.1c.1 0 .1.1.2.1l-1.5-1.3 2.7.2c-.7-.1-1.4-.2-2.2-.5l-.2-.1-.3-.7v-.1c0-1.4.2-2.7.5-4-.3.2-.5.4-.9.5l-.4.1-4.1-11.2h-.8c2.3 4.5 4.5 9 5.5 14.2v.2l-.1.1c-1.2 1.6-2.9 2.9-4.5 4.2-1.9 1.5-3.8 3-4.9 4.8l-2.9 8.3c-.3.7-.7 1.6-1.3 2.7l1.5 1.5c-1.3-7.6 9.3-17.3 11.5-19.2zm4.3-13.5h-.7v1.5c.3-.6.5-1.1.7-1.5zm42.4 14.4c.2.1.4.1.6.2l.5.1v.1l.8-1.4c-.8.4-1.4.7-1.9 1zm33.8-28.3.7-.1c-2.3-1.1-6.3-2.4-9.7-3.3h-.7l.5 1-.2.1.1.1c2.6.8 5.5 2.1 7.6 3.7-.6-.5-1.2-1.1-1.6-1.8l-.5-.9 3.9 1.2h-.1zm-7.4 217c.5-.3 1.2-1.2 1.6-1.8l-3.2 1.9 1.6-.1zm-86.9-127.3c1.6-1.7 3.4-3.6 3.2-5.2l-.3-.3-5.9 7.8.5.6h.1c.4-.8 1.4-1.8 2.4-2.9zm86.8 129.2h.1l.2-.6c-.2.1-.4.1-.6.1.2.1.3.2.3.5zm-38.7-5.3c-.5-.2-.9-.4-1.3-.6-1-.5-1.9-.9-3.3-1.1.7.7 1.7 1.3 2.9 1.6h.7l-.3.1c.5.1.9.2 1.4.3 0-.1.1-.1.1-.2-.1.1-.1 0-.2-.1zm132.5-117 1.1 14c1.8-3.6.8-9.9-1.1-14zm-84-95.8s-.1-.1-.2-.1v.1c.1 1.2.1 2.1-.1 3.2.3-1 .5-2 .3-3.2zm87.1 95.1 3.5 11.2c-.4-4-1.7-8.6-3.5-11.2zm-166.5-19.1c2.5-1.1 4.4-4.1 5.4-6.5-.8.5-1.6 1-2.5 1.5-2.6 1.5-5.3 3.1-7 5.1 1.4.5 2.7.5 4.1-.1zm146.5 94.1c.5-.2 1.1-.5 1.7-1l.5-.4 1.5-1.2c4.5-4.1 9-11.6 10.2-16.6-1 1.3-2.1 2.7-3.1 3.9-3.9 4.7-7.7 9.5-10.8 15.3zm-77.8 25.3h-1.1l.5.9 3-.3-.5-.5c-.7-.2-1.3-.2-1.9-.1zm-5.1 0c-2.1-.9-3.7-1.7-7.3-1.7h-.1l-3.3 1.4c.2 3.6 3.5 6.9 6.3 9.9 1.1 1.1 2.1 2.1 2.8 3.1l.7-.6c.2-.6.5-1.3.8-2 1.4-3.3 3-7 1.1-9.7-.4-.1-.7-.2-1-.4zm-8.7-5.4-3.3-1.5-.5 3.9 4-2.1zm-16.2 6-1.7.4-.2 1.9c0 .1.1.2.1.2.3.8.5 1.1 1.4 1.2l4.8-2.9-.6-.6-3.8-.2zM861.1 588l1.2 1.5c.3.4.6.9.9 1.3.5.7.9 1.4 1.5 2 0-6.4-1-18.3-3.5-21.6-8 6.9-5.2 10.5-.1 16.8zm112.2 40.4c-.3-.2-.5-.3-.8-.5-1-.7-2-1.4-3.3-1.7.5 2.1 1.6 3.2 3.4 3.4l.7-.9v-.3zm88.2-127.2v.5l.3-.2zm-10.1-4 1.2 2.4c1 2 1.9 3.9 3.5 5.2l4.1-4.1c-.3-3.8-3.3-9.5-5.8-12.8-.2 3.5-1.5 6-2.7 8.5 0 .3-.2.5-.3.8zm5.7 9.2.6-.3-.6.3zm-30.7 117.9-5.1 4.8c1.3-.3 3.5-2.7 5.1-4.8zM864 534.8c-.5-.6-1-1.2-1.5-1.7-.5-.6-1-1.1-1.4-1.6-.5-.4-1-.8-1.4-1.1l.6 14.3.3.4c2.6.1 4.3 0 6-1 .7-3.8-1.3-7.4-2.6-9.3zm106.1 95.7 1.7.1c-.6-.3-1.1-.6-1.5-.9l-.2.8zM857.5 490.2c-.3.5-.4.7-.4 1l1.1-1.6-.2-.1.1-.4-.6 1.1zm103.2 1.9c0 .1-.1.2-.1.3 1.2-.5 2.6-.9 4-.8l-1-1.2c-.8.4-1.8.6-2.9.4.1 0 .1 0 .2.1l.4.2-.2.4c-.2.2-.3.4-.4.6zm-92.1 48.4-.2-.6c-.1 0-.1.1-.2.1l-.2.1c.4 1.4.3 2.9-.3 4.5l1.9-.7c-.6-1.3-.8-2.8-.7-4.3l-.3.9zm-4.5-38.8-.6 1.2c-.6 1.2-1.1 2.2-1.8 3.3-.7 1.3-1.4 2.3-2 3.1l.3.6v-.1c.3-1.2.5-1.6 1.5-2.1l-.4-.5h1.5l.2-.1-.1.1h.6c.6-1.1 1.2-2.1 1.9-3.2.9-1.3 1.7-2.6 2-3.6l.1-.2-.8.1v-1.7l1.9-3.9c-.6.9-1.1 1.6-1.6 2.2-.5.7-.9 1.5-1.5 2.5l-.4 1.1h-.2c-.2.3-.3.6-.5.9l-.1.3zm-22.4 58.8c.3 3.2 1.1 7.5 2.2 10.3-.2-1-.3-1.9-.4-2.9-.4-2.7-.7-5.3-1.8-7.4zm134 93.1-.2.1.4.6c.8.6 1.3 1.5 1.7 2.3.4.7.7 1.3 1.2 1.8-.6-1.7-1.9-4-3.1-4.8zM868 534.6h-.6l.8.2zm.1-19h-1.8l-2.6.4-1.3 8.5c.4 2.2 1.9 3.8 3.2 5.4.8 1 1.7 2 2.4 3.1l.9-.8c2.3-5.4 3.3-12.5-.8-16.6zm25.1-9.1-2.5.4.6 1.6c.3-.5.9-1.1 1.5-1.7.1 0 .3-.1.4-.3zm79.4-63.9-.8-.5 2.3-.5.1.2c1.3 1.7 3.3 4.4 4 5.3l.2-.2c-.3-.7-.5-1.6-.7-2.4-.4-1.3-.7-2.7-1.3-3.7l-.5-.1-.2.1-.1.1-.1.1h-.2c-.1 0-.2 0-.3-.1l-.1-.1c-.1.1-.3.3-.5.4l-.1.1-3.6 1c1 .2 1.9.5 2.7.9-.2-.1-.5-.4-.8-.6zm-26.2-2.7c-.1.4-.3.7-.4.9h.5l-.1-.9zm-1.2-1.5c.1-1.8.3-4.6-.1-5.7-.7.4-1.3.7-2 .9-1.8.7-3.3 1.3-3.5 3.8 1.2 1.2 3.4 2.1 5.5 2.4 0-.4.1-.9.1-1.4zm-4.9 18.3v.4c0 .6-.1 1.1-.1 1.6l6-14.7h-.4l-.1-.2c-1.7 3.9-3.8 8.3-6.3 12.4l.9.5zm4.5 4.2v-.1c0-.1-.1-.3-.1-.3s-.2-.1-.3-.1c-.1 0-.2-.1-.4-.1l-.3-.1v-.7l-.2.2.1.6c.1.8-.2 1.6-.6 2.2l1.8-1.6zm1.4-19.2-.4-.1c.1.1.2.2.4.2v-.1zm-7.2-7.9-.1-.2v.2zm1.3-.3c.2-.1.4-.3.6-.4-.2 0-.5.1-.7.1l.1.1v.2zm8.4 22.4c-.1.1-.2.2-.4.3v.2l.4-.5zm10.1 36.7.6-1.2-5.8-3.4c.4.4.9.7 1.3 1.1 1.4 1 2.8 2.1 3.9 3.5zm44.3 98c-.2.1-.3.2-.5.3v.2c.1-.2.2-.3.5-.5zm-27.5-150.7 1.9.2-1.1-.5v-.3c0-.4.1-.8.2-1.2l-.7-.3c.3.7.1 1.4-.3 2.1zm74.7 54.6.2.5c.2-.5.3-1.1.5-1.6-.3.3-.5.7-.7 1.1zm-87.5-49.9c0-.1 0-.1 0 0l-.1.1.1-.1zm.9-2.2.2-.6.8.8h.1l-.1.1.5.5-.2.7c.4-.3.8-.6 1.1-.9h-.2l.3-.1c.2-.2.3-.3.4-.5-.5-.1-.9-.3-1.2-.4-.6-.2-1-.4-1.6-.4-.1.3-.3.7-.6 1.1h.4c0-.2 0-.2.1-.3zm59.8 187.8 1.8-1.3v-.2c-.2.2-.4.3-.5.4-.5.3-.9.7-1.3 1.1zM975 433.7l-.4-.1 1.4 1.5-.1-1-.1-.1c-.2-.2-.2-.2-.8-.3zm35.1 199.3c-1.7.5-3.4.9-5.1 1.6-5.7 2.3-12.8 7.1-16.7 11.3l.1.6c2.5-.2 5-.9 7.9-2.1 1.7-1.1 3.6-2 5.5-2.8 3-1.7 5.7-3.7 8.1-5.4.4-.3.9-.6 1.3-.9l4.7-4.2c-1.8.9-3.8 1.4-5.8 1.9zm-43-5c.6 0 1.1.1 1.7.3l-.2-.2-.4-.4v-1.4c-.3.7-.6 1.2-1.1 1.7zm5 23.5 1.4-.7-1.5.7zm4.4-.2c3.1-.7 7-1.9 8.5-3.3h-.8l-7.7 3.3zm-33.8-187.2c.7-.5 1.3-1.1 2-1.6l-1.8 1.3-.2.3zm-.3.3-1.3.3.9.1c.1-.2.2-.3.4-.4zm2.9-5.8 1.2-.7.3-.5c-1 .7-1.9 1.4-2.7 2l1.2.3v-1.1zm5.4-1.4c3.1-2.9 6.1-5.9 9-8.8l1.2-1.2h-.1l-.9.7.4-.7h-.5l2.3-3c-2.7 3.1-8 7.6-12.6 11.2l1.6.4-.4 1.4zm5.3 14.9.4-.5-2.6-.1zm8.4 155.6h.3c-.2-.2-.4-.5-.6-.7.1.3.2.5.3.7zm-15.1-171.1.1-.1-.2-.2v.1c.1.1.1.2.1.2zm-3.2 3.6v1.1c1.2-1 2.4-2.1 3.5-3.2l-2.9 2.2-.6-.1zm1.1-1.9v.3l.8-.8c-.1.1-.2.1-.3.2l-.5.3zm.6-1.7c-.3.2-.6.5-.9.7h.4l.5-.7z"/><path d="M958.3 452c-1.8 1.9-3.6 3.8-5.7 5.5l-10.5 9.1v.2c14.1 3.8 16.7 3 26.3-3.9.6-.5 1.3-.9 2.1-1.4 1.9-1.2 4.1-2.6 5.2-4.3l.4-4.4c0-6.7-2-9.5-7-9.5-4.5 2.1-7.6 5.3-10.8 8.7zm70.9 6.2c-1.4-1.5-3.3-3-5.3-4.3 1.5 1.8 3.1 3.4 5.3 4.3zM896.9 633.5c3.6 4.7 17.5 8.9 24.2 8.9.7 0 1.3 0 1.8-.1l.1-.4c-15-10-23.5-11.6-26.6-11.7-.6 1-.4 2.1.5 3.3zm106.3-191.2c.7.2 1.3.3 1.9.5-3.3-1.5-8.4-2.8-12.4-3.6.8.3 1.7.6 2.7 1 2.2.1 4.8.9 7.8 2.1zm-25.1-1.1v-.5l1 .2-1.4-.7.4 1.6v-.6zm25.3 9.7c-5-7.9-12.2-10.8-22-14.4 5.1 8.7 10.3 11.5 22 14.4zM975.6 440s0 .1-.1.1h.1v-.1zm78.6 123.6c-3.1 4.1-6.3 8.3-10 12-.6.6-1.5 1.3-2.3 2-2.1 1.8-4.8 3.9-5.4 6.1 2.4 2.5 4.2 5.1 6.2 7.8.9 1.3 1.9 2.6 2.9 3.9 6.6-5.1 9.2-15.4 11.5-26.4 0-.2.1-.5.2-.8.5-2.3 1.7-8 1-10.1-1.4 1.9-2.7 3.7-4.1 5.5zm-8.6-79.4c.6 3.5 1.2 7.1 2.7 9.4 1.6-1.3 2.6-2.8 3-4.6.1-.5.1-1.1.2-1.6.1-6.1-6.4-13.3-10.5-16.8l3.2 7.6c.7 1.9 1 3.9 1.4 6zm-3.5 113.3c-.5-3.2-2.8-6.1-7.2-9.2V602c-.2.9-.4 1.7-.5 2.5-.5 2.2-1 4.2-.4 6.6l.1.1c2-.7 3.2-2.3 4.5-3.9l.1-.2c2.8-3.5 3.9-6.7 3.4-9.6zm4.6-88.5c-5.8 6.7-10.1 14.3-11.6 21l-1.6 24.2c-.1.4-.2.9-.3 1.3-1.6 7.5-3.7 17.7.1 24h.9c3.6-1 7.1-5.7 9.7-9.1.5-.7 1.1-1.4 1.5-2 1.1-1.4 2.3-2.8 3.7-4.3 4-4.5 8.5-9.6 10-15.7l.4-9.7c.1-13.9-3.9-23.1-12.8-29.7zm-25.7-57.8c1 .3 1.9.5 2.6 1l.7.6-3.6-3.7h-.6l1.3 1.7-.4.4zM848.3 579.6c1.2 2.5 3 5 4.9 6.8l.2-7.3-7-8.9c-.3 2.9.3 6.1 1.9 9.4zm8.1-27.2-8.2-.6c-3.2 9.4-1.4 17.6 5.1 22.5h.6l5.3-7.7c.8-3.3-1.5-13-2.8-14.2zm-.1-6.3c3.1-7.4-1.1-16-4.2-22.4-.8-1.6-1.5-3-2-4.2l-2.6-9.5c-1.3 3.4-2.8 9.4-3.3 16-.6 8 .6 14.2 3.3 17.6 1.9 2.4 4.9 3.3 8.8 2.5zm25.9 77.3c.1 3.4 8.8 10 12.1 11.8l.5-.2c-1.3-6.6-6.3-11.2-12.6-11.6zM857.4 530l.4 3.4v-6.6c-.7-2-2-3.7-3.4-5.6-.8-1.1-1.7-2.3-2.4-3.5l5.4 12.3zm91.8-59-.3-.1.4 1.1c.6.1 1.1.1 1.7.2-.8-.3-1.4-.8-1.8-1.2zm-78.8 70.8c.1.7.4 1.3.9 1.7.1-.3.3-.6.5-.9 1.5-2.7 4.1-7.2 1.7-9.6-1.8 2.6-3.6 6.4-3.1 8.8zm92.1-52.9c.4-1.5-2.7-9-5.1-13.9-1.2-.2-2.3-.4-3.5-.6-3.5-.6-7.2-1.3-11.2-1.4 2.6 6 12.6 15.7 19.5 16.3l.3-.4zm-113.6 16.3c-.4.7-.8 1.4-1 2.4 1 .9 1.6 2.4 2.1 4.1-.1-1.1-.1-2.2-.2-3.2-.1-1.6-.1-3.1-.3-4.3-.2.4-.4.7-.6 1zm108.1 9c.6 1.1 1.2 2.2 1.6 3.2l.5-.2.3-.2-.4-.4-2-2.4zm-11.5-44.6.4.1c.9.2 1.2.3 1.8.8h1.3l-.1-.2h1.7c-1.9-.1-3.5-.4-5.1-.7zm3.2 1.2-1.1-.3.3.2zm-73.6 52.6.5.7.2-.4c0-.1-.1-.2-.1-.2-.2.1-.4 0-.6-.1zm71.9-93.7c-.3.4-.6.7-1 1.1l.6.4c.1-.5.3-1 .4-1.5zm-70.7 85-2.3-.4-.8.8 1.7 6h.5c.1-.5.3-1.1.4-1.7.4-1.5.9-3.1.5-4.7zm68-73.4c-.5 0-.9-.1-1.4-.3.6.3 1.3.6 1.8 1l-.4-.7zm12.1 32.1.1-.2h-.8c.2.1.5.2.7.2zm-35.1 174.3 2.9 1.8-.5.9-2.6 1.1v1.1c1.1-.7 2.2-1.3 3.4-1.9 1.1-.6 2.2-1.2 3.2-1.8-1.6-.6-3.8-.8-5.9-1-.1-.1-.3-.2-.5-.2zM939 457.9l-3.2 6.3v.1l3.4.2.4-1.3.8.2v.1c0 .2-.1.4-.3.7l-.2.3.9.1v-.2h-.2l.2-.2v-.3l.6-1c-.1 0-.1.1-.2.1l-.5.3-.1-.5c-.1-.2-.3-.4-.5-.6-.4-.3-.8-.6-1-1.2-.3-.9-.2-1.7-.1-2.5-.1-.2 0-.4 0-.6zm1 9.5.2.2V466l.2-.1c.5-.4 1-.7 1.5-1.1l-2.3.4-.3.4h.6l.1 1.8zm-72.5 68.5.9 2.1c.2-.9.4-1.6.3-2.2l-1.2.1zm47.7-45.3c-.9 1.5-2.3 2.8-3.7 4-1.5 1.4-3.1 2.9-4 4.6l10.9-8.6h-3.2zm15.1-24.2-.4-.1c.1.6.3 1.1.5 1.5.3-.4.2-.8-.1-1.4zm-20.4 23.7-10.5-.2c-2.6 3.9-5 8.3-7.7 14.1h.2c6.9-2.3 12.8-6.9 18-13.9zm-6.6-28.2c1.3-1.6 2.5-3.1 3.8-4.6l2.7-3.3.2-.2.3.1c1.8.8 3.5 2.4 5 4.4-.4-.7-.7-1.4-1-2.1h-.8l-.5-.5-3.3-2.5.8-.8 1.5 1.1-.9-2c-1.1.9-2.2 1.9-3.2 2.9-1.7 1.7-3.3 3.3-5.4 4.3l.5.5c.5.6.5 1.6.3 2.7zm32.1 18.8c0-.5 0-.7-.1-.9l-.6 1.5.7-.6z"/><path d="m868.4 500.2 1.2 12.7h-1.2c-2.7.2-5.1.2-6-.6l-.1-.1v-.1c-.1-.2-.1-.4-.1-.6-.2.2-.4.3-.7.4l-.3.1-.9-1.8c.4 1.1.8 2.3 1 3.5v.1c.1.6.2 1.2.2 1.8.1 2-.1 4.1-.6 6.2-.1.5-.3 1-.4 1.4-.5 1.4-.9 2.7-.5 4.5.2 1 1.1 2.1 1.8 3 1.1 1 2.1 2.1 3 3.4.6.7 1.2 1.5 1.8 2.3l-1.1-2.6 2 .5-.1-.2c-.6-.8-1.2-1.5-1.7-2.2-2.7-3.3-5.2-6.5-4-12.5.1-.6.2-1.1.3-1.7.2-1.3.3-2.5 1.2-3.5l.2-.2.2.1c.9.3 2.1.2 2.9-.2l.1-.1 2.5.2.1.1c2.3 1.7 3.6 5.1 3.6 9.2 0 4.6-1.7 9-4.2 10.8h1.9v.2c.8-1.5 1.8-2.7 3-3.6l.2-.1.2.1c.2.1.4.2.5.2l2.3-4.8-.3-.9c-.1.2-.4.4-.7.6l-.3.2c.1.7.1 1.4-.2 2.1l-.4-.2.4.2c-.3.7-.4.8-1 1.3l-1.3.9.2-.3-.4.2.6-8.1.6.7c.1.2.3.4.5.6v-.8l-.3-.2.3-.1v-.3l-.7-1.9-1.9-5.6 1.9-2.1h.2c.7 0 3.2.2 4.1 1.3v.1c1 2.2-.6 6.6-1.4 8l-.1.2.3.1.5-1-.2 1.1.5.1 6-7.3h.6l1.2 1.4 1.6-1.3-.8-.9-1.5-.4c-.2.2-.5.4-.7.6-1 .9-1.9 1.7-3.9 1.9h-.3l-.1-.3c-.3-.7-.7-1.3-1-1.9-.4-.6-.7-1.1-1-1.8l-.1-.3 10.9-7.5.1.6c.3 1.3.8 2.3 1.2 3.5.5 1.1 1 2.3 1.4 3.8l2.2-1.4c-.7-.1-1.1-.5-1.4-1.4l-.2.3-1.1-.7-1-2.7v-.6l5.1-1h1.4l-1.1 1.8h-.1c-1 .4-1.7 1.1-2.3 1.8.6-.5 1.2-1 1.8-1.4 2.9-2.3 5.7-4.5 9.6-5.9l.2-.1.8.8-1.7 4.1c3.1-1.9 6-3.9 8.7-5.9.9-.7 1.8-1.4 2.8-2.1 3.1-2.2 6.9-5 11-7.5l5.9-3.4h.1c4.3-.5 7.8 4.2 8.9 5.8 1.5 2.1 3.6 4.5 5.9 7.2.8.9 1.6 1.9 2.4 2.9-5.1-7.3-11.1-16.7-12.3-23.9l-.3 1.5c-.2.6-.7 1.2-1.3 1.6l.4.2c1.8.8 4.1 4.2 4.3 6.4v.4h-.8l-7.4-3.7 1.4-1 1.1-1.1.2.1c.3.1.5.2.5.5 0 .2-.1.4-.2.4s-.1.1-.1.2v.2l-.7.2c.7.8 3.2 2 4.2 2.5-.4-.7-1-1.4-1.6-2.1-.9-1.1-1.6-2-1.6-2.8v-.4c-.3.2-.6.4-.9.4-.2.1-.4.1-.6.1l-.6.4.2-.5c-.1 0-.2-.1-.2-.1l-.3-.2 2.1-4.4.3.1v-.1l.1.1 1.2.2.4.7c0-.3-.1-.5-.1-.8v-.3l1.5-.9h.1c1.9.3 3.2 1.1 4.3 2.6l1 1.3-1.5-.7c-.5-.3-.9-.6-1.3-.9-.8-.6-1.4-1.1-2.4-1 2.6 11.3 15.8 29.6 23.6 36.7l2.4-.6-5.3-16h-.3v-.7h-.2v-.7h-.2v-.7h-.1l-.7-2.4-4.4-4 2.1.9c1.2.5 2.4 1.6 2.9 2.6l.2.2v-.1l.1.2c.4.5.5 1 .6 1.6 0 .2.1.3.1.5l.6 1.7h.2l5.6 16.9h.7v-.2c-.2-.4-.4-1-.6-1.5-2.1-5.6-6.1-15.7-5.6-20.2-.3.3-.7.6-1.2.8h-.6l-.1.8c-.7-1.3-2.2-2.4-3.5-3.4-1.8-1.4-3.7-2.8-4.2-4.8v-.1l-.7-.9.6.4.6.2h.2c-4.1-3.6-8-8.3-9.8-11.4l.2 1.8.5.4c.8.5 1.1 1.4 1.5 2.2.1.1.1.3.2.4l.1.2-.3.3.1.2-.2-.1-.5.5-1.8-1.8-1.2-.8 1.5-.8-.1-.2h-1l-.2-2.5-2.8-.6 3.3-.7.2.2c-.1-.2-.2-.3-.2-.5l-.1-.2.5-.5h.2c1.1 0 2.9 0 5 .2l-2.2-.5.1-.8 1.9.2-.4-.2-.5-.1c-.6-.2-.7-.2-1-.5l-1.4-.6 1 .2-.3-.4c-.2-.1-.4-.1-.6-.2l-.1.3c-.1.2-.1.3-.1.4-.1.3-.1.4-.4.5.3.2.4.3.4.5v.2s0 .1.1.1l.4.6h-2.4l.7-1-.1-.5c-.1-.4-.5-.9-.9-1.3l-.3-.3-.6-.3v-.4l-1-1 .2.1-.2-.2h-1.2l1.9 4.1 2-.8-1.3 1.9h-1.7v-.8l-2.3-4.9.5-.5h2.8l.1-.3c-1.2.2-3.4.4-4.6-.5l-.3-.2 1.7-3.1c-1.1 1.5-2.3 2.9-3.6 4.2l-.3.3-.7-.7c-5.4-2.2-8.6-7.3-8.5-13.7v-.2l.2-.1c1.2-.7 2.4-1.5 3.7-2.5 1.1-1 2.3-2 3.2-2.8 1.4-1.3 2.8-2.7 4.1-4.1l2.9-2.9.2-.2.2.1c.7.3 1.4.6 2.3.9.6.2 1.2.4 1.8.7-1.3-.7-2.4-1.5-3.1-2l-.2-.1v-.2c0-1.1.2-1.9.6-2.6l-.5-.2c-.4 3.4-5.4 6.8-9.4 9.5-1.5 1-3 2-3.9 2.8l2 .1-2.1 2.5-3.5 2 .3.3c1.2 1.1 1.8 4.9 1.9 6.6v.4h-.6c2.9 2.9 5.5 6.2 6.4 9.3l-.9-4.2 2.5 1.1v.2l.9.2v1.3l-.9 2v.5l-.1-.1-.3.6-.9-.5v.3l-.3.2 1.1.5-.6 1.3c-.1.3-.2.5-.4.7l.5-.6.2.1c.5.1.9.3 1.3.6v-.6c-.9-2.9.8-5.7 1.9-6.9l.2-.2 1.5.6.1.2c.1.4.3.8.5 1.3.6 1.6 1.3 3.2.7 5.1v.1l-2.8 1.5-1.5-.8c.9.7 1.5 1.6 2 2.7h.3l-.6-1.2.5-1 .4.2c.5.3.7 1 1 2h2.6v1.1l-1.3-.3v.4h-.4l-1.4.3-.7-1.3-.4-.1c.3.8.5 1.6.5 2.5v.2c-.1.3-2.8 6.2-5.9 7l2.5.2-.1.2h.2l-.4.4-.7 1.5-1 .3-2.2 1.3-1.2.8v-.1l-.8.5-1.7 1.1h-.1c0 .1-.1.3-.3.5h-.1l-1.7.7v-1c1.6-3.6 2.5-4.9 6.2-6.5-2.3-.8-3.2-3.9-3.3-6.4v-.1h-.4l-.7.5c.6 2.4.3 5-1 7.2l-.1.2h-.2c-6.3.6-13.9.7-21.3.7h-.5l.2-.5v-.1l-1.3 1.3h-.8v-.9h-1.8c-4.7.1-10 .3-12.7-1.5l-.1-.1v-.1c-.1-.4-.3-.7-.4-1.1-.5-1.1-.9-2.2-.7-3.4v-.3l-2-.2c-.1.1-.1.2-.2.3l.2.1c1.8 1 2.9 4.3 3.1 5l.2.5h-.9l-4.1-1c-.5.5-1 .8-1.4.8h-.4c-.7 1-1.4 2-2.1 2.9 1.4-1.4 3-2.4 4.7-3.2h.2c1.6.1 2.6.5 3.5.9.4.2.7.3 1 .4l13.3.2-.1.5c-.4 1.9-1.3 4.2-2.7 6.4.9-1.5 1.9-3 2.8-4.4.3-.5.6-.9.9-1.4l.1-.2h13.6l-.1.5c-.5 2-3.7 5.6-7.5 9l.9 3-4.5 1.1v-.9l.7-.8c-1.8 1.4-3.7 2.6-5.3 3.5-2.6 1.4-4.6 1.8-6 1.2l-.3-.1v-.7c.9-3.1 2.4-6 4-8.7-4.6 7.4-12.8 15-19.8 15.5l-.4.5.3.1-1.1 1.1-.1-.1-.6.8-2.5.9.3-4.3 3.3 1.3.6-.4h-.7c-2.6-1.3-2.9-3.1-3.6-6.1-1.1-5.2.1-9.8 2.5-13.2-.8.8-1.5 1.4-2.2 1.7l-.3.2-.2-.3c0-.1-.1-.1-.1-.2l-.4.4v.3l.1.1c.8 1.2.3 3.5-.2 5.5l.3.4-1.2.2h.6zm37-.7 9.2-10.4h.6c2.6-.2 5.1-.2 5.8.9l.2.4-.4.2c-1.3.6-3.4 2.5-5.7 4.5-3.4 3-6.6 5.9-8.7 5.9-.3 0-.7-.1-.9-.3l-.2-.1v-1.1z"/><path d="m872 512.5-.7-.3-.1.8zm30.9-11.7 1-.3.1-.1c-.1-.2-.1-.2-.2-.3l-.9.7zm28.8-55.4c-.4.4-.9.7-1.3 1.1-1.2 1.1-2.2 2-3.2 2.8-1.9 1.8-2.9 3-3.1 3.8 1.5 5.5 3.3 8.1 7.7 10.8 3.7-3 6-7.8 8.3-12.5 1.3-2.7 2.6-5.4 4.2-7.8l-.1-.3-7-2.8c-1.2 1.3-3.3 3-5.5 4.9zm-75.9 46v.2l-.2-1.1c-.2.2-.5.3-.7.5h.8l.1.4zm196.6-6.9c.1-1.2.2-2.4.2-3.7l-.1-4.2c-.1-2.7-.5-5.5-1-8.2l-.2-.2c-.2 3.3.2 6.6.5 9.8.3 2.4.5 4.5.6 6.5zM851.2 494l-.1.1.5.4c-.1-.1-.3-.3-.4-.5zm5.8-.7h-.7c.1.4.1.7.1 1.1 2.1-3.1 4.7-5.6 7.2-8 1-.9 1.9-1.8 2.9-2.8-2.2 1.9-4.7 3.3-7.2 4.7-.3.2-.6.3-.9.5l-.1.1 1.6.3-2.9 4.1zm-8 4.6-.1.1c.1 0 .2-.1.2-.1h-.1zm-.8 5.4c.4-.7.8-1.5 1.2-2.3l.2-.3 1 .5v.2c.2 11.1 2.9 18.8 8.2 23 .2-.8.4-1.6.7-2.4.6-2 1.2-4 1.2-6.1 0-.6-.1-1.2-.2-1.8l-2.1-5.8.3-.2c.9-.6 1.7-1.4 2.4-2.5.6-1.1 1.3-2.3 1.9-3.5l.3-.6c-2.7-1.7-7-2.7-12.3-2.7-2.2 1-7 4.3-5.9 8.8 1.5-1.2 2.3-2.6 3.1-4.3zm167.3 131.2 2.4-2.2h-.1c-1 .7-1.8 1.3-2.3 2.2zm-65.8-126.8c-4.4-6.8-11.6-18.2-17.9-18.7-1.8 1.2-4.1 2.5-6.6 3.9-3.2 1.8-6.8 3.9-10.1 6.2-.9.7-1.9 1.4-2.8 2-4 3.1-6.4 6-7.3 8.8-1.8 5.7.7 13.7 1.6 16.7 4.3 14 8 22.8 11 26.2l6.5 4.3c.6.4 1.3.9 2 1.5 2.7 2.1 6.1 4.7 9.9 3.9 6-1.3 9-8.5 11.3-14.4.4-1.1.8-2.1 1.2-3 .3-.6.8-1.7 1.4-3 2.8-6 8.7-18.5 8.1-21.8l-5.6-8.5c-.7-1-1.6-2.4-2.7-4.1zm-60.1 5.1c-.1-.2-.1-.4-.2-.6-.6-2-1.1-3.9-2.2-5.3l-7.8 5.7c.5.5.8 1 1.1 1.6.2.3.3.6.6.9l3.7-2.6h.2c1.5.2 2.2.9 3.1 1.5l.3.3 1.2-.5v-1zm-39.2-15.6v.5c.5-.1 1-.1 1.5-.1 2.3 0 4.5.6 6.5 1.2 2.1.6 4.1 1.2 5.8 1 .1-.1.1-.3.2-.4-2.8-.1-5.4-1-7.9-2.5l-.1-.1-.2-.6c-.1.3-.1.6-.2.9l-.1.3h-.7c-.3-.1-.7-.3-1-.5l1 .8-3.7-.3v-.8h.8l-.4-.4-1.2-.8-.5.8-.2-.1c0 .4 0 .6-.3.9l.7.2zm116.7 156c-.3.2-.6.3-.9.5l2.5-.7-.8-.3c-.2.2-.5.3-.8.5zm73.3-43.9 5.1-5.1c-1.9 1.7-3.7 3.3-5.1 5.1zm-38.2 33c-1.9 1.1-3.7 2.1-5.5 2.8-.3.2-.6.4-.8.6 5.2-2 11.7-4.7 15.1-8.2-2.3 1.9-5.3 3.3-8.1 4.5l-.7.3zm53.1-47.8c-.1.1-.2.3-.2.4l.2-.4zM855 495.8c.5-1.7-.1-3.2-.6-4.3l-.1-.1-2 2 2.7 2.4zm1.5 111 .3 4c1.9-3 6.8-11.9 7.6-13.3l-7.9 9.3zm108.4 24.3c0 .7-.1 1.3-.1 1.9.3-.7.7-1.4 1.1-2-.2 0-.4 0-.6.1h-.4zm9.3-1.5c.6-.7 1.2-1.5 1.5-2.3l-.3.6h-.3c-.3 0-.6-.1-.9-.2.1.1.2.3.3.4l.1.2-.1.2c-.4 1.3-.7 1.7-1.8 2.2h.5c.4-.4.7-.7 1-1.1zm-2.8 16.8c-.3 0-.5-.2-.8-.4h-.1l.6.6.3-.2zM864.5 578l.5.1-.6-1.1c0 .2.1.4.1.7-.1.1-.1.2 0 .3zm141.1-125.5s-.1.1-.1.2l-.1.1 2.1.8c-.6-.4-1.2-.7-1.9-1.1zM884.5 585.8h11.7c-2.8-4.8-11.3-12.5-16.2-14.7l-3.3 5.2c2 3.6 5.3 7.1 7.8 9.5zm8.7 33.7-.6-.5c.1.2.2.5.3.7l.3-.2zm1.7-9.9.1-.2s0 .1-.1.2zm24.9 6.6c.4 1.8 2.5 5 5.1 7 1 .8 2.5 1.6 3.9 1.5-.5-1-1-1.8-1.3-2.6-1.7-3.3-2.5-4.8-7.7-5.9zm65.9-161.7 5.7 6.7c-1.3-2.7-3.5-4.7-5.7-6.7zM964.3 536c-3.3 7.4-7.8 17.5-8.6 25.7h.1c2.5.4 5.3.9 7.9.2 5-1.4 18.2-10.4 20.5-14.4-.7-5.4-4.6-18.7-7.2-20.8l-6.8-2.1-4.8 9.2c-.4.6-.8 1.4-1.1 2.2zm16.6-89.1c1.3 2.2 10.9 12.6 13.7 13.9v-.1c-2.7-7.4-6.1-16.5-14.7-18.3l1 4.5zm-85.7 163.2-.2-.2-.1-.1.1.3c.1-.1.2 0 .2 0zm74.3-94.8 7.5-1.1 5-11.1c-.6-.6-1.5-.8-2.3-1.1-.7-.2-1.5-.5-2.1-.9-1.4-.9-2.6-2-3.8-3.1-2.6-2.3-5.2-4.7-9.9-4.8l-2.4.7c.5 4.4 5.5 19.6 8 21.4zm-75.7 106-.4-.1c.1.4.1.8.2 1.3 0-.5.1-.8.2-1.2zm28.2-16.7v.8h.3c-.1-.3-.2-.6-.3-.8zm-5.5 8.2.9-.3c1.2-3 1.8-7.6 1.7-11.7-.2-5.1-1.7-8.6-4-10-2.7-1.5-9-1.5-12.1-1.5-1.7 1.3-1.6 4.2.2 8.7 1.7 4.2 5.5 7.6 9.2 10.9 1.5 1.4 2.9 2.6 4.1 3.9zm-6.9-27c-.1-.2-.2-.5-.3-.8-.6-1.5-1.3-3.5-2.3-4l-6.1 3.8.6 1.3 8.1-.3zm-9.1 18.5c-.8 1.9-2 2.8-3.4 3.7l1.4.3.3 4-.3-.1.5.5c-.6-2 0-4.4 2-7.9l-.5-.5zm11.1 11.6c.2-.2.4-.4.3-.5 0-.3-.6-.7-.8-.9l-.1-.1v-.1c-1.4-3.1-4.7-7.1-8.7-8.5-.2.3-.5.7-.7 1-.8 1.1-1.6 2-1.7 3.7.8 1.9 3.8 5.1 6.9 6.1 1.8.5 3.4.3 4.8-.7zm13.9-1.8c.2-1.6.1-2.8-.3-3.6-.4-1.2-1.1-1.8-2.3-2.2l-1.2 4.5 3.8 1.3zm-25 .9zm19.2-17.7 1.3 4.7v-.3l.6.4c-.4-1-.9-2.1-1.3-3.2-.2-.5-.4-1.1-.6-1.6zm-23.3 12.2.2.3.8.5-.1-1.2h-.4zm24.6-4.4c0 .3-.1.6-.2 1-.2 1.5-.5 3-.1 3.9.2-1.1.7-2.7 1.5-3.6H921v-1.3zm26.7-33.7c1.2-.4 2.5-.6 3.8-.6 1.5 0 3 .3 4.4.7l-2.4-1h-5.1l-.7.9zm8.9-7.7c-.7-.1-1.4-.3-2.1-.4l-.7.9h.3l.2-.6h.3c.2 0 .4 0 .7.1 2.4.2 4.5.4 5.8 1.9-.1-.3-.1-.6-.1-.9v-.3l.6-.3c-1.8.2-3.4-.1-5-.4zm-5.5 3.7.6-.6h.4l.2-.5h.6l1.1-.7h1.2c-.5-.1-.7-.3-1.1-.7l-.2-.2v-.1l-.4-.2-2.4 3zm18.1 12.4c-.5-.4-1-.7-1.4-1.1-1.5-1.3-3.4-3.3-4.2-5.9-.1.3-.3.5-.5.7l-.3.3v3c0-.3 0-.5.1-.8l.1-.4 2.1.3 2.3 2.3-.4.8c.8.2 1.5.5 2.2.8zm10.4 50.6c.4 1.6 1.4 2.3 2.9 2.1 2.9-.3 7-3.7 7.3-6.6l-.5-.2-9.7 4.7zm17.6-48.9c1.2-.9 2.1-3.1 2.6-6.5 1-7.4-.2-18.4-2.5-21.2-1.2-1.4-3.1-2-6.8-1.9l-7.8 2.9-16.7 11.5.4 8.5c1.1 2.4 5.9 5.2 12.1 6.9 6 1.8 14.5 2.8 18.7-.2zm30.1 15.8c.3-1.4.5-2.7.7-4h-.6l-.1-.3c-.4-1.1-.8-2.1-1.3-2.9.8 2.1 1.2 4.7 1.3 7.2zm3.6-92.6c-5.8 1.5-8.4 2.2-6.6 11.6l.9 7.2c2 .5 4.9 1.1 7.6.6 4.3-3.6 6.2-9.3 8.3-15.4.4-1.3.9-2.6 1.4-3.9-1.5-1.1-2.8-1.8-6-1.8-2.2.8-4 1.2-5.6 1.7zm-2.1-41.4c-1.7-4.3-5.7-9.4-9.9-11.5.2.3.5.7.7 1 2.7 3.6 5.9 8.1 9.2 10.5zm-4.3 62.9c.6-.2 1.2-.4 1.9-.5-1.8-.3-3.4-.4-4.8.6-.9.6-1.5 1.5-2.1 2.3-.8 1.2-1.7 2.4-3.4 3 .3.1.6.3.9.6l.2.2-.1.2c0 .1 0 .1-.1.2 1.6-3 4.4-5.5 7.5-6.6zm.9 54.2c-.5 1.8-.2 3.6.9 5.1 1.2.1 1.8.2 2.4-.4-1.1-2.3-2.3-3.9-3.3-4.7zm-51.4 65 1.1 3.7-.3.2h.1c.2 0 .3 0 .5.1l-.4-4.8-1 .8zm52.5-33c2.2 0 3.6-.6 4.3-2 1-3.5.9-13.6-.7-16.5-1.5 3.8-4.3 14.9-3.6 18.5zm20.9-108.7c-.3-2.2-1.9-4.7-3.3-5.9h-.3l-1.5 3.1 5.1 2.8zm-101.2 88.6c3.3 0 5 1.1 6.9 2.2.3.2.7.4 1.1.6l.2-.3V593l-.3-.6c-2.8 0-5.6-.2-8-.6l.1.5zm70.7-135.7c-.2.1-.5.3-.8.4-.2.1-.3.2-.5.3.6.3 1.1.6 1.7 1-.3-.4-.5-.8-.6-1.2l-.1-.2.3-.3c-.1.1 0 .1 0 0zm14.9 85c1.1-6.7 1.2-11.5.3-13.6-1.6-.4-3.3-.6-5.5-.6l-.7.3c-4 1.9-7.1 3.5-8.5 7.8-.8 2.3 0 5.6.6 8.2.1.5.2.9.3 1.3.4 1.9.8 4.4 1.1 7.1.4 2.6.7 5.3 1.2 7.9v.1c1.1 5.7 2.6 10.9 5.6 12.5l.4-.2c1.5-5.1 3-11.3 4.2-18.3l1-12.5zm-68.1-67.3c.1 4.4 1.9 9.4 3.8 12.1 1.1 1.6 3 2.8 4.9 4 .7.4 1.4.9 2 1.3l2.4 1.8c4.5 3.4 9.1 6.9 17.1 5.1.7-.1 1.3-.3 1.9-.4 1.6-.3 3-.5 4.1-1.2-.3-2.2-.4-4.3-.6-6.3-1.2-12.5-1.8-19.3-13.6-24.3-.7-.3-1.5-.7-2.2-1-2-1-4-2-6.8-2.1-4.7 3-9.4 6.1-13 11zm59.3 146.5c.9-2.5 2-5 2.9-6.6-.7-.9-.9-2.5-.7-5.2-.5.9-1.2 1.8-2 2.7h.1l.6.3v.1c.4.3.6.8.8 1.4.4 2-.8 5.2-1.7 6.1l-.1.1h-.2c-.2 0-.3 0-.5-.1l.3.3c.3.3.4.6.5.9zm-24.2-160.5c.4.5.7 1 1 1.4 5.8 8.2 13.3 12.6 22.1 17.7 1.2.7 2.3 1.4 3.5 2.1l10 6c-.1-6.8-4.1-15.1-7.8-20.1-4.4-5.8-23.7-15.6-33.8-16.1.8 3.4 3 6.4 5 9zm22.8 161.8c-.4-.9-1.9-1.3-4.4-1.2-1.9.9-4.1 1.5-6.1 2.1-6 1.8-11.6 3.5-12.7 10h.2c.5.2 1.1.3 1.9.3 5.6 0 17.5-4.8 18.9-6.3 1.8-2 2.6-3.9 2.2-4.9zm-31.4-73.8c2.8 1.4 6.4-1.2 8.5-2.8.3-.2.5-.4.8-.6.3-.2.7-.5 1.1-.7 4-2.7 10.7-7.2 9.2-13.5l-3.1-9h-20.4c-.5 2.3-2 3.6-3.5 4.6.1 5.2 4.8 20.8 7.4 22zm-124.8 32.3v-.3l-.6-.2c.2 1.3.5 2.8.7 4.2.1-1.3.3-2.6.7-3.7l-.5-.2-.3.2zm97.2 40.2v.1l-.1.1c-.1.1-.2.1-.2.2h.1c.4.1 1.2.3 2 .7-.5-.4-.9-.8-1.3-1.2l-.1-.1v-1.9c-.2 1-.3 1.7-.4 2.1zM881 587.6c-1.3-3.3-4.6-6.3-7.2-8.7-.3-.2-.5-.5-.7-.7h-1.7c-4.9 3.6-5.4 5.2-3.4 12.9l10 4.8c1.3-1.2 3.4-6.7 3-8.3zm10.5 36.7c.1-8.4-6.3-13.1-8.8-14.6-1.6 3.4-2 6-1.3 8 1.3 3.2 5.4 4.8 10.1 6.6zm-8.6-34.1h-.8v-.2l-1.6 4.8.2.1c.5-1.9 1.5-3.9 3-5.3l-.8.6zm97.1 9.5-1.6 14.2c1.1-5.4 2.2-11.5 1.6-14.2zm-3.3 48.8c6-.3 18.8-8.7 21.7-12.7-2.5-.7-5.6-1-9.9-1-.4.2-.7.3-1.1.5-5.2 2.4-13 5.8-10.7 13.2zm-74-31.7c.3 0 .6 0 .8.1-.1 0-.2-.1-.3-.1l-.4.1c0-.1 0-.1-.1-.1zm127.1-155.4 13.6 25.4c-.9-10.1-5.9-23.3-13.6-25.4zm-44.4-17.7c-.3-.3-.6-.5-.9-.6l.9.6zM964 628.8h-.5l.9.6-.2-.9-.2.3zm-66 .2c.2 0 .4.1.7.1l-2-1.2v.7l-1.1.4h-.1c-.6-.2-1.2-.4-1.7-.7l.8 1.3c1.1-.9 2.3-.7 3.4-.6zm78.7 10.2-.4-.2c-.3.4-.7.8-1 1.1-1.3 1.4-2.3 2.6-3 4.8 2.2-1.2 4.3-3.5 4.4-5.7zm-3.7 7.6c-.5.6-1 1.1-1.4 1.5-.8.7-1.5 1.4-2 2.4l3.9-2.1-.3-1.9h-.2zm3.1-25.7v-.4l.1.2c1.4-6.7 2.8-17.5 2.2-20.2-.4-1.6-2.4-3.5-3.6-4.4h-.5c-.9.4-1.8.7-2.8 1-1.7.5-3.3.9-4.2 2.1-.6.8-1.4 5.3-2 10.5-.5 5.3-.6 9.6-.1 10.7l9.5 5.6c.4-.9.9-2.8 1.4-5.1zM932.7 645l.7-.5v-.5c-1.9-1.8-6.3-2.9-9.3-3.7 1.4 2.6 4.8 5.4 8.6 4.7zm6.3-36.8h-.8c-1.4.9-2.8 1.5-4.2 2.1-1.8.7-3.4 1.5-4.8 2.7-.1 4.3 1.1 9.9 3.6 12.4.9 1 2 1.4 3.2 1.4h.2c2.5.7 7.6.4 9.3-.6 2.2-7.4-1.7-12.3-5.2-16.6-.5-.4-.9-.9-1.3-1.4zm12.2 10.4c1.3.9 5.6 2.9 8.3 2.4.8-.2 1.4-.5 1.7-1.1.5-1 1-4.9 1.1-9.1.1-4.5-.2-8-.8-8.8-1-1.2-12.4-6.4-15.2-6.6l-1.1.8c-1.4 4.2-1.5 8.8-.3 13 1.1 4 3.4 7.3 6.3 9.4zm1.3 7.7c.9-.1 1.8-.1 2.6-.1 2.2 0 4 .4 5.6 1l-1.1-.9.2-1c-.2.3-.5.5-.9.7l-.1.1-2.1-.5v.2h-3.1l.2-.4c-.4.3-.8.6-1.3.9zm72.2-5.2c-.2.8-.5 1.7-.8 2.9 3.1-1.9 6-6.1 7.4-9.4l-.2-.2c-5.2 2.4-5.4 2.9-6.4 6.7zm-138.4-33.3h-.9l-.5.8c.5-.3.9-.6 1.4-.8zm32.4-22.8c2.2 1.1 5.3 1.3 7.6-1.3l-.1-.3c-1.6-.6-2.9-1.6-4.1-2.4-2.1-1.5-4.1-2.9-7.4-3.1-.6 3 1.5 5.8 4 7.1zm-5.2 66.5.2-1.2c-2-6.2-4.8-12.2-13.5-12.1-5.8 2.8-5.7 5.3-4.9 7.1 2 2.9 13 7.4 18.2 6.2zm-37-72.7c1.9 3 5.7 8.2 10.3 12.8 3.6 3.6 8.9 8 13.7 8.4l.4-.3c3.5-2.3 12.7-8.6 13.5-12.1.9-3.8-3-6.3-5.4-7.8-.2-.1-.4-.2-.6-.4-5.4-3.5-25.2-13.7-32.2-13.9-1.5 1.6-4.5 5.5.3 13.3zm63.2 20.5h-.2l-7.8 3.6c-4.2 2.5-8.3 5.6-11.3 8.8 0 4.2 2.6 11.4 6.1 14.3 1.4 1.2 2.9 1.7 4.3 1.4 2.8-.5 6.2-1.8 7.7-3.5 3.9-4.5 6-19.6 1.2-24.6z"/><path d="m935.7 607.4-.2-.2c-4.8 1.8-8 1.9-10.3.2-.6-.5-1.2-1-1.7-1.7l.1.3-.5.5h-.3c1.8.7 2.6 1.9 3.4 3.1l.2-.3-.1-.1h.1l.2-.3.3.1c.1 0 .2 0 .3.1 1 .2 1.6.3 2 1.6l.1.3-.3.2c-.8.4-1.2.5-1.6.4.2.2.3.4.5.6 1-.8 2.4-1.5 3.8-2.1 1.5-1.1 3-1.8 4-2.7zm-4.1 32.5c-.4-8.1-9.3-14.9-15.2-19.5-.7-.6-1.4-1.1-2.1-1.6-.7.2-1.1.5-1.6.8-.1.1-.3.2-.4.3-.5 3 1.1 6.9 4.2 10.7 4.3 5.4 10.4 9.1 15.1 9.3zm6.5-69.1c-.6-.2-1.1-.3-1.6-.5-2.6-.8-5.1-1.6-9.1-1.6-1.5.6-2.9 1-4.3 1.5-4.2 1.3-7.6 2.4-9.9 6.2-1.2 2-1.4 4.4-.7 6.6.5 1.7 1.6 3 2.9 3.6 5.1-1.5 18.8-11.4 22.7-15.8zm-40.7 42.3-4.7-2.6-6.7-1.8 7.2 9 5.4-3.2zm-2.3 6.1c1.1-1.2 2.8-2 4.9-2.3-.2-.1-.3-.1-.5-.2l-.3-.2c-1.1.8-2.6 1.5-3.9 2.1-.1.1-.3.1-.4.2 0 .2.1.3.2.4zm49.7-24.9.1-.1h.1c1.6-.4 5 .6 8.1 1.8-1.9-1.6-4.1-2.3-8.1-2.6h-.4l.3-2.6h1.8c-.4-.2-.8-.4-1.1-.7l-.1-.1-2.5-11.7c-.1-.6 0-1.2.3-1.8l-1.5 1.8 2.4 8c.8 4.6-.4 8.3-1.4 11.6-.5 1.6-1 3-1.2 4.5l.5.4c-.1-3.5.8-6.3 2.7-8.5zm-51.3 29.6c0 .3-.1.7-.2 1v.1l-.4.6.9.6c-.2-.9-.3-1.6-.3-2.3zm-11.1-36.8.8.1c-.5-.3-1-.8-1.5-1.3.3.4.5.8.7 1.2zm-.5 8.3c-.8 2.5-.2 5.4 1.8 9 .8.2 1.7.6 2.7 1.1 3.2 1.3 7.6 3.2 9.9 1.6 3.4-2.2 4.9-7.2 3.5-11.5-.7-2.1-3-6.9-10.5-6.7-4.1 1.7-6.5 3.9-7.4 6.5zm74.3 29.6v-.4h2.5l.1-.8-3.3-.4c.2.5.2.8 0 1.5l.7.1zm-82.6-52.1h.1c.2-.2.4-.5.6-.8 1.1-1.5 2.3-3.1 2.4-5 .1-1.5-5-11.1-6.6-13.2-2.3 7.7-.9 15.4 3.5 19zm92 54.4c.5-.1.6-.2.8-.3.1 0 .1-.1.2-.1l.4-1.8-4.9-2.4-.8.8v.1c.1.1.3.2.4.3 1.6.8 2.9 1.6 3.9 3.4zm-99.5-50.8 3.7-2.3-3.7-7.8c-2.8 2.6-2.2 7-.4 10.2l.4-.1zm-4.3-23.2 3.4 1.6-1.5-2.9h-.7zm2.6 7.7-.3-.6-3.2-1.9c-.1 1.7-.1 4.7.7 5.9l2.8-3.4z"/><path d="M0 0v1080h1920V0H0zm977.3 659.6-.1-.2c-.7-2.8-1.7-4.4-3-5.1-1.6-.8-3.5-.1-5.6.7-2.3.9-4.7 1.8-6.9.6l-.8-.5.3-.1c-.1 0-.2-.1-.2-.1l-.6-.4 5-2.5-.1-.1c-1.7-.7-3.7.7-5 2l-.2.2-1.3-.9.3-.3c1.3-1.7 3.4-3 5.4-4.3 2.6-1.7 5.4-3.5 6.3-5.9.3-.8.3-1.9.2-2.9 0-1-.1-1.9.2-2.7.2-.5.4-.9.7-1.4.5-.7.9-1.4 1.1-2.7l-.5-1-6-.2-.1.3c-1.2 4.4-3.1 11.8-7.8 12.5h-.2l-.1-.1c-1.3-1.2-2.6-2.9-3.9-4.8-3.4-4.9-7-10-13.3-6.2-2.1 1.3-4.7 2.8-6.3 5 .5 2.5 1.3 4 2.2 5.6.5.8.9 1.7 1.4 2.7l.1.2-.8 1.7h-.2c-1.4.3-3 .4-4.5.6-2.4.2-4.7.4-6.4 1.2l-6.9 4.7v-4.6l2.3-1-.1-.2c-3.8-1.3-5.6-1.1-9.4-.8h-.4v-.7l1.6-2.9.3.1c2.5.8 7.6 2.1 10.4 1.8-3.7-3.1-9.9-4.1-16-5.1-4.4-.7-8.9-1.4-12.3-3-2.1-.9-3.7-2.4-5.3-3.9-2-1.9-3.9-3.6-6.7-4.3 2 5 3.5 11 3.9 16.2v.2l-4.1 2.4.2-.8c1.1-5.9-.6-12.8-2.9-15.7l-2.1 5.9-4.1.7 1.7-1.7.3-.7c1.5-3.8 3.6-9.1 2.6-15.1l-2.3-10.4v-.1c.2-1.6 1-2.5 1.8-3.4.9-1 1.7-2 1.8-3.9l-2-4.4c-1.2-1.3-8.1-4.7-9.8-3.5-4.1 2-5.9 6-7.7 10.2-1.2 2.8-2.5 5.7-4.6 8l-.1.1h-.8v-.8l-.7-7.4 8.7-10-.2-.2v-.1c-1.3-2.9-4.7-6.3-8.3-7l-5.7.2-.1-.3c-.3-.9-.8-1.5-1.3-2.2-.3-.4-.7-.9-1-1.4l-4.8-13.4-2.5-13.3c-.3-.7-.9-1.6-1.7-2.6-1.5-1.3-2.9-2.9-4.2-4.4-2.5-2.3-5.4-4.6-7.2-5.7l-6.7-2.2.5-.5c1.3-1.1 3.9-1.8 5.9-1.9h.1l5.4 3.7 6.6 6.2c-.1-.6-.2-1.2-.4-2-.9-4.6-2.2-11.7-1-14.7l.3-.8.6 1.3c1 2.8 1.4 6.6 1.8 10.3.6 5.4 1.2 11 3.8 13.8l.4-12.9c-.2-1.2-.5-2.6-.8-4.1-1.6-7.8-3.8-18.4-2.3-26 2.4-12.7 7.4-23.3 12.3-33.5 3.4-7.2 7-14.6 9.4-22.6l.1-.2 5-1.1v.8L853 490.3c5.1-2.4 11.1-5.3 14.7-9.8l2.9-4.3 1 .5v4.3l-.2.1c-5 3.7-9 8.4-13.3 13.7l.5 1.2c4.9 1.6 6.4 1.7 7.8.3.6-.9 1.2-1.7 1.7-2.3l.3-.4c.4-.6.9-1.4 1.4-2.2l.1-.2h.2c.5.1.7.2.9.2.1 0 .1-.1.2-.1 2-1.6 3.8-3.9 5.4-6.3l-.5-.1h.6c2.5-3.8 4.5-8 5.7-10.8l3-8.2 8.5-7.6c0-4-1.5-6.9-2.9-9.6-1-1.9-2-3.9-2.5-6.2l-.1-.5h3.7l3.9 10.3c.1-.3.2-.7.2-1 .4-1.7.8-3.2.6-5.5v-.4l4.2-.6v1.2l-.3.8c-1.4 3.1-3 6.6-3.3 10.5l.5.3c.7.5 2.4.9 3.5.4 2.7-1.1 10.7-7.8 10.8-11.1-.8-1.8.1-3.7 1-5.4l.3-.6 1 .5.3 4 .4-1h1l-1.4 4.2h-1.6v-.6l-.3-1.3c0 1 .2 2.1.4 3.3v.3l-.3.1c-.5.2-1 .5-1.5.9l.4.3c.5.3.9.9 1.3 1.5-.1-.4-.1-.7-.1-1l.1-.7.6.4c.3.2.6.4 1 .7l1.2-6.2 2.6.6-.1-.6c-.7-.6-1.3-1.2-1.7-2-2.4-4.8.2-14.2 1.8-17.9-1 .5-1.6 1-2.5 1.9l-.7.7v-2l.1-.1c.9-1.2 1.9-1.7 3-2.2l1.2-.6h1.6l-.1.5-.9 3.6c-1.3 4.6-2.7 9.7-1.6 15.5 1.7 1.3 3 2.2 6 2.3 5.1-3.2 10.2-6.8 12.9-11.1l.4-.7-.4-1.9-.2-.4h.1l-.2-.9.7.5v-2.2l1.3-1.3-2 .3v-.9l.1-.1c.9-.8 2.2-1 3.5-1.2.9-.2 1.8-.3 2.5-.6h1.9v1.6l-.3.1c-2.4.5-3.8 1.2-5.1 2.5l.2 1.6.4.1c2.2.8 4.8-1.6 6.3-3l.5-.5.8-.8c.1-.1.1-.2.2-.3l-1.4.7.5-1c.5-1.1 1.1-1.3 1.9-1.6.2-.1.5-.2.8-.3l.2-.1.2.2c1 .9 0 2.9-1 4.9-.6 1.2-1.2 2.3-1.4 3.3l.5 10.6-6.4 15.8c5.2-3.2 18.7-14.3 20.5-17.7v-.5l1.4-1.4.2.1c.4.1.9.2 1.3.4 3.3.9 5.9 1.6 8.6-1-.3-4.2-3.7-5.1-7.4-6-1.8-.5-3.6-1-5.1-1.9l.1.3-.9-.8h-.2l-.1-.2-.6-.6h.1c-.6-.8-1-1.8-1.1-2.9l-.1-.6 20.3 6.5.1.1c.4.4.5.8.6 1.2.1.4.1.5.7.8 3.4 1.6 6.7 2.2 10.3 2.7 2.6.4 5.3.9 8.2 1.7 1.2.4 2.2.9 3.4 1.5 1.2.6 2.3 1.2 3.7 1.6l-11.1-7.1 2 .4c3.5.7 6.6 2.4 9.6 4 1.2.6 2.3 1.3 3.4 1.8-.3-.5-.6-1.1-1-1.6-1.3-2.1-2.6-4.3-3.2-6.9v-.1l2.4-4.4h.9v.4c-.1 10.1 5.5 14.1 11.4 18.4.6.4 1.2.9 1.8 1.3h.1l28 29.9-.4-13.5 1.4.9 1.9 3.3.1 7.6c.1 1.4.1 2.8.1 4.2v.9c.8 3.2 2.9 6.4 5.1 9.8 3.8 5.9 7.8 12 5.9 19l-.1.3h-.7l-.4-.4-1-6.5-4.1 4.5c.1 3.1 1.5 5.7 2.9 8.2 1 1.8 2 3.6 2.5 5.6l6.1-5.9 6.7-4.9 5.4 1.5v.9h-.4c-6.3.3-12.5 6.1-16.3 11.6l4 9.8.8 11.9h.6l-1 7.8h-1v-.4c0-3.1-.9-8.1-2.5-9.1l-.6-.2c-3.6 3.8-4.3 10.7-5 17.3-.3 3.1-.7 6.3-1.3 9.2l-2.9 11c3.5-3.4 12.1-15.8 13.4-19l.1-.2h.9v3.3l-.2.1c-2 1.5-4.2 3.9-4.7 6.5h1.1c5.3-1.5 8.1-3.9 9.4-7.9l.1-.3h1l-1.3 6.6-.2.1c-4.8 1.6-12.5 6.6-15.4 10.7l-3.8 9.4c1.5-1.3 2.2-3.3 2.8-5.4.6-1.9 1.2-3.9 2.6-5.4l.1-.1h.8v.8l-5.9 13.4-6.6 5.5-10.6 10.6c-.7.7-1.6 1.5-2.6 2.4-3.4 3-7.6 6.8-8.3 11.5l.2-.2h.1c1.6-.7 3.8-2.5 6-4.4 4.1-3.5 8.8-7.5 12.6-6.5l.6.1-1.1 1.4-17.2 12c-8.2 5.7-17 10.8-29.4 17-1.2.6-5.2 2.5-9 4-7.6 3.1-8.6 2.5-9 2.3l-.7-.4.4-.2-5.8 1.8c.4.7.8 1.3 1.3 2 1.1 1.7 2.3 3.4 2.8 5.5l.2.2h-.2l.1.5-3.6-1.2zm-39.6-226.4.2.9h-1.2v-.9h-.2v-.9h-.2v-3.5l1.2 3.5h-.1l.3.9z"/></svg>